<?xml version="1.0" encoding="UTF-8" standalone="no"?>
<svg
   width="85.276855"
   height="82.378906"
   viewBox="0 0 22.562834 21.796086"
   version="1.1"
   id="svg16"
   xml:space="preserve"
   xmlns="http://www.w3.org/2000/svg"
   xmlns:svg="http://www.w3.org/2000/svg"
   xmlns:rdf="http://www.w3.org/1999/02/22-rdf-syntax-ns#"
   xmlns:cc="http://creativecommons.org/ns#"
   xmlns:dc="http://purl.org/dc/elements/1.1/"><defs
     id="defs10" /><metadata
     id="metadata13"><rdf:RDF><cc:Work
         rdf:about=""><dc:format>image/svg+xml</dc:format><dc:type
           rdf:resource="http://purl.org/dc/dcmitype/StillImage" /></cc:Work></rdf:RDF></metadata><g
     id="layer1"
     transform="translate(1275.9961,-6278.8286)"><g
       id="g3071"
       transform="matrix(0.26294722,0.0704565,-0.0704565,0.26294722,-2105.0151,6018.803)"
       style="stroke-width:3.67347"><path
         id="path3070"
         style="fill:#d40000;fill-opacity:1;stroke-width:3.67347"
         d="m 3221.7062,125.65533 -4.8114,2.16303 c -8.0343,3.61158 -8.848,4.06443 -11.1244,6.19032 -2.2594,2.10996 -3.6215,4.1663 -4.9532,7.47809 -0.5266,1.30968 -2.0953,5.16954 -3.4861,8.57726 -1.3908,3.40773 -2.529,6.36592 -2.529,6.57376 0,0.67892 0.8791,1.8858 1.5875,2.17919 0.3812,0.1579 4.1985,1.27692 8.4827,2.48667 l 7.7892,2.19987 0.1323,15.84709 c 0.1283,15.37628 0.1484,15.87408 0.6749,16.77262 0.2983,0.50932 1.0129,1.18385 1.5875,1.49862 1.7507,0.95905 10.4339,2.68003 16.2584,3.22254 3.5919,0.33452 12.1674,0.35369 15.3841,0.0341 6.1512,-0.61111 12.7949,-2.16594 14.5644,-3.40806 0.5374,-0.37713 1.1332,-0.98341 1.3235,-1.34721 0.2692,-0.51484 0.375,-4.20539 0.478,-16.65066 l 0.1323,-15.98972 5.4239,-1.63039 c 11.0603,-3.32429 10.8161,-3.23468 11.3869,-4.17081 0.2847,-0.4669 0.5179,-1.00068 0.5184,-1.18649 0,-0.57074 -5.8105,-16.19543 -6.6239,-17.80666 -1.1137,-2.20626 -3.3595,-4.71203 -5.5842,-6.23011 -2.3534,-1.606 -2.1713,-1.52175 -10.4981,-4.84622 l -4.5323,-1.80947 c -0.6422,-0.25642 -1.4963,-0.0131 -1.937,0.51976 -0.4255,0.51441 -0.8738,1.01824 -1.3276,1.50003 -2.7824,2.95412 -5.7362,3.94873 -7.9003,5.08229 -2.164,1.13357 -3.5379,1.27093 -5.1867,1.09916 -1.6489,-0.17177 -3.5723,-0.65239 -5.6333,-1.78594 -2.061,-1.13354 -4.2595,-1.78475 -6.2518,-4.05186 l -1.6305,-2.08672 c -0.4056,-0.51914 -1.1133,-0.69421 -1.7142,-0.42408 z" /><path
         id="path3071"
         style="fill:#ffffff;fill-opacity:1;fill-rule:nonzero;stroke-width:2.21269;stroke-linecap:round;stroke-linejoin:round;stroke-dashoffset:36;stop-color:#000000"
         d="m 3233.5219,145.13663 c -7.4608,0.50514 -13.4199,6.10738 -13.9573,13.12151 -0.045,0.5703 -0.045,1.49878 -3e-4,2.06881 0.5374,7.01419 6.4962,12.61657 13.9571,13.12199 0.6066,0.0414 1.594,0.0407 2.2005,0 2.9437,-0.20414 5.7606,-1.21567 8.0994,-2.90883 0.4815,-0.34864 0.5074,-0.99639 0.09,-1.41047 l -3.7863,-3.74058 c -0.4193,-0.4141 -1.1338,-0.44446 -1.6512,-0.14521 -0.8288,0.47904 -1.7617,0.81006 -2.7554,0.95191 -0.6009,0.0857 -1.5929,0.0857 -2.1938,1.4e-4 -3.1964,-0.45505 -5.7593,-2.86345 -6.2441,-5.86818 -0.092,-0.56497 -0.092,-1.49822 0,-2.06285 0.4848,-3.0055 3.0504,-5.41909 6.2436,-5.87582 0.6007,-0.086 1.5937,-0.086 2.1943,0 0.9937,0.14219 1.9273,0.47413 2.756,0.95457 0.5171,0.29968 1.2313,0.2693 1.6503,-0.14464 l 3.7892,-3.74571 c 0.4189,-0.41414 0.3931,-1.0619 -0.09,-1.41025 -2.3405,-1.69184 -5.1574,-2.70183 -8.1016,-2.90421 -0.6064,-0.0414 -1.5934,-0.0414 -2.1998,0 z m 16.4052,0.98713 -12.5627,12.4208 a 1.1574527,1.0881761 0 0 0 0,1.49991 l 12.5627,12.41369 a 1.1018227,1.0358756 0 0 0 1.5568,0.0372 l 3.9687,-3.54403 a 1.0998487,1.0340197 0 0 0 0.041,-1.46259 l -7.535,-7.4442 a 1.156838,1.0875981 0 0 1 0,-1.49956 l 7.535,-7.44426 a 1.1006802,1.0348015 0 0 0 -0.038,-1.46315 l -3.9702,-3.55042 a 1.1006942,1.0348146 0 0 0 -1.5562,0.0365 z" /></g></g></svg>
