<?xml version="1.0" encoding="UTF-8" standalone="no"?>
<svg
   width="1190.5371"
   height="1190.5391"
   viewBox="0 0 314.99627 314.9968"
   version="1.1"
   id="svg16"
   xml:space="preserve"
   xmlns="http://www.w3.org/2000/svg"
   xmlns:svg="http://www.w3.org/2000/svg"
   xmlns:rdf="http://www.w3.org/1999/02/22-rdf-syntax-ns#"
   xmlns:cc="http://creativecommons.org/ns#"
   xmlns:dc="http://purl.org/dc/elements/1.1/"><defs
     id="defs10" /><metadata
     id="metadata13"><rdf:RDF><cc:Work
         rdf:about=""><dc:format>image/svg+xml</dc:format><dc:type
           rdf:resource="http://purl.org/dc/dcmitype/StillImage" /></cc:Work></rdf:RDF></metadata><g
     id="layer1"
     transform="translate(30.663245,-8917.4647)"><path
       id="path167"
       style="fill:#00ffff;stroke-width:0.264583;stroke-linejoin:round;paint-order:stroke fill markers"
       d="M 126.83464,8917.4655 A 157.49823,157.49823 0 0 0 -30.663245,9074.9639 157.49823,157.49823 0 0 0 126.83464,9232.4623 157.49823,157.49823 0 0 0 284.33303,9074.9639 157.49823,157.49823 0 0 0 126.83464,8917.4655 Z m 0,30.3145 A 127.18398,127.18398 0 0 1 254.0186,9074.9639 127.18398,127.18398 0 0 1 126.83464,9202.1479 127.18398,127.18398 0 0 1 -0.34933268,9074.9639 127.18398,127.18398 0 0 1 126.83464,8947.78 Z m 46.03284,66.2419 a 29.504773,29.504773 0 0 0 -29.50465,29.5047 29.504773,29.504773 0 0 0 29.50465,29.5051 29.504773,29.504773 0 0 0 29.50518,-29.5051 29.504773,29.504773 0 0 0 -29.50518,-29.5047 z m -102.169986,3.3683 a 29.504773,29.504773 0 0 0 -29.505176,29.5052 29.504773,29.504773 0 0 0 29.505176,29.5046 29.504773,29.504773 0 0 0 29.504656,-29.5046 29.504773,29.504773 0 0 0 -29.504656,-29.5052 z m 7.895125,108.3226 v 31.4373 H 185.25381 v -31.4373 z" /></g></svg>
