<?xml version="1.0" encoding="UTF-8" standalone="no"?>
<svg
   width="504.18698"
   height="76.648438"
   viewBox="0 0 133.39947 20.2799"
   version="1.1"
   id="svg16"
   xml:space="preserve"
   xmlns="http://www.w3.org/2000/svg"
   xmlns:svg="http://www.w3.org/2000/svg"
   xmlns:rdf="http://www.w3.org/1999/02/22-rdf-syntax-ns#"
   xmlns:cc="http://creativecommons.org/ns#"
   xmlns:dc="http://purl.org/dc/elements/1.1/"><defs
     id="defs10" /><metadata
     id="metadata13"><rdf:RDF><cc:Work
         rdf:about=""><dc:format>image/svg+xml</dc:format><dc:type
           rdf:resource="http://purl.org/dc/dcmitype/StillImage" /></cc:Work></rdf:RDF></metadata><g
     id="layer1"
     transform="translate(1858.4709,-7071.6984)"><path
       id="path3066"
       style="fill:#d40000;fill-opacity:1;stroke:none;stroke-width:3.43958;stroke-linecap:round;stroke-linejoin:round;paint-order:stroke fill markers"
       d="m -1753.7124,7075.3077 -1.2516,0.9896 h 28.3006 l 0.9901,-0.9896 z m -1.2521,1.6371 1.2707,0.9901 h 28.0205 l -0.9901,-0.9901 z m -37.7807,5.1878 c -2.9429,0 -2.9564,2.6037 -2.9564,3.838 v 2.1833 c 0,1.234 -10e-5,3.8246 2.9564,3.8246 h 5.2214 c 3.0378,0 3.0375,-2.4955 3.0375,-3.8246 v -0.8 h -2.59 v 0.7323 c 0,0.8814 -0.054,1.139 -0.5291,1.139 h -4.9636 c -0.4477,0 -0.4883,-0.2985 -0.4883,-1.1664 v -1.9797 c 0,-0.8815 0.041,-1.1937 0.4749,-1.1937 h 4.9635 c 0.4882,0 0.5426,0.2712 0.5426,1.1663 v 0.6103 h 2.59 v -0.6914 c 0,-1.3291 -0.016,-3.838 -3.0375,-3.838 z m 11.7719,0 c -3.0245,0.016 -3.038,2.5089 -3.038,3.838 v 2.1833 c 0,1.3291 0,3.8246 3.038,3.8246 h 5.2348 c 3.0378,0 3.0376,-2.4955 3.0376,-3.8246 v -2.1833 c 0,-1.3291 -0.016,-3.8245 -3.0376,-3.838 z m 47.5883,0 c -1.9121,0 -3.0649,0.8405 -3.0649,2.807 v 0.041 c 0.016,1.9124 1.0577,2.6586 2.7394,2.8893 5.3433,0.5559 5.859,0.6372 5.859,0.9627 v 0.1354 c 0,0.1763 -0.1632,0.2982 -0.4206,0.2982 h -5.0994 c -0.1763,0 -0.4744,-0.2578 -0.4744,-0.7054 v -0.2305 h -2.6448 v 0.1762 c 0,2.292 1.058,3.4722 3.1331,3.4722 h 5.1263 c 1.9935,0 3.16,-1.0035 3.16,-2.9022 v -0.041 c -0.016,-2.1835 -1.2206,-2.6174 -3.1192,-2.8887 -3.7701,-0.4204 -5.4792,-0.5018 -5.4792,-0.8816 v -0.041 c 0,-0.2305 0.163,-0.3658 0.3798,-0.3658 h 5.0855 c 0.3662,0 0.4749,0.3122 0.4749,0.6919 v 0.1628 h 2.6308 v -0.4067 c 0,-2.6176 -1.7088,-3.1734 -3.16,-3.1734 z m -24.9266,0.1896 v 9.4935 h 10.049 v -2.7394 h -7.4451 v -0.7731 h 7.4451 v -2.482 h -7.4451 v -0.7596 h 7.4451 v -2.7394 z m 10.5916,0 v 2.7125 h 4.1501 v 6.781 h 2.7259 v -6.781 h 4.1502 v -2.7125 z m -24.4378,0 -5e-4,9.4919 h 2.6174 v -4.299 c 0,-0.2442 -2e-4,-0.6919 -0.068,-1.0852 l 0.1095,-0.028 c 0.041,0.1353 0.2169,0.4203 0.3525,0.6372 l 2.6308,3.7837 h 1.8852 l 2.699,-3.7429 c 0.1092,-0.2034 0.2441,-0.4885 0.2848,-0.6377 l 0.109,0.016 c -0.054,0.3662 -0.068,0.7187 -0.068,1.0305 v 4.3263 h 2.6174 v -9.4929 h -2.9027 l -3.3899,4.6514 c -0.095,0.217 -0.2713,0.5832 -0.2713,0.7188 h -0.082 c 0,-0.1353 -0.1352,-0.4883 -0.2439,-0.7188 l -3.3905,-4.6514 z m -8.6393,2.5616 h 4.8824 c 0.5288,0.016 0.5964,0.2988 0.5964,1.248 v 1.8712 c 0,0.9358 -0.069,1.2206 -0.5964,1.2206 h -4.8824 c -0.529,0 -0.5968,-0.2848 -0.5968,-1.2206 v -1.8712 c 0,-0.9357 0.068,-1.2343 0.5968,-1.248 z" /><path
       id="path3069"
       style="fill:#000000;fill-opacity:1;stroke:none;stroke-width:3.43958;stroke-linecap:round;stroke-linejoin:round;paint-order:stroke fill markers"
       d="m -1843.3995,7071.6986 c -3.0243,0.016 -3.038,2.5089 -3.038,3.838 v 2.1838 c 0,1.329 2e-4,3.8241 3.038,3.8241 h 5.2349 c 3.0378,0 3.038,-2.4951 3.038,-3.8241 v -2.1838 c 0,-1.3291 -0.016,-3.8245 -3.038,-3.838 z m 62.2898,0 c -3.0245,0.016 -3.0381,2.5089 -3.0381,3.838 v 2.1838 c 0,1.329 10e-5,3.8241 3.0381,3.8241 h 5.2348 c 3.0378,0 3.0381,-2.4951 3.0381,-3.8241 v -2.1838 c 0,-1.3291 -0.016,-3.8245 -3.0381,-3.838 z m 19.4339,0.1886 v 9.495 h 2.6857 v -2.6313 c 0,-0.2305 -0.028,-0.5151 -0.082,-0.7457 l 0.094,-0.041 c 0.082,0.1898 0.1762,0.4071 0.339,0.57 l 3.8381,2.8479 h 4.3129 l -6.0761,-4.733 v -0.041 l 5.9675,-4.7191 h -4.2178 l -3.8649,2.9967 c -0.1076,0.1092 -0.2308,0.3527 -0.2987,0.5018 l -0.094,-0.041 c 0.054,-0.2578 0.082,-0.5834 0.082,-0.7596 v -2.6991 z m -72.9087,5e-4 v 9.4945 h 2.604 v -2.9838 h 5.4658 c 0.4475,0 0.4878,0.6375 0.4878,0.6646 v 2.3192 h 2.726 c -0.028,-0.5833 -0.068,-1.5054 -0.068,-2.2107 0,-1.0307 -0.5694,-1.8443 -1.2474,-1.8443 v -0.1096 c 0.8136,0 1.465,-1.2613 1.465,-2.0614 v -0.2981 c 0,-2.4412 -1.7496,-2.9704 -3.2143,-2.9704 z m -14.997,5e-4 v 5.6824 c 0,0.1899 0.028,0.4201 0.069,0.6914 0,0.016 0,0.028 0.016,0.041 l -0.095,0.028 c -0.1222,-0.244 -0.244,-0.4205 -0.3659,-0.556 l -5.6012,-5.8859 h -2.9022 l -0.01,9.4924 h 2.604 l 0.016,-5.5196 c 0,-0.1483 -0.016,-0.2985 -0.041,-0.4749 -0.028,-0.1897 -0.054,-0.3796 -0.095,-0.556 l 0.095,-0.041 c 0.028,0.068 0.068,0.135 0.095,0.1896 0.095,0.1764 0.1764,0.3124 0.2713,0.4072 l 5.5872,5.994 h 2.957 v -9.493 z m 26.7012,5e-4 v 2.7125 h 4.1496 v 6.781 h 2.726 v -6.781 h 4.1501 v -2.7125 z m 11.5683,0 v 9.4935 h 2.7528 v -3.4313 h 5.9536 v 3.4313 h 2.7534 v -9.4935 h -2.7534 v 3.5125 h -5.9536 v -3.5125 z m 15.3655,0 v 9.4935 h 2.6039 v -2.6717 h 5.7092 c 1.9802,0 3.0789,-1.1528 3.0789,-3.2277 v -0.3663 c 0,-2.0343 -1.1394,-3.2278 -3.0923,-3.2278 z m 23.6517,0 v 9.4935 h 10.0093 v -2.7533 h -7.2151 v -6.7402 z m -70.9284,2.5632 h 4.8824 c 0.529,0.016 0.5968,0.2981 0.5968,1.2475 v 1.8717 c 0,0.9359 -0.068,1.2206 -0.5968,1.2206 h -4.8824 c -0.529,0 -0.5969,-0.2847 -0.5969,-1.2206 v -1.8717 c 0,-0.9359 0.068,-1.2339 0.5969,-1.2475 z m 62.2897,0 h 4.8824 c 0.5289,0.016 0.5969,0.2981 0.5969,1.2475 v 1.8717 c 0,0.9359 -0.068,1.2206 -0.5969,1.2206 h -4.8824 c -0.529,0 -0.5963,-0.2847 -0.5963,-1.2206 v -1.8717 c 0,-0.9359 0.067,-1.2339 0.5963,-1.2475 z m -12.4091,0.1896 h 5.547 c 0.4883,0 0.5963,0.4746 0.5963,0.678 v 0.1484 c 0,0.4069 -0.2031,0.6511 -0.5694,0.6511 h -5.5739 z m -38.6379,0.054 h 5.5335 c 0.5018,0 0.5286,0.3664 0.5286,0.4883 v 0.2037 c 0,0.1222 -0.041,0.4609 -0.5017,0.4609 h -5.5604 z m -26.2418,11.0458 0.9906,0.9902 h 60.7813 v -0.7612 -0.229 z m 0.9906,1.6372 -0.9906,0.9901 h 61.773 v -0.215 -0.7751 z" /></g></svg>
