<?xml version="1.0" encoding="UTF-8" standalone="no"?>
<svg
   width="289.61328"
   height="88.480469"
   viewBox="0 0 76.626846 23.410458"
   version="1.1"
   id="svg16"
   xml:space="preserve"
   xmlns="http://www.w3.org/2000/svg"
   xmlns:svg="http://www.w3.org/2000/svg"
   xmlns:rdf="http://www.w3.org/1999/02/22-rdf-syntax-ns#"
   xmlns:cc="http://creativecommons.org/ns#"
   xmlns:dc="http://purl.org/dc/elements/1.1/"><defs
     id="defs10" /><metadata
     id="metadata13"><rdf:RDF><cc:Work
         rdf:about=""><dc:format>image/svg+xml</dc:format><dc:type
           rdf:resource="http://purl.org/dc/dcmitype/StillImage" /></cc:Work></rdf:RDF></metadata><g
     id="layer1"
     transform="translate(1983.7693,-7418.117)"><path
       id="path2907"
       style="font-size:16.2406px;line-height:1.25;font-family:'Jersey M54';-inkscape-font-specification:'Jersey M54, Normal';text-align:center;baseline-shift:baseline;text-anchor:middle;display:inline;overflow:visible;vector-effect:none;fill:#000000;fill-opacity:1;enable-background:accumulate;stop-color:#000000"
       d="m -1983.7694,7418.1173 v 12.8886 h 2.7224 v -5.5842 l 2.1507,5.5842 h 3.0133 l -0.1835,-0.293 v -12.5956 h -2.715 v 5.5934 l -2.1581,-5.5934 z m 9.9901,0 -1.5994,1.4278 v 10.0428 l 1.5994,1.418 h 4.4452 l 1.6175,-1.418 v -10.0428 l -1.6175,-1.4278 z m 6.7423,0 v 12.8886 h 2.7383 v -5.0741 h 0.3183 l 1.9591,5.0741 h 2.9295 l -2.0526,-5.2638 1.5333,-1.4314 v -4.7656 l -1.602,-1.4278 z m 8.5255,0 v 2.7305 h 2.2831 v 10.1581 h 2.7383 v -10.1581 h 2.2831 v -2.7305 z m 7.984,0 v 12.8886 h 2.7306 v -5.0741 h 2.1797 v 5.0741 h 2.7286 v -12.8886 h -2.7286 v 5.0761 h -2.1797 v -5.0761 z m 12.2851,0 v 12.8886 h 2.7285 v -4.2266 h 3.0158 l 1.6253,-1.4434 v -5.7831 l -1.6253,-1.4355 z m 9.6485,0 -1.5994,1.4278 v 10.0428 l 1.5994,1.418 h 4.4457 l 1.617,-1.418 v -10.0428 l -1.617,-1.4278 z m 6.7422,0 v 12.8886 h 6.133 v -2.7306 h -3.3947 v -10.158 z m 6.8125,0 v 12.8886 h 2.7285 v -4.3574 l 2.125,4.3574 h 3.0432 l -3.1838,-6.4394 3.1838,-6.4492 h -3.0432 l -2.125,4.3594 v -4.3594 z m -49.2595,2.7249 h 1.957 v 2.3533 h -1.957 z m -8.3499,0.01 h 2.1937 v 7.4279 h -2.1937 z m 37.1347,0 h 1.9105 v 3.2013 h -1.9105 z m 8.0512,0 h 2.1931 v 7.4279 h -2.1931 z" /><path
       id="rect2905"
       style="fill:#d40000;fill-opacity:1;stroke:none;stroke-width:0.315212;stroke-linecap:square;stroke-linejoin:miter;stroke-dasharray:none;stroke-opacity:1;paint-order:stroke fill markers"
       d="m -1983.7688,7432.0709 v 6.7107 h 76.4945 v -6.7107 z m 1.7296,0.8222 h 1.6676 l 0.6123,0.5354 v 0.7803 h -0.9348 v -0.3809 h -1.0061 v 3.1957 h 1.0061 v -0.4093 h 0.9348 v 0.816 l -0.6123,0.5286 h -1.6676 l -0.5964,-0.5286 v -4.0055 z m 3.3279,0 h 1.7415 l 0.6031,0.5317 v 4.0055 l -0.6031,0.5286 h -1.7415 l -0.5963,-0.5286 v -4.0055 z m 2.7962,0 h 0.9349 l 0.8128,1.741 0.816,-1.741 h 0.9385 v 5.0658 h -0.9385 v -2.8541 l -0.816,1.7415 -0.8128,-1.7415 v 2.8541 h -0.9349 z m 3.9533,0 h 2.4215 v 0.9348 h -1.4862 v 1.1292 h 1.2801 v 0.9379 h -1.2801 v 1.1286 h 1.5059 v 0.9353 h -2.4412 z m 2.8928,0 h 2.7957 v 0.9348 h -0.9286 v 4.131 h -0.9384 v -4.131 h -0.9287 z m 3.8499,0 h 1.616 l 0.5963,0.5286 v 0.7871 h -0.9353 v -0.3809 h -0.9447 v 1.1292 h 1.2837 l 0.5963,0.5317 v 1.9415 l -0.5963,0.5286 h -1.616 l -0.603,-0.5286 v -0.816 h 0.9353 v 0.4093 h 0.9447 v -1.1286 h -1.277 l -0.603,-0.5318 v -1.9384 z m 57.1335,0.026 h 5e-4 c 6e-4,1e-4 0,7e-4 0,0 0,3e-4 0,0 0,0 l 5e-4,5e-4 6e-4,6e-4 5e-4,5e-4 5e-4,5e-4 c 10e-5,2e-4 4e-4,0 5e-4,0 2e-4,8e-4 5e-4,0 5e-4,0 0,0.01 -0.026,0.05 -0.094,0.1643 -0.063,0.1048 -0.1477,0.2484 -0.1633,0.2754 -0.01,0.01 -0.025,0.043 -0.043,0.074 -0.056,0.095 -0.123,0.2114 -0.1623,0.2812 -0.021,0.037 -0.047,0.082 -0.057,0.1002 -0.011,0.018 -0.019,0.034 -0.019,0.035 0,0 -0.01,0.013 -0.014,0.026 -0.01,0.013 -0.024,0.041 -0.036,0.063 -0.012,0.022 -0.045,0.082 -0.073,0.1344 -0.028,0.052 -0.064,0.1167 -0.078,0.1436 -0.059,0.1094 -0.1956,0.3847 -0.2284,0.462 -0.038,0.089 -0.059,0.1573 -0.059,0.1871 0,0.049 0.052,0.1026 0.1189,0.122 0.035,0.01 0.1552,0.021 0.2346,0.022 0.028,0 0.051,0.01 0.051,0.01 0,0.01 -0.092,0.1287 -0.1457,0.1974 -0.01,0.01 -0.1823,0.2423 -0.3907,0.5199 -0.2084,0.2776 -0.475,0.6325 -0.5927,0.7885 -0.1176,0.1559 -0.2276,0.3022 -0.2444,0.3251 -0.017,0.023 -0.058,0.078 -0.093,0.1235 -0.034,0.045 -0.1077,0.142 -0.1638,0.216 -0.2074,0.2738 -0.2489,0.3221 -0.352,0.4083 -0.2098,0.1752 -0.5122,0.3103 -0.7498,0.3353 -0.052,0.01 -0.3545,0.01 -0.401,0 v -0.012 c -0.037,-0.01 -0.1786,-0.038 -0.2357,-0.056 -0.1678,-0.055 -0.3195,-0.133 -0.448,-0.231 -0.074,-0.056 -0.084,-0.065 -0.1607,-0.1426 -0.1929,-0.1938 -0.3275,-0.4425 -0.3912,-0.7219 -0.023,-0.1001 -0.026,-0.1527 -0.023,-0.3432 0,-0.1633 2e-4,-0.1875 0.019,-0.2527 0.071,-0.3256 0.2259,-0.5929 0.4687,-0.8066 0.09,-0.079 0.4474,-0.3848 0.6604,-0.5648 0.052,-0.044 0.133,-0.113 0.1803,-0.1535 0.047,-0.041 0.1108,-0.094 0.1411,-0.1194 0.03,-0.025 0.1091,-0.091 0.1747,-0.1468 0.066,-0.055 0.1554,-0.1308 0.1995,-0.1679 0.044,-0.037 0.1457,-0.1224 0.2258,-0.1897 0.1708,-0.1436 0.2608,-0.2168 0.2672,-0.217 3e-4,0 10e-4,0 0,0 h 5e-4 5e-4 6e-4 l 5e-4,5e-4 h 5e-4 l 5e-4,5e-4 5e-4,6e-4 v 5e-4 h 5e-4 v 5e-4 5e-4 l 6e-4,5e-4 c 0,0.01 -0.01,0.023 -0.026,0.06 -0.072,0.1568 -0.1074,0.3213 -0.085,0.4015 0.01,0.033 0.043,0.08 0.062,0.087 0.027,0.01 0.087,-0.01 0.1886,-0.052 0.039,-0.017 0.2924,-0.1437 0.355,-0.1772 0.029,-0.015 0.082,-0.044 0.1189,-0.063 0.065,-0.034 0.2342,-0.1256 0.2909,-0.1571 0.015,-0.01 0.1155,-0.064 0.2232,-0.1235 0.1077,-0.06 0.2001,-0.1107 0.2052,-0.1137 0.01,-0.01 0.031,-0.018 0.058,-0.033 0.027,-0.015 0.06,-0.033 0.073,-0.041 0.059,-0.033 0.1983,-0.1125 0.2207,-0.125 0.052,-0.029 0.2046,-0.1166 0.2599,-0.1494 0.032,-0.019 0.068,-0.04 0.08,-0.047 0.037,-0.021 0.112,-0.065 0.1344,-0.078 0.012,-0.01 0.054,-0.032 0.095,-0.055 0.04,-0.024 0.094,-0.055 0.1193,-0.07 0.1256,-0.076 0.2845,-0.1664 0.2915,-0.1664 z m -70.2867,0.909 v 3.1957 h 1.0671 v -3.1957 z m 66.7417,1.5963 c -0.07,0 -0.1355,0 -0.1835,0.01 -0.023,0.01 -0.05,0.01 -0.061,0.012 -0.082,0.014 -0.2594,0.093 -0.352,0.1571 -0.237,0.1645 -0.3986,0.4216 -0.4392,0.6992 -0.012,0.079 -0.01,0.2412 0,0.3452 0.014,0.1133 0.095,0.3038 0.1757,0.417 0.1762,0.247 0.4443,0.405 0.739,0.4362 0.046,0.01 0.2201,10e-5 0.2878,-0.011 l 0.01,0.01 c 0.1438,-0.019 0.3151,-0.094 0.4553,-0.1984 0.068,-0.05 0.1873,-0.1733 0.2284,-0.2347 0.1305,-0.1948 0.2001,-0.4503 0.1814,-0.6655 -0.012,-0.141 -0.042,-0.2526 -0.097,-0.3706 -0.051,-0.1079 -0.113,-0.1984 -0.1963,-0.2868 -0.034,-0.036 -0.1144,-0.1038 -0.1277,-0.108 h -5e-4 l -0.01,-0.01 v -5e-4 l -5e-4,-5e-4 v -5e-4 l -5e-4,-6e-4 c -0.01,-0.013 -0.081,-0.056 -0.1267,-0.08 -0.081,-0.042 -0.1991,-0.085 -0.2744,-0.099 -0.062,-0.011 -0.1355,-0.018 -0.2051,-0.02 z" /><path
       id="rect2906"
       style="fill:#030303;stroke-width:0.160507;stroke-linecap:square;paint-order:stroke fill markers"
       d="m -1983.769,7439.7876 h 76.4949 v 1.74 h -76.4949 z" /></g></svg>
