<?xml version="1.0" encoding="UTF-8" standalone="no"?>
<svg
   width="437.10498"
   height="153.24609"
   viewBox="0 0 115.65069 40.546363"
   version="1.1"
   id="svg16"
   xml:space="preserve"
   xmlns="http://www.w3.org/2000/svg"
   xmlns:svg="http://www.w3.org/2000/svg"
   xmlns:rdf="http://www.w3.org/1999/02/22-rdf-syntax-ns#"
   xmlns:cc="http://creativecommons.org/ns#"
   xmlns:dc="http://purl.org/dc/elements/1.1/"><defs
     id="defs10" /><metadata
     id="metadata13"><rdf:RDF><cc:Work
         rdf:about=""><dc:format>image/svg+xml</dc:format><dc:type
           rdf:resource="http://purl.org/dc/dcmitype/StillImage" /></cc:Work></rdf:RDF></metadata><g
     id="layer1"
     transform="translate(1998.7277,-7173.1025)"><path
       d="m -1991.4932,7173.6729 v 17.3476 l -2.8783,-17.3476 h -4.3563 v 39.9591 h 4.3563 v -17.5033 l 2.8783,17.5033 h 4.3564 v -39.9591 z m 10.0611,4.7712 c 0,-0.3977 0.147,-0.7347 0.4409,-1.0113 0.2766,-0.2939 0.6136,-0.4408 1.0113,-0.4408 0.3976,0 0.7433,0.1469 1.0372,0.4408 0.2766,0.2766 0.4149,0.6136 0.4149,1.0113 v 29.8628 c 0,0.3976 -0.1383,0.7347 -0.4149,1.0113 -0.2939,0.2765 -0.6396,0.4149 -1.0372,0.4149 -0.3977,0 -0.7347,-0.1384 -1.0113,-0.4149 -0.2939,-0.2766 -0.4409,-0.6137 -0.4409,-1.0113 z m 1.4522,-5.3417 c -1.6077,0 -2.9907,0.5705 -4.149,1.7114 -1.1409,1.1583 -1.7114,2.5411 -1.7114,4.1488 v 28.8256 c 0,1.6077 0.5705,2.9907 1.7114,4.149 1.1583,1.1409 2.5413,1.7114 4.149,1.7114 1.6249,0 3.0079,-0.5705 4.1489,-1.7114 1.1582,-1.1583 1.7373,-2.5413 1.7373,-4.149 v -28.8256 c 0,-1.6077 -0.5791,-2.9905 -1.7373,-4.1488 -1.141,-1.1409 -2.524,-1.7114 -4.1489,-1.7114 z m 11.5391,5.0305 h 0.9594 c 0.2593,-0.017 0.51,0.043 0.752,0.1815 0.5014,0.2939 0.752,0.8298 0.752,1.6077 v 9.7722 c 0,0.7952 -0.2506,1.3312 -0.752,1.6077 -0.242,0.1383 -0.4927,0.1988 -0.752,0.1815 h -0.9594 z m -4.3563,-4.46 v 27.8691 h 4.3563 v -5.4946 h 0.7261 c 0.242,-0.017 0.4926,0.043 0.7519,0.1814 0.2248,0.1211 0.3977,0.2939 0.5187,0.5186 0.1555,0.2939 0.2333,0.657 0.2333,1.0891 v 3.7055 h 4.2786 v -3.6536 c -0.017,-0.6742 -0.061,-1.236 -0.1296,-1.6855 -0.1729,-1.1928 -0.5619,-2.0571 -1.1669,-2.5931 0.5013,-0.7088 0.8989,-1.5299 1.1928,-2.4633 0.2247,-0.7779 0.3371,-1.4694 0.3371,-2.0745 v -9.8241 c 0,-0.4839 -0.01,-0.8989 -0.026,-1.2446 -0.052,-0.899 -0.1729,-1.6336 -0.3631,-2.2041 -0.484,-1.4175 -1.5731,-2.1263 -3.2672,-2.1263 z m 22.5337,0 h -10.1389 v 4.3563 h 2.9042 v 23.5128 h 4.3305 v -23.5128 h 2.9042 z m 8.7646,0 v 17.8143 h -3.1117 v -17.8143 h -4.3564 v 27.8691 h 4.3564 v -5.7244 h 3.1117 v 5.7244 h 4.3563 v -27.8691 z m 17.2698,14.3944 c 0,0.7778 -0.2507,1.3138 -0.752,1.6077 -0.242,0.1382 -0.4927,0.1988 -0.752,0.1814 h -0.9594 v -11.7235 h 0.9594 c 0.2593,-0.017 0.51,0.043 0.752,0.1815 0.5013,0.2939 0.752,0.8298 0.752,1.6077 z m 4.2786,-8.8194 c 0,-0.4839 -0.01,-0.8989 -0.026,-1.2446 -0.052,-0.899 -0.1728,-1.6336 -0.363,-2.2041 -0.484,-1.4175 -1.5731,-2.1263 -3.2672,-2.1263 h -7.4422 v 27.8691 h 4.3564 v -7.2255 h 3.0858 c 1.6941,0 2.7832,-0.7088 3.2672,-2.1263 0.1902,-0.5532 0.3112,-1.2879 0.363,-2.2041 0.017,-0.3458 0.026,-0.7607 0.026,-1.2447 z m 5.7047,-0.8038 c 0,-0.3977 0.1469,-0.7347 0.4408,-1.0113 0.2766,-0.2939 0.6137,-0.4408 1.0113,-0.4408 0.3976,0 0.7434,0.1469 1.0373,0.4408 0.2765,0.2766 0.4148,0.6136 0.4148,1.0113 v 17.7562 c 0,0.3976 -0.1383,0.7347 -0.4148,1.0113 -0.2939,0.2766 -0.6397,0.4149 -1.0373,0.4149 -0.3976,0 -0.7347,-0.1383 -1.0113,-0.4149 -0.2939,-0.2766 -0.4408,-0.6137 -0.4408,-1.0113 z m 1.4521,-5.3417 c -1.6077,0 -2.9906,0.5705 -4.1489,1.7114 -1.1409,1.1583 -1.7114,2.5411 -1.7114,4.1488 v 16.7191 c 0,1.6077 0.5705,2.9907 1.7114,4.1489 1.1583,1.1409 2.5412,1.7114 4.1489,1.7114 1.625,0 3.008,-0.5705 4.1489,-1.7114 1.1583,-1.1582 1.7374,-2.5412 1.7374,-4.1489 v -16.7191 c 0,-1.6077 -0.5791,-2.9905 -1.7374,-4.1488 -1.1409,-1.1409 -2.5239,-1.7114 -4.1489,-1.7114 z m 11.5392,36.1247 v -35.5542 h -4.3564 v 39.9106 h 8.6868 v -4.3564 z m 18.1774,-35.5542 h -4.3304 l -3.8637,18.0477 v -18.0477 h -4.3564 v 39.9591 h 4.3564 v -18.0478 l 3.8637,18.0478 h 4.3304 l -4.3304,-19.9666 z"
       id="path2658"
       style="font-size:46.9091px;line-height:1.25;font-family:Heathergreen;-inkscape-font-specification:'Heathergreen, Normal';fill:#000000;stroke-width:0;stroke-dasharray:none"
       aria-label="NORTH POLK " /><path
       d="m -1969.5794,7213.4436 h 3.8376 c 3.3063,0 3.3063,-2.7158 3.3063,-4.1623 v -0.8709 h -2.8192 v 0.7823 c 0,0.9447 -0.044,1.2399 -0.5314,1.2399 h -3.6457 c -0.4428,0 -0.5019,-0.3248 -0.5019,-1.2694 v -2.1255 c 0,-0.9594 0.059,-1.2989 0.4871,-1.2989 h 3.6458 c 0.5018,0 0.5461,0.31 0.5461,1.2842 v 0.6346 h 2.8192 v -0.7527 c 0,-1.4465 -0.015,-4.1771 -3.3063,-4.1771 h -3.8376 c -3.203,0 -3.2177,2.8339 -3.2177,4.1771 v 2.3764 c 0,1.3431 0,4.1623 3.2177,4.1623 z m 10.9668,0 h 3.8524 c 3.3063,0 3.3063,-2.7158 3.3063,-4.1623 v -2.3764 c 0,-1.4465 -0.015,-4.1624 -3.3063,-4.1771 h -3.8524 c -3.2915,0.015 -3.3063,2.7306 -3.3063,4.1771 v 2.3764 c 0,1.4465 0,4.1623 3.3063,4.1623 z m -0.4723,-4.3395 v -2.0073 c 0,-1.0185 0.074,-1.3432 0.6199,-1.358 h 3.5572 c 0.5461,0.015 0.6199,0.3248 0.6199,1.358 v 2.0073 c 0,1.0185 -0.089,1.3285 -0.6199,1.3285 h -3.5572 c -0.5461,0 -0.6199,-0.31 -0.6199,-1.3285 z m 8.2214,4.1624 h 2.7896 v -4.0886 c 0,-0.3247 -0.015,-0.8856 -0.074,-1.3136 l 0.1181,-0.029 c 0.029,0.1771 0.1771,0.4723 0.2952,0.738 l 2.096,3.6162 h 2.0221 l 2.1402,-3.5277 c 0.1033,-0.2656 0.2214,-0.5904 0.2657,-0.797 l 0.1181,0.03 c -0.044,0.3985 -0.089,0.8413 -0.089,1.2251 v 4.1476 h 2.8044 v -10.3321 h -3.321 l -2.6273,4.3247 c -0.1033,0.31 -0.2657,0.8709 -0.2657,1.0923 h -0.1033 c 0,-0.2214 -0.1034,-0.7823 -0.2214,-1.0923 l -2.6273,-4.3247 h -3.3211 z m 13.2251,0 h 9.0922 v -3.0111 h -6.2583 v -0.797 h 6.2583 v -2.7306 h -6.2583 v -0.7823 h 6.2583 v -3.0111 h -9.0922 z m 13.2989,0 h 2.9225 v -7.3506 h 3.6162 v -2.9815 h -10.155 v 2.9815 h 3.6163 z m 10.1697,0.1771 h 3.7343 c 2.1698,0 3.4391,-1.0922 3.4391,-3.1586 v -0.044 c -0.015,-2.2288 -1.4022,-2.8045 -3.1586,-3.1882 -2.9964,-0.4281 -4.3543,-0.5461 -4.3543,-0.9004 v -0.044 c 0,-0.2361 0.1771,-0.3837 0.4133,-0.3837 h 3.7048 c 0.3985,0 0.5166,0.3395 0.5166,0.7232 v 0.1771 h 2.8487 v -0.4428 c 0,-2.8487 -1.8598,-3.4538 -3.4391,-3.4538 h -3.7343 c -2.0812,0 -3.3358,0.9151 -3.3358,3.0553 v 0.044 c 0.015,2.0369 1.2398,2.8487 2.8487,3.1882 4.1623,0.5166 4.6642,0.6642 4.6642,0.9889 v 0.1181 c 0,0.1919 -0.1771,0.3247 -0.4576,0.3395 l -3.7048,-0.015 c -0.2066,0 -0.5313,-0.2509 -0.5313,-0.738 v -0.2362 h -2.8635 v 0.1919 c 0,2.4945 1.1513,3.7786 3.4096,3.7786 z"
       id="path2659"
       style="font-size:28.0443px;line-height:1.25;font-family:'FONTSPRING DEMO - Flexible H200 W400';-inkscape-font-specification:'FONTSPRING DEMO - Flexible H200 W400, Normal';fill:#d40000;stroke-width:0;stroke-dasharray:none"
       aria-label="COMETS" /></g></svg>
