<?xml version="1.0" encoding="UTF-8" standalone="no"?>
<svg
   width="370.64746"
   height="222.06641"
   viewBox="0 0 98.067138 58.755072"
   version="1.1"
   id="svg16"
   xml:space="preserve"
   xmlns="http://www.w3.org/2000/svg"
   xmlns:svg="http://www.w3.org/2000/svg"
   xmlns:rdf="http://www.w3.org/1999/02/22-rdf-syntax-ns#"
   xmlns:cc="http://creativecommons.org/ns#"
   xmlns:dc="http://purl.org/dc/elements/1.1/"><defs
     id="defs10" /><metadata
     id="metadata13"><rdf:RDF><cc:Work
         rdf:about=""><dc:format>image/svg+xml</dc:format><dc:type
           rdf:resource="http://purl.org/dc/dcmitype/StillImage" /></cc:Work></rdf:RDF></metadata><g
     id="layer1"
     transform="translate(2002.6884,-7349.0608)"><path
       id="path2903"
       style="fill:#d40000;fill-opacity:1;stroke-width:0.77633;stroke-linecap:round;stroke-linejoin:round"
       d="m -1940.4864,7349.0621 c -3.3909,-0.01 -6.6655,1.1555 -9.5377,3.7706 -2.0477,1.8645 -2.8877,4.574 -2.872,7.3951 0.016,2.0815 0.5456,4.0455 1.6741,5.7327 0.4019,0.601 0.922,1.0428 1.4237,1.5089 -0.1398,0.077 -0.2629,0.1675 -0.3959,0.2516 -0.4473,-0.3952 -0.9723,-0.8111 -1.7118,-1.0568 -0.7799,-0.2592 -1.5392,-0.3074 -2.2045,-0.2671 v 0 c -0.671,0.04 -1.4161,0.1824 -2.1532,0.5279 -0.3128,0.1465 -0.4295,0.3122 -0.6611,0.4822 -0.3157,-0.1413 -0.6418,-0.2585 -1.0126,-0.2944 v 0 c -0.5973,-0.058 -1.0984,0 -1.474,0.048 h 0.014 c -0.2295,0.026 -0.8091,0.047 -1.3054,0.046 -0.4141,0 -0.9322,-0.039 -0.9596,-0.032 h -3e-4 v 5e-4 h -4e-4 v 3e-4 h 4e-4 l 3e-4,4e-4 c 0,0 0.017,0.01 0.044,0.01 -0.576,-0.09 -1.0578,-0.1769 -1.6589,-0.1681 -0.021,3e-4 -0.034,0 -0.049,0 -1.0241,0.032 -1.8633,0.4167 -2.5475,1.0692 -0.046,-0.031 -0.076,-0.089 -0.1215,-0.1183 0.8507,-1.1533 1.3434,-3.1287 0.3434,-6.3122 -0.6491,-2.0662 -2.716,-3.2756 -4.7279,-3.7968 -1.942,-0.5031 -4.0296,-0.3551 -6.1923,0.1893 -1.6187,0.4074 -3.2723,1.1162 -4.7519,1.9241 -1.5576,-0.6978 -2.9755,-1.3253 -3.8682,-1.6617 v 0 c -2.3941,-0.9013 -4.6229,-1.4059 -6.7775,-1.3997 -2.3917,0 -5.2312,0.6859 -7.6983,3.1565 -1.8658,1.8683 -3.0334,4.303 -3.0204,6.9232 0.019,4.3663 3.5738,7.7845 7.9481,8.0091 v 0 c 0.3533,0.018 1.0358,-0.09 1.0358,-0.09 l -0.01,0.012 c 0,0 -1.5777,4.1974 -1.717,6.9131 -0.1558,3.0361 0.5203,6.06 2.4862,8.4589 2.5066,2.9657 6.3646,4.1103 7.4658,4.3869 0.4249,0.1067 0.8516,0.1758 1.2794,0.2263 h 4e-4 4e-4 4e-4 4e-4 c 0.402,0.064 0.8036,0.1035 1.2032,0.1079 0.027,0 0.054,0.01 0.081,0.01 l -0.016,-0.01 c 0.2152,5e-4 0.4301,0 0.6431,-0.019 1.8884,-0.1722 3.1667,-1.1548 3.6724,-1.3756 0.8081,-0.3531 2.5969,-1.2295 6.0907,0.7365 -0.2071,0.7484 -0.4016,1.4989 -0.4807,2.2735 -0.066,0.7652 0.03,1.4886 0.2231,2.1327 0.6462,2.1552 2.487,3.4254 4.285,4.0197 1.8083,0.5982 3.7594,0.5482 5.5844,0.041 v 0 c 0.9097,-0.2541 1.7224,-0.6465 2.5187,-1.1887 1.7684,-1.2041 2.9555,-3.0289 3.3478,-5.1324 0.4313,-2.3145 -0.1304,-4.6557 -1.3873,-6.6398 -0.3805,-0.5644 -0.7806,-1.1746 -1.2661,-1.6465 0.5302,-0.1733 1.0725,-0.6019 1.3115,-0.8056 0.723,0.2383 1.4616,0.3613 2.1655,0.3109 1.1076,-0.079 2.084,-0.5511 2.9655,-1.1658 0.5765,0.6305 1.2634,1.1698 2.1078,1.5085 v 0 c 0.3949,0.158 0.8939,0.141 1.3328,0.2029 -0.8947,1.005 -1.6778,2.1057 -2.1685,3.3287 -1.8114,4.5155 -0.8067,9.5982 2.678,12.9275 1.7809,1.7013 4.05,2.7946 6.4986,3.1706 1.4659,0.2252 3.1172,0.1246 4.5229,-0.2002 v 0 c 1.0759,-0.2495 2.139,-0.5984 3.104,-1.281 1.0363,-0.7331 1.765,-1.7753 2.1275,-2.9238 0.1315,-0.418 0.2749,-0.9995 0.2787,-1.6949 0,0 0,-0.01 0,-0.01 v -0.016 c 0,-0.5442 -0.052,-1.0602 -0.1347,-1.8788 -0.094,-0.9512 -0.066,-1.5912 -0.08,-1.6208 v -3e-4 h -3e-4 v -4e-4 h -5e-4 -4e-4 l -3e-4,4e-4 c -5e-4,5e-4 -8e-4,0 0,0 0.1334,-0.5835 0.8647,-1.5215 2.456,-1.8895 0.2213,-0.051 1.2279,-0.1513 2.4304,-0.1456 1.2024,0.01 2.6754,0.087 4.1666,0.2672 4.3485,0.527 7.2204,0.575 9.8257,-0.1457 2.9118,-0.8061 5.3054,-2.8582 7.2493,-6.2802 0.5772,-1.0159 0.9929,-3.8613 0.9929,-5.6541 0.1223,-2.8182 -0.6967,-5.4848 -2.0986,-7.9109 0,0 -0.7594,-1.1763 -1.2705,-1.7013 -0.3966,-0.4074 -1.3022,-1.095 -2.558,-1.2674 0.2926,-0.5432 0.5347,-1.1179 0.6765,-1.7455 0.1652,-0.7316 0.1167,-1.5605 -0.1079,-2.379 2.5104,-0.8132 4.638,-2.3242 5.7556,-4.6425 0.8495,-1.7622 1.0885,-3.7316 0.6038,-5.6269 -0.3741,-1.4626 -1.1473,-2.7475 -2.2202,-3.8229 -1.7642,-1.7685 -4.147,-2.6632 -6.7245,-2.7929 -3.9203,-0.1978 -7.6692,1.1068 -10.638,3.5588 -0.7058,-0.4346 -1.4779,-0.9143 -2.4215,-1.5205 -2.7471,-1.7649 -4.204,-2.635 -5.6282,-3.3222 -2.6436,-1.2756 -5.3513,-1.9836 -7.9887,-1.987 z m -0.5678,0.8368 c 0.8603,-0.01 2.564,0.075 4.2803,0.4678 1.2979,0.2971 2.5975,0.822 3.5752,1.3432 1.2834,0.6839 2.726,1.4697 5.4573,3.2247 1.1795,0.7577 2.2541,1.4325 3.0413,1.9091 0.1173,0.069 0.2357,0.1387 0.3536,0.2078 1.231,-1.2183 4.8314,-4.1874 10.4486,-3.9046 2.2721,0.1145 4.2186,0.8663 5.6739,2.3248 0.9068,0.909 1.4994,1.905 1.8029,3.0915 0.3916,1.5311 0.2102,3.0767 -0.4942,4.5382 -1.0063,2.0873 -2.9889,3.4418 -5.5544,4.0787 -0.4263,0.1056 -0.9618,0.1172 -1.4631,0.1653 0.1995,0.1289 0.422,0.2087 0.5942,0.3883 0.7406,0.7734 0.8652,1.8469 0.6611,2.7506 -0.1953,0.8654 -0.6455,1.6692 -1.2553,2.4745 v 0 l -0.032,0.041 0.03,0.3322 c 0.029,0.3068 0.1024,0.8022 0.167,1.2556 0.508,-0.3969 1.0709,-0.5264 1.5328,-0.5264 0.679,0 1.6849,0.2874 2.8961,2.314 v 0 c 0.637,1.0656 1.2867,2.3728 1.5722,3.7631 0.3112,1.598 0.341,3.9887 0.2158,5.6177 -0.4753,6.1896 -5.3377,7.8856 -6.8541,8.4389 -0.3627,0.1323 -1.3181,0.749 -9.3399,-0.2235 -3.1179,-0.3775 -6.1,-0.3333 -7.149,-0.09 -2.1441,0.4958 -3.4688,1.8696 -3.6892,3.2608 -0.028,0.1753 -0.036,0.7477 0.085,1.9638 0.08,0.8159 0.1255,1.2808 0.1255,1.7198 0,0 0,0.01 0,0.01 0,0.48 -0.1022,0.8974 -0.2062,1.2267 -0.2609,0.8274 -0.7836,1.5769 -1.5237,2.1002 -0.72,0.5093 -1.5645,0.8028 -2.5426,1.0294 -1.1731,0.2705 -2.7387,0.3579 -3.9212,0.1757 -2.1372,-0.3283 -4.0985,-1.2757 -5.6373,-2.7457 -3.0156,-2.8811 -3.8831,-7.2233 -2.2972,-11.1764 0.6914,-1.7234 2.0696,-3.4143 3.6238,-4.5262 v 0 l 0.5958,-0.4243 c 1.0416,-0.8194 2.0937,-1.1046 2.8019,-1.3648 h 0.01 c 0.2829,-0.1084 0.6125,-0.1488 0.9082,-0.2395 -0.4257,-0.2986 -0.8187,-0.6189 -1.1553,-1.019 -0.3837,0.4247 -0.703,0.9482 -1.1691,1.2601 -1.0533,0.7042 -2.1741,0.9977 -3.5965,0.9977 -0.9444,0 -1.527,-0.075 -2.0669,-0.2913 -1.1221,-0.4499 -1.946,-1.3499 -2.4303,-2.4368 -0.1149,0.1503 -0.201,0.3472 -0.329,0.4855 -0.8037,0.8681 -1.8665,1.4173 -3.025,1.4996 -0.9033,0.064 -1.843,-0.1386 -2.5855,-0.7294 -0.01,-0.01 -0.012,-0.015 -0.02,-0.022 -0.08,0.2061 -0.062,0.4525 -0.2149,0.6398 v 0 c -0.3983,0.4872 -0.9614,0.6833 -1.2465,0.7687 -0.3627,0.1083 -0.7304,0.1676 -1.1009,0.2018 v 0 c -0.7372,0.067 -1.5409,0.056 -2.3228,-0.1714 -1.8382,-0.534 -3.0364,-2.0826 -3.501,-3.9925 -0.4248,0.7181 -0.8422,1.4785 -1.3496,2.0211 -0.3588,0.3836 -0.7813,0.6598 -1.1948,0.9492 0.8166,0.1871 1.7502,0.4326 2.523,0.4822 0.049,0.01 0.099,0.016 0.1472,0.029 v 0 c 1.6064,0.2452 2.9828,0.6843 4.2153,1.3479 0.5794,0.3116 1.2704,0.7071 1.7604,1.2144 0.4131,0.4276 1.1824,1.3283 1.4374,1.7836 1.0856,1.6973 1.5336,3.6281 1.1799,5.5251 -0.3207,1.7202 -1.2346,3.126 -2.6763,4.1077 -0.6913,0.4708 -1.2878,0.7562 -2.0484,0.9688 v 0 c -1.5642,0.4351 -3.2048,0.464 -4.6549,-0.016 -1.4735,-0.4872 -2.8053,-1.4536 -3.2573,-2.9644 v -3e-4 h -3e-4 c -5e-4,0 0,-0.01 0,-0.01 v -3e-4 h -4e-4 v -4e-4 h -4e-4 c -0.1321,-0.452 -0.2069,-0.972 -0.1576,-1.5285 0.047,-0.5304 0.1733,-1.0471 0.3578,-1.7163 0.079,-0.3901 0.2751,-0.7747 0.2362,-1.1778 -0.017,-0.2127 -0.1095,-0.3561 -0.4184,-0.6672 -1.5778,-0.9824 -3.2052,-1.5365 -5.0717,-1.5497 h -0.068 c -0.016,4e-4 -0.032,4e-4 -0.048,0 -1.4972,-0.1172 -2.1447,0.1507 -2.9097,0.5383 -0.733,0.3711 -1.6666,1.0799 -3.0959,1.21 -3.5098,0.3201 -6.6887,-0.8615 -8.761,-3.1677 -1.7268,-1.9126 -2.4029,-4.3834 -2.5358,-6.8874 v 0 c -0.035,-1.0916 8e-4,-2.2349 0.1588,-3.1951 0.3806,-2.3242 1.1308,-4.6207 2.2069,-6.7654 h 5e-4 v -4e-4 c 5e-4,0 0,-0.01 0,-0.01 v -5e-4 h 4e-4 v -4e-4 h 3e-4 c 0.2417,-0.4757 0.3396,-0.6317 0.467,-0.8565 -1.0787,0.6652 -2.378,0.9613 -3.7755,0.8914 v 0 c -3.6244,-0.1863 -6.4148,-2.893 -6.4321,-6.4181 -0.011,-2.1453 0.9373,-4.1698 2.553,-5.7878 2.4523,-2.4555 5.442,-2.716 6.5245,-2.7232 1.9088,-0.012 3.9691,0.4518 6.2596,1.3143 0.9701,0.3653 4.4383,1.8057 4.4383,1.8057 0,0 3.4281,-1.5858 5.1354,-2.0151 1.9903,-0.5011 3.8074,-0.6038 5.4008,-0.191 1.6094,0.417 2.9751,1.4411 3.6848,2.9355 v 0 c 0.7433,1.5666 0.6258,3.3207 -0.1742,4.7082 -0.3446,0.5976 -0.8523,1.087 -1.4056,1.5253 1.2715,0.3092 2.4593,0.9055 3.225,2.0315 0.011,-0.075 0.01,-0.1728 0.022,-0.2515 0.1402,-0.6532 0.4425,-0.9401 0.7186,-1.1798 h 3e-4 l 4e-4,-4e-4 5e-4,-5e-4 3e-4,-3e-4 c 8e-4,0 0,-0.01 0.01,-0.01 v -3e-4 h 3e-4 5e-4 c 0.4135,-0.3537 0.8365,-0.5118 1.4053,-0.5412 0.014,-2e-4 0.027,-2e-4 0.041,0 0.43,-0.01 0.8099,0.06 1.3981,0.1516 0.2915,0.043 1.8901,0.066 2.643,-0.02 v 0 c 0.3639,-0.04 0.7136,-0.08 1.1233,-0.041 0.3662,0.034 0.827,0.2517 1.2207,0.629 0.4075,-0.3632 0.8068,-0.7397 1.2843,-0.9629 0.5135,-0.2402 1.0494,-0.3472 1.5722,-0.3775 v 0 c 0.5164,-0.031 1.0604,0.01 1.6026,0.1881 v 0 c 0.5572,0.1852 0.9962,0.504 1.3481,0.8401 0.1908,0.1825 0.3334,0.5204 0.5078,0.7944 0.6488,-0.6113 1.3389,-1.0944 2.1243,-1.3704 0.7792,-0.2741 1.6183,-0.3532 2.4231,-0.2564 -1.5492,-0.7374 -2.9396,-1.6999 -3.8895,-3.1204 -0.9461,-1.4144 -1.3866,-3.0267 -1.4024,-4.8522 -0.014,-2.4744 0.7796,-4.5656 2.4263,-6.2806 1.9733,-2.0556 4.6902,-3.1484 7.8178,-3.2676 z m 0.983,0.7803 c -0.3181,-0.016 -0.6254,5e-4 -0.9236,0.016 -2.9,0.1084 -5.29,1.0849 -7.049,2.9174 -1.471,1.5317 -2.12,3.2311 -2.1075,5.4829 3e-4,0.034 0.01,0.065 0.01,0.1 0,0.1177 -0.012,0.2308 -0.011,0.3515 0.015,1.6575 0.3877,2.9977 1.2099,4.2272 1.2916,1.931 3.2859,3.1755 5.797,3.646 0.97,0.1815 2.3618,0.2136 3.1818,0.039 0.9128,-0.1922 1.8443,-0.6797 2.4596,-1.3078 0.5935,-0.606 0.8967,-1.2639 1.2757,-2.6819 0.2351,-0.8789 0.427,-1.4398 0.6272,-1.8105 0.1999,-0.3708 0.3941,-0.5653 0.7332,-0.7935 0.4885,-0.3287 0.6496,-0.3709 1.6048,-0.4249 1.4141,-0.08 2.5933,0.2638 5.5635,1.6806 l 0.6712,0.3193 c -0.133,0.2917 -0.2909,0.6377 -0.404,0.8838 -0.3078,0.6702 -1.5424,3.769 -1.8197,4.5622 l -0.049,0.138 -0.5898,0.018 c -0.3975,0.011 -0.6368,0.021 -0.8489,0.061 -0.2124,0.04 -0.4255,0.1623 -0.5416,0.2784 -0.1379,0.1381 -0.1907,0.2629 -0.2515,0.4048 -0.061,0.1418 -0.1111,0.2954 -0.1516,0.449 -0.1038,0.4622 -0.1024,0.6743 -0.095,1.1281 0.015,0.083 0.015,0.1876 0.1271,0.3266 0.3229,0.3144 0.8798,0.2479 1.3047,0.2447 h 0.062 c -0.2099,0.7215 -0.3688,1.3388 -0.5303,1.9124 -0.3364,1.1938 -0.6838,2.1978 -1.5229,3.5544 -0.4082,0.6598 -1.3908,1.5277 -1.8419,1.8017 -0.4775,0.2902 -1.0093,0.4325 -1.6801,0.4325 -0.5919,0 -1.0547,-0.1367 -1.3632,-0.343 -0.012,-0.01 -0.016,-0.022 -0.026,-0.032 0.045,0 0.078,0.01 0.1295,0.01 1.4606,-0.016 2.8193,-0.5989 3.6408,-1.6368 0.7956,-1.0057 1.2721,-2.2512 1.4146,-3.4702 0.04,-0.3438 0.047,-0.6842 0.032,-1.0194 0.031,-1.0159 -0.1692,-1.9914 -0.6929,-2.7524 -0.7427,-1.0795 -2.0448,-1.4875 -3.7527,-1.301 -1.0669,0.1164 -2.1119,0.458 -3.0172,0.9901 -0.9543,0.561 -2.2762,1.8374 -2.9009,2.7913 -0.8164,1.2472 -1.4401,2.7711 -1.7468,4.2594 -0.1354,0.6573 -0.5429,1.3606 -1.2644,2.0893 -0.2596,0.2622 -0.4004,0.3857 -0.4365,0.408 -0.034,0.021 0,0.012 -0.1317,0.012 0.023,-0.1775 0.062,-0.3904 0.1485,-0.7076 0.2008,-0.7302 0.5825,-1.8387 1.2072,-3.5368 0.1938,-0.5268 0.3841,-1.0629 0.534,-1.5041 0.1499,-0.441 0.2566,-0.7634 0.3028,-0.9607 0.076,-0.3248 0.087,-0.6416 0.067,-0.9493 0.065,-0.7883 -0.1438,-1.5256 -0.6787,-2.0223 -0.8889,-0.8258 -2.3784,-1.0043 -3.656,-0.5553 -1.0336,0.3634 -2.1075,1.4345 -3.1962,2.8127 0.059,-0.2652 0.066,-0.5096 0.042,-0.7433 0.03,-0.3036 0.019,-0.5922 -0.056,-0.8605 -0.097,-0.351 -0.3193,-0.63 -0.5838,-0.8826 -0.2642,-0.2524 -0.5729,-0.4688 -0.9186,-0.5839 v 0 c -0.3658,-0.1215 -0.7729,-0.1554 -1.1767,-0.1319 v 0 c -0.4065,0.025 -0.8082,0.1106 -1.157,0.2728 -0.7991,0.3738 -1.6371,1.2615 -2.4922,2.373 0.026,-0.07 0.076,-0.1664 0.097,-0.2315 0.1264,-0.4028 0.1164,-1.063 0.016,-1.2709 -0.142,-0.2946 -0.4655,-0.4106 -0.7234,-0.4353 -0.2577,-0.025 -0.5352,-4e-4 -0.8869,0.039 -0.897,0.102 -2.3734,0.099 -2.9447,0.016 -0.5889,-0.092 -0.9252,-0.1437 -1.21,-0.1393 -0.2862,0.01 -0.5657,0.1347 -0.7201,0.2665 v 0 c -0.1125,0.097 -0.2985,0.3166 -0.3502,0.5583 -0.052,0.2418 -0.058,0.5102 -0.083,1.0563 -0.062,1.271 -0.2167,2.0826 -0.7431,3.8225 -0.2158,0.7134 -0.4237,1.404 -0.4714,1.5706 v -3e-4 -5e-4 -4e-4 h -4e-4 -4e-4 l -3e-4,4e-4 c -0.017,0.014 -0.1746,0.2774 -0.3523,0.4609 -0.03,0.031 -0.058,0.052 -0.086,0.077 0.01,-0.031 0.012,-0.053 0.021,-0.084 0.2513,-1.0001 0.3815,-1.9535 0.3912,-2.8239 0,-0.045 7e-4,-0.086 0,-0.1292 -3e-4,-0.05 0,-0.1041 0,-0.154 0.033,-1.1251 -0.1351,-2.1172 -0.5461,-2.8724 -0.6952,-1.2773 -2.0866,-1.9751 -3.5769,-2.1019 -1.4903,-0.1268 -3.1148,0.3046 -4.3745,1.3516 -1.8138,1.5077 -3.3989,4.4996 -4.0178,7.4311 -0.1386,0.6568 -0.2115,1.5164 -0.2226,2.332 -0.034,0.7756 -0.013,1.5461 0.083,2.0969 0.2615,1.4948 1.088,2.6351 2.3938,3.2821 0.067,0.034 0.1358,0.051 0.203,0.081 -1.7214,-0.2313 -2.3782,-0.3556 -3.7386,-0.8265 -2.6438,-0.9153 -3.9981,-2.6406 -4.2377,-5.4777 -0.1245,-3.238 1.3301,-7.6797 3.796,-11.2627 0.2461,-0.3576 0.5292,-0.7499 0.6094,-0.8517 l 1.3026,0.4914 c 2.2326,0.8379 3.3486,1.118 4.7283,1.1783 0.8351,0.036 1.2662,0.014 1.776,-0.098 1.4464,-0.3216 2.5796,-1.1491 3.2014,-2.2277 0.3915,-0.679 0.5743,-1.4602 0.5104,-2.2538 0.02,-0.6059 -0.1009,-1.2286 -0.3856,-1.8283 -0.5595,-1.1778 -1.603,-1.9728 -2.9414,-2.3196 -1.3385,-0.3468 -2.9736,-0.2754 -4.8371,0.1937 -1.6518,0.4156 -3.6369,1.2549 -5.0067,2.1212 l -0.2941,0.1865 -0.3093,-0.1392 c -2.114,-0.96 -3.6724,-1.632 -4.6445,-1.9982 -2.2406,-0.8438 -4.1952,-1.2661 -5.933,-1.2405 l -4e-4,0.01 c -0.011,0.01 -0.021,0.01 -0.032,0.015 -2.2184,0.041 -4.0827,0.8373 -5.6117,2.3685 -1.4422,1.4441 -2.2273,3.1653 -2.2181,4.9763 3e-4,0.06 0.016,0.1143 0.017,0.1737 -0.01,0.092 -0.014,0.1832 -0.014,0.2756 0.017,2.9597 2.2189,5.1225 5.3465,5.2832 1.2854,0.066 2.4149,-0.2003 3.2773,-0.7824 0.8623,-0.5821 1.44,-1.4867 1.6191,-2.5844 0.1924,-1.1791 0.2261,-1.3259 0.4477,-1.77 0.4986,-0.9972 1.5415,-1.5184 3.3779,-1.5184 0.3302,0 0.7374,0.022 1.1125,0.054 -1.182,1.2632 -1.8422,2.0473 -2.785,3.313 -0.5754,0.7722 -1.4152,1.9443 -1.8694,2.7897 -0.372,0.6922 -0.4461,0.7551 -0.9115,1.6709 -1.0249,2.0428 -1.7401,4.2321 -2.1014,6.4382 -0.1372,0.8368 -0.1778,1.9401 -0.1441,2.9767 0,0.038 0.01,0.068 0.01,0.1051 0,0.1144 -0.01,0.2281 0,0.3414 0.031,0.9763 0.1298,1.8247 0.3144,2.4308 l 0.04,-0.043 c -0.01,0.023 -0.012,0.048 -0.015,0.073 l -0.026,-0.026 c 0,0.021 6e-4,0.067 0.015,0.09 -2e-4,0.01 -2e-4,0.013 0,0.02 0,0.015 0.015,0.021 0.015,0.034 0.069,0.2616 0.1566,0.5008 0.2307,0.7189 1.33,3.9071 4.988,6.0684 9.4759,5.659 1.0879,-0.099 1.8248,-0.682 2.6851,-1.0919 2.4353,-1.1607 6.2503,-0.8251 9.3507,1.1292 1.1403,0.8776 0.8245,1.5496 0.5351,2.605 -0.179,0.6493 -0.2847,1.106 -0.3201,1.5116 -0.019,0.2101 -0.013,0.4057 0.01,0.5949 -0.012,0.3428 0.025,0.6563 0.1136,0.9616 0.3022,1.0101 1.2928,1.8027 2.5206,2.2085 1.1826,0.3912 2.6194,0.3807 3.9897,-0.015 0.6834,-0.1909 1.0778,-0.3801 1.7151,-0.814 1.2403,-0.8444 1.9204,-1.8887 2.1968,-3.3723 0.087,-0.4667 0.1115,-0.9339 0.089,-1.3993 0.031,-1.2903 -0.3506,-2.5721 -1.1257,-3.7735 -0.5661,-1.1192 -2.1784,-2.2724 -2.7581,-2.5776 -2.9036,-1.4563 -6.3037,-1.599 -9.4739,-2.3 1.2634,-0.1588 2.4877,-0.7779 3.483,-1.8418 0.5979,-0.6393 1.3245,-1.7377 1.7379,-2.6044 0.211,0.04 0.423,0.078 0.6551,0.081 0.2451,0 0.4669,-0.033 0.6849,-0.075 l 0.015,0.1392 c 0.1588,2.104 1.1916,3.6132 2.9133,4.1132 0.5688,0.1655 1.2647,0.1892 1.8997,0.1301 0.3175,-0.03 0.6159,-0.081 0.8777,-0.1589 0.262,-0.078 0.4961,-0.1543 0.6929,-0.3956 0.2478,-0.3033 0.2462,-0.6959 0.2326,-1.1313 -0.01,-0.2503 -0.069,-0.5021 -0.1712,-0.8645 -0.07,-0.2476 -0.1,-0.5387 -0.1075,-0.8514 0.072,-1.1708 0.5174,-2.6883 1.3644,-4.4221 -0.1739,0.5181 -0.3215,1.0172 -0.4152,1.4755 -0.1053,0.5143 -0.1545,1.1507 -0.1473,1.7447 -0.022,0.5851 0,1.1648 0.1075,1.581 0.1767,0.7172 0.4876,1.2978 0.9676,1.6798 0.4807,0.3825 1.1053,0.5341 1.793,0.4851 0.8845,-0.063 1.6166,-0.4392 2.2662,-1.1407 0.6779,-0.7324 1.1204,-1.6367 1.7463,-3.4754 0.044,-0.127 0.091,-0.2194 0.1388,-0.3132 -0.057,0.5233 -0.077,1.0516 -0.058,1.5553 -0.014,0.661 0.033,1.2869 0.1738,1.7432 0.3176,1.0101 1.0226,1.7579 2.0236,2.1595 0.4181,0.1673 0.7376,0.211 1.646,0.211 1.3074,0 2.0513,-0.1987 2.9595,-0.806 0.7452,-0.4983 1.3557,-1.1764 1.9308,-2.0986 0.4982,0.9981 1.317,1.8606 2.2583,2.3092 0.6773,0.3228 1.1814,0.473 1.8683,0.5408 -1.3091,0.1469 -2.5357,0.4123 -3.6202,0.8293 -0.7728,0.2839 -1.6413,0.5236 -2.4897,1.1916 l 0.017,-0.014 -0.6552,0.4682 c -1.3478,0.964 -2.6467,2.5754 -3.2279,4.0241 -0.55,1.3708 -0.7675,2.7751 -0.6824,4.1318 0.033,2.3292 0.9508,4.5445 2.7144,6.2295 1.3667,1.3057 3.1051,2.1489 5.0211,2.4432 0.9203,0.1419 2.5335,0.062 3.4932,-0.1588 0.9026,-0.2092 1.6004,-0.4701 2.1398,-0.8517 0.5397,-0.3818 0.9007,-0.8983 1.0937,-1.5105 0.09,-0.2853 0.1512,-0.5399 0.1537,-0.8891 0,-0.059 -0.018,-0.206 -0.021,-0.2719 0.01,-0.056 0.015,-0.1022 0.016,-0.1629 0,-0.3493 -0.04,-0.7951 -0.12,-1.6087 -0.053,-0.5343 -0.076,-0.9085 -0.092,-1.2441 0,-0.2159 8e-4,-0.4372 0.022,-0.5752 0.3088,-1.95 2.0586,-3.6196 4.5585,-4.1976 1.3959,-0.3227 4.3446,-0.3166 7.5443,0.072 4.2208,0.5117 6.6943,0.5073 8.7658,-0.066 2.2225,-0.6154 4.0877,-1.9716 5.1093,-4.0824 0.7335,-1.5152 1.2197,-3.2573 1.2597,-5.1944 0.023,-1.1361 -0.1488,-2.4952 -0.4016,-3.4995 -0.3327,-1.2579 -0.8729,-2.5092 -1.4478,-3.4706 -0.2874,-0.4808 -0.5812,-0.8883 -0.881,-1.1964 -0.2997,-0.308 -0.6,-0.5616 -1.0342,-0.5616 -0.3007,0 -0.6435,0.079 -0.8962,0.3054 -0.2528,0.2259 -0.423,0.5203 -0.67,0.9728 -0.196,0.359 -0.5055,0.8493 -0.7871,1.283 -7e-4,-0.017 -8e-4,-0.027 0,-0.044 -0.027,-0.7272 -0.1257,-1.751 -0.2274,-2.3501 -0.091,-0.5416 -0.2083,-1.429 -0.2548,-1.9316 l -0.034,-0.3703 0.2692,-0.3579 c 0.5476,-0.7235 0.9075,-1.4031 1.0511,-2.0384 0.061,-0.2683 0.067,-0.5339 0.035,-0.7879 0.043,-0.5138 -0.076,-1.005 -0.4164,-1.3612 -0.4367,-0.4558 -1.07,-0.669 -1.7635,-0.6884 -0.6943,-0.021 -1.4656,0.1474 -2.2623,0.4849 -0.7783,0.3293 -1.5168,1.1194 -1.9077,1.8046 -0.1485,0.2605 -0.2771,0.5358 -0.3698,0.9263 -0.051,0.2203 -0.076,0.4828 -0.095,0.7659 l -0.038,0.5805 -0.5127,0.3337 c -1.5778,1.0237 -3.2282,2.9474 -3.8863,4.5671 -0.1199,0.2957 -0.1535,0.6071 -0.2804,0.8959 -0.2001,0.4554 -0.4552,0.7215 -0.5736,0.1925 0.011,-0.2761 0.039,-0.6009 0.1131,-1.0223 0.215,-1.2163 0.7102,-3.0099 1.4896,-5.401 l 0.225,-0.6961 h 0.6495 c 0.4566,0 0.7092,-3e-4 0.9355,-0.034 0.2264,-0.036 0.4472,-0.1697 0.5633,-0.2772 0.2493,-0.2362 0.3762,-0.5122 0.4963,-0.8261 0.064,-0.1713 0.1197,-0.3088 0.1447,-0.4902 0.011,-0.088 0,-0.2072 -0.042,-0.323 0.01,-0.04 0.03,-0.076 0.035,-0.1203 0.024,-0.1815 -0.056,-0.4966 -0.2547,-0.6399 -0.199,-0.1432 -0.3725,-0.1526 -0.5673,-0.1684 -0.1948,-0.016 -0.423,-0.018 -0.7186,-0.018 -0.067,0 -0.1019,-2e-4 -0.1479,-0.01 0.1549,-0.3782 0.3311,-0.8026 0.5259,-1.2557 0.2297,-0.5348 0.4655,-1.0672 0.6499,-1.4728 0.074,-0.1639 0.1347,-0.2857 0.1874,-0.3979 0.1374,0.044 0.2973,0.1007 0.4826,0.1757 1.0776,0.4393 2.7323,0.9604 3.721,1.1694 1.2382,0.2616 3.448,0.2415 4.6315,-0.052 2.3476,-0.583 3.9542,-1.718 4.7978,-3.4674 0.4697,-0.9748 0.6527,-1.9076 0.5648,-2.8745 0,-0.4342 -0.04,-0.8716 -0.1549,-1.3227 -0.2602,-1.0174 -0.6976,-1.7607 -1.504,-2.5687 -1.2451,-1.2482 -2.8559,-1.8865 -4.9232,-1.9907 -3.6138,-0.182 -7.0202,1.0795 -9.5557,3.5464 -0.2318,0.2254 -0.4507,0.431 -0.6122,0.5761 -0.026,0.022 -0.037,0.032 -0.059,0.051 -0.048,-0.025 -0.081,-0.041 -0.1425,-0.076 -0.2335,-0.1306 -0.564,-0.3249 -0.9644,-0.5672 -0.8008,-0.4847 -1.883,-1.1621 -3.069,-1.9241 -2.7202,-1.7477 -4.0914,-2.562 -5.3326,-3.1585 -2.3521,-1.1299 -4.2357,-1.6482 -6.288,-1.7131 -0.03,-0.011 -0.06,-0.018 -0.091,-0.022 z m -0.024,0.4569 -3e-4,0.01 c 2.0248,0.048 3.8476,0.5511 6.205,1.6837 1.2132,0.583 2.5683,1.386 5.284,3.1308 2.3774,1.5276 4.3396,2.7152 4.486,2.7152 0.038,0 0.4548,-0.3749 0.9258,-0.8329 2.4451,-2.3789 5.7211,-3.5939 9.2151,-3.418 1.9886,0.1003 3.46,0.691 4.6236,1.8574 0.7701,0.7718 1.14,1.4023 1.3849,2.3594 0.3087,1.2069 0.192,2.2508 -0.3848,3.4473 -0.7803,1.6187 -2.2348,2.6606 -4.4988,3.2227 -1.0391,0.2573 -3.3209,0.2829 -4.4286,0.048 -0.9363,-0.1981 -2.6017,-0.7224 -3.6435,-1.147 -0.4585,-0.1873 -0.8621,-0.311 -0.8979,-0.2761 -0.1438,0.1442 -1.9171,4.2716 -1.9171,4.462 0,0.056 0.3375,0.088 0.9539,0.088 1.1735,0 1.2207,0.034 0.9673,0.6965 -0.098,0.2565 -0.2708,0.5523 -0.3831,0.6587 -0.1891,0.1757 -0.2778,0.1901 -1.1859,0.1901 h -0.9814 l -0.3293,1.0102 c -1.5654,4.8019 -1.9934,7.2219 -1.3516,7.6425 0.121,0.089 0.2762,0.1081 0.4092,0.074 0.184,-0.047 0.6254,-0.2051 0.7615,-0.6659 0.1271,-0.4307 0.1715,-0.6427 0.3,-0.9596 0.6012,-1.4795 2.2384,-3.4008 3.7114,-4.3564 l 0.7056,-0.459 0.052,-0.8096 c 0.02,-0.2739 0.046,-0.5296 0.084,-0.6932 0.083,-0.351 0.1831,-0.5616 0.3221,-0.8052 0.3277,-0.5743 1.0954,-1.3599 1.689,-1.6111 0.7481,-0.3169 1.462,-0.4664 2.0714,-0.4486 0.609,0.017 1.1141,0.2004 1.4466,0.5473 0.5919,0.6179 0.3299,1.7773 -0.7129,3.1552 l -0.4044,0.5356 0.088,0.9504 c 0.048,0.523 0.165,1.4086 0.2596,1.9673 0.095,0.559 0.194,1.5912 0.2207,2.2929 0.026,0.7018 0.065,1.2921 0.086,1.3122 0.062,0.062 1.0806,-1.4713 1.5601,-2.3497 0.4826,-0.884 0.6582,-1.0414 1.165,-1.0414 0.8077,0 2.2818,2.4655 2.9226,4.8879 0.2159,0.823 0.3297,2.1213 0.205,3.9577 -0.108,1.589 -0.6566,3.2252 -1.0274,3.9617 -1.0046,1.9955 -2.7207,3.2766 -4.8322,3.8612 -1.9818,0.5491 -4.3902,0.564 -8.5892,0.055 -3.2306,-0.392 -6.1752,-0.4163 -7.7011,-0.063 -2.643,0.6112 -4.5622,2.3994 -4.9061,4.5702 -0.076,0.4659 -0.055,1.1159 0.071,2.3719 0.16,1.6243 0.1591,1.7659 -0.015,2.3156 -0.336,1.066 -1.1603,1.6495 -2.9021,2.0532 -0.8598,0.1982 -2.5237,0.2766 -3.3206,0.154 -1.8279,-0.2807 -3.4765,-1.0825 -4.7748,-2.3227 -2.5585,-2.4446 -3.2855,-6.0186 -1.9185,-9.4261 0.5344,-1.3321 1.8102,-2.9204 3.0702,-3.8217 l 0.6553,-0.4686 c 0.7724,-0.6082 1.5744,-0.8314 2.3713,-1.1245 1.6189,-0.6226 3.571,-0.9347 5.7024,-0.9347 1.2787,0 2.6221,0.1171 3.9973,0.3494 0.7575,0.1278 2.5809,0.5353 4.0515,0.9062 l 2.6735,0.6741 0.5356,0.1287 1.4972,0.3077 c 3.692,0.7606 6.964,0.7035 8.6181,-0.152 v -4e-4 c 0.4191,-0.2524 0.7695,-0.4456 1.2774,-0.8811 1.0848,-0.9304 1.4947,-2.3562 1.4947,-3.9948 0,-0.8796 -0.1765,-2.0303 -0.3125,-2.0156 -0.034,0 -0.2057,0.2515 -0.3823,0.5568 -0.545,0.943 -1.6077,1.9204 -2.6297,2.4191 -2.088,1.0182 -4.7524,1.008 -6.3869,-0.024 -0.6859,-0.4333 -1.2224,-1.0284 -1.6002,-1.7191 -0.9338,1.2249 -1.9622,1.9084 -3.1276,2.0965 -0.6102,0.099 -0.7903,0.099 -1.3616,0 -1.4393,-0.2422 -2.4222,-1.0273 -2.9258,-2.3367 -0.084,-0.2161 -0.1293,-0.4637 -0.1637,-0.7784 -0.19,-0.1239 -0.229,0.011 -0.4007,0.3117 -0.6027,1.0545 -1.852,1.9936 -2.9436,2.4496 -0.9765,0.4078 -1.704,0.537 -3.0389,0.5369 -1.3827,-2e-4 -1.8269,-0.088 -2.7926,-0.5477 -0.8393,-0.4 -1.6242,-1.2061 -2.074,-2.1282 l -0.3379,-0.6905 -0.4116,0.6639 c -0.5556,0.8962 -1.1229,1.5141 -1.8141,1.9763 -0.8613,0.576 -1.4365,0.7293 -2.7071,0.7293 -0.9002,0 -1.0892,-0.024 -1.4748,-0.1785 -0.8971,-0.3599 -1.4749,-0.9752 -1.7568,-1.8719 -0.236,-0.7791 -0.2332,-2.5678 0.015,-3.686 0.4151,-1.8759 1.2019,-3.9596 2.1261,-5.6305 0.6627,-1.1982 0.188,-0.9776 -0.5917,0.2747 -0.8405,1.3502 -1.8371,3.6091 -2.6661,6.0442 -0.6199,1.8203 -1.0292,2.6441 -1.6485,3.3129 -0.596,0.6439 -1.1764,0.9363 -1.9646,0.993 -1.2128,0.087 -1.9646,-0.5118 -2.2863,-1.8198 -0.142,-0.5727 -0.1219,-1.8884 0.04,-2.6779 0.357,-1.7438 1.2917,-4.0004 2.6518,-6.4027 0.1435,-0.2544 0.1609,-0.342 0.087,-0.4157 -0.257,-0.257 -1.8588,2.0112 -3.0052,4.2562 -1.3674,2.6755 -1.8784,4.9139 -1.462,6.3927 0.1986,0.7029 0.2045,0.9233 0.03,1.1373 -0.3211,0.3933 -2.0389,0.5518 -2.9905,0.2752 -1.5436,-0.4484 -2.434,-1.7266 -2.5835,-3.7097 l -0.052,-0.6699 -0.3526,0.1106 c -0.3414,0.1065 -1.1341,0.097 -1.5045,-0.016 -0.1255,-0.039 -0.1819,0.01 -0.2928,0.2434 -0.3826,0.81 -1.1306,1.9314 -1.6774,2.5159 -1.6467,1.7601 -3.8645,2.2394 -5.8384,1.2613 -1.1899,-0.5898 -1.9047,-1.5727 -2.1463,-2.9531 -0.1582,-0.9064 -0.097,-2.7451 0.1284,-3.81 0.5984,-2.8347 2.1832,-5.7781 3.8629,-7.1743 2.3149,-1.924 6.0484,-1.6064 7.2591,0.6178 0.6125,1.1259 0.6554,3.0573 0.1155,5.2057 -0.1222,0.4839 -0.221,0.952 -0.2211,1.0423 0,0.2346 0.1871,0.3622 0.4369,0.2992 0.2925,-0.073 0.9829,-0.7874 1.0759,-1.1125 0.042,-0.1471 0.2539,-0.8515 0.4698,-1.5653 0.5308,-1.7547 0.6998,-2.6314 0.7624,-3.932 0.052,-1.0918 0.054,-1.1004 0.2756,-1.2911 0.2414,-0.2059 0.3866,-0.2083 1.5694,-0.023 0.6653,0.096 2.1124,0.093 3.0601,-0.015 1.3668,-0.1555 1.4504,0.02 0.7378,1.5297 -0.271,0.5744 -0.6527,1.4869 -0.8485,2.0284 -0.621,1.7168 -0.5631,1.8584 0.2198,0.5424 1.4548,-2.4446 2.8811,-4.0821 4.0219,-4.6156 0.2783,-0.1295 0.6335,-0.2081 0.9917,-0.2298 0.3579,-0.021 0.7187,0.013 1.007,0.1096 0.5039,0.1671 1.0896,0.7266 1.2078,1.1537 0.1813,0.6529 0.069,1.0984 -0.6811,2.7055 -0.5307,1.1361 -0.7483,1.7271 -0.6684,1.8069 0.083,0.083 0.1753,-0.03 0.7057,-0.8641 1.5783,-2.4823 3.1518,-4.0919 4.4454,-4.5466 1.1248,-0.3953 2.4851,-0.2006 3.1935,0.4574 0.5065,0.4706 0.6818,1.2306 0.4814,2.0869 -0.065,0.2791 -0.4343,1.3637 -0.8192,2.4099 -1.252,3.4034 -1.5767,4.421 -1.4122,4.9706 0.2217,0.7239 0.9617,0.1959 1.3721,-0.219 0.764,-0.7717 1.2289,-1.5481 1.3876,-2.3185 0.2942,-1.4278 0.9009,-2.9078 1.6818,-4.1008 0.5556,-0.8485 1.9147,-2.1571 2.75,-2.6482 0.8465,-0.4974 1.8324,-0.8209 2.8348,-0.9304 1.6209,-0.1769 2.6879,0.1778 3.3269,1.1066 1.0728,1.5591 0.7419,4.3961 -0.73,6.2568 -0.7191,0.9086 -1.9457,1.4471 -3.2874,1.4618 -0.509,0.01 -0.826,-0.03 -0.9487,-0.099 l -0.1841,-0.1035 0.05,0.363 c 0.1333,0.9727 1.0221,1.5678 2.3429,1.5678 0.7381,0 1.3645,-0.163 1.9168,-0.4986 0.5852,-0.3555 1.542,-1.2113 1.9963,-1.9562 0.91,-1.4917 1.3535,-3.1968 1.8651,-4.8767 0.1795,-0.5894 0.4031,-1.1669 0.609,-1.7432 l -0.8702,0.015 c -0.5323,0.01 -0.8994,-0.023 -0.9452,-0.08 -0.1145,-0.138 0.124,-1.0396 0.3298,-1.2457 0.1559,-0.1559 0.2934,-0.1828 1.0819,-0.2061 l 0.9035,-0.028 0.1517,-0.4332 c 0.2584,-0.739 1.5293,-3.9262 1.8033,-4.5226 0.1431,-0.3112 0.3728,-0.8136 0.5102,-1.116 l 0.2508,-0.5501 -1.2361,-0.5897 c -2.9875,-1.4251 -4.2807,-1.8104 -5.7873,-1.7247 -0.9774,0.055 -1.3041,0.145 -1.835,0.5023 -0.761,0.5122 -1.0693,1.0828 -1.5454,2.8649 -0.3735,1.3968 -0.6226,1.9282 -1.1626,2.4796 -0.5305,0.5416 -1.4144,1.01 -2.229,1.181 -0.6861,0.1451 -2.1134,0.1244 -3.0036,-0.043 -2.4126,-0.4519 -4.2812,-1.6237 -5.5033,-3.4509 -0.7741,-1.1577 -1.1178,-2.3834 -1.1322,-3.9774 -0.011,-2.1679 0.5761,-3.7017 1.9806,-5.1643 1.6734,-1.7431 3.928,-2.6728 6.7367,-2.7777 0.2995,-0.015 0.5932,-0.03 0.8826,-0.015 z m 25.0669,6.8804 c -1.4367,0.075 -3.7687,1.2468 -4.7796,2.5791 0.8114,0.3072 2.5886,0.8509 4.5586,0.6342 v -4e-4 c 1.3846,-0.1522 2.6942,-2.2038 1.0455,-3.0786 -0.2091,-0.1109 -0.4929,-0.1518 -0.8245,-0.1343 z m -0.04,0.6169 c 0.6663,-0.01 1.1258,0.2189 1.0965,0.7174 -0.1201,2.0468 -3.3155,1.4677 -4.8438,1.0678 0.9527,-1.1171 2.6371,-1.774 3.7473,-1.7852 z m -77.0272,0.3305 c 1.6581,-0.024 3.5585,0.3823 5.7641,1.2129 0.9502,0.358 2.5077,1.028 4.6176,1.9862 l 0.5328,0.2418 0.5034,-0.318 c 1.3123,-0.83 3.2817,-1.6647 4.8743,-2.0654 3.6245,-0.9123 6.2506,-0.2317 7.2534,1.8793 1.0501,2.2118 -0.3514,4.6433 -3.0193,5.2369 -0.474,0.105 -0.8367,0.1251 -1.658,0.089 -1.3306,-0.058 -2.3695,-0.3186 -4.5875,-1.151 l -1.6144,-0.6057 -0.1833,0.2254 c -0.1008,0.1243 -0.3959,0.5337 -0.6548,0.9098 -2.6175,3.8036 -4.1446,8.5234 -3.8673,11.9541 0.2419,2.9965 1.726,5.0528 4.5477,5.9081 4.1667,1.2631 12.0946,1.5448 15.8338,3.5019 0.5205,0.2724 1.4467,0.9735 1.7243,1.289 h 7e-4 5e-4 c 0.3571,0.3269 0.6261,0.6936 0.8617,1.1241 0.9203,1.4212 1.2495,2.9158 0.9704,4.4125 -0.2606,1.3987 -0.8364,2.2841 -2.0042,3.0791 -0.6202,0.4222 -0.9218,0.5656 -1.5807,0.7498 -1.2906,0.3678 -2.6507,0.3705 -3.7242,0.016 l 5e-4,-4e-4 c -1.1221,-0.371 -1.9915,-1.1146 -2.2282,-1.9056 -0.1863,-0.6229 -0.1454,-1.0893 0.2075,-2.3694 0.2986,-1.0853 0.3236,-1.2321 0.2824,-1.7303 -0.052,-0.6507 -0.3574,-1.2181 -0.9645,-1.7928 h -5e-4 -3e-4 -4e-4 l -4e-4,-4e-4 -4e-4,-4e-4 c 0,0 -0.01,-0.01 -0.014,-0.013 -1.8328,-1.1787 -3.843,-1.7673 -6.0896,-1.8807 -3.5521,-0.1792 -4.383,1.5768 -6.2768,1.7495 -4.3253,0.3946 -7.7361,-1.6332 -9.0017,-5.3513 -0.081,-0.2392 -0.1702,-0.4761 -0.2327,-0.721 h 4e-4 v -3e-4 h -4e-4 c -0.3407,-0.9851 -0.4311,-3.7604 -0.1733,-5.3326 0.3536,-2.1587 1.0545,-4.3061 2.0589,-6.308 0.4604,-0.9062 0.5273,-0.9581 0.9054,-1.6618 0.4251,-0.7914 1.264,-1.9691 1.8335,-2.7333 0.9475,-1.2722 1.5853,-2.0306 2.7889,-3.3149 0.7238,-0.7734 0.8894,-0.9892 0.7771,-1.0218 -0.3634,-0.1075 -1.4822,-0.2094 -2.2606,-0.2094 -1.9305,0 -3.1986,0.5967 -3.7867,1.7732 -0.2354,0.4713 -0.2983,0.7144 -0.4915,1.8992 -0.322,1.9738 -2.0025,3.1085 -4.4202,2.9844 -2.938,-0.1508 -4.9015,-2.088 -4.9161,-4.831 -0.01,-1.6789 0.7116,-3.2758 2.0853,-4.6513 1.465,-1.4669 3.1959,-2.2107 5.3277,-2.2418 z m 58.8968,2.5031 c -0.4625,0.026 -0.6845,0.055 -0.7506,0.073 -0.066,0.018 -0.067,0.015 -0.2821,0.1592 -0.2547,0.1715 -0.2315,0.1413 -0.3655,0.3896 -0.1169,0.2169 -0.3031,0.7176 -0.5292,1.5635 -0.3956,1.4805 -0.8193,2.423 -1.5649,3.184 -0.3422,0.3495 -0.754,0.6237 -1.1779,0.8734 0.4326,-0.1152 0.8178,-0.3667 1.2646,-0.4156 1.6058,-0.1753 3.1154,0.1836 4.177,1.1313 0.084,-0.1641 0.1433,-0.3238 0.3322,-0.5126 0.3233,-0.3227 0.6423,-0.4972 1.1357,-0.5898 0.28,-0.053 0.7651,-0.1195 0.7651,-0.1195 0,0 1.3828,-3.2869 1.7155,-4.011 0.029,-0.062 0.068,-0.149 0.103,-0.2242 -2.7287,-1.2914 -3.6638,-1.5588 -4.8229,-1.4937 z m -41.2626,0.5327 v 4e-4 0.01 c -0.5897,0.016 -1.3324,0.1925 -2.0159,0.7253 -0.4332,0.3377 -0.6596,0.5431 -1.1662,0.9989 0.3533,0.1031 0.445,0.1212 0.9099,0.195 0.8707,0.1367 2.4103,0.3077 3.215,-0.025 0.3366,-0.1391 0.8693,-0.6112 0.266,-1.4607 -0.2736,-0.3852 -0.7771,-0.4417 -1.2088,-0.4417 z m 0.167,0.4683 c 0.3821,0.01 0.6946,0.1661 0.7871,0.5964 0.1295,0.6032 -1.8035,0.7531 -2.7241,0.4333 -0.083,-0.2963 1.0961,-1.0409 1.937,-1.0297 z m 41.7563,1.4442 c 0.4409,0.035 1.1745,0.2728 2.0974,0.6699 -0.2681,0.6576 -0.5024,1.2349 -0.7674,1.9274 -0.017,0 -0.021,0 -0.038,0 h -0.012 c -0.537,0.1024 -1.0111,0.4437 -1.4615,0.7673 -0.4943,-0.2475 -0.959,-0.5265 -1.5012,-0.6431 0.1872,-0.4299 0.348,-0.8945 0.493,-1.3856 z m 11.5709,2.2815 v 0 c -0.1324,0.2988 -0.2579,0.5799 -0.4004,0.9115 -0.046,0.1069 -0.079,0.1895 -0.1243,0.2957 0.2275,0.05 0.407,0.038 0.6566,0.2182 0.3504,0.2523 0.5028,0.5546 0.6006,0.8249 0.4384,-0.4704 0.9509,-0.8956 1.6011,-1.1707 0.2218,-0.094 0.4416,-0.067 0.6639,-0.1392 -0.9193,-0.2179 -2.0183,-0.5739 -2.9975,-0.942 z m -57.8899,1.5393 c -0.039,0.055 -0.052,0.07 -0.088,0.1228 -2.4289,3.5292 -3.8193,8.0876 -3.5906,10.92 0.2052,2.5397 1.1276,3.7129 3.4771,4.5262 0.2145,0.075 0.2607,0.072 0.4184,0.1275 -0.3242,-0.5739 -0.65,-1.1533 -0.7686,-1.8317 -0.2267,-1.2989 -0.1461,-3.0677 0.1379,-4.4138 0.668,-3.1637 2.2732,-6.3012 4.4062,-8.0742 0.077,-0.063 0.1747,-0.075 0.2532,-0.1347 -1.0517,-0.1727 -2.1533,-0.4547 -3.7587,-1.0571 l -0.487,-0.1834 z m 34.7546,0.4196 v 4e-4 c 0.9772,0.5195 1.3405,1.5675 1.4418,2.6185 0.7451,-0.895 1.6387,-1.7581 2.5552,-2.3031 -1.0365,0.1574 -2.2311,0.1619 -3.254,-0.031 -0.2734,-0.051 -0.4789,-0.2166 -0.743,-0.2857 z m 21.5867,2.3 v 4e-4 c -0.1587,0.028 -0.4063,0.033 -0.875,0.033 h -0.6498 v -4e-4 h 0.6501 c 0.4269,0 0.6593,-0.01 0.8747,-0.033 z m -46.7479,1.5405 c -0.6575,-0.048 -1.4217,0.7391 -2.1002,2.1648 -0.6672,1.4019 -0.9905,2.6317 -0.9901,3.7643 0,0.8746 0.1512,1.1702 0.5973,1.1702 0.1983,0 0.4061,-0.075 0.6379,-0.2283 0.5686,-0.3763 0.6396,-0.4867 0.5361,-0.8328 -0.2983,-0.9959 0.278,-2.1794 1.2251,-2.5158 0.3442,-0.1223 0.3768,-0.1567 0.4802,-0.5151 0.1856,-0.6394 0.2916,-1.5018 0.252,-2.0549 -0.048,-0.6695 -0.2164,-0.9214 -0.6383,-0.9524 z m 33.2169,0.06 c -0.017,0 -0.033,0 -0.049,0.01 v -5e-4 c -0.078,0.015 -0.1685,0.055 -0.2704,0.1211 -0.623,0.4083 -1.7064,2.5913 -1.9068,3.8426 -0.054,0.3361 -0.054,0.3364 0.1524,0.2844 0.1134,-0.029 0.3355,-0.1327 0.4939,-0.2331 0.4523,-0.2854 1.04,-1.0009 1.3785,-1.6781 0.6461,-1.2932 0.6978,-2.3693 0.2021,-2.3425 z m -33.2831,0.8273 c 0.01,-3e-4 0.019,-3e-4 0.027,4e-4 v 0.01 c 0.1257,0.015 0.091,-2e-4 0.1124,0.034 0.02,0.03 0.065,0.1757 0.091,0.4105 -0.013,0.4745 -0.084,1.0768 -0.2186,1.5424 -0.024,0.083 -0.042,0.1311 -0.05,0.1545 -0.022,0.01 -0.067,0.03 -0.1437,0.057 -1.0403,0.3695 -1.6787,1.4575 -1.6018,2.5471 -0.021,0.2113 0.032,0.4229 0.023,0.6386 0,0.057 -0.083,0.082 -0.2817,0.2134 -0.5044,0.318 -0.483,0.1167 -0.5151,-0.3895 0.044,-0.9795 0.3332,-2.0581 0.9288,-3.309 0.3246,-0.6821 0.6664,-1.1983 0.9724,-1.5135 0.2865,-0.2956 0.516,-0.3907 0.6547,-0.3932 z m 33.0532,0.3012 c -0.078,0.2973 -0.192,0.6328 -0.3807,1.0106 -0.1693,0.3386 -0.4193,0.6069 -0.6671,0.8597 0.067,-0.2037 0.1424,-0.408 0.2474,-0.6198 0.1794,-0.3614 0.3691,-0.6957 0.5452,-0.9536 0.1103,-0.1614 0.183,-0.2256 0.2552,-0.2969 z m 16.1146,1.222 -0.5163,0.5749 c -0.9956,1.1091 -1.6148,2.8585 -1.2529,3.5408 0.2964,0.5592 0.7555,0.5722 1.2019,0.3843 0.5601,-0.234 0.7515,-0.6837 0.737,-1.8261 -0.01,-0.5294 -0.043,-1.3479 -0.087,-1.8186 z m -0.3606,1.6416 h 3e-4 c 0.031,0.4096 0.053,0.9116 0.062,1.3207 -0.012,0.3652 -0.053,0.6445 -0.1075,0.7915 -0.2514,0.6701 -1.0047,0.4717 -0.9685,0.013 0.016,-0.198 0.067,-0.4193 0.1524,-0.6612 0.1758,-0.4965 0.5136,-1.0079 0.8618,-1.4643 z m -11.7458,6.061 c 0.016,0.05 0.015,0.1125 0.035,0.1622 0.5527,1.4372 1.7106,2.3571 3.2741,2.6212 0.5873,0.102 0.8883,0.1006 1.5124,0 1.1433,-0.1846 2.1439,-0.8794 3.0433,-1.9088 0.3819,0.5497 0.7814,1.0989 1.3689,1.47 1.8227,1.1505 4.6008,1.1312 6.8272,0.046 1.0276,-0.5012 1.9601,-1.4341 2.5873,-2.385 0.032,0.2611 0.053,0.5386 0.065,0.8067 -0.038,1.4525 -0.4154,2.6422 -1.319,3.4173 -0.4725,0.4051 -0.78,0.5721 -1.1979,0.8232 -1.4458,0.7442 -4.678,0.8576 -8.3093,0.1096 l -1.4903,-0.3066 -0.5248,-0.1259 -2.6715,-0.6748 c -1.4804,-0.3734 -3.2903,-0.7784 -4.0864,-0.9127 -1.1439,-0.1932 -2.2586,-0.2873 -3.3446,-0.3234 0.4581,-0.09 0.8889,-0.2209 1.3568,-0.416 1.0742,-0.4488 2.1575,-1.3628 2.8728,-2.4027 z m 7.8078,2.3573 c -0.7606,0.6585 -1.6005,1.1755 -2.5792,1.3825 l 0.9263,0.2335 0.5007,0.1216 1.4706,0.3033 c 1.7396,0.3586 3.3814,0.507 4.7232,0.4806 1.3338,-0.026 2.3785,-0.262 2.8187,-0.4854 0.3951,-0.2361 0.6051,-0.3475 0.99,-0.6776 0.2331,-0.1999 0.3786,-0.5002 0.5249,-0.802 -0.2098,0.132 -0.3885,0.3098 -0.6111,0.4184 v 0 c -2.5594,1.2481 -5.6706,1.3238 -7.9405,-0.109 -0.3978,-0.2513 -0.5546,-0.5648 -0.822,-0.8659 z m -42.7437,1.1041 v 4e-4 c 8e-4,1e-4 0,4e-4 0,4e-4 1e-4,0 8e-4,-4e-4 0,-4e-4 z" /><path
       id="path2901"
       style="opacity:1;fill:#000000;stroke:none;stroke-width:0.144746;stroke-linejoin:round;paint-order:stroke fill markers"
       d="m -1940.095,7351.1374 c -0.289,-0.015 -0.5825,0 -0.8816,0.015 -2.8087,0.1049 -5.0632,1.0346 -6.7366,2.7777 -1.4045,1.4626 -1.9917,2.9966 -1.9807,5.1645 0.014,1.594 0.3581,2.8193 1.1322,3.977 1.2221,1.8272 3.091,2.9991 5.5036,3.451 0.8902,0.1674 2.3173,0.188 3.0034,0.043 0.8146,-0.171 1.6983,-0.6392 2.2288,-1.1808 0.54,-0.5514 0.7892,-1.0827 1.1627,-2.4795 0.4761,-1.7821 0.7847,-2.3527 1.5457,-2.8649 0.5309,-0.3573 0.8571,-0.4473 1.8345,-0.5023 1.5066,-0.086 2.8002,0.2993 5.7877,1.7244 l 1.2361,0.5897 -0.2511,0.5503 c -0.1374,0.3024 -0.367,0.805 -0.5101,1.1162 -0.274,0.5964 -1.5451,3.7832 -1.8035,4.5222 l -0.1514,0.4336 -0.9038,0.028 c -0.7885,0.023 -0.9257,0.05 -1.0816,0.2062 -0.2058,0.2061 -0.4442,1.1074 -0.3297,1.2454 0.046,0.057 0.4129,0.09 0.9452,0.08 l 0.8702,-0.015 c -0.2059,0.5763 -0.4298,1.1536 -0.6093,1.743 -0.5116,1.6799 -0.955,3.385 -1.865,4.8767 -0.4543,0.7449 -1.411,1.601 -1.9962,1.9565 -0.5523,0.3356 -1.1786,0.4987 -1.9167,0.4987 -1.3208,0 -2.2097,-0.5952 -2.343,-1.5679 l -0.05,-0.3633 0.1839,0.1039 c 0.1227,0.069 0.4398,0.1087 0.9488,0.099 1.3417,-0.015 2.5686,-0.5533 3.2877,-1.4619 1.4719,-1.8607 1.8024,-4.6974 0.7296,-6.2565 -0.639,-0.9288 -1.706,-1.2838 -3.3269,-1.1069 -1.0024,0.1095 -1.9879,0.4333 -2.8344,0.9307 -0.8353,0.4911 -2.1947,1.7994 -2.7503,2.6479 -0.7809,1.193 -1.3873,2.6733 -1.6815,4.1011 -0.1587,0.7704 -0.624,1.5465 -1.388,2.3182 -0.4104,0.4149 -1.1504,0.943 -1.3721,0.2191 -0.1645,-0.5496 0.1604,-1.5669 1.4124,-4.9703 0.3849,-1.0462 0.754,-2.1311 0.819,-2.4102 0.2004,-0.8563 0.025,-1.6161 -0.4811,-2.0867 -0.7084,-0.658 -2.0688,-0.8526 -3.1936,-0.4573 -1.2936,0.4547 -2.8669,2.0642 -4.4452,4.5465 -0.5304,0.8341 -0.6229,0.947 -0.7059,0.864 -0.08,-0.08 0.1375,-0.671 0.6682,-1.8071 0.7501,-1.6071 0.8624,-2.0524 0.6811,-2.7053 -0.1182,-0.4271 -0.7038,-0.9868 -1.2077,-1.1539 -0.2883,-0.097 -0.6487,-0.1305 -1.0066,-0.1095 -0.3582,0.022 -0.7139,0.1004 -0.9922,0.2299 -1.1408,0.5335 -2.5667,2.1712 -4.0215,4.6158 -0.7829,1.316 -0.8411,1.1741 -0.2201,-0.5427 0.1958,-0.5415 0.5775,-1.4539 0.8485,-2.0283 0.7126,-1.5097 0.6288,-1.6851 -0.738,-1.5296 -0.9477,0.108 -2.3944,0.111 -3.0597,0.015 -1.1828,-0.1853 -1.328,-0.1831 -1.5694,0.023 -0.2216,0.1907 -0.2235,0.1995 -0.2755,1.2913 -0.063,1.3006 -0.2319,2.1774 -0.7627,3.9321 -0.2159,0.7138 -0.4277,1.4182 -0.4697,1.5653 -0.093,0.3251 -0.7834,1.0391 -1.0759,1.1121 -0.2498,0.063 -0.4367,-0.065 -0.4367,-0.2992 1e-4,-0.09 0.098,-0.5579 0.2206,-1.0418 0.5399,-2.1484 0.4973,-4.08 -0.1152,-5.2059 -1.2107,-2.2242 -4.9441,-2.5421 -7.259,-0.6181 -1.6797,1.3962 -3.2644,4.3396 -3.8628,7.1743 -0.2254,1.0649 -0.2869,2.9037 -0.1287,3.8101 0.2416,1.3804 0.9563,2.3635 2.1462,2.9533 1.9739,0.9781 4.1917,0.4987 5.8384,-1.2614 0.5468,-0.5845 1.2948,-1.7057 1.6774,-2.5157 0.1109,-0.2334 0.1675,-0.2824 0.293,-0.2434 0.3704,0.113 1.1629,0.122 1.5043,0.015 l 0.3529,-0.1105 0.052,0.6702 c 0.1495,1.9831 1.0402,3.2615 2.5838,3.7099 0.9516,0.2766 2.6694,0.1178 2.9905,-0.2755 0.1745,-0.214 0.1687,-0.4345 -0.03,-1.1374 -0.4164,-1.4788 0.094,-3.7169 1.4619,-6.3924 1.1464,-2.245 2.748,-4.5135 3.005,-4.2565 0.074,0.074 0.057,0.1616 -0.087,0.416 -1.3601,2.4023 -2.2951,4.6589 -2.6521,6.4027 -0.1619,0.7895 -0.1818,2.1051 -0.04,2.6778 0.3217,1.308 1.0734,1.9066 2.2862,1.8196 0.7882,-0.057 1.3687,-0.3488 1.9647,-0.9927 0.6193,-0.6688 1.0286,-1.4927 1.6485,-3.313 0.829,-2.4351 1.8255,-4.6939 2.666,-6.0441 0.7797,-1.2523 1.2544,-1.4731 0.5917,-0.2749 -0.9242,1.6709 -1.7109,3.7548 -2.126,5.6307 -0.2482,1.1182 -0.251,2.9069 -0.015,3.686 0.2819,0.8967 0.8599,1.5119 1.757,1.8718 0.3856,0.1545 0.5742,0.1782 1.4744,0.1782 1.2706,0 1.846,-0.1531 2.7073,-0.7291 0.6912,-0.4622 1.2582,-1.0799 1.8138,-1.9761 l 0.4119,-0.6641 0.338,0.6904 c 0.4498,0.9221 1.2344,1.7281 2.0737,2.1281 0.9657,0.4597 1.4099,0.5475 2.7926,0.5477 1.3349,1e-4 2.0626,-0.1291 3.0391,-0.5369 1.0916,-0.456 2.3408,-1.3949 2.9435,-2.4494 0.1717,-0.3007 0.211,-0.4356 0.401,-0.3117 0.034,0.3147 0.079,0.5622 0.1633,0.7783 0.5036,1.3094 1.4866,2.0946 2.9259,2.3368 0.5713,0.099 0.7515,0.099 1.3617,0 1.1654,-0.1881 2.1937,-0.8716 3.1275,-2.0965 0.3778,0.6907 0.9145,1.286 1.6004,1.7193 1.6345,1.032 4.2987,1.0419 6.3867,0.024 1.022,-0.4987 2.0848,-1.4759 2.6298,-2.4189 0.1738,-0.3006 0.3432,-0.5489 0.3809,-0.5566 2e-4,0 0,-5e-4 0,-5e-4 0.136,-0.015 0.3127,1.1363 0.3127,2.0159 0,1.6386 -0.4102,3.0642 -1.495,3.9946 -0.5079,0.4355 -0.8584,0.6287 -1.2775,0.8811 v 5e-4 c -1.6541,0.8555 -4.9261,0.9125 -8.6181,0.1519 l -1.497,-0.3075 -0.5359,-0.1286 -2.6732,-0.6744 c -1.4706,-0.3709 -3.294,-0.7781 -4.0515,-0.9059 -1.3752,-0.2323 -2.7184,-0.3499 -3.9971,-0.3499 -2.1314,0 -4.0836,0.3123 -5.7025,0.9349 -0.7969,0.2931 -1.5991,0.5162 -2.3715,1.1244 l -0.6552,0.4688 c -1.26,0.9013 -2.5357,2.4898 -3.0701,3.8219 -1.367,3.4075 -0.6403,6.9812 1.9182,9.4258 1.2983,1.2402 2.947,2.0422 4.7749,2.3229 0.7969,0.1226 2.4609,0.044 3.3207,-0.154 1.7418,-0.4037 2.5662,-0.9871 2.9022,-2.0531 0.1741,-0.5497 0.175,-0.6913 0.015,-2.3156 -0.126,-1.256 -0.1473,-1.9061 -0.071,-2.372 0.3439,-2.1708 2.2631,-3.9591 4.9061,-4.5703 1.5259,-0.3533 4.4708,-0.3289 7.7014,0.063 4.199,0.509 6.6073,0.4938 8.5891,-0.055 2.1115,-0.5846 3.8277,-1.8652 4.8323,-3.8607 0.3708,-0.7365 0.9193,-2.3731 1.0273,-3.9621 0.1247,-1.8364 0.011,-3.1344 -0.2052,-3.9574 -0.6408,-2.4224 -2.1146,-4.888 -2.9223,-4.888 -0.5068,0 -0.6827,0.1572 -1.1653,1.0412 -0.4757,0.8716 -1.4823,2.3877 -1.5585,2.3508 -3e-4,-2e-4 0,-8e-4 0,0 -0.021,-0.02 -0.06,-0.6103 -0.086,-1.3121 -0.027,-0.7017 -0.1256,-1.7339 -0.2206,-2.2929 -0.095,-0.5587 -0.212,-1.4443 -0.26,-1.9673 l -0.088,-0.9503 0.4046,-0.5359 c 1.0428,-1.3779 1.3045,-2.537 0.7126,-3.1549 -0.3325,-0.3469 -0.8374,-0.5307 -1.4464,-0.5477 -0.6094,-0.018 -1.3236,0.1321 -2.0717,0.449 -0.5936,0.2512 -1.3611,1.0365 -1.6888,1.6108 -0.139,0.2436 -0.2389,0.4541 -0.3219,0.8051 -0.038,0.1636 -0.064,0.4196 -0.084,0.6935 l -0.052,0.8093 -0.7053,0.4594 c -1.473,0.9556 -3.1102,2.8768 -3.7114,4.3563 -0.1285,0.3169 -0.1727,0.5289 -0.2998,0.9596 -0.1361,0.4608 -0.5777,0.6186 -0.7617,0.6656 -0.133,0.034 -0.2883,0.015 -0.4093,-0.074 -0.6418,-0.4206 -0.2135,-2.8405 1.3519,-7.6424 l 0.3292,-1.0103 h 0.9813 c 0.9081,0 0.9969,-0.014 1.186,-0.1902 0.1123,-0.1064 0.2849,-0.4018 0.3829,-0.6583 0.2534,-0.6625 0.2061,-0.6966 -0.9674,-0.6966 -0.6164,0 -0.9539,-0.032 -0.9539,-0.088 0,-0.1904 1.7734,-4.318 1.9172,-4.4622 0.036,-0.035 0.4396,0.089 0.8981,0.2759 1.0418,0.4246 2.7069,0.9491 3.6432,1.1472 1.1077,0.2349 3.3896,0.2093 4.4287,-0.048 2.264,-0.5621 3.7186,-1.6039 4.4989,-3.2226 0.5768,-1.1965 0.6937,-2.2404 0.385,-3.4473 -0.2449,-0.9571 -0.6148,-1.5877 -1.3849,-2.3595 -1.1636,-1.1664 -2.6354,-1.757 -4.624,-1.8573 -3.494,-0.1759 -6.7699,1.039 -9.215,3.4179 -0.471,0.458 -0.8875,0.833 -0.9255,0.833 -0.1464,0 -2.1086,-1.1875 -4.486,-2.7151 -2.7157,-1.7448 -4.0712,-2.548 -5.2844,-3.131 -2.3574,-1.1326 -4.18,-1.6357 -6.2048,-1.6837 z m 25.3059,6.8771 c 0.2295,0.01 0.4287,0.053 0.5855,0.1364 1.6487,0.8748 0.3387,2.9262 -1.0459,3.0784 v 5e-4 c -1.97,0.2167 -3.747,-0.3269 -4.5584,-0.6341 1.0109,-1.3323 3.3429,-2.5042 4.7796,-2.5792 0.083,0 0.1627,-0.01 0.2392,0 z m -77.3064,0.9493 6e-4,0.011 c -2.1318,0.031 -3.8629,0.7748 -5.3279,2.2417 -1.3737,1.3755 -2.0956,2.9725 -2.0856,4.6514 0.015,2.743 1.9784,4.6799 4.9164,4.8307 2.4177,0.1241 4.0979,-1.0105 4.4199,-2.9843 0.1932,-1.1848 0.2561,-1.4278 0.4915,-1.8991 0.5881,-1.1765 1.8563,-1.773 3.7868,-1.773 0.7784,0 1.8975,0.1018 2.2609,0.2093 0.1123,0.033 -0.053,0.2482 -0.7772,1.0216 -1.2036,1.2843 -1.8415,2.0429 -2.789,3.3151 -0.5695,0.7642 -1.4084,1.9417 -1.8335,2.7331 -0.3781,0.7037 -0.445,0.7558 -0.9054,1.662 -1.0044,2.0019 -1.7052,4.1494 -2.0588,6.3081 -0.2578,1.5722 -0.1675,4.3474 0.1732,5.3325 0.062,0.2449 0.1515,0.4822 0.2325,0.7214 1.2656,3.7181 4.6767,5.7457 9.002,5.3511 1.8938,-0.1727 2.7246,-1.9285 6.2767,-1.7493 2.2466,0.1134 4.2567,0.7018 6.0895,1.8805 0,0 0.014,0.013 0.014,0.013 l 5e-4,5e-4 5e-4,5e-4 h 5e-4 5e-4 c 0.6071,0.5747 0.9128,1.142 0.9648,1.7927 0.041,0.4982 0.016,0.6448 -0.2826,1.7301 -0.3529,1.2801 -0.3936,1.7464 -0.2073,2.3693 0.2367,0.791 1.1057,1.5349 2.2278,1.9059 l -5e-4,5e-4 c 1.0735,0.3545 2.4337,0.3518 3.7243,-0.016 0.6589,-0.1842 0.9606,-0.3277 1.5808,-0.7499 1.1678,-0.795 1.7434,-1.6807 2.004,-3.0794 0.2791,-1.4967 -0.05,-2.9909 -0.97,-4.4121 -0.2356,-0.4305 -0.5048,-0.7976 -0.8619,-1.1245 h -5e-4 -6e-4 c -0.2776,-0.3155 -1.2039,-1.0164 -1.7244,-1.2888 -3.7392,-1.9571 -11.667,-2.239 -15.8337,-3.5021 -2.8217,-0.8553 -4.3061,-2.9117 -4.548,-5.9082 -0.2773,-3.4307 1.25,-8.1501 3.8675,-11.9537 0.2589,-0.3761 0.5539,-0.7858 0.6547,-0.9101 l 0.1834,-0.2253 1.6144,0.6057 c 2.218,0.8324 3.2567,1.0933 4.5873,1.1513 0.8213,0.036 1.1843,0.016 1.6583,-0.089 2.6679,-0.5936 4.0691,-3.0251 3.019,-5.2369 -1.0028,-2.111 -3.6288,-2.7912 -7.2533,-1.8789 -1.5926,0.4007 -3.5619,1.235 -4.8742,2.065 l -0.5033,0.3183 -0.5328,-0.2419 c -2.1099,-0.9582 -3.6676,-1.6284 -4.6178,-1.9864 -2.2056,-0.8306 -4.1059,-1.2368 -5.764,-1.2128 z m 17.6341,3.038 c 0.4317,0 0.9351,0.057 1.2087,0.4418 0.6033,0.8495 0.071,1.3218 -0.2656,1.4609 -0.8047,0.3327 -2.3446,0.1615 -3.2153,0.025 -0.4649,-0.074 -0.5567,-0.092 -0.91,-0.1948 0.5066,-0.4558 0.7331,-0.6612 1.1663,-0.9989 0.6835,-0.5328 1.4262,-0.7095 2.0159,-0.7255 z m 5.1976,9.9911 c 0.4219,0.031 0.5907,0.2829 0.6387,0.9524 0.04,0.5531 -0.067,1.4158 -0.2521,2.0552 -0.1034,0.3584 -0.1359,0.3929 -0.4801,0.5152 -0.9471,0.3364 -1.5236,1.5197 -1.2253,2.5156 0.1035,0.3461 0.033,0.4568 -0.5358,0.8331 -0.2318,0.1533 -0.44,0.2278 -0.6383,0.2278 -0.4461,0 -0.5973,-0.2953 -0.5973,-1.1699 -4e-4,-1.1326 0.3229,-2.3627 0.9901,-3.7646 0.6785,-1.4257 1.4426,-2.2128 2.1001,-2.1648 z m 33.2171,0.06 h 5e-4 c 0.4957,-0.027 0.4441,1.0493 -0.202,2.3425 -0.3385,0.6772 -0.9259,1.3925 -1.3782,1.6779 -0.1584,0.1004 -0.3807,0.2041 -0.4941,0.2331 -0.2064,0.052 -0.2064,0.052 -0.1524,-0.2842 0.2004,-1.2513 1.2839,-3.4344 1.9069,-3.8427 0.1019,-0.066 0.1922,-0.1059 0.2702,-0.1209 v 5e-4 c 0.016,-0.01 0.032,-0.01 0.049,-0.01 z m 15.8848,2.3507 0.083,0.8553 c 0.044,0.4707 0.077,1.2891 0.087,1.8185 0.014,1.1424 -0.1768,1.5922 -0.7369,1.8262 -0.4464,0.1879 -0.9056,0.1748 -1.202,-0.3844 -0.3619,-0.6823 0.2576,-2.4318 1.2532,-3.5409 z" /></g></svg>
