<?xml version="1.0" encoding="UTF-8" standalone="no"?>
<svg
   width="304.40039"
   height="133.55078"
   viewBox="0 0 80.539268 35.335312"
   version="1.1"
   id="svg16"
   xml:space="preserve"
   xmlns="http://www.w3.org/2000/svg"
   xmlns:svg="http://www.w3.org/2000/svg"
   xmlns:rdf="http://www.w3.org/1999/02/22-rdf-syntax-ns#"
   xmlns:cc="http://creativecommons.org/ns#"
   xmlns:dc="http://purl.org/dc/elements/1.1/"><defs
     id="defs10" /><metadata
     id="metadata13"><rdf:RDF><cc:Work
         rdf:about=""><dc:format>image/svg+xml</dc:format><dc:type
           rdf:resource="http://purl.org/dc/dcmitype/StillImage" /></cc:Work></rdf:RDF></metadata><g
     id="layer1"
     transform="translate(2140.7769,-7365.223)"><path
       id="path2859"
       style="font-size:14.2043px;line-height:1.25;font-family:'College Block 2.0';-inkscape-font-specification:'College Block 2.0, Normal';fill:#030303;fill-opacity:1;stroke-width:0.486255"
       d="m -2099.4279,7393.8805 -1.1896,0.029 -0.6429,3.8504 h -0.015 l -0.6423,-3.8183 -1.1896,0.029 v 6.5159 h 0.7886 v -5.1051 h 0.015 l 0.818,5.1051 h 0.4377 l 0.8175,-5.1439 h 0.015 v 5.1444 h 0.7886 z m 0.3927,0.015 v 6.5903 h 2.5254 v -0.9566 l -1.62,-0.019 v -1.9146 l 1.1674,0.04 v -0.9617 l -1.1674,-0.053 v -1.6795 l 1.5177,0.1 v -0.9581 z m 2.7073,0.2149 v 0.9535 l 0.876,0.1188 v 5.3031 h 0.9048 v -5.1806 l 0.8759,0.1183 v -0.8898 z m -8.3612,0.045 c -0.056,0 -0.1113,0.01 -0.17,0.013 -0.2409,0.03 -0.4456,0.098 -0.6207,0.2047 -0.1753,0.106 -0.3136,0.2321 -0.4299,0.3808 -0.1164,0.1564 -0.197,0.3335 -0.2558,0.5245 -0.059,0.199 -0.08,0.4028 -0.08,0.6124 v 3.1171 c -2e-4,0.218 0.021,0.4187 0.08,0.6021 0.059,0.1922 0.1394,0.3593 0.2558,0.4929 0.1164,0.1427 0.2546,0.2521 0.4299,0.3365 0.1751,0.085 0.3798,0.1188 0.6207,0.1188 0.2335,0 0.4378,-0.035 0.6129,-0.1225 0.1752,-0.088 0.3144,-0.2019 0.4309,-0.3519 0.1164,-0.142 0.1964,-0.319 0.2553,-0.5229 0.059,-0.1955 0.088,-0.4083 0.088,-0.6382 v -3.2892 c 0,-0.221 -0.029,-0.4304 -0.088,-0.6274 -0.059,-0.1879 -0.1389,-0.3557 -0.2553,-0.492 -0.1165,-0.1269 -0.2559,-0.2242 -0.4309,-0.2904 -0.1314,-0.049 -0.2787,-0.072 -0.4429,-0.068 z m -2.989,0.5152 c -0.099,0 -0.2018,0.01 -0.3111,0.034 -0.2411,0.053 -0.4454,0.1357 -0.6206,0.2507 -0.1752,0.1139 -0.3146,0.2423 -0.431,0.3875 -0.1164,0.152 -0.1964,0.3178 -0.2553,0.4941 -0.059,0.1832 -0.08,0.3669 -0.08,0.5539 v 2.7828 c 0,0.1944 0.021,0.3736 0.08,0.5364 0.059,0.171 0.1394,0.3192 0.2558,0.4382 0.1165,0.1275 0.2554,0.226 0.4305,0.3018 0.1752,0.077 0.3796,0.108 0.6206,0.108 0.2189,0 0.4155,-0.032 0.5907,-0.1132 0.1678,-0.082 0.3067,-0.1883 0.417,-0.3286 0.1089,-0.1333 0.1888,-0.3001 0.2476,-0.4915 0.059,-0.184 0.088,-0.384 0.088,-0.5994 v -0.6873 l -0.9048,0.071 v 0.6971 c 0,0.1925 -0.036,0.3383 -0.095,0.4367 -0.065,0.106 -0.1821,0.1582 -0.3426,0.1633 -0.1898,0.01 -0.3147,-0.037 -0.3799,-0.1359 -0.074,-0.098 -0.1028,-0.2519 -0.1028,-0.4687 v -2.8355 c 0,-0.2092 0.03,-0.3693 0.1028,-0.4832 0.066,-0.1133 0.1899,-0.191 0.3799,-0.2263 0.1164,-0.022 0.2182,0.015 0.3059,0.1105 0.088,0.096 0.1318,0.2649 0.1318,0.5054 v 0.4486 l 0.9053,-0.1308 v -0.4382 c -10e-5,-0.2154 -0.029,-0.4261 -0.088,-0.6139 -0.059,-0.1871 -0.1392,-0.3442 -0.2481,-0.4702 -0.1102,-0.1249 -0.2482,-0.2103 -0.416,-0.2636 -0.088,-0.021 -0.1809,-0.033 -0.2796,-0.034 z m 15.1516,0.1933 c -0.2324,0 -0.4227,0.061 -0.5731,0.1778 -0.2487,0.1906 -0.3654,0.5195 -0.3654,0.987 0,0.2821 0.044,0.5309 0.1308,0.7539 0.088,0.2214 0.2049,0.4296 0.3436,0.6072 0.1313,0.1827 0.2843,0.3511 0.4449,0.5023 0.1605,0.1571 0.3067,0.3023 0.4455,0.446 0.1312,0.1488 0.2479,0.2958 0.3354,0.4382 0.088,0.1487 0.1395,0.3082 0.1395,0.4868 -10e-5,0.1638 -0.052,0.2805 -0.1468,0.3586 -0.1026,0.086 -0.2259,0.1193 -0.3793,0.1137 -0.1458,-0.01 -0.2698,-0.079 -0.3648,-0.2227 -0.1027,-0.1446 -0.1607,-0.3579 -0.1757,-0.6475 l -0.8609,0.075 c 0.012,0.2268 0.044,0.4309 0.109,0.6274 0.059,0.1952 0.1462,0.374 0.2625,0.5204 0.1164,0.145 0.2559,0.2645 0.4238,0.3441 0.1605,0.086 0.3504,0.1256 0.5622,0.1256 0.2042,0 0.4011,-0.03 0.5762,-0.089 0.1752,-0.058 0.3293,-0.1383 0.4532,-0.2537 0.1239,-0.114 0.219,-0.2485 0.2915,-0.4119 0.074,-0.1622 0.11,-0.3543 0.11,-0.5689 0,-0.2289 -0.051,-0.4407 -0.138,-0.6351 -0.088,-0.1959 -0.2045,-0.3748 -0.3359,-0.5499 -0.1387,-0.1705 -0.2844,-0.3286 -0.4449,-0.4836 -0.1606,-0.1569 -0.3146,-0.3069 -0.446,-0.4631 -0.1387,-0.1514 -0.2555,-0.3008 -0.3431,-0.4542 -0.088,-0.1467 -0.1312,-0.3025 -0.1312,-0.4656 0,-0.1711 0.036,-0.3033 0.1167,-0.3798 0.073,-0.078 0.1894,-0.1069 0.3354,-0.076 0.044,0.01 0.094,0.035 0.1535,0.063 0.051,0.033 0.1027,0.074 0.1463,0.1287 0.044,0.054 0.088,0.1302 0.1162,0.2109 0.029,0.08 0.05,0.1822 0.065,0.2971 l 0.8615,0.067 c -0.022,-0.1837 -0.067,-0.3576 -0.1313,-0.5297 -0.065,-0.166 -0.1526,-0.3158 -0.2553,-0.4558 -0.1026,-0.1411 -0.2265,-0.259 -0.3725,-0.3612 -0.1459,-0.095 -0.3136,-0.1741 -0.4961,-0.2196 -0.1698,-0.042 -0.3238,-0.063 -0.4631,-0.063 z m -12.266,0.2243 v 0.01 c 0.1471,0 0.2502,0.046 0.3137,0.1374 0.066,0.1061 0.1029,0.2765 0.1029,0.5111 v 3.1812 c 0,0.2434 -0.037,0.4184 -0.1029,0.5328 -0.073,0.1142 -0.1962,0.1678 -0.3788,0.171 -0.1897,0 -0.3147,-0.045 -0.3798,-0.155 -0.074,-0.1093 -0.1023,-0.2799 -0.1023,-0.5188 v -3.1218 c 0,-0.2303 0.03,-0.4043 0.1023,-0.5225 0.065,-0.1182 0.1895,-0.1913 0.3793,-0.2113 0.022,0 0.045,2e-4 0.066,-0.01 z" /><path
       id="path2782"
       style="font-size:14.2043px;line-height:1.25;font-family:'College Block 2.0';-inkscape-font-specification:'College Block 2.0, Normal';fill:#000000;fill-opacity:1;stroke-width:0.486255"
       d="m -2097.8378,7365.2228 v 0.01 l -3.4902,0.027 a 0.66238908,0.66238908 0 0 0 -0.2956,0.2982 0.66238908,0.66238908 0 0 0 -0.538,-0.293 l -3.4912,0.026 a 0.66238908,0.66238908 0 0 0 -0.4935,0.4971 0.66238908,0.66238908 0 0 0 -0.6486,-0.4454 l -7.8749,0.5472 a 0.66238908,0.66238908 0 0 0 -0.6155,0.6605 v 2.2081 l -1.4206,-2.2272 a 0.66238908,0.66238908 0 0 0 -0.6454,-0.3008 l -5.6012,0.7452 a 0.66238908,0.66238908 0 0 0 -0.5747,0.6578 v 2.188 l -1.3932,-2.0485 a 0.66238908,0.66238908 0 0 0 -0.6868,-0.2769 l -3.7191,0.7953 a 0.66238908,0.66238908 0 0 0 -0.4475,0.3395 l -1.3519,2.5621 v -1.6402 a 0.66238908,0.66238908 0 0 0 -0.8775,-0.6258 l -3.4917,1.1927 a 0.66238908,0.66238908 0 0 0 -0.447,0.6258 v 3.2814 a 0.66238908,0.66238908 0 0 0 0.7338,0.6062 v 2.7874 l -1.663,-6.0978 a 0.66238908,0.66238908 0 0 0 -0.8552,-0.4522 l -2.6045,0.9023 a 0.66238908,0.66238908 0 0 0 -0.4444,0.6253 v 3.2788 a 0.66238908,0.66238908 0 0 0 0.7627,0.6114 v 14.18 l -0.3131,0.1049 a 0.66238908,0.66238908 0 0 0 -0.4496,0.6289 v 3.2784 a 0.66238908,0.66238908 0 0 0 0.9239,0.6087 c 1.075,-0.4614 2.2247,-0.9058 3.4453,-1.3276 a 0.66238908,0.66238908 0 0 0 0.4465,-0.6263 v -3.1192 a 0.66238908,0.66238908 0 0 0 -0.7622,-0.6284 v -2.8654 l 1.7404,6.0534 a 0.66238908,0.66238908 0 0 0 0.8315,0.4495 c 0.8187,-0.2518 1.6628,-0.492 2.5332,-0.7255 a 0.66238908,0.66238908 0 0 0 0.4909,-0.6403 v -2.2737 l 1.3694,2.0019 a 0.66238908,0.66238908 0 0 0 0.6966,0.2718 c 1.209,-0.2811 2.4578,-0.5459 3.7383,-0.7901 a 0.66238908,0.66238908 0 0 0 0.4599,-0.34 l 1.3343,-2.5203 v 1.7379 a 0.66238908,0.66238908 0 0 0 0.7705,0.6527 c 1.1367,-0.1862 2.293,-0.3565 3.469,-0.5132 a 0.66238908,0.66238908 0 0 0 0.3256,-0.3715 0.66238908,0.66238908 0 0 0 0.5664,0.2542 c 1.142,-0.1479 2.3003,-0.2817 3.4721,-0.401 a 0.66238908,0.66238908 0 0 0 0.5969,-0.6599 v -3.2789 a 0.66238908,0.66238908 0 0 0 -0.7483,-0.6573 h -0.015 v -6.1102 a 0.66238908,0.66238908 0 0 0 -0.1152,-0.3711 l -0.3132,-0.4645 0.3426,-0.6114 a 0.66238908,0.66238908 0 0 0 0.085,-0.3229 v -4.0241 a 0.66238908,0.66238908 0 0 0 0.5131,0.2103 l 1.9488,-0.1343 a 0.66238908,0.66238908 0 0 0 0.325,-0.3494 v 11.9668 l -0.1612,0.013 a 0.66238908,0.66238908 0 0 0 -0.6165,0.6599 v 3.237 a 0.66238908,0.66238908 0 0 0 0.7167,0.6604 c 1.1485,-0.094 2.3094,-0.1748 3.4763,-0.2418 a 0.66238908,0.66238908 0 0 0 0.6237,-0.6604 v -3.2396 a 0.66238908,0.66238908 0 0 0 -0.709,-0.66 h -0.039 v -11.7941 a 0.66238908,0.66238908 0 0 0 0.3591,0.1272 l 1.9513,-0.1344 a 0.66238908,0.66238908 0 0 0 0.616,-0.6604 v -2.1513 a 0.66238908,0.66238908 0 0 0 0.4423,0.1809 h 0.059 v 14.2316 h -0.071 a 0.66238908,0.66238908 0 0 0 -0.6553,0.6625 v 3.2861 a 0.66238908,0.66238908 0 0 0 0.6847,0.6625 c 1.155,-0.04 2.3161,-0.068 3.4768,-0.081 a 0.66238908,0.66238908 0 0 0 0.3121,-0.3157 0.66238908,0.66238908 0 0 0 0.5235,0.3059 c 0.2704,0 0.5394,-0.01 0.8067,-0.01 0.888,3e-4 1.7759,0.01 2.6624,0.025 a 0.66238908,0.66238908 0 0 0 0.6748,-0.662 v -3.2835 a 0.66238908,0.66238908 0 0 0 -0.6697,-0.6625 h -0.085 v -14.2219 h 0.098 a 0.66238908,0.66238908 0 0 0 0.6579,-0.6625 v -3.2835 a 0.66238908,0.66238908 0 0 0 -0.6666,-0.6625 z m 5.473,0.1984 a 0.66238908,0.66238908 0 0 0 -0.6253,0.662 v 3.2949 a 0.66238908,0.66238908 0 0 0 0.6083,0.6604 l 0.1539,0.012 v 14.2167 l -0.046,-0.01 a 0.66238908,0.66238908 0 0 0 -0.7163,0.6604 v 3.2835 a 0.66238908,0.66238908 0 0 0 0.6258,0.6625 c 1.1656,0.066 2.3215,0.1456 3.4711,0.2393 a 0.66238908,0.66238908 0 0 0 0.7168,-0.6599 v -3.2422 a 0.66238908,0.66238908 0 0 0 -0.6088,-0.6599 l -0.1514,-0.013 v -4.3889 l 2.1709,0.1757 a 0.66238908,0.66238908 0 0 0 0.616,-0.308 l 1.3793,-2.1998 v 8.572 a 0.66238908,0.66238908 0 0 0 0.082,0.3199 l 1.4868,2.7037 a 0.66238908,0.66238908 0 0 0 0.496,0.337 c 1.2659,0.1614 2.5102,0.3406 3.7311,0.5358 a 0.66238908,0.66238908 0 0 0 0.6599,-0.293 l 1.3668,-2.0934 v 2.1715 a 0.66238908,0.66238908 0 0 0 0.5432,0.6501 c 2.3195,0.4282 4.53,0.9194 6.6104,1.4645 a 0.66238908,0.66238908 0 0 0 0.6527,-0.2786 0.66238908,0.66238908 0 0 0 0.4351,0.5716 c 1.2036,0.3362 2.3576,0.6922 3.4571,1.064 a 0.66238908,0.66238908 0 0 0 0.4424,-0.066 0.66238908,0.66238908 0 0 0 0.1979,0.278 c 1.2223,0.4253 2.3716,0.8709 3.4448,1.3353 a 0.66238908,0.66238908 0 0 0 0.927,-0.6088 v -3.2809 a 0.66238908,0.66238908 0 0 0 -0.4454,-0.6263 l -0.584,-0.2026 -2.1833,-8.0408 2.049,-6.1444 0.2832,0.098 a 0.66238908,0.66238908 0 0 0 0.8805,-0.6263 v -3.2809 a 0.66238908,0.66238908 0 0 0 -0.4454,-0.6253 l -3.4908,-1.2201 a 0.66238908,0.66238908 0 0 0 -0.3157,0.044 0.66238908,0.66238908 0 0 0 -0.3297,-0.2563 l -3.4913,-1.2201 a 0.66238908,0.66238908 0 0 0 -0.8805,0.6253 v 3.2737 a 0.66238908,0.66238908 0 0 0 0.4449,0.6263 l 0.3183,0.1101 v 14.2115 a 0.66238908,0.66238908 0 0 0 -0.5353,0.169 v -2.4303 a 0.66238908,0.66238908 0 0 0 -0.5183,-0.6475 l -1.9508,-0.4331 a 0.66238908,0.66238908 0 0 0 -0.8072,0.6475 v 1.741 l -0.6553,-0.1442 v -14.2022 a 0.66238908,0.66238908 0 0 0 0.7633,-0.6377 v -3.2814 a 0.66238908,0.66238908 0 0 0 -0.5188,-0.645 l -3.4913,-0.7751 a 0.66238908,0.66238908 0 0 0 -0.8067,0.6449 v 1.7612 l -1.357,-2.4867 a 0.66238908,0.66238908 0 0 0 -0.4868,-0.3375 l -3.7186,-0.5379 a 0.66238908,0.66238908 0 0 0 -0.6501,0.293 l -1.4619,2.252 a 0.66238908,0.66238908 0 0 0 -0.012,-0.02 l -1.5043,-2.6557 a 0.66238908,0.66238908 0 0 0 -0.523,-0.3322 l -5.612,-0.4558 a 0.66238908,0.66238908 0 0 0 -0.091,0 z m -5.4746,0.1292 v 0.011 a 0.33119454,0.33119454 0 0 1 0.3328,0.3302 v 3.2835 a 0.33119454,0.33119454 0 0 1 -0.3276,0.3302 h -0.4274 v 14.8885 l 0.4222,-0.01 a 0.33119454,0.33119454 0 0 1 0.3328,0.3302 v 3.283 a 0.33119454,0.33119454 0 0 1 -0.3343,0.3308 c -0.8885,-0.016 -1.7808,-0.024 -2.6707,-0.024 -0.2697,0 -0.5395,0.01 -0.8108,0.01 a 0.33119454,0.33119454 0 0 1 -0.3354,-0.3307 v -3.2344 a 0.33119454,0.33119454 0 0 1 0.3271,-0.3297 l 0.4357,-0.01 v -5.4787 l -1.6991,0.015 v 5.4787 h 0.4299 a 0.33119454,0.33119454 0 0 1 0.3323,0.3297 v 3.237 a 0.33119454,0.33119454 0 0 1 -0.3245,0.3303 c -1.1631,0.013 -2.3263,0.041 -3.4841,0.081 a 0.33119454,0.33119454 0 0 1 -0.3421,-0.3297 v -3.2861 a 0.33119454,0.33119454 0 0 1 0.3271,-0.3297 l 0.3985,-0.01 v -14.8936 h -0.3933 a 0.33119454,0.33119454 0 0 1 -0.3323,-0.3297 v -3.2866 a 0.33119454,0.33119454 0 0 1 0.3271,-0.3297 l 3.4913,-0.027 a 0.33119454,0.33119454 0 0 1 0.3323,0.3307 v 3.2856 a 0.33119454,0.33119454 0 0 1 -0.3271,0.3302 l -0.4351,0.01 v 5.4663 l 1.6991,-0.015 v -5.4663 h -0.43 a 0.33119454,0.33119454 0 0 1 -0.3328,-0.3308 v -3.2835 a 0.33119454,0.33119454 0 0 1 0.3271,-0.3297 z m -8.9359,0.1194 a 0.33119454,0.33119454 0 0 1 0.3519,0.3297 v 5.8704 a 0.33119454,0.33119454 0 0 1 -0.3074,0.3297 l -1.9513,0.1349 a 0.33119454,0.33119454 0 0 1 -0.352,-0.3302 v -2.2128 l -0.3157,0.022 v 14.8751 l 0.3943,-0.03 a 0.33119454,0.33119454 0 0 1 0.3545,0.3302 v 3.2396 a 0.33119454,0.33119454 0 0 1 -0.3106,0.3297 c -1.1693,0.067 -2.3326,0.1478 -3.484,0.2424 a 0.33119454,0.33119454 0 0 1 -0.3571,-0.3302 v -3.237 a 0.33119454,0.33119454 0 0 1 0.308,-0.3303 l 0.4692,-0.032 v -14.874 l -0.3736,0.024 v 2.2614 a 0.33119454,0.33119454 0 0 1 -0.308,0.3307 l -1.9487,0.1344 a 0.33119454,0.33119454 0 0 1 -0.3519,-0.3302 v -5.8699 a 0.33119454,0.33119454 0 0 1 0.308,-0.3303 z m 14.4286,0.083 a 0.33119454,0.33119454 0 0 1 0.046,0 h 5e-4 l 5.6162,0.463 a 0.33119454,0.33119454 0 0 1 0.2609,0.1659 l 1.5043,2.6546 a 0.33119454,0.33119454 0 0 1 0.042,0.1638 v 8.0636 a 0.33119454,0.33119454 0 0 1 -0.05,0.1757 l -1.5033,2.3983 a 0.33119454,0.33119454 0 0 1 -0.308,0.154 l -2.5301,-0.2051 v 5.0534 l 0.4563,0.037 a 0.33119454,0.33119454 0 0 1 0.3034,0.3297 v 3.2422 a 0.33119454,0.33119454 0 0 1 -0.3571,0.3297 c -1.1521,-0.094 -2.3127,-0.1756 -3.4814,-0.2419 a 0.33119454,0.33119454 0 0 1 -0.3101,-0.3307 v -3.283 a 0.33119454,0.33119454 0 0 1 0.3566,-0.3302 l 0.4067,0.031 v -14.8766 l -0.4605,-0.038 a 0.33119454,0.33119454 0 0 1 -0.3028,-0.3308 v -3.2954 a 0.33119454,0.33119454 0 0 1 0.3111,-0.3307 z m -5.4891,0.1395 -3.4907,0.027 v 3.2851 l 0.7627,-0.01 v 6.1263 l -2.3611,0.02 v -6.1278 l 0.7628,-0.01 v -3.2851 l -3.4908,0.026 v 3.2861 l 0.7261,-0.01 v 15.5546 l -0.7261,0.01 v 3.2861 a 49.920257,16.596864 0 0 1 3.4908,-0.08 v -3.2365 l -0.7628,0.01 v -6.1391 l 2.3611,-0.021 v 6.1386 l -0.7627,0.01 v 3.236 a 49.920257,16.596864 0 0 1 0.8165,-0.01 49.920257,16.596864 0 0 1 2.6742,0.024 v -3.2841 l -0.7555,0.01 v -15.5484 l 0.7555,-0.01 z m -8.9173,0.108 -7.8755,0.5468 v 5.8714 l 1.9503,-0.1359 v -2.5673 l 1.0341,-0.072 v 15.5365 l -0.7773,0.055 v 3.238 a 49.920257,16.596864 0 0 1 3.4908,-0.2434 v -3.239 l -0.7478,0.052 v -15.535 l 0.9752,-0.068 v 2.5667 l 1.9502,-0.1359 z m 14.4255,0.084 v 3.296 l 0.7628,0.062 v 15.5437 l -0.7628,-0.061 v 3.2836 a 49.920257,16.596864 0 0 1 3.4908,0.2403 v -3.2417 l -0.7628,-0.061 v -5.718 l 2.8887,0.2352 1.5033,-2.3984 v -8.0635 l -1.5033,-2.6557 z m -5.8389,0.1411 v 2.6231 h -0.4284 c -0.181,0 -0.3264,0.149 -0.3271,0.3302 v 15.5489 c 0,0.183 0.1492,0.3311 0.3323,0.3303 l 0.4232,-0.01 v 2.619 c -0.7812,-0.013 -1.563,-0.022 -2.3477,-0.022 -0.1606,0 -0.3222,0.01 -0.4837,0.01 v -2.5745 l 0.4352,-0.01 c 0.181,0 0.3269,-0.1496 0.3276,-0.3307 v -6.1386 c 0,-0.1829 -0.1498,-0.3303 -0.3328,-0.3297 l -2.359,0.02 c -0.181,0 -0.3266,0.1487 -0.3272,0.3297 v 6.1397 c 0,0.1829 0.1492,0.3303 0.3323,0.3297 h 0.43 v 2.5817 c -0.9454,0.013 -1.8892,0.036 -2.8309,0.066 v -2.621 l 0.3985,-0.01 c 0.1811,0 0.327,-0.1491 0.3276,-0.3302 v -15.5541 c 0,-0.183 -0.1492,-0.3305 -0.3323,-0.3297 h -0.3938 v -2.6256 l 2.8309,-0.022 v 2.6267 l -0.4351,0.01 c -0.181,0 -0.3266,0.1496 -0.3272,0.3307 v 6.1262 c 0,0.183 0.1492,0.3305 0.3323,0.3297 l 2.3591,-0.02 c 0.181,0 0.3269,-0.1491 0.3276,-0.3302 v -6.1273 c 0,-0.1829 -0.1498,-0.3305 -0.3328,-0.3297 h -0.43 v -2.6231 z m -8.9163,0.1297 v 5.2075 l -1.2914,0.088 v -2.2128 c 0,-0.1909 -0.1614,-0.3421 -0.3519,-0.3302 l -0.9756,0.069 c -0.1733,0.013 -0.3074,0.1558 -0.3075,0.3297 v 15.537 c 0,0.192 0.163,0.3432 0.3545,0.3297 l 0.3933,-0.03 v 2.5766 c -0.9494,0.056 -1.8925,0.1212 -2.8309,0.1959 v -2.5746 l 0.4692,-0.032 c 0.1734,-0.013 0.3085,-0.1558 0.3086,-0.3297 v -15.537 c 0,-0.1909 -0.1625,-0.3428 -0.353,-0.3308 l -1.0335,0.071 c -0.1733,0.013 -0.3082,0.1559 -0.3085,0.3297 v 2.2613 l -1.2878,0.088 v -5.2075 z m 15.0859,0.088 5.0829,0.418 1.3757,2.4299 v 7.8749 l -1.3462,2.1493 -2.6872,-0.2176 c -0.1924,-0.015 -0.3576,0.1372 -0.3576,0.3302 v 5.7185 c 0,0.1721 0.1324,0.3157 0.3039,0.3302 l 0.4573,0.037 v 2.5818 c -0.9375,-0.074 -1.8798,-0.14 -2.8288,-0.1959 v -2.6164 l 0.4052,0.032 c 0.1925,0.015 0.357,-0.1366 0.3571,-0.3297 v -15.5417 c 0,-0.1721 -0.132,-0.3157 -0.3034,-0.3302 l -0.4589,-0.038 z m -25.2739,0.1121 a 0.33119454,0.33119454 0 0 1 0.2812,0.1519 l 1.511,2.3694 a 0.33119454,0.33119454 0 0 1 0.052,0.1783 v 7.6378 a 0.33119454,0.33119454 0 0 1 -0.042,0.1607 l -0.4424,0.7901 0.4274,0.633 a 0.33119454,0.33119454 0 0 1 0.057,0.1856 v 6.489 l 0.3881,-0.051 a 0.33119454,0.33119454 0 0 1 0.3746,0.3276 v 3.2789 a 0.33119454,0.33119454 0 0 1 -0.2961,0.3302 c -1.1748,0.1196 -2.3389,0.2528 -3.484,0.401 a 0.33119454,0.33119454 0 0 1 -0.3711,-0.3281 v -3.222 a 0.33119454,0.33119454 0 0 1 0.2858,-0.3282 l 0.4765,-0.063 v -5.0436 l -1.757,0.2351 v 5.041 l 0.386,-0.052 a 0.33119454,0.33119454 0 0 1 0.3736,0.3276 v 3.2226 a 0.33119454,0.33119454 0 0 1 -0.2858,0.3271 c -1.1793,0.1572 -2.339,0.3316 -3.4788,0.5183 a 0.33119454,0.33119454 0 0 1 -0.3845,-0.3271 v -3.2783 a 0.33119454,0.33119454 0 0 1 0.2863,-0.3282 l 0.4403,-0.059 v -14.8523 l -0.3519,0.046 a 0.33119454,0.33119454 0 0 1 -0.3747,-0.3271 v -3.3151 a 0.33119454,0.33119454 0 0 1 0.2863,-0.3276 l 5.6002,-0.7452 a 0.33119454,0.33119454 0 0 1 0.042,0 z m 34.6728,0.1168 a 0.33119454,0.33119454 0 0 1 0.041,0 h 5e-4 l 3.7176,0.5385 a 0.33119454,0.33119454 0 0 1 0.2444,0.1679 l 1.5012,2.7508 a 0.33119454,0.33119454 0 0 1 0.039,0.1591 v 17.062 a 0.33119454,0.33119454 0 0 1 -0.053,0.1814 l -1.4837,2.2738 a 0.33119454,0.33119454 0 0 1 -0.3281,0.1467 c -1.2246,-0.1958 -2.4734,-0.3766 -3.7424,-0.5384 a 0.33119454,0.33119454 0 0 1 -0.2501,-0.1685 l -1.4862,-2.7042 a 0.33119454,0.33119454 0 0 1 -0.039,-0.1582 v -17.0702 a 0.33119454,0.33119454 0 0 1 0.052,-0.1814 l 1.5032,-2.3125 a 0.33119454,0.33119454 0 0 1 0.2837,-0.1499 z m -34.6697,0.2145 -5.6017,0.7441 v 3.315 l 0.7255,-0.096 v 15.5205 l -0.7255,0.096 v 3.2783 a 49.920257,16.596864 0 0 1 3.4897,-0.5173 v -3.2215 l -0.7617,0.1003 v -5.7098 l 2.419,-0.3204 v 5.7113 l -0.7617,0.1003 v 3.222 a 49.920257,16.596864 0 0 1 3.4897,-0.4031 v -3.2794 l -0.7628,0.1008 v -6.8657 l -0.5426,-0.8005 0.5426,-0.9684 v -7.6393 z m 34.6635,0.1152 -1.5032,2.3141 v 17.0692 l 1.4862,2.7053 a 49.920257,16.596864 0 0 1 3.7527,0.5379 l 1.4857,-2.2753 v -17.0625 l -1.5032,-2.7482 z m -34.8304,0.2382 1.3477,2.1126 v 7.4517 l -0.5012,0.895 c -0.061,0.1092 -0.055,0.2436 0.015,0.3473 l 0.4862,0.7188 v 6.7619 c 0,0.1998 0.1767,0.354 0.3747,0.3281 l 0.3886,-0.052 v 2.6061 c -0.9537,0.1 -1.8971,0.2099 -2.8314,0.3281 v -2.56 l 0.477,-0.064 c 0.1637,-0.022 0.2855,-0.1618 0.2858,-0.3271 v -5.7113 c 0,-0.1996 -0.1761,-0.3535 -0.3741,-0.3276 l -2.4175,0.3209 c -0.1638,0.022 -0.2861,0.1619 -0.2863,0.3271 v 5.7087 c 0,0.1996 0.1762,0.3534 0.3742,0.3276 l 0.386,-0.052 v 2.5595 c -0.9564,0.1299 -1.8984,0.2719 -2.8288,0.4212 v -2.6045 l 0.4398,-0.058 c 0.1638,-0.022 0.2866,-0.163 0.2868,-0.3282 v -15.522 c 0,-0.1996 -0.1767,-0.3534 -0.3746,-0.3276 l -0.352,0.047 v -2.6474 z m 34.9948,0.1204 3.3424,0.4837 1.3834,2.5353 v 16.8765 l -1.3157,2.0148 c -1.1086,-0.1751 -2.2346,-0.3367 -3.3786,-0.4842 l -1.3689,-2.4887 v -16.8791 z m 6.1366,0.2594 a 0.33119454,0.33119454 0 0 1 0.09,0.01 v -6e-4 l 3.4917,0.7752 a 0.33119454,0.33119454 0 0 1 0.2589,0.323 v 3.2804 a 0.33119454,0.33119454 0 0 1 -0.401,0.323 l -0.3617,-0.08 v 14.8642 l 1.3203,0.294 v -2.157 a 0.33119454,0.33119454 0 0 1 0.401,-0.3224 l 1.9513,0.4325 a 0.33119454,0.33119454 0 0 1 0.2584,0.323 v 5.8606 a 0.33119454,0.33119454 0 0 1 -0.4123,0.3199 c -2.089,-0.5471 -4.3114,-1.0396 -6.6384,-1.4692 a 0.33119454,0.33119454 0 0 1 -0.2687,-0.325 v -3.2815 a 0.33119454,0.33119454 0 0 1 0.4005,-0.3219 l 0.3255,0.073 v -14.8818 l -0.4671,-0.1029 a 0.33119454,0.33119454 0 0 1 -0.2589,-0.3229 v -3.281 a 0.33119454,0.33119454 0 0 1 0.3106,-0.3292 z m -49.1521,0.1933 a 0.33119454,0.33119454 0 0 1 0.2553,0.1437 l 1.5038,2.2097 a 0.33119454,0.33119454 0 0 1 0.056,0.1855 v 17.0677 a 0.33119454,0.33119454 0 0 1 -0.036,0.154 l -1.482,2.7967 a 0.33119454,0.33119454 0 0 1 -0.2321,0.1716 c -1.2846,0.2451 -2.5349,0.5095 -3.7481,0.7916 a 0.33119454,0.33119454 0 0 1 -0.3493,-0.1364 l -1.481,-2.1663 a 0.33119454,0.33119454 0 0 1 -0.057,-0.1855 v -17.0579 a 0.33119454,0.33119454 0 0 1 0.036,-0.1539 l 1.5032,-2.851 a 0.33119454,0.33119454 0 0 1 0.2253,-0.1685 l 3.7197,-0.7943 a 0.33119454,0.33119454 0 0 1 0.086,-0.01 z m 49.1722,0.137 v 3.2809 l 0.7255,0.1612 v 15.5557 l -0.7255,-0.1608 v 3.281 a 49.920257,16.596864 0 0 1 6.658,1.4728 v -5.8591 l -1.9503,-0.4325 v 2.5672 l -1.9797,-0.4377 v -15.5422 l 0.7622,0.169 v -3.2804 z m -49.1898,0.1927 -3.717,0.7932 -1.5033,2.851 v 17.0589 l 1.4805,2.1658 a 49.920257,16.596864 0 0 1 3.7616,-0.7938 l 1.482,-2.7972 v -17.0672 z m 49.519,0.217 2.8313,0.6284 v 2.6066 l -0.3622,-0.081 c -0.2059,-0.045 -0.3997,0.1124 -0.4005,0.3229 v 15.5417 c 0,0.1549 0.1074,0.2888 0.2589,0.3225 l 1.9808,0.4382 c 0.2059,0.045 0.3998,-0.1125 0.4004,-0.323 v -2.1564 l 1.2909,0.2863 v 5.1852 c -1.9053,-0.4891 -3.9045,-0.9373 -5.9996,-1.3302 v -2.6034 l 0.3255,0.073 c 0.2057,0.045 0.4005,-0.1129 0.4011,-0.3235 v -15.5561 c 0,-0.1549 -0.1081,-0.2893 -0.2595,-0.323 l -0.4671,-0.1018 z m -49.6673,0.152 1.3224,1.943 v 16.8796 l -1.3715,2.5916 c -1.1599,0.2232 -2.2935,0.4625 -3.3961,0.7162 l -1.2976,-1.8996 v -16.8688 l 1.3958,-2.6458 z m -6.196,0.71 a 0.33119454,0.33119454 0 0 1 0.1251,0.016 v 0 a 0.33119454,0.33119454 0 0 1 0.2299,0.3153 v 3.2835 a 0.33119454,0.33119454 0 0 1 -0.2222,0.3132 l -0.541,0.1829 v 14.8404 l 0.3255,-0.11 a 0.33119454,0.33119454 0 0 1 0.4377,0.3126 v 3.2835 a 0.33119454,0.33119454 0 0 1 -0.2449,0.3204 c -0.8737,0.2343 -1.7215,0.4755 -2.5445,0.7286 a 0.33119454,0.33119454 0 0 1 -0.4155,-0.2247 l -2.3916,-8.3148 v 5.6452 l 0.3256,-0.1101 a 0.33119454,0.33119454 0 0 1 0.4371,0.3131 v 3.1192 a 0.33119454,0.33119454 0 0 1 -0.2227,0.3127 c -1.2274,0.4242 -2.3862,0.8706 -3.469,1.3353 a 0.33119454,0.33119454 0 0 1 -0.4594,-0.3033 v -3.2784 a 0.33119454,0.33119454 0 0 1 0.2227,-0.3132 l 0.54,-0.1834 v -14.8255 l -0.325,0.1096 a 0.33119454,0.33119454 0 0 1 -0.4377,-0.3121 v -3.2789 a 0.33119454,0.33119454 0 0 1 0.2227,-0.3132 l 2.604,-0.9017 a 0.33119454,0.33119454 0 0 1 0.4273,0.2253 l 2.3131,8.4827 v -5.6524 l -0.2961,0.1003 a 0.33119454,0.33119454 0 0 1 -0.4372,-0.3127 v -3.2814 a 0.33119454,0.33119454 0 0 1 0.2222,-0.3122 l 3.4912,-1.1932 a 0.33119454,0.33119454 0 0 1 0.083,-0.016 z m 42.2099,0.051 c -0.1767,0.01 -0.3215,0.1498 -0.3215,0.3307 v 6.5397 c 0,0.1722 0.1319,0.3162 0.3034,0.3307 l 2.4251,0.1979 c 0.1923,0.015 0.3569,-0.1371 0.3571,-0.3302 v -6.5402 c 0,-0.1722 -0.1319,-0.3151 -0.3033,-0.3297 l -2.4252,-0.1979 c -0.012,-9e-4 -0.024,0 -0.036,-10e-4 z m 21.0674,0.1199 a 0.33119454,0.33119454 0 0 1 0.1235,0.022 l 3.4913,1.22 a 0.33119454,0.33119454 0 0 1 0.2201,0.3122 v 0.1839 a 0.33119454,0.33119454 0 0 1 0.4253,-0.2842 l 3.4913,1.2201 a 0.33119454,0.33119454 0 0 1 0.2201,0.3132 v 3.2809 a 0.33119454,0.33119454 0 0 1 -0.4403,0.3132 l -0.5989,-0.2078 -2.188,6.5521 2.2536,8.3121 0.7509,0.2594 a 0.33119454,0.33119454 0 0 1 0.2227,0.3132 v 3.2809 a 0.33119454,0.33119454 0 0 1 -0.4625,0.3034 c -1.0814,-0.4679 -2.2401,-0.9149 -3.469,-1.3426 a 0.33119454,0.33119454 0 0 1 -0.2197,-0.3131 v -0.1856 a 0.33119454,0.33119454 0 0 1 -0.4206,0.2837 c -1.1056,-0.3739 -2.2653,-0.731 -3.4742,-1.0686 a 0.33119454,0.33119454 0 0 1 -0.2424,-0.3178 v -3.2861 a 0.33119454,0.33119454 0 0 1 0.4403,-0.3127 l 0.3225,0.1122 v -14.857 l -0.54,-0.186 a 0.33119454,0.33119454 0 0 1 -0.2228,-0.3132 v -3.2737 a 0.33119454,0.33119454 0 0 1 0.2336,-0.3163 v -0.01 a 0.33119454,0.33119454 0 0 1 0.083,-0.012 z m -63.253,0.1565 -3.4907,1.1932 v 3.2815 l 0.7327,-0.2501 v 8.5902 l -2.9626,-10.8712 -2.6029,0.9023 v 3.2793 l 0.7627,-0.2604 v 15.5251 l -0.7627,0.2589 v 3.2789 a 49.920257,16.596864 0 0 1 3.4907,-1.3431 v -3.1207 l -0.7627,0.2589 v -8.4527 l 3.0381,10.5714 a 49.920257,16.596864 0 0 1 2.5574,-0.7348 v -3.283 l -0.7627,0.2589 v -15.5391 l 0.7627,-0.2605 z m 29.9496,0.01 a 0.66238908,0.66238908 0 0 0 0.5209,0.3085 h 0.095 v 4.8017 l -1.0346,0.01 v -4.8044 h 0.108 a 0.66238908,0.66238908 0 0 0 0.3106,-0.3147 z m 12.2437,0.046 2.4273,0.1989 v 6.5402 l -2.4273,-0.1979 z m 21.0742,0.1193 v 3.2717 l 0.7627,0.2656 v 15.5572 l -0.7627,-0.2646 v 3.284 a 49.920257,16.596864 0 0 1 3.4907,1.0733 v -3.1465 l -0.726,-0.2517 v -5.9511 l 1.7311,6.5516 -0.3596,-0.1246 v 3.1378 a 49.920257,16.596864 0 0 1 3.4902,1.3534 v -3.2809 l -0.9162,-0.3178 -2.3244,-8.5747 2.3244,-6.9701 0.9162,0.3204 v -3.2809 l -3.4902,-1.2196 v 3.282 l 0.3669,0.1276 -1.7384,5.3568 v -5.963 l 0.726,0.2538 v -3.2706 z m -49.1681,0.2238 v 0 h -0.073 l -2.418,0.3204 c -0.1638,0.022 -0.2856,0.1629 -0.2858,0.3282 v 6.52 c 0,0.1997 0.1758,0.3534 0.3737,0.3276 l 2.4184,-0.3204 c 0.1636,-0.022 0.286,-0.1627 0.2863,-0.3281 v -6.5195 c 0,-0.1747 -0.1353,-0.3144 -0.3018,-0.3292 z m 28.4252,0.017 v 5.8751 l 1.7657,0.1442 v -5.8746 z m -42.8538,0.048 v 2.5843 l -0.5405,0.1835 c -0.1332,0.046 -0.2222,0.1722 -0.2222,0.3131 v 15.5391 c 0,0.2265 0.2229,0.386 0.4372,0.3132 l 0.3255,-0.1101 v 2.572 c -0.6818,0.1851 -1.3482,0.3776 -2.0004,0.5746 l -2.9486,-10.251 c -0.1101,-0.3606 -0.64,-0.2865 -0.647,0.091 v 8.4512 c 0,0.2266 0.2226,0.3859 0.4372,0.3131 l 0.325,-0.11 v 2.4303 c -0.9939,0.3482 -1.9302,0.7165 -2.8313,1.0924 v -2.5621 l 0.541,-0.1829 c 0.1332,-0.046 0.2219,-0.1721 0.2217,-0.3132 v -15.5246 c 0,-0.2266 -0.2228,-0.386 -0.4372,-0.3132 l -0.3255,0.1101 v -2.5817 l 2.0469,-0.709 2.8701,10.5301 c 0.1026,0.371 0.6493,0.2972 0.6501,-0.088 v -8.5891 c 0,-0.2265 -0.2227,-0.386 -0.4372,-0.3132 l -0.2966,0.1003 v -2.5813 z m 49.9805,0.018 c -0.01,-3e-4 -0.018,9e-4 -0.026,0 h -5e-4 c -0.1672,0.014 -0.3026,0.154 -0.3028,0.3297 v 15.5324 c 2e-4,0.1644 0.1196,0.3041 0.2831,0.3277 l 2.8019,0.403 c 0.199,0.027 0.3766,-0.1264 0.3768,-0.3271 v -15.5303 c 0,-0.1644 -0.121,-0.3034 -0.2843,-0.3271 l -2.8013,-0.4062 c -0.016,0 -0.031,0 -0.046,0 z m 13.9454,0.1591 2.8308,0.9896 v 2.5673 l -0.2858,-0.1002 c -0.2154,-0.075 -0.4398,0.085 -0.4397,0.3131 v 5.963 c 0,0.3751 0.5272,0.4579 0.6454,0.1018 l 1.7384,-5.3558 c 0.057,-0.1721 -0.037,-0.3575 -0.2088,-0.416 l -0.1436,-0.05 v -2.5817 l 2.8308,0.9901 v 2.5766 l -0.477,-0.1664 c -0.1741,-0.061 -0.3643,0.033 -0.4227,0.2087 l -2.3275,6.9696 c -0.02,0.062 -0.022,0.1287 0,0.1913 l 2.3254,8.5741 c 0.029,0.1066 0.1085,0.1912 0.2124,0.2269 l 0.6946,0.2397 v 2.5642 c -0.9009,-0.3784 -1.8372,-0.7471 -2.8314,-1.0976 v -2.4763 c 0.2191,0.016 0.3936,-0.181 0.3499,-0.3964 l -1.7307,-6.5494 c -0.1026,-0.3702 -0.6479,-0.2991 -0.6511,0.085 v 5.9511 c 0,0.1412 0.089,0.2668 0.2227,0.3131 l 0.5039,0.1737 v 2.4644 c -0.9126,-0.3014 -1.8528,-0.5938 -2.8314,-0.8707 v -2.5746 l 0.323,0.1127 c 0.2154,0.075 0.4397,-0.085 0.4397,-0.3127 v -15.5587 c 0,-0.141 -0.089,-0.267 -0.2227,-0.3132 l -0.54,-0.1855 z m -49.5257,0.087 v 6.5211 l -2.419,0.3204 v -6.5205 z m 28.7864,0.047 1.0991,0.09 v 5.2095 l -1.0991,-0.09 z m 6.7933,0.039 2.8014,0.4062 v 15.5288 l -2.8014,-0.4031 z m -35.9104,0.2905 -1.757,0.2346 v 5.8528 l 1.757,-0.234 z m 36.2406,0.091 v 14.8653 l 2.142,0.3079 v -14.8626 z m -36.5729,0.2915 v 5.1805 l -1.0925,0.1442 v -5.1806 z m 36.9057,0.093 1.4764,0.2124 v 14.1924 l -1.4764,-0.2129 z m -44.4407,0.076 c -0.025,0 -0.051,-2e-4 -0.076,0.01 l -2.8014,0.5974 c -0.1521,0.032 -0.2607,0.1662 -0.261,0.3219 v 15.5246 c 0,0.2103 0.1925,0.3684 0.3985,0.3256 l 2.8013,-0.5917 c 0.1531,-0.033 0.2627,-0.1684 0.262,-0.325 v -15.5299 c 0,-0.1832 -0.1487,-0.3249 -0.3229,-0.3291 z m 2.6138,0.2366 a 0.66238908,0.66238908 0 0 0 0.5013,0.1561 v 14.1924 l -0.1493,0.02 a 0.66238908,0.66238908 0 0 0 -0.352,0.401 z m 46.5843,0.07 a 0.66238908,0.66238908 0 0 0 0.294,0.3638 l 0.2072,0.047 v 14.239 a 0.66238908,0.66238908 0 0 0 -0.5012,0.1565 z m -49.2053,0.021 v 15.5293 l -2.8014,0.5937 v -15.5256 z m -0.3302,0.4087 -2.142,0.4548 v 14.8503 l 2.142,-0.4522 z m -0.3323,0.4109 v 14.1727 l -1.4769,0.3132 v -14.1728 z m -4.7676,0.7994 v 14.7598 a 0.66238908,0.66238908 0 0 0 -0.5354,-0.1664 v -14.1774 l 0.3131,-0.1054 a 0.66238908,0.66238908 0 0 0 0.2223,-0.3106 z m 66.6377,1.0909 a 0.33119454,0.33119454 0 0 1 -0.4253,0.2832 l -0.2857,-0.1003 v 3.4034 l 0.9922,-3.0587 -0.059,-0.02 a 0.33119454,0.33119454 0 0 1 -0.2228,-0.3132 z m -0.094,0.5323 v 5e-4 a 0.66238908,0.66238908 0 0 0 0.017,0.022 l -0.3023,0.9338 v -0.9142 a 0.66238908,0.66238908 0 0 0 0.2847,-0.042 z m -36.4128,4.5015 v 4.8168 h -0.1075 a 0.66238908,0.66238908 0 0 0 -0.293,0.2981 0.66238908,0.66238908 0 0 0 -0.5384,-0.2914 h -0.095 v -4.8137 z m -17.1581,1.557 v 4.3713 l -0.186,0.025 a 0.66238908,0.66238908 0 0 0 -0.3153,0.3592 0.66238908,0.66238908 0 0 0 -0.5798,-0.2424 h -0.012 v -4.3713 z m 52.9534,5.2767 v 3.1683 l 0.5038,0.1731 a 0.33119454,0.33119454 0 0 1 0.2227,0.3131 v 0.1933 a 0.33119454,0.33119454 0 0 1 0.2243,-0.2542 z" /></g></svg>
