<?xml version="1.0" encoding="UTF-8" standalone="no"?>
<svg
   width="380.24268"
   height="268.85547"
   viewBox="0 0 100.60587 71.134678"
   version="1.1"
   id="svg16"
   xml:space="preserve"
   xmlns="http://www.w3.org/2000/svg"
   xmlns:svg="http://www.w3.org/2000/svg"
   xmlns:rdf="http://www.w3.org/1999/02/22-rdf-syntax-ns#"
   xmlns:cc="http://creativecommons.org/ns#"
   xmlns:dc="http://purl.org/dc/elements/1.1/"><defs
     id="defs10" /><metadata
     id="metadata13"><rdf:RDF><cc:Work
         rdf:about=""><dc:format>image/svg+xml</dc:format><dc:type
           rdf:resource="http://purl.org/dc/dcmitype/StillImage" /></cc:Work></rdf:RDF></metadata><g
     id="layer1"
     transform="translate(1869.0656,-7388.8167)"><path
       id="path2777"
       style="font-size:55.8285px;line-height:1.25;font-family:'Cooper Black';-inkscape-font-specification:'Cooper Black, Normal';fill:#000000;stroke:none;stroke-width:0.672166"
       d="m -1790.2326,7388.8167 c -0.4804,0 -1.0461,0.087 -1.5945,0.3768 l -0.073,0.038 -6.0887,3.8282 -0.01,0.01 c -0.1752,0.1115 -0.2386,0.2708 -0.3752,0.3995 -1.4721,-0.9909 -3.1368,-1.4842 -5.004,-1.4842 -1.3183,0 -2.5789,0.2394 -3.7622,0.7382 -1.3636,0.5715 -2.4892,1.4565 -3.4372,2.556 -0.3022,-0.6359 -0.7026,-1.2281 -1.2819,-1.7274 -1.2085,-1.0451 -2.638,-1.4748 -4.2262,-1.4748 -1.5863,0 -3.0189,0.4783 -4.2819,1.3553 -1.0301,-0.9126 -2.3605,-1.3553 -3.8582,-1.3553 -1.0862,0 -2.1109,0.2296 -3.1077,0.677 h 0.01 l -0.017,0.01 h 0.01 c -0.2018,0.089 -0.3724,0.2159 -0.5624,0.3189 -0.4842,-0.5796 -1.1826,-0.9975 -2.1665,-0.998 h -0.011 -0.01 c -1.3651,0.011 -3.4433,0.5233 -5.7115,1.3391 h -0.012 l -0.011,0.01 c -0.6975,0.2591 -1.418,0.6761 -1.9611,1.2711 -0.3842,-0.387 -0.7765,-0.7676 -1.237,-1.0839 -1.6348,-1.1254 -3.4432,-1.6403 -5.4789,-1.6403 -2.8021,0 -5.2576,0.8444 -7.3144,2.6083 -0.183,0.1561 -0.3124,0.3345 -0.4789,0.4975 -0.4412,-0.5853 -0.979,-1.114 -1.652,-1.5575 h -0.01 -0.01 c -1.5857,-1.0377 -3.3893,-1.5332 -5.3428,-1.5332 -2.5666,0 -4.8229,0.7749 -6.7143,2.4007 -2.0458,1.7506 -3.0513,3.9138 -3.0514,6.6029 0,1.3644 0.2697,2.5925 0.7917,3.7022 0.1348,0.2867 0.5191,0.5097 0.8359,0.5097 h 1.581 c 0.3168,0 0.4019,-0.1919 0.2148,-0.4474 -0.7912,-1.0792 -1.1925,-2.3319 -1.1925,-3.7641 0,-1.978 0.7573,-3.6147 2.2714,-4.91 1.4442,-1.2428 3.1991,-1.8643 5.2647,-1.8643 1.5578,0 2.932,0.3893 4.1223,1.1682 1.129,0.7439 1.6933,1.6674 1.6933,2.7702 0,0.7614 -0.2626,1.3787 -0.7877,1.8513 -0.4902,0.4464 -1.0809,0.6694 -1.7723,0.6694 -0.7264,0 -1.2734,-0.2625 -1.641,-0.7877 -0.1137,-0.1662 -0.28,-0.5909 -0.4988,-1.2735 -0.2363,-0.7352 -0.6873,-1.103 -1.3525,-1.103 -0.4813,0 -0.8882,0.2104 -1.2208,0.6305 -0.3238,0.4201 -0.4858,0.9364 -0.4858,1.549 0,1.0503 0.3766,1.9823 1.1292,2.7962 0.6127,0.6565 1.3827,0.9847 2.3104,0.9847 0.4376,0 0.8053,-0.035 1.1029,-0.105 0.2976,-0.079 0.6868,-0.2319 1.1681,-0.4595 0.1226,-0.061 0.2584,-0.092 0.4073,-0.092 0.2975,0 0.5601,0.1398 0.7877,0.4198 0.2275,0.2801 0.3411,0.6082 0.3411,0.9846 0,0.1516 -0.03,0.3077 -0.086,0.4668 -0.1036,0.2988 0.01,0.5154 0.3246,0.5154 h 1.7816 c 0.3167,0 0.4094,-0.198 0.2362,-0.4631 -0.6259,-0.9583 -0.9437,-2.0882 -0.9437,-3.3942 0,-2.0655 0.7704,-3.7545 2.3108,-5.0673 1.6104,-1.3829 3.5664,-2.0741 5.8683,-2.0741 1.6016,0 3.0065,0.4153 4.2143,1.2467 0.8664,0.5952 1.562,1.3697 2.0871,2.3237 0.5426,0.9978 0.8144,2.0396 0.8144,3.1248 0,1.47 -0.5235,2.7688 -1.5672,3.8979 -0.215,0.2326 -0.1487,0.4056 0.1681,0.4056 h 2.2196 c 0.3168,0 0.5759,-0.011 0.5843,-0.011 0.5367,-0.7341 0.6436,-1.081 0.6827,-1.4834 0.096,-1.0852 0.1443,-2.2099 0.1443,-3.3739 0,-0.8315 -0.044,-1.4092 -0.1313,-1.733 -0.079,-0.3326 -0.2538,-0.5994 -0.5251,-0.8006 -0.2626,-0.2014 -0.4335,-0.3548 -0.5122,-0.4599 -0.07,-0.105 -0.1049,-0.2493 -0.1049,-0.4331 0,-0.5864 0.4595,-1.0501 1.3784,-1.3915 2.214,-0.7963 3.8725,-1.1989 4.9753,-1.2078 h 4e-4 4e-4 c 0.4986,3e-4 0.7475,0.3549 0.7475,1.0636 v 0.2228 c -0.01,0.1401 -0.013,0.2541 -0.013,0.3416 0,0.4727 0.1401,0.7091 0.4202,0.7091 0.1488,0 0.3811,-0.1885 0.6961,-0.5649 0.4727,-0.5426 1.0675,-0.9713 1.7852,-1.2864 0.7177,-0.3238 1.4528,-0.4858 2.2055,-0.4858 1.4617,0 2.4768,0.5335 3.0457,1.6013 0.2188,0.3939 0.398,0.5911 0.5381,0.5911 0.096,0 0.3239,-0.175 0.6827,-0.5251 1.1379,-1.1115 2.429,-1.6673 3.8732,-1.6673 1.129,0 2.0521,0.3105 2.7698,0.9319 0.7527,0.6477 1.1289,1.6192 1.1289,2.9145 0,0.28 -0.01,0.753 -0.025,1.4181 -0.018,0.2276 -0.027,0.9147 -0.027,2.0612 0,0.7352 -0.01,1.2515 -0.013,1.549 -0.01,0.1838 -0.013,0.3152 -0.013,0.3939 0,0.3585 0.071,0.6883 0.2151,0.9894 0.1358,0.2853 0.3595,0.5522 0.4255,0.6362 h 1.9595 c 0.3168,0 0.4115,-0.1998 0.2362,-0.4635 -0.1268,-0.1905 -0.2454,-0.3899 -0.3554,-0.5977 -0.5164,-0.989 -0.7743,-2.0303 -0.7743,-3.1244 0,-1.4703 0.446,-2.7919 1.3388,-3.9647 0.7702,-1.0153 1.7505,-1.7725 2.9408,-2.2714 0.8927,-0.3764 1.8599,-0.5645 2.9015,-0.5645 1.6629,0 3.0762,0.4729 4.2402,1.4182 0.5864,0.4725 1.059,1.0326 1.4178,1.6803 0.4113,0.7351 0.6171,1.4525 0.6171,2.1527 0,0.5689 -0.1182,1.0372 -0.3545,1.4048 -0.2363,0.3588 -0.5427,0.5381 -0.919,0.5381 h -6.1701 c -0.2713,0 -0.4069,0.1186 -0.4069,0.3549 0,0.5689 0.3063,1.1069 0.919,1.6146 0.6214,0.4989 1.2862,0.7484 1.9951,0.7484 0.4202,0 0.8843,-0.079 1.3919,-0.2366 0.5164,-0.1663 0.9409,-0.3674 1.2735,-0.6037 0.2975,-0.2101 0.5336,-0.3149 0.7086,-0.3149 0.2276,0 0.451,0.1398 0.6698,0.4198 0.2188,0.2801 0.3282,0.5691 0.3282,0.8667 0,0.1432 -0.021,0.2852 -0.062,0.4263 -0.089,0.3029 0.012,0.5166 0.3286,0.5166 h 2.4963 c 0.3168,0 0.4648,-0.2343 0.3756,-0.5381 -0.1206,-0.4109 -0.1843,-0.8553 -0.1843,-1.3371 v -6.0652 c 0,-0.2013 -0.027,-0.3238 -0.079,-0.3675 -0.044,-0.053 -0.1662,-0.079 -0.3675,-0.079 h -1.352 c -0.2538,0 -0.4158,-0.039 -0.4858,-0.1178 -0.07,-0.088 -0.1049,-0.2845 -0.1049,-0.5908 v -0.5778 c 0.01,-0.2625 0.1092,-0.4549 0.3017,-0.5774 l 6.0126,-3.7812 c 0.1488,-0.079 0.3326,-0.1183 0.5515,-0.1183 h 1.0636 c 0.2188,0 0.3627,0.053 0.4327,0.1576 0.079,0.096 0.1183,0.2933 0.1183,0.5908 v 1.7723 c 0,0.2626 0.039,0.4334 0.1183,0.5121 0.088,0.079 0.2669,0.1184 0.5381,0.1184 h 2.4291 c 0.3239,0 0.5338,0.061 0.6301,0.1835 0.096,0.1138 0.1442,0.3632 0.1442,0.7483 v 0.7744 c 0,0.4201 -0.061,0.7137 -0.1839,0.8801 -0.1226,0.1575 -0.3456,0.2361 -0.6694,0.2361 h -2.3764 c -0.2451,0 -0.4113,0.044 -0.4988,0.1314 -0.088,0.087 -0.1313,0.2537 -0.1313,0.4987 v 4.4372 c 0,0.5251 0.1271,0.9542 0.3809,1.2868 0.2626,0.3326 0.5951,0.4989 0.9976,0.4989 0.3413,0 0.7919,-0.1579 1.3521,-0.4729 0.1312,-0.079 0.263,-0.1179 0.3942,-0.1179 0.2101,0 0.4024,0.1267 0.5774,0.3805 0.06,0.087 0.1101,0.1767 0.1495,0.269 0.1238,0.2892 0.115,0.8248 -0.01,1.1163 -0.034,0.084 0.1892,0.1487 0.506,0.1487 h 0.083 c 0.3168,0 0.4799,-0.24 0.3931,-0.5446 -0.091,-0.3186 -0.1434,-0.6121 -0.1434,-0.8711 0,-0.8052 0.315,-1.2079 0.9453,-1.2079 0.245,0 0.468,0.083 0.6693,0.2496 0.2101,0.1575 0.6435,0.5863 1.2999,1.2865 0.1602,0.1719 0.3078,0.3201 0.4436,0.4449 0.2329,0.214 0.6738,0.5024 0.9851,0.5494 0.1233,0.019 0.5042,0.041 0.7791,-0.109 0.084,-0.046 0.3618,-0.2889 0.3979,-0.5964 0.01,-0.038 0.01,-0.078 0.01,-0.1184 0,-0.3938 -0.3371,-0.7527 -1.0109,-1.0765 -1.4092,-0.6914 -2.429,-1.4047 -3.0592,-2.1398 -0.6214,-0.7353 -0.9319,-1.5842 -0.9319,-2.547 0,-1.0415 0.3193,-1.9385 0.9583,-2.6912 0.9102,-1.0765 2.1531,-1.6147 3.7285,-1.6147 0.4376,0 1.1508,0.096 2.1398,0.2889 0.2012,0.035 0.3678,0.052 0.4992,0.052 0.1487,0 0.4373,-0.079 0.8662,-0.2363 0.2013,-0.079 0.3718,-0.1178 0.5118,-0.1178 0.4026,0 0.8095,0.2578 1.2208,0.7742 0.3326,0.4114 0.604,0.862 0.814,1.3521 0.2101,0.4901 0.3152,0.9146 0.3152,1.2735 0,0.3501 -0.1224,0.6434 -0.3675,0.8797 -0.2451,0.2275 -0.5516,0.3411 -0.9193,0.3411 -0.3063,0 -0.5815,-0.074 -0.8266,-0.2232 -0.2363,-0.1487 -0.6217,-0.4766 -1.1556,-0.9842 -0.5602,-0.5426 -1.0238,-0.814 -1.3914,-0.814 -0.2451,0 -0.4596,0.092 -0.6434,0.2755 -0.1751,0.175 -0.2626,0.3851 -0.2626,0.6301 0,0.4289 0.4115,0.8315 1.2342,1.2079 1.4791,0.6651 2.6126,1.3917 3.4003,2.1794 0.6652,0.6651 0.9976,1.4789 0.9976,2.4416 0,0.4009 -0.058,0.78 -0.1743,1.137 -0.098,0.301 0.035,0.5284 0.3518,0.5284 h 1.2496 c 0.3168,0 0.6466,-0.247 0.7042,-0.5583 0.065,-0.3524 0.1009,-0.7203 0.1009,-1.1066 0,-1.3241 -0.4508,-2.3932 -1.2144,-3.3788 0.021,-0.019 0.048,-0.023 0.069,-0.042 l 0.015,-0.014 0.015,-0.014 c 0.7393,-0.713 1.0506,-1.4837 1.0506,-2.4851 0,-0.7396 -0.2176,-1.5034 -0.4955,-2.1519 -0.2894,-0.6755 -0.6657,-1.2975 -1.1232,-1.8651 -0.6302,-0.7901 -1.6137,-1.6134 -2.9623,-1.6134 -0.4955,0 -0.9492,0.1343 -1.2885,0.2646 -0.1085,0.044 -0.1334,0.066 -0.13,0.077 10e-5,5e-4 8e-4,0 0,0 0,0 0.01,0 0.012,0.01 -0.016,0 -0.035,-0.01 -0.09,-0.014 l 0.044,0.01 c -1.0184,-0.1983 -1.9625,-0.3311 -2.5652,-0.3311 -1.6621,0 -3.09,0.4107 -4.3003,1.3271 -0.069,-0.1139 -0.072,-0.221 -0.1645,-0.3351 0.01,0.01 0.019,0.016 0.029,0.025 l -0.038,-0.047 c 0,0 0,0.01 0,0.011 -0.7485,-0.9088 -1.7784,-0.9948 -2.3404,-0.9948 h -0.8549 v -0.1722 c 0,-0.4294 -0.035,-1.1937 -0.5795,-1.9161 0.024,0.027 0.05,0.045 0.073,0.073 l -0.113,-0.1531 c 0.013,0.02 0.014,0.041 0.027,0.062 -0.6632,-0.8779 -1.6434,-1.0438 -2.1892,-1.0438 z m 14.2398,3.41 -0.03,0.01 c 0.01,0 0.024,0 0.032,-0.01 z m -7.2139,0.7265 v 0.01 z m -20.2986,3.6203 c -0.4901,0 -0.8755,0.1927 -1.1556,0.5778 -0.2625,0.3588 -0.3938,0.722 -0.3938,1.0896 0,0.2625 0.061,0.4464 0.1839,0.5514 0.1313,0.1051 0.3543,0.1576 0.6694,0.1576 h 1.3262 c 0.5601,0 0.84,-0.2583 0.84,-0.7746 0,-0.4727 -0.1355,-0.8581 -0.4069,-1.1557 -0.2713,-0.2976 -0.6257,-0.4461 -1.0632,-0.4461 z m -42.0371,0.6564 c -0.3851,0 -0.6956,0.1443 -0.932,0.4332 -0.2275,0.2801 -0.3411,0.6567 -0.3411,1.1292 0,0.5252 0.096,1.2426 0.2889,2.1528 0.2013,0.9015 0.4374,1.7022 0.7087,2.4023 0.1808,0.4783 0.4374,0.7975 0.7698,0.9571 0.2832,0.1359 0.831,0.1432 1.1135,0.01 0.4075,-0.198 0.611,-0.6547 0.611,-1.37 0,-0.7351 -0.1006,-1.5707 -0.3019,-2.5072 -0.1925,-0.9365 -0.4289,-1.6981 -0.709,-2.2845 -0.2889,-0.5951 -0.6915,-0.9015 -1.2079,-0.919 z m 26.0076,0.8007 c -0.2889,0 -0.5472,0.092 -0.7747,0.2759 -0.2188,0.175 -0.3632,0.398 -0.4331,0.6694 -0.079,0.315 -0.1227,1.1552 -0.1314,2.5206 0.027,1.4703 0.07,2.3632 0.1314,2.6783 0.032,0.1445 0.1051,0.3217 0.2094,0.5239 0.1451,0.2815 0.5418,0.4975 0.8586,0.4975 h 0.3643 c 0.3167,0 0.6591,-0.131 0.7731,-0.2864 0.3393,-1.1323 0.4072,-2.1494 0.4072,-3.5839 0,-1.1815 -0.083,-2.0045 -0.2496,-2.4683 -0.1926,-0.5514 -0.5776,-0.827 -1.1552,-0.827 z m -8.5336,0.1709 c -0.6563,1e-4 -1.0456,0.3675 -1.1682,1.1026 -0.105,0.6915 -0.1576,1.6806 -0.1576,2.9671 0,0.9628 0.017,1.5926 0.052,1.8902 0.02,0.1332 0.053,0.2692 0.098,0.4076 0.1,0.3003 0.2487,0.5718 0.2776,0.6272 h 0.9453 c 0.3167,0 0.6165,-0.047 0.6742,-0.1025 0.3591,-0.4851 0.441,-0.76 0.4729,-1.0745 0.01,-0.1 0.019,-0.2099 0.026,-0.3302 0.061,-0.9628 0.092,-1.9343 0.092,-2.9145 0,-1.7153 -0.4373,-2.5728 -1.3124,-2.573 z m 37.8358,5.878 c -0.4804,0 -1.0461,0.087 -1.5945,0.3769 l -0.073,0.039 -6.0887,3.8286 -0.01,0.01 c -0.1752,0.1115 -0.2386,0.2708 -0.3752,0.3995 -1.4721,-0.9908 -3.1368,-1.4842 -5.004,-1.4842 -1.3183,0 -2.5789,0.2398 -3.7622,0.7386 -1.3636,0.5715 -2.4892,1.4561 -3.4372,2.5556 -0.3022,-0.6358 -0.7026,-1.2281 -1.2819,-1.7274 -1.2085,-1.0451 -2.638,-1.4748 -4.2262,-1.4748 -1.5863,0 -3.0189,0.4784 -4.2819,1.3554 -1.0301,-0.9126 -2.3605,-1.3554 -3.8582,-1.3554 -1.0862,0 -2.1109,0.23 -3.1077,0.6774 h 0.01 l -0.017,0.01 h 0.01 c -0.2018,0.089 -0.3724,0.216 -0.5624,0.3189 -0.4842,-0.5796 -1.1826,-0.9975 -2.1665,-0.998 h -0.011 -0.01 c -1.3651,0.011 -3.4433,0.5233 -5.7115,1.3392 h -0.012 l -0.011,0.01 c -0.6975,0.2591 -1.418,0.6757 -1.9611,1.2706 -0.3842,-0.3869 -0.7765,-0.7671 -1.237,-1.0834 -1.6348,-1.1254 -3.4432,-1.6406 -5.4789,-1.6406 -2.8021,0 -5.2576,0.8443 -7.3144,2.6082 -0.183,0.1561 -0.3124,0.3345 -0.4789,0.4975 -0.4412,-0.5853 -0.979,-1.114 -1.652,-1.5575 h -0.01 -0.01 c -1.5857,-1.0377 -3.3893,-1.5332 -5.3428,-1.5332 -2.5666,0 -4.8229,0.7748 -6.7143,2.4007 -2.0458,1.7506 -3.0513,3.9138 -3.0514,6.6029 0,1.3644 0.2697,2.5925 0.7917,3.7022 0.1348,0.2867 0.5191,0.5101 0.8359,0.5101 h 1.581 c 0.3168,0 0.4019,-0.1918 0.2148,-0.4473 -0.7912,-1.0792 -1.1925,-2.3324 -1.1925,-3.7646 0,-1.978 0.7573,-3.6148 2.2714,-4.9101 1.4442,-1.2428 3.1991,-1.8642 5.2647,-1.8642 1.5578,0 2.932,0.3892 4.1223,1.1681 1.129,0.744 1.6933,1.6676 1.6933,2.7703 0,0.7615 -0.2626,1.3787 -0.7877,1.8513 -0.4902,0.4464 -1.0809,0.6694 -1.7723,0.6694 -0.7264,0 -1.2734,-0.2625 -1.641,-0.7877 -0.1137,-0.1662 -0.28,-0.5909 -0.4988,-1.2735 -0.2363,-0.7352 -0.6873,-1.1025 -1.3525,-1.1025 -0.4813,0 -0.8882,0.2099 -1.2208,0.63 -0.3238,0.4201 -0.4858,0.9364 -0.4858,1.5491 0,1.0502 0.3766,1.9826 1.1292,2.7965 0.6127,0.6565 1.3827,0.9842 2.3104,0.9842 0.4376,0 0.8053,-0.035 1.1029,-0.1049 0.2976,-0.079 0.6868,-0.2319 1.1681,-0.4595 0.1226,-0.061 0.2584,-0.091 0.4073,-0.091 0.2975,0 0.5601,0.1401 0.7877,0.4201 0.2275,0.2801 0.3411,0.6079 0.3411,0.9842 0,0.1517 -0.03,0.3077 -0.086,0.4668 -0.1036,0.2988 0.01,0.5158 0.3246,0.5158 h 1.7816 c 0.3167,0 0.4094,-0.1984 0.2362,-0.4635 -0.6259,-0.9583 -0.9437,-2.0882 -0.9437,-3.3942 0,-2.0655 0.7704,-3.7544 2.3108,-5.0673 1.6104,-1.3828 3.5664,-2.0741 5.8683,-2.0741 1.6016,0 3.0065,0.4157 4.2143,1.2471 0.8664,0.5952 1.562,1.3697 2.0871,2.3237 0.5426,0.9978 0.8144,2.0392 0.8144,3.1244 0,1.47 -0.5235,2.7689 -1.5672,3.8979 -0.215,0.2327 -0.1487,0.406 0.1681,0.406 h 2.2196 c 0.3168,0 0.5759,-0.011 0.5843,-0.011 0.5367,-0.7342 0.6436,-1.0815 0.6827,-1.4838 0.096,-1.0853 0.1443,-2.21 0.1443,-3.374 0,-0.8315 -0.044,-1.4092 -0.1313,-1.733 -0.079,-0.3326 -0.2538,-0.5993 -0.5251,-0.8006 -0.2626,-0.2014 -0.4335,-0.3548 -0.5122,-0.4599 -0.07,-0.105 -0.1049,-0.2489 -0.1049,-0.4327 0,-0.5864 0.4595,-1.0505 1.3784,-1.3918 2.214,-0.7963 3.8725,-1.1991 4.9753,-1.2079 h 4e-4 4e-4 c 0.4986,2e-4 0.7475,0.3549 0.7475,1.0636 v 0.2228 c -0.01,0.1401 -0.013,0.2541 -0.013,0.3417 0,0.4726 0.1401,0.709 0.4202,0.709 0.1488,0 0.3811,-0.1885 0.6961,-0.5649 0.4727,-0.5426 1.0675,-0.9713 1.7852,-1.2864 0.7177,-0.3238 1.4528,-0.4858 2.2055,-0.4858 1.4617,0 2.4768,0.5339 3.0457,1.6017 0.2188,0.3939 0.398,0.5907 0.5381,0.5907 0.096,0 0.3239,-0.175 0.6827,-0.5251 1.1379,-1.1115 2.429,-1.6673 3.8732,-1.6673 1.129,0 2.0521,0.3106 2.7698,0.9319 0.7527,0.6477 1.1289,1.6192 1.1289,2.9145 0,0.28 -0.01,0.753 -0.025,1.4181 -0.018,0.2276 -0.027,0.9147 -0.027,2.0612 0,0.7353 -0.01,1.2515 -0.013,1.5491 -0.01,0.1837 -0.013,0.3151 -0.013,0.3938 0,0.3586 0.071,0.6883 0.2151,0.9894 0.1358,0.2853 0.3595,0.5521 0.4255,0.6362 h 1.9595 c 0.3168,0 0.4115,-0.1998 0.2362,-0.4635 -0.1268,-0.1905 -0.2454,-0.3894 -0.3554,-0.5972 -0.5164,-0.989 -0.7743,-2.0308 -0.7743,-3.1248 0,-1.4704 0.446,-2.792 1.3388,-3.9648 0.7702,-1.0153 1.7505,-1.7722 2.9408,-2.271 0.8927,-0.3764 1.8599,-0.5645 2.9015,-0.5645 1.6629,0 3.0762,0.4725 4.2402,1.4178 0.5864,0.4725 1.059,1.0326 1.4178,1.6803 0.4113,0.7351 0.6171,1.4529 0.6171,2.1531 0,0.5689 -0.1182,1.0368 -0.3545,1.4044 -0.2363,0.3588 -0.5427,0.5385 -0.919,0.5385 h -6.1701 c -0.2713,0 -0.4069,0.1182 -0.4069,0.3545 0,0.5689 0.3063,1.107 0.919,1.6146 0.6214,0.4989 1.2862,0.7484 1.9951,0.7484 0.4202,0 0.8843,-0.079 1.3919,-0.2362 0.5164,-0.1663 0.9409,-0.3678 1.2735,-0.6041 0.2975,-0.2101 0.5336,-0.3148 0.7086,-0.3148 0.2276,0 0.451,0.1401 0.6698,0.4202 0.2188,0.28 0.3282,0.5686 0.3282,0.8662 0,0.1433 -0.021,0.2853 -0.062,0.4263 -0.089,0.3029 0.012,0.5166 0.3286,0.5166 h 2.4963 c 0.3168,0 0.4648,-0.2343 0.3756,-0.5381 -0.1206,-0.4109 -0.1843,-0.8553 -0.1843,-1.3371 v -6.0652 c 0,-0.2013 -0.027,-0.3238 -0.079,-0.3675 -0.044,-0.053 -0.1662,-0.079 -0.3675,-0.079 h -1.352 c -0.2538,0 -0.4158,-0.039 -0.4858,-0.1178 -0.07,-0.087 -0.1049,-0.2845 -0.1049,-0.5908 v -0.5778 c 0.01,-0.2625 0.1092,-0.4548 0.3017,-0.5774 l 6.0126,-3.7811 c 0.1488,-0.079 0.3326,-0.1184 0.5515,-0.1184 h 1.0636 c 0.2188,0 0.3627,0.053 0.4327,0.1576 0.079,0.096 0.1183,0.2931 0.1183,0.5908 v 1.7727 c 0,0.2626 0.039,0.433 0.1183,0.5118 0.088,0.079 0.2669,0.1183 0.5381,0.1183 h 2.4291 c 0.3239,0 0.5338,0.061 0.6301,0.1835 0.096,0.1138 0.1442,0.3632 0.1442,0.7484 v 0.7743 c 0,0.4201 -0.061,0.7138 -0.1839,0.8801 -0.1226,0.1575 -0.3456,0.2361 -0.6694,0.2361 h -2.3764 c -0.2451,0 -0.4113,0.044 -0.4988,0.1314 -0.088,0.088 -0.1313,0.2537 -0.1313,0.4987 v 4.4372 c 0,0.5251 0.1271,0.9543 0.3809,1.2868 0.2626,0.3326 0.5951,0.4989 0.9976,0.4989 0.3413,0 0.7919,-0.1579 1.3521,-0.4729 0.1312,-0.079 0.263,-0.1179 0.3942,-0.1179 0.2101,0 0.4024,0.1267 0.5774,0.3805 0.06,0.087 0.1101,0.1767 0.1495,0.269 0.1238,0.2892 0.115,0.8248 -0.01,1.1163 -0.034,0.084 0.1892,0.1487 0.506,0.1487 h 0.083 c 0.3168,0 0.4799,-0.2396 0.3931,-0.5442 -0.091,-0.3186 -0.1434,-0.6124 -0.1434,-0.8715 0,-0.8052 0.315,-1.2079 0.9453,-1.2079 0.245,0 0.468,0.083 0.6693,0.2496 0.2101,0.1575 0.6435,0.5863 1.2999,1.2865 0.1602,0.1719 0.3078,0.3205 0.4436,0.4453 0.2329,0.2141 0.6738,0.502 0.9851,0.549 0.1233,0.019 0.5042,0.042 0.7791,-0.1086 0.084,-0.046 0.3618,-0.2894 0.3979,-0.5968 0.01,-0.038 0.01,-0.077 0.01,-0.118 0,-0.3938 -0.3371,-0.7531 -1.0109,-1.0769 -1.4092,-0.6914 -2.429,-1.4042 -3.0592,-2.1394 -0.6214,-0.7352 -0.9319,-1.5846 -0.9319,-2.5474 0,-1.0414 0.3193,-1.9385 0.9583,-2.6912 0.9102,-1.0765 2.1531,-1.6147 3.7285,-1.6147 0.4376,0 1.1508,0.096 2.1398,0.2889 0.2012,0.035 0.3678,0.053 0.4992,0.053 0.1487,0 0.4373,-0.079 0.8662,-0.2362 0.2013,-0.079 0.3718,-0.1183 0.5118,-0.1183 0.4026,0 0.8095,0.2579 1.2208,0.7743 0.3326,0.4113 0.604,0.8619 0.814,1.352 0.2101,0.4902 0.3152,0.9147 0.3152,1.2735 0,0.3501 -0.1224,0.6438 -0.3675,0.8801 -0.2451,0.2275 -0.5516,0.3412 -0.9193,0.3412 -0.3063,0 -0.5815,-0.074 -0.8266,-0.2233 -0.2363,-0.1487 -0.6217,-0.4769 -1.1556,-0.9846 -0.5602,-0.5426 -1.0238,-0.814 -1.3914,-0.814 -0.2451,0 -0.4596,0.092 -0.6434,0.2755 -0.1751,0.1751 -0.2626,0.3851 -0.2626,0.6301 0,0.4289 0.4115,0.8315 1.2342,1.2078 1.4791,0.6652 2.6126,1.3918 3.4003,2.1795 0.6652,0.6652 0.9976,1.4793 0.9976,2.4421 0,0.4008 -0.058,0.7795 -0.1743,1.1365 -0.098,0.301 0.035,0.5284 0.3518,0.5284 h 1.2496 c 0.3168,0 0.6466,-0.2469 0.7042,-0.5584 0.065,-0.3523 0.1009,-0.7202 0.1009,-1.1065 0,-1.3241 -0.4508,-2.3928 -1.2144,-3.3784 0.021,-0.019 0.048,-0.023 0.069,-0.043 l 0.015,-0.014 0.015,-0.014 c 0.7393,-0.7129 1.0506,-1.4832 1.0506,-2.4846 0,-0.7396 -0.2176,-1.5038 -0.4955,-2.1523 -0.2894,-0.6755 -0.6657,-1.2975 -1.1232,-1.8651 -0.6302,-0.7901 -1.6137,-1.6134 -2.9623,-1.6134 -0.4955,0 -0.9492,0.1343 -1.2885,0.2646 -0.1109,0.045 -0.1343,0.067 -0.1296,0.078 0,2e-4 6e-4,0 8e-4,0 0,0 0.01,0.01 0.012,0.01 -0.016,0 -0.035,-0.01 -0.09,-0.014 l 0.044,0.01 c -1.0184,-0.1983 -1.9625,-0.3311 -2.5652,-0.3311 -1.6621,0 -3.09,0.4106 -4.3003,1.327 -0.069,-0.1138 -0.072,-0.2209 -0.1645,-0.335 0.01,0.01 0.019,0.016 0.029,0.025 l -0.038,-0.046 c 0,0 0,0.01 0,0.011 -0.7485,-0.9088 -1.7784,-0.9948 -2.3404,-0.9948 h -0.8549 v -0.1722 c 0,-0.4294 -0.035,-1.1937 -0.5795,-1.9161 0.024,0.027 0.05,0.046 0.073,0.074 l -0.113,-0.1536 c 0.013,0.02 0.014,0.041 0.027,0.062 -0.6632,-0.8779 -1.6434,-1.0438 -2.1892,-1.0438 z m 14.2398,3.4101 -0.03,0.01 c 0.01,0 0.024,0 0.032,-0.01 z m -27.5125,4.3468 c -0.4901,0 -0.8755,0.1927 -1.1556,0.5778 -0.2625,0.3588 -0.3938,0.722 -0.3938,1.0896 0,0.2625 0.061,0.4464 0.1839,0.5514 0.1313,0.1051 0.3543,0.1572 0.6694,0.1572 h 1.3262 c 0.5601,0 0.84,-0.2579 0.84,-0.7742 0,-0.4727 -0.1355,-0.8581 -0.4069,-1.1557 -0.2713,-0.2975 -0.6257,-0.4461 -1.0632,-0.4461 z m -42.0371,0.6564 c -0.3851,0 -0.6956,0.1443 -0.932,0.4332 -0.2275,0.2801 -0.3411,0.6567 -0.3411,1.1292 0,0.5252 0.096,1.2426 0.2889,2.1528 0.2013,0.9015 0.4374,1.7021 0.7087,2.4023 0.1808,0.4783 0.4374,0.7975 0.7698,0.957 0.2832,0.136 0.831,0.1434 1.1135,0.01 0.4075,-0.198 0.611,-0.6546 0.611,-1.37 0,-0.7351 -0.1006,-1.5708 -0.3019,-2.5073 -0.1925,-0.9365 -0.4289,-1.698 -0.709,-2.2844 -0.2889,-0.5951 -0.6915,-0.9015 -1.2079,-0.919 z m 26.0076,0.8007 c -0.2889,0 -0.5472,0.092 -0.7747,0.2759 -0.2188,0.175 -0.3632,0.398 -0.4331,0.6694 -0.079,0.315 -0.1227,1.1553 -0.1314,2.5207 0.027,1.4703 0.07,2.3631 0.1314,2.6782 0.032,0.1445 0.1051,0.3217 0.2094,0.5239 0.1451,0.2815 0.5418,0.4975 0.8586,0.4975 h 0.3643 c 0.3167,0 0.6591,-0.131 0.7731,-0.2864 0.3393,-1.1323 0.4072,-2.1494 0.4072,-3.5839 0,-1.1815 -0.083,-2.0045 -0.2496,-2.4683 -0.1926,-0.5514 -0.5776,-0.827 -1.1552,-0.827 z m -8.5336,0.1709 c -0.6563,1e-4 -1.0456,0.3675 -1.1682,1.1026 -0.105,0.6915 -0.1576,1.6806 -0.1576,2.9671 0,0.9628 0.017,1.5926 0.052,1.8902 0.02,0.1332 0.053,0.2692 0.098,0.4077 0.1,0.3003 0.2487,0.5717 0.2776,0.6271 h 0.9453 c 0.3167,0 0.6165,-0.047 0.6742,-0.1024 0.3591,-0.4852 0.441,-0.7601 0.4729,-1.0746 0.01,-0.1 0.019,-0.2098 0.026,-0.3302 0.061,-0.9628 0.092,-1.9343 0.092,-2.9145 0,-1.7154 -0.4373,-2.5728 -1.3124,-2.573 z m 37.8358,5.878 c -0.4804,0 -1.0461,0.087 -1.5945,0.3769 l -0.073,0.038 -6.0887,3.8286 -0.01,0.01 c -0.1752,0.1115 -0.2386,0.2709 -0.3752,0.3996 -1.4721,-0.9909 -3.1368,-1.4842 -5.004,-1.4842 -1.3184,0 -2.5789,0.2398 -3.7622,0.7386 -1.3636,0.5716 -2.4893,1.4561 -3.4372,2.5556 -0.3022,-0.6358 -0.7026,-1.2281 -1.2819,-1.7273 -1.2085,-1.0451 -2.638,-1.4749 -4.2262,-1.4749 -1.5864,0 -3.0189,0.4784 -4.2819,1.3554 -1.0301,-0.9126 -2.3605,-1.3554 -3.8582,-1.3554 -1.0862,0 -2.1109,0.23 -3.1077,0.6774 h 0.01 l -0.017,0.01 h 0.01 c -0.2018,0.089 -0.3724,0.216 -0.5624,0.3189 -0.4842,-0.5796 -1.1823,-0.9975 -2.1661,-0.998 h -0.011 -0.01 c -1.3651,0.011 -3.4433,0.5238 -5.7115,1.3396 h -0.012 l -0.01,0.01 c -0.6975,0.2591 -1.418,0.6757 -1.9611,1.2706 -0.3843,-0.3869 -0.7768,-0.767 -1.2374,-1.0834 -1.6348,-1.1253 -3.4432,-1.6402 -5.4789,-1.6402 -2.8021,0 -5.2576,0.844 -7.3144,2.6077 -0.183,0.1562 -0.3121,0.3346 -0.4785,0.4976 -0.4413,-0.5852 -0.9791,-1.1136 -1.652,-1.5571 h -0.01 -0.01 c -1.5858,-1.0378 -3.3893,-1.5336 -5.3428,-1.5336 -2.5666,0 -4.823,0.7749 -6.7143,2.4007 v 4e-4 c -2.0458,1.7506 -3.0513,3.9139 -3.0514,6.6029 0,2.7873 1.0851,5.0241 3.2508,6.7986 h 0.01 c 1.718,1.4207 3.7372,2.0863 6.0262,2.0863 1.9065,0 3.6526,-0.4302 5.2006,-1.3829 0.6811,-0.4199 1.277,-0.9418 1.7731,-1.564 0.1737,0.1895 0.3137,0.3922 0.5109,0.5729 1.7902,1.645 4.0206,2.374 6.5887,2.374 2.6394,0 4.9876,-0.7769 7.0645,-2.3618 0.01,-0.01 0.016,-0.016 0.024,-0.023 0.4291,0.947 1.2919,1.5531 2.1576,1.8537 l 0.013,0.01 0.013,0.01 c 0.8563,0.2854 2.2668,0.4299 3.6726,0.4299 1.2097,0 2.3643,-0.138 3.4526,-0.4347 0.2593,-0.071 0.5143,-0.1921 0.7674,-0.3124 0.1105,0.063 0.205,0.1457 0.3233,0.1969 -7e-4,-1e-4 0,0 -0.01,0 l 0.012,0.01 v -4e-4 c 0.9266,0.3957 2.4924,0.5466 4.1791,0.5466 1.6233,0 3.3069,-0.2142 4.5332,-0.8777 0.2076,0.1154 0.4168,0.2334 0.6208,0.3141 h 0.01 0.01 c 1.0502,0.4098 2.3125,0.5741 3.6333,0.5741 2.2298,0 4.5679,-0.4621 5.6147,-1.9749 1.6823,1.3969 3.6804,2.0535 5.951,2.0535 2.299,0 4.3424,-0.651 6.1539,-2.0069 0.51,-0.3802 0.9658,-0.8521 1.3347,-1.3849 0.3071,0.5688 0.6844,1.1104 1.2123,1.6057 h 0.01 l 0.01,0.01 c 1.3524,1.2549 3.0184,1.7776 4.8901,1.7776 2.0768,0 3.9186,-0.6029 5.5138,-1.8038 0.1854,0.2402 0.3615,0.4915 0.5814,0.6899 l 0.01,0.01 0.01,0.01 c 0.7444,0.6616 1.6375,0.8784 2.4521,0.8784 0.2293,0 0.5807,-0.036 0.8566,-0.075 l 0.042,-0.01 0.041,-0.01 h 0.015 c 0.01,4e-4 0.3394,0.035 1.1714,0.1292 h -0.028 c 0.9183,0.1159 1.6771,0.1888 2.1434,0.1888 1.7745,0 3.3503,-0.4618 4.7314,-1.5255 1.5968,-1.2196 2.4736,-2.7857 2.4736,-4.814 0,-1.324 -0.4507,-2.3932 -1.2143,-3.3789 0.021,-0.019 0.048,-0.023 0.069,-0.042 l 0.015,-0.014 0.015,-0.014 c 0.7393,-0.7129 1.0505,-1.4835 1.0505,-2.485 0,-0.7396 -0.2175,-1.5038 -0.4955,-2.1523 -0.2894,-0.6754 -0.6656,-1.2974 -1.1231,-1.8651 -0.6302,-0.7901 -1.6137,-1.613 -2.9623,-1.613 -0.4955,0 -0.9492,0.134 -1.2885,0.2642 -0.1038,0.042 -0.1312,0.065 -0.1305,0.076 2e-4,8e-4 9e-4,0 0,0 0,0 0.01,0.01 0.013,0.01 -0.016,0 -0.035,-0.01 -0.09,-0.014 l 0.044,0.01 c -1.0184,-0.1983 -1.9627,-0.331 -2.5653,-0.331 -1.6622,0 -3.0899,0.4104 -4.3002,1.3269 -0.069,-0.1139 -0.072,-0.2209 -0.1645,-0.3351 0.01,0.01 0.019,0.016 0.029,0.025 l -0.04,-0.048 c 0,0 0,0.01 0,0.013 -0.7486,-0.9087 -1.7784,-0.9947 -2.3404,-0.9947 h -0.8549 v -0.1722 c 0,-0.4295 -0.035,-1.194 -0.5795,-1.9165 0.024,0.028 0.05,0.046 0.073,0.074 l -0.1131,-0.1531 c 0.013,0.02 0.014,0.041 0.027,0.062 -0.6631,-0.8778 -1.6433,-1.0437 -2.1891,-1.0437 z m 0,2.2298 h 1.0632 c 0.2188,0 0.3631,0.053 0.4331,0.1576 0.079,0.096 0.1183,0.2933 0.1183,0.5908 v 1.7727 c 0,0.2625 0.039,0.4329 0.1183,0.5117 0.088,0.079 0.2669,0.1184 0.5382,0.1184 h 2.4286 c 0.3238,0 0.5342,0.061 0.6304,0.1835 0.096,0.1138 0.1443,0.3633 0.1443,0.7483 v 0.7744 c 0,0.4201 -0.061,0.7137 -0.1839,0.88 -0.1225,0.1576 -0.3456,0.2363 -0.6694,0.2363 h -2.3764 c -0.2451,0 -0.4113,0.044 -0.4988,0.1312 -0.088,0.088 -0.1313,0.2537 -0.1313,0.4988 v 4.4372 c 0,0.5251 0.127,0.9543 0.3809,1.2869 0.2626,0.3326 0.5949,0.4988 0.9975,0.4988 0.3413,0 0.792,-0.1578 1.3522,-0.4729 0.1313,-0.079 0.2625,-0.1179 0.3938,-0.1179 0.2101,0 0.4028,0.1267 0.5778,0.3805 0.1751,0.2538 0.2625,0.5298 0.2625,0.8273 0,0.5427 -0.2975,1.0631 -0.8926,1.562 -1.2428,1.059 -2.7483,1.5888 -4.5162,1.5888 -1.4004,0 -2.525,-0.3939 -3.3739,-1.1816 -0.8489,-0.7964 -1.2735,-1.8424 -1.2735,-3.1377 v -6.0652 c 0,-0.2013 -0.026,-0.3237 -0.079,-0.3675 -0.044,-0.053 -0.1663,-0.079 -0.3675,-0.079 h -1.3526 c -0.2539,0 -0.4158,-0.039 -0.4858,-0.1179 -0.07,-0.087 -0.1049,-0.2846 -0.1049,-0.5908 v -0.5778 c 0.01,-0.2626 0.1092,-0.4549 0.3019,-0.5774 l 6.0129,-3.7812 c 0.1488,-0.079 0.3327,-0.1183 0.5515,-0.1183 z m 14.2398,1.1803 -0.03,0.01 c 0.01,0 0.024,1e-4 0.032,-0.01 z m -68.499,1.9709 c 1.6016,0 3.0066,0.4153 4.2144,1.2467 0.8664,0.5952 1.5619,1.3701 2.0871,2.3241 0.5426,0.9978 0.814,2.0391 0.814,3.1244 0,1.8992 -0.871,3.5141 -2.6127,4.8444 -1.6629,1.2691 -3.5663,1.9036 -5.7106,1.9036 -2.0918,0 -3.7853,-0.5954 -5.0806,-1.7857 -1.2603,-1.1553 -1.8907,-2.6608 -1.8907,-4.5162 0,-2.0655 0.7704,-3.7544 2.3108,-5.0672 1.6103,-1.3829 3.5665,-2.0741 5.8683,-2.0741 z m 69.7895,0 c 0.4027,0 0.8099,0.2578 1.2212,0.7742 0.3326,0.4114 0.6041,0.8621 0.8141,1.3522 0.2101,0.49 0.3148,0.9146 0.3148,1.2734 0,0.3501 -0.1224,0.6434 -0.3675,0.8797 -0.2451,0.2276 -0.5513,0.3412 -0.919,0.3412 -0.3063,0 -0.582,-0.074 -0.827,-0.2229 -0.2363,-0.1488 -0.6213,-0.4769 -1.1552,-0.9846 -0.5601,-0.5426 -1.0242,-0.814 -1.3917,-0.814 -0.2451,0 -0.4598,0.092 -0.6435,0.2755 -0.1751,0.175 -0.2626,0.385 -0.2626,0.6301 0,0.4288 0.4115,0.8315 1.2342,1.2079 1.4791,0.6652 2.6126,1.3917 3.4003,2.1794 0.6652,0.6652 0.998,1.4789 0.998,2.4417 0,1.2166 -0.534,2.2318 -1.6017,3.0458 -0.919,0.7089 -2.0436,1.0636 -3.3739,1.0636 -0.3413,0 -0.9632,-0.057 -1.8647,-0.171 -0.849,-0.096 -1.3258,-0.1443 -1.4307,-0.1443 -0.1138,0 -0.2451,0.014 -0.3939,0.039 -0.2538,0.035 -0.4377,0.053 -0.5514,0.053 -0.4114,0 -0.7349,-0.1052 -0.9713,-0.3152 -0.3588,-0.3239 -0.6916,-0.8313 -0.9979,-1.5227 -0.3064,-0.7002 -0.4595,-1.2998 -0.4595,-1.7986 0,-0.8053 0.315,-1.2079 0.9453,-1.2079 0.245,0 0.4681,0.083 0.6693,0.2492 0.2102,0.1575 0.6435,0.5867 1.2999,1.2869 0.3588,0.3851 0.6563,0.6519 0.8926,0.8006 0.2363,0.1401 0.4904,0.2103 0.7617,0.2103 0.2889,0 0.5207,-0.075 0.6957,-0.2232 0.1751,-0.1575 0.2626,-0.3634 0.2626,-0.6172 0,-0.3938 -0.3371,-0.7527 -1.0109,-1.0765 -1.4091,-0.6914 -2.4286,-1.4046 -3.0588,-2.1398 -0.6214,-0.7352 -0.9323,-1.5842 -0.9323,-2.547 0,-1.0415 0.3193,-1.9385 0.9583,-2.6912 0.9102,-1.0766 2.1531,-1.6147 3.7285,-1.6147 0.4375,0 1.1508,0.096 2.1398,0.2885 0.2013,0.035 0.3678,0.053 0.4991,0.053 0.1488,0 0.4375,-0.079 0.8664,-0.2362 0.2012,-0.079 0.3717,-0.1179 0.5117,-0.1179 z m -84.5852,0.013 c 1.5578,0 2.9321,0.3893 4.1223,1.1682 1.1291,0.744 1.6937,1.667 1.6937,2.7698 0,0.7615 -0.2629,1.3788 -0.7881,1.8513 -0.4901,0.4464 -1.0805,0.6693 -1.7718,0.6693 -0.7265,0 -1.2738,-0.2625 -1.6414,-0.7876 -0.1138,-0.1663 -0.2799,-0.5908 -0.4988,-1.2735 -0.2363,-0.7351 -0.6869,-1.1025 -1.3521,-1.1025 -0.4814,0 -0.8886,0.2099 -1.2212,0.63 -0.3239,0.4201 -0.4855,0.9364 -0.4855,1.549 0,1.0503 0.3762,1.9827 1.1289,2.7966 0.6127,0.6564 1.383,0.9847 2.3107,0.9847 0.4376,0 0.805,-0.036 1.1025,-0.1054 0.2976,-0.079 0.6872,-0.2319 1.1686,-0.4595 0.1225,-0.061 0.2584,-0.092 0.4072,-0.092 0.2976,0 0.5602,0.1402 0.7877,0.4202 0.2275,0.2801 0.3412,0.6079 0.3412,0.9842 0,0.3939 -0.162,0.8095 -0.4859,1.2472 -0.3238,0.4288 -0.7478,0.8054 -1.273,1.1292 -1.1378,0.7002 -2.4817,1.0503 -4.0308,1.0503 -1.803,0 -3.3387,-0.5251 -4.6078,-1.5754 -1.6279,-1.3303 -2.442,-3.0239 -2.442,-5.0806 0,-1.978 0.7569,-3.6148 2.2711,-4.9101 1.444,-1.2427 3.1989,-1.8638 5.2645,-1.8638 z m 55.9135,0 c 1.663,0 3.0763,0.4726 4.2402,1.4178 0.5865,0.4726 1.0589,1.0326 1.4178,1.6802 0.4113,0.7353 0.6171,1.4526 0.6171,2.1528 0,0.5689 -0.1182,1.0372 -0.3546,1.4048 -0.2363,0.3589 -0.5426,0.5385 -0.9189,0.5385 h -6.1702 c -0.2713,0 -0.4068,0.1181 -0.4068,0.3545 0,0.5688 0.3063,1.1071 0.919,1.6147 0.6214,0.4988 1.2862,0.7483 1.9952,0.7483 0.42,0 0.8841,-0.079 1.3917,-0.2366 0.5164,-0.1663 0.941,-0.3674 1.2735,-0.6037 0.2976,-0.2101 0.5337,-0.3149 0.7087,-0.3149 0.2276,0 0.451,0.1398 0.6698,0.4198 0.2188,0.2801 0.3282,0.5691 0.3282,0.8667 0,0.6302 -0.3938,1.2386 -1.1815,1.825 -1.3917,1.0415 -2.9976,1.562 -4.8181,1.562 -1.838,0 -3.3783,-0.534 -4.6212,-1.6017 -0.6038,-0.5252 -1.1028,-1.1596 -1.4967,-1.9036 -0.5165,-0.9889 -0.7743,-2.0303 -0.7743,-3.1244 0,-1.4703 0.4459,-2.792 1.3387,-3.9647 0.7702,-1.0153 1.7505,-1.7725 2.9408,-2.2714 0.8928,-0.3763 1.8601,-0.5641 2.9016,-0.5641 z m -26.6907,0.092 h 8e-4 4e-4 c 0.4985,2e-4 0.748,0.3549 0.748,1.0636 v 0.2228 c -0.01,0.14 -0.013,0.2541 -0.013,0.3416 0,0.4727 0.1401,0.7091 0.4202,0.7091 0.1488,0 0.3806,-0.1885 0.6957,-0.5649 0.4726,-0.5426 1.068,-0.9713 1.7856,-1.2864 0.7177,-0.3238 1.4527,-0.4858 2.2054,-0.4858 1.4616,0 2.4768,0.5339 3.0458,1.6017 0.2187,0.3938 0.3981,0.5907 0.5381,0.5907 0.096,0 0.3239,-0.175 0.6827,-0.5251 1.1378,-1.1115 2.4287,-1.6673 3.8728,-1.6673 1.1291,0 2.0522,0.3105 2.7698,0.9319 0.7528,0.6477 1.1293,1.6192 1.1293,2.9145 0,0.2801 -0.01,0.753 -0.026,1.4181 -0.018,0.2276 -0.026,0.9147 -0.026,2.0612 0,0.7352 -0.01,1.2515 -0.013,1.549 -0.01,0.1838 -0.013,0.3151 -0.013,0.3939 0,0.5601 0.175,1.0503 0.5251,1.4704 0.2102,0.2538 0.3369,0.4246 0.3806,0.5121 0.053,0.079 0.079,0.1878 0.079,0.3279 0,1.1203 -1.3173,1.6806 -3.9518,1.6806 -1.164,0 -2.1048,-0.1401 -2.8225,-0.4202 -0.709,-0.28 -1.0636,-0.6478 -1.0636,-1.1028 0,-0.1751 0.022,-0.3064 0.066,-0.3939 0.053,-0.096 0.223,-0.3411 0.5118,-0.735 0.2713,-0.3588 0.4071,-1.5534 0.4071,-3.5839 0,-1.1815 -0.083,-2.0044 -0.2491,-2.4683 -0.1927,-0.5514 -0.578,-0.827 -1.1556,-0.827 -0.2889,0 -0.5472,0.092 -0.7748,0.2755 -0.2188,0.175 -0.3631,0.3981 -0.4331,0.6694 -0.079,0.3151 -0.1225,1.1557 -0.1312,2.5211 0.027,1.4703 0.07,2.3628 0.1312,2.6778 0.07,0.3151 0.2935,0.7527 0.6698,1.3128 0.087,0.1313 0.1308,0.2974 0.1308,0.4988 0,1.0415 -1.3607,1.5624 -4.0826,1.5624 -1.6366,0 -2.7395,-0.1224 -3.3083,-0.3675 -0.4551,-0.1925 -0.6827,-0.5338 -0.6827,-1.0239 0,-0.2188 0.027,-0.372 0.079,-0.4595 0.061,-0.088 0.2577,-0.2891 0.5903,-0.6041 0.1925,-0.1839 0.3154,-0.3543 0.3679,-0.5118 0.061,-0.1663 0.1051,-0.4641 0.1314,-0.893 0.061,-0.9627 0.092,-1.9342 0.092,-2.9145 0,-1.7154 -0.438,-2.573 -1.3132,-2.573 -0.6564,0 -1.0455,0.3678 -1.1682,1.103 -0.1049,0.6914 -0.1576,1.6801 -0.1576,2.9667 0,0.9627 0.017,1.5931 0.053,1.8906 0.044,0.2976 0.1531,0.6081 0.3282,0.932 0.2099,0.3763 0.3149,0.6826 0.3149,0.9189 0,0.5689 -0.3981,0.9631 -1.1946,1.1819 -0.8664,0.2363 -1.8203,0.3542 -2.8618,0.3542 -1.3478,0 -2.337,-0.1048 -2.9671,-0.3149 -0.6302,-0.2187 -0.9454,-0.5604 -0.9454,-1.0242 0,-0.175 0.039,-0.3236 0.1183,-0.4462 0.088,-0.1225 0.2803,-0.3152 0.5779,-0.5778 0.3938,-0.3588 0.6211,-0.8532 0.6823,-1.4834 0.096,-1.0852 0.1443,-2.2099 0.1443,-3.3739 0,-0.8315 -0.044,-1.4092 -0.131,-1.733 -0.079,-0.3326 -0.2541,-0.5994 -0.5255,-0.8006 -0.2625,-0.2013 -0.433,-0.3549 -0.5117,-0.4599 -0.07,-0.1051 -0.1053,-0.2489 -0.1053,-0.4327 0,-0.5864 0.4598,-1.0505 1.3788,-1.3919 2.2139,-0.7963 3.8725,-1.199 4.9753,-1.2078 z m 26.5594,2.2711 c -0.4901,0 -0.8755,0.1927 -1.1556,0.5777 -0.2625,0.3589 -0.3938,0.722 -0.3938,1.0896 0,0.2626 0.061,0.4464 0.1839,0.5515 0.1313,0.1049 0.3543,0.1576 0.6694,0.1576 h 1.3262 c 0.5601,0 0.84,-0.2584 0.84,-0.7748 0,-0.4726 -0.1355,-0.8575 -0.4069,-1.1551 -0.2713,-0.2976 -0.6256,-0.4465 -1.0632,-0.4465 z m -42.0371,0.6563 c -0.3851,0 -0.6956,0.1444 -0.932,0.4332 -0.2275,0.2801 -0.3411,0.6566 -0.3411,1.1293 0,0.525 0.096,1.243 0.2889,2.1531 0.2014,0.9016 0.4374,1.7023 0.7087,2.4024 0.2713,0.7177 0.7134,1.0765 1.3261,1.0765 0.779,0 1.1682,-0.4944 1.1682,-1.4834 0,-0.7352 -0.1006,-1.5711 -0.3019,-2.5076 -0.1925,-0.9365 -0.4289,-1.6981 -0.709,-2.2845 -0.2889,-0.5952 -0.6915,-0.9015 -1.2079,-0.919 z" /><path
       style="fill:#d40000;fill-opacity:1;stroke:none;stroke-width:0.0887485"
       d="m -1781.6078,7459.8264 c -2.4208,-0.6607 -3.4574,-2.5028 -2.3818,-4.2328 0.4919,-0.7912 1.9808,-1.6179 3.8049,-2.113 0.3802,-0.1029 0.8111,-0.2205 0.9576,-0.2607 0.146,-0.042 0.6628,-0.1774 1.1475,-0.3039 0.4846,-0.1262 0.901,-0.2504 0.9255,-0.2747 0.074,-0.076 -0.429,-0.5523 -1.5758,-1.4924 -1.0829,-0.8874 -2.3368,-1.9452 -2.567,-2.1651 -0.1361,-0.1329 -0.2822,-0.1461 -0.2822,-0.031 0,0.1195 -0.7892,1.4666 -1.335,2.2787 -1.6097,2.395 -3.2673,4.0088 -5.0104,4.8771 -1.046,0.5211 -1.6267,0.6612 -2.7409,0.6612 -0.9773,0 -1.6089,-0.1527 -2.4936,-0.5973 -0.5892,-0.2972 -1.6164,-1.3533 -1.9748,-2.0303 -0.3198,-0.6044 -0.8178,-2.0527 -0.8311,-2.4168 0,-0.1311 -0.054,-0.4327 -0.1112,-0.6733 l -0.1028,-0.437 -0.4991,0.6146 c -1.7648,2.1724 -3.9496,3.6494 -6.155,4.1608 -0.78,0.1812 -2.697,0.1831 -3.3923,0 -1.5017,-0.3864 -2.745,-1.3852 -3.3846,-2.7187 -0.1962,-0.4086 -0.3694,-0.8399 -0.385,-0.958 -0.034,-0.2662 -0.2296,-0.3447 -0.31,-0.1245 -0.1644,0.4481 -1.5288,2.2512 -2.0269,2.6789 -1.3003,1.1161 -2.4425,1.6107 -3.7205,1.6107 -1.729,0 -2.8277,-0.9258 -3.213,-2.707 -0.2208,-1.0223 -0.1028,-2.083 0.4104,-3.6829 0.086,-0.2685 0.2443,-0.7878 0.3509,-1.1538 0.108,-0.3661 0.2279,-0.7654 0.2687,-0.8874 0.07,-0.2092 0.1245,-0.434 0.3519,-1.4373 0.1361,-0.6069 0.1146,-1.4353 -0.048,-1.8459 -0.2782,-0.6949 -0.9851,-0.9062 -1.7463,-0.522 -0.4465,0.2253 -1.7233,1.4999 -2.2816,2.2773 -0.8421,1.1723 -2.0836,3.4476 -2.844,5.2107 -0.3623,0.8409 -0.8266,1.7926 -0.9794,2.0068 -0.2784,0.3912 -0.7827,0.6115 -1.3992,0.6115 -0.4466,0 -0.5909,-0.045 -0.9543,-0.2885 -0.2356,-0.1576 -0.5035,-0.4189 -0.5958,-0.5782 -0.2467,-0.4261 -0.2405,-0.5964 0.1212,-3.349 0.1957,-1.4959 0.2669,-2.2585 0.3185,-3.4168 0.1029,-2.3093 -0.426,-2.9656 -1.5167,-1.8814 -0.6832,0.6791 -1.6917,2.9434 -2.2608,5.0764 -0.058,0.2197 -0.1411,0.5193 -0.1813,0.6656 -0.042,0.146 -0.1211,0.5458 -0.1794,0.8875 -0.1734,1.0249 -0.2843,1.3832 -0.5135,1.6554 -0.6881,0.8177 -1.9981,0.619 -2.4299,-0.3685 -0.1949,-0.4441 -0.3373,-1.6704 -0.3389,-2.9067 0,-0.6954 -0.02,-1.2645 -0.044,-1.2645 -0.023,0 -0.2123,0.057 -0.4214,0.1245 -1.0201,0.3329 -2.1597,0.4972 -3.4462,0.4972 -0.7983,0 -1.1529,0.033 -1.2126,0.1112 -0.047,0.06 -0.1576,0.3107 -0.2473,0.5547 -0.634,1.7229 -2.1454,3.1955 -3.7723,3.6749 -0.2196,0.065 -0.5152,0.1544 -0.6566,0.1961 -0.1428,0.043 -0.6869,0.078 -1.2118,0.078 -0.7743,0 -1.0738,-0.042 -1.586,-0.2136 -1.1987,-0.4056 -2.188,-1.2596 -2.6819,-2.3149 -0.1477,-0.3177 -0.3179,-0.5777 -0.3759,-0.5777 -0.058,0 -0.1794,0.1244 -0.2689,0.2763 -0.3051,0.5163 -1.4928,1.8618 -2.1719,2.4599 -1.1242,0.9906 -2.5952,1.8758 -3.7776,2.2731 -1.453,0.4886 -3.3631,0.5281 -4.6198,0.096 -1.0209,-0.3515 -2.0208,-1.1145 -2.6097,-1.992 -0.5449,-0.811 -0.7664,-1.45 -0.9349,-2.6953 -0.3688,-2.7235 0.9393,-6.3218 2.8402,-7.8137 1.083,-0.8498 2.1394,-1.2126 3.5324,-1.2126 1.0387,0 1.6485,0.166 2.3349,0.634 0.7299,0.4983 1.2735,1.3767 1.2688,2.0499 0,0.5519 -0.3196,0.8695 -0.8569,0.8634 -0.352,0 -0.5423,-0.1793 -0.7001,-0.6418 -0.31,-0.9092 -1.2757,-1.4335 -2.2498,-1.2214 -1.2939,0.2818 -2.2527,1.3264 -2.841,3.0957 -0.4203,1.2631 -0.486,1.6705 -0.4885,3.0304 0,1.1103 0.024,1.3719 0.2022,1.908 0.3746,1.135 0.9163,1.8065 1.7742,2.1988 0.6148,0.2811 2.1385,0.2732 2.9317,-0.02 1.9803,-0.7199 3.9366,-2.3999 5.4924,-4.7154 0.5354,-0.7975 0.9984,-1.7271 0.9984,-2.0054 0,-0.1112 0.056,-0.4136 0.1244,-0.6724 0.4173,-1.5752 0.8738,-2.4065 1.9067,-3.4713 0.7877,-0.8119 1.2049,-0.9842 1.8322,-0.7575 0.2542,0.091 0.3203,0.076 0.6721,-0.1643 0.5574,-0.3789 0.8952,-0.4709 1.7311,-0.4709 1.9019,0 3.5341,1.3337 4.2359,3.4611 0.1754,0.5301 0.3226,1.2826 0.3484,1.7751 l 0.021,0.3995 0.9317,0.03 c 1.5855,0.052 3.8687,-0.4194 4.0261,-0.8294 0.026,-0.067 0.07,-0.4722 0.099,-0.9027 0.093,-1.3717 0.3541,-3.2605 0.5135,-3.7114 0.2803,-0.7938 1.3307,-1.1727 2.2206,-0.801 0.6131,0.2561 0.7822,0.6752 0.6031,1.494 -0.045,0.2046 -0.1278,0.6117 -0.1852,0.9045 -0.056,0.2929 -0.136,0.6922 -0.1773,0.8876 -0.042,0.1951 -0.1146,0.5745 -0.166,0.8431 -0.052,0.2684 -0.1361,0.7208 -0.193,1.0052 -0.056,0.2845 -0.081,0.5364 -0.058,0.5598 0.024,0.023 0.2229,-0.3352 0.4434,-0.7974 0.9924,-2.0811 2.3048,-3.4133 3.82,-3.8774 0.4845,-0.1477 1.4414,-0.068 1.9358,0.161 0.2276,0.1046 0.5603,0.3633 0.7396,0.5714 0.8351,0.97 0.992,1.9475 0.6729,4.195 -0.1592,1.1206 -0.2557,1.7691 -0.3204,2.1521 -0.044,0.2584 -0.034,0.3773 0.037,0.3773 0.055,0 0.1,-0.045 0.1,-0.098 0,-0.1311 0.9201,-1.9657 1.2637,-2.5209 1.3301,-2.1473 2.5404,-3.5484 3.7867,-4.3826 1.0796,-0.7226 1.7292,-0.9369 2.8484,-0.9399 0.7904,0 0.9866,0.027 1.2929,0.1911 0.4258,0.2279 0.9444,0.7769 1.1287,1.1953 0.3537,0.8021 0.374,0.9232 0.368,2.2057 0,1.5568 -0.1328,2.1168 -1.1688,5.2361 -0.3516,1.059 -0.4606,1.5963 -0.464,2.2899 0,0.7009 0.1,0.9904 0.4806,1.3459 0.3174,0.2966 1.0306,0.2945 1.6276,0 0.8261,-0.4144 2.2169,-2.0274 3.0695,-3.5598 0.7626,-1.371 1.3322,-2.6173 1.6476,-3.6049 0.3671,-1.1493 1.1784,-2.5153 1.9334,-3.2559 1.1517,-1.1295 2.4021,-1.6415 4.0079,-1.6415 1.6315,0 2.7579,0.5656 3.4713,1.7435 0.3037,0.501 0.3107,0.534 0.3082,1.4482 0,0.8648 -0.021,0.9684 -0.2571,1.3789 -0.3961,0.6907 -0.7226,1.0653 -1.3181,1.5131 -1.2049,0.9058 -2.0902,1.1656 -4.2995,1.262 l -1.4891,0.065 0.02,0.9248 c 0.044,2.0108 0.9232,3.3812 2.4322,3.7829 1.7334,0.4614 3.9899,-0.5115 6.1323,-2.6444 1.0732,-1.0684 2.2105,-2.6405 2.5518,-3.5276 0.067,-0.1714 0.1544,-0.3487 0.193,-0.3949 0.042,-0.046 0.074,-0.2383 0.074,-0.4267 0,-0.1889 0.037,-0.5098 0.081,-0.7144 0.045,-0.2047 0.1278,-0.6118 0.1852,-0.9045 0.1262,-0.651 0.2417,-1.1884 0.539,-2.5071 0.053,-0.2319 0.1311,-0.5814 0.1735,-0.7768 0.1143,-0.5186 0.6132,-2.6108 0.7085,-2.973 0.193,-0.7321 0.33,-1.3793 0.302,-1.4291 -0.02,-0.03 -0.6008,-0.08 -1.2981,-0.1146 -2.0443,-0.098 -3.0291,-0.1908 -3.2375,-0.3039 -0.5085,-0.2779 -0.6075,-0.841 -0.2336,-1.3309 l 0.2369,-0.3106 2.1813,0.067 c 1.2001,0.037 2.3181,0.071 2.4849,0.08 0.3439,0.02 0.3512,0 0.5838,-1.184 0.073,-0.3661 0.1676,-0.8454 0.2137,-1.065 0.1427,-0.6896 0.4143,-2.2904 0.5341,-3.1504 0.3628,-2.6095 0.3196,-2.4867 1.0194,-2.8797 0.6565,-0.3688 1.5377,-0.1012 1.8637,0.5646 0.1577,0.3221 0.1627,0.4196 0.065,1.419 -0.1627,1.6366 -0.4848,3.5985 -0.9309,5.6441 -0.068,0.3171 -0.1079,0.6068 -0.086,0.6434 0.021,0.037 1.1333,0.067 2.4696,0.067 h 2.4292 l 0.183,0.258 c 0.2556,0.3588 0.2396,0.8155 -0.037,1.0933 -0.294,0.294 -0.7347,0.3481 -3.3719,0.4146 l -2.1291,0.055 -0.329,1.3313 c -0.505,2.0432 -1.0788,4.5312 -1.3002,5.6356 -0.2837,1.416 -0.3464,1.7973 -0.5447,3.3095 -0.052,0.3802 -0.09,1.3789 -0.09,2.2187 0,2.7363 0.4165,4.1376 1.4166,4.7992 1.1514,0.7622 2.9529,0.363 4.7638,-1.0555 0.961,-0.7525 1.9411,-1.9307 3.0672,-3.687 0.6304,-0.983 1.4006,-2.3403 1.4006,-2.468 0,-0.057 -0.076,-0.2706 -0.1695,-0.4775 -0.2986,-0.6664 -0.3637,-0.9659 -0.3637,-1.6722 0,-2.754 2.1774,-4.9609 4.8949,-4.9609 1.549,0 2.5028,0.6506 2.8295,1.9304 0.098,0.3809 0.1,0.5508 0,0.9317 -0.2697,1.1209 -0.7379,1.9982 -1.2921,2.421 -0.2459,0.1872 -0.3799,0.2245 -0.7299,0.2023 -0.3921,-0.025 -0.4435,-0.055 -0.6037,-0.3545 -0.1577,-0.296 -0.1643,-0.3597 -0.053,-0.6656 0.067,-0.1852 0.2555,-0.5374 0.4188,-0.7807 0.1644,-0.2429 0.361,-0.6338 0.4387,-0.8683 0.1261,-0.3794 0.1261,-0.4486 0,-0.6283 -0.1969,-0.3008 -0.7562,-0.4417 -1.2545,-0.3164 -1.2175,0.3067 -2.1497,2.1793 -1.7157,3.447 0.2681,0.7839 1.2085,1.8524 2.465,2.8012 1.0298,0.7774 2.0859,1.703 2.7278,2.3901 0.3454,0.3699 0.6738,0.6723 0.7299,0.6723 0.2317,0 1.2558,-0.7963 2.0462,-1.5911 0.8509,-0.8559 1.636,-1.9428 2.0573,-2.849 0.2873,-0.6186 0.4273,-0.7326 0.9107,-0.743 0.4761,-0.02 0.8466,0.2833 0.8466,0.6708 0,0.3475 -0.636,1.6532 -1.2686,2.6042 -0.6739,1.0134 -2.1711,2.5068 -3.1527,3.1451 -0.6209,0.4036 -0.73,0.5095 -0.6849,0.6644 0.5129,1.751 -0.5446,3.9297 -2.5615,5.2772 -0.7012,0.4686 -1.5774,0.8977 -2.1833,1.0693 -0.2197,0.061 -0.4909,0.1478 -0.6032,0.1929 -0.3013,0.1161 -2.2146,0.076 -2.7094,-0.06 z m 2.0878,-1.7344 c 1.5668,-0.3266 2.8183,-1.5303 3.1849,-3.0632 0.1774,-0.7385 0.1377,-0.7603 -0.8213,-0.4606 -0.4554,0.1427 -0.9681,0.2966 -1.1388,0.3424 -3.1388,0.8423 -4.3486,1.4149 -4.3486,2.0577 0,0.4775 0.6043,0.9033 1.5529,1.0937 0.7055,0.1427 1.0079,0.1477 1.5709,0.03 z m -66.0875,-6.7679 c 0.7403,-0.1972 1.1229,-0.4204 1.687,-0.9843 0.5443,-0.5437 1.198,-1.6832 1.0459,-1.8227 -0.042,-0.037 -0.4337,-0.1962 -0.873,-0.3526 -2.2581,-0.8034 -3.4783,-1.6321 -3.9264,-2.6664 -0.083,-0.1948 -0.1833,-0.354 -0.2206,-0.354 -0.093,0 -0.3753,0.6332 -0.6129,1.3757 -0.2365,0.7391 -0.2851,2.4538 -0.083,2.9776 0.4156,1.0848 0.8546,1.5604 1.6877,1.8276 0.4346,0.1394 0.7707,0.1378 1.2969,0 z m 41.0352,-4.4138 c 1.2363,-0.2061 2.1237,-0.6733 2.5549,-1.345 0.2022,-0.3146 0.2425,-0.4772 0.2451,-0.9858 0,-0.6045 0,-0.6114 -0.368,-0.9386 -1.0751,-0.9546 -2.9034,-0.5095 -3.9032,0.9502 -0.5489,0.8011 -1.1684,2.2251 -1.0286,2.3649 0.09,0.09 1.8878,0.056 2.4998,-0.046 z m -38.0509,-0.7012 c -0.064,-0.9483 -0.5469,-2.0278 -1.1676,-2.6084 -0.7524,-0.704 -1.7894,-0.8461 -2.272,-0.3113 -0.2554,0.2829 -0.2098,1.1178 0.088,1.6275 0.3629,0.6193 1.1781,1.1873 2.0936,1.4588 0.2195,0.065 0.4791,0.1527 0.5769,0.1931 0.098,0.042 0.2965,0.067 0.4422,0.056 0.2566,-0.02 0.2643,-0.031 0.2382,-0.4175 z"
       id="path2780" /></g></svg>
