<?xml version="1.0" encoding="UTF-8" standalone="no"?>
<svg
   width="396.46973"
   height="102.25"
   viewBox="0 0 104.89928 27.053647"
   version="1.1"
   id="svg16"
   xml:space="preserve"
   xmlns="http://www.w3.org/2000/svg"
   xmlns:svg="http://www.w3.org/2000/svg"
   xmlns:rdf="http://www.w3.org/1999/02/22-rdf-syntax-ns#"
   xmlns:cc="http://creativecommons.org/ns#"
   xmlns:dc="http://purl.org/dc/elements/1.1/"><defs
     id="defs10" /><metadata
     id="metadata13"><rdf:RDF><cc:Work
         rdf:about=""><dc:format>image/svg+xml</dc:format><dc:type
           rdf:resource="http://purl.org/dc/dcmitype/StillImage" /></cc:Work></rdf:RDF></metadata><g
     id="layer1"
     transform="translate(1870.3404,-7348.4509)"><path
       id="path2756"
       style="font-size:11.0008px;line-height:1.25;font-family:'College Block 2.0';-inkscape-font-specification:'College Block 2.0, Normal';fill:#000000;stroke-width:1.5168"
       d="m -1799.5902,7348.4514 v 8.2008 h 5.5972 v -2.979 h 0.6717 v 16.6342 h -1.6344 v 5.191 h 8.8267 v -5.191 h -1.567 v -16.6342 h 0.5426 v 2.979 h 5.5976 v -8.2008 z m -67.1566,0.016 -3.5935,3.3463 v 20.3645 l 3.5935,3.3257 h 8.743 l 3.5878,-3.3309 v -4.8541 h -5.6085 v 2.9737 h -4.6906 v -16.6188 h 4.6906 v 2.9786 h 5.6085 v -4.8387 l -3.5878,-3.3463 z m 16.7361,0 -3.5939,3.3463 v 20.3645 l 3.5939,3.3257 h 8.4293 l 3.5935,-3.3257 v -20.3645 l -3.5935,-3.3463 z m 12.8288,0.016 v 5.2064 h 1.5391 v 16.6188 h -1.5391 v 5.1962 h 8.4464 v -5.1962 h -1.2204 v -4.2117 l 1.2764,3.9475 h 3.7611 l 1.0078,-3.5846 v 3.8488 h -0.9405 v 5.1962 h 8.1664 v -5.1962 h -1.6007 v -16.6188 h 1.6007 v -5.2064 h -7.3826 l -2.8938,9.5734 -2.8937,-9.5734 z m 21.3089,0 v 5.2064 h 1.5224 v 16.6188 h -1.5224 v 5.1962 h 15.4763 v -8.1854 h -5.5972 v 2.9737 h -2.6531 v -5.7036 h 5.3736 v -5.1909 h -5.3736 v -5.7088 h 2.6531 v 2.9891 h 5.5972 v -8.1955 z m 38.7167,0 -3.5882,3.3415 v 9.4492 l 3.5152,3.3154 h 6.1796 v 5.7036 h -4.0696 v -2.9786 h -5.6252 v 4.8643 l 3.5882,3.3207 h 8.127 l 3.5882,-3.3207 v -9.4282 l -3.6722,-3.3569 h -6.006 v -5.7039 h 4.0696 v 4.4036 h 5.6086 v -6.2685 l -3.5882,-3.3415 z m -21.6823,0.664 h 16.5328 v 6.8103 h -4.0947 v -2.9778 h -2.0472 v 18.023 h 1.5698 v 3.8038 h -7.3274 v -3.8038 h 1.632 v -18.023 h -2.1706 v 2.9778 h -4.0947 z m -67.5937,0.016 h 8.1124 l 3.1555,2.9348 v 3.8609 h -4.1101 v -2.9774 h -6.1881 v 18.0085 h 6.1881 v -2.9778 h 4.1101 v 3.8752 l -3.1555,2.9205 h -8.1124 l -3.156,-2.9205 v -19.7894 z m 16.7329,0 h 7.8046 l 3.1556,2.9348 v 19.7894 l -3.1556,2.9205 h -7.8046 l -3.1556,-2.9205 v -19.7894 z m 72.8585,0.013 h 7.4967 l 3.1555,2.9352 v 5.2855 h -4.1101 v -4.4023 h -5.5725 v 7.0952 h 6.4499 l 3.2327,2.949 v 8.8477 l -3.1555,2.9207 h -7.4967 l -3.156,-2.9207 v -3.8751 h 4.1256 v 2.9774 h 5.5725 v -7.0948 h -6.6193 l -3.0788,-2.9065 v -8.8769 z m -59.5893,0 h 6.0039 l 3.4632,11.4547 3.4636,-11.4547 h 6.0652 v 3.8184 h -1.6007 v 18.0085 h 1.6007 v 3.8037 h -6.6654 v -3.8037 h 0.9391 v -9.9733 l -2.3398,8.3206 h -2.617 l -2.5861,-8.0072 v 9.6599 h 1.2159 v 3.8037 h -6.9426 v -3.8037 h 1.5394 v -18.0085 h -1.5394 z m 21.3049,0 h 13.9778 v 6.81 h -4.0947 v -2.9916 h -4.1565 v 7.0949 h 5.3724 v 3.8041 h -5.3724 v 7.0952 h 4.1565 v -2.9778 h 4.0947 v 6.7958 h -13.9778 v -3.8037 h 1.5243 v -18.0085 h -1.5243 z m -33.6042,3.8042 v 18.0084 h 5.8802 v -18.009 z m 0.7505,0.6932 h 4.3824 v 16.6188 h -4.3824 z" /><path
       d="m -1866.4324,7349.1619 -3.1557,2.935 v 19.7893 l 3.1557,2.9207 h 8.1125 l 3.1557,-2.9207 v -3.8752 h -4.1101 v 2.9777 h -6.1883 v -18.0085 h 6.1883 v 2.9776 h 4.1101 v -3.8609 l -3.1557,-2.935 z m 23.5831,21.8268 h -5.8803 v -18.0085 h 5.8803 z m -6.8501,-21.8268 -3.1557,2.935 v 19.7893 l 3.1557,2.9207 h 7.8045 l 3.1558,-2.9207 v -19.7893 l -3.1558,-2.935 z m 18.9958,12.1814 2.5861,8.007 h 2.6169 l 2.3399,-8.3204 v 9.973 h -0.939 v 3.804 h 6.6655 v -3.804 h -1.601 v -18.0085 h 1.601 v -3.8182 h -6.0652 l -3.4636,11.4548 -3.4635,-11.4548 h -6.0035 v 3.8182 h 1.5393 v 18.0085 h -1.5393 v 3.804 h 6.9426 v -3.804 h -1.2162 z m 21.3049,9.6454 v -7.0951 h 5.3724 v -3.8041 h -5.3724 v -7.0951 h 4.1563 v 2.9919 h 4.0947 v -6.8101 h -13.9775 v 3.8182 h 1.5241 v 18.0085 h -1.5241 v 3.804 h 13.9775 v -6.7959 h -4.0947 v 2.9777 z m 16.8253,0.013 h -1.6317 v 3.804 h 7.3274 v -3.804 h -1.5702 v -18.0228 h 2.0474 v 2.9777 h 4.0947 v -6.8101 h -16.5329 v 6.8101 h 4.0948 v -2.9777 h 2.1705 z m 15.7324,-21.8268 -3.1557,2.9349 v 8.8761 l 3.0787,2.9064 h 6.6193 v 7.0951 h -5.5724 v -2.9776 h -4.1256 v 3.8752 l 3.1557,2.9207 h 7.4968 l 3.1556,-2.9207 v -8.8475 l -3.2327,-2.9492 h -6.4498 v -7.0951 h 5.5724 v 4.4024 h 4.1101 v -5.2858 l -3.1556,-2.9349 z"
       id="path2776"
       style="font-size:11.0008px;line-height:1.25;font-family:'College Block 2.0';-inkscape-font-specification:'College Block 2.0, Normal';fill:#d40000;fill-opacity:1;stroke:none;stroke-width:1.5168"
       aria-label="COMETS" /></g></svg>
