<?xml version="1.0" encoding="UTF-8" standalone="no"?>
<svg
   width="216.08008"
   height="215.4375"
   viewBox="0 0 57.171186 57.001173"
   version="1.1"
   id="svg16"
   xml:space="preserve"
   xmlns="http://www.w3.org/2000/svg"
   xmlns:svg="http://www.w3.org/2000/svg"
   xmlns:rdf="http://www.w3.org/1999/02/22-rdf-syntax-ns#"
   xmlns:cc="http://creativecommons.org/ns#"
   xmlns:dc="http://purl.org/dc/elements/1.1/"><defs
     id="defs10" /><metadata
     id="metadata13"><rdf:RDF><cc:Work
         rdf:about=""><dc:format>image/svg+xml</dc:format><dc:type
           rdf:resource="http://purl.org/dc/dcmitype/StillImage" /></cc:Work></rdf:RDF></metadata><g
     id="layer1"
     transform="translate(1846.925,-7273.9579)"><path
       id="path2719"
       style="fill:#030303;fill-opacity:1;stroke:none;stroke-width:0.58028"
       d="m -1818.613,7285.9403 v 0.014 h -0.2083 c -2.1859,0.05 -4.3649,0.5426 -6.3629,1.4619 -3.4297,1.5623 -6.2737,4.3069 -7.9551,7.6755 -1.0712,2.1488 -1.6938,4.5465 -1.7079,6.9587 -0.025,1.3606 0.061,2.7482 0.3855,4.1109 0.6001,2.6216 1.8644,5.1012 3.6437,7.1375 2.6713,3.0877 6.5032,5.149 10.5766,5.5909 1.1636,0.1087 2.3294,0.094 3.4805,0.024 h 0.012 0.012 c 1.6385,-0.1354 3.2321,-0.5619 4.7305,-1.1772 3.488,-1.4464 6.4489,-4.1164 8.2383,-7.4579 1.0466,-1.9587 1.7081,-4.0955 1.8846,-6.3237 0.079,-1.2029 0.075,-2.4465 -0.069,-3.6675 -0.4746,-3.6896 -2.2661,-7.1721 -4.9563,-9.7399 -2.3225,-2.2309 -5.3185,-3.7818 -8.5127,-4.3398 -0.8478,-0.1435 -1.6927,-0.2209 -2.5445,-0.2393 z m 0.2733,2.4231 c 1.1867,0.02 2.3958,0.082 3.5321,0.4506 0.5082,0.237 0.7979,0.7495 1.1214,1.1808 1.1328,1.6956 1.5078,3.7877 1.4578,5.7981 -0.05,2.0492 -0.4613,4.0789 -1.0795,6.0276 -0.044,0.1655 -0.1643,0.3579 -0.3333,0.3839 -0.4138,-0.146 -0.6057,-0.5762 -0.8734,-0.8893 -0.8655,-1.208 -1.4568,-2.579 -2.1342,-3.8949 -1.2151,-2.426 -2.5379,-4.8629 -4.4912,-6.783 -0.5665,-0.5612 -1.1772,-1.0749 -1.7777,-1.5989 1.352,-0.325 2.716,-0.6862 4.1176,-0.6692 h 0.4604 z m -6.474,1.5405 10e-4,5e-4 c 0.026,0.019 0.051,0.038 0.076,0.057 1.0304,0.7413 1.9965,1.5735 2.8474,2.5172 1.5195,1.6535 2.5964,3.6451 3.5899,5.6426 0.7219,1.4267 1.3984,2.878 2.2996,4.2044 0.4778,0.679 1.0851,1.2519 1.7018,1.8014 0.15,0.1377 0.074,0.3403 -0.022,0.4816 -0.102,0.2327 -0.2044,0.4658 -0.3059,0.6987 -3.1149,-1.6352 -6.2749,-3.1979 -9.2682,-5.0509 -1.7309,-1.1005 -3.4496,-2.3045 -4.7294,-3.9305 -0.4499,-0.5958 -0.8501,-1.264 -0.9886,-2.0061 -0.052,-0.2818 0.1069,-0.5333 0.2936,-0.7276 0.9835,-1.2057 2.1735,-2.238 3.4752,-3.0866 0.3369,-0.2114 0.6854,-0.4029 1.0299,-0.6015 z m 13.9346,0.6552 c 0.014,0 0.028,8e-4 0.043,0 0.3828,0.096 0.6498,0.4142 0.973,0.6207 1.8464,1.4013 3.3658,3.2492 4.3305,5.3598 0.2185,0.5724 -0.012,1.1787 -0.2331,1.711 -0.6872,1.714 -1.7809,3.3141 -3.3129,4.375 -0.7052,0.4626 -1.5532,0.7698 -2.405,0.6888 -0.2303,-0.031 -0.3603,-0.2988 -0.2445,-0.5002 0.359,-1.2152 0.6981,-2.4377 0.9328,-3.684 0.1918,-0.9409 0.3036,-1.8897 0.2816,-2.8433 -0.01,-0.9873 0.041,-1.9799 -0.073,-2.9626 -0.1169,-0.8056 -0.3413,-1.5779 -0.5897,-2.3481 -0.057,-0.205 0.087,-0.4185 0.2972,-0.4197 z m -20.02,5.655 c 0.019,0 0.039,0 0.057,0.014 v -6e-4 c 0.1628,0.095 0.2009,0.3104 0.3246,0.4476 0.726,1.1105 1.6892,2.0415 2.6861,2.9068 1.8305,1.5469 3.8974,2.7638 5.9867,3.9284 1.9956,1.109 4.0489,2.1103 6.0462,3.2148 0.1995,0.089 0.3433,0.3386 0.1994,0.5354 -0.1372,0.2724 -0.2692,0.6494 -0.6273,0.6754 -0.4655,-0.01 -0.9116,-0.2039 -1.3818,-0.1809 -2.4618,-0.1149 -4.9246,0.041 -7.3867,0.041 -1.2518,-0.015 -2.5099,-0.2237 -3.67,-0.7038 -1.4575,-0.6016 -2.6227,-1.8117 -3.2665,-3.2412 -0.2422,-0.5649 -0.5184,-1.1454 -0.5064,-1.7745 0.019,-1.4357 0.3026,-2.8618 0.7513,-4.223 0.184,-0.5313 0.3894,-1.0585 0.6331,-1.5638 0.037,-0.045 0.095,-0.075 0.1545,-0.075 z m 26.4149,3.7605 5e-4,0.01 c 0.023,0.115 0.044,0.2305 0.067,0.3452 0.1617,0.6813 0.1936,1.3839 0.1736,2.082 0.01,1.0852 -0.064,2.1768 -0.3369,3.2308 -0.1701,0.7228 -0.4009,1.4296 -0.6279,2.1363 -0.5541,0.08 -1.1169,0.143 -1.6748,0.061 -1.9628,-0.1382 -3.9155,-0.607 -5.6885,-1.4681 -0.2412,-0.1155 -0.3885,-0.3916 -0.2915,-0.6506 0.097,-0.2259 0.1771,-0.4956 0.3912,-0.6372 0.2918,-0.1495 0.6136,0.027 0.9198,0 0.9153,0.049 1.8627,-0.092 2.6712,-0.5204 1.5913,-0.7853 2.8152,-2.1477 3.7589,-3.6235 0.2125,-0.3202 0.4246,-0.6408 0.6377,-0.9607 z m -27.0924,7.7458 c 0.1449,0.08 0.2902,0.1594 0.4351,0.2392 0.7729,0.4405 1.5609,0.8723 2.4221,1.1157 1.1505,0.3645 2.3595,0.5242 3.5652,0.4972 2.4116,0.028 4.8226,-0.074 7.2336,-0.09 0.2347,-0.01 0.5551,0.1221 0.5121,0.4067 -0.079,0.2913 -0.3426,0.4845 -0.5177,0.7183 -1.267,1.4181 -2.8219,2.6689 -4.6757,3.2014 -0.9054,0.2379 -1.8559,0.2317 -2.7828,0.1597 -0.6304,-0.088 -1.2393,-0.3013 -1.817,-0.5623 -0.5277,-0.3168 -0.9257,-0.7987 -1.3678,-1.2185 -0.9888,-1.0198 -1.7874,-2.2067 -2.4516,-3.4587 -0.185,-0.3362 -0.3706,-0.6724 -0.5555,-1.0087 z m 17.7576,5e-4 c 0.041,0.021 0.083,0.043 0.125,0.062 1.4758,0.7866 3.0707,1.2557 4.7057,1.571 0.7974,0.1804 1.623,0.1784 2.42,0.3524 0.2298,0.083 0.1747,0.3733 0.036,0.5152 -1.262,1.8562 -2.9318,3.4391 -4.8767,4.5631 -0.1134,0.114 -0.3647,0.171 -0.4077,-0.036 -0.031,-1.0242 -0.061,-2.0796 -0.4507,-3.0448 -0.3701,-0.9872 -1.0164,-1.8532 -1.7937,-2.5575 -0.1415,-0.1227 -0.3929,-0.2851 -0.264,-0.5038 0.1686,-0.3073 0.3379,-0.6143 0.5059,-0.9219 z m -1.5658,2.6122 c 0.038,0.037 0.075,0.073 0.1127,0.1101 0.7806,0.6712 1.3416,1.5945 1.5477,2.6055 0.1706,0.8559 0.149,1.8308 -0.3793,2.5647 -0.3951,0.5393 -1.1059,0.6319 -1.7157,0.7478 -2.0263,0.3408 -4.1374,0.3033 -6.1216,-0.2512 -0.2273,-0.073 -0.3485,-0.3963 -0.14,-0.5586 0.2999,-0.1674 0.6619,-0.2181 0.9591,-0.369 2.0596,-0.8587 3.7625,-2.4105 5.1506,-4.1382 0.1955,-0.2369 0.3911,-0.4734 0.5865,-0.7106 z" /><path
       id="path2720"
       style="color:#000000;fill:#000000;stroke:none;stroke-width:0.58028;-inkscape-stroke:none"
       d="m -1816.9604,7273.9576 -2.5906,0.1969 0.1344,1.7616 -1.8929,0.1437 -0.1338,-1.7612 -2.5906,0.1969 0.3767,4.9527 2.5906,-0.1974 -0.1375,-1.8097 1.8924,-0.1437 0.1375,1.8097 2.5905,-0.1969 z m -8.8377,0.9519 -6.566,2.6851 0.725,1.773 1.9973,-0.817 1.155,2.8246 2.6256,-1.0733 -1.1549,-2.8246 1.943,-0.7948 z m 15.9225,0.2599 -2.0645,4.5175 2.2588,1.0325 0.5313,-1.1627 2.4985,1.1415 c 0.3864,0.1766 0.7026,0.2903 0.9483,0.3416 0.2457,0.051 0.502,0.042 0.7694,-0.025 0.2221,-0.058 0.4201,-0.1888 0.5938,-0.3912 0.1768,-0.2036 0.3244,-0.4346 0.4424,-0.6929 0.2745,-0.6007 0.313,-1.1135 0.1162,-1.5385 -0.1243,-0.2168 -0.313,-0.416 -0.5653,-0.5973 -0.2523,-0.1813 -0.5096,-0.3318 -0.7721,-0.4517 z m 1.5808,2.5161 1.3544,0.6191 c 0.2752,0.1257 0.4461,0.2173 0.5132,0.2759 0.098,0.085 0.1291,0.1694 0.091,0.2512 -0.016,0.034 -0.046,0.062 -0.093,0.087 -0.045,0.025 -0.098,0.032 -0.1622,0.021 -0.1238,-0.024 -0.3063,-0.091 -0.5478,-0.201 l -1.355,-0.6186 z m -25.7679,1.4842 c -0.2438,0.016 -0.4987,0.097 -0.7648,0.2428 -0.2645,0.145 -0.5043,0.3086 -0.7194,0.4904 l -3.901,3.2991 3.207,3.793 1.8511,-1.5658 -0.8253,-0.9761 1.1984,-1.0134 1.28,0.5917 1.9549,-1.6532 -1.4666,-0.6826 c 0.01,-0.02 0.03,-0.1435 0.07,-0.3679 0.072,-0.4052 -0.1125,-0.8679 -0.5524,-1.3881 -0.4279,-0.5059 -0.872,-0.7625 -1.3317,-0.7699 z m 32.629,1.2433 5e-4,0.01 c -0.079,0 -0.1586,-1e-4 -0.2393,0.01 -0.2135,0.023 -0.4126,0.07 -0.5973,0.1427 -0.1847,0.073 -0.3567,0.16 -0.5163,0.263 -0.1562,0.1029 -0.2927,0.2157 -0.4093,0.3375 -0.2461,0.2566 -0.4345,0.5861 -0.5648,0.989 -0.1302,0.4029 -0.1484,0.7996 -0.056,1.1896 0.041,0.1772 0.1096,0.3612 0.2052,0.5519 0.095,0.1907 0.1962,0.3624 0.3023,0.5153 0.1078,0.1545 0.2356,0.3167 0.3829,0.4867 0.1458,0.1717 0.2701,0.3104 0.3736,0.416 0.1051,0.1072 0.2248,0.2246 0.3581,0.3525 0.8969,0.8596 1.6824,1.3564 2.3565,1.4908 0.264,0.055 0.5381,0.054 0.8227,-0.01 0.2862,-0.058 0.5408,-0.1484 0.7637,-0.2708 0.2244,-0.1239 0.4145,-0.2676 0.5711,-0.431 0.2477,-0.2584 0.4362,-0.5897 0.5648,-0.9942 0.1302,-0.4061 0.1455,-0.8025 0.046,-1.1891 -0.1868,-0.7228 -0.7072,-1.4934 -1.5607,-2.3115 -0.8819,-0.8453 -1.6879,-1.3457 -2.4179,-1.5017 -0.1262,-0.027 -0.2547,-0.041 -0.386,-0.043 z m -33.3995,1.1581 c 0.05,0 0.09,0.023 0.1219,0.061 0.025,0.03 0.039,0.071 0.041,0.1241 0,0.049 -0.014,0.1 -0.05,0.1509 -0.071,0.099 -0.2054,0.2325 -0.4046,0.401 l -1.111,0.9394 -0.3086,-0.3653 1.1111,-0.939 c 0.2274,-0.1923 0.3802,-0.3051 0.4584,-0.3379 0.044,-0.019 0.084,-0.03 0.1193,-0.032 v 0 c 0.01,0 0.015,0 0.022,0 z m 33.9834,0.9446 v 5e-4 c 0.056,0 0.1122,0.01 0.1675,0.017 0.2461,0.053 0.5506,0.2547 0.9141,0.603 0.1,0.096 0.1806,0.1768 0.2424,0.2424 0.062,0.066 0.1344,0.1602 0.217,0.2842 0.084,0.1223 0.1391,0.237 0.1643,0.3442 0.034,0.148 0.026,0.3006 -0.024,0.4568 -0.049,0.1579 -0.1213,0.2865 -0.2171,0.3865 -0.093,0.097 -0.2171,0.1728 -0.3726,0.2284 -0.1524,0.056 -0.3034,0.069 -0.4527,0.042 -0.2524,-0.046 -0.5559,-0.2405 -0.911,-0.5808 -0.3551,-0.3403 -0.5638,-0.6379 -0.6263,-0.893 -0.035,-0.1495 -0.029,-0.3012 0.02,-0.4558 0.051,-0.1529 0.1228,-0.2788 0.2171,-0.3772 0.098,-0.1017 0.2224,-0.1821 0.3746,-0.2408 0.097,-0.037 0.1927,-0.056 0.2868,-0.057 z m -39.1092,3.1797 v 5e-4 c -0.3346,0.01 -0.646,0.079 -0.9343,0.2279 -0.6636,0.3421 -1.3001,1.02 -1.909,2.0334 -0.6291,1.0471 -0.9391,1.9438 -0.9296,2.6903 0.01,0.2063 0.038,0.4123 0.1064,0.6175 0.069,0.2032 0.1593,0.3868 0.2708,0.5509 0.1116,0.164 0.2354,0.3122 0.3711,0.445 0.135,0.1296 0.2746,0.2376 0.4191,0.3245 0.3049,0.1831 0.6681,0.2938 1.0898,0.3317 0.4217,0.038 0.8128,-0.031 1.1726,-0.2087 0.1636,-0.08 0.3276,-0.1871 0.4924,-0.3225 0.1649,-0.1353 0.31,-0.272 0.4357,-0.4093 0.1268,-0.1393 0.2564,-0.2993 0.3896,-0.4806 0.1351,-0.1801 0.2429,-0.3325 0.323,-0.4568 0.081,-0.1262 0.1694,-0.2684 0.2646,-0.4268 0.6399,-1.0648 0.9509,-1.9407 0.9327,-2.6278 -0.01,-0.2696 -0.067,-0.5374 -0.185,-0.8025 -0.1203,-0.2662 -0.2645,-0.4944 -0.433,-0.6847 -0.1706,-0.1914 -0.3528,-0.3449 -0.5468,-0.4615 -0.3069,-0.1843 -0.6721,-0.2948 -1.095,-0.3307 -0.08,-0.01 -0.1579,-0.01 -0.2351,-0.01 z m 45.1311,0.542 -4.3656,2.3684 3.0437,5.6115 1.6201,-0.879 -1.7018,-3.1357 2.7467,-1.4899 z m -45.4815,1.6904 c 0.02,0 0.04,2e-4 0.061,0.01 0.1648,0.013 0.3065,0.055 0.4253,0.1261 0.1148,0.069 0.2163,0.1732 0.3049,0.3127 0.088,0.1363 0.1346,0.2804 0.1405,0.432 0.01,0.2567 -0.1114,0.5954 -0.3648,1.017 -0.2533,0.4216 -0.4972,0.6913 -0.7322,0.8087 -0.1379,0.068 -0.2875,0.095 -0.4491,0.082 -0.1604,-0.016 -0.2987,-0.059 -0.4155,-0.1287 -0.1207,-0.073 -0.2268,-0.1766 -0.3178,-0.3121 -0.092,-0.1387 -0.1383,-0.284 -0.139,-0.4352 0,-0.2519 0.1268,-0.5936 0.386,-1.0252 0.071,-0.1187 0.1321,-0.2151 0.1824,-0.2899 0.051,-0.075 0.1269,-0.1664 0.2295,-0.2744 0.1007,-0.1093 0.2007,-0.1879 0.2997,-0.2362 0.1196,-0.058 0.2494,-0.084 0.3896,-0.08 z m -5.1149,5.2472 -0.5044,2.4283 2.3906,0.4966 -2.8805,1.8603 -0.5064,2.4387 4.8633,1.0097 0.5054,-2.4314 -2.3978,-0.4981 2.8887,-1.8655 0.5044,-2.4283 z m 54.3057,0.3628 -4.8705,0.9751 0.5462,2.7275 0.8356,-0.1674 0.5421,0.3612 -1.0909,1.2392 0.5783,2.8871 2.3198,-2.8985 2.5042,1.6924 -0.6325,-3.1584 -1.1271,-0.7426 0.9405,-0.1887 z m -6.767,22.1237 5e-4,5e-4 c -0.2912,-0.013 -0.6247,0.057 -0.9994,0.2083 -0.3287,0.1329 -0.6742,0.3726 -1.0366,0.7198 -0.1871,0.1806 -0.4777,0.5025 -0.8718,0.9653 l -0.092,0.1086 c -0.1723,0.2023 -0.3045,0.3608 -0.3969,0.4764 -0.093,0.1124 -0.2116,0.2662 -0.3566,0.4615 -0.1468,0.1937 -0.2671,0.3785 -0.3612,0.5534 -0.096,0.1732 -0.1698,0.3408 -0.2206,0.5039 -0.1477,0.4693 -0.1939,0.8488 -0.1396,1.1379 0.053,0.2876 0.2038,0.5381 0.4538,0.7509 0.3167,0.2697 0.6641,0.3834 1.0428,0.3415 0.3801,-0.044 0.7758,-0.2746 1.1865,-0.6929 0.144,-0.1476 0.3851,-0.4111 0.7235,-0.7907 0.3399,-0.3814 0.6159,-0.6792 0.8283,-0.893 0.2106,-0.2153 0.346,-0.3188 0.4057,-0.3105 0.063,0.011 0.087,0.069 0.071,0.1741 -0.033,0.1666 -0.1363,0.3527 -0.3116,0.5586 -0.1229,0.1443 -0.2598,0.2556 -0.4109,0.3333 -0.1515,0.074 -0.2682,0.094 -0.3498,0.057 l -1.8965,2.2278 c 0.4135,0.3521 0.995,0.3768 1.7446,0.074 0.3272,-0.1312 0.6772,-0.3769 1.05,-0.7364 0.1947,-0.1894 0.4958,-0.5233 0.9033,-1.002 0.01,-0.01 0.055,-0.064 0.1551,-0.1819 l 0.1819,-0.214 c 0.023,-0.027 0.082,-0.097 0.1772,-0.2129 0.096,-0.1159 0.1601,-0.1962 0.1943,-0.2398 0.036,-0.045 0.095,-0.1221 0.1788,-0.2304 0.085,-0.11 0.1456,-0.195 0.1835,-0.2538 0.039,-0.061 0.092,-0.1399 0.1581,-0.2387 0.066,-0.099 0.1163,-0.1818 0.1519,-0.2486 0.035,-0.07 0.073,-0.146 0.1122,-0.2279 0.038,-0.083 0.067,-0.1608 0.089,-0.233 0.074,-0.2372 0.1203,-0.4471 0.1385,-0.6289 0.02,-0.1835 0.01,-0.3462 -0.03,-0.4889 -0.039,-0.1428 -0.097,-0.2681 -0.1726,-0.3752 -0.078,-0.1085 -0.1805,-0.2172 -0.309,-0.3266 -0.6827,-0.5813 -1.4192,-0.4649 -2.2097,0.3494 -0.1544,0.1599 -0.4308,0.4558 -0.8289,0.8878 -0.3982,0.432 -0.6954,0.7417 -0.8919,0.9296 -0.1964,0.1879 -0.3248,0.2748 -0.385,0.26 -0.085,-0.021 -0.093,-0.1065 -0.023,-0.2564 0.072,-0.1516 0.1798,-0.3129 0.3251,-0.4836 0.1093,-0.1284 0.2381,-0.2283 0.3865,-0.2993 0.1499,-0.073 0.2657,-0.091 0.3473,-0.055 l 1.8521,-2.1751 c -0.2076,-0.1769 -0.457,-0.2715 -0.7483,-0.2842 z m -40.8843,5e-4 c -0.2131,0 -0.4148,0.028 -0.6047,0.087 -0.19,0.059 -0.3667,0.1318 -0.5312,0.2202 -0.163,0.09 -0.3142,0.1948 -0.4532,0.3131 -0.1813,0.1543 -0.3401,0.335 -0.4764,0.5421 -0.1364,0.2071 -0.2412,0.4475 -0.3142,0.7219 -0.07,0.2748 -0.083,0.5488 -0.039,0.8212 0.1109,0.7008 0.5715,1.5272 1.3818,2.4794 0.767,0.9011 1.4981,1.4747 2.1932,1.7208 0.3317,0.1153 0.6867,0.1346 1.065,0.059 0.3783,-0.076 0.7041,-0.208 0.9783,-0.3959 l -1.5322,-1.8004 c -0.101,0.052 -0.2128,0.087 -0.3354,0.1028 -0.1209,0.015 -0.2346,0.011 -0.3416,-0.032 -0.2631,-0.092 -0.5454,-0.3145 -0.8465,-0.6682 -0.3071,-0.3609 -0.4849,-0.6785 -0.5333,-0.9529 -0.029,-0.1548 -0.01,-0.3041 0.056,-0.448 0.066,-0.1439 0.155,-0.2639 0.2677,-0.3597 0.1144,-0.097 0.2474,-0.1678 0.3985,-0.2114 0.1543,-0.043 0.3073,-0.038 0.4588,0.015 0.2361,0.081 0.5157,0.3123 0.8393,0.6925 0.1018,0.1197 0.2087,0.2699 0.3204,0.4511 0.1134,0.1796 0.1865,0.3387 0.2196,0.4775 0.061,0.2426 0.01,0.4652 -0.169,0.6677 l 1.5276,1.7952 c 0.6189,-0.5814 0.8445,-1.2438 0.6764,-1.9869 -0.085,-0.3741 -0.2622,-0.7981 -0.5323,-1.2723 -0.2683,-0.4757 -0.5353,-0.8693 -0.8004,-1.1808 -0.1903,-0.2236 -0.3943,-0.4411 -0.6134,-0.6522 -0.2159,-0.2108 -0.4757,-0.4227 -0.7783,-0.6356 -0.3008,-0.2144 -0.5841,-0.3675 -0.8506,-0.4594 -0.2058,-0.071 -0.4159,-0.1071 -0.6304,-0.1096 z m 35.0872,5.162 -6.1495,3.5486 0.9581,1.6603 1.8707,-1.0795 1.527,2.6453 2.4588,-1.4195 -1.5265,-2.6448 1.8195,-1.0501 z m -28.7021,0.9787 c -0.2064,0.01 -0.4112,0.05 -0.6144,0.1246 -0.2013,0.075 -0.3824,0.1713 -0.5432,0.2878 -0.1608,0.1164 -0.3058,0.2442 -0.4345,0.384 -0.1257,0.1389 -0.2297,0.2818 -0.3122,0.4289 -0.1742,0.3104 -0.2738,0.6772 -0.2992,1.1002 -0.025,0.4231 0.056,0.8122 0.2439,1.1668 0.084,0.1613 0.1967,0.3218 0.337,0.4827 0.1403,0.1609 0.2805,0.3026 0.4216,0.4242 0.1432,0.1227 0.3078,0.2478 0.493,0.3757 0.1843,0.1298 0.3394,0.2332 0.4662,0.3096 0.1287,0.078 0.2739,0.1611 0.4351,0.2516 1.0843,0.6085 1.9699,0.8939 2.6567,0.8553 0.2697,-0.013 0.5353,-0.083 0.7968,-0.2088 0.2628,-0.1282 0.487,-0.2794 0.6723,-0.4537 0.1864,-0.1763 0.3351,-0.3632 0.446,-0.5607 0.1753,-0.3125 0.2749,-0.6807 0.2982,-1.1049 0.024,-0.4261 -0.06,-0.8145 -0.2538,-1.1642 -0.3619,-0.6536 -1.0589,-1.27 -2.0908,-1.849 -1.0662,-0.5983 -1.9722,-0.8816 -2.7187,-0.8501 z m 0.8702,1.912 h 5e-4 c 0.2519,-0.01 0.5974,0.1091 1.0367,0.3556 0.121,0.068 0.2198,0.1255 0.2961,0.1736 0.076,0.048 0.17,0.1222 0.2811,0.2217 0.1123,0.097 0.1942,0.1953 0.2455,0.293 0.07,0.1347 0.1,0.2835 0.09,0.4475 -0.01,0.1652 -0.046,0.3086 -0.1137,0.4295 -0.065,0.117 -0.1664,0.2214 -0.3033,0.3142 -0.1337,0.092 -0.2769,0.1435 -0.4284,0.1539 -0.2565,0.018 -0.599,-0.094 -1.0284,-0.3348 -0.4293,-0.2409 -0.7065,-0.4769 -0.831,-0.7085 -0.072,-0.1359 -0.1038,-0.285 -0.095,-0.447 0.011,-0.1609 0.05,-0.3012 0.1162,-0.4201 0.069,-0.123 0.17,-0.2315 0.3029,-0.3266 0.136,-0.096 0.2795,-0.1468 0.4309,-0.152 z m 21.0329,0.8723 -6.6157,1.3224 0.9747,4.8752 6.6156,-1.3224 -0.2713,-1.3565 -3.8174,0.7633 -0.085,-0.4248 3.7393,-0.7483 -0.2718,-1.3596 -3.7393,0.7477 -0.075,-0.3736 3.8174,-0.7632 z m -15.2859,0.2538 -0.738,4.9165 2.4304,0.3648 0.2759,-1.8345 0.8248,1.9994 0.9498,0.1426 1.3663,-1.6526 -0.2728,1.8169 2.4308,0.3648 0.738,-4.9159 -2.4304,-0.3649 v 0.013 l -1.9601,2.3843 -1.1818,-2.8701 z" /><path
       id="path2753"
       style="fill:#d40000;fill-opacity:1;stroke:none;stroke-width:0.545957"
       d="m -1818.3399,7288.3689 c -0.1534,0 -0.307,0 -0.4604,0 -1.4016,-0.017 -2.7655,0.3446 -4.1175,0.6696 0.6005,0.524 1.2114,1.0376 1.7779,1.5988 1.9533,1.9201 3.2761,4.3567 4.4912,6.7827 0.6774,1.3159 1.2686,2.687 2.1341,3.895 0.2677,0.3131 0.4598,0.7434 0.8736,0.8894 0.169,-0.026 0.289,-0.2186 0.3332,-0.3841 0.6182,-1.9487 1.0295,-3.9784 1.0794,-6.0276 0.05,-2.0104 -0.3248,-4.1021 -1.4576,-5.7977 -0.3235,-0.4313 -0.6133,-0.9442 -1.1215,-1.1812 -1.1363,-0.3691 -2.3457,-0.4301 -3.5324,-0.4504 z m -6.4736,1.535 c -0.3445,0.1986 -0.6932,0.3899 -1.0301,0.6013 -1.3017,0.8486 -2.4919,1.8811 -3.4754,3.0868 -0.1867,0.1943 -0.3455,0.4459 -0.2933,0.7277 0.1385,0.7421 0.5384,1.4104 0.9883,2.0062 1.2798,1.626 2.9989,2.8296 4.7298,3.9301 2.9933,1.853 6.1529,3.4158 9.2678,5.051 0.1015,-0.2329 0.2041,-0.4657 0.3061,-0.6984 0.096,-0.1413 0.172,-0.3442 0.022,-0.4819 -0.6167,-0.5495 -1.2235,-1.1223 -1.7013,-1.8013 -0.9012,-1.3264 -1.5778,-2.7776 -2.2997,-4.2043 -0.9935,-1.9975 -2.0704,-3.989 -3.5899,-5.6425 -0.8509,-0.9437 -1.8172,-1.7758 -2.8476,-2.5171 -0.025,-0.019 -0.05,-0.038 -0.076,-0.057 z m 13.977,0.6579 c -0.2328,-0.03 -0.4008,0.1985 -0.34,0.4171 0.2484,0.7702 0.473,1.5424 0.5899,2.348 0.1135,0.9827 0.067,1.9754 0.073,2.9627 0.022,0.9536 -0.09,1.9025 -0.2818,2.8434 -0.2347,1.2463 -0.5739,2.4686 -0.9329,3.6838 -0.1158,0.2014 0.014,0.4691 0.2443,0.5004 0.8518,0.081 1.7001,-0.2264 2.4053,-0.689 1.532,-1.0609 2.626,-2.6608 3.3132,-4.3748 0.2216,-0.5323 0.4512,-1.1389 0.2327,-1.7113 -0.9647,-2.1106 -2.4839,-3.9585 -4.3303,-5.3598 -0.3232,-0.2065 -0.5901,-0.5249 -0.9729,-0.6205 z m -20.0628,5.6525 c -0.059,0 -0.1171,0.03 -0.1541,0.075 -0.2437,0.5053 -0.4494,1.0327 -0.6334,1.564 -0.4487,1.3612 -0.7325,2.7872 -0.7512,4.2229 -0.012,0.6291 0.2643,1.2098 0.5065,1.7747 0.6438,1.4295 1.809,2.6396 3.2665,3.2412 1.1601,0.4801 2.4182,0.6893 3.67,0.7038 2.4621,0 4.925,-0.1559 7.3868,-0.041 0.4702,-0.023 0.9159,0.1716 1.3814,0.1808 0.3581,-0.026 0.4904,-0.4026 0.6276,-0.675 0.1439,-0.1968 0,-0.4468 -0.1995,-0.5358 -1.9973,-1.1045 -4.0508,-2.1054 -6.0464,-3.2144 -2.0893,-1.1646 -4.1558,-2.3816 -5.9863,-3.9285 -0.9969,-0.8653 -1.9602,-1.7964 -2.6862,-2.9069 -0.1237,-0.1372 -0.1617,-0.3527 -0.3245,-0.4474 v 3e-4 c -0.018,-0.012 -0.038,-0.013 -0.057,-0.014 z m 26.4153,3.7604 c -0.2131,0.3199 -0.4253,0.6403 -0.6378,0.9605 -0.9437,1.4758 -2.1678,2.8383 -3.7591,3.6236 -0.8085,0.4285 -1.756,0.5693 -2.6713,0.5205 -0.3062,0.027 -0.6276,-0.1495 -0.9194,0 -0.2141,0.1416 -0.2945,0.411 -0.3913,0.6369 -0.097,0.259 0.05,0.5352 0.2912,0.6507 1.773,0.8611 3.726,1.3302 5.6888,1.4684 0.5579,0.082 1.1206,0.019 1.6747,-0.061 0.227,-0.7067 0.4576,-1.4137 0.6277,-2.1365 0.2728,-1.054 0.3448,-2.1454 0.3373,-3.2306 0.02,-0.6981 -0.012,-1.4012 -0.1737,-2.0825 v 0 c -0.023,-0.1147 -0.044,-0.2301 -0.067,-0.3451 z m -27.093,7.7444 c 0.1851,0.3367 0.3706,0.6736 0.5559,1.0102 0.6642,1.252 1.463,2.4389 2.4518,3.4587 0.4421,0.4198 0.8402,0.9016 1.3679,1.2184 0.5777,0.261 1.1865,0.474 1.8169,0.5623 0.9269,0.072 1.8774,0.078 2.7828,-0.1599 1.8538,-0.5325 3.4086,-1.7832 4.6756,-3.2013 0.1751,-0.2338 0.4389,-0.427 0.5175,-0.7183 0.043,-0.2846 -0.2774,-0.4133 -0.5121,-0.4069 -2.411,0.016 -4.8219,0.1182 -7.2335,0.09 -1.2057,0.027 -2.4149,-0.1327 -3.5654,-0.4972 -0.8612,-0.2434 -1.6491,-0.6748 -2.422,-1.1153 -0.1451,-0.08 -0.2903,-0.1599 -0.4354,-0.2399 z m 17.7591,0 c -0.1683,0.3082 -0.3382,0.6157 -0.5071,0.9235 -0.1289,0.2187 0.1224,0.3814 0.2639,0.5041 0.7773,0.7043 1.424,1.5703 1.7941,2.5575 0.3902,0.9652 0.4199,2.0205 0.4507,3.0447 0.043,0.2072 0.294,0.15 0.4074,0.036 1.9449,-1.124 3.6148,-2.7069 4.8768,-4.5631 0.1385,-0.1419 0.1938,-0.4317 -0.036,-0.5149 -0.797,-0.174 -1.6228,-0.172 -2.4202,-0.3524 -1.635,-0.3153 -3.2297,-0.7844 -4.7055,-1.571 v 0 c -0.042,-0.02 -0.084,-0.042 -0.1254,-0.063 z m -1.5668,2.6144 c -0.1954,0.2372 -0.3909,0.4738 -0.5864,0.7107 -1.3881,1.7277 -3.0914,3.2796 -5.151,4.1383 -0.2972,0.1509 -0.6591,0.2014 -0.959,0.3688 -0.2085,0.1623 -0.087,0.4858 0.1403,0.5587 1.9842,0.5545 4.0953,0.592 6.1216,0.2512 0.6098,-0.1159 1.3201,-0.2085 1.7152,-0.7478 0.5283,-0.7339 0.5502,-1.7089 0.3796,-2.5648 -0.2061,-1.011 -0.7673,-1.9343 -1.5479,-2.6055 -0.038,-0.037 -0.074,-0.073 -0.1123,-0.1099 z" /></g></svg>
