<?xml version="1.0" encoding="UTF-8" standalone="no"?>
<svg
   width="353.96777"
   height="88.417969"
   viewBox="0 0 93.653971 23.393922"
   version="1.1"
   id="svg16"
   xml:space="preserve"
   xmlns="http://www.w3.org/2000/svg"
   xmlns:svg="http://www.w3.org/2000/svg"
   xmlns:rdf="http://www.w3.org/1999/02/22-rdf-syntax-ns#"
   xmlns:cc="http://creativecommons.org/ns#"
   xmlns:dc="http://purl.org/dc/elements/1.1/"><defs
     id="defs10" /><metadata
     id="metadata13"><rdf:RDF><cc:Work
         rdf:about=""><dc:format>image/svg+xml</dc:format><dc:type
           rdf:resource="http://purl.org/dc/dcmitype/StillImage" /></cc:Work></rdf:RDF></metadata><g
     id="layer1"
     transform="translate(1860.6448,-7232.3459)"><path
       id="path2754"
       style="-inkscape-font-specification:'I.F.C. HARDBALL, Normal';fill:#000000;fill-opacity:1;stroke:none;stroke-width:0.397362;stroke-linecap:square;paint-order:stroke fill markers"
       d="m -1813.3317,7232.8661 c -0.042,0.097 -0.2211,0.5968 -0.5137,1.4594 0.073,0.082 0.1467,0.1723 0.2207,0.2713 0.2069,0.3322 0.3059,0.6353 0.3059,0.9079 l -0.025,2.5865 c -1.0484,0 -2.0965,0 -3.1445,0.018 l -0.042,-2.5771 c -0.01,-0.4063 0.1666,-0.8133 0.5261,-1.2185 -0.09,-0.2423 -0.1442,-0.3721 -0.1442,-0.3721 -0.2376,-0.7052 -0.3696,-1.057 -0.3886,-1.0567 -0.5182,0.01 -1.0362,0.017 -1.5539,0.035 -0.2307,0 -0.4617,0.021 -0.6925,0.021 v 5e-4 c -0.2996,0.9564 -0.4418,1.4351 -0.4418,1.4531 0.078,0.078 0.1573,0.1683 0.2413,0.2703 0.2151,0.3176 0.3328,0.6017 0.3328,0.8511 l 0.2439,7.3195 c 0,0.1335 -0.028,0.3056 -0.095,0.5172 -0.062,0.1996 -0.1835,0.4097 -0.3638,0.6315 0.034,0.1171 0.1411,0.4169 0.3235,0.9121 0.1109,0.3337 0.1753,0.4972 0.1943,0.5152 v 5e-4 h 5e-4 v 6e-4 c 0.203,0 0.4066,-0.019 0.6098,-0.019 0.47,-0.012 0.9395,-0.03 1.4097,-0.03 0.037,-0.1081 0.1712,-0.5598 0.4387,-1.4428 -0.3412,-0.3965 -0.525,-0.8027 -0.525,-1.2206 l -0.042,-2.5684 c 1.0306,-0.018 2.0617,-0.036 3.0923,-0.018 l -0.025,2.6034 c 0,0.1975 -0.062,0.4347 -0.1783,0.7126 -0.081,0.1502 -0.1919,0.31 -0.3291,0.477 0.1149,0.3751 0.2284,0.7502 0.341,1.1255 0.055,0.1877 0.085,0.2963 0.1034,0.3121 6e-4,5e-4 0,0 0,0 l 5e-4,5e-4 h 5e-4 5e-4 5e-4 v 5e-4 h 5e-4 c 0.6725,0.01 1.3446,0.019 2.0165,0.037 h 0.018 c 0.1594,-0.472 0.3196,-0.9437 0.4832,-1.4149 -0.3179,-0.4165 -0.48,-0.8329 -0.462,-1.2506 l 0.1912,-7.0858 c 0.012,-0.4351 0.2005,-0.846 0.5711,-1.2294 -0.1956,-0.6741 -0.3045,-1.0252 -0.3225,-1.0552 -0.076,-0.2709 -0.124,-0.4214 -0.1442,-0.4305 h -5e-4 -5e-4 -5e-4 -5e-4 -6e-4 c -0.7442,-0.022 -1.4887,-0.041 -2.2324,-0.041 z m -2.6107,0.01 c 0.012,0.031 0.024,0.064 0.037,0.1008 0.064,0.175 0.1543,0.4383 0.2651,0.7689 0.018,0.011 0.018,0.012 0.018,0.03 0.01,0.024 0.014,0.051 0.032,0.084 0.027,0.066 0.062,0.1596 0.1055,0.2827 0.034,0.094 0.069,0.1876 0.1018,0.2806 -0.068,0.077 -0.1361,0.1519 -0.2031,0.2279 -0.3004,0.3361 -0.4005,0.6147 -0.4005,0.8728 l 0.025,2.0516 c 0.2352,-10e-5 0.4706,0 0.7059,0 l -0.014,-1.5296 c 0,-0.2583 0.1035,-0.5357 0.4036,-0.8703 0.068,-0.076 0.1358,-0.1517 0.2042,-0.2268 -0.033,-0.093 -0.065,-0.1875 -0.1003,-0.2812 -0.044,-0.1232 -0.077,-0.2166 -0.1039,-0.2831 -0.018,-0.033 -0.023,-0.06 -0.032,-0.084 0,-0.015 -0.013,-0.019 -0.017,-0.025 -3e-4,-5e-4 -3e-4,0 -5e-4,0 -10e-5,-6e-4 -5e-4,0 -5e-4,0 -0.109,-0.3315 -0.1963,-0.5951 -0.2589,-0.7704 -0.033,-0.092 -0.06,-0.1637 -0.083,-0.2212 -0.018,-0.028 -0.023,-0.053 -0.042,-0.09 -0.018,-0.018 -0.018,-0.039 -0.049,-0.079 -0.018,-0.021 -0.035,-0.048 -0.086,-0.093 -0.026,-0.023 -0.1199,-0.079 -0.1199,-0.079 -5e-4,-2e-4 -0.27,-0.062 -0.2703,-0.062 z m 5.4508,0.026 c 0.025,0.078 0.053,0.1762 0.083,0.2904 h 6e-4 v 0.018 c 0.01,0.023 0.01,0.045 0.025,0.072 0.016,0.054 0.038,0.1245 0.065,0.2145 0.054,0.1782 0.1293,0.439 0.2263,0.7761 0.026,0.092 0.052,0.1845 0.079,0.2775 -0.068,0.071 -0.1377,0.1409 -0.2057,0.2119 -0.3028,0.3118 -0.413,0.5911 -0.431,0.8904 l -0.2237,7.0853 c -0.01,0.277 0.086,0.5653 0.3498,0.9132 0.058,0.076 0.1141,0.1513 0.1721,0.2273 -0.2217,0.6301 -0.4401,1.2609 -0.6553,1.8924 -0.1069,0.051 -0.2131,0.1041 -0.3204,0.1551 -0.6735,-0.021 -1.3481,-0.039 -2.0226,-0.041 0.079,0.2615 0.2418,0.4554 0.5178,0.5018 0.7058,0.018 1.4112,0.028 2.1162,0.053 0.1074,-0.051 0.2132,-0.1019 0.3199,-0.1529 0.2179,-0.6301 0.4393,-1.2601 0.664,-1.8888 -0.056,-0.076 -0.1127,-0.1529 -0.169,-0.2284 -0.2605,-0.3491 -0.3527,-0.6382 -0.3421,-0.9152 l 0.2651,-7.0838 c 0.018,-0.2993 0.132,-0.578 0.4351,-0.8878 0.068,-0.071 0.1368,-0.1411 0.2057,-0.2109 -0.027,-0.093 -0.051,-0.1853 -0.077,-0.278 -0.093,-0.3376 -0.1686,-0.5991 -0.2206,-0.7777 -0.026,-0.09 -0.048,-0.1597 -0.065,-0.2139 0,-0.026 -0.018,-0.049 -0.025,-0.072 2e-4,0 0,-0.018 0,-0.018 l -5e-4,-5e-4 v -5e-4 c -0.035,-0.1319 -0.065,-0.2418 -0.093,-0.3256 -0.018,-0.046 -0.028,-0.083 -0.051,-0.1338 -0.018,-0.025 -0.024,-0.053 -0.06,-0.1054 -0.019,-0.026 -0.042,-0.06 -0.1003,-0.1075 -0.028,-0.024 -0.067,-0.051 -0.1245,-0.079 -0.028,-0.018 -0.063,-0.028 -0.1023,-0.037 -0.039,-0.018 -0.1315,-0.019 -0.1333,-0.019 -0.034,0 -0.068,-8e-4 -0.1024,0 z m -10.4153,0.3291 c -0.1163,0.01 -0.2322,0.014 -0.3483,0.02 0.069,0.1077 0.1591,0.2489 0.2661,0.4211 0.2574,0.4109 0.6515,1.0481 1.1338,1.8542 0.083,0.1397 0.166,0.2789 0.249,0.4196 -0.139,0.091 -0.2776,0.1829 -0.4165,0.2739 -0.3918,0.2591 -0.6873,0.4564 -0.8909,0.5901 -0.1028,0.067 -0.1797,0.1161 -0.2397,0.1551 -0.03,0.017 -0.057,0.03 -0.083,0.048 -0.012,0.01 -0.026,0.01 -0.051,0.026 -0.013,0.01 -0.027,0 -0.053,0.023 -0.012,0 -0.03,0.018 -0.054,0.018 -0.018,0 -0.072,0.01 -0.1,0.015 0.082,0.088 0.1573,0.1761 0.2264,0.2666 0.058,0.076 0.1161,0.1511 0.1741,0.2269 0.097,0 0.1948,-0.018 0.2925,-0.018 3e-4,0 0.091,-0.018 0.1163,-0.018 0.025,0 0.042,-0.018 0.054,-0.018 0.026,-0.018 0.041,-0.018 0.053,-0.023 0.025,-0.018 0.039,-0.019 0.051,-0.026 0.027,-0.018 0.053,-0.032 0.083,-0.049 0.06,-0.037 0.1374,-0.086 0.2398,-0.153 0.2033,-0.132 0.4984,-0.3282 0.8898,-0.585 0.051,-0.033 0.1029,-0.067 0.154,-0.1002 l -0.024,-0.6315 c -0.4572,-0.7763 -0.8309,-1.3913 -1.0774,-1.7921 -0.1302,-0.2103 -0.2325,-0.3747 -0.3044,-0.4884 -0.035,-0.058 -0.065,-0.1018 -0.088,-0.1369 -0.024,-0.035 -0.018,-0.035 -0.074,-0.1039 -0.06,-0.072 -0.1199,-0.144 -0.1793,-0.215 z m -0.9995,0.068 c -2.5031,0.1456 -5.0097,0.3692 -7.5127,0.6791 -0.031,0.056 -0.4188,0.9706 -1.0986,2.7512 v 5e-4 5e-4 c 0.01,0.01 0.034,0.027 0.083,0.058 0.6221,0.2403 1.0409,0.4159 1.2314,0.5059 10e-4,-2e-4 0.019,0 0.019,0 0.149,-0.282 0.3443,-0.5724 0.5871,-0.8702 0.4019,-0.4161 0.8484,-0.6508 1.3327,-0.7018 0.2422,-0.025 0.4843,-0.049 0.7266,-0.074 l 0.7503,7.567 c 0.043,0.4335 -0.083,0.8507 -0.3726,1.2542 0.1532,0.3701 0.2552,0.6089 0.3132,0.7214 0.1912,0.4767 0.291,0.7126 0.309,0.7126 0.6496,-0.065 1.3003,-0.1227 1.9524,-0.1757 v -0.018 c 0.019,-0.048 0.1316,-0.5501 0.3503,-1.5043 -0.3587,-0.3629 -0.5587,-0.7539 -0.5917,-1.1766 l -0.6118,-7.5799 c 0.2422,-0.02 0.4843,-0.039 0.7266,-0.057 0.2456,-0.018 0.5047,0.02 0.7756,0.1106 0.2065,0.05 0.4459,0.1832 0.7168,0.399 0.2585,0.2167 0.4833,0.4478 0.6738,0.6929 0.024,0 0.421,-0.2676 1.2041,-0.7865 -0.9494,-1.575 -1.4871,-2.4063 -1.5648,-2.5089 z m 18.5849,0.1793 -0.01,0.01 c -0.057,0.1136 -0.2745,0.5873 -0.6191,1.3694 0.056,0.08 0.1114,0.1609 0.1654,0.2419 0.1975,0.3555 0.2835,0.6526 0.2625,0.8893 l -0.6661,7.2482 c -0.01,0.046 -0.023,0.1289 -0.058,0.2485 -0.079,0.2903 -0.2594,0.5706 -0.54,0.8434 0,0.029 0.068,0.3465 0.2052,0.9534 0.067,0.3336 0.1003,0.5098 0.1188,0.5256 l 5e-4,5e-4 h 6e-4 l 5e-4,5e-4 h 5e-4 5e-4 c 0.6593,0.06 1.3182,0.1275 1.9756,0.1995 0.015,-0.033 0.2139,-0.4968 0.6077,-1.3865 -0.074,-0.102 -0.142,-0.2148 -0.202,-0.338 -0.1177,-0.2819 -0.1819,-0.5158 -0.1639,-0.7017 l 0.2062,-1.8686 c 1.1081,0.1221 2.2143,0.2604 3.3177,0.417 1.3581,-0.7689 2.0603,-1.1426 2.0603,-1.1426 -0.2306,-0.3597 -0.3202,-0.7054 -0.2692,-1.0382 l 0.247,-1.5916 0.2496,-1.6082 c 0.05,-0.3212 0.2464,-0.623 0.5922,-0.9028 -0.075,-0.083 -0.64,-0.6558 -1.7405,-1.697 -1.9097,-0.2707 -3.8245,-0.4935 -5.7423,-0.6697 z m -30.6513,1.0682 c -1.9442,0.3245 -3.8835,0.7045 -5.8152,1.1431 h -5e-4 v 0.018 c -0.1213,0.9854 -0.1653,1.489 -0.1653,1.512 0.4399,0.2911 0.7044,0.6477 0.7994,1.0661 l 1.557,6.8585 c 0.095,0.4191 0.024,0.8509 -0.2067,1.2981 0.055,0.1088 0.2017,0.3619 0.4454,0.7726 0.1857,0.3374 0.2892,0.5075 0.3142,0.5255 v 5e-4 h 6e-4 5e-4 5e-4 v -5e-4 h 5e-4 c 0.6449,-0.1469 1.2921,-0.2862 1.9415,-0.4181 0.051,-0.4963 0.1047,-0.9924 0.1617,-1.4888 -0.1076,-0.08 -0.2045,-0.1621 -0.2925,-0.2521 -0.2336,-0.2728 -0.379,-0.542 -0.433,-0.8093 l -0.5111,-2.5073 c 0.331,-0.067 0.6621,-0.1339 0.9938,-0.1969 0.4467,0.7059 0.8868,1.4139 1.3198,2.1254 0.3732,0.5794 0.5724,0.9508 0.5984,1.1038 l 0.018,0.068 c 0.019,0.1143 0.01,0.2334 -0.039,0.3601 0,0.023 0.03,0.061 0.081,0.1179 0.3893,0.5011 0.6395,0.8199 0.7767,0.9782 0.6385,-0.1096 1.2787,-0.212 1.9208,-0.309 0,-0.041 -0.021,-0.5254 -0.056,-1.4532 -0.3945,-0.1524 -0.7265,-0.4239 -0.9968,-0.8159 -0.148,-0.2412 -0.6222,-1.0688 -1.4604,-2.4691 -9e-4,0 0.6035,-0.794 1.3348,-1.7007 0.013,0.01 0.025,0.01 0.038,0.017 -0.01,-0.01 -0.017,-0.018 -0.029,-0.03 0.094,-0.1162 0.1833,-0.2299 0.3188,-0.3953 0,-0.01 -0.016,-0.02 -0.042,-0.039 -0.2013,-0.087 -0.3241,-0.2856 -0.3721,-0.5953 l -0.042,-0.2755 c -0.065,-0.4287 -0.1661,-1.1305 -0.2998,-2.0944 -0.045,-0.2984 0.059,-0.6375 0.3173,-1.016 -0.021,-0.014 -0.728,-0.3945 -2.1683,-1.0955 z m 42.3338,0.5007 v 6e-4 5e-4 c -1.47,0.6645 -2.1957,1.0155 -2.1957,1.0335 0.058,0.093 0.1178,0.1991 0.1798,0.3152 0.1041,0.2547 0.146,0.4778 0.123,0.6682 -0.1207,0.6866 -0.2109,1.2034 -0.2739,1.5519 l -0.8413,4.6167 c -0.063,0.3435 -0.1559,0.835 -0.279,1.48 h -5e-4 -5e-4 c 0,0 -0.021,0.03 -0.021,0.076 -0.061,0.237 -0.2525,0.4936 -0.5731,0.7726 0.2764,0.3252 0.6165,0.7138 1.0439,1.202 0.2829,0.3449 0.4381,0.5281 0.4687,0.5338 2e-4,0 0,5e-4 0,5e-4 0.078,0.016 0.1546,0.028 0.2326,0.046 1.2096,0.2436 2.4131,0.5081 3.6085,0.7953 0.019,0 0.037,-1e-4 0.037,-0.018 1.3484,-0.6317 2.0557,-0.9225 2.0557,-0.9405 -0.2127,-0.349 -0.2423,-0.831 -0.086,-1.4444 l 1.2599,-4.9304 c 0.1174,-0.4598 0.308,-1.1799 0.5685,-2.1487 0.07,-0.2756 0.298,-0.5421 0.6867,-0.7948 -0.276,-0.3468 -0.6426,-0.7856 -1.0976,-1.3028 -0.3051,-0.3697 -0.4768,-0.567 -0.5126,-0.5731 -3e-4,0 0,0 0,0 -1.3588,-0.3249 -2.7209,-0.6207 -4.085,-0.8888 l -0.262,-0.051 c -0.012,0 -0.03,-6e-4 -0.03,0 h -0.01 -5e-4 -5e-4 z m -39.4027,0.4682 c -0.093,0.1348 -0.1863,0.269 -0.2791,0.4047 -0.2132,0.311 -0.2551,0.5233 -0.2361,0.6552 0.1294,0.9637 0.2248,1.6658 0.2878,2.0898 l 0.04,0.2754 c 0.023,0.1594 0.047,0.19 0.055,0.1954 2e-4,1e-4 0,4e-4 0,5e-4 l 5e-4,5e-4 h 6e-4 5e-4 5e-4 c 0.018,0.01 0.035,0.023 0.053,0.023 0.014,0.01 0.028,0.015 0.046,0.033 0.022,0.016 0.044,0.032 0.076,0.06 0.015,0.014 0.033,0.032 0.063,0.067 0.028,0.036 0.087,0.076 0.1122,0.2552 l 0.032,0.2253 c -0.049,0.059 -0.099,0.1188 -0.1478,0.1788 -0.5575,0.6798 -0.9903,1.2286 -1.2542,1.5664 -0.081,0.1027 -0.1382,0.179 -0.1912,0.247 0.6489,1.099 1.1318,1.9441 1.2496,2.1399 0.217,0.316 0.4553,0.5091 0.7477,0.6217 0.066,0.026 0.1316,0.052 0.1974,0.077 -0.077,-0.08 -0.1501,-0.1716 -0.2212,-0.277 -0.1178,-0.1966 -0.592,-1.0453 -1.2309,-2.1492 0.053,-0.067 0.1128,-0.1439 0.1922,-0.245 0.2646,-0.3358 0.6985,-0.8813 1.2573,-1.557 0.049,-0.06 0.099,-0.1178 0.1478,-0.1772 l -0.032,-0.2259 c -0.024,-0.1793 -0.081,-0.2202 -0.1106,-0.2563 -0.028,-0.035 -0.048,-0.053 -0.063,-0.068 -0.032,-0.03 -0.053,-0.044 -0.076,-0.062 -0.018,-0.018 -0.032,-0.023 -0.046,-0.033 -0.018,0 -0.035,-0.018 -0.053,-0.023 h -5e-4 -6e-4 v -5e-4 -6e-4 c 0,0 -0.033,-0.035 -0.054,-0.1958 l -0.039,-0.276 c -0.054,-0.3916 -0.1375,-1.0196 -0.246,-1.8717 -0.027,-0.017 -0.049,-0.031 -0.076,-0.051 -0.017,-0.01 -0.033,-0.023 -0.063,-0.049 -0.016,-0.012 -0.034,-0.028 -0.062,-0.063 -0.014,-0.017 -0.034,-0.04 -0.053,-0.077 -0.011,-0.017 -0.032,-0.068 -0.032,-0.068 0,0 -0.026,-0.1052 -0.026,-0.1054 l -0.018,-0.1266 c 0.014,-0.04 0.028,-0.08 0.046,-0.1214 0.1102,-0.2916 0.2144,-0.5643 0.3111,-0.8145 -0.185,-0.1329 -0.2628,-0.191 -0.3064,-0.2222 z m 29.6705,0.1649 c 0.8142,0.09 1.6277,0.1883 2.4402,0.2956 0.156,0.1843 0.2886,0.3481 0.3994,0.4924 l -0.4377,3.2179 c -0.2821,0.2126 -0.4223,0.3271 -0.4403,0.3271 -0.8012,-0.106 -1.6043,-0.2039 -2.4076,-0.2919 z m -22.2364,0.2279 c -0.02,6e-4 -0.04,0 -0.06,0 -0.056,0.018 -0.1135,0.018 -0.1705,0.018 l 0.5359,7.058 c 0.022,0.2841 0.1427,0.5487 0.4356,0.8459 0.068,0.069 0.1366,0.1367 0.2046,0.2077 -0.023,0.095 -0.044,0.1908 -0.067,0.2858 -0.048,0.2033 -0.2072,0.8921 -0.2552,1.0956 -0.029,0.1263 -0.053,0.2231 -0.071,0.2971 -0.019,0.073 0,0.057 -0.054,0.1886 -0.011,0.026 -0.014,0.053 -0.032,0.079 -0.066,0.08 -0.1304,0.1608 -0.1974,0.2398 -0.6847,0.054 -1.3685,0.1139 -2.0506,0.1808 0.1066,0.2721 0.2815,0.4276 0.5752,0.4589 0.7131,-0.067 1.4274,-0.1244 2.1435,-0.1762 0.065,-0.079 0.1318,-0.1602 0.198,-0.2388 0.018,-0.026 0.021,-0.053 0.032,-0.078 0.053,-0.1319 0.037,-0.1141 0.054,-0.1881 0.018,-0.074 0.042,-0.1707 0.072,-0.2971 0.047,-0.1971 0.2131,-0.8969 0.2604,-1.094 0.023,-0.095 0.046,-0.1903 0.068,-0.2853 -0.067,-0.071 -0.1356,-0.1385 -0.203,-0.2087 -0.29,-0.2992 -0.4092,-0.5649 -0.429,-0.8491 l -0.4935,-7.0611 c 0.056,0 0.113,5e-4 0.1711,-0.017 0.1565,-0.018 0.3327,0.018 0.5416,0.084 h 0.02 c -0.063,-0.059 -0.1283,-0.1172 -0.1969,-0.1747 -0.2311,-0.1822 -0.4181,-0.2704 -0.4951,-0.2894 h -0.026 -0.025 c -0.1842,-0.055 -0.3434,-0.09 -0.4853,-0.085 z m 28.5435,0 c -0.137,0.109 -0.2733,0.217 -0.4093,0.3271 -0.2779,0.2237 -0.3838,0.4148 -0.4118,0.5871 l -0.2574,1.6071 -0.2552,1.5906 c -0.031,0.1895 0.01,0.394 0.1896,0.677 0.036,0.056 0.072,0.1119 0.107,0.1689 l -0.032,0.1943 -0.095,0.2243 -0.054,0.063 c 0,0 -0.031,0.042 -0.049,0.042 -0.015,0.022 -0.03,0.024 -0.034,0.025 h -5e-4 c -0.01,0.018 -0.024,0.018 -0.024,0.018 -0.012,0 -0.017,0.019 -0.035,0.019 -0.027,0.014 -0.059,0.033 -0.1034,0.058 -0.4095,0.2131 0.012,-0.01 -0.3917,0.2134 -0.3291,0.1797 -0.877,0.4785 -1.5389,0.8522 -0.053,0.03 -0.1036,0.06 -0.1566,0.09 -0.9836,-0.1411 -1.9693,-0.2676 -2.9569,-0.3819 l -0.1514,1.3157 c 0,0.059 0.027,0.227 0.1178,0.4558 0.045,0.09 0.093,0.1719 0.1442,0.2429 0.059,0.083 0.1182,0.165 0.1782,0.248 -0.042,0.094 -0.083,0.1881 -0.1245,0.2811 -0.3976,0.8879 -0.575,1.2986 -0.617,1.3896 -0.051,0.1144 -0.1035,0.2288 -0.1545,0.3431 -0.7725,-0.087 -1.5464,-0.1668 -2.3213,-0.2377 0.035,0.01 0.071,0.018 0.1075,0.024 0.109,0.508 0.3687,0.57 0.4878,0.57 0.7725,0.076 1.544,0.1601 2.3141,0.2517 0.053,-0.1143 0.1038,-0.2286 0.1565,-0.3427 0.042,-0.09 0.2218,-0.5003 0.6233,-1.3859 0.042,-0.093 0.084,-0.1866 0.1266,-0.2801 -0.058,-0.083 -0.1159,-0.167 -0.1757,-0.2491 -0.051,-0.071 -0.099,-0.1533 -0.1427,-0.2439 -0.09,-0.2294 -0.1159,-0.3964 -0.1142,-0.4558 l 0.1597,-1.3152 c 0.9821,0.1196 1.9621,0.252 2.9399,0.3985 0.051,-0.03 0.1038,-0.058 0.1566,-0.088 0.6613,-0.3701 1.2084,-0.6664 1.5373,-0.8439 0.3905,-0.2108 6e-4,-4e-4 0.3917,-0.2113 0.044,-0.025 0.077,-0.042 0.1034,-0.057 0.018,0 0.023,-0.018 0.035,-0.019 h 5e-4 c 0,-2e-4 0.018,0 0.024,-0.018 0,0 0.018,2e-4 0.035,-0.025 0.018,0 0.049,-0.042 0.049,-0.042 l 0.057,-0.063 c 0,-1e-4 0.095,-0.2232 0.095,-0.2232 l 0.034,-0.1943 c -0.035,-0.057 -0.071,-0.1126 -0.1054,-0.169 -0.1772,-0.2838 -0.2155,-0.4882 -0.184,-0.6775 l 0.2656,-1.589 0.2682,-1.6046 c 0.028,-0.1724 0.1355,-0.3631 0.414,-0.5855 0.1389,-0.1107 0.2784,-0.2214 0.4185,-0.3318 -0.1196,-0.1355 -0.4996,-0.485 -0.6196,-0.6201 -0.01,-0.01 -0.015,-0.015 -0.022,-0.022 z m -31.9794,0.3095 c -0.056,0 -0.1146,0.018 -0.1706,0.018 -0.3294,0.035 -0.6382,0.186 -0.9663,0.5189 -0.2165,0.267 -0.3898,0.5233 -0.5183,0.7632 -0.044,0.084 -0.089,0.1682 -0.1333,0.2522 -0.1583,0.02 -0.3167,0.039 -0.475,0.06 -0.049,-0.025 -0.1003,-0.048 -0.1493,-0.071 -0.1192,-0.056 -0.3823,-0.1683 -0.7627,-0.3199 0.01,0.01 0.012,0.016 0.016,0.023 0.028,0.035 0.046,0.051 0.06,0.065 0.03,0.026 0.046,0.039 0.062,0.049 0.032,0.023 0.058,0.04 0.09,0.059 0.018,0.018 0.03,0.019 0.044,0.028 0.018,0 0.032,0.018 0.049,0.019 0.6127,0.2426 1.0296,0.4228 1.189,0.4997 0.049,0.023 0.098,0.048 0.1478,0.071 0.1583,-0.019 0.3152,-0.037 0.4729,-0.057 0.044,-0.084 0.09,-0.1674 0.1333,-0.2516 0.1284,-0.2391 0.3038,-0.4937 0.5209,-0.7592 0.1547,-0.1558 0.3048,-0.2715 0.4548,-0.3534 z m 26.1663,0.046 -0.3436,2.9942 c 0.2327,0.027 0.4651,0.054 0.6976,0.082 l 0.2951,-2.4768 c 0.3559,0.044 0.712,0.088 1.0676,0.1354 l 0.051,-0.3886 c -0.037,-0.047 -0.077,-0.093 -0.1178,-0.1442 -0.5495,-0.072 -1.0993,-0.1391 -1.6496,-0.2021 z m -43.4774,0.4253 c -1.447,0.3938 -2.9038,0.8353 -4.36,1.3348 v 6e-4 c -0.017,0 -0.035,0.017 -0.035,0.017 v 5e-4 c -0.9924,1.3326 -1.45,2.0202 -1.45,2.0382 0.1013,0.049 0.2097,0.1077 0.324,0.1757 0.2256,0.1637 0.3782,0.3346 0.4552,0.5105 0.2463,0.6517 0.4316,1.1478 0.553,1.4795 l 1.6211,4.4163 c 0.1209,0.3292 0.2907,0.7996 0.5126,1.4201 l -5e-4,5e-4 h -5e-4 v 5e-4 5e-4 c -2e-4,3e-4 -4e-4,8e-4 -5e-4,0 0,0.01 0,0.034 0.02,0.075 0.069,0.2356 0.037,0.5523 -0.086,0.9524 0.3857,0.1422 0.8765,0.3164 1.4671,0.5302 0.413,0.165 0.6292,0.2372 0.6552,0.2372 1.1995,-0.4047 2.4294,-0.7804 3.6799,-1.1369 0.022,-0.01 1.06,-1.4431 1.2165,-1.6547 0.097,-0.1309 0.1478,-0.2021 0.1478,-0.2021 -0.089,-0.052 -0.1721,-0.1152 -0.2491,-0.1922 -0.229,-0.2265 -0.4049,-0.569 -0.5245,-1.0268 l -1.2888,-4.9206 c -0.1203,-0.4588 -0.3029,-1.18 -0.5447,-2.1529 -0.053,-0.2026 -0.028,-0.4413 0.074,-0.7152 0.037,-0.099 0.085,-0.2031 0.1426,-0.3105 -0.078,-0.032 -0.1611,-0.065 -0.2491,-0.1003 -0.366,-0.1498 -0.8183,-0.3256 -1.3451,-0.5157 -0.4553,-0.1812 -0.7002,-0.2548 -0.7322,-0.2548 z m 9.417,0.035 c 0.2698,0.1695 0.5214,0.3375 0.756,0.5028 l 0.3344,1.9301 c -0.1386,0.1955 -0.3101,0.4297 -0.5168,0.7095 -0.7378,0.1327 -1.4743,0.2738 -2.2092,0.4233 l -0.6377,-3.1296 c 0.7563,-0.1542 1.5144,-0.299 2.2733,-0.4361 z m 52.1999,0.4826 c -0.3053,0.4255 -0.6076,0.8526 -0.908,1.2806 v 0.018 c 0.2709,0.4454 0.3201,0.9501 0.1566,1.5136 l -1.9265,6.6363 c -0.1182,0.4073 -0.3911,0.7449 -0.8139,1.0175 0,0.3933 0.018,0.6346 0.018,0.7276 0.01,0.5089 0.01,0.7695 0.025,0.7875 1.6731,0.4834 3.3254,1.0154 4.9506,1.601 0.1015,-0.087 0.7958,-0.7715 2.1477,-2.0077 h 5e-4 c 0,-0.01 -0.012,-0.033 -0.042,-0.081 -0.3987,-0.5175 -0.6645,-0.8548 -0.7823,-1.0149 h -0.018 c -0.2585,0.1902 -0.5558,0.3676 -0.8914,0.5312 -0.5205,0.2093 -0.9903,0.2446 -1.4186,0.1003 -0.4875,-0.1634 -0.977,-0.3227 -1.4681,-0.4775 l 2.1544,-6.8286 c 0.085,-0.2718 0.1298,-0.4161 0.1478,-0.4371 0.159,-0.5039 0.466,-0.8706 0.9271,-1.094 -0.014,-0.6093 -0.033,-0.9684 -0.033,-1.0444 0,-0.3533 -0.01,-0.5365 -0.023,-0.5545 v -5e-4 l -5e-4,-5e-4 h -5e-4 c -0.7286,-0.231 -1.4593,-0.453 -2.1916,-0.6656 z m -52.3369,0.074 c -0.4951,0.09 -0.9895,0.1831 -1.4836,0.2821 l 0.4155,2.1022 c 0.2305,-0.046 0.4616,-0.091 0.6925,-0.1344 l -0.3039,-1.5952 c 0.3653,-0.069 0.7308,-0.1365 1.0966,-0.2021 l -0.036,-0.2 c -0.1225,-0.084 -0.2495,-0.1686 -0.3814,-0.2526 z m 44.4325,0.018 c 0.527,0.1097 1.0533,0.2243 1.5792,0.3421 0.3819,0.4192 0.5768,0.627 0.5948,0.645 l -1.6929,7.2646 c -0.1115,0.055 -0.3567,0.1661 -0.7653,0.3514 -0.4803,-0.1089 -0.9621,-0.2137 -1.4444,-0.3157 -0.3582,-0.4017 -0.5411,-0.6148 -0.5591,-0.6408 l 1.4784,-7.2967 c 0.1572,-0.073 0.4309,-0.1934 0.8093,-0.3499 z m -50.6269,0.01 c -0.087,0.1599 -0.1736,0.3195 -0.2599,0.4801 -0.1759,0.3423 -0.2023,0.5615 -0.1763,0.6635 v 0 h 5e-4 c 0.236,0.9731 0.4141,1.6945 0.5302,2.1497 l 1.2604,4.9264 c 0.1359,0.5316 0.3298,0.7851 0.5173,0.8924 0.065,0.039 0.1287,0.076 0.1937,0.1127 l 0.088,0.3488 c -0.01,0.041 -0.025,0.079 -0.025,0.1194 0,0 -0.035,0.09 -0.035,0.1095 0,0.018 -0.018,0.037 -0.018,0.037 0,0.012 -0.018,0.03 -0.018,0.03 -0.018,0.01 -0.018,0.024 -0.018,0.024 -0.01,0.013 -0.023,0.015 -0.023,0.033 -0.017,0.022 -0.038,0.054 -0.068,0.093 -0.1015,0.137 -0.1543,0.2059 -0.2563,0.3431 0,0 -0.044,0.058 -0.044,0.058 -0.2135,0.2876 -0.9885,1.3637 -1.0185,1.3937 -0.1033,0.099 -0.1723,0.1086 -0.2233,0.1266 -1.2422,0.3549 -2.4624,0.7274 -3.6509,1.1281 -0.093,0.032 -0.1459,0.038 -0.1793,0.035 0.3029,0.1074 0.6197,0.3529 0.9472,0.2739 1.1886,-0.3881 2.4081,-0.7509 3.6494,-1.0992 0.051,-0.018 0.1214,-0.028 0.2232,-0.125 0.032,-0.028 0.3883,-0.5276 0.5251,-0.7137 0.216,-0.2933 0.402,-0.5422 0.5379,-0.7229 0.1021,-0.1372 0.1549,-0.2044 0.2574,-0.3411 0.03,-0.039 0.051,-0.068 0.068,-0.093 0,-0.018 0.018,-0.021 0.025,-0.034 v -5e-4 c 2e-4,0 0,-0.018 0.018,-0.024 0,0 0.018,-0.018 0.018,-0.03 0,0 0.018,-0.019 0.018,-0.037 0,-0.018 0.035,-0.109 0.035,-0.109 l 0.026,-0.1194 -0.084,-0.3493 c -0.063,-0.039 -0.1281,-0.076 -0.1917,-0.1148 -0.1859,-0.1091 -0.3772,-0.3639 -0.5091,-0.8965 l -1.2211,-4.9357 c -0.1125,-0.4559 -0.285,-1.1785 -0.5136,-2.1533 h -6e-4 -5e-4 c -0.025,-0.102 -2e-4,-0.3215 0.1778,-0.662 0.088,-0.1619 0.1567,-0.3242 0.246,-0.4863 -0.1724,-0.076 -0.3449,-0.1495 -0.5178,-0.2232 -0.1047,-0.036 -0.2083,-0.072 -0.3111,-0.1075 z m 50.7008,0.5426 c -0.1622,0.067 -0.2842,0.1199 -0.3897,0.1669 l -1.4102,6.781 c 0.064,0.073 0.1685,0.1904 0.2723,0.3064 0.1127,0.024 0.2254,0.048 0.338,0.072 l 1.3983,-6.5014 c 0.1055,-0.046 0.2278,-0.099 0.3897,-0.1654 l -0.01,-0.01 c 0.2815,0.061 0.5627,0.1241 0.8439,0.1876 l 0.06,-0.2666 c -0.07,-0.076 -0.1761,-0.1941 -0.2852,-0.3137 -0.4031,-0.09 -0.8074,-0.178 -1.2113,-0.262 z m 5.6999,0.1798 c -0.1465,0.094 -0.2931,0.1877 -0.4382,0.2817 -0.3258,0.2108 -0.4495,0.3946 -0.4755,0.4966 -0.2656,0.9662 -0.4586,1.6847 -0.5782,2.1394 l -1.2883,4.9242 c -0.1393,0.5314 -0.093,0.8468 0.019,1.0325 0.039,0.064 0.077,0.1293 0.1158,0.1923 l -0.093,0.3478 c -0.2172,0.2463 -0.4762,0.347 -0.7891,0.4666 -0.3298,0.1481 -0.8712,0.3927 -1.5296,0.7002 0.014,-0.014 0.021,-0.028 0.039,-0.046 -0.048,0.035 -0.097,0.072 -0.139,0.09 -0.1374,0.035 -0.2058,0.019 -0.2568,5e-4 -1.1884,-0.2854 -2.3856,-0.5491 -3.5885,-0.7916 -0.2104,-0.042 -0.3832,-0.086 -0.5276,-0.2124 0.028,0.033 0.057,0.066 0.086,0.1 0.22,0.2441 0.4049,0.6049 0.7374,0.6997 1.2719,0.2621 2.5365,0.5479 3.791,0.8584 0.051,0.018 0.1176,0.035 0.2548,0 0.042,-0.018 0.091,-0.055 0.139,-0.088 l -0.039,0.046 c 0.6568,-0.304 1.1967,-0.5454 1.526,-0.6914 0.1724,-0.076 0.3018,-0.1339 0.3912,-0.1726 0.044,-0.019 0.079,-0.035 0.1055,-0.048 0.018,0 0.025,-0.018 0.037,-0.018 h 5e-4 c 0,-2e-4 0.019,0 0.026,-0.018 h 5e-4 c 0,-2e-4 0.019,0 0.029,-0.018 0,0 0.018,-0.018 0.033,-0.023 0.018,-0.018 0.083,-0.077 0.083,-0.077 0.026,-0.032 0.054,-0.062 0.081,-0.093 l 0.095,-0.3468 c -0.039,-0.065 -0.076,-0.1285 -0.1127,-0.1932 -0.109,-0.1862 -0.1531,-0.5016 -0.018,-1.032 l 1.3245,-4.9144 c 0.1231,-0.4538 0.3217,-1.1715 0.5943,-2.1358 0.026,-0.102 0.1511,-0.2848 0.4775,-0.4935 0.1547,-0.099 0.2612,-0.2031 0.4175,-0.3018 -0.1143,-0.1495 -0.2294,-0.2978 -0.3447,-0.4465 -0.036,-0.046 -0.1002,-0.1204 -0.1865,-0.2145 z m 4.9428,0.068 c 10e-5,0.099 0,0.2215 0,0.3731 0.01,0.1553 0.01,0.4469 0.026,1.0268 v 0.3167 c -0.099,0.048 -0.1951,0.093 -0.2941,0.1411 -0.3383,0.1631 -0.5415,0.3957 -0.6681,0.7902 l -0.019,0.062 c -0.016,0 -0.018,0.014 -0.018,0.017 v 5e-4 l -0.018,0.054 c -0.026,0.066 -0.06,0.1682 -0.1018,0.3018 l -2.0351,6.3143 c 0.2023,0.065 0.4046,0.1304 0.6062,0.1969 l 1.9136,-5.7774 c 0.044,-0.1336 0.077,-0.2353 0.1039,-0.3013 l 0.018,-0.054 c 0,0 10e-5,-0.018 0.018,-0.018 l 0.021,-0.062 c 0.1302,-0.3934 0.334,-0.6244 0.6723,-0.785 0.098,-0.046 0.1958,-0.093 0.2941,-0.139 v -0.3173 c 0,-0.5794 -10e-5,-0.8709 -0.018,-1.0263 v -0.4372 c 0,-0.054 -10e-5,-0.099 -0.018,-0.1509 0,-0.026 3e-4,-0.054 -0.023,-0.109 0,-0.028 -0.018,-0.063 -0.054,-0.1271 -0.018,-0.032 -0.046,-0.072 -0.095,-0.1209 -0.025,-0.024 -0.095,-0.077 -0.095,-0.077 -2e-4,-2e-4 -0.1478,-0.071 -0.1478,-0.071 v 6e-4 c -0.023,-0.01 -0.046,-0.014 -0.068,-0.022 z m -65.2234,0.9234 c 0.5447,0.1805 0.8233,0.2754 0.8423,0.2754 l 2.0573,7.1846 c -0.073,0.1066 -0.2272,0.3163 -0.493,0.6816 -0.4678,0.1394 -0.9325,0.2817 -1.3948,0.4295 -0.5034,-0.1761 -0.7682,-0.2668 -0.7932,-0.2848 l -2.3394,-7.0941 c 0.1031,-0.1428 0.2871,-0.3851 0.5462,-0.7106 0.5247,-0.1672 1.0498,-0.3268 1.5746,-0.4816 z m -0.031,0.5566 c -0.4014,0.1188 -0.8028,0.2418 -1.204,0.3684 -0.1107,0.1397 -0.1931,0.2481 -0.2641,0.3411 l 2.1239,6.6151 c 0.082,0.03 0.246,0.086 0.385,0.1354 0.1067,-0.034 0.2133,-0.067 0.3204,-0.1003 l -1.9777,-6.3722 c 0.071,-0.092 0.1547,-0.1988 0.2641,-0.3369 0.2789,-0.085 0.5585,-0.1682 0.8377,-0.2496 l -0.078,-0.2662 c -0.142,-0.046 -0.2647,-0.088 -0.4072,-0.1338 z m -7.4781,0.1085 h -0.012 c -0.068,0 -0.1493,2e-4 -0.2408,0.051 l -0.095,0.043 c 0.021,0.024 0.042,0.049 0.064,0.077 0.2765,0.302 0.4858,0.5334 0.63,0.6935 0.074,0.081 0.1285,0.1437 0.1705,0.1917 0.021,0.025 0.035,0.044 0.053,0.065 0.01,0.01 0.01,0.015 0.026,0.033 0.011,0.016 0.019,0.012 0.06,0.1023 l 0.083,0.1824 -0.06,0.1917 c -0.092,0.2911 -0.095,0.4986 -0.067,0.6253 v 0.018 0.018 c 0.021,0.1247 0.049,0.2108 0.049,0.2108 l 3.0732,6.7324 c 0,-0.01 0.1236,0.1557 0.3504,0.3349 0.1131,0.063 0.2134,0.1164 0.2574,0.1354 l 0.2826,0.1194 0.2507,2.1947 -2.2878,1.0443 c 0.2061,0.2265 0.4255,0.313 0.7256,0.2357 l 2.3988,-1.095 -0.2506,-2.1942 -0.2822,-0.1194 c -0.044,-0.019 -0.1442,-0.072 -0.2573,-0.1354 -0.2268,-0.1793 -0.354,-0.3408 -0.3514,-0.3348 l -3.0727,-6.7325 c 2e-4,0 -0.028,-0.084 -0.049,-0.2103 v -0.018 -0.018 c -0.028,-0.1266 -0.023,-0.3342 0.067,-0.6253 l 0.06,-0.1918 -0.083,-0.1819 c -0.041,-0.09 -0.049,-0.088 -0.06,-0.1023 -0.018,-0.018 -0.019,-0.025 -0.028,-0.035 -0.018,-0.021 -0.032,-0.04 -0.053,-0.065 -0.042,-0.047 -0.097,-0.1108 -0.1705,-0.1917 -0.146,-0.1618 -0.3574,-0.396 -0.6382,-0.7028 -0.048,-0.058 -0.09,-0.1076 -0.1369,-0.1551 -0.026,-0.028 -0.051,-0.053 -0.1075,-0.093 -0.028,-0.019 -0.063,-0.046 -0.137,-0.071 -0.037,-0.018 -0.091,-0.03 -0.1602,-0.032 z m -0.864,0.3555 v 5e-4 h -5e-4 l -1.8852,0.861 0.1804,1.5063 c 0.1025,0.042 0.2082,0.099 0.3173,0.1706 0.3044,0.2056 0.504,0.4139 0.601,0.6253 l 2.0577,4.5072 c -0.017,-0.024 -1.683,-1.653 -4.9971,-4.8876 -0.4816,-0.4819 -0.734,-0.7364 -0.757,-0.7364 l -2.0676,0.9436 0.1767,1.4987 c 0.01,0.014 0.015,0.032 0.033,0.032 0.4575,0.206 0.7773,0.5071 0.9581,0.9033 l 2.7078,5.9325 c 0.097,0.2113 0.1914,0.4638 0.2884,0.758 0.095,0.3203 0.083,0.6837 -0.039,1.0899 0.01,0.021 0.1896,0.2192 0.54,0.5953 0.3272,0.3679 0.4962,0.5405 0.5142,0.5405 l 1.9089,-0.8717 -0.1788,-1.5452 c -0.3037,-0.1485 -0.5203,-0.2925 -0.6469,-0.4315 -0.1439,-0.1194 -0.3314,-0.4325 -0.5628,-0.9394 l -1.7715,-3.8815 c 2.5,2.4576 4.1785,4.1001 5.0349,4.9279 0.4615,0.4657 0.6899,0.6914 0.7079,0.6914 l 2.0516,-0.9363 -0.1726,-1.51 c -0.087,-0.036 -0.2037,-0.098 -0.3514,-0.184 -0.2832,-0.2153 -0.4592,-0.3998 -0.5302,-0.5529 l -3.0727,-6.7319 c -0.036,-0.074 -0.064,-0.1878 -0.09,-0.3426 -0.056,-0.2487 -0.03,-0.5478 0.079,-0.8971 -0.012,-0.026 -0.2977,-0.3456 -0.8578,-0.9576 -0.098,-0.1198 -0.1562,-0.1765 -0.1752,-0.1783 z m 37.6091,0.599 0.025,2.0427 c 0,0.2747 0.1095,0.5524 0.3922,0.8821 0.063,0.074 0.1267,0.1482 0.1897,0.2222 -0.028,0.093 -0.058,0.1876 -0.086,0.2806 -0.2724,0.8861 -0.3887,1.2822 -0.4517,1.4646 -0.041,0.1141 -0.08,0.2283 -0.1193,0.3426 -0.5853,0.01 -1.1713,0.017 -1.7565,0.035 -0.169,8e-4 -0.3381,0.014 -0.507,0.018 0.09,0.2685 0.2651,0.4495 0.5488,0.4868 0.7836,-0.021 1.5673,-0.035 2.3508,-0.041 0.041,-0.1143 0.081,-0.2285 0.1214,-0.3427 0.065,-0.1822 0.181,-0.5769 0.4574,-1.4619 0.028,-0.093 0.06,-0.1865 0.088,-0.2796 -0.062,-0.074 -0.1252,-0.1495 -0.1881,-0.2232 -0.2793,-0.3315 -0.3833,-0.61 -0.385,-0.8847 l -0.018,-2.0428 h 1.3497 v -0.4986 c -0.672,-0.018 -1.3438,0 -2.0159,0 z m 42.4284,0.016 -1.003,1.0903 c 0.1437,0.489 0.1267,0.9261 -0.051,1.3106 l -2.9249,6.3215 c -0.1805,0.3899 -0.503,0.6855 -0.9669,0.8863 -0.1315,0.9884 -0.1983,1.4898 -0.1803,1.4898 l 1.864,0.863 c 0.6614,-0.7108 0.9891,-1.0771 1.0071,-1.0981 l -0.018,-0.067 c -0.1211,-0.4586 -0.1033,-0.8567 0.053,-1.1937 l 0.1194,-0.2604 c 0.01,-0.012 0.06,-0.053 0.1638,-0.1267 0.6674,-0.5163 1.0221,-0.7873 1.0661,-0.8113 0,0.057 0.01,0.5954 0.03,1.6154 0.03,0.3784 -0.012,0.6913 -0.1266,0.939 -0.068,0.1474 -0.1625,0.2605 -0.2821,0.3395 -0.1179,1.0136 -0.169,1.5245 -0.169,1.5245 l 1.8728,0.8666 c 0.1108,-0.1151 0.442,-0.4703 0.9927,-1.0661 -0.07,-0.1485 -0.1185,-0.2494 -0.1375,-0.3034 -0.109,-0.3447 -0.1642,-0.6617 -0.1462,-0.9503 -0.051,-1.258 -0.095,-2.6346 -0.1318,-4.1294 0.2811,-0.2345 0.9858,-0.8035 2.1141,-1.7074 0.6739,-0.5581 1.0666,-0.8688 1.1792,-0.9318 0.3921,-0.3493 0.751,-0.5383 1.0775,-0.5663 0.058,-0.4588 0.093,-0.7133 0.093,-0.7623 0.058,-0.4329 0.094,-0.6688 0.076,-0.7038 l -1.8645,-0.863 c -0.1084,0.1097 -0.4581,0.4778 -1.0491,1.1059 0.01,0.1634 -0.017,0.311 -0.079,0.4429 0,8e-4 -0.019,0 -0.019,0.019 l -0.017,0.032 c -0.064,0.137 -0.1712,0.2785 -0.3225,0.4263 -0.5909,0.4749 -1.5191,1.238 -2.7859,2.2893 l 1.0418,-2.252 0.2197,-0.4744 c 0.2048,-0.4426 0.5329,-0.7575 0.9844,-0.9452 0.019,-0.081 0.055,-0.3388 0.109,-0.7741 0.058,-0.472 0.079,-0.7116 0.079,-0.7116 l -1.8572,-0.8594 z m -83.7132,1.0537 -0.2977,0.1359 c 0.018,0.018 0.038,0.037 0.059,0.057 0.1288,0.1249 0.3126,0.3069 0.5514,0.5457 1.3248,1.2932 2.1903,2.1394 2.9879,2.9187 l -0.5141,-1.1265 c -0.4699,-0.4592 -1.0029,-0.9795 -1.6434,-1.6046 -0.2389,-0.2389 -0.4227,-0.4212 -0.5513,-0.5462 -0.065,-0.063 -0.1161,-0.1125 -0.1566,-0.1494 -0.019,-0.019 -0.037,-0.035 -0.058,-0.053 -0.018,0 -0.021,-0.018 -0.039,-0.03 -0.018,-0.018 -0.018,-0.028 -0.1353,-0.074 z m 86.0779,0.055 c 0,0 0,0.01 0,0.012 -0.015,0.1226 -0.036,0.301 -0.066,0.538 -0.056,0.4385 -0.079,0.6558 -0.1179,0.8247 l -0.021,0.093 0.1023,-0.1074 c 0.1849,-0.1965 0.3451,-0.3665 0.4821,-0.5116 0,-0.033 0.01,-0.063 0.011,-0.09 0,-0.062 0.018,-0.1092 0.018,-0.1462 v -0.056 c 8e-4,-0.018 0,-0.023 0,-0.053 -6e-4,-0.018 -6e-4,-0.034 -0.018,-0.081 0,-0.025 -0.035,-0.1126 -0.035,-0.1126 l -0.068,-0.1122 c -2e-4,0 -0.1922,-0.1534 -0.1922,-0.1534 z m -64.3041,0.8765 c -0.038,0.01 -0.075,0.023 -0.1142,0.023 l 0.3948,1.9947 c 0.03,0.1516 0.1226,0.3381 0.3065,0.5571 0.061,0.061 0.1297,0.1229 0.2087,0.1809 0.082,0.061 0.1646,0.1219 0.2476,0.1839 -0.088,0.7247 -0.1716,1.4488 -0.2486,2.173 -0.7346,0.1461 -1.4661,0.3018 -2.1947,0.4667 0.038,0.064 0.1626,0.419 0.6222,0.3932 0.7554,-0.1653 1.5145,-0.3218 2.2763,-0.4676 0.078,-0.6992 0.163,-1.3985 0.2522,-2.0981 -0.023,-0.033 -0.052,-0.067 -0.077,-0.1375 -0.053,-0.04 -0.1063,-0.08 -0.1597,-0.1214 -0.079,-0.06 -0.1459,-0.1195 -0.2061,-0.1819 -0.1815,-0.2205 -0.2727,-0.4077 -0.3018,-0.5597 l -0.2197,-1.1544 c 0,-1e-4 10e-5,-4e-4 0,-5e-4 -0.2596,-0.4181 -0.5218,-0.8356 -0.7865,-1.2516 z m 64.0659,0.7477 -0.2527,0.1008 c -0.3423,0.1424 -0.5541,0.3456 -0.709,0.6801 l -0.2196,0.4743 -0.076,0.1654 c 0.2948,-0.2412 0.7694,-0.6361 0.9813,-0.8067 0.1139,-0.1128 0.1803,-0.207 0.2073,-0.264 l 0.018,-0.032 c 10e-5,-2e-4 9e-4,0 0,0 0.01,-0.01 0.02,-0.012 0.02,-0.028 0.012,-0.047 0.03,-0.1 0.03,-0.1876 z m 3.946,0.068 c 0,0.012 0,0.025 0,0.039 -0.012,0.1268 -0.035,0.2967 -0.065,0.5157 -0.012,0.1367 -0.039,0.3258 -0.093,0.7576 l -0.053,0.4206 -0.4217,0.037 c -0.1588,0.014 -0.4304,0.1282 -0.7736,0.4341 l -0.042,0.039 -0.047,0.024 h -5e-4 v 6e-4 c 0,8e-4 -0.1406,0.099 -0.3147,0.2366 -0.1913,0.151 -0.456,0.3668 -0.7911,0.6444 -1.0223,0.8189 -1.5899,1.2795 -1.9095,1.5426 0.035,1.3854 0.077,2.6862 0.1251,3.8623 v 0.021 0.021 c -0.01,0.2118 0.028,0.4672 0.1214,0.7628 0.01,0.018 0.046,0.1061 0.1106,0.2398 l 0.109,0.2237 -0.1426,0.3096 -0.057,0.062 c -0.5512,0.5963 -0.8758,0.9459 -0.9989,1.0743 l -0.26,0.2687 -2.1063,-0.9746 c -0.056,0.3105 0.042,0.4949 0.2889,0.6956 l 2.2122,1.0237 0.26,-0.2692 c 0.1232,-0.1285 0.4479,-0.4781 0.9989,-1.0744 l 0.056,-0.062 0.1426,-0.3095 -0.109,-0.2233 c -0.065,-0.1336 -0.1041,-0.2225 -0.1111,-0.2403 -0.093,-0.2954 -0.1298,-0.5505 -0.121,-0.7622 v -0.021 l -10e-4,-0.021 c -0.048,-1.1764 -0.088,-2.4777 -0.125,-3.8628 0.3194,-0.2633 0.8873,-0.7236 1.9094,-1.5425 0.3353,-0.2776 0.5996,-0.4934 0.7906,-0.6444 0.3752,-0.2562 0.7108,-0.6208 1.1767,-0.7344 l 0.4222,-0.037 0.054,-0.4206 c 0.057,-0.4425 0.084,-0.6376 0.095,-0.7746 0.03,-0.2109 0.051,-0.3754 0.063,-0.4987 0,-0.063 0.018,-0.1163 0.018,-0.1638 0,-0.047 0.033,-0.028 -0.018,-0.2228 l -0.062,-0.2444 z m -62.6406,1.2976 c 0.01,0.085 0.01,0.1698 0.01,0.2553 2e-4,0 5e-4,-0.01 6e-4,-0.01 0,0 10e-5,0.011 5e-4,0.025 0,0.1162 0.035,0.9919 0.035,1.0599 7e-4,0.024 7e-4,0.024 5e-4,0.024 0.018,0.2237 0.018,0.3059 0.018,0.3839 v 0.4548 c -0.8484,0.1233 -1.6936,0.2584 -2.5357,0.4046 0,0 0,0 0.01,0.01 0.076,-0.018 0.151,-0.026 0.2263,-0.039 0.079,0.1003 0.1461,0.182 0.2026,0.2476 0.062,0.072 0.1231,0.144 0.185,0.2155 0.8642,-0.1442 1.7323,-0.2764 2.6034,-0.3969 v -0.4548 c -10e-5,-0.081 -10e-5,-0.1653 -0.018,-0.4092 0,0.2127 -0.025,-0.8929 -0.028,-1.0599 -10e-5,-0.01 -4e-4,-0.014 -5e-4,-0.018 0,-6e-4 0,-5e-4 0,0 -10e-5,-0.01 0,-0.01 0,-0.01 v -0.3287 c -0.1072,-0.044 -0.2129,-0.086 -0.3199,-0.1282 -0.1393,-0.056 -0.2665,-0.1292 -0.3844,-0.2258 z m 35.0692,2.2159 c 0.07,0.082 0.1442,0.1682 0.2211,0.2579 -0.028,-0.034 -0.057,-0.069 -0.088,-0.106 -0.045,-0.052 -0.09,-0.1024 -0.1333,-0.1519 z m 16.4176,1.8252 c 0,0.1252 -0.041,0.2611 -0.1773,0.3824 -0.6625,0.6003 -1.206,1.108 -1.5477,1.4289 -0.3648,0.3424 -0.5165,0.4904 -0.6325,0.5906 -0.074,0.062 -0.1498,0.1256 -0.2238,0.1886 -1.6594,-0.6045 -3.3477,-1.153 -5.0591,-1.65 0,0.1683 0.022,0.352 0.1033,0.4765 0.032,0.039 0.063,0.079 0.093,0.1199 1.7858,0.5268 3.5461,1.11 5.272,1.7554 0.074,-0.062 0.1491,-0.1247 0.2232,-0.1876 0.1178,-0.098 0.2689,-0.2457 0.6351,-0.5855 0.2182,-0.2026 0.518,-0.4807 0.8785,-0.8092 0.012,-0.092 0.025,-0.189 0.038,-0.2915 l 0.039,-0.295 0.2728,-0.1179 c 0.2038,-0.088 0.3566,-0.1873 0.4734,-0.3023 v -0.072 c 0,-0.048 -0.018,-0.072 -0.024,-0.093 -0.018,-0.04 -0.024,-0.058 -0.032,-0.076 -0.018,-0.035 -0.033,-0.062 -0.051,-0.092 0,0 -0.017,-0.017 -0.018,-0.023 v -5e-4 c 0,0 -0.016,-0.016 -0.018,-0.021 -0.089,-0.118 -0.1704,-0.2271 -0.2454,-0.3266 z m -75.9432,0.2501 0.6072,1.3307 c 0.2052,0.4497 0.4232,0.7365 0.4232,0.7545 l 0.025,0.023 0.025,0.026 c 0.05,0.055 0.2183,0.1827 0.4899,0.3147 l 0.2579,0.1266 0.2568,2.2112 -2.1482,0.9808 c 0.2028,0.2432 0.4249,0.3114 0.7287,0.2357 l 2.2577,-1.0299 -0.2573,-2.2113 -0.2579,-0.1266 c -0.2715,-0.132 -0.44,-0.2596 -0.4899,-0.3142 l -0.025,-0.028 -0.026,-0.023 10e-4,-5e-4 v -6e-4 -5e-4 c 0,-0.021 -0.2202,-0.3076 -0.4238,-0.7534 l -0.081,-0.1783 c -2e-4,-2e-4 -3e-4,-4e-4 -5e-4,-5e-4 -0.4521,-0.4433 -0.9295,-0.9119 -1.3627,-1.3364 z m 79.6422,1.0671 c -0.1568,0.1198 -0.2961,0.1864 -0.3638,0.3721 -0.095,0.2072 -0.1198,0.4647 -0.023,0.8367 0.028,0.117 0.028,0.1587 0.028,0.3276 0.1114,-0.074 0.201,-0.1234 0.292,-0.2517 0.166,-0.3864 0.046,-0.8712 0.067,-1.2847 z m -0.4279,1.6961 c -0.1356,0.1671 -0.1712,0.2062 -0.3277,0.3751 -0.1696,0.1847 -0.4196,0.4545 -0.7508,0.8103 l -0.2594,0.2796 -2.0816,-0.9633 c -0.031,0.2738 0.041,0.5055 0.2651,0.6853 l 2.2113,1.0232 0.2589,-0.2791 c 0.2335,-0.2508 0.4263,-0.4589 0.5793,-0.6248 0,-0.021 0,-0.042 0.01,-0.065 0.05,-0.4576 0.045,-0.7842 0.098,-1.2417 z" /><path
       id="path2755"
       style="-inkscape-font-specification:'I.F.C. HARDBALL, Normal';fill:#ffffff;fill-opacity:1;stroke:none;stroke-width:0.397362;stroke-linecap:square;paint-order:stroke fill markers"
       d="m -1813.7158,7232.3472 c -0.048,0.1109 -0.095,0.2222 -0.1425,0.3334 -0.079,0.1848 -0.2325,0.6319 -0.5213,1.4951 -0.032,0.093 -0.062,0.1854 -0.093,0.2781 0.067,0.074 0.1337,0.1477 0.2011,0.2212 0.054,0.06 0.1126,0.1319 0.1688,0.2084 0.1671,0.2699 0.2289,0.4829 0.228,0.6263 l -0.018,2.0613 c -0.6896,0 -1.3793,-2e-4 -2.0686,0 l -0.025,-2.052 c 0,-0.2581 0.1002,-0.5367 0.4006,-0.8728 0.067,-0.076 0.1354,-0.1513 0.2031,-0.2278 -0.033,-0.093 -0.068,-0.187 -0.102,-0.2806 -0.044,-0.1231 -0.079,-0.2161 -0.1056,-0.2826 -0.018,-0.033 -0.023,-0.06 -0.032,-0.084 0,-0.018 0,-0.019 -0.018,-0.03 -0.1108,-0.3306 -0.2013,-0.594 -0.2651,-0.769 -0.033,-0.092 -0.06,-0.1618 -0.084,-0.2202 -0.018,-0.028 -0.023,-0.053 -0.042,-0.09 -0.018,-0.018 -0.019,-0.039 -0.049,-0.079 -0.018,-0.021 -0.035,-0.048 -0.086,-0.091 -0.026,-0.021 -0.1213,-0.078 -0.1213,-0.078 -4e-4,0 -0.2714,-0.06 -0.2718,-0.06 -0.5198,0 -1.0397,0.019 -1.5591,0.035 -0.3693,0.018 -0.7387,0.021 -1.108,0.035 -0.039,0.1213 -0.076,0.2443 -0.1126,0.3666 -0.146,0.4736 -0.2586,0.8467 -0.3296,1.085 -0.035,0.1214 -0.063,0.2145 -0.083,0.2783 0,0.028 -0.018,0.051 -0.021,0.077 0,0.018 0,0.019 0,0.03 2e-4,0 0,0.018 0,0.024 2e-4,0 0,0.018 0,0.028 0,0.018 0,0.095 0,0.095 v 0.1948 c 0.048,0.048 0.093,0.095 0.1407,0.1425 0.057,0.058 0.1214,0.1284 0.1861,0.2068 0.1741,0.2601 0.241,0.4628 0.2452,0.5755 l 0.2758,7.318 c 0,0.035 -0.018,0.1601 -0.068,0.3386 h 4e-4 c -0.035,0.1126 -0.1179,0.2692 -0.267,0.4542 -0.058,0.072 -0.1161,0.1443 -0.1742,0.216 0.026,0.09 0.051,0.1773 0.077,0.2662 0.051,0.1766 0.1547,0.452 0.3396,0.95 0.056,0.1653 0.1003,0.2967 0.1372,0.3935 0.09,0.277 0.2666,0.43 0.5542,0.4619 0.2021,0 0.4044,-0.018 0.6067,-0.019 0.5852,-0.018 1.1709,-0.028 1.7562,-0.035 0.039,-0.1143 0.079,-0.2283 0.1196,-0.3424 0.063,-0.1824 0.1792,-0.5786 0.4516,-1.4647 0.028,-0.093 0.058,-0.187 0.086,-0.2804 -0.063,-0.074 -0.1266,-0.1477 -0.1897,-0.2221 -0.2827,-0.3297 -0.3891,-0.6074 -0.3923,-0.8821 l -0.025,-2.0431 c 0.6721,0 1.3443,-0.018 2.0163,0 l -0.018,2.0778 c 0,0.09 -0.04,0.2664 -0.1284,0.4876 -0.06,0.1073 -0.1407,0.2303 -0.2534,0.3689 -0.06,0.074 -0.1214,0.1478 -0.1807,0.2211 0.146,0.4654 0.289,0.9314 0.431,1.3975 v 0 c 0.083,0.3529 0.2104,0.6304 0.5917,0.69 0.7094,0 1.4188,0.019 2.1273,0.041 0.1073,-0.051 0.2137,-0.1038 0.3206,-0.1548 0.2152,-0.6315 0.4335,-1.2624 0.6552,-1.8925 -0.058,-0.076 -0.1143,-0.1513 -0.1723,-0.2272 -0.2639,-0.3479 -0.3583,-0.6363 -0.3497,-0.9133 l 0.2237,-7.0853 c 0.018,-0.2993 0.1284,-0.5788 0.4312,-0.8906 0.068,-0.071 0.1372,-0.1407 0.2054,-0.2117 -0.027,-0.093 -0.053,-0.1852 -0.079,-0.2777 -0.097,-0.3371 -0.1724,-0.5979 -0.2262,-0.7761 -0.027,-0.09 -0.049,-0.16 -0.065,-0.2142 -0.018,-0.027 -0.018,-0.049 -0.025,-0.072 0,0 0,-0.018 0,-0.018 -3e-4,-3e-4 -4e-4,0 -4e-4,0 -0.035,-0.1319 -0.067,-0.2422 -0.095,-0.3255 -0.018,-0.046 -0.028,-0.083 -0.051,-0.132 -0.018,-0.024 -0.023,-0.053 -0.062,-0.1038 -0.019,-0.026 -0.042,-0.06 -0.1002,-0.1072 -0.03,-0.023 -0.068,-0.051 -0.1267,-0.077 -0.03,-0.018 -0.063,-0.026 -0.1038,-0.035 -0.04,-0.018 -0.1336,-0.019 -0.1336,-0.019 -0.8765,-0.024 -1.7531,-0.039 -2.6291,-0.042 z m -7.9308,0.3982 c -2.6572,0.1478 -5.3184,0.3837 -7.9766,0.7161 h -7e-4 c -0.081,0.049 -0.1601,0.099 -0.2396,0.1496 -0.023,0.042 -0.046,0.084 -0.068,0.1266 -0.04,0.072 -0.032,0.068 -0.049,0.1037 -0.018,0.037 -0.037,0.086 -0.062,0.1478 -0.051,0.1214 -0.1232,0.3015 -0.215,0.53 -0.1791,0.4455 -0.4575,1.15 -0.7891,2.0279 -0.018,0.041 -0.032,0.081 -0.046,0.1214 l 0.018,0.1266 c 0,2e-4 0.026,0.1056 0.026,0.1056 0,1e-4 0.021,0.051 0.032,0.068 0.019,0.037 0.039,0.06 0.053,0.077 0.028,0.035 0.046,0.051 0.062,0.063 0.03,0.026 0.046,0.039 0.063,0.049 0.032,0.023 0.058,0.039 0.091,0.06 0.018,0.018 0.03,0.018 0.044,0.028 0.018,0 0.032,0.018 0.049,0.019 0.6172,0.238 1.0378,0.4149 1.1982,0.4906 0.049,0.023 0.1002,0.046 0.1495,0.071 0.1583,-0.021 0.3163,-0.04 0.4746,-0.06 0.044,-0.084 0.09,-0.1688 0.1336,-0.2524 0.1285,-0.2399 0.3019,-0.4962 0.5184,-0.7632 0.3281,-0.3329 0.637,-0.484 0.9664,-0.519 0.056,0 0.1143,-0.018 0.1706,-0.018 l 0.7332,7.0396 c 0.03,0.2987 -0.04,0.569 -0.2715,0.8915 -0.058,0.079 -0.1142,0.16 -0.1706,0.2403 0.039,0.091 0.076,0.1825 0.1144,0.2738 0.1477,0.3541 0.2452,0.5803 0.3226,0.7347 0.093,0.2318 0.1653,0.406 0.2203,0.5319 0.146,0.3407 0.2732,0.4883 0.6048,0.4883 0.7156,-0.071 1.4327,-0.1337 2.1512,-0.1907 0.067,-0.079 0.1319,-0.16 0.1977,-0.2398 0.018,-0.026 0.021,-0.053 0.032,-0.079 0.051,-0.1319 0.035,-0.1161 0.054,-0.1889 0.018,-0.074 0.042,-0.1707 0.071,-0.297 0.048,-0.2035 0.2076,-0.8923 0.2554,-1.0956 0.023,-0.095 0.044,-0.1907 0.067,-0.286 -0.068,-0.071 -0.1372,-0.139 -0.2047,-0.2076 -0.2929,-0.2972 -0.4141,-0.5616 -0.4357,-0.8457 l -0.5358,-7.0582 c 0.057,0 0.1143,0 0.1706,-0.018 0.1566,-0.018 0.3346,0.018 0.5451,0.081 0,0 0.018,0 0.025,0 0,0 0.018,0 0.026,0 0.077,0.019 0.264,0.1073 0.4951,0.2895 0.2305,0.193 0.4289,0.3954 0.5951,0.6081 0.058,0.076 0.1178,0.1512 0.1768,0.2258 0.099,0 0.1957,-0.018 0.2937,-0.018 4e-4,0 0.091,-0.018 0.1161,-0.018 0.024,0 0.042,-0.018 0.054,-0.018 0.026,-0.018 0.04,-0.018 0.053,-0.023 0.025,-0.018 0.039,-0.019 0.051,-0.026 0.026,-0.018 0.053,-0.032 0.083,-0.049 0.06,-0.039 0.1372,-0.088 0.24,-0.1548 0.2036,-0.1337 0.4989,-0.3309 0.8907,-0.59 0.1389,-0.091 0.2774,-0.1828 0.4164,-0.2738 -0.083,-0.1407 -0.1654,-0.2799 -0.2489,-0.4196 -0.4823,-0.8061 -0.8762,-1.4434 -1.1336,-1.8543 -0.1301,-0.2095 -0.2355,-0.3732 -0.3084,-0.4865 -0.037,-0.058 -0.067,-0.1021 -0.09,-0.1372 -0.023,-0.035 -0.018,-0.035 -0.076,-0.1038 -0.06,-0.072 -0.1213,-0.1425 -0.1814,-0.2139 z m 8.3155,0.1302 c 0.7437,0 1.4879,0.019 2.2321,0.041 h 3e-4 4e-4 4e-4 c 0.019,0 0.068,0.1513 0.146,0.4309 0.018,0.03 0.1266,0.3808 0.3222,1.0549 -0.3706,0.3834 -0.5591,0.7945 -0.571,1.2296 l -0.191,7.0859 c -0.018,0.4177 0.1442,0.8341 0.4621,1.2506 -0.1636,0.4712 -0.3238,0.9428 -0.4832,1.4148 0,0 -0.018,0 -0.018,0 -0.6719,-0.018 -1.3441,-0.03 -2.0166,-0.037 h -4e-4 l -3e-4,-3e-4 h -3e-4 c -0.018,0 -0.048,-0.1108 -0.1074,-0.3144 -0.1126,-0.3753 -0.2261,-0.7503 -0.341,-1.1254 0.1372,-0.167 0.2475,-0.3266 0.3289,-0.4768 0.1161,-0.2779 0.1765,-0.5152 0.1784,-0.7127 l 0.025,-2.6036 c -1.0306,-0.018 -2.0615,0 -3.0921,0.018 l 0.042,2.5685 c 0,0.4179 0.1836,0.8242 0.5248,1.2207 -0.2675,0.883 -0.4015,1.3345 -0.4388,1.4426 -0.4702,0 -0.9398,0.018 -1.4098,0.03 -0.2032,0 -0.4065,0.018 -0.6095,0.019 -2e-4,0 0,-5e-4 0,-5e-4 h -6e-4 l -2e-4,-4e-4 c -0.019,-0.018 -0.083,-0.1816 -0.1939,-0.5153 -0.1824,-0.4952 -0.2899,-0.7948 -0.3235,-0.9119 0.1803,-0.2218 0.3018,-0.432 0.3638,-0.6316 0.067,-0.2116 0.098,-0.3838 0.095,-0.5173 l -0.2439,-7.3191 c 0,-0.2494 -0.1179,-0.5338 -0.333,-0.8514 -0.084,-0.102 -0.1636,-0.1919 -0.2413,-0.2703 0,-0.018 0.1424,-0.4967 0.442,-1.4531 v -5e-4 c 0.2308,0 0.4618,-0.018 0.6925,-0.021 0.5177,-0.018 1.0355,-0.026 1.5537,-0.035 0.019,-3e-4 0.1513,0.3516 0.3889,1.0568 0,0 0.054,0.1302 0.1442,0.3725 -0.3595,0.4052 -0.5331,0.8118 -0.5264,1.2181 l 0.042,2.5771 c 1.048,-0.018 2.0963,-0.021 3.1447,-0.018 l 0.025,-2.5864 c 0,-0.2726 -0.099,-0.5757 -0.3059,-0.9079 -0.074,-0.099 -0.1477,-0.1899 -0.2207,-0.2714 0.2926,-0.8626 0.4722,-1.362 0.5139,-1.4594 z m 9.8199,0.053 c -0.095,0.074 -0.1898,0.1477 -0.2844,0.2223 -0.018,0.035 -0.033,0.068 -0.051,0.1038 -0.076,0.1531 -0.282,0.6075 -0.6233,1.3908 -0.037,0.084 -0.074,0.1689 -0.1109,0.2543 0.102,0.146 0.2021,0.2942 0.3025,0.4412 0.1654,0.2983 0.2078,0.5126 0.2011,0.5907 l -0.6311,7.2453 c 0,-0.024 -0.018,0.057 -0.039,0.1566 h -5e-4 -4e-4 c -0.046,0.1741 -0.1636,0.375 -0.3945,0.6005 -0.2415,0.1947 -0.1513,0.4901 -0.095,0.7562 0.037,0.1653 0.088,0.3927 0.1601,0.6995 0.035,0.1707 0.062,0.3015 0.084,0.3968 0.1161,0.4917 0.3996,0.5302 0.4858,0.5302 0.7771,0.071 1.5532,0.1512 2.3279,0.2385 0.051,-0.1143 0.1038,-0.2289 0.1547,-0.3433 0.042,-0.091 0.2192,-0.5016 0.6168,-1.3895 0.042,-0.093 0.083,-0.1873 0.1248,-0.281 -0.06,-0.083 -0.1196,-0.1654 -0.1783,-0.248 -0.051,-0.071 -0.099,-0.1531 -0.1442,-0.243 -0.091,-0.2288 -0.1197,-0.3963 -0.1179,-0.4556 l 0.1513,-1.316 c 0.9876,0.1143 1.9735,0.241 2.9571,0.3821 0.053,-0.03 0.1038,-0.06 0.1566,-0.09 0.6619,-0.3737 1.2096,-0.6727 1.5387,-0.8524 0.4039,-0.22 -0.018,0 0.3915,-0.2131 0.044,-0.025 0.077,-0.044 0.1038,-0.058 0.018,0 0.023,-0.018 0.035,-0.019 0,0 0.018,0 0.024,-0.018 0,0 0.018,0 0.035,-0.025 0.018,0 0.049,-0.042 0.049,-0.042 0,0 0.054,-0.063 0.054,-0.063 l 0.095,-0.2239 0.032,-0.1947 c -0.035,-0.057 -0.071,-0.1126 -0.1073,-0.1689 -0.1802,-0.283 -0.22,-0.4876 -0.1895,-0.6771 l 0.2551,-1.5902 0.2576,-1.6072 c 0.028,-0.1723 0.1337,-0.3634 0.4116,-0.5871 0.139,-0.1126 0.2786,-0.2232 0.4187,-0.3346 -0.1214,-0.1354 -0.2417,-0.2691 -0.3631,-0.4035 -0.079,-0.086 -0.2209,-0.2287 -0.5065,-0.5104 -0.2817,-0.2783 -0.7135,-0.6991 -1.257,-1.2144 -0.046,-0.042 -0.091,-0.086 -0.1354,-0.1302 -2.0618,-0.2957 -4.1292,-0.5361 -6.1999,-0.7222 z m -18.4014,0.3574 c 0.048,0.055 0.5892,0.8885 1.5708,2.5169 -0.7831,0.5189 -1.1798,0.785 -1.204,0.7864 -0.1905,-0.2451 -0.4152,-0.4763 -0.6737,-0.693 -0.2709,-0.2158 -0.5103,-0.3486 -0.7168,-0.3986 -0.2709,-0.091 -0.5298,-0.1284 -0.7754,-0.1108 -0.2423,0.018 -0.4847,0.037 -0.7269,0.057 l 0.6118,7.5797 c 0.033,0.4227 0.233,0.8141 0.5917,1.177 -0.2187,0.9542 -0.3314,1.456 -0.3501,1.5042 0,0 0,0 0,0.018 -0.6521,0.053 -1.3029,0.1107 -1.9525,0.1758 -0.018,0 -0.1178,-0.2362 -0.309,-0.7129 -0.058,-0.1125 -0.1601,-0.3511 -0.3133,-0.7212 0.2896,-0.4035 0.4157,-0.8209 0.3728,-1.2544 l -0.7505,-7.567 c -0.2423,0.025 -0.4843,0.049 -0.7265,0.074 -0.4843,0.051 -0.9307,0.2859 -1.3326,0.702 -0.2428,0.2978 -0.4383,0.5882 -0.5873,0.8702 0,0 -0.018,-2e-4 -0.019,0 -0.1905,-0.09 -0.6094,-0.2658 -1.2315,-0.5061 -0.051,-0.032 -0.079,-0.051 -0.083,-0.058 l -3e-4,-4e-4 v -3e-4 c 0.6798,-1.7806 1.068,-2.6949 1.0989,-2.7514 v 0 c 2.5031,-0.3099 5.0098,-0.5336 7.5131,-0.6792 z m 18.5909,0.1875 v 4e-4 c 1.9178,0.1762 3.8328,0.3991 5.7425,0.6698 1.1005,1.0412 1.6659,1.6142 1.7405,1.6967 -0.3458,0.2798 -0.5423,0.5817 -0.5921,0.9029 l -0.2499,1.6083 -0.247,1.5916 c -0.051,0.3328 0.039,0.6784 0.2696,1.0381 0,0 -0.7025,0.3736 -2.0606,1.1425 -1.1034,-0.1566 -2.2093,-0.295 -3.3174,-0.4171 l -0.2062,1.8691 c -0.018,0.1859 0.046,0.4197 0.1637,0.7016 0.06,0.1232 0.1283,0.2361 0.202,0.3381 -0.3938,0.8897 -0.5927,1.3527 -0.6077,1.3861 -0.6574,-0.072 -1.3162,-0.139 -1.9755,-0.1991 -0.018,0 -0.051,-0.1768 -0.1214,-0.5268 -0.1371,-0.6069 -0.2078,-0.9246 -0.2052,-0.9534 0.2806,-0.2728 0.4613,-0.5533 0.5398,-0.8436 0.035,-0.1196 0.053,-0.2021 0.058,-0.2484 l 0.666,-7.248 c 0.021,-0.2367 -0.065,-0.534 -0.2625,-0.8895 -0.054,-0.081 -0.109,-0.1618 -0.1653,-0.2416 0.3446,-0.7821 0.5622,-1.2558 0.6192,-1.3694 0,0 0,0 0,0 3e-4,-3e-4 0,0 0,0 0,-3e-4 0,0 0,0 z m -30.5321,0.5136 v 0 c -2.0976,0.3462 -4.1901,0.7564 -6.2739,1.2348 -0.071,0.102 -0.1407,0.2043 -0.2111,0.3066 0,0.042 -0.018,0.083 -0.018,0.1249 -0.058,0.489 -0.098,0.8721 -0.1249,1.1221 -0.018,0.1266 -0.023,0.2245 -0.028,0.2948 0,0.035 0,0.063 0,0.09 0,0.018 0,0.024 0,0.042 -6e-4,0.018 -0.019,-0.018 0.018,0.1319 l 0.046,0.1932 c 0.058,0.037 0.1144,0.074 0.1724,0.1125 0.3557,0.2338 0.5226,0.473 0.589,0.7571 l 1.5973,6.8491 c 0.067,0.2849 0.03,0.5697 -0.1566,0.9328 -0.042,0.081 -0.083,0.1618 -0.1249,0.2425 0.042,0.081 0.083,0.1635 0.1249,0.2443 0.079,0.1565 0.2224,0.393 0.4702,0.8058 0.095,0.1706 0.1706,0.3032 0.2292,0.3993 0.1407,0.2615 0.3353,0.3869 0.6313,0.3674 0.7583,-0.1724 1.5197,-0.3351 2.2845,-0.4872 0.077,-0.7242 0.1601,-1.4485 0.2484,-2.1732 -0.083,-0.062 -0.1653,-0.1231 -0.2477,-0.1838 -0.079,-0.058 -0.1477,-0.1196 -0.2084,-0.1807 -0.1839,-0.219 -0.2765,-0.4056 -0.3066,-0.5572 l -0.3949,-1.9949 c 0.039,0 0.076,-0.018 0.1144,-0.023 0.3848,0.6049 0.764,1.2123 1.1383,1.8212 0,0 0,0 0,0 h 4e-4 c 0.1838,0.2827 0.3216,0.513 0.4116,0.678 0.071,0.1284 0.1091,0.2399 0.1161,0.2496 v 3e-4 h 3e-4 4e-4 v -3e-4 h 4e-4 v -6e-4 c 3e-4,0 0,0 0,-0.018 l 0.018,0.068 c 0,0.018 0,0.028 -0.018,0.081 -0.018,0.046 -0.032,0.09 -0.049,0.1354 l 0.026,0.1425 c 0.03,0.1618 0.077,0.2077 0.1108,0.2567 0.03,0.042 0.058,0.077 0.088,0.1107 0.3875,0.4952 0.6303,0.8042 0.791,0.9879 0.063,0.072 0.1249,0.1425 0.1872,0.2146 0.8675,-0.1513 1.7384,-0.2904 2.6126,-0.4175 0,-0.1512 0,-0.3034 0,-0.4549 0,-0.078 0,-0.1602 -0.018,-0.3839 2e-4,0 0,0 -7e-4,-0.024 0,-0.068 -0.032,-0.9434 -0.035,-1.0596 -8e-4,-0.028 0,-0.032 -8e-4,-0.019 0,-0.1108 0,-0.2204 -0.018,-0.3306 -0.1073,-0.042 -0.2146,-0.084 -0.3222,-0.1267 -0.2924,-0.1126 -0.5306,-0.3054 -0.7476,-0.6214 -0.1178,-0.1958 -0.6011,-1.041 -1.25,-2.14 0.053,-0.068 0.1109,-0.1442 0.1914,-0.2469 0.2639,-0.3378 0.6969,-0.8868 1.2544,-1.5666 0.049,-0.06 0.099,-0.1196 0.1477,-0.1784 l -0.032,-0.2258 c -0.025,-0.1789 -0.084,-0.2194 -0.1125,-0.2551 -0.03,-0.035 -0.048,-0.053 -0.063,-0.067 -0.032,-0.028 -0.054,-0.044 -0.076,-0.06 -0.018,-0.018 -0.032,-0.023 -0.046,-0.033 -0.018,0 -0.035,-0.018 -0.053,-0.023 h -4e-4 -4e-4 c 0,7e-4 -0.03,0 -0.058,-0.1961 l -0.04,-0.2755 c -0.063,-0.424 -0.1583,-1.1261 -0.2877,-2.0898 v 0 0 c -0.019,-0.1319 0.023,-0.3442 0.2362,-0.6552 0.095,-0.1389 0.1901,-0.2765 0.2858,-0.4145 -0.139,-0.097 -0.277,-0.1937 -0.416,-0.29 -0.042,-0.028 -0.053,-0.035 -0.054,-0.035 h -6e-4 -3e-4 v 4e-4 h -4e-4 v 3e-4 h -3e-4 -4e-4 -4e-4 -3e-4 c -5e-4,-2e-4 0,-5e-4 0,0 0.018,0 -0.025,-0.018 -0.034,-0.019 -4e-4,-2e-4 -4e-4,-2e-4 -7e-4,-3e-4 -7e-4,-6e-4 0,0 0,0 -0.026,-0.018 -0.063,-0.032 -0.1073,-0.057 -0.091,-0.048 -0.2314,-0.1213 -0.4098,-0.2134 -0.3462,-0.1782 -0.9115,-0.4658 -1.6184,-0.8112 -0.057,-0.027 -0.1126,-0.055 -0.1707,-0.081 z m 42.0086,0.4736 c -0.037,0.044 -0.074,0.09 -0.1108,0.1354 -0.6932,0.315 -1.248,0.5771 -1.5949,0.7435 -0.1815,0.086 -0.3218,0.1565 -0.4145,0.2016 -0.048,0.023 -0.083,0.042 -0.1108,0.054 -0.018,0 -0.026,0.018 -0.039,0.021 0,0 -0.018,0 -0.028,0.018 0,0 -0.018,0.018 -0.03,0.021 0,0 -0.019,0.018 -0.035,0.024 -0.018,0.018 -0.081,0.083 -0.081,0.083 -0.074,0.093 -0.146,0.1861 -0.2185,0.2791 0.065,0.1003 0.1302,0.2016 0.1938,0.3026 0.044,0.068 0.091,0.153 0.1408,0.2455 0.077,0.1911 0.095,0.3307 0.088,0.406 -0.1125,0.6689 -0.1993,1.1833 -0.2596,1.5232 l -0.8182,4.6209 c -0.058,0.3285 -0.1478,0.8147 -0.2626,1.4272 0,0 0,0.018 0,0.018 -0.018,0.033 -0.018,0.055 -0.018,0.077 -0.018,0.065 -0.1267,0.2593 -0.4042,0.5018 -0.1319,0.1161 -0.2644,0.232 -0.3959,0.3485 0.1143,0.1319 0.2276,0.2649 0.3407,0.3975 0.2819,0.3308 0.6239,0.7201 1.0534,1.2094 0.1407,0.1707 0.2503,0.3024 0.3341,0.3979 0.1653,0.2319 0.3744,0.2898 0.6452,0.3435 1.2029,0.2425 2.3997,0.5058 3.5881,0.7912 0.051,0.018 0.1196,0.035 0.257,-3e-4 0.042,-0.018 0.091,-0.055 0.1389,-0.09 -0.018,0.018 -0.025,0.032 -0.039,0.046 0.6584,-0.3075 1.1998,-0.552 1.5296,-0.7001 0.3129,-0.1196 0.5719,-0.2205 0.7891,-0.4668 l 0.093,-0.3475 c -0.039,-0.063 -0.077,-0.1283 -0.1161,-0.1924 -0.1125,-0.1857 -0.1583,-0.5012 -0.019,-1.0326 l 1.2882,-4.9243 c 0.1196,-0.4547 0.3128,-1.1732 0.5784,-2.1394 v 0 0 c 0.026,-0.102 0.1495,-0.2857 0.4753,-0.4965 0.1548,-0.1003 0.3113,-0.2006 0.4675,-0.3003 -0.1161,-0.1477 -0.2327,-0.2964 -0.3499,-0.4441 -0.2793,-0.352 -0.6466,-0.7924 -1.0988,-1.3084 l -0.018,-0.018 c -0.1512,-0.1825 -0.2726,-0.3265 -0.3645,-0.4287 -0.048,-0.053 -0.086,-0.095 -0.1283,-0.1354 -0.021,-0.019 -0.041,-0.04 -0.074,-0.067 -0.032,-0.026 -0.023,-0.074 -0.2605,-0.1302 -1.3658,-0.3259 -2.735,-0.6229 -4.1056,-0.8915 -0.088,-0.018 -0.1763,-0.035 -0.2644,-0.053 v 0 c -0.1144,-0.023 -0.2306,-0.046 -0.346,-0.067 z m -42.1181,0.084 c 1.4403,0.701 2.147,1.0809 2.168,1.0953 -0.2583,0.3785 -0.3624,0.7178 -0.317,1.0162 0.1337,0.9639 0.2345,1.6655 0.2996,2.0942 l 0.042,0.2755 c 0.048,0.3097 0.1706,0.5079 0.3719,0.5954 0.026,0.019 0.04,0.032 0.042,0.039 -0.1355,0.1654 -0.225,0.2787 -0.3189,0.3949 0.018,0.018 0.026,0.03 0.042,0.041 -0.018,-0.018 -0.033,-0.019 -0.051,-0.028 -0.7313,0.9067 -1.3354,1.6961 -1.3345,1.7006 0.8382,1.4003 1.3122,2.2279 1.4602,2.4691 0.2703,0.392 0.6022,0.6637 0.9967,0.8161 0.035,0.9278 0.054,1.4122 0.056,1.4531 -0.6421,0.097 -1.2824,0.1993 -1.9209,0.3089 -0.1372,-0.1583 -0.3873,-0.4767 -0.7766,-0.9778 -0.051,-0.057 -0.077,-0.095 -0.081,-0.1178 0.046,-0.1267 0.058,-0.2462 0.039,-0.3605 l -0.018,-0.068 c -0.026,-0.153 -0.2253,-0.5245 -0.5985,-1.1039 -0.433,-0.7115 -0.8729,-1.4198 -1.3196,-2.1257 -0.3317,0.063 -0.6629,0.1302 -0.9939,0.1969 l 0.511,2.5074 c 0.054,0.2673 0.1998,0.5366 0.4334,0.8094 0.088,0.09 0.1846,0.1724 0.2922,0.2521 -0.057,0.4964 -0.1108,0.9925 -0.1618,1.4888 -0.6494,0.1319 -1.2967,0.2712 -1.9416,0.4181 h -3e-4 v 5e-4 h -3e-4 -4e-4 -4e-4 -3e-4 c -2e-4,0 -7e-4,-4e-4 0,-5e-4 -0.025,-0.018 -0.1285,-0.188 -0.3142,-0.5254 -0.2437,-0.4107 -0.3908,-0.6639 -0.4455,-0.7727 0.2308,-0.4472 0.302,-0.8791 0.2068,-1.2982 l -1.557,-6.8582 c -0.095,-0.4184 -0.3595,-0.7753 -0.7994,-1.0664 0,-0.023 0.044,-0.5263 0.1653,-1.5117 0,0 0,0 0,-0.018 h 3e-4 c 1.9317,-0.4386 3.871,-0.8182 5.8152,-1.1427 z m 41.9582,0.1548 h 4e-4 3e-4 v 0 c 0,0 0,0 0,0 h -3e-4 l -4e-4,3e-4 h -5e-4 -4e-4 -3e-4 c -3e-4,2e-4 -7e-4,0 0,0 0,0 0,0 0,0 z m 0.3728,0.343 c 0,-6e-4 0.018,0 0.03,0 v 0 l 0.2618,0.051 c 1.3641,0.2681 2.7266,0.5639 4.0854,0.8888 0.032,0 0.2039,0.1973 0.5139,0.5729 0.455,0.5172 0.8216,0.9561 1.0976,1.3029 -0.3887,0.2527 -0.6163,0.519 -0.6867,0.7946 -0.2605,0.9688 -0.4509,1.689 -0.5683,2.1488 l -1.2601,4.9307 c -0.1565,0.6134 -0.1267,1.0953 0.086,1.4443 v 0 c 0,0.018 -0.7075,0.3087 -2.0559,0.9404 0,0.018 -0.018,0.018 -0.037,0.018 -1.1954,-0.2872 -2.3992,-0.5518 -3.6088,-0.7954 -0.078,-0.018 -0.1549,-0.03 -0.2326,-0.046 -0.027,0 -0.1826,-0.1839 -0.47,-0.5343 -0.4274,-0.4882 -0.7675,-0.8766 -1.0439,-1.2018 0.3206,-0.279 0.5123,-0.5354 0.5729,-0.7724 0,-0.046 0.018,-0.072 0.021,-0.076 h 4e-4 3e-4 3e-4 c 0.1231,-0.645 0.2162,-1.1368 0.2789,-1.4803 l 0.8416,-4.6168 c 0.063,-0.3485 0.153,-0.8652 0.2737,-1.5518 0.023,-0.1904 -0.019,-0.4135 -0.1231,-0.6682 -0.062,-0.1161 -0.1214,-0.2221 -0.1798,-0.315 0,-0.018 0.7257,-0.3692 2.1957,-1.0337 v -6e-4 c 2e-4,-3e-4 7e-4,0 7e-4,0 l 4e-4,-3e-4 c 10e-5,-2e-4 6e-4,0 6e-4,0 v 0 z m -9.7389,0.6327 -0.4457,4.0412 c 0.8033,0.088 1.6059,0.1858 2.4071,0.2918 0.018,0 0.1583,-0.1144 0.4404,-0.327 l 0.438,-3.2178 c -0.1108,-0.1443 -0.2434,-0.3081 -0.3994,-0.4924 -0.8125,-0.1073 -1.6262,-0.2059 -2.4404,-0.2958 z m -42.9366,0.4665 c -0.039,0 -0.097,0.018 -0.186,0.035 -1.4551,0.3958 -2.9209,0.8402 -4.3882,1.3445 h -3e-4 c -0.1213,0.042 -0.2436,0.084 -0.3655,0.1267 0,0.06 -0.018,0.1213 -0.024,0.1812 -0.4648,0.6283 -0.8238,1.1357 -1.0518,1.464 -0.1179,0.1705 -0.21,0.3053 -0.2697,0.3936 -0.03,0.044 -0.053,0.079 -0.071,0.1073 0,0.018 -0.018,0.024 -0.025,0.039 0,0 0,0.018 -0.018,0.028 0,0 0,0.018 -0.018,0.033 0,0.018 -0.018,0.021 -0.018,0.04 0,0.019 -0.03,0.1143 -0.03,0.1143 -0.018,0.1178 -0.033,0.2366 -0.049,0.3548 0.1108,0.051 0.2206,0.1038 0.3305,0.1548 0.076,0.035 0.1636,0.084 0.2551,0.1372 0.1671,0.1214 0.2559,0.2327 0.2874,0.3012 0.2456,0.6324 0.4339,1.1229 0.5557,1.4452 l 1.662,4.3989 c 0.1179,0.3127 0.29,0.776 0.5057,1.3611 0,0 0,0.018 0,0.019 0.018,0.037 0.019,0.062 0.027,0.084 0.018,0.074 0.019,0.2931 -0.083,0.6268 -0.051,0.1653 -0.098,0.331 -0.1478,0.4963 0.1601,0.058 0.3211,0.1144 0.4809,0.1742 0.3916,0.1442 0.8834,0.3184 1.4741,0.532 0.2001,0.079 0.356,0.1408 0.4729,0.1835 0.06,0.023 0.1091,0.039 0.1584,0.053 0.025,0 0.047,0.018 0.084,0.021 0.035,0 0.053,0.049 0.2473,-0.018 1.1885,-0.4007 2.4087,-0.7734 3.6509,-1.1283 0.051,-0.018 0.1196,-0.028 0.2229,-0.1267 0.03,-0.03 0.8054,-1.1058 1.0189,-1.3934 0,0 0.042,-0.058 0.044,-0.058 0.102,-0.1372 0.1547,-0.206 0.2562,-0.343 0.03,-0.039 0.051,-0.071 0.068,-0.093 0,-0.018 0.018,-0.021 0.023,-0.034 0,0 0,-0.018 0.018,-0.024 0,0 0.018,-0.018 0.018,-0.03 0,0 0.018,-0.019 0.018,-0.037 0,-0.019 0.035,-0.1091 0.035,-0.1091 0,-0.04 0.018,-0.079 0.025,-0.1196 l -0.088,-0.349 c -0.065,-0.037 -0.1283,-0.074 -0.1936,-0.1126 -0.1875,-0.1073 -0.3812,-0.3609 -0.5171,-0.8925 l -1.2603,-4.9263 c -0.1161,-0.4552 -0.2943,-1.1764 -0.5303,-2.1495 h -8e-4 -7e-4 c -0.026,-0.102 0,-0.3213 0.1759,-0.6636 0.088,-0.1636 0.1763,-0.3263 0.2651,-0.4892 -0.1741,-0.074 -0.3476,-0.146 -0.522,-0.2183 -0.195,-0.081 -0.4161,-0.1688 -0.6618,-0.2633 -0.2781,-0.1091 -0.5915,-0.2292 -0.9362,-0.3552 0,0 -0.018,0 -0.018,0 -0.2206,-0.088 -0.3975,-0.1565 -0.528,-0.2017 -0.067,-0.023 -0.1231,-0.042 -0.1794,-0.057 -0.028,0 -0.054,-0.018 -0.097,-0.023 -0.026,0 -0.042,-0.024 -0.1073,-0.023 z m 43.4307,0.1178 c 0.5503,0.063 1.1002,0.1302 1.6497,0.2025 0.041,0.051 0.081,0.097 0.1178,0.1442 l -0.3658,2.7897 c -0.026,0.019 -0.062,0.046 -0.083,0.062 -0.5535,-0.072 -1.1077,-0.1407 -1.6625,-0.2042 z m 17.8904,0.328 c -0.395,0.5543 -0.7859,1.1105 -1.1727,1.6686 l -0.084,0.3071 c 0.039,0.065 0.079,0.1284 0.1178,0.1932 0.1923,0.3151 0.237,0.6472 0.1056,1.1099 l -1.887,6.6478 c -0.077,0.2719 -0.2433,0.4957 -0.5854,0.7171 -0.081,0.053 -0.1636,0.1056 -0.2444,0.1583 v 0.2942 c 0,0.3688 0,0.5806 0.018,0.7408 -3e-4,0 -7e-4,0 0,0 0,0.2577 0,0.4505 0.018,0.591 -0.018,0.2621 0.063,0.4373 0.2281,0.6405 1.8027,0.5171 3.5805,1.0912 5.3261,1.7271 0.074,-0.063 0.1495,-0.1267 0.2236,-0.1891 0.116,-0.1002 0.2677,-0.2479 0.6325,-0.5903 0.3417,-0.3209 0.8856,-0.8288 1.5481,-1.4291 0.3456,-0.3081 0.09,-0.7086 0.026,-0.7949 -0.3988,-0.5184 -0.667,-0.8604 -0.7727,-1.0039 -0.032,-0.042 -0.062,-0.084 -0.093,-0.1248 -0.1407,-0.051 -0.2828,-0.1038 -0.4246,-0.1549 -0.076,0.055 -0.1495,0.1109 -0.2243,0.1654 -0.2209,0.1636 -0.4852,0.321 -0.786,0.4705 -0.428,0.1706 -0.7529,0.1849 -1.0505,0.084 -0.3279,-0.1107 -0.6568,-0.2181 -0.9864,-0.324 l 2.0349,-6.314 c 0.042,-0.1336 0.076,-0.236 0.102,-0.3021 l 0.018,-0.054 c 0,0 0,-0.018 0.018,-0.018 l 0.019,-0.062 c 0.1266,-0.3945 0.3299,-0.627 0.6682,-0.7901 0.099,-0.048 0.1959,-0.093 0.2944,-0.1407 0,-0.1055 0,-0.2112 0,-0.317 -0.018,-0.5799 -0.018,-0.8714 -0.026,-1.0267 0,-0.1862 3e-4,-0.3291 0,-0.4376 0,-0.4922 -0.4271,-0.6531 -0.4271,-0.6531 -0.8669,-0.2749 -1.7368,-0.5369 -2.6089,-0.7859 z m -61.3656,0.1056 c 0.032,0 0.2767,0.074 0.732,0.2552 0.5268,0.1901 0.9792,0.3656 1.3452,0.5154 0.088,0.035 0.1707,0.068 0.2489,0.1002 -0.058,0.1074 -0.1055,0.2116 -0.1424,0.3105 -0.1021,0.2739 -0.1267,0.5126 -0.074,0.7152 0.2418,0.9729 0.4244,1.6944 0.5447,2.1532 l 1.2888,4.9207 c 0.1196,0.4578 0.2957,0.8003 0.5247,1.0268 0.077,0.077 0.1601,0.1407 0.2491,0.1922 v 0 c 0,0 -0.051,0.071 -0.1478,0.2019 -0.1565,0.2116 -1.195,1.649 -1.2166,1.6548 -1.2505,0.3565 -2.4803,0.7321 -3.6798,1.1368 -0.026,0 -0.2426,-0.072 -0.6556,-0.237 -0.5906,-0.2138 -1.0811,-0.3881 -1.4668,-0.5303 0.1232,-0.4001 0.1548,-0.7169 0.086,-0.9525 -0.018,-0.044 -0.023,-0.068 -0.019,-0.076 v -3e-4 -3e-4 h 3e-4 v -4e-4 h 4e-4 l 3e-4,-4e-4 c -0.2219,-0.6205 -0.3918,-1.091 -0.5127,-1.4202 l -1.6207,-4.4162 c -0.1214,-0.3317 -0.3071,-0.8278 -0.5534,-1.4795 -0.077,-0.1759 -0.2292,-0.3469 -0.4548,-0.5106 -0.1143,-0.068 -0.2229,-0.1267 -0.3242,-0.1759 0,-0.018 0.4575,-0.7053 1.4499,-2.0379 l -3e-4,-4e-4 h 6e-4 c 0,0 0.018,-0.018 0.035,-0.018 v -3e-4 c 1.4562,-0.4995 2.9128,-0.9408 4.3598,-1.3346 z m 9.4145,0.027 c -0.7589,0.1371 -1.5169,0.2821 -2.2732,0.4363 l 0.638,3.1296 c 0.7349,-0.1495 1.4714,-0.2907 2.2092,-0.4234 0.2067,-0.2798 0.3777,-0.5142 0.5163,-0.7097 l -0.3342,-1.93 c -0.2346,-0.1653 -0.4863,-0.3333 -0.7561,-0.5028 z m 52.2097,0.4902 c 0.7323,0.2126 1.4631,0.4342 2.1917,0.6652 h 3e-4 l 3e-4,4e-4 4e-4,3e-4 4e-4,4e-4 c 0.018,0.018 0.025,0.2014 0.023,0.5547 0,0.076 0.019,0.4352 0.033,1.0445 -0.4611,0.2234 -0.768,0.59 -0.927,1.0939 -0.018,0.021 -0.063,0.1653 -0.1478,0.4371 l -2.1545,6.8285 c 0.4911,0.1548 0.9806,0.3138 1.4681,0.4772 0.4283,0.1443 0.8984,0.1091 1.4189,-0.1002 0.3356,-0.1636 0.6329,-0.3409 0.8914,-0.5311 0,0 0.018,0 0.018,0 0.1178,0.1601 0.3834,0.4975 0.7821,1.015 0.03,0.048 0.042,0.074 0.042,0.081 h -3e-4 c -1.3519,1.2362 -2.0465,1.9209 -2.148,2.0078 -1.6252,-0.5856 -3.2774,-1.1178 -4.9505,-1.6012 -0.018,-0.018 -0.019,-0.2782 -0.025,-0.7871 0,-0.093 -0.018,-0.3346 -0.018,-0.7279 0.4228,-0.2726 0.696,-0.6102 0.8142,-1.0175 l 1.9263,-6.6361 c 0.1635,-0.5635 0.1143,-1.0685 -0.1566,-1.5139 v -0.018 c 0.3004,-0.428 0.6029,-0.8548 0.9082,-1.2803 z m -52.3465,0.067 c 0.1319,0.084 0.2591,0.1688 0.3816,0.2529 l 0.2683,1.5018 c -0.076,0.1056 -0.16,0.2231 -0.2547,0.3515 -0.4882,0.09 -0.976,0.1817 -1.4631,0.2781 l -0.4159,-2.102 c 0.4941,-0.099 0.9887,-0.1921 1.4838,-0.2823 z m 44.4326,0.018 c -0.3784,0.1565 -0.6523,0.2766 -0.8095,0.35 l -1.4783,7.2967 c 0.018,0.026 0.201,0.2391 0.5592,0.6408 0.4823,0.102 0.9638,0.2067 1.4441,0.3156 0.4086,-0.1853 0.6542,-0.2962 0.7657,-0.3515 l 1.6925,-7.2643 c -0.018,-0.018 -0.2127,-0.2259 -0.5946,-0.6451 -0.5259,-0.1178 -1.0521,-0.2325 -1.5791,-0.3422 z m 0.074,0.5509 c 0.4039,0.084 0.8078,0.1723 1.2109,0.262 0.1091,0.1196 0.2157,0.2377 0.2855,0.3138 l -1.5346,6.7522 c -0.097,0.046 -0.1968,0.092 -0.3726,0.1706 -0.3719,-0.083 -0.7441,-0.1653 -1.117,-0.244 -0.1038,-0.116 -0.2085,-0.2337 -0.2724,-0.3065 l 1.4105,-6.7812 c 0.1055,-0.047 0.2275,-0.1003 0.3897,-0.1671 z m -58.6863,0.1073 v 0 c -10e-5,0 -7e-4,0 0,0 l -3e-4,5e-4 -4e-4,3e-4 -5e-4,4e-4 -3e-4,3e-4 c 10e-5,0 5e-4,0 0,0 v -3e-4 h 3e-4 v -4e-4 h 3e-4 4e-4 4e-4 v -3e-4 l 3e-4,-4e-4 c 4e-4,0 7e-4,0 0,0 z m 4.1055,1.0641 c -0.5248,0.1548 -1.0498,0.3145 -1.5745,0.4817 -0.2591,0.3255 -0.4434,0.5676 -0.5465,0.7104 l 2.3393,7.0941 c 0.025,0.018 0.2898,0.109 0.7932,0.2851 0.4623,-0.1478 0.9274,-0.29 1.3952,-0.4294 0.2658,-0.3653 0.4203,-0.575 0.4929,-0.6816 l -2.0573,-7.1848 c -0.019,0 -0.2976,-0.095 -0.8423,-0.2755 z m -8.3518,0.4857 c -0.068,0 -0.1495,0 -0.2406,0.051 l -2.2348,1.02 0.2628,2.192 0.2834,0.1179 c 0.065,0.028 0.1425,0.068 0.2265,0.1231 0.2544,0.1724 0.3798,0.3266 0.4161,0.4059 l 0.8907,1.9514 c -0.7976,-0.7793 -1.6635,-1.6256 -2.9883,-2.9188 v 0 c -0.2388,-0.2388 -0.4223,-0.4209 -0.5511,-0.5458 -0.065,-0.063 -0.1161,-0.1126 -0.1565,-0.1495 -0.019,-0.019 -0.037,-0.035 -0.058,-0.053 -0.018,0 -0.021,-0.018 -0.039,-0.03 -0.018,-0.018 -0.018,-0.028 -0.1354,-0.074 l -0.2044,-0.076 -2.6156,1.1991 0.2314,1.9607 0.033,0.076 c 0.053,0.1179 0.1786,0.2429 0.3098,0.2989 0.3581,0.1636 0.5577,0.3643 0.6819,0.6358 l 2.7074,5.932 c 0.084,0.1843 0.1742,0.4181 0.2633,0.6923 0.06,0.2037 0.06,0.4545 -0.039,0.7875 l -0.057,0.1887 0.081,0.1793 c 0.065,0.1425 0.065,0.1091 0.079,0.1266 0.018,0.018 0.026,0.032 0.04,0.048 0.028,0.034 0.065,0.074 0.1108,0.1266 0.093,0.102 0.2271,0.2471 0.4032,0.4361 0.16,0.1799 0.286,0.3182 0.3778,0.4145 0.047,0.049 0.084,0.088 0.1232,0.1249 0.019,0.018 0.037,0.035 0.076,0.062 0.019,0.018 0.042,0.032 0.099,0.057 0.028,0.018 0.065,0.03 0.1319,0.042 0.033,0 0.1267,0 0.1267,0 3e-4,0 0.1844,-0.046 0.1847,-0.046 l 2.2574,-1.0304 -0.257,-2.2111 -0.2577,-0.1266 c -0.2716,-0.132 -0.4401,-0.2602 -0.4899,-0.3147 l -0.025,-0.026 -0.025,-0.023 v -3e-4 c 0,-0.018 -0.2181,-0.3045 -0.4233,-0.7542 l -0.6074,-1.3307 c 1.1127,1.0904 2.5173,2.4703 3.0351,2.9707 0.2264,0.2287 0.4003,0.4024 0.5204,0.52 0.062,0.06 0.1091,0.1055 0.1478,0.1407 0.019,0.018 0.035,0.033 0.06,0.053 0.018,0.018 0.025,0.019 0.058,0.042 0.018,0.018 0.037,0.024 0.09,0.046 0.026,0.018 0.1214,0.033 0.1214,0.033 h 0.1179 c 10e-5,-3e-4 0.1759,-0.046 0.1759,-0.046 l 2.399,-1.0952 -0.2507,-2.1943 -0.2828,-0.1196 c -0.044,-0.019 -0.1442,-0.072 -0.2573,-0.1355 -0.2268,-0.1792 -0.3532,-0.3408 -0.3504,-0.3349 l -3.073,-6.7324 c 3e-4,0 -0.028,-0.086 -0.049,-0.2107 v -0.018 -0.018 c -0.028,-0.1267 -0.025,-0.3344 0.067,-0.6255 l 0.06,-0.1918 -0.083,-0.1824 c -0.041,-0.09 -0.049,-0.086 -0.06,-0.102 -0.018,-0.018 -0.019,-0.025 -0.026,-0.033 -0.018,-0.021 -0.032,-0.04 -0.053,-0.065 -0.042,-0.048 -0.097,-0.1108 -0.1707,-0.1917 -0.1442,-0.1601 -0.3532,-0.3912 -0.6297,-0.6932 -0.051,-0.063 -0.095,-0.1143 -0.1442,-0.1636 -0.026,-0.026 -0.051,-0.053 -0.1073,-0.093 -0.028,-0.019 -0.063,-0.046 -0.1372,-0.071 -0.037,-0.018 -0.091,-0.03 -0.1601,-0.032 z m 8.3213,0.072 c 0.1425,0.046 0.2649,0.088 0.4069,0.1337 l 1.9543,6.6605 c -0.065,0.091 -0.1231,0.1723 -0.2383,0.3319 -0.3624,0.109 -0.7233,0.2195 -1.0824,0.3329 -0.139,-0.049 -0.3026,-0.1054 -0.3849,-0.1354 l -2.1236,-6.6152 c 0.071,-0.093 0.153,-0.2013 0.2637,-0.341 0.4012,-0.1266 0.8029,-0.2496 1.2043,-0.3684 z m -8.3424,0.4628 c 0.018,0 0.076,0.057 0.1759,0.1787 0.5601,0.612 0.8459,0.931 0.858,0.9574 -0.1091,0.3493 -0.1354,0.6482 -0.079,0.8969 0.026,0.1548 0.054,0.2688 0.09,0.3426 l 3.0731,6.7321 c 0.071,0.1531 0.2466,0.3376 0.5298,0.5529 0.1477,0.086 0.2645,0.1477 0.3516,0.1839 l 0.1724,1.51 -2.0515,0.9364 c -0.018,0 -0.2465,-0.2257 -0.708,-0.6914 -0.8564,-0.8278 -2.5347,-2.4703 -5.0347,-4.9279 v 0 l 1.7716,3.8815 c 0.2314,0.5069 0.419,0.8198 0.5629,0.9392 0.1266,0.139 0.3429,0.2834 0.6466,0.4319 l 0.1791,1.5452 -1.9089,0.8714 c -0.018,0 -0.1873,-0.1724 -0.5145,-0.5403 -0.3504,-0.3761 -0.5303,-0.5745 -0.54,-0.5954 0.1214,-0.4062 0.1337,-0.7696 0.039,-1.0899 -0.097,-0.2942 -0.1919,-0.547 -0.2885,-0.7583 l -2.7077,-5.9322 c -0.1808,-0.3962 -0.5006,-0.6973 -0.9581,-0.9033 -0.018,0 -0.026,-0.018 -0.033,-0.032 l -0.177,-1.4988 2.0675,-0.9437 c 0.023,0 0.2756,0.2546 0.7572,0.7365 3.3141,3.2346 4.9795,4.8639 4.9969,4.8878 v 0 l -2.0573,-4.5073 c -0.097,-0.2114 -0.2966,-0.4196 -0.601,-0.6252 -0.1091,-0.072 -0.215,-0.1284 -0.3175,-0.1706 l -0.1805,-1.5066 1.8854,-0.8606 c 6e-4,-2e-4 8e-4,-2e-4 0,-4e-4 z m 80.1559,0.09 -0.3644,0.018 -1.2088,1.3129 -0.1214,0.2625 0.057,0.1902 c 0.1178,0.397 0.097,0.6818 -0.023,0.94 l -2.9255,6.3217 c -0.1232,0.2651 -0.3253,0.4628 -0.6983,0.6244 l -0.2728,0.1179 -0.039,0.2951 c -0.065,0.4952 -0.1144,0.8677 -0.1443,1.1198 -0.093,0.6019 -0.067,0.7645 0.2634,0.9168 l 2.2109,1.0232 0.2593,-0.2794 c 0.3312,-0.3558 0.581,-0.6258 0.7506,-0.8105 0.1565,-0.1689 0.1924,-0.2081 0.328,-0.3752 -0.053,0.4575 -0.048,0.7844 -0.098,1.242 -0.086,0.7731 0,0.7953 0.2634,0.9182 l 2.2126,1.0237 0.2597,-0.2687 c 0.1231,-0.1284 0.448,-0.4783 0.9992,-1.0746 l 0.057,-0.062 0.1424,-0.3092 -0.109,-0.2239 c -0.065,-0.1337 -0.1038,-0.2222 -0.1108,-0.2399 -0.093,-0.2956 -0.1302,-0.5506 -0.1214,-0.7624 v -0.021 -0.021 c -0.048,-1.1761 -0.09,-2.4771 -0.1249,-3.8625 0.3196,-0.2631 0.8874,-0.7238 1.9097,-1.5427 v 0 0 c 0.3351,-0.2776 0.5996,-0.493 0.7909,-0.644 0.1741,-0.1372 0.3182,-0.2358 0.3148,-0.2366 v -5e-4 h 3e-4 4e-4 v -4e-4 l 0.046,-0.024 0.042,-0.039 c 0.3432,-0.3059 0.6148,-0.42 0.7736,-0.4338 l 0.4218,-0.037 0.053,-0.4206 c 0.054,-0.4318 0.081,-0.6209 0.093,-0.7576 0.03,-0.219 0.053,-0.3889 0.065,-0.5157 0,-0.063 0.018,-0.1143 0.018,-0.1636 0,-0.048 0.033,-0.028 -0.018,-0.2232 l -0.063,-0.2396 -2.4288,-1.1228 -0.2595,0.263 c -0.1249,0.1266 -0.4657,0.4869 -1.0575,1.1158 l -0.102,0.1072 0.021,-0.093 c 0.039,-0.1689 0.062,-0.3861 0.1178,-0.8246 0.03,-0.237 0.051,-0.4155 0.066,-0.5381 0,-0.2501 0.018,-0.378 -0.093,-0.5614 -2e-4,0 -0.1921,-0.1531 -0.1921,-0.1531 z m -0.1073,0.5298 1.8571,0.8595 c 0,0 -0.021,0.2393 -0.079,0.7113 -0.054,0.4353 -0.09,0.6934 -0.1091,0.7744 -0.4515,0.1877 -0.7797,0.5027 -0.9845,0.9453 l -0.2195,0.4742 -1.042,2.2519 c 1.2668,-1.0513 2.1953,-1.8141 2.7862,-2.289 0.1513,-0.1478 0.2587,-0.2897 0.3222,-0.4267 l 0.018,-0.032 c 0,-0.018 0.018,-0.018 0.019,-0.019 0.062,-0.1319 0.088,-0.2793 0.079,-0.4427 0.591,-0.6281 0.9405,-0.9963 1.0489,-1.106 h 3e-4 l 1.8645,0.8631 c 0.018,0.035 -0.018,0.2709 -0.076,0.7038 0,0.049 -0.035,0.3032 -0.093,0.762 -0.3265,0.028 -0.6855,0.2172 -1.0776,0.5665 -0.1126,0.063 -0.5052,0.3738 -1.1791,0.9319 -1.1283,0.9039 -1.8331,1.4729 -2.1142,1.7074 0.037,1.4948 0.081,2.8712 0.1319,4.1292 -0.018,0.2886 0.037,0.6057 0.146,0.9504 0.019,0.054 0.067,0.1547 0.1372,0.3032 v 0 c -0.5507,0.5958 -0.8814,0.9514 -0.9922,1.0665 l -1.8728,-0.867 c 0,0 0.051,-0.5107 0.1689,-1.5243 0.1196,-0.079 0.2135,-0.1923 0.2818,-0.3397 0.1143,-0.2477 0.1565,-0.5604 0.1266,-0.9388 -0.021,-1.02 -0.03,-1.5584 -0.03,-1.6155 -0.044,0.024 -0.3991,0.2949 -1.0665,0.8112 -0.1037,0.074 -0.1583,0.1143 -0.1635,0.1266 l -0.1197,0.2607 c -0.1565,0.337 -0.1741,0.7349 -0.053,1.1935 l 0.018,0.067 v 0 c -0.018,0.021 -0.3456,0.387 -1.007,1.0978 l -1.8643,-0.8628 c -0.018,0 0.049,-0.5015 0.1805,-1.4899 0.4639,-0.2008 0.7862,-0.4962 0.9667,-0.8861 l 2.9251,-6.3214 c 0.1779,-0.3845 0.1947,-0.8218 0.051,-1.3108 v 0 l 1.0032,-1.0902 z m 2.1156,2.728 v 0.1002 c 0,0.088 -0.018,0.1407 -0.03,0.1877 0,0.018 -0.018,0.021 -0.021,0.03 l -0.018,0.032 c -0.027,0.057 -0.093,0.1512 -0.2069,0.264 -0.2119,0.1706 -0.6867,0.5657 -0.9815,0.8069 l 0.076,-0.1654 0.2197,-0.4748 c 0.1549,-0.3345 0.3666,-0.5376 0.7089,-0.68 z m -3.5084,6.7234 h -3e-4 c -0.021,0.4135 0.099,0.8985 -0.067,1.285 -0.091,0.1283 -0.1805,0.178 -0.2919,0.2517 0,-0.1689 0,-0.2107 -0.028,-0.3277 -0.097,-0.372 -0.072,-0.6294 0.023,-0.8366 0.068,-0.1863 0.2081,-0.2529 0.3655,-0.3734 z" /></g></svg>
