<?xml version="1.0" encoding="UTF-8" standalone="no"?>
<svg
   width="281.09326"
   height="228.89258"
   viewBox="0 0 74.37259 60.561163"
   version="1.1"
   id="svg16"
   xml:space="preserve"
   xmlns="http://www.w3.org/2000/svg"
   xmlns:svg="http://www.w3.org/2000/svg"
   xmlns:rdf="http://www.w3.org/1999/02/22-rdf-syntax-ns#"
   xmlns:cc="http://creativecommons.org/ns#"
   xmlns:dc="http://purl.org/dc/elements/1.1/"><defs
     id="defs10" /><metadata
     id="metadata13"><rdf:RDF><cc:Work
         rdf:about=""><dc:format>image/svg+xml</dc:format><dc:type
           rdf:resource="http://purl.org/dc/dcmitype/StillImage" /></cc:Work></rdf:RDF></metadata><g
     id="layer1"
     transform="translate(1843.2155,-7153.8983)"><path
       id="path2674"
       style="color:#000000;fill:#ffffff;stroke:none;stroke-width:1.1066;stroke-linecap:round;stroke-linejoin:round;-inkscape-stroke:none"
       d="m -1791.5542,7153.8982 a 0.58557455,0.58557455 0 0 0 -0.5943,0.5767 0.58557455,0.58557455 0 0 0 0.5772,0.5943 c 0,0 2.6328,0.041 5.4033,0.1256 1.3852,0.042 2.8039,0.095 3.9403,0.1576 0.5682,0.031 1.0656,0.064 1.448,0.1003 0.3824,0.036 0.6837,0.091 0.7064,0.097 0.9881,0.2987 1.9433,0.7613 2.8185,1.3333 0.8534,0.5576 1.6377,1.2533 2.3259,2.0231 0.6809,0.7616 1.2666,1.6241 1.7482,2.5352 0.4838,0.9157 0.866,1.8944 1.1173,2.8939 0.2521,1.0023 0.4117,2.027 0.3808,3.0215 -0.046,1.5296 -0.3044,3.0732 -0.8387,4.4783 -0.5373,1.4131 -1.3272,2.7617 -2.328,3.8752 -1.0215,1.1367 -2.268,2.1185 -3.6308,2.7518 -1.4171,0.6585 -3.0807,0.8769 -4.7506,1.063 -2.5337,0.2825 -7.9406,0 -7.9406,0 a 0.58563311,0.58563311 0 0 0 -0.618,0.5834 v 12.6266 a 0.58557455,0.58557455 0 0 0 0.5855,0.5861 0.58557455,0.58557455 0 0 0 0.5854,-0.5861 v -12.0406 c 0.7081,0.039 4.938,0.2855 7.5174,0 1.6811,-0.1874 3.4728,-0.403 5.1134,-1.1653 1.5335,-0.7125 2.8963,-1.7934 4.0096,-3.0323 1.1095,-1.2345 1.9676,-2.7023 2.5523,-4.2401 0.5911,-1.5545 0.8622,-3.2236 0.9121,-4.8591 0.036,-1.143 -0.1455,-2.2719 -0.415,-3.3435 -0.2756,-1.0962 -0.6911,-2.1606 -1.217,-3.1554 -0.5223,-0.9882 -1.1596,-1.9288 -1.9105,-2.7688 -0.7487,-0.8374 -1.6055,-1.5998 -2.5569,-2.2216 -0.9589,-0.6267 -2.0135,-1.1409 -3.1228,-1.4763 -0.2553,-0.077 -0.5266,-0.103 -0.9338,-0.1406 -0.4072,-0.038 -0.9165,-0.072 -1.4935,-0.1039 -1.1539,-0.063 -2.5797,-0.1154 -3.9703,-0.1576 -2.7809,-0.084 -5.4208,-0.1276 -5.4208,-0.1276 z m -38.13,0.8232 a 0.58557455,0.58557455 0 0 0 -0.2899,0.089 0.58557455,0.58557455 0 0 0 -0.1876,0.8057 l 13.3956,21.4322 a 0.58563311,0.58563311 0 0 0 1.0831,-0.3095 v -21.2478 a 0.58557455,0.58557455 0 0 0 -0.586,-0.5855 0.58557455,0.58557455 0 0 0 -0.5855,0.5855 v 19.2035 l -12.3134,-19.6986 a 0.58557455,0.58557455 0 0 0 -0.5163,-0.2744 z m -11.2799,0.3437 a 0.58557455,0.58557455 0 0 0 -0.586,0.5855 v 37.082 a 0.58557455,0.58557455 0 0 0 0.586,0.586 0.58557455,0.58557455 0 0 0 0.5855,-0.586 v -37.082 a 0.58557455,0.58557455 0 0 0 -0.5855,-0.5855 z m 34.7214,0 a 0.58557455,0.58557455 0 0 0 -0.5855,0.5855 v 37.1879 a 0.58557455,0.58557455 0 0 0 0.5855,0.586 0.58557455,0.58557455 0 0 0 0.586,-0.586 v -37.1879 a 0.58557455,0.58557455 0 0 0 -0.586,-0.5855 z m 4.7744,0.054 a 0.58557455,0.58557455 0 0 0 -0.5855,0.5854 v 37.0278 a 0.58557455,0.58557455 0 0 0 0.5855,0.586 0.58557455,0.58557455 0 0 0 0.5839,-0.586 v -37.0278 a 0.58557455,0.58557455 0 0 0 -0.5839,-0.5854 z m 12.3449,7.1127 c -1.1813,0.029 -2.113,0.086 -2.113,0.086 v -0.011 a 0.58557455,0.58557455 0 0 0 -0.5509,0.6186 0.58557455,0.58557455 0 0 0 0.616,0.5509 c 0,0 3.7957,-0.202 5.5242,0 0.5711,0.065 1.1006,0.1441 1.5085,0.3416 0.4082,0.1978 0.7947,0.518 1.111,0.8883 0.2938,0.344 0.5252,0.7737 0.6894,1.2257 0.1627,0.4481 0.2559,0.9302 0.2573,1.3938 -3e-4,0.4839 -0.091,0.9827 -0.2573,1.4438 -0.1623,0.4509 -0.3951,0.8796 -0.6894,1.2232 -0.3098,0.3619 -0.6845,0.6747 -1.0785,0.8604 -0.4074,0.1924 -0.9482,0.2551 -1.5368,0.3178 -1.7406,0.1855 -5.531,0 -5.531,0 a 0.58557455,0.58557455 0 0 0 -0.6154,0.5529 0.58557455,0.58557455 0 0 0 0.555,0.616 c 0,0 3.7277,0.2095 5.7149,0 0.5803,-0.062 1.2567,-0.1143 1.9125,-0.4237 0.5852,-0.2761 1.0732,-0.6954 1.4676,-1.156 0.4062,-0.4744 0.7009,-1.0261 0.9033,-1.5886 0.2111,-0.5861 0.3266,-1.2149 0.3266,-1.8438 0,-0.6148 -0.1232,-1.2237 -0.3286,-1.7895 -0.2033,-0.5603 -0.4935,-1.1114 -0.8992,-1.5865 -0.4027,-0.4716 -0.9029,-0.8946 -1.4914,-1.1798 -0.638,-0.3091 -1.3012,-0.387 -1.8846,-0.4542 -0.9979,-0.1154 -2.4288,-0.1151 -3.6102,-0.086 z m -41.9281,7.104 a 0.58563311,0.58563311 0 0 0 -0.1499,0.022 0.58563311,0.58563311 0 0 0 -0.4279,0.5643 v 22.7846 a 0.58557455,0.58557455 0 0 0 0.5855,0.586 0.58557455,0.58557455 0 0 0 0.586,-0.586 v -20.6881 l 12.8923,21.2824 a 0.58557455,0.58557455 0 0 0 0.804,0.199 0.58557455,0.58557455 0 0 0 0.1985,-0.8062 l -13.9795,-23.0766 a 0.58563311,0.58563311 0 0 0 -0.509,-0.2811 z" /><path
       style="fill:#d40000;fill-opacity:1;stroke:none;stroke-width:0.208737"
       d="m -1779.3882,7214.3589 c -0.5433,-0.2122 -0.8629,-0.6004 -0.8653,-1.0508 0,-0.3511 0.1494,-0.506 0.7504,-0.768 1.7087,-0.7455 3.1637,-1.7595 4.6377,-3.2319 1.0705,-1.0697 1.6437,-1.859 1.8955,-2.6101 0.1411,-0.4216 0.1073,-0.6381 -0.1266,-0.8236 -0.095,-0.076 -0.522,-0.2987 -0.9501,-0.4975 -1.1686,-0.5423 -1.7073,-1.0281 -1.8534,-1.6709 -0.1488,-0.6548 0.124,-1.2264 0.9748,-2.0391 1.2826,-1.2261 2.8365,-2.2803 4.1274,-2.8001 0.6132,-0.247 0.8065,-0.2467 1.3035,0 0.5428,0.2715 0.7381,0.5673 0.6169,0.9349 -0.092,0.2767 -0.3077,0.4314 -1.2393,0.8868 -0.9509,0.4651 -1.5384,0.8827 -2.599,1.8479 -0.3839,0.3493 -0.7594,0.6864 -0.8346,0.7493 l -0.1365,0.1147 0.1186,0.1501 c 0.065,0.083 0.2692,0.2266 0.4541,0.3197 1.5344,0.7747 2.2645,1.5217 2.4178,2.4736 0.1029,0.6408 -0.041,1.2507 -0.5315,2.2407 -1.0048,2.0299 -3.0223,3.8547 -5.7406,5.1919 -0.5769,0.284 -1.1681,0.5555 -1.3136,0.6031 -0.3486,0.1147 -0.7781,0.1051 -1.1058,-0.023 z m -6.0424,-0.9439 c -0.097,-0.029 -0.2464,-0.1443 -0.3308,-0.2547 -0.1278,-0.1673 -0.1563,-0.2665 -0.1721,-0.5926 -0.017,-0.3651 0.034,-0.5713 0.7314,-3.0144 0.4127,-1.4426 0.7439,-2.6415 0.7362,-2.6646 -0.012,-0.023 -0.275,0.1471 -0.5939,0.378 -2.5786,1.8668 -5.7694,3.6066 -7.502,4.091 -0.4522,0.1266 -0.6394,0.149 -1.2242,0.1476 -0.6026,0 -0.7499,-0.022 -1.1597,-0.155 -0.8604,-0.2813 -1.5915,-0.8047 -1.995,-1.4284 -0.2681,-0.415 -0.3776,-0.753 -0.4247,-1.3128 l -0.038,-0.4527 -0.5799,0.5082 c -0.8059,0.7062 -2.0546,1.6631 -2.5611,1.9625 -1.0661,0.6303 -1.4817,0.7509 -2.2018,0.6393 -0.4667,-0.072 -0.7815,-0.2395 -1.0561,-0.5602 -0.2425,-0.2833 -0.3517,-0.5967 -0.4341,-1.2459 -0.1083,-0.8492 -0.036,-1.2082 0.8604,-4.3351 1.1451,-3.9934 1.1692,-4.1425 0.6093,-3.7688 -0.3656,0.2443 -0.612,0.5097 -1.5206,1.6378 -1.3143,1.6317 -1.6314,2.0817 -3.4168,4.8462 -0.7815,1.2099 -0.8971,1.3576 -1.1768,1.5002 -0.186,0.095 -0.2874,0.1095 -0.5733,0.083 -0.3847,-0.036 -0.5228,-0.093 -0.7496,-0.3035 -0.1671,-0.1559 -0.3164,-0.5764 -0.3164,-0.892 0,-0.1096 0.1348,-0.8713 0.2995,-1.6922 0.1648,-0.8207 0.3769,-2.0249 0.4715,-2.6758 0.095,-0.6509 0.1839,-1.2401 0.199,-1.3096 l 0.028,-0.1265 -0.2145,0.1095 c -0.2726,0.1392 -0.3379,0.2206 -1.3722,1.7136 -1.2124,1.7502 -1.7371,2.5416 -2.4186,3.6485 -0.7745,1.2572 -0.8952,1.4207 -1.1659,1.5794 -0.2806,0.1644 -0.5736,0.1702 -0.8892,0.017 -0.2855,-0.1382 -0.4606,-0.3672 -0.499,-0.6522 -0.033,-0.2417 0.1187,-0.6485 0.7812,-2.1018 0.2277,-0.4997 0.4088,-0.9131 0.4024,-0.9185 -0.013,0 -0.2979,0.084 -0.6472,0.1986 -0.7272,0.239 -1.4419,0.3953 -2.4301,0.5318 -0.9098,0.1253 -3.1639,0.1325 -3.9003,0.013 -0.2935,-0.049 -0.5543,-0.065 -0.6246,-0.038 -0.08,0.031 -0.1952,0.205 -0.3453,0.5288 -0.6602,1.4228 -0.8515,1.7935 -1.1847,2.2938 -0.4223,0.6343 -1.2722,1.5454 -1.7173,1.8408 -0.9234,0.613 -1.9197,0.6091 -2.5206,-0.012 -0.3609,-0.3714 -0.5311,-0.9369 -0.5311,-1.7635 2e-4,-0.4256 0.2521,-1.7462 0.4609,-2.4156 0.074,-0.2381 0.1052,-0.4109 0.069,-0.3896 -0.034,0.022 -0.3859,0.253 -0.7809,0.5157 -1.994,1.3268 -4.1386,2.4871 -6.3202,3.4202 -2.0824,0.8905 -3.383,1.2299 -4.6978,1.2261 -0.8373,0 -1.3843,-0.1063 -1.9053,-0.3649 -0.8855,-0.4376 -1.2401,-1.0938 -1.2419,-2.2978 0,-0.6267 0.079,-0.9704 0.4259,-1.7915 0.899,-2.1385 2.1171,-4.0213 3.6042,-5.5711 1.2798,-1.334 2.3565,-1.9093 3.4509,-1.8449 0.8796,0.052 1.5385,0.4761 1.6844,1.0841 0.1749,0.7294 -0.3389,1.9071 -1.1128,2.5513 -0.6085,0.5063 -0.9799,0.6216 -1.5077,0.4683 -0.3997,-0.1161 -0.5812,-0.2892 -0.5812,-0.5543 0,-0.1715 0.048,-0.2426 0.3565,-0.5353 0.3583,-0.3393 0.4982,-0.5764 0.417,-0.7076 -0.092,-0.1478 -0.3314,0.017 -1.0281,0.7023 -0.7631,0.7516 -1.3449,1.4459 -1.8868,2.252 -0.9314,1.3853 -1.8901,3.5636 -1.8901,4.2943 0,0.3773 0.1051,0.524 0.4298,0.597 0.4806,0.1073 2.1981,-0.2514 3.558,-0.7445 1.5502,-0.5619 4.313,-1.8896 6.0913,-2.9275 1.8657,-1.0889 4.3167,-2.8301 4.6668,-3.3154 0.8149,-1.1297 1.2693,-1.6898 1.8209,-2.2442 0.956,-0.9609 1.5433,-1.2086 2.2745,-0.9595 0.137,0.046 0.3316,0.1537 0.4324,0.2377 0.178,0.1487 0.183,0.1642 0.172,0.5366 0,0.2109 0.018,0.686 0.055,1.0556 0.075,0.7475 0.032,1.3083 -0.1847,2.435 -0.104,0.5434 -0.1096,0.6319 -0.04,0.7 0.2878,0.2798 3.2245,0.3794 4.477,0.1522 1.2751,-0.2317 2.2756,-0.6389 3.1063,-1.2642 0.5266,-0.3967 0.4871,-0.322 0.866,-1.6428 0.3198,-1.1152 0.3885,-1.5099 0.4228,-2.4215 0.032,-0.8565 0.036,-0.8742 0.1767,-0.9857 0.1187,-0.094 0.2034,-0.1095 0.4883,-0.093 0.4394,0.028 0.7484,0.2301 0.9507,0.623 0.1292,0.2505 0.1425,0.3432 0.1598,1.0902 l 0.019,0.8163 h 0.1647 c 0.124,0 0.2431,-0.073 0.4783,-0.2972 0.1724,-0.1632 0.45,-0.3678 0.6172,-0.4544 0.2598,-0.1346 0.3675,-0.1576 0.7456,-0.1576 0.3722,0 0.4863,0.024 0.7247,0.1484 0.1555,0.08 0.3836,0.2625 0.5067,0.4023 0.3697,0.4199 0.4138,0.6118 0.4398,1.9135 0.023,1.0939 0.028,1.1421 0.1359,1.1703 0.1479,0.038 0.1576,0.028 1.6705,-1.8148 1.4528,-1.77 1.7894,-2.1382 2.2992,-2.516 0.6092,-0.4519 0.9341,-0.5767 1.4858,-0.5717 0.623,0 1.0179,0.1574 1.4116,0.5414 0.3685,0.3593 0.4661,0.6606 0.4658,1.4389 0,0.9404 -0.2483,1.996 -1.1883,5.0572 -0.698,2.2728 -0.8567,2.9242 -0.7516,3.0853 0.055,0.085 0.3014,0.025 0.6828,-0.1665 0.2261,-0.1132 1.7658,-1.329 2.7224,-2.1488 1.3182,-1.1297 2.8933,-2.7891 3.4845,-3.6706 0.4008,-0.5978 0.659,-0.9347 1.1786,-1.5386 0.8456,-0.983 1.5084,-1.535 2.3495,-1.9566 1.0344,-0.5186 1.6415,-0.5719 2.3767,-0.2085 1.2016,0.5938 1.2707,1.6597 0.2247,3.4713 -1.279,2.2153 -3.2352,4.2324 -5.5831,5.7569 -0.5834,0.3787 -0.6359,0.4269 -0.6359,0.5825 0,0.2596 0.093,0.3802 0.4048,0.5253 0.3842,0.179 0.7463,0.172 1.5105,-0.029 0.7929,-0.2085 1.6243,-0.5507 2.8419,-1.1694 2.136,-1.0854 4.6715,-2.7356 6.3438,-4.1284 0.7099,-0.5914 0.9923,-0.9474 1.1806,-1.4881 0.087,-0.2508 0.1494,-0.4652 0.138,-0.4761 -0.013,-0.013 -0.3563,0 -0.7662,0.034 -1.1532,0.083 -1.6602,0 -2.0015,-0.326 -0.1615,-0.1547 -0.2416,-0.4287 -0.1813,-0.6193 0.087,-0.2731 0.3269,-0.3238 2.2378,-0.4721 0.5924,-0.046 1.1156,-0.083 1.1626,-0.083 0.049,0 0.1173,-0.089 0.1588,-0.207 0.7098,-2.0079 1.8565,-4.9223 2.2983,-5.8405 0.5606,-1.1659 0.8116,-1.4629 1.2357,-1.4634 0.4377,0 0.9356,0.5167 0.8723,0.906 -0.017,0.097 -0.2063,0.5867 -0.4232,1.0858 -1.1371,2.618 -1.3574,3.1568 -1.7342,4.242 l -0.4101,1.1808 0.5049,-0.036 c 2.5476,-0.1784 3.4291,-0.1958 3.6616,-0.074 0.2279,0.12 0.4054,0.3499 0.4054,0.5245 0,0.2104 -0.3724,0.5366 -0.6996,0.6129 -0.1468,0.034 -1.1715,0.1353 -2.2773,0.2249 -1.1057,0.09 -2.0298,0.1825 -2.0535,0.2067 -0.024,0.024 -0.8527,2.4669 -1.8421,5.4283 -1.9473,5.8269 -1.8821,5.6647 -2.2983,5.7159 -0.1051,0.012 -0.2704,0 -0.368,-0.031 z m -40.8462,-4.2812 c 0.5519,-0.5834 1.16,-1.6208 1.7134,-2.9226 0.3709,-0.8725 0.3896,-1.5927 0.061,-2.356 -0.063,-0.1471 -0.1304,-0.2671 -0.1494,-0.2668 -0.04,0 -0.8057,1.3118 -1.0255,1.7543 -0.5569,1.1218 -1.0358,2.6427 -1.1824,3.7542 l -0.044,0.3451 h 0.1683 c 0.1327,0 0.23,-0.066 0.4597,-0.3082 z m 31.5633,-2.4972 c 0.082,-0.054 0.4338,-0.3552 0.7813,-0.669 1.0878,-0.9819 1.9623,-2.0036 2.7829,-3.2507 0.8183,-1.2436 0.9526,-1.5556 0.7738,-1.7969 -0.3178,-0.4291 -2.2572,1.3063 -3.3514,2.9992 -0.3543,0.5481 -0.9265,1.6423 -1.1895,2.2752 -0.2097,0.5042 -0.1356,0.6654 0.2029,0.4422 z"
       id="path2713" /></g></svg>
