<?xml version="1.0" encoding="UTF-8" standalone="no"?>
<svg
   width="369.20117"
   height="116.62891"
   viewBox="0 0 97.684474 30.858066"
   version="1.1"
   id="svg16"
   xml:space="preserve"
   xmlns="http://www.w3.org/2000/svg"
   xmlns:svg="http://www.w3.org/2000/svg"
   xmlns:rdf="http://www.w3.org/1999/02/22-rdf-syntax-ns#"
   xmlns:cc="http://creativecommons.org/ns#"
   xmlns:dc="http://purl.org/dc/elements/1.1/"><defs
     id="defs10" /><metadata
     id="metadata13"><rdf:RDF><cc:Work
         rdf:about=""><dc:format>image/svg+xml</dc:format><dc:type
           rdf:resource="http://purl.org/dc/dcmitype/StillImage" /></cc:Work></rdf:RDF></metadata><g
     id="layer1"
     transform="translate(1857.2338,-7103.0232)"><path
       style="fill:#000000;stroke:none;stroke-width:2.06112"
       d="m -1844.1718,7133.5183 c -1.7388,-0.5098 -3.2058,-1.6122 -4.5281,-3.413 -0.762,-1.0378 -1.0802,-1.9015 -1.5352,-4.1995 -0.3152,-1.593 -0.5766,-3.1668 -0.5813,-3.5025 -0.01,-0.4499 -0.3568,-0.6529 -1.3511,-0.7734 -5.4136,-0.6561 -7.0241,-7.5251 -2.1816,-11.2583 2.2423,-1.7287 2.5331,-1.639 1.848,0.2809 -0.7785,2.1813 -0.1246,4.5552 1.5949,6.0048 0.3835,0.3233 0.7662,0.6472 1.1479,0.9717 0.3756,-0.8349 0.7546,-1.6694 1.1375,-2.5035 3.6624,-7.9805 11.4299,-13.4132 16.886,-11.8263 1.2219,0.3555 2.4433,2.0234 2.6333,3.5644 0.3582,2.9167 -2.9652,7.7465 -6.8822,10.3872 -2.2205,1.4968 -5.7462,3.1093 -7.6809,3.4859 -1.1549,0.2248 -1.19,0.4311 -0.5542,2.9021 0.4442,1.7268 1.4084,3.0563 2.7476,3.8248 1.4519,0.8331 3.8237,0.4807 6.1638,-0.8754 2.4232,-1.4045 3.8373,-3.2227 4.154,-5.4213 0.4617,-3.2063 2.5934,-6.0792 5.388,-7.15 1.7835,-0.6833 3.2243,-0.4428 3.9926,0.6372 0.349,0.4905 0.7968,0.8799 0.9967,0.8639 0.863,-0.069 1.5277,1.0952 1.781,3.1208 0.087,0.6938 0.1728,1.3876 0.2587,2.0815 0.2711,-0.2859 0.5435,-0.571 0.8173,-0.8556 0.5869,-0.6097 0.9917,-1.6634 1.4362,-3.6769 0.2078,-0.9415 0.42,-1.8827 0.6367,-2.8235 0.8105,-0.1338 1.6228,-0.2617 2.4369,-0.3837 1.3445,-0.2015 2.526,-0.277 2.6223,-0.1887 0.1839,0.1685 -0.053,0.8803 -1.1194,3.8329 -0.2197,0.6077 -0.4365,1.2158 -0.6506,1.8244 0.6096,-0.6393 1.2267,-1.2751 1.8517,-1.9072 0.9287,-0.9396 1.7127,-1.6117 2.431,-2.0707 1.0095,-0.6449 1.9106,-0.8833 2.9751,-0.8708 1.822,0.021 2.5392,1.0899 2.1639,3.0595 -0.087,0.4531 -0.1721,0.9064 -0.257,1.3598 0.5979,-0.5368 1.2031,-1.0696 1.8157,-1.5982 2.2529,-1.9446 3.6685,-2.542 5.3528,-2.4065 2.6992,0.217 2.822,2.2474 0.8651,6.1619 -0.6552,1.3107 -1.1937,2.6706 -1.2236,3.0284 -0.1513,1.8122 2.6473,-0.1782 4.4577,-3.0986 2.38,-3.8391 5.7954,-5.7253 9.2474,-5.1065 2.522,0.452 3.4185,1.6224 2.9738,3.6219 -0.2566,1.1534 -0.5698,1.5215 -2.0276,2.6032 -1.5179,1.1264 -3.9511,2.0518 -6.3224,2.4635 -0.6384,0.1108 -0.628,0.1378 -0.02,0.8503 0.8959,1.0481 2.3103,1.1707 4.1068,0.4057 2.356,-1.0032 3.4965,-1.9337 4.691,-3.9843 1.074,-1.8438 1.0867,-1.8466 0.4422,-1.9955 -0.4868,-0.1125 -0.5611,-0.2715 -0.2912,-0.6542 0.1799,-0.2545 0.6109,-0.8908 0.887,-1.307 0.2922,-0.4406 0.7809,-0.741 1.0859,-0.6676 0.3905,0.094 0.9941,-0.5352 2.1122,-2.132 0.5268,-0.7522 1.0603,-1.5014 1.6004,-2.2472 1.0744,-0.066 2.1544,-0.1168 3.24,-0.152 1.7911,-0.058 3.3109,0.01 3.3572,0.088 0.046,0.08 -1.0131,1.3878 -2.3071,2.9325 -1.294,1.5449 -2.3273,2.8728 -2.3431,2.9257 -0.016,0.053 0.4224,0.2292 0.9713,0.3975 0.8882,0.2724 0.9435,0.3837 0.5485,0.9409 -1.2688,1.7904 -1.383,1.8752 -2.5005,1.5454 -1.0739,-0.3167 -1.1049,-0.3162 -2.4272,1.9425 -1.8965,3.2388 -2.225,4.3922 -1.491,4.5932 0.4272,0.1171 0.8305,-0.2104 1.5347,-1.2186 1.0821,-1.5494 1.9887,-2.2059 3.3112,-2.401 0.5085,-0.075 1.54,-0.7534 2.3663,-1.5444 5.5874,-5.3493 8.5687,-6.0692 9.6596,-3.691 0.7682,1.6749 -1.2037,3.4289 -3.2015,3.0904 -0.5454,-0.092 -1.0089,-0.116 -1.031,-0.059 -0.023,0.058 0.1478,1.5331 0.3251,3.2741 0.3713,3.6445 -0.2336,5.305 -2.0694,7.1246 -1.4167,1.4043 -2.1784,1.8319 -3.6824,2.0601 -2.6445,0.4011 -5.3691,-0.8321 -6.0277,-2.8327 -0.1004,-0.3051 -0.2024,-0.6103 -0.3062,-0.9154 -0.5847,0.2118 -1.1653,0.429 -1.742,0.6512 -3.0455,1.1739 -5.4491,0.035 -4.8678,-2.6147 l 0.2509,-1.1438 c -0.5007,0.2898 -0.9977,0.5832 -1.4907,0.88 -2.1953,1.3216 -3.8771,1.7816 -5.7426,1.4957 -1.9712,-0.3006 -3.1298,-1.2116 -3.669,-2.9506 -0.1302,-0.4195 -0.2622,-0.8389 -0.3962,-1.258 -0.4905,0.3821 -0.9765,0.7674 -1.4582,1.1555 -1.855,1.4955 -3.124,2.092 -4.5832,2.0638 -2.2539,-0.044 -2.6651,-1.5926 -1.0701,-5.9644 0.5024,-1.3766 0.9528,-2.842 0.9782,-3.243 0.087,-1.3821 -1.2347,-0.7716 -2.7227,0.7583 -1.5047,1.5472 -3.0672,3.9177 -3.7149,6.0441 -0.1776,0.5829 -0.3527,1.1661 -0.5254,1.7494 -0.5599,-0.01 -1.1199,-0.01 -1.6802,0 -0.1813,0 -0.3629,0.01 -0.5443,0.01 -1.2325,0.012 -2.2459,-0.044 -2.2491,-0.15 -0.01,-0.1057 0.5646,-1.8851 1.3045,-3.9476 1.5131,-4.2171 1.7273,-5.4114 0.6987,-5.3972 -0.7377,0.01 -2.065,1.4216 -3.2559,3.2546 -1.1985,1.8446 -2.2283,4.0614 -2.541,5.7023 -0.131,0.6879 -0.3127,0.7378 -2.4752,0.8906 -0.7789,0.055 -1.5587,0.116 -2.3393,0.1827 0.2325,-0.9031 0.4696,-1.8054 0.7114,-2.7074 0.3991,-1.4882 0.7354,-2.7676 0.7297,-2.8451 -0.01,-0.077 -0.2948,-0.12 -0.6427,-0.093 -0.4128,0.032 -0.8173,0.5062 -1.1556,1.3634 -0.2818,0.713 -0.859,1.8231 -1.2606,2.4268 -2.1618,3.2484 -6.8247,3.8824 -8.758,1.0796 -0.2106,-0.3053 -0.4219,-0.6103 -0.6342,-0.9151 -0.5321,0.5898 -1.0603,1.1818 -1.5848,1.7757 -2.5124,2.8451 -4.7701,4.2991 -7.9228,5.0263 -2.2445,0.5176 -2.8513,0.5544 -4.1078,0.1855 3e-4,0 4e-4,0 10e-5,0 z m 73.4174,-1.9546 c 0.1381,0.049 0.6167,-0.2766 1.0674,-0.7199 0.7658,-0.7532 0.8579,-0.9586 1.0723,-3.6156 0.2493,-3.0873 -0.2666,-3.65 -0.877,-1.4289 -0.3875,1.4077 -1.8974,3.1217 -2.5513,2.9075 -0.163,-0.053 -0.4074,0.2454 -0.5427,0.6637 -0.271,0.8377 0.4492,2.1764 1.1447,2.1314 0.2393,-0.016 0.5471,0.014 0.6866,0.062 z m -51.8113,-7.3903 c 0.8435,-0.9928 0.8411,-1.093 -0.4372,-2.1503 -0.8612,-0.7123 -1.094,-1.1427 -1.2058,-2.2854 -0.07,-0.7772 0.034,-1.7966 0.2465,-2.2724 0.4891,-1.0922 0.4781,-1.3655 -0.09,-1.3069 -1.5751,0.1628 -3.1337,3.4464 -2.8414,5.9575 0.3315,2.8495 2.7377,3.9292 4.328,2.0575 -1e-4,0 -3e-4,0 0,1e-4 z m 37.5313,-4.4415 c 1.8259,-1.5266 1.5616,-3.4285 -0.8933,-2.1064 -1.058,0.5698 -2.5859,2.4778 -2.7154,3.347 -0.066,0.4399 0.1096,0.4346 1.2531,0.054 0.7226,-0.2401 1.8005,-0.8313 2.3556,-1.2954 z m -56.3618,-2.9369 c 3.439,-1.6824 6.8149,-5.5448 7.229,-8.4187 0.3436,-2.3856 -0.3802,-3.0698 -2.6141,-2.3129 -2.4178,0.8192 -5.7352,5.4043 -7.0727,9.7825 -0.2802,0.9178 -0.4908,1.7458 -0.4728,1.8405 0.059,0.3143 1.2045,-0.047 2.9306,-0.8914 z"
       id="path2673" /></g></svg>
