<?xml version="1.0" encoding="UTF-8" standalone="no"?>
<svg
   width="332.06055"
   height="64.978516"
   viewBox="0 0 87.857684 17.192233"
   version="1.1"
   id="svg16"
   xml:space="preserve"
   xmlns="http://www.w3.org/2000/svg"
   xmlns:svg="http://www.w3.org/2000/svg"
   xmlns:rdf="http://www.w3.org/1999/02/22-rdf-syntax-ns#"
   xmlns:cc="http://creativecommons.org/ns#"
   xmlns:dc="http://purl.org/dc/elements/1.1/"><defs
     id="defs10" /><metadata
     id="metadata13"><rdf:RDF><cc:Work
         rdf:about=""><dc:format>image/svg+xml</dc:format><dc:type
           rdf:resource="http://purl.org/dc/dcmitype/StillImage" /></cc:Work></rdf:RDF></metadata><g
     id="layer1"
     transform="translate(2144.2955,-7557.0476)"><path
       style="fill:#ffffff;stroke:none;stroke-width:0.102681"
       d="m -2130.2171,7568.5151 c -1.1845,-0.095 -2.0899,-0.4509 -2.692,-1.0578 -0.6005,-0.6053 -0.9583,-1.5194 -1.1073,-2.8293 -0.1408,-1.2361 -0.1175,-3.0277 0.053,-4.1044 0.2748,-1.7335 0.9983,-2.7303 2.2976,-3.1654 0.5311,-0.1779 0.9704,-0.2463 1.876,-0.2921 1.0631,-0.054 2.2646,0.016 2.9216,0.17 1.2574,0.2945 2.0445,1.0205 2.4516,2.2615 0.2888,0.8804 0.3945,1.9155 0.3686,3.6082 -0.019,1.2699 -0.082,1.8884 -0.264,2.5959 -0.2074,0.8084 -0.506,1.3637 -0.9779,1.8191 -0.5588,0.5392 -1.1689,0.7967 -2.2664,0.9562 -0.3407,0.05 -2.1886,0.076 -2.661,0.038 z m 1.955,-1.3052 c 1.0732,-0.067 1.6811,-0.2583 2.075,-0.6519 0.212,-0.212 0.3312,-0.405 0.4572,-0.7409 0.2388,-0.6363 0.3363,-1.3289 0.3744,-2.6569 0.039,-1.3537 -0.08,-2.5427 -0.3287,-3.2861 -0.1223,-0.3662 -0.2447,-0.5847 -0.4512,-0.8056 -0.4863,-0.5205 -1.221,-0.6927 -2.9535,-0.6919 -1.261,0 -1.9277,0.095 -2.4453,0.3463 -0.1513,0.074 -0.2602,0.1551 -0.424,0.3178 -0.1881,0.1869 -0.2407,0.2608 -0.359,0.5043 -0.3227,0.6649 -0.466,1.6594 -0.466,3.2346 0,0.8469 0.03,1.3721 0.1112,1.9435 0.2164,1.5242 0.6863,2.1202 1.8711,2.3732 0.5855,0.125 1.6193,0.1713 2.5388,0.1136 z m -1.2493,-1.0587 c -0.6543,-0.1397 -1.0918,-0.5898 -1.2747,-1.3115 -0.1086,-0.4286 -0.1256,-0.622 -0.1417,-1.6116 -0.017,-1.0764 0.019,-1.9342 0.096,-2.3108 0.1532,-0.7389 0.5263,-1.2056 1.1202,-1.4014 0.1792,-0.059 0.247,-0.066 0.6482,-0.066 0.3996,0 0.4695,0.01 0.647,0.065 0.4969,0.1629 0.8533,0.5349 1.033,1.0779 0.1681,0.5077 0.1789,0.6402 0.1794,2.2002 0,1.4749 -0.01,1.5872 -0.1255,2.0658 -0.1529,0.6139 -0.5166,1.0372 -1.0557,1.2283 -0.1793,0.063 -0.2505,0.073 -0.6104,0.08 -0.224,0.01 -0.4563,-0.01 -0.5161,-0.015 z m 0.7521,-1.3357 c 0.082,-0.044 0.154,-0.2354 0.1995,-0.532 0.05,-0.326 0.06,-2.5579 0.013,-2.8901 -0.035,-0.2482 -0.093,-0.4552 -0.1499,-0.5358 -0.077,-0.1088 -0.4042,-0.1523 -0.6099,-0.081 -0.116,0.04 -0.1763,0.1398 -0.2339,0.387 -0.036,0.1539 -0.047,0.4155 -0.058,1.4083 -0.015,1.294 0.01,1.6696 0.1006,1.9816 0.067,0.2157 0.1023,0.2637 0.2186,0.2931 0.1138,0.029 0.4448,0.01 0.5197,-0.031 z m 48.3154,3.6999 c -0.8285,-0.066 -1.5838,-0.2834 -2.1389,-0.6175 -0.4591,-0.2764 -0.9279,-0.8152 -1.1752,-1.3509 -0.3219,-0.6973 -0.552,-1.9453 -0.5564,-3.017 v -0.2476 l -0.1379,0.2719 c -0.1944,0.3833 -0.3789,0.6413 -0.6611,0.9248 -0.7346,0.7379 -1.7705,1.1095 -3.1974,1.147 -0.4773,0.013 -0.5906,0.023 -0.5906,0.053 0,0.1099 0.082,2.1567 0.096,2.394 l 0.017,0.2786 h -2.3219 c -1.2771,0 -2.3266,-0.01 -2.3324,-0.02 -0.01,-0.011 0.011,-0.2528 0.037,-0.5368 0.1054,-1.1515 0.1187,-1.6815 0.1187,-4.7431 10e-5,-2.9548 -0.011,-3.4928 -0.1072,-5.0558 -0.02,-0.3214 -0.032,-0.5885 -0.027,-0.5936 0.011,-0.012 1.3135,-0.1499 2.2261,-0.2354 2.5282,-0.2368 3.8908,-0.1198 5.0534,0.4338 0.5307,0.2527 0.9385,0.5647 1.2851,0.9832 0.3314,0.4 0.5735,0.8579 0.7019,1.3275 l 0.05,0.1837 0.035,-0.1595 c 0.06,-0.2721 0.219,-0.7191 0.347,-0.9748 0.1854,-0.3706 0.3496,-0.6003 0.6216,-0.8697 0.5809,-0.5752 1.3392,-0.8755 2.5031,-0.9912 0.7875,-0.078 2.289,-0.057 2.9997,0.042 0.9088,0.1269 1.5772,0.417 2.0952,0.9096 0.9439,0.8974 1.3125,2.4875 1.2348,5.3264 -0.047,1.6976 -0.2598,2.707 -0.7477,3.5377 -0.1614,0.2747 -0.5833,0.7237 -0.8584,0.9136 -0.4812,0.3319 -1.0474,0.5244 -1.9071,0.6484 -0.3395,0.049 -2.1875,0.075 -2.6611,0.038 z m 2.4418,-1.3452 c 1.3514,-0.1621 1.8992,-0.6183 2.201,-1.8328 0.1379,-0.5545 0.1965,-1.1416 0.2216,-2.218 0.035,-1.5113 -0.1071,-2.7493 -0.3962,-3.4446 -0.4357,-1.0474 -1.2227,-1.3307 -3.5857,-1.2904 -1.5494,0.026 -2.1527,0.1793 -2.6349,0.668 -0.541,0.5482 -0.7713,1.517 -0.8055,3.3874 -0.037,2.0275 0.1643,3.219 0.6624,3.922 0.3544,0.5001 1.0589,0.7746 2.1795,0.849 0.4914,0.033 1.7432,0.01 2.1578,-0.041 z m -1.7202,-1.0225 c -0.3472,-0.068 -0.5768,-0.1891 -0.8177,-0.431 -0.5106,-0.5126 -0.6503,-1.2624 -0.6131,-3.2904 0.023,-1.2719 0.075,-1.6402 0.2904,-2.0868 0.2913,-0.6029 0.8188,-0.9032 1.5864,-0.9032 0.5075,0 0.8073,0.091 1.1269,0.3426 0.3516,0.2767 0.531,0.6158 0.6585,1.2449 0.059,0.2911 0.061,0.3534 0.061,1.783 0,1.5894 -0.01,1.694 -0.1525,2.1674 -0.1894,0.6194 -0.6261,1.0391 -1.21,1.1629 -0.2019,0.043 -0.7347,0.049 -0.9297,0.011 z m 0.7537,-1.3466 c 0.085,-0.055 0.1307,-0.1739 0.1856,-0.4775 0.067,-0.3704 0.068,-2.6603 0,-3.0265 -0.081,-0.4459 -0.1442,-0.5256 -0.4336,-0.5486 -0.2097,-0.017 -0.3811,0.027 -0.4359,0.1104 -0.1482,0.2265 -0.1925,0.7968 -0.1742,2.2448 0.011,0.8735 0.022,1.1141 0.06,1.2796 0.064,0.285 0.1319,0.4299 0.2092,0.4464 0.035,0.01 0.088,0.019 0.1174,0.027 0.098,0.023 0.4058,-0.013 0.4706,-0.055 z m -11.2118,2.0082 c 0,-0.1159 -0.023,-0.7183 -0.049,-1.3387 -0.026,-0.6204 -0.043,-1.1372 -0.037,-1.1484 0.01,-0.011 0.5336,-0.021 1.173,-0.021 1.051,0 1.1949,-0.01 1.4987,-0.056 0.6517,-0.1096 1.146,-0.3221 1.49,-0.6409 0.3692,-0.3423 0.5787,-0.7462 0.7097,-1.3684 0.071,-0.3385 0.1,-1.2005 0.052,-1.5583 -0.1834,-1.3572 -1.169,-2.1222 -2.9332,-2.2767 -0.4566,-0.04 -1.7247,-0.018 -2.3895,0.041 -0.6442,0.057 -1.3111,0.1249 -1.3442,0.1356 -0.017,0.01 -0.02,0.1403 -0.01,0.3859 0.059,1.0945 0.064,7.2968 0.01,7.8589 l -0.021,0.1971 h 0.9268 0.9267 z m 1.1423,-3.5801 v -0.091 l -0.2512,-0.017 c -0.1382,-0.01 -0.409,-0.026 -0.602,-0.037 l -0.3507,-0.02 0.01,-1.2776 c 0.01,-1.1301 0.028,-1.7962 0.073,-2.0705 l 0.014,-0.086 0.3589,-0.086 c 0.1974,-0.047 0.42,-0.097 0.4947,-0.1118 0.215,-0.041 0.7421,-0.033 0.9525,0.016 0.6031,0.1399 1.0389,0.5602 1.1984,1.1557 0.066,0.2469 0.065,1.0189 0,1.2903 -0.077,0.3125 -0.217,0.5693 -0.4209,0.7724 -0.2109,0.21 -0.3866,0.3024 -0.8593,0.4516 -0.1792,0.057 -0.39,0.1248 -0.4684,0.1518 l -0.1425,0.049 z m 0.4747,-1.4551 c 0.1132,-0.043 0.1498,-0.1729 0.1498,-0.5307 0,-0.3891 -0.026,-0.4549 -0.201,-0.4989 -0.067,-0.017 -0.1573,-0.031 -0.2007,-0.031 h -0.079 l -0.018,0.2896 c -0.01,0.1594 -0.017,0.404 -0.017,0.5437 v 0.254 h 0.1476 c 0.081,0 0.1795,-0.012 0.2185,-0.027 z m -55.706,6.3578 c 0,-0.121 0.021,-0.803 0.048,-1.5154 0.038,-1.052 0.047,-1.9646 0.046,-4.8562 0,-3.4918 -0.01,-3.5696 -0.061,-4.015 -0.033,-0.2498 -0.059,-0.467 -0.059,-0.4825 0,-0.019 0.7432,-0.028 2.3448,-0.028 h 2.3448 l 0.5512,1.2706 c 0.3031,0.699 0.5623,1.2892 0.5759,1.3116 0.04,0.065 0,-1.7303 -0.046,-2.1202 -0.022,-0.1869 -0.041,-0.3672 -0.041,-0.4009 v -0.061 h 2.136 2.136 l -0.018,1.2028 c -0.01,0.6615 -0.018,3.1646 -0.018,5.5624 v 4.3597 l -2.2741,-0.02 c -1.2508,-0.011 -2.2822,-0.027 -2.2921,-0.038 -0.01,-0.01 -0.2646,-0.599 -0.5661,-1.3092 -0.3014,-0.7101 -0.5576,-1.3081 -0.5691,-1.3289 -0.021,-0.038 -0.016,0.3346 0.025,1.8181 0.013,0.4558 0.017,0.838 0.011,0.8494 -0.01,0.011 -0.9712,0.02 -2.1427,0.02 h -2.13 z m 2.9207,-1.5129 c -0.029,-0.6659 -0.07,-4.5025 -0.049,-4.5205 0.019,-0.015 1.1813,-0.2185 1.2425,-0.2167 0.015,0 0.069,0.1201 0.1196,0.2659 0.1835,0.5298 0.592,1.523 1.6435,3.9956 l 0.3728,0.8766 h 1.1787 1.1787 v -2.7385 c 0,-1.5062 0.01,-3.4082 0.018,-4.2267 l 0.018,-1.4882 h -0.769 -0.7689 l 0.017,0.3738 c 0.01,0.2055 0.025,1.3053 0.036,2.444 l 0.018,2.0702 -0.1198,0.017 c -0.3872,0.053 -1.1781,0.1218 -1.1931,0.1042 -0.01,-0.011 -0.058,-0.1797 -0.1083,-0.374 -0.078,-0.3044 -0.2193,-0.6493 -1.0187,-2.4871 l -0.9279,-2.1338 -1.201,-0.01 -1.201,-0.01 0.019,2.2495 c 0.017,2.0615 0,3.9184 -0.059,5.654 l -0.018,0.5505 h 0.7943 0.7942 z m 17.4405,1.7194 c -0.01,-0.01 0.01,-0.1956 0.034,-0.4183 0.126,-1.0809 0.1631,-2.1838 0.1629,-4.8279 0,-1.995 -0.026,-3.3135 -0.084,-4.2675 -0.046,-0.7596 -0.041,-0.8205 0.074,-1.0504 0.173,-0.3424 0.2256,-0.3732 0.7585,-0.443 1.116,-0.1463 1.9964,-0.2264 2.9082,-0.2646 1.6991,-0.071 2.8313,0.086 3.6551,0.5065 0.6104,0.3118 1.0123,0.7115 1.3403,1.3331 0.063,0.1196 0.116,0.2113 0.1178,0.2038 0,-0.01 0.035,-0.4294 0.075,-0.9377 l 0.072,-0.9242 6.1861,-0.01 6.1859,-0.01 -0.015,0.1156 c -0.07,0.533 -0.1062,1.1853 -0.1643,2.9357 l -0.015,0.4553 h 0.2899 0.2899 l -0.019,-0.7679 c -0.026,-1.0986 -0.067,-1.7058 -0.1499,-2.2493 l -0.073,-0.4757 2.3473,-0.01 c 1.2911,-0.01 2.3526,0 2.3589,0.01 0.01,0.01 -0.01,0.4559 -0.025,0.9991 -0.026,0.7014 -0.036,2.137 -0.035,4.956 0,3.5224 0.01,4.0249 0.047,4.4709 0.025,0.2763 0.047,0.5423 0.047,0.5911 v 0.089 h -2.3624 c -2.2624,0 -2.3625,0 -2.3625,-0.049 0,-0.028 0.03,-0.2565 0.067,-0.5097 0.072,-0.4973 0.1113,-1.1502 0.1398,-2.3156 l 0.018,-0.7406 h -0.2905 -0.2905 l 0.016,0.496 c 0.043,1.3141 0.077,2.0377 0.1193,2.5428 0.026,0.3035 0.041,0.5573 0.034,0.564 -0.01,0.01 -1.0565,0.012 -2.3328,0.012 h -2.3206 l 0.019,-0.7951 c 0.01,-0.4373 0.03,-1.1865 0.044,-1.6648 0.013,-0.4784 0.025,-1.7544 0.025,-2.8355 0,-1.8594 0,-1.9649 -0.048,-1.9516 -0.026,0.01 -0.078,0.021 -0.1155,0.03 -0.037,0.01 -0.3782,-0.01 -0.7576,-0.039 -0.3793,-0.031 -0.7001,-0.056 -0.7128,-0.056 -0.03,0 -0.028,2.4818 0.01,4.0773 0.03,1.4941 0.066,2.2081 0.1373,2.7452 0.029,0.2168 0.053,0.4156 0.053,0.4418 0,0.045 -0.1307,0.047 -2.3712,0.047 -1.3043,0 -2.3778,-0.01 -2.3855,-0.014 -0.01,-0.01 0.014,-0.2003 0.048,-0.428 0.035,-0.2279 0.075,-0.6098 0.091,-0.8491 0.031,-0.4718 0.1021,-5.9834 0.078,-6.0079 -0.01,-0.01 -0.2517,0.01 -0.5411,0.028 -0.7291,0.059 -0.8347,0.058 -0.9733,-0.013 -0.063,-0.032 -0.1202,-0.053 -0.127,-0.046 -0.01,0.01 -0.024,0.1251 -0.038,0.263 -0.063,0.6144 -0.2606,1.1548 -0.5713,1.5663 -0.069,0.091 -0.1347,0.1812 -0.146,0.1995 -0.012,0.02 0.011,0.067 0.061,0.1192 0.1111,0.1169 0.3204,0.4475 0.4126,0.652 0.2497,0.5538 0.3446,1.068 0.3846,2.0841 0.029,0.7285 0.016,2.3085 -0.019,2.4005 -0.017,0.043 -0.1774,0.046 -2.2185,0.046 h -2.2009 l 0.024,-0.9174 c 0.038,-1.4274 0.033,-2.0082 -0.015,-2.0551 -0.023,-0.021 -0.1243,-0.047 -0.2264,-0.057 l -0.1855,-0.019 0.017,0.4713 c 0.01,0.2592 0.029,0.7281 0.043,1.0421 0.014,0.3139 0.026,0.7879 0.026,1.0533 l 1e-4,0.4825 h -2.3036 c -1.267,0 -2.3096,-0.01 -2.3169,-0.013 z m 3.2785,-1.4068 c -0.01,-0.049 -0.028,-0.5548 -0.045,-1.125 -0.034,-1.1592 -0.026,-1.2557 0.12,-1.4681 0.1623,-0.2357 0.3845,-0.3051 1.0494,-0.328 0.5301,-0.019 0.7943,0.022 1.1087,0.17 0.2549,0.1198 0.5033,0.3627 0.6245,0.6106 0.1442,0.2948 0.1735,0.5179 0.1711,1.3044 0,0.381 -0.01,0.7448 -0.019,0.8085 l -0.017,0.1159 h 0.9036 0.9036 l -0.017,-0.8358 c -0.022,-1.0708 -0.082,-1.4436 -0.3039,-1.8811 -0.1155,-0.2281 -0.2374,-0.3679 -0.4821,-0.5534 -0.3444,-0.2607 -0.4353,-0.3999 -0.4331,-0.6636 0,-0.2392 0.097,-0.4024 0.3645,-0.6262 0.2958,-0.2472 0.4272,-0.3984 0.5308,-0.6102 0.1572,-0.3213 0.1819,-0.4664 0.1818,-1.0678 -10e-5,-0.4754 -0.01,-0.5747 -0.062,-0.7918 -0.1049,-0.4196 -0.3253,-0.7956 -0.6004,-1.0246 -0.2741,-0.228 -0.7808,-0.4191 -1.3866,-0.5231 -0.3523,-0.061 -1.6769,-0.083 -2.3693,-0.041 -0.4456,0.027 -1.3805,0.115 -1.927,0.1808 l -0.1554,0.019 0.013,0.1526 c 0.1042,1.179 0.119,6.8332 0.021,8.0557 l -0.017,0.2106 h 0.9283 0.9284 z m -0.1839,-3.6981 c 0.1233,-0.1241 0.2187,-0.2312 0.2119,-0.2379 -0.034,-0.034 -0.098,-0.8813 -0.1133,-1.4935 -0.015,-0.6015 0.019,-1.7794 0.052,-1.8123 0.01,-0.01 0.1672,-0.053 0.3581,-0.1036 1.425,-0.3802 2.3734,-0.013 2.637,1.019 0.028,0.1081 0.046,0.2952 0.047,0.4823 0,0.209 0.013,0.3057 0.033,0.3058 0.017,0 0.1498,-0.024 0.295,-0.054 0.1451,-0.03 0.2716,-0.054 0.2809,-0.054 0.01,0 -0.1539,0.1743 -0.3629,0.3874 -0.2727,0.2779 -0.4029,0.4327 -0.4612,0.5483 -0.1575,0.3119 -0.5134,0.6256 -0.8282,0.7301 -0.1091,0.036 -2.2928,0.5087 -2.3511,0.5087 -0.013,0 0.077,-0.1016 0.2007,-0.2257 z m 1.7688,-1.5669 c 0.082,-0.082 0.1158,-0.2583 0.1057,-0.5523 -0.011,-0.3246 -0.029,-0.3461 -0.2859,-0.3461 h -0.1713 v 0.4757 0.4757 h 0.1493 c 0.1119,0 0.1627,-0.013 0.2022,-0.053 z m 9.1211,4.9932 c -0.034,-0.6783 -0.082,-4.7085 -0.066,-5.4567 0.01,-0.4111 0.037,-0.9279 0.061,-1.1484 l 0.045,-0.401 h 0.1102 c 0.061,0 0.4817,0.025 0.9359,0.055 0.4542,0.029 0.8295,0.051 0.834,0.046 0.01,-0.01 -0.012,-0.2737 -0.036,-0.5982 l -0.045,-0.59 h -2.7456 -2.7456 l -0.043,0.5913 c -0.024,0.3251 -0.041,0.5941 -0.038,0.5977 0.01,0.01 0.4177,-0.02 0.9204,-0.053 0.5026,-0.033 0.9208,-0.052 0.9293,-0.043 0.01,0.01 0.04,0.1728 0.071,0.3652 0.054,0.3415 0.055,0.4214 0.039,3.3533 -0.01,1.652 -0.023,3.1474 -0.033,3.323 l -0.016,0.3194 h 0.9193 0.9194 z m 6.0482,-0.041 c -0.027,-0.5957 -0.069,-2.269 -0.07,-2.7589 v -0.4281 h 1.6428 c 1.5466,0 1.6428,0.01 1.6428,0.048 -10e-5,0.026 -0.012,0.2126 -0.027,0.4145 -0.015,0.2018 -0.039,0.9296 -0.055,1.6173 -0.015,0.6877 -0.036,1.3085 -0.045,1.3794 l -0.017,0.1291 h 0.9202 0.9202 v -3.6491 c 0,-2.007 0.01,-3.9089 0.021,-4.2267 l 0.022,-0.5775 h -0.9406 -0.9404 l 0.015,0.075 c 0.01,0.042 0.027,0.5641 0.042,1.1621 0.015,0.598 0.035,1.3533 0.045,1.6785 l 0.017,0.5911 h -1.6324 -1.6324 v -0.3738 c 0,-0.4705 0.046,-2.2939 0.07,-2.7724 l 0.018,-0.3601 h -0.9416 -0.9414 l 0.022,1.3114 c 0.028,1.7053 0.027,4.5427 0,5.9936 l -0.023,1.1483 h 0.9429 0.9428 z m -9.9735,-6.8837 c -0.01,-0.029 -0.019,-0.054 -0.025,-0.054 -0.01,0 -0.01,0.024 -0.01,0.054 0,0.03 0.011,0.054 0.025,0.054 0.013,0 0.019,-0.024 0.01,-0.054 z m 39.7547,8.4059 c 0.085,-1.0478 0.1266,-2.9207 0.1264,-5.6334 0,-2.041 -0.032,-3.5664 -0.095,-4.5472 -0.022,-0.3407 -0.04,-0.6434 -0.04,-0.6727 0,-0.053 0.034,-0.053 2.3256,-0.053 h 2.3255 l -0.017,0.2651 c -0.087,1.323 -0.1253,2.9703 -0.1258,5.3673 v 1.7317 l 0.1697,-0.013 c 0.093,-0.01 0.4508,-0.031 0.7942,-0.055 0.3436,-0.023 0.8385,-0.063 1.0998,-0.088 l 0.4752,-0.046 0.01,-1.3727 c 0.01,-1.6099 -0.032,-3.7866 -0.088,-4.6344 -0.022,-0.3288 -0.048,-0.7234 -0.058,-0.8766 l -0.019,-0.2786 h 2.342 2.342 l -0.015,0.088 c -0.031,0.1779 -0.1233,1.1026 -0.1386,1.3931 l -0.015,0.299 0.1523,-0.3127 c 0.084,-0.1719 0.2683,-0.5571 0.4102,-0.8561 0.1418,-0.299 0.2725,-0.559 0.2905,-0.5778 0.026,-0.027 0.5924,-0.033 2.7186,-0.027 l 2.6861,0.01 -0.5286,0.5979 c -0.991,1.121 -1.2202,1.4102 -1.7613,2.2236 -0.4171,0.6268 -0.9965,1.5639 -0.976,1.5785 0.01,0.01 0.1196,0.079 0.254,0.1667 0.2945,0.1924 0.7561,0.6463 0.9568,0.9406 0.2922,0.4286 0.5252,0.9959 0.6334,1.5422 0.079,0.3988 0.1109,1.1292 0.116,2.6542 l 0.01,1.3863 -2.1967,0.01 -2.1967,0.01 0.019,-0.8767 c 0.02,-0.9221 -0.01,-1.6271 -0.08,-2.0013 -0.051,-0.2704 -0.1504,-0.4298 -0.3257,-0.5261 -0.074,-0.041 -0.1409,-0.075 -0.1484,-0.075 -0.019,0 0.044,1.8778 0.091,2.7373 0.021,0.3853 0.033,0.7097 0.026,0.7209 -0.01,0.011 -1.043,0.021 -2.3029,0.021 h -5.7885 -3.466 z m 5.7589,-1.2096 c 0.01,-0.049 0.027,-0.278 0.043,-0.5096 0.016,-0.2318 0.031,-0.4581 0.035,-0.5029 0.01,-0.077 0,-0.081 -0.089,-0.075 -0.3321,0.024 -1.6186,0.09 -2.0568,0.1053 l -0.5228,0.019 v -1.8728 c 0,-1.9414 0.04,-4.9504 0.07,-5.3181 l 0.017,-0.2106 h -0.9411 c -0.8839,0 -0.9406,0.01 -0.9273,0.047 0.01,0.026 0.029,0.7754 0.046,1.6649 0.03,1.5322 0.019,4.1755 -0.026,6.0411 l -0.017,0.6999 h 2.1779 2.1779 z m 4.3996,-0.041 c -0.076,-0.7826 -0.1368,-6.6364 -0.081,-7.8553 l 0.021,-0.469 h -0.901 -0.9011 l 0.015,0.265 c 0.026,0.4724 0.046,6.7121 0.024,7.4614 l -0.021,0.7271 h 0.9288 0.9287 z m 4.8658,-0.8154 c -0.021,-1.0913 -0.045,-1.3857 -0.1388,-1.7379 -0.2181,-0.8204 -0.6972,-1.3685 -1.4596,-1.6699 -0.4881,-0.1931 -0.6437,-0.3667 -0.6449,-0.72 0,-0.199 0.01,-0.2105 0.5687,-1.1522 0.432,-0.7217 0.8362,-1.3536 1.185,-1.8524 0.1217,-0.1742 0.2297,-0.3301 0.2398,-0.3466 0.013,-0.021 -0.2216,-0.029 -0.8362,-0.029 h -0.8546 l -0.5699,1.1536 c -0.6853,1.3869 -0.8448,1.676 -1.5517,2.8138 -0.3484,0.5608 -0.5356,0.8865 -0.5164,0.8984 0.017,0.01 0.1946,0.027 0.3956,0.037 0.8396,0.042 1.3348,0.2139 1.7515,0.6074 0.4974,0.4698 0.6657,1.0282 0.6961,2.3112 l 0.015,0.6319 h 0.8695 0.8695 z"
       id="path3059" /><path
       style="fill:#000000;fill-opacity:1;stroke:none;stroke-width:1.31076;stroke-dasharray:none;paint-order:stroke fill markers"
       d="m -2129.9916,7567.8553 c -2.1091,-0.1417 -2.9841,-0.8982 -3.3102,-2.8615 -0.2023,-1.2177 -0.2028,-3.233 0,-4.4424 0.1532,-0.9188 0.4238,-1.5449 0.8561,-1.9811 0.6549,-0.6608 1.6454,-0.8941 3.6568,-0.8613 0.93,0.015 1.4252,0.068 1.9309,0.2063 1.3095,0.3581 1.9096,1.2932 2.1028,3.2768 0.1098,1.1279 0.076,2.8225 -0.075,3.7614 -0.1244,0.7732 -0.3404,1.367 -0.6538,1.797 -0.1175,0.1612 -0.3771,0.4141 -0.5353,0.5215 -0.5035,0.342 -1.157,0.5188 -2.1639,0.5855 -0.3674,0.024 -1.4324,0.023 -1.8076,0 z m 1.406,-2.4057 c 0.4212,-0.1567 0.6048,-0.4707 0.6992,-1.1962 0.052,-0.4022 0.052,-2.5309 0,-2.915 -0.07,-0.5136 -0.1731,-0.7881 -0.3691,-0.9832 -0.1958,-0.195 -0.4243,-0.2744 -0.7944,-0.2758 -0.7202,-0.01 -1.0524,0.3216 -1.171,1.1441 -0.066,0.4592 -0.08,2.3364 -0.021,2.9255 0.051,0.5119 0.1764,0.8868 0.3608,1.0789 0.2091,0.2179 0.4442,0.294 0.8714,0.2823 0.238,-0.01 0.3043,-0.016 0.4239,-0.061 z m 48.3681,2.4057 c -2.109,-0.1417 -2.984,-0.8982 -3.3101,-2.8615 -0.2023,-1.2177 -0.2029,-3.233 0,-4.4424 0.1532,-0.9188 0.4238,-1.5449 0.856,-1.9811 0.655,-0.6608 1.6454,-0.8941 3.6568,-0.8613 0.9301,0.015 1.4252,0.068 1.9309,0.2063 1.3096,0.3581 1.9097,1.2932 2.1029,3.2768 0.1099,1.1279 0.076,2.8225 -0.075,3.7614 -0.1243,0.7732 -0.3404,1.367 -0.6537,1.797 -0.1176,0.1612 -0.3772,0.4141 -0.5353,0.5215 -0.5036,0.342 -1.1571,0.5188 -2.164,0.5855 -0.3675,0.024 -1.4324,0.023 -1.8075,0 z m 1.4061,-2.4057 c 0.4212,-0.1567 0.6048,-0.4707 0.6991,-1.1962 0.052,-0.4022 0.052,-2.5309 0,-2.915 -0.07,-0.5136 -0.173,-0.7881 -0.369,-0.9832 -0.1958,-0.195 -0.4243,-0.2744 -0.7944,-0.2758 -0.7203,-0.01 -1.0524,0.3216 -1.171,1.1441 -0.066,0.4592 -0.08,2.3364 -0.021,2.9255 0.051,0.5119 0.1765,0.8868 0.3608,1.0789 0.2092,0.2179 0.4443,0.294 0.8715,0.2823 0.238,-0.01 0.3043,-0.016 0.4239,-0.061 z m -64.7755,1.7763 c 0.01,-0.2442 0.023,-0.7261 0.035,-1.0709 0.035,-1.0891 0.062,-2.7404 0.062,-3.8763 0,-1.3257 -0.035,-4.1258 -0.053,-4.2785 l -0.013,-0.1099 1.7617,0.01 1.7616,0.01 1.0283,2.3613 1.0283,2.3612 0.1034,0.3971 0.1035,0.397 0.015,-0.303 c 0.022,-0.4435 -0.046,-4.872 -0.079,-5.1665 l -0.01,-0.057 h 1.4393 1.4392 l -0.015,1.0186 c -0.01,0.5603 -0.016,2.7607 -0.017,4.8898 v 3.8711 l -1.7311,-0.01 -1.7313,-0.01 -0.9822,-2.309 c -0.7158,-1.6825 -1.0271,-2.4394 -1.1475,-2.7896 l -0.1651,-0.4806 0.011,1.2642 c 0.011,1.2943 0.04,3.003 0.064,3.8501 l 0.013,0.4753 h -1.4683 -1.4684 z m 20.4148,0.3239 c 0.1696,-1.5743 0.176,-6.7995 0.011,-9.1853 -0.013,-0.1819 -0.019,-0.3342 -0.015,-0.3386 0.021,-0.021 1.5141,-0.1942 2.1482,-0.2485 1.0042,-0.086 2.1982,-0.096 2.8315,-0.023 0.9307,0.1069 1.5773,0.3523 2.0633,0.7829 0.2671,0.2368 0.5378,0.6788 0.6623,1.0814 0.1905,0.6157 0.2164,1.4397 0.064,2.045 -0.1311,0.5214 -0.4094,0.9388 -0.845,1.267 -0.093,0.07 -0.1687,0.1346 -0.1687,0.1438 0,0.01 0.061,0.056 0.1358,0.1043 0.168,0.1085 0.4346,0.3643 0.5536,0.5313 0.2592,0.3637 0.4237,0.8496 0.5044,1.49 0.032,0.2554 0.071,1.9646 0.053,2.3288 l -0.01,0.141 h -1.5654 -1.5654 v -0.1306 c 0,-0.072 0.014,-0.3704 0.031,-0.6635 0.017,-0.293 0.03,-0.7209 0.03,-0.9507 0,-0.6429 -0.055,-0.8648 -0.2622,-1.0535 -0.2119,-0.1937 -0.524,-0.2533 -1.1108,-0.2121 -0.2011,0.014 -0.3784,0.031 -0.3938,0.037 -0.023,0.01 -0.026,0.093 -0.017,0.4424 0.019,0.7474 0.052,1.6935 0.073,2.0405 0.011,0.1839 0.02,0.3696 0.02,0.4127 v 0.078 h -1.6221 -1.6222 z m 4.155,-5.1898 c 0.3543,-0.075 0.5879,-0.3089 0.6953,-0.6977 0.052,-0.1893 0.066,-0.6704 0.024,-0.8667 -0.1112,-0.5223 -0.4543,-0.7352 -1.1306,-0.7021 -0.2391,0.012 -0.3302,0.025 -0.5255,0.077 l -0.087,0.023 -0.015,0.3688 c -0.015,0.3692 0,1.4379 0.025,1.6732 l 0.013,0.125 0.1068,0.01 c 0.256,0.018 0.7932,0.013 0.8946,-0.01 z m 6.5649,5.2211 c 0.015,-0.107 0.048,-0.6966 0.078,-1.3948 0.025,-0.584 0.052,-5.6146 0.029,-5.7583 l -0.014,-0.095 -0.1709,0.011 c -0.094,0.01 -0.3403,0.021 -0.5471,0.033 -0.2069,0.012 -0.5819,0.04 -0.8333,0.064 -0.2515,0.023 -0.4608,0.038 -0.4651,0.034 -0.01,-0.01 0.037,-0.5854 0.092,-1.2911 l 0.1,-1.2832 h 3.3532 3.3531 l 0.099,1.2839 c 0.055,0.7062 0.096,1.2872 0.092,1.2912 -0.01,0.01 -0.2129,-0.011 -0.4644,-0.035 -0.2514,-0.023 -0.6264,-0.052 -0.8333,-0.064 -0.2069,-0.012 -0.4531,-0.026 -0.5472,-0.032 l -0.1712,-0.011 -0.011,0.089 c -0.039,0.3158 -0.018,4.5223 0.028,5.7412 0.026,0.6712 0.059,1.2896 0.075,1.4157 l 0.011,0.089 h -1.6335 -1.6335 z m 6.0383,-0.5884 c 0.01,-0.3725 0.025,-1.0331 0.039,-1.468 0.038,-1.193 0.032,-4.496 -0.011,-5.897 -0.019,-0.6363 -0.035,-1.2876 -0.035,-1.4471 v -0.29 h 1.6323 1.6322 l -0.013,0.1306 c -0.039,0.3931 -0.08,1.5031 -0.1053,2.8419 l -0.01,0.538 h 0.9593 0.9594 l -0.01,-0.2769 c -0.01,-0.1522 -0.014,-0.6059 -0.02,-1.0082 -0.012,-0.8745 -0.061,-1.8519 -0.1069,-2.1471 l -0.012,-0.078 h 1.6345 1.6344 l -0.013,0.3918 c -0.045,1.3306 -0.064,2.7609 -0.063,4.8008 0,2.0868 0.029,4.027 0.063,4.4352 l 0.013,0.1515 h -1.6341 -1.6342 l 0.011,-0.078 c 0.047,-0.3139 0.094,-1.3532 0.1072,-2.4082 0.01,-0.4655 0.015,-0.9051 0.02,-0.9769 l 0.01,-0.1306 h -0.9602 -0.96 l 0.011,0.559 c 0.026,1.3641 0.064,2.4017 0.1057,2.8836 l 0.013,0.1515 h -1.6357 -1.6358 z m 13.6875,0.5362 c 0.077,-0.8224 0.1054,-2.0259 0.1062,-4.4561 0,-2.3526 -0.025,-3.5231 -0.1061,-4.8705 l -0.013,-0.2211 0.3423,-0.036 c 1.9453,-0.2052 2.708,-0.2554 3.5915,-0.2363 0.9055,0.019 1.5295,0.1303 2.1596,0.3832 0.4357,0.1747 0.7571,0.3789 1.0677,0.678 0.6709,0.6463 0.963,1.4913 0.924,2.673 -0.038,1.1493 -0.3344,1.9722 -0.9222,2.5604 -0.5072,0.5075 -1.1881,0.7975 -2.1684,0.9235 -0.2183,0.028 -0.4438,0.035 -1.0634,0.035 h -0.7863 l 0.01,0.21 c 0.01,0.1155 0.022,0.5768 0.039,1.025 0.017,0.4482 0.037,0.963 0.045,1.1441 l 0.013,0.329 h -1.6254 -1.6254 z m 4.3327,-5.1199 c 0.2574,-0.083 0.4133,-0.2142 0.5185,-0.4364 0.096,-0.2022 0.1226,-0.3643 0.1227,-0.7386 0,-0.3736 -0.025,-0.5164 -0.1261,-0.7161 -0.2074,-0.4091 -0.7861,-0.569 -1.4704,-0.4062 l -0.1985,0.047 -0.015,0.1771 c -0.01,0.097 -0.018,0.6096 -0.021,1.1382 l -0.01,0.9613 0.209,0.013 c 0.3977,0.025 0.843,0.01 0.9866,-0.039 z m 15.0001,5.1303 c 0.022,-0.2872 0.052,-1.5149 0.075,-3.1829 0.033,-2.2793 -0.01,-5.0874 -0.078,-6.2516 l -0.014,-0.2142 h 1.6249 1.6249 l -0.014,0.2247 c -0.057,0.917 -0.096,3.1763 -0.096,5.6344 v 1.5232 l 0.3292,-0.014 c 0.895,-0.039 1.5498,-0.082 2.269,-0.1517 l 0.1427,-0.013 -0.012,0.092 c -0.01,0.051 -0.05,0.5997 -0.096,1.2204 -0.047,0.6205 -0.089,1.1588 -0.095,1.1962 l -0.011,0.068 h -2.8297 -2.8297 z m 6.9329,-0.1776 c 0.048,-1.0895 0.064,-2.2164 0.065,-4.4561 0,-2.6422 -0.02,-3.5716 -0.106,-4.8217 l -0.013,-0.1933 h 1.6143 1.6143 l -0.013,0.1097 c -0.057,0.4785 -0.1018,1.9121 -0.092,2.9787 l 0.01,0.6958 0.1274,-0.2047 c 0.3277,-0.527 0.8008,-1.4379 1.4194,-2.7332 l 0.3992,-0.8359 1.7703,-0.01 1.7702,-0.01 -0.1709,0.1934 c -0.7556,0.8554 -1.4983,1.9585 -2.6015,3.8637 -0.01,0.01 0.07,0.039 0.1644,0.07 0.736,0.2425 1.3422,0.7795 1.6963,1.5025 0.1754,0.3583 0.3016,0.8025 0.3446,1.2139 0.03,0.2883 0.064,1.4963 0.064,2.2828 v 0.653 h -1.533 -1.5331 l 0.01,-0.6111 c 0.015,-0.8631 -0.04,-1.5947 -0.1446,-1.9337 -0.196,-0.6355 -0.6791,-0.9494 -1.5389,-1.0001 l -0.2361,-0.014 0.012,0.3427 c 0.01,0.1886 0.021,0.6625 0.033,1.0533 0.023,0.7717 0.053,1.556 0.074,1.9277 l 0.013,0.235 h -1.6145 -1.6146 z"
       id="path3060" /><path
       id="path3061"
       style="fill:#fcfcfc;fill-opacity:1;stroke:none;stroke-width:0.0513765"
       d="m -2110.8086,7570.0873 c -0.5178,0.01 -0.762,0.053 -1.0139,0.1767 -0.1452,0.071 -0.3225,0.2398 -0.4005,0.3809 -0.1088,0.1964 -0.1894,0.4959 -0.2274,0.8459 -0.024,0.2206 -0.024,1.1117 0,1.3323 0.1059,0.9688 0.4361,1.3221 1.3121,1.4061 v 0 c 0.2011,0.018 0.9153,0.01 1.0867,-0.02 0.1935,-0.029 0.3576,-0.078 0.4992,-0.1467 0.093,-0.046 0.1388,-0.079 0.2388,-0.1793 0.1076,-0.1072 0.1328,-0.1411 0.1938,-0.2656 0.1648,-0.3365 0.2247,-0.7302 0.2247,-1.4682 -6e-4,-0.7421 -0.064,-1.1447 -0.2335,-1.4748 -0.077,-0.1512 -0.2337,-0.3168 -0.3711,-0.3928 -0.275,-0.1523 -0.6526,-0.2083 -1.3089,-0.1953 z m 27.7063,0 c -0.7455,0.047 -1.2685,0.3738 -1.4221,0.9245 -0.035,0.1265 -0.043,0.4498 -0.014,0.5927 0.047,0.2337 0.1518,0.4157 0.3405,0.5948 0.1453,0.1378 0.2997,0.234 0.6724,0.4191 0.2632,0.1308 0.3317,0.171 0.3927,0.23 0.077,0.07 0.077,0.073 0.067,0.1385 -0.01,0.086 -0.041,0.1306 -0.1261,0.1726 -0.1129,0.058 -0.194,0.068 -0.4693,0.058 -0.2501,-0.01 -0.4052,-0.024 -0.7374,-0.08 -0.095,-0.012 -0.1803,-0.022 -0.1803,-0.022 -0.012,0.012 0.089,1.0215 0.1033,1.0315 0.016,0.01 0.3611,0.05 0.6444,0.075 v 0 c 0.2642,0.023 0.7967,0.016 0.9653,-0.013 0.604,-0.1039 0.9343,-0.3914 1.0402,-0.9059 0.039,-0.1936 0.033,-0.5158 -0.014,-0.6517 -0.1232,-0.3586 -0.3683,-0.5953 -0.9447,-0.912 -0.2381,-0.1307 -0.3919,-0.2323 -0.4289,-0.2853 -0.079,-0.1113 -0.026,-0.246 0.122,-0.308 0.1345,-0.056 0.4707,-0.044 0.8381,0.031 0.1279,0.026 0.235,0.047 0.245,0.047 0.016,0 -0.08,-1.0279 -0.097,-1.0449 l -6e-4,-5e-4 c -0.012,-0.01 -0.093,-0.026 -0.1829,-0.042 -0.2926,-0.049 -0.5659,-0.064 -0.8144,-0.049 z m -34.4563,0.01 c -0.3355,0.025 -0.562,0.073 -0.741,0.1586 -0.1234,0.059 -0.2688,0.1978 -0.3458,0.3297 -0.198,0.3403 -0.293,0.8616 -0.293,1.6046 6e-4,1.2965 0.2383,1.7818 0.9607,1.9637 0.1293,0.032 0.3809,0.069 0.5343,0.079 l 5e-4,-0.01 c 0.1808,0.016 0.6156,0.013 0.7209,0 0.1191,-0.014 0.4947,-0.1004 0.5277,-0.1204 0.013,-0.01 0.036,-0.1713 0.083,-0.5674 0.036,-0.3056 0.062,-0.5592 0.062,-0.5592 h -6e-4 -5e-4 c -0.01,8e-4 -0.041,0.014 -0.08,0.031 -0.117,0.051 -0.3649,0.1239 -0.5178,0.1499 -0.2362,0.04 -0.5617,0.01 -0.7209,-0.068 -0.142,-0.069 -0.1973,-0.1578 -0.2403,-0.3829 -0.023,-0.1269 -0.024,-0.9643 0,-1.1023 0.062,-0.3606 0.2257,-0.4677 0.7308,-0.4677 0.176,0 0.226,0 0.3669,0.036 0.09,0.021 0.2242,0.057 0.2992,0.082 0.075,0.024 0.1379,0.043 0.1379,0.043 0,0 -0.022,-0.2426 -0.05,-0.5369 -0.038,-0.3913 -0.056,-0.5367 -0.07,-0.5467 -0.032,-0.02 -0.4073,-0.1054 -0.5282,-0.1204 -0.1465,-0.018 -0.5889,-0.018 -0.8361,0 z m 12.2416,0.053 0.01,0.031 c 0.018,0.083 0.038,1.0549 0.038,1.8996 0,0.85 -0.02,1.9202 -0.038,2.0355 l -0.018,0.044 h 0.5694 0.57 v -1.1999 -1.1994 l 0.054,0.2718 c 0.041,0.2063 0.4331,1.7317 0.5333,2.0763 l 0.015,0.051 h 0.4909 0.4914 l 0.2341,-1.0707 c 0.129,-0.5888 0.2486,-1.1408 0.2656,-1.2268 l 0.031,-0.1561 0.01,0.6051 c 0.01,0.5689 -0.01,1.6386 -0.026,1.7829 l -0.01,0.065 h 0.5938 0.5942 l -0.011,-0.2822 c -0.015,-0.3478 -0.014,-3.2832 0,-3.5408 l 0.01,-0.1871 h -0.7793 -0.7793 l -0.2795,0.8335 c -0.2411,0.7195 -0.2842,0.8599 -0.3122,1.0232 -0.016,0.091 -0.036,0.1624 -0.041,0.1721 l -5e-4,5e-4 v 5e-4 h -5e-4 v -5e-4 -5e-4 c -0.01,-0.01 -0.024,-0.095 -0.04,-0.1912 -0.025,-0.1409 -0.083,-0.332 -0.307,-1.0056 l -0.2764,-0.832 h -0.7964 z m 7.9913,5e-4 0.01,0.1664 c 0.01,0.092 0.014,0.5488 0.024,1.016 0.014,0.8095 0,2.0411 -0.021,2.6205 l -0.01,0.1932 h 1.2991 1.2991 l 0.01,-0.037 c 0.011,-0.055 0.085,-1.0049 0.075,-1.0149 0,0 -0.048,-2e-4 -0.1003,0.01 -0.1759,0.019 -1.2705,0.071 -1.2815,0.061 0,0 -0.013,-0.1251 -0.013,-0.2728 l -0.01,-0.2687 0.1416,0.01 c 0.078,0 0.3097,0.016 0.5152,0.016 0.2056,0 0.3876,0.015 0.4046,0.015 l 0.031,0.01 v -0.5178 -0.5178 l -0.058,0.01 c -0.032,0 -0.208,0.015 -0.3912,0.015 -0.1831,0 -0.4018,0.015 -0.4858,0.015 l -0.1529,0.01 v -0.2666 -0.2667 h 0.094 c 0.1312,0 0.8042,0.025 1.0744,0.04 0.1232,0.01 0.2273,0.01 0.2273,0.01 0,0 -0.062,-0.9553 -0.072,-1.0113 l -0.01,-0.044 h -1.3012 z m 7.7122,0 c -1.0885,0 -1.3721,0 -1.3721,0.017 0,0.01 -0.018,0.2464 -0.04,0.5266 -0.021,0.2802 -0.035,0.5136 -0.035,0.5136 0,0 0.1104,0 0.2403,-0.016 0.13,-0.012 0.3138,-0.03 0.4088,-0.03 l 0.1721,-0.01 0.01,0.065 c 0.025,0.1654 -0.01,2.5341 -0.042,2.8572 l -0.01,0.085 h 0.6687 0.6682 l -0.01,-0.1049 c -0.032,-0.4048 -0.064,-2.474 -0.042,-2.7683 l 0.01,-0.1344 0.1721,0.01 c 0.095,0.01 0.2783,0.019 0.4083,0.03 0.1299,0.015 0.2418,0.015 0.2418,0.015 0.01,-0.01 -0.054,-0.8347 -0.071,-0.9839 l -0.01,-0.071 z m -21.0675,0.9053 c 0.1346,0 0.2386,0.031 0.3106,0.093 0.1474,0.1264 0.1922,0.3573 0.1922,1.0051 7e-4,0.8038 -0.07,1.0282 -0.3457,1.1002 v 6e-4 c -0.045,0.01 -0.1178,0.019 -0.1628,0.019 -0.2589,0 -0.3911,-0.1189 -0.4501,-0.3897 -0.051,-0.2492 -0.046,-1.2594 0.01,-1.4769 0.065,-0.2514 0.1929,-0.3514 0.4491,-0.3514 z" /></g></svg>
