<?xml version="1.0" encoding="UTF-8" standalone="no"?>
<svg
   width="343.53369"
   height="86.722656"
   viewBox="0 0 90.893287 22.94537"
   version="1.1"
   id="svg16"
   xml:space="preserve"
   xmlns="http://www.w3.org/2000/svg"
   xmlns:svg="http://www.w3.org/2000/svg"
   xmlns:rdf="http://www.w3.org/1999/02/22-rdf-syntax-ns#"
   xmlns:cc="http://creativecommons.org/ns#"
   xmlns:dc="http://purl.org/dc/elements/1.1/"><defs
     id="defs10" /><metadata
     id="metadata13"><rdf:RDF><cc:Work
         rdf:about=""><dc:format>image/svg+xml</dc:format><dc:type
           rdf:resource="http://purl.org/dc/dcmitype/StillImage" /></cc:Work></rdf:RDF></metadata><g
     id="layer1"
     transform="translate(1980.4073,-7268.577)"><path
       id="path2665"
       style="fill:#d40000;fill-opacity:1;stroke:none;stroke-width:0.213317px;stroke-linejoin:round;stroke-opacity:0.6"
       d="m -1966.8285,7268.584 -2.758,0.012 c -2.5875,0 -4.5328,1.0879 -5.7915,2.3921 -1.2584,1.3042 -1.9175,2.7931 -2.3143,3.6727 l -1.4783,3.2717 c -0.4416,0.9772 -1.2992,2.6498 -1.2331,4.5296 0.034,0.9396 0.4033,2.0284 1.2863,2.7563 l 1.7213,0.8326 15.137,5.3142 h 3e-4 c 0.3841,0.1076 0.8174,0.1572 1.2988,0.1572 h 11.2433 0.012 0.012 38.4764 1.9648 v -2e-4 c 0.6377,-3e-4 1.2304,-0.08 1.7431,-0.2685 l 15.3809,-5.4161 v -4e-4 c 0.8016,-0.2934 1.4753,-0.7599 1.9585,-1.4515 0.9685,-1.3835 0.7788,-3.1957 -0.021,-4.9953 v -0.012 l -0.033,-0.073 v -0.012 c -0.5216,-1.1324 -1.2071,-2.0173 -1.982,-2.7194 l 0.5676,-0.311 -1.1603,-2.5717 c -1.8408,-4.0774 -5.4843,-5.1142 -7.9802,-5.1142 h -2.6176 c -1.521,0 -2.8817,0.2464 -3.9056,1.1413 l -0.2734,-0.8961 h -12.0074 -10.5273 -2.2142 -4.825 l -1.8198,3.4245 -1.5165,-3.4245 h -6.9948 l -0.3434,2.6555 c -0.039,-0.053 -0.059,-0.1173 -0.098,-0.1689 -0.3839,-0.5067 -2.2782,-2.7318 -5.9472,-2.7318 -3.6793,0 -6.3748,1.9212 -7.6795,3.094 l -0.81,-0.9173 c -0.2292,-0.4568 -0.6074,-0.9958 -1.2357,-1.3994 -0.8468,-0.5445 -1.9134,-0.7773 -3.2274,-0.7773 z m -2.7577,1.4207 h 2.7587 c 4.5573,0 3.5209,3.3519 2.9271,5.2349 l -0.3186,1.0116 h -4.1636 l 0.3006,-0.8347 c 0.4616,-1.2818 0.5135,-1.663 -0.1474,-1.663 h -2.7292 c -0.5758,0 -0.8315,0.4198 -1.3524,1.7026 l -1.164,2.8658 c -0.5527,1.3608 -0.6549,1.8375 -0.016,1.8375 h 2.9233 c 0.6852,0 0.9329,-0.4334 1.4311,-1.8164 l 0.3809,-1.0575 h 4.2099 l -0.3864,1.2254 c -0.6647,2.1082 -1.9959,6.3306 -7.3598,6.3306 h -3.2325 c -5.2201,0 -3.2432,-4.376 -2.3602,-6.3306 l 1.4776,-3.2713 c 0.7912,-1.7511 2.3858,-5.2349 6.8205,-5.2349 z m 66.185,0 h 2.6166 c 2.1867,0 5.087,0.7208 6.6947,4.2832 l 0.2618,0.5804 h -4.166 l -0.094,-0.2329 c -0.1877,-0.4622 -0.5361,-0.901 -1.0904,-0.901 h -2.7077 c -0.3411,0 -0.528,0.1901 -0.4245,0.4769 l 0.02,0.058 c 0.1322,0.3664 1.4395,0.5797 4.4454,1.1275 2.3908,0.6144 4.964,1.5211 6.333,4.5021 l 0.029,0.065 c 1.3934,3.1359 0.1442,4.8777 -3.3759,4.8777 h -3.0651 c -3.6638,0 -6.1678,-2.0413 -7.3334,-5.7801 l -0.086,-0.2761 h 4.3674 l 0.1064,0.2975 c 0.261,0.7297 0.8876,1.0766 1.1845,1.0766 h 2.9004 c 0.434,0 0.6289,-0.1954 0.4982,-0.5197 l -0.043,-0.1076 c -0.1727,-0.428 -0.9599,-0.7044 -5.021,-1.3566 -2.2746,-0.5816 -4.626,-1.7032 -5.4737,-4.346 l -0.018,-0.057 c -0.835,-2.6726 0.5597,-3.7679 3.4411,-3.7679 z m -38.0097,0.2447 1.976,4.4634 c 0.1262,0.5267 0.2115,1.5182 0.1939,1.9005 h 0.1538 c 0.018,-0.4024 0.234,-1.3738 0.4068,-1.9005 l 2.3723,-4.4634 h 4.8368 l 0.5848,14.3055 h -4.4414 l 0.017,-5.4513 c 0,-0.656 0.071,-1.3652 0.161,-1.9209 l -0.1987,-0.04 c -0.046,0.3283 -0.182,0.825 -0.3412,1.2639 l -2.1444,4.4405 h -3.1688 l -1.7571,-4.6291 c -0.1016,-0.3958 -0.1999,-0.8087 -0.2219,-1.0753 l -0.2007,0.02 c 0.059,0.5969 0.027,1.4962 -0.021,2.0483 l -0.4581,5.3444 h -4.441 l 1.8549,-14.3056 z m 10.5618,3e-4 h 10.0627 l 0.6158,3.7514 h -6.3931 l 0.094,1.0038 h 6.4642 l 0.6172,3.7597 h -6.73 l 0.1064,1.1345 h 6.81 l 0.7646,4.6562 h -11.7242 z m 10.6846,0 h 11.5379 l 1.1369,3.7323 h -3.9334 l 2.76,10.5733 h -4.6803 l -2.2695,-10.5733 h -3.912 z m -31.3787,0.2566 c 0.1396,-6e-4 0.9511,0.4373 1.35,0.7288 0.38,0.2778 0.9812,0.8437 1.1186,1.0532 0.075,0.1136 0.071,0.1496 -0.075,0.7518 -0.085,0.3478 -0.2113,0.8901 -0.2829,1.2047 l -0.1296,0.5719 -1.2261,0.3566 c -0.6741,0.1958 -1.2484,0.3631 -1.2763,0.3715 -0.028,0.012 -0.2993,-0.1783 -0.603,-0.4151 -0.3039,-0.2368 -0.8486,-0.6621 -1.2107,-0.9449 l -0.6584,-0.5144 0.136,-0.8655 c 0.075,-0.4761 0.1769,-1.0061 0.2269,-1.1774 l 0.091,-0.311 1.2262,-0.405 c 0.6745,-0.2228 1.2656,-0.4052 1.3129,-0.4052 z m -5.768,0.034 1.1913,0.3975 1.1914,0.3967 -0.2053,1.1922 -0.2058,1.1922 -1.4351,0.8832 c -0.7895,0.4856 -1.4721,0.8892 -1.5162,0.8977 -0.043,0.012 -0.5739,-0.1517 -1.1771,-0.3551 l -1.097,-0.3703 0.135,-1.211 0.1351,-1.2112 0.5163,-0.4148 c 0.5642,-0.4533 1.3803,-0.94 2.047,-1.2204 z m -3.6361,4.9572 1.1047,0.3676 1.1052,0.3678 0.2615,1.5296 0.2618,1.5293 -0.8873,1.0297 h -3e-4 c -0.4879,0.5664 -0.9017,1.036 -0.9204,1.0445 -0.018,0.012 -0.6289,-0.1209 -1.3558,-0.2855 l -1.3218,-0.2993 -0.1546,-0.4101 c -0.2803,-0.7435 -0.3906,-1.5906 -0.3316,-2.5445 l 0.033,-0.5357 1.1028,-0.8971 z m 11.5375,0.024 0.7607,0.8524 0.7605,0.8524 -0.095,0.3877 c -0.1562,0.6278 -0.3784,1.2173 -0.6711,1.782 -0.3377,0.6512 -0.8517,1.4033 -0.9955,1.4565 -0.058,0.022 -0.5999,0.1434 -1.205,0.2711 -0.605,0.1277 -1.1666,0.2423 -1.2484,0.2546 -0.1395,0.022 -0.1609,0 -0.3492,-0.3518 -0.11,-0.2061 -0.3845,-0.7014 -0.6091,-1.1014 l -0.4085,-0.7271 0.7617,-1.474 c 0.7184,-1.3906 0.769,-1.4748 0.8925,-1.5 0.073,-0.014 0.6433,-0.1785 1.2694,-0.3643 z m -4.7219,4.2336 0.298,0.5342 c 0.1638,0.2943 0.4302,0.7715 0.5921,1.0607 l 0.2945,0.5258 -0.8293,1.0921 c -0.5661,0.7455 -0.8691,1.1093 -0.9556,1.1475 -0.07,0.03 -0.4031,0.097 -0.7409,0.1478 h -3e-4 c -0.7202,0.1088 -1.742,0.1185 -2.361,0.022 -0.2196,-0.033 -0.4343,-0.063 -0.4785,-0.063 -0.053,0 -0.2337,-0.3738 -0.5475,-1.1295 -0.2576,-0.6202 -0.4852,-1.1618 -0.5053,-1.204 -0.05,-0.1016 -0.047,-0.104 0.8973,-1.1952 l 0.812,-0.9382 h 1.7624 z m 17.9912,6.157 c 1.2745,0 1.281,1.0581 1.281,1.6184 v 0.017 h -1.093 c -10e-4,-0.3603 -0.025,-0.4737 -0.2279,-0.4737 h -2.0931 c -0.183,0 -0.2004,0.1315 -0.2004,0.5032 v 0.835 c 0,0.366 0.017,0.4919 0.206,0.4919 h 2.0933 c 0.1984,0 0.2221,-0.1076 0.2223,-0.4735 h 1.0928 v 0.022 c 0,0.5603 0,1.6127 -1.281,1.6127 h -2.2017 c -1.2468,0 -1.2469,-1.0923 -1.2469,-1.6127 v -0.9205 c 0,-0.5204 0,-1.6185 1.2469,-1.6185 z m 5.6162,0 c 1.2744,0 1.2809,1.0581 1.2809,1.6184 v 0.017 h -1.0983 c -6e-4,-0.3656 -0.025,-0.4795 -0.24,-0.4795 h -2.7736 c -0.1945,0 -0.2172,0.1316 -0.2172,0.5033 v 0.8464 c 0,0.3718 0.023,0.4976 0.2229,0.4976 h 2.7737 c 0.2111,0 0.2345,-0.1137 0.2345,-0.4849 h 1.098 v 0.022 c 0,0.5603 0,1.6127 -1.2809,1.6127 h -2.9169 c -1.2466,0 -1.2467,-1.0923 -1.2467,-1.6127 v -0.9205 c 0,-0.5204 0,-1.6185 1.2467,-1.6185 z m -18.4268,7e-4 h 2.8767 c 0.6119,0 1.3325,0.2345 1.3325,1.3383 v 0.1715 h -1.115 v -0.069 c 0,-0.1716 -0.04,-0.3029 -0.1948,-0.3029 h -2.8595 c -0.092,0 -0.1598,0.051 -0.1598,0.1598 v 0.017 c 0,0.1829 0.9148,0.2056 2.9336,0.3886 0.9265,0.086 1.4005,0.2347 1.407,1.2012 v 0.023 c 0,0.8006 -0.4918,1.224 -1.3327,1.224 h -2.8765 c -0.875,0 -1.3212,-0.4974 -1.3212,-1.464 v -0.074 h 1.1154 v 0.1028 c 0,0.1888 0.1315,0.3033 0.2058,0.3033 h 2.8595 c 0.1088,0 0.1772,-0.046 0.1772,-0.1197 v -0.069 c 0,-0.1486 -0.2459,-0.1657 -3.1339,-0.423 -0.8008,-0.075 -1.2002,-0.3835 -1.2067,-1.207 v -0.018 c 0,-0.8294 0.4861,-1.1839 1.2924,-1.1839 z m 5.6732,0 h 2.2078 c 1.2744,0 1.281,1.058 1.281,1.6184 v 0.9205 c 0,0.5603 0,1.6127 -1.281,1.6127 h -2.2078 c -1.281,0 -1.281,-1.0524 -1.281,-1.6127 v -0.9205 c 0,-0.5604 0,-1.6119 1.281,-1.6184 z m 22.2529,0.08 c 0.6177,0 1.3553,0.2231 1.3553,1.2525 v 0.1256 c 0,0.3375 -0.2747,0.8695 -0.6178,0.8695 v 0.046 c 0.2859,0 0.5263,0.343 0.5263,0.7777 0,0.2974 0.017,0.6865 0.029,0.9325 h -1.1496 v -0.9779 c 0,-0.012 -0.017,-0.2807 -0.2058,-0.2807 h -2.3046 v 1.2586 h -1.0983 v -4.0036 z m -7.9896,6e-4 h 4.2377 v 1.1549 h -3.1396 v 0.3201 h 3.1396 v 1.0471 h -3.1396 v 0.3257 h 3.1396 v 1.1554 h -4.2377 z m -14.1889,1.0806 c -0.2232,0 -0.2516,0.1314 -0.2516,0.5261 v 0.7894 c 0,0.3947 0.029,0.5144 0.2516,0.5144 h 2.059 c 0.2231,0 0.2516,-0.1197 0.2516,-0.5144 v -0.7894 c 0,-0.4004 -0.029,-0.5196 -0.2516,-0.5261 z m 19.8108,0.1028 v 0.4865 h 2.3445 c 0.1943,0 0.2119,-0.1438 0.2119,-0.195 v -0.086 c 0,-0.052 -0.012,-0.2058 -0.2232,-0.2058 z" /><path
       id="path2667"
       style="fill:#ffffff;fill-opacity:1;stroke:none;stroke-width:0.0977006"
       d="m -1969.5862,7270.0047 c -4.4346,0 -6.0292,3.4838 -6.8205,5.2349 l -1.4775,3.2713 c -0.8831,1.9546 -2.86,6.3306 2.3602,6.3306 h 3.2324 c 5.3639,0 6.6952,-4.2224 7.3598,-6.3306 l 0.3865,-1.2254 h -4.2099 l -0.3809,1.0575 c -0.4983,1.383 -0.7459,1.8164 -1.4311,1.8164 h -2.9233 c -0.6394,0 -0.5372,-0.4767 0.016,-1.8375 l 1.164,-2.8658 c 0.5209,-1.2828 0.7766,-1.7026 1.3524,-1.7026 h 2.7292 c 0.6609,0 0.6091,0.3812 0.1474,1.663 l -0.3006,0.8347 h 4.1637 l 0.3186,-1.0116 c 0.5938,-1.883 1.6301,-5.2349 -2.9272,-5.2349 z m 66.185,0 c -2.8814,0 -4.2762,1.0953 -3.4411,3.7679 l 0.018,0.057 c 0.8477,2.6428 3.1991,3.7644 5.4737,4.346 4.0611,0.6522 4.8483,0.9286 5.021,1.3566 l 0.043,0.1076 c 0.1307,0.3243 -0.064,0.5197 -0.4983,0.5197 h -2.9003 c -0.2969,0 -0.9235,-0.3469 -1.1846,-1.0766 l -0.1064,-0.2974 h -4.3673 l 0.086,0.276 c 1.1656,3.7388 3.6697,5.7801 7.3335,5.7801 h 3.0651 c 3.5201,0 4.7693,-1.7418 3.3759,-4.8777 l -0.029,-0.065 c -1.369,-2.981 -3.9423,-3.8877 -6.3331,-4.5021 -3.0058,-0.5478 -4.3131,-0.7611 -4.4453,-1.1275 l -0.021,-0.058 c -0.104,-0.2868 0.083,-0.4769 0.4245,-0.4769 h 2.7077 c 0.5542,0 0.9027,0.4388 1.0904,0.9011 l 0.094,0.2328 h 4.166 l -0.2618,-0.5803 c -1.6077,-3.5625 -4.5081,-4.2832 -6.6948,-4.2832 z m -38.0097,0.2447 -4.8364,3e-4 -1.855,14.3056 h 4.441 l 0.4582,-5.3444 c 0.047,-0.5521 0.08,-1.4515 0.021,-2.0483 l 0.2007,-0.021 c 0.022,0.2666 0.1209,0.6795 0.2219,1.0752 l 1.7571,4.6292 h 3.1689 l 2.1443,-4.4405 c 0.1593,-0.439 0.2956,-0.9357 0.3413,-1.2639 l 0.1986,0.04 c -0.09,0.5557 -0.1589,1.2648 -0.1609,1.9209 l -0.017,5.4513 h 4.4413 l -0.5847,-14.3056 h -4.8369 l -2.3723,4.4635 c -0.1728,0.5267 -0.3891,1.4981 -0.4067,1.9005 h -0.1538 c 0.017,-0.3823 -0.068,-1.3738 -0.194,-1.9005 z m 10.5618,3e-4 0.6873,14.3056 h 11.7242 l -0.7646,-4.6562 h -6.81 l -0.1064,-1.1345 h 6.7299 l -0.6171,-3.7597 h -6.4642 l -0.094,-1.0038 h 6.3931 l -0.6158,-3.7514 z m 10.6846,0 0.6396,3.7323 h 3.912 l 2.2695,10.5733 h 4.6803 l -2.76,-10.5733 h 3.9334 l -1.1369,-3.7323 z m -31.3787,0.2566 c -0.047,0 -0.6384,0.1824 -1.3128,0.4052 l -1.2263,0.405 -0.091,0.311 c -0.05,0.1713 -0.152,0.7013 -0.2268,1.1774 l -0.1361,0.8655 0.6584,0.5144 c 0.3621,0.2828 0.9068,0.7081 1.2107,0.9449 0.3037,0.2368 0.5751,0.4236 0.603,0.4151 0.028,-0.012 0.6022,-0.1757 1.2763,-0.3715 l 1.2261,-0.3566 0.1296,-0.5719 c 0.071,-0.3146 0.1989,-0.8569 0.2829,-1.2047 0.1455,-0.6022 0.149,-0.638 0.075,-0.7518 -0.1374,-0.2095 -0.7385,-0.7754 -1.1186,-1.0532 -0.3988,-0.2915 -1.2104,-0.7294 -1.3499,-0.7288 z m -5.768,0.034 -0.4204,0.1767 c -0.6667,0.2804 -1.4828,0.7671 -2.047,1.2204 l -0.5163,0.4148 -0.1351,1.2112 -0.135,1.211 1.097,0.3703 c 0.6032,0.2034 1.1331,0.3632 1.1771,0.3551 0.043,-0.012 0.7267,-0.4121 1.5162,-0.8977 l 1.4351,-0.8832 0.2058,-1.1922 0.2053,-1.1922 -1.1914,-0.3967 z m -3.6361,4.9572 -1.1028,0.8963 -1.1027,0.8971 -0.033,0.5357 c -0.059,0.9539 0.051,1.801 0.3316,2.5445 l 0.1546,0.4101 1.3218,0.2993 c 0.7269,0.1649 1.3371,0.2933 1.3558,0.2855 0.018,-0.012 0.4325,-0.4781 0.9203,-1.0445 h 4e-4 l 0.8873,-1.0297 -0.2618,-1.5293 -0.2616,-1.5296 -1.1051,-0.3678 z m 11.5375,0.024 -1.1381,0.3381 c -0.6261,0.1858 -1.1973,0.3498 -1.2694,0.3643 -0.1235,0.025 -0.1741,0.11 -0.8925,1.5 l -0.7617,1.474 0.4085,0.7271 c 0.2246,0.4 0.4989,0.8953 0.6091,1.1014 0.1883,0.3518 0.2097,0.3733 0.3492,0.3518 0.082,-0.012 0.6434,-0.1269 1.2484,-0.2546 0.6051,-0.1277 1.1474,-0.2499 1.205,-0.2711 0.1438,-0.053 0.6578,-0.8053 0.9955,-1.4565 0.2927,-0.5647 0.5149,-1.1542 0.6711,-1.782 l 0.095,-0.3877 -0.7605,-0.8524 z m -4.7219,4.2336 -1.7621,4e-4 h -1.7624 l -0.812,0.9381 c -0.9445,1.0915 -0.9463,1.0938 -0.8973,1.1952 0.021,0.042 0.2477,0.5838 0.5053,1.2041 0.3138,0.7557 0.4943,1.1282 0.5475,1.1294 0.044,0 0.2589,0.03 0.4785,0.063 0.619,0.096 1.6408,0.087 2.361,-0.022 h 3e-4 c 0.3378,-0.051 0.6713,-0.1173 0.7409,-0.1477 0.087,-0.039 0.3895,-0.4021 0.9556,-1.1476 l 0.8293,-1.0921 -0.2945,-0.5257 c -0.1619,-0.2892 -0.4283,-0.7665 -0.5921,-1.0608 z m 17.9912,6.157 -2.2017,7e-4 c -1.2411,0 -1.2469,1.098 -1.2469,1.6184 v 0.9205 c 0,0.5204 10e-5,1.6127 1.2469,1.6127 h 2.2017 c 1.281,0 1.281,-1.0524 1.281,-1.6127 v -0.022 h -1.0928 c -2e-4,0.3654 -0.024,0.4735 -0.2223,0.4735 h -2.0933 c -0.1887,0 -0.206,-0.1258 -0.206,-0.4918 v -0.8351 c 0,-0.3716 0.017,-0.5032 0.2004,-0.5032 h 2.0931 c 0.202,0 0.2269,0.1137 0.2279,0.4737 h 1.093 v -0.017 c 0,-0.5603 -0.012,-1.6184 -1.281,-1.6184 z m 5.6162,0 -2.9169,7e-4 c -1.2409,0 -1.2467,1.098 -1.2467,1.6184 v 0.9205 c 0,0.5204 10e-5,1.6127 1.2467,1.6127 h 2.9169 c 1.2809,0 1.2809,-1.0524 1.2809,-1.6127 v -0.022 h -1.098 c 0,0.3709 -0.023,0.4849 -0.2345,0.4849 h -2.7737 c -0.2002,0 -0.2229,-0.1258 -0.2229,-0.4976 v -0.8463 c 0,-0.3717 0.023,-0.5034 0.2172,-0.5034 h 2.7736 c 0.2145,0 0.2394,0.1137 0.24,0.4795 h 1.0983 v -0.017 c 0,-0.5603 -0.012,-1.6184 -1.2809,-1.6184 z m -18.4268,7e-4 c -0.8063,0 -1.2981,0.3545 -1.2924,1.1838 v 0.018 c 0.012,0.8235 0.4059,1.1326 1.2067,1.2069 2.888,0.2573 3.1339,0.2745 3.1339,0.4231 v 0.069 c 0,0.074 -0.069,0.1197 -0.1772,0.1197 h -2.8595 c -0.075,0 -0.2058,-0.1149 -0.2058,-0.3032 v -0.1028 h -1.1154 v 0.074 c 0,0.9666 0.4462,1.4641 1.3212,1.4641 h 2.8765 c 0.8409,0 1.3327,-0.4235 1.3327,-1.224 v -0.023 c -0.012,-0.9666 -0.4805,-1.1156 -1.407,-1.2013 -2.0188,-0.1829 -2.9336,-0.2056 -2.9336,-0.3886 v -0.017 c 0,-0.1088 0.068,-0.1599 0.1598,-0.1599 h 2.8595 c 0.1545,0 0.1948,0.1313 0.1948,0.3029 v 0.069 h 1.115 v -0.1714 c 0,-1.1038 -0.7206,-1.3384 -1.3325,-1.3384 z m 5.6732,0 c -1.2753,0.012 -1.281,1.058 -1.281,1.6184 v 0.9205 c 0,0.5603 0,1.6127 1.281,1.6127 h 2.2078 c 1.281,0 1.281,-1.0524 1.281,-1.6127 v -0.9205 c 0,-0.5604 -0.012,-1.6126 -1.281,-1.6184 z m 22.2529,0.08 -3.466,2e-4 v 4.0036 h 1.0983 v -1.2586 h 2.3046 c 0.1888,0 0.2058,0.2694 0.2058,0.2807 v 0.9779 h 1.1497 c -0.012,-0.246 -0.029,-0.6351 -0.029,-0.9325 0,-0.4347 -0.2403,-0.7777 -0.5263,-0.7777 v -0.046 c 0.3432,0 0.6179,-0.532 0.6179,-0.8695 v -0.1256 c 0,-1.0294 -0.7377,-1.2525 -1.3553,-1.2525 z m -7.9896,6e-4 v 4.0032 h 4.2377 v -1.1554 h -3.1396 v -0.3257 h 3.1396 v -1.0471 h -3.1396 v -0.3201 h 3.1396 v -1.1549 z m -14.1889,1.0806 h 2.059 c 0.2231,0.012 0.2516,0.1257 0.2516,0.5261 v 0.7894 c 0,0.3947 -0.029,0.5144 -0.2516,0.5144 h -2.059 c -0.2231,0 -0.2516,-0.1197 -0.2516,-0.5144 v -0.7894 c 0,-0.3947 0.028,-0.5203 0.2516,-0.5261 z m 19.8108,0.1028 h 2.3332 c 0.2116,0 0.2232,0.1542 0.2232,0.2058 v 0.086 c 0,0.051 -0.017,0.195 -0.2119,0.195 h -2.3445 z" /></g></svg>
