<?xml version="1.0" encoding="UTF-8" standalone="no"?>
<svg
   width="250.93016"
   height="128.61914"
   viewBox="0 0 66.391937 34.030482"
   version="1.1"
   id="svg16"
   xml:space="preserve"
   xmlns="http://www.w3.org/2000/svg"
   xmlns:svg="http://www.w3.org/2000/svg"
   xmlns:rdf="http://www.w3.org/1999/02/22-rdf-syntax-ns#"
   xmlns:cc="http://creativecommons.org/ns#"
   xmlns:dc="http://purl.org/dc/elements/1.1/"><defs
     id="defs10" /><metadata
     id="metadata13"><rdf:RDF><cc:Work
         rdf:about=""><dc:format>image/svg+xml</dc:format><dc:type
           rdf:resource="http://purl.org/dc/dcmitype/StillImage" /></cc:Work></rdf:RDF></metadata><g
     id="layer1"
     transform="translate(1976.0489,-7230.7366)"><path
       id="path2662"
       style="color:#000000;fill:#000000;stroke-linecap:round;stroke-linejoin:round;-inkscape-stroke:none"
       d="m -1954.5019,7230.7364 c -0.068,0 -0.1943,-3e-4 -0.3281,0.012 -0.012,7e-4 -0.017,0 -0.029,0 h -0.012 -0.022 c -1.7022,0.051 -3.3412,0.4671 -4.7325,1.4005 -0.4803,0.3222 -0.7899,0.7531 -1.1426,1.158 -0.1773,-0.2173 -0.3075,-0.453 -0.5291,-0.6485 -1.1874,-1.0469 -2.666,-1.5528 -4.1739,-1.7653 -0.7147,-0.1011 -1.46,-0.1522 -2.2738,-0.154 -0.8138,0 -1.6782,0.055 -2.6934,0.1339 -0.9142,0.071 -1.5801,0.1322 -2.2324,0.2718 -0.7213,0.1541 -1.5888,0.4764 -2.2738,1.2087 -0.6706,0.717 -0.9406,1.5719 -1.0371,2.2655 -0.02,0.1456 -0.03,0.2602 -0.033,0.3457 v 0.067 c -0.014,0.1529 -0.014,0.2817 -0.014,0.4041 -0.01,0.2947 -0.01,0.6593 -0.01,1.141 -0.01,0.9963 -0.01,2.4526 -0.01,4.4354 0,2.7677 -5e-4,4.2055 0.01,5.0043 v 0.01 c 0.01,0.3816 0.01,0.6027 0.02,0.8362 v 0.012 c 0.019,0.3268 0.085,0.8526 0.3844,1.4102 0.3065,0.5708 0.7661,1.0349 1.3457,1.3457 0.3518,0.189 0.7086,0.3009 1.0883,0.3539 0.2365,0.032 0.4309,0.04 0.5855,0.043 0.3389,0.011 0.7843,0.012 1.633,0.012 0.8687,0 1.3112,0 1.6459,-0.012 0.018,7e-4 0.036,7e-4 0.055,0 0.065,0 0.2483,-0.022 0.4123,-0.037 -10e-5,0.025 0,0.051 0,0.076 -0.01,0.3714 -0.01,0.8414 -0.01,1.4004 -0.01,1.1401 -0.012,2.6195 -0.012,4.0918 0,1.4788 0.012,2.9473 0.012,4.0488 v 0.01 0.015 c 0.01,0.5433 0.01,0.9987 0.01,1.3359 10e-5,0.1953 0.01,0.3488 0.01,0.3922 0,0.073 4e-4,0.1345 0.01,0.1798 0,0.023 -10e-5,0.042 0.01,0.051 v -0.078 c 0,0.097 0,0.1213 0.01,0.1271 v 5e-4 h 6e-4 v 5e-4 h 5e-4 5e-4 5e-4 5e-4 c 7e-4,0.01 0,-10e-5 0,-0.046 5e-4,0.1183 0.012,0.1641 0.021,0.2207 v 0.027 c 0,0.026 0.01,0.051 0.012,0.077 0.01,0.039 0.01,0.079 0.019,0.1162 -0.014,-0.045 -0.022,-0.066 -0.024,-0.07 l -5e-4,-6e-4 h -5e-4 v 6e-4 c 0,0.01 0.025,0.1158 0.048,0.2103 0.059,0.2351 0.126,0.3683 0.1271,0.371 0.034,0.086 0.055,0.1372 0.076,0.1876 0,0.01 0.01,0.018 0.012,0.027 0,0 0.012,0.028 0.035,0.074 0,0.01 0.01,0.011 0.01,0.013 v 5e-4 h 5e-4 v 6e-4 5e-4 l 5e-4,5e-4 v 5e-4 c 0.2314,0.4371 0.5087,0.7439 0.7462,0.9452 0.1188,0.1006 0.2273,0.1753 0.3127,0.2284 0.085,0.053 0.1826,0.107 0.1286,0.074 0.2153,0.132 0.3876,0.1944 0.5122,0.2423 0.1441,0.056 0.3627,0.1414 0.6464,0.1876 0.2797,0.045 0.5019,0.049 0.6387,0.053 0.3421,0.011 0.8049,0.01 1.7048,0 l 1.8397,-0.01 c 0.8332,0 1.6233,-0.3539 2.1797,-0.9606 l 0.096,-0.1055 0.094,-0.1018 c 0.4997,-0.546 0.7773,-1.2597 0.7772,-1.9998 v -1.0232 c 0.3354,-0.021 0.6415,-0.014 1.0315,-0.1137 0.6601,-0.1692 1.2006,-0.5095 1.7596,-0.8222 0.5601,1.5492 1.425,2.9603 2.8163,3.8949 1.156,0.7765 2.4908,1.1994 3.8794,1.3534 0.9686,0.107 2.0009,0.08 2.9626,-0.08 1.6959,-0.2834 3.1118,-1.1613 4.2576,-2.3043 0.7139,0.8515 1.5856,1.5761 2.6841,1.9585 0.709,0.2469 1.4399,0.3766 2.205,0.4476 1.0023,0.093 2.1694,0.043 2.9626,-0.025 0.304,-0.026 0.5968,-0.059 0.8558,-0.092 0.1729,-0.023 0.4552,-0.059 0.8066,-0.1504 0.026,0 0.052,-0.01 0.076,-0.01 0.08,-0.023 0.1315,-0.062 0.201,-0.096 0.1977,0.072 0.3813,0.1659 0.6072,0.1974 0.2417,0.033 0.4376,0.038 0.5881,0.041 0.3421,0.011 0.8076,0.01 1.6878,0 l 1.8355,-0.01 c 0.561,0 1.0222,-0.3263 1.4862,-0.617 0.1571,0.1262 0.2055,0.2147 0.4925,0.3338 0.5518,0.2288 1.0495,0.2541 1.2346,0.2656 0.5135,0.032 1.0744,0.023 2.2753,0.023 1.1006,0 1.6368,-3e-4 2.0112,-0.012 0.017,6e-4 0.034,6e-4 0.051,0 0.087,-0.01 0.3178,-0.021 0.5725,-0.053 0.021,0 0.041,-0.01 0.061,-0.01 0.026,0 0.052,-0.01 0.078,-0.01 0.5036,-0.096 0.8234,-0.3286 0.9591,-0.3984 0.4635,-0.2386 0.9088,-0.7884 1.1932,-1.1762 0.105,-0.1432 0.4466,-1.1314 0.3379,-1.8671 -0.1062,-0.7182 -0.402,-1.2356 -0.4516,-1.3337 -0.2898,-0.5726 -0.7452,-1.3629 -1.6872,-3.0314 -0.4515,-0.7998 -0.6977,-1.2442 -0.9395,-1.68 0.2865,-0.5058 0.5977,-1.0542 0.9746,-1.7203 0.8076,-1.4271 1.2449,-2.1979 1.5058,-2.6779 0.1239,-0.228 0.2222,-0.4091 0.3204,-0.6289 v -0.01 c 0.01,-0.012 7e-4,-0.018 0.01,-0.029 0.04,0.01 0.056,0.028 0.098,0.035 0.2758,0.045 0.4972,0.049 0.6326,0.053 0.3413,0.011 0.7913,0.01 1.6738,0.01 0.872,0 1.3256,1e-4 1.666,-0.01 0.01,2e-4 0.019,2e-4 0.029,0 0.1062,-0.01 0.3043,-0.01 0.5638,-0.043 h 0.01 c 0.3633,-0.054 0.6782,-0.1831 0.9942,-0.3483 l -0.09,0.014 c 0.1461,-0.047 0.28,-0.1781 0.3943,-0.292 l -0.096,0.1695 c -0.053,0.034 -0.1022,0.065 -0.1287,0.079 0.023,-0.01 0.048,-0.011 0.07,-0.023 0.017,-0.012 0.033,-0.024 0.048,-0.037 0.018,-0.012 0.035,-0.024 0.052,-0.037 -0.01,0.01 -0.011,0 -0.024,0.01 0.1023,-0.067 0.1265,-0.1742 0.2191,-0.248 0,-6e-4 4e-4,0 6e-4,0 10e-5,-2e-4 9e-4,0 10e-4,0 l 5e-4,-6e-4 5e-4,-5e-4 5e-4,-5e-4 c 0,0 0.014,-0.01 0.019,-0.01 l 6e-4,-5e-4 5e-4,-6e-4 h 5e-4 c 0,-0.01 10e-5,-0.01 0,-0.016 0.4046,-0.3308 0.7896,-0.6832 0.9844,-1.094 0.35,-0.738 0.3085,-1.347 0.3085,-1.3575 0.011,-0.2323 0.014,-0.4948 0.018,-0.9276 0.01,-0.8858 0.01,-2.4541 0.01,-5.3594 0,-3.4804 0.01,-5.0409 -0.018,-5.9159 -0.01,-0.2434 0.033,-0.7868 -0.2227,-1.51 -0.1435,-0.405 -0.3692,-0.7007 -0.5566,-0.9239 -0.1937,-0.2306 -0.4525,-0.5026 -0.8242,-0.7168 -0.1816,-0.1076 -0.3266,-0.1652 -0.445,-0.2129 -0.1401,-0.056 -0.3607,-0.147 -0.6485,-0.1974 -0.2911,-0.051 -0.5229,-0.056 -0.6522,-0.061 -0.3409,-0.011 -0.7895,-0.01 -1.68,-0.01 -0.8804,-10e-5 -1.3304,6e-4 -1.6696,0.01 -0.013,-3e-4 -0.026,-3e-4 -0.039,0 -0.094,0.01 -0.3108,0.01 -0.5938,0.051 -0.01,-1e-4 -0.011,-1e-4 -0.016,0 -0.3566,0.055 -0.6989,0.1452 -1.0227,0.3581 -0.1506,0.099 -0.2941,0.165 -0.432,0.2744 -0.4802,-0.3229 -0.958,-0.6845 -1.5467,-0.6873 l -1.8458,-0.01 c -0.8687,-0.01 -1.3247,-0.01 -1.6604,0 h -0.025 c -0.012,-3e-4 -0.025,-3e-4 -0.037,0 -0.1029,0.01 -0.2872,0.01 -0.5369,0.037 -0.01,-1e-4 -0.012,-1e-4 -0.018,0 -0.2525,0.035 -0.4195,0.1169 -0.5995,0.1896 -0.5527,-0.1494 -1.1232,-0.2201 -1.1952,-0.2227 -0.7085,-0.025 -1.8495,-0.02 -4.3967,-0.02 -2.5461,0 -3.682,-0.011 -4.4002,0.02 -0.075,0 -0.742,-0.033 -1.4862,0.277 -0.359,0.1495 -0.5724,0.4283 -0.8263,0.6738 -0.798,-0.4345 -1.6302,-0.8353 -2.5937,-0.988 -0.8027,-0.1271 -1.3812,-0.1625 -2.635,-0.1602 h -0.01 c -1.2561,0 -2.3123,0.047 -3.4494,0.1483 -0.7089,0.064 -1.6493,0.1484 -2.6014,0.7405 -0.3523,0.2191 -0.496,0.5354 -0.7265,0.8201 -0.036,-0.029 -0.051,-0.055 -0.09,-0.084 -1.5175,-1.1364 -3.3959,-1.6342 -5.3381,-1.6381 z m 43.3038,18.772 c 0,0 0.01,-0.01 0.02,-0.015 -0.01,0.01 -0.013,0.01 -0.02,0.015 z m -0.1705,0.098 c -0.01,0 -0.01,0 -0.015,0.01 0,0 0.01,0 0.015,-0.01 z m -43.1333,-18.1312 h 5e-4 0.01 c 1.8172,0 3.5284,0.468 4.8943,1.4909 0.2135,0.1598 0.3889,0.3471 0.571,0.5297 0.2349,-0.4674 0.5648,-0.9104 1.0811,-1.2315 0.7973,-0.4958 1.5698,-0.5674 2.2774,-0.6314 1.1175,-0.1 2.1448,-0.1468 3.3822,-0.1468 h 0.01 c 1.243,0 1.7459,0.028 2.5193,0.1509 1.0416,0.165 1.979,0.556 2.8272,1.0805 0.2534,-0.3681 0.5368,-0.624 0.9927,-0.8139 0.6067,-0.2523 1.0218,-0.2101 1.2371,-0.2201 0.675,-0.029 1.8206,-0.019 4.3687,-0.019 2.5482,0 3.6947,-3e-4 4.3698,0.019 0.4379,-0.017 0.8663,0.069 1.2619,0.2403 0.1962,-0.1122 0.397,-0.2178 0.6393,-0.2258 0.2422,-0.01 0.3935,-0.01 0.525,-0.02 h 5e-4 0.01 c 0.3139,-0.01 0.7737,-0.01 1.6527,0 l 1.852,0.01 c 0.6197,0 1.21,0.2642 1.6284,0.7214 l 0.092,0.1003 c 0.4133,-0.4791 0.7644,-0.6307 1.4118,-0.7839 0.2312,-0.034 0.4016,-0.034 0.5396,-0.044 h 0.01 c 0.3175,-0.01 0.7656,-0.01 1.6459,-0.01 0.8905,0 1.338,0 1.6572,0.01 0.1408,0 0.3168,0.01 0.5524,0.049 0.2121,0.037 0.3571,0.097 0.5008,0.1551 0.1377,0.055 0.2026,0.076 0.354,0.1669 0.2719,0.1567 0.4531,0.3457 0.6263,0.5519 0.1744,0.2078 0.322,0.4003 0.4263,0.6945 0.2153,0.6082 0.1699,0.9589 0.1799,1.2862 0.027,0.8394 0.017,2.4114 0.017,5.8932 0,2.9064 0,4.4761 -0.01,5.3516 0,0.4367 -0.01,0.6971 -0.016,0.9059 -3e-4,0.01 0.031,0.5068 -0.2393,1.0759 -0.2031,0.4286 -0.4919,0.7936 -0.9788,1.0909 l -5e-4,5e-4 c 0,7e-4 -4e-4,0 -10e-4,0 0,0 0,0.01 -0.01,0.01 0,0 -0.015,0.01 -0.026,0.015 -0.3151,0.1846 -0.5124,0.253 -0.8801,0.308 -0.209,0.029 -0.3678,0.029 -0.5116,0.039 -0.3189,0.01 -0.7709,0.01 -1.6428,0.01 -0.8825,0 -1.3319,1e-4 -1.6515,-0.01 -0.1419,0 -0.3123,-0.01 -0.5375,-0.044 -0.3325,-0.054 -0.5013,-0.1415 -0.7317,-0.2692 -0.055,0.346 -0.1386,0.6235 -0.1706,0.6935 -0.086,0.1923 -0.173,0.3537 -0.2976,0.5829 -0.2544,0.468 -0.6906,1.2395 -1.4981,2.6665 -0.4564,0.8065 -0.8621,1.5232 -1.1793,2.0831 0.2698,0.4874 0.5944,1.0713 1.1441,2.0448 0.9428,1.6696 1.3977,2.4651 1.6702,3.0035 0.09,0.1786 0.3008,0.5128 0.3788,1.096 0.045,0.3379 0.032,0.6919 -0.099,1.0677 -0.04,0.1152 -0.091,0.2324 -0.1555,0.3519 -0.263,0.4878 -0.5433,0.6828 -0.9204,0.8971 -0.2009,0.1152 -0.3478,0.2427 -0.7312,0.3157 h -0.01 c -0.2788,0.044 -0.4662,0.044 -0.6124,0.054 h -0.01 c -0.3532,0.01 -0.8954,0.01 -2.0025,0.01 -1.2037,0 -1.7582,0.01 -2.2288,-0.022 -0.1934,-0.012 -0.5668,-0.032 -0.9963,-0.2103 -0.4127,-0.1708 -0.5742,-0.3602 -0.6682,-0.4532 l -0.019,0.019 -0.01,0.01 c -0.4135,0.4134 -0.9758,0.6506 -1.5658,0.6506 l -1.8449,0.01 c -0.8772,0.01 -1.3361,0.01 -1.6562,0 -0.1485,0 -0.3057,-0.01 -0.509,-0.035 -0.3202,-0.045 -0.5255,-0.1171 -0.7969,-0.2584 -0.1148,0.065 -0.1531,0.1318 -0.3131,0.1768 h -0.01 c -0.3386,0.096 -0.5527,0.112 -0.7669,0.14 -0.2487,0.032 -0.5307,0.063 -0.8232,0.088 -0.7589,0.066 -1.9099,0.1126 -2.8323,0.026 -0.7262,-0.067 -1.3954,-0.1877 -2.0304,-0.4088 -1.2092,-0.4209 -2.1902,-1.2418 -2.8603,-2.282 -1.0939,1.3449 -2.6341,2.2934 -4.4462,2.5962 -0.889,0.148 -1.8637,0.1739 -2.7601,0.075 -1.2924,-0.1433 -2.5073,-0.535 -3.5481,-1.2341 -1.4635,-0.983 -2.3946,-2.5056 -2.8582,-4.2597 -0.7048,0.4747 -1.4655,0.8679 -2.3156,1.0858 -0.5485,0.1399 -1.0673,0.1409 -1.5896,0.1669 v 1.6877 c 10e-5,0.5555 -0.2081,1.0911 -0.5834,1.5007 l -0.094,0.1034 -0.095,0.1038 c -0.4179,0.4557 -1.0088,0.7209 -1.6319,0.7209 l -1.8495,0.01 c -0.8971,0.01 -1.3531,0.01 -1.6733,0 -0.1429,0 -0.3148,-0.01 -0.5441,-0.044 -0.2083,-0.034 -0.3507,-0.09 -0.4977,-0.1467 -0.1471,-0.057 -0.2247,-0.078 -0.3938,-0.1819 -0.076,-0.047 -0.548,-0.2633 -0.9188,-0.9633 -0.01,-0.02 -0.019,-0.041 -0.03,-0.062 -0.02,-0.047 -0.035,-0.083 -0.067,-0.1654 -0.032,-0.082 -0.05,-0.086 -0.099,-0.2821 -0.02,-0.081 -0.027,-0.151 -0.037,-0.183 v -0.01 c -0.01,-0.051 -0.022,-0.095 -0.022,-0.2144 0,-0.033 -0.01,-0.081 -0.01,-0.092 v 0.014 c 0,-0.01 -0.01,-0.06 -0.01,-0.154 0,-0.095 -0.01,-0.2266 -0.01,-0.3927 0,-0.3372 -4e-4,-0.798 -0.01,-1.3488 v -0.01 c 0,-1.106 -0.01,-2.574 -0.01,-4.0494 0,-1.4744 0,-2.955 0.01,-4.0901 0,-0.5676 4e-4,-1.0474 0.01,-1.4025 0,-0.1671 -4e-4,-0.2624 0.01,-0.4119 0.01,-0.137 -0.066,-0.1629 -0.1865,-0.3183 -0.1656,-0.2133 -0.2775,-0.1266 -0.4853,-0.092 -0.2311,0.035 -0.4038,0.035 -0.5426,0.045 h -0.01 c -0.3145,0.01 -0.7606,0.01 -1.6366,0.01 -0.8538,0 -1.3023,-6e-4 -1.62,-0.01 -0.1484,0 -0.303,-0.01 -0.5003,-0.035 -0.3233,-0.045 -0.5463,-0.1142 -0.8397,-0.2718 -0.4647,-0.2492 -0.7975,-0.5854 -1.0439,-1.0444 -0.2324,-0.4326 -0.2811,-0.8229 -0.2971,-1.1028 -0.01,-0.2113 -0.01,-0.4343 -0.019,-0.8232 -0.01,-0.7869 -0.01,-2.2262 -0.01,-4.994 0,-1.9862 0,-3.4469 0.01,-4.4359 0,-0.4932 4e-4,-0.867 0.01,-1.1405 0,-0.1224 -10e-5,-0.2277 0.01,-0.3395 0,-0.017 -0.01,-0.1306 0.027,-0.3752 0.082,-0.5886 0.3077,-1.2887 0.8439,-1.8619 0.5445,-0.5821 1.2566,-0.8571 1.8882,-0.9921 0.5923,-0.1267 1.226,-0.1848 2.1353,-0.2558 1.0006,-0.078 1.85,-0.096 2.6179,-0.1153 0.6332,-0.016 1.5053,0.045 2.1885,0.1292 1.4143,0.1991 2.7401,0.6641 3.7879,1.588 0.3987,0.3515 0.7116,0.7566 0.9669,1.1875 0.4428,-0.6233 0.9515,-1.1975 1.6076,-1.6376 1.2526,-0.8404 2.7461,-1.2279 4.3424,-1.2759 0,-10e-5 0.01,1e-4 0.01,0 0.01,-10e-5 0.012,-10e-5 0.022,0 h 0.01 c 0.1289,-0.01 0.2466,-0.01 0.3256,-0.01 z m -0.012,0.7395 c -0.076,0 -0.2106,0.01 -0.3565,0.015 -1.4825,0.048 -2.8217,0.4045 -3.9311,1.1487 -0.9591,0.6435 -1.6038,1.5916 -2.0851,2.6624 -0.2985,-0.8717 -0.7157,-1.6805 -1.3927,-2.2774 -0.9077,-0.8003 -2.0797,-1.2237 -3.4003,-1.4097 -0.6411,-0.09 -1.3156,-0.1371 -2.0676,-0.1302 h -5e-4 c -0.752,0.01 -1.588,0.044 -2.5807,0.1219 -0.9033,0.07 -1.5087,0.1289 -2.0392,0.2424 -0.5305,0.1134 -1.109,0.3537 -1.5017,0.7736 -0.3908,0.4176 -0.5846,0.986 -0.6501,1.4567 -0.031,0.2182 -0.019,0.2114 -0.022,0.2972 0,0.087 3e-4,0.1926 -0.01,0.3261 0,0.267 -0.01,0.6414 -0.01,1.1348 0,0.9867 -0.01,2.4462 -0.01,4.4317 0,2.7678 6e-4,4.2078 0.01,4.9863 0,0.3893 0.01,0.6071 0.017,0.7907 0.011,0.1806 0.069,0.5368 0.2129,0.8009 0.2289,0.4237 0.2987,0.5033 0.7442,0.7406 0.1315,0.07 0.4239,0.1632 0.5839,0.1855 0.1599,0.022 0.2693,0.025 0.4181,0.029 0.2976,0.01 0.7473,0.01 1.6014,0.01 0.8739,0 1.3216,-3e-4 1.6175,-0.01 0.1481,0 0.2553,-0.01 0.4413,-0.037 0.186,-0.031 0.5397,-0.1784 0.6346,-0.2382 l -0.019,0.012 c -0.1319,0.08 -0.168,0.1058 0.051,-0.025 0.2194,-0.131 0.5476,-0.5056 0.6537,-0.7633 0.116,-0.2817 0.079,-0.3878 0.088,-0.5374 5e-4,0.01 0,0.013 0,0.02 0,0.041 0.01,0.083 0.022,0.1582 0.013,0.075 -0.028,0.1342 0.1721,0.4898 0,0 0.01,0.01 0.01,0.012 v 6e-4 c 0.2027,0.3548 0.3134,0.3705 0.4475,0.4516 -0.033,0.044 -0.093,0.057 -0.1214,0.1028 -0.244,0.3884 -0.3289,0.773 -0.3731,1.0904 -0.046,0.3365 -0.019,0.2402 -0.021,0.3514 0,0.1112 3e-4,0.2535 -0.01,0.4294 0,0.3517 -0.01,0.8322 -0.01,1.3989 -0.01,1.1333 -0.01,2.6137 -0.01,4.0876 -1e-4,1.4739 3e-4,2.9388 0.01,4.0447 0,0.553 0.01,1.0159 0.01,1.3478 0,0.1659 -3e-4,0.2982 0.01,0.4005 0,0.051 5e-4,0.093 0.01,0.1405 0,0.024 -2e-4,0.047 0.01,0.093 0,0.023 10e-5,0.048 0.014,0.1049 0,0.028 0.01,0.065 0.025,0.1256 0.015,0.06 0.1259,0.3265 0.1313,0.3395 0.3373,0.6311 0.3937,0.5157 0.6423,0.6698 0.01,1e-4 0.018,1e-4 0.027,0 l -0.014,0.01 c 0.082,0.049 0.4326,0.1949 0.6171,0.2248 0.1845,0.03 0.2915,0.032 0.4413,0.035 0.2997,0.01 0.7555,0.01 1.6541,0 l 1.8516,-0.01 c 0.4126,0 0.8055,-0.1764 1.0842,-0.4806 l 0.096,-0.1029 0.094,-0.1038 c 0.2511,-0.2733 0.3906,-0.6309 0.3907,-1.002 v -1.8852 -0.4666 c 0.7393,-0.028 1.4616,-0.043 2.1461,-0.2186 1.1603,-0.2974 2.1841,-0.8436 2.9843,-1.6428 v 0.1235 c 0.2964,2.0432 1.2306,3.7601 2.7854,4.8044 0.926,0.622 2.0204,0.9789 3.2169,1.1115 0.8204,0.091 1.739,0.066 2.5543,-0.07 2.1538,-0.3598 3.8618,-1.6994 4.7817,-3.5739 0.4945,1.4893 1.4106,2.7763 2.8887,3.2908 0.5616,0.1955 1.1686,0.3072 1.8551,0.371 0.4191,0.039 0.7972,0.025 1.3245,0.02 0.5272,-0.01 1.0178,-0.014 1.3767,-0.043 0.2821,-0.024 0.556,-0.055 0.7932,-0.086 0.2372,-0.031 0.3711,-0.038 0.6599,-0.1189 h 0.01 c 0.225,-0.064 0.4082,-0.2176 0.6009,-0.3576 0.08,0.055 0.091,0.1502 0.2217,0.2207 0.1217,0.065 0.4252,0.167 0.5892,0.1896 0.1641,0.023 0.2738,0.024 0.4237,0.027 0.2999,0.01 0.7563,0 1.633,0 l 1.8495,-0.01 c 0.3899,0 0.7633,-0.1576 1.0392,-0.4331 l 0.091,-0.092 0.01,-0.01 0.09,-0.09 c 0.1393,-0.1904 0.2311,-0.4113 0.2677,-0.6444 0.014,0.026 0.036,0.072 0.049,0.096 0.04,0.077 0.074,0.1401 0.1075,0.1995 0.017,0.03 0.032,0.057 0.057,0.098 0.025,0.041 -0.076,-10e-5 0.2537,0.3183 0,0 0.2475,0.2535 0.5783,0.3907 0.3308,0.1372 0.5473,0.1434 0.7591,0.1565 0.4234,0.026 0.9779,0.022 2.1844,0.022 1.1072,0 1.65,3e-4 1.9838,-0.01 0.167,0 0.265,5e-4 0.4987,-0.043 0.2328,-0.044 0.8146,-0.4181 0.8392,-0.4413 v 5e-4 h 6e-4 v -5e-4 c 0.01,0 0.1432,-0.1098 0.2945,-0.3907 0.1623,-0.3013 0.2068,-0.7271 0.1742,-0.971 -0.065,-0.4876 -0.1777,-0.608 -0.3049,-0.8593 -0.2544,-0.5027 -0.7109,-1.3047 -1.6542,-2.9751 -0.6461,-1.1444 -1.0805,-1.9177 -1.3498,-2.4076 0.05,-0.089 0.08,-0.1436 0.139,-0.2465 0.3226,-0.5695 0.763,-1.3485 1.2454,-2.2009 0.8075,-1.4269 1.2453,-2.2009 1.493,-2.6566 0.1238,-0.2278 0.199,-0.3684 0.2713,-0.5308 0.072,-0.1624 0.2373,-0.487 0.1385,-1.0102 0,0.01 0,0.018 0.01,0.021 v 5e-4 h 5e-4 v -5e-4 c 7e-4,-0.01 -0.01,-0.057 -0.038,-0.1757 -0.032,-0.1271 -0.1972,-0.3478 -0.34,-0.5488 0.1773,-0.219 0.2884,-0.4839 0.3204,-0.7638 l 0.016,-2.3358 v -0.8708 h 0.041 0.018 v 0.8227 c 0,1.0858 0.01,1.6563 0.016,2.0051 0,0.1744 0.01,0.2878 0.025,0.4475 0.019,0.1598 0.1198,0.5218 0.2496,0.7245 0.2549,0.3965 0.3094,0.4069 0.6118,0.5917 0.093,0.057 0.4383,0.1997 0.6201,0.2294 0.1818,0.03 0.2915,0.031 0.4403,0.035 0.2976,0.01 0.7481,0.01 1.6309,0.01 0.8733,0 1.328,-1e-4 1.6247,-0.01 0.1483,0 0.2546,-0.01 0.4124,-0.031 0.1578,-0.023 0.456,-0.1237 0.5566,-0.1757 0.033,-0.017 0.066,-0.035 0.098,-0.055 0.4424,-0.273 0.4898,-0.3528 0.691,-0.7757 0.2243,-0.472 0.1603,-0.6021 0.1684,-0.7911 0.01,-0.1899 0.012,-0.4437 0.016,-0.8785 0.01,-0.8696 0.01,-2.4417 0.01,-5.348 0,-3.4826 0.01,-5.0619 -0.016,-5.871 -0.011,-0.4045 0.047,-0.5344 -0.1385,-1.0588 -0.092,-0.2586 -0.4576,-0.7051 -0.7307,-0.8589 -0.068,-0.041 -0.4156,-0.1937 -0.6057,-0.2269 -0.19,-0.033 -0.3003,-0.035 -0.4491,-0.039 -0.2976,-0.01 -0.7447,-0.01 -1.6365,-0.01 -0.01,0 -0.018,0.01 -0.027,0.012 -0.8495,-10e-5 -1.3054,9e-4 -1.5974,0.01 -0.1487,0 -0.2581,-5e-4 -0.4439,0.035 -0.1834,0.03 -0.5272,0.1762 -0.6289,0.2387 0,0 0,0 0.01,0 l 5e-4,-5e-4 v -6e-4 -5e-4 h -5e-4 -5e-4 c -2e-4,0 0,0 0,0 -0.03,0 -0.3084,0.1407 -0.5618,0.5152 -0.2953,0.4374 -0.2868,0.735 -0.3049,0.9592 -0.036,0.4484 -0.027,0.9768 -0.031,2.2127 v 0.7493 h -0.035 -0.029 v -0.7627 -2.2464 c -10e-5,-0.3712 -0.1395,-0.7288 -0.3907,-1.002 l -0.093,-0.1038 -0.096,-0.1034 c -0.2791,-0.3034 -0.672,-0.4763 -1.0842,-0.478 l -1.8516,-0.01 c -0.8774,-0.01 -1.3344,-0.01 -1.6386,0 -0.1521,0 -0.264,-4e-4 -0.4413,0.029 -0.1654,0.025 -0.4514,0.1336 -0.5959,0.2109 -0.1041,0.057 -0.1112,0.135 -0.1793,0.1798 -0.1078,-0.083 -0.1845,-0.2007 -0.2796,-0.2403 -0.5143,-0.2144 -0.6588,-0.1522 -0.9782,-0.1638 -0.6389,-0.023 -1.7928,-0.019 -4.3418,-0.019 -2.5466,-1e-4 -3.7013,-0.01 -4.3398,0.017 -0.3194,0.012 -0.4643,-0.05 -0.9788,0.1638 -0.2573,0.1073 -0.6245,0.4328 -0.7539,0.648 -0.1295,0.2153 -0.1044,0.183 -0.027,0.055 -0.053,0.088 -0.1766,0.3768 -0.215,0.5607 -0.8733,-0.7586 -1.9493,-1.2846 -3.2251,-1.4867 -0.749,-0.1186 -1.1685,-0.145 -2.4056,-0.1426 -1.2178,1e-4 -2.2166,0.047 -3.3124,0.1447 -0.7071,0.064 -1.3002,0.1166 -1.9513,0.5214 -0.6511,0.4049 -1.032,1.2409 -1.1131,1.8242 -0.031,0.2191 -0.019,0.211 -0.021,0.2971 -4e-4,0.012 4e-4,0.034 0,0.047 -0.378,-0.5671 -0.8112,-1.0921 -1.3534,-1.4981 -1.205,-0.9025 -2.7382,-1.3281 -4.4158,-1.3379 -0.013,0 -0.026,-0.01 -0.039,-0.012 z m -13.2488,1.4883 c 0.6978,0 1.2969,0.043 1.865,0.1235 2.2712,0.3199 3.4538,1.3625 3.8494,3.3936 0.137,0.7199 0.1373,0.5946 0.1473,5.211 0.01,4.2495 0.01,4.3679 -0.043,4.4509 -0.1129,0.1877 -0.054,0.1778 -2.0588,0.1778 -1.7446,0 -1.8146,0 -1.8996,-0.054 -0.049,-0.03 -0.1046,-0.082 -0.1246,-0.1173 -0.029,-0.052 -0.038,-0.8609 -0.05,-4.2354 -0.013,-3.9431 -0.016,-4.1826 -0.065,-4.3791 -0.1749,-0.7073 -0.5168,-0.9734 -1.3069,-1.0164 -0.2827,-0.016 -1.2966,0.03 -1.4067,0.063 -0.038,0.014 -0.048,0.2635 -0.048,4.7398 0,5.2197 0.014,4.8306 -0.1747,4.9454 -0.086,0.054 -0.1527,0.054 -1.9048,0.054 -1.7059,0 -1.8214,0 -1.9104,-0.05 -0.052,-0.028 -0.1172,-0.093 -0.1452,-0.1452 -0.051,-0.09 -0.051,-0.3291 -0.051,-5.8647 0,-3.9688 0.01,-5.8377 0.03,-5.9852 0.042,-0.2988 0.1228,-0.498 0.2656,-0.6506 0.2806,-0.3 0.807,-0.4129 2.574,-0.5509 0.9636,-0.076 1.7605,-0.1095 2.4583,-0.1095 z m 13.238,5e-4 -5e-4,0.01 c 2.8989,0.01 4.8177,1.4391 5.3924,4.0416 0.1609,0.7321 0.2113,1.3661 0.2113,2.7166 0,1.3504 -0.05,1.9841 -0.2113,2.7161 -0.4853,2.1984 -1.9347,3.5758 -4.1532,3.9466 -0.6255,0.105 -1.515,0.1289 -2.1482,0.059 -1.0111,-0.1121 -1.8521,-0.3983 -2.5539,-0.8697 -1.2016,-0.8071 -1.8887,-2.0204 -2.1451,-3.7869 -0.105,-0.7304 -0.1208,-3.0474 -0.026,-3.8938 0.2105,-1.8708 0.9183,-3.182 2.1719,-4.023 0.8519,-0.5715 1.8839,-0.8643 3.1787,-0.9023 0.096,-0.01 0.1907,-0.01 0.2837,-0.01 z m 12.2152,0.01 c 1.2263,0 1.454,0.011 2.1725,0.1246 2.6866,0.4255 3.882,1.8934 3.792,4.6545 -0.019,0.58 -0.07,0.9024 -0.2129,1.3342 -0.191,0.5777 -0.4461,0.9957 -0.8593,1.4103 -0.2479,0.2486 -0.6041,0.5149 -0.8382,0.6258 -0.056,0.027 -0.1025,0.059 -0.1039,0.072 v 6e-4 c 0,0.013 0.5504,1.0615 1.2232,2.33 1.3642,2.5721 1.3319,2.4977 1.1658,2.6836 l -0.084,0.094 -1.9632,0.01 c -1.2872,0.01 -1.9964,0 -2.0614,-0.02 -0.054,-0.015 -0.1305,-0.063 -0.1695,-0.1054 -0.039,-0.042 -0.5628,-1.0462 -1.1632,-2.2314 l -1.0914,-2.1549 h -0.2843 -0.2837 v 2.1487 2.1482 l -0.095,0.1034 -0.095,0.1038 -1.8526,0.01 c -1.7546,0.01 -1.8567,0.01 -1.9467,-0.044 -0.053,-0.028 -0.1177,-0.093 -0.1457,-0.1452 -0.051,-0.091 -0.051,-0.3306 -0.051,-5.9066 0,-3.9983 0.01,-5.8789 0.03,-6.0265 0.1026,-0.7377 0.4634,-0.9624 1.7301,-1.0764 1.0608,-0.095 2.0039,-0.1385 3.1879,-0.1385 z m 27.5736,0.1711 c 1.7825,0 1.8286,0 1.9166,0.056 0.1944,0.1205 0.1794,-0.4403 0.1794,6.5272 0,5.8121 0,6.291 -0.046,6.381 -0.025,0.054 -0.085,0.1204 -0.1318,0.1494 -0.081,0.042 -0.1736,0.052 -1.9146,0.052 -1.7645,0 -1.8327,0 -1.9177,-0.054 -0.049,-0.03 -0.1115,-0.088 -0.1385,-0.1302 -0.046,-0.072 -0.047,-0.2139 -0.057,-2.3854 l -0.01,-2.3084 -1.5028,0.01 -1.5032,0.01 -0.014,2.3347 -0.014,2.3347 -0.091,0.091 -0.09,0.091 -1.85,0.01 c -1.7519,0.01 -1.8541,0 -1.9441,-0.044 -0.053,-0.028 -0.1177,-0.093 -0.1457,-0.1452 -0.051,-0.091 -0.051,-0.3457 -0.051,-6.3872 0,-6.0413 0,-6.2957 0.051,-6.3867 0.028,-0.052 0.094,-0.1177 0.1457,-0.1457 0.09,-0.054 0.1922,-0.054 1.9467,-0.044 l 1.8526,0.01 0.095,0.1033 0.095,0.1039 v 2.2454 2.2453 h 1.51 1.5095 l 0.01,-2.2257 c 0.01,-2.4771 -0.01,-2.3091 0.1959,-2.4319 0.085,-0.054 0.1539,-0.054 1.9151,-0.054 z m -15.6285,0.011 c 5.1008,0 4.7232,-0.014 4.8379,0.1747 0.044,0.085 0.054,0.1494 0.054,1.5301 0,1.3613 0,1.4456 -0.052,1.5266 -0.1079,0.1779 -0.115,0.1777 -1.4831,0.1777 h -1.2361 v 4.7264 c 0,5.2026 0.012,4.862 -0.1715,4.9738 -0.09,0.056 -0.1347,0.056 -1.9208,0.056 -1.7409,0 -1.8337,0 -1.9147,-0.052 -0.192,-0.1168 -0.1782,0.2682 -0.1782,-4.9759 v -4.7284 h -1.2816 c -1.2225,0 -1.286,0 -1.371,-0.054 -0.1845,-0.1089 -0.1747,-0.072 -0.1747,-1.6562 10e-4,-1.3751 0,-1.4395 0.055,-1.5245 0.1148,-0.1885 -0.2633,-0.1741 4.8375,-0.1741 z m -12.7078,3.2985 -5e-4,1.1245 v 1.125 l 0.8526,-0.01 c 0.7989,-0.01 0.8633,-0.014 1.0284,-0.073 0.2971,-0.1054 0.4611,-0.236 0.5814,-0.462 0.064,-0.1339 0.074,-0.1539 0.074,-0.5958 0,-0.423 -0.01,-0.4684 -0.066,-0.6041 -0.1212,-0.2682 -0.367,-0.4159 -0.7901,-0.4749 -0.118,-0.016 -0.5443,-0.03 -0.9472,-0.03 z m -11.5063,0.2005 v 0 c -0.3575,0 -0.7146,0.1279 -0.911,0.3302 -0.2248,0.2317 -0.3814,0.6569 -0.4424,1.2026 -0.037,0.3241 -0.037,2.7522 0,3.0763 0.054,0.4846 0.1907,0.8945 0.3798,1.1425 0.237,0.3106 0.8066,0.4635 1.3209,0.3545 0.2553,-0.054 0.4207,-0.1383 0.5746,-0.292 0.2214,-0.2211 0.3732,-0.6277 0.4382,-1.1771 0.039,-0.3292 0.039,-2.803 0,-3.1322 -0.1188,-0.9973 -0.4633,-1.4245 -1.2076,-1.4975 -0.051,-0.01 -0.1015,-0.01 -0.1525,-0.01 z m 29.0473,1.3297 v 0 c -3e-4,0.696 0,0.7776 0,1.7498 0,3.0207 10e-5,4.5933 0.01,5.4379 0,0.4223 0.01,0.6546 0.018,0.8439 0.01,0.1692 0.072,0.4796 0.1933,0.7436 -0.062,0.069 -0.2333,0.1976 -0.2305,0.1938 -0.1371,0.1825 -0.1006,0.1479 -0.1132,0.17 -0.014,0.024 -0.025,0.045 -0.039,0.07 -0.028,0.05 -0.061,0.1145 -0.1039,0.1933 -0.049,0.091 -0.1287,0.2415 -0.1974,0.3705 -0.019,-0.3367 -0.1514,-0.6565 -0.3767,-0.9074 l -0.09,-0.09 -0.01,-0.01 -0.09,-0.092 c -0.104,-0.059 -0.2147,-0.104 -0.3297,-0.136 0.091,-0.3134 0.1116,-0.5195 0.1209,-0.7891 0.023,-0.6555 0.017,-1.8475 0.017,-4.4477 v -3.2495 c 0.4664,0 0.8155,0.012 1.1446,-0.027 0.019,0 0.058,-0.024 0.078,-0.027 z m -9.3679,0.059 h 0.01 c 0.01,3e-4 0.017,0 0.023,0 0.2033,0.01 0.5419,0.01 0.969,0.01 v 3.2479 c 0,2.6208 -1e-4,3.811 0.02,4.4654 0.012,0.3272 -0.05,0.4722 0.1618,0.9859 0.106,0.2568 0.4305,0.6278 0.6485,0.7597 0.054,0.033 0.092,0.056 0.1183,0.071 -0.038,0.154 -0.099,0.3227 -0.1044,0.4206 -0.01,0.1876 -0.014,0.4216 -0.018,0.8439 -0.01,0.8445 -0.01,2.4165 -0.01,5.4374 v 1.7518 c -0.1174,-0.016 -0.217,-0.026 -0.324,-0.03 -0.2655,-0.011 -0.6432,-0.013 -1.3534,-0.02 -0.2205,0 -0.2254,-2e-4 -0.387,-0.01 -0.01,-0.6431 -0.012,-1.4904 -0.018,-3.4587 l -0.014,-4.6209 c -0.037,-0.1483 -0.096,-0.2901 -0.1762,-0.4202 0.1454,-0.041 0.2838,-0.1031 0.4103,-0.1855 l 0.084,-0.094 c -0.01,0.01 0.4035,-0.4337 0.4516,-0.9963 0.048,-0.5626 -0.103,-0.7922 -0.2052,-1.0274 -0.2043,-0.4703 -0.5255,-1.0543 -1.2071,-2.3394 -0.2501,-0.4715 -0.4492,-0.8472 -0.6429,-1.2149 0.03,-0.029 0.071,-0.044 0.1018,-0.074 0.5499,-0.5516 0.9696,-1.2439 1.217,-1.9921 0.154,-0.4657 0.2132,-0.969 0.2475,-1.51 z m -25.5162,7.0342 c 0.2656,0.4069 0.623,0.7283 0.9741,1.0578 -0.1432,-0.017 -0.2822,-0.06 -0.4217,-0.07 -0.1703,-0.013 -0.3682,-0.017 -0.5684,-0.022 0.01,-0.1476 0.013,-0.2861 0.016,-0.5369 6e-4,-0.067 -5e-4,-0.3482 0,-0.4289 z m 11.6871,0 c 2e-4,0.029 -2e-4,0.1489 0,0.1767 0,0.3919 0.01,0.6097 0.018,0.7938 5e-4,0.01 0.011,0.032 0.012,0.043 -0.3415,0.019 -0.6583,0.09 -0.9824,0.1447 0.3703,-0.3371 0.6681,-0.7406 0.9524,-1.1581 z m 23.4177,1.7596 h 5e-4 c 0,10e-5 0,0 0.01,0 2e-4,3e-4 8e-4,0 10e-4,0 l 5e-4,6e-4 c 6e-4,0 0,0 0,0 0,0.01 9e-4,0.01 0,0.016 z m -16.785,0.3994 c -0.1113,0.2242 -0.1844,0.5579 -0.1959,0.7209 -0.012,0.1709 -0.016,0.3507 -0.019,0.6656 -5e-4,0.038 3e-4,0.1983 0,0.2403 -0.2712,-0.4031 -0.6093,-0.7436 -0.9648,-1.0676 h 0.025 c 0.4124,0 0.8051,-0.1765 1.0837,-0.4806 z m -18.5405,0.2698 c 0.2601,0 0.4856,0.012 0.6584,0.025 0.4757,0.036 1.0859,0.1369 1.5105,0.2501 1.7601,0.4695 2.8798,1.5109 3.2685,3.0396 0.2308,0.9064 0.1961,2.1805 -0.082,3.0319 -0.1961,0.6 -0.4817,1.0627 -0.94,1.5224 -0.6077,0.6094 -1.3458,1.0115 -2.3125,1.2593 -0.8238,0.2112 -1.5005,0.2783 -2.5456,0.2543 l -0.7141,-0.017 v 1.8841 1.8847 l -0.095,0.1033 -0.095,0.1034 -1.8526,0.01 c -1.796,0.01 -1.8544,0.01 -1.9404,-0.047 -0.049,-0.03 -0.1018,-0.08 -0.1178,-0.1096 -0.042,-0.078 -0.041,-11.6661 0,-11.9656 0.1149,-0.8256 0.5233,-1.0148 2.4784,-1.1473 0.9075,-0.062 1.9984,-0.09 2.7786,-0.079 z m 12.529,0 5e-4,0.01 c 2.899,0.01 4.8182,1.4395 5.3929,4.0421 0.1609,0.7321 0.2109,1.3656 0.2109,2.7161 0,1.3504 -0.049,1.9845 -0.2109,2.7166 -0.4855,2.1983 -1.9352,3.5755 -4.1537,3.9461 -0.6256,0.105 -1.5146,0.1289 -2.1477,0.059 -1.0111,-0.112 -1.8526,-0.3983 -2.5544,-0.8697 -1.2016,-0.8071 -1.8887,-2.02 -2.145,-3.7864 -0.106,-0.7305 -0.1219,-3.0479 -0.027,-3.8943 0.2106,-1.8708 0.9183,-3.1816 2.1719,-4.0225 0.8519,-0.5715 1.8844,-0.8643 3.1792,-0.9023 0.096,-0.01 0.1902,-0.01 0.2832,-0.01 z m 15.1045,0.038 c 0.015,0.01 0.043,0.011 0.056,0.018 0,0.01 0,0.01 0,0.015 -0.014,-0.01 -0.032,-0.02 -0.052,-0.033 z m 10.9285,0.1463 c 2.3488,0 2.2248,-0.011 2.2598,0.1782 0.016,0.087 -0.1215,0.341 -1.7358,3.1936 -0.9646,1.7046 -1.7652,3.1174 -1.7792,3.1404 -0.019,0.031 0.4397,0.8645 1.7435,3.1735 1.8868,3.3414 1.8608,3.2904 1.7307,3.4204 -0.058,0.058 -0.062,0.058 -2.2758,0.058 -2.4152,0 -2.3292,0.01 -2.4965,-0.155 -0.042,-0.041 -0.6283,-1.2074 -1.4273,-2.8417 l -1.3555,-2.773 -0.014,2.7875 -0.014,2.7869 -0.09,0.091 -0.091,0.091 -1.8495,0.01 c -1.7519,0.01 -1.8541,0 -1.9441,-0.044 -0.053,-0.028 -0.1177,-0.093 -0.1457,-0.1452 -0.051,-0.091 -0.051,-0.3459 -0.051,-6.3872 0,-6.0415 0,-6.2962 0.051,-6.3872 0.028,-0.053 0.094,-0.1173 0.1457,-0.1453 0.09,-0.054 0.1922,-0.054 1.9441,-0.044 l 1.8495,0.01 0.091,0.091 0.09,0.091 0.014,2.8583 0.014,2.8582 1.494,-2.8515 c 0.8219,-1.5686 1.5187,-2.8833 1.5477,-2.9213 0.1082,-0.1476 0.035,-0.1374 2.2944,-0.1374 z m -17.6542,0.01 c 0.2574,0 0.5924,0.01 1.0304,0.01 l 1.8495,0.01 0.091,0.091 0.091,0.091 0.014,4.6214 c 0.013,4.5793 0.014,4.6226 0.07,4.7186 0.031,0.053 0.1054,0.1214 0.1664,0.1524 0.105,0.054 0.1806,0.056 1.6361,0.07 1.4175,0.013 1.531,0.018 1.603,0.065 0.1595,0.1031 0.1593,0.1102 0.1493,1.6665 l -0.01,1.4253 -0.082,0.086 c -0.05,0.052 -0.1377,0.101 -0.2217,0.125 -0.1564,0.044 -0.6587,0.11 -1.1788,0.154 -0.4617,0.039 -2.1081,0.057 -2.4391,0.026 -0.6056,-0.056 -1.0954,-0.1522 -1.5058,-0.2951 -1.4336,-0.499 -2.1908,-1.5405 -2.3451,-3.2246 -0.019,-0.2079 -0.029,-1.914 -0.029,-4.9062 0,-4.3902 0,-4.5919 0.051,-4.6819 0.028,-0.051 0.094,-0.1177 0.1457,-0.1457 0.067,-0.037 0.142,-0.047 0.9142,-0.047 z m -13.238,0.1411 v 5e-4 c -0.5297,0.4845 -1.0523,0.9746 -1.3911,1.6252 -0.2769,-0.5374 -0.4837,-1.1205 -0.9219,-1.541 0.7378,0.055 1.5258,0.057 2.2402,-0.062 0.026,0 0.047,-0.018 0.073,-0.023 z m -8.8268,3.1641 v 1.2088 1.2087 l 0.755,-0.014 c 0.6716,-0.012 0.7784,-0.02 0.9632,-0.074 0.2795,-0.082 0.4454,-0.1767 0.6057,-0.3462 0.1935,-0.2056 0.2515,-0.3949 0.2615,-0.7638 0,-0.4689 -0.1225,-0.748 -0.43,-0.956 -0.3009,-0.2037 -0.6548,-0.2636 -1.5518,-0.2636 z m 13.6322,0.2005 h -5e-4 c -0.3576,0 -0.7141,0.1278 -0.9105,0.3302 -0.2248,0.2317 -0.3814,0.6569 -0.4424,1.2026 -0.016,0.1373 -0.028,0.8294 -0.028,1.5384 0,0.7088 0.012,1.4007 0.028,1.5379 0.054,0.4846 0.1906,0.8944 0.3798,1.1425 0.2369,0.3105 0.8061,0.4636 1.3204,0.3545 0.5042,-0.1067 0.7784,-0.4016 0.9276,-0.9979 0.098,-0.3947 0.1152,-0.681 0.1152,-2.037 0,-0.7636 -0.013,-1.4217 -0.03,-1.5664 -0.1188,-0.9973 -0.4628,-1.4245 -1.2071,-1.4975 -0.051,-0.01 -0.102,-0.01 -0.153,-0.01 z m -20.6447,9.8847 v 0.027 c -9e-4,0 0,-0.01 0,-0.011 -9e-4,-0.01 0,-0.011 0,-0.016 z m 35.9482,0.2884 h 5e-4 5e-4 5e-4 5e-4 c 5e-4,0 0,0 0,0 2e-4,0 0,5e-4 0,5e-4 h 5e-4 5e-4 v 5e-4 h 5e-4 v 5e-4 l 5e-4,5e-4 v 6e-4 5e-4 c 2e-4,6e-4 5e-4,0 5e-4,0 0,0.01 9e-4,0.01 0,0.016 z m 6.6776,0.925 0.022,0.025 c 0,0 -3e-4,-0.01 -10e-4,-0.01 l -5e-4,-5e-4 v -5e-4 c -2e-4,-3e-4 0,-8e-4 0,0 0,0 0,0 -0.01,0 z" /><path
       id="path2663"
       style="fill:#ffffff;fill-opacity:1;stroke-width:0.104757"
       d="m -1967.7617,7233.7031 c -0.6978,0 -1.4945,0.034 -2.4581,0.1098 -1.767,0.138 -2.2934,0.2506 -2.574,0.5506 -0.1428,0.1526 -0.2241,0.3519 -0.2657,0.6507 -0.021,0.1475 -0.03,2.0162 -0.03,5.985 0,5.5356 0,5.7743 0.051,5.8648 0.028,0.052 0.093,0.1173 0.1452,0.1451 0.089,0.047 0.2045,0.051 1.9104,0.05 1.7521,0 1.8189,0 1.9045,-0.054 0.1883,-0.1148 0.1746,0.2745 0.1746,-4.9452 0,-4.4763 0.01,-4.7262 0.048,-4.7399 0.1101,-0.033 1.1239,-0.079 1.4066,-0.063 0.7901,0.043 1.1319,0.309 1.3068,1.0163 0.049,0.1965 0.052,0.4361 0.065,4.3792 0.012,3.3745 0.021,4.1836 0.05,4.2353 0.02,0.035 0.076,0.088 0.1247,0.1176 0.085,0.052 0.155,0.054 1.8996,0.054 2.0048,0 1.9461,0.01 2.059,-0.1777 0.051,-0.083 0.052,-0.2014 0.043,-4.4509 -0.01,-4.6164 -0.01,-4.4909 -0.147,-5.2108 -0.3956,-2.0311 -1.5783,-3.074 -3.8495,-3.3939 -0.5681,-0.08 -1.1671,-0.1211 -1.8649,-0.1232 z m 13.2369,0 c -0.093,0 -0.188,0 -0.2836,0.01 -1.2948,0.038 -2.3269,0.3309 -3.1788,0.9024 -1.2536,0.841 -1.9614,2.1518 -2.1719,4.0226 -0.095,0.8464 -0.079,3.1637 0.026,3.8941 0.2564,1.7665 0.9434,2.9794 2.145,3.7865 0.7018,0.4714 1.543,0.7579 2.5541,0.87 0.6332,0.07 1.5225,0.046 2.148,-0.059 2.2185,-0.3708 3.6682,-1.7481 4.1535,-3.9465 0.1617,-0.732 0.2109,-1.3658 0.2109,-2.7162 0,-1.3505 -0.05,-1.9842 -0.2109,-2.7163 -0.5747,-2.6025 -2.4938,-4.0364 -5.3927,-4.042 z m 12.2152,0.012 c -1.184,0 -2.1267,0.044 -3.1875,0.1387 -1.2667,0.114 -1.6276,0.3383 -1.7302,1.076 -0.021,0.1476 -0.03,2.0282 -0.03,6.0265 0,5.576 0,5.816 0.051,5.9066 0.028,0.052 0.093,0.1174 0.1456,0.1454 v 0 c 0.09,0.049 0.1925,0.051 1.9471,0.044 l 1.8523,-0.01 0.095,-0.1035 0.095,-0.1035 v -2.1485 -2.1485 h 0.284 0.2841 l 1.0917,2.1549 c 0.6004,1.1852 1.1236,2.1894 1.1629,2.2316 0.039,0.042 0.1156,0.09 0.1695,0.1054 0.065,0.019 0.7743,0.026 2.0615,0.02 l 1.9632,-0.01 0.084,-0.094 c 0.1661,-0.1859 0.1984,-0.1115 -1.1658,-2.6836 -0.6728,-1.2685 -1.2232,-2.317 -1.2232,-2.33 0,-0.013 0.047,-0.046 0.1039,-0.073 0.2341,-0.1109 0.5905,-0.3768 0.8384,-0.6254 0.4132,-0.4146 0.6681,-0.833 0.8591,-1.4107 0.1428,-0.4318 0.1943,-0.7541 0.2133,-1.3341 0.09,-2.7611 -1.1055,-4.229 -3.7921,-4.6545 -0.7185,-0.1138 -0.946,-0.1268 -2.1723,-0.1245 z m 27.5751,0.178 c -1.7612,0 -1.8293,0 -1.9147,0.054 -0.2013,0.1228 -0.1878,-0.045 -0.1962,2.4321 l -0.01,2.2256 h -1.5099 -1.5099 v -2.2455 -2.2454 l -0.095,-0.1036 -0.095,-0.1035 -1.8524,-0.01 c -1.7545,-0.01 -1.8572,-0.01 -1.9471,0.044 -0.052,0.028 -0.1176,0.094 -0.1455,0.1456 -0.049,0.091 -0.051,0.3456 -0.051,6.3869 0,6.0415 0,6.2964 0.051,6.3871 0.028,0.052 0.093,0.1174 0.1455,0.1455 v 0 c 0.09,0.048 0.1925,0.051 1.9444,0.044 l 1.8497,-0.01 0.09,-0.091 0.091,-0.091 0.014,-2.3347 0.014,-2.3346 1.5031,-0.01 1.5029,-0.01 0.01,2.3088 c 0.01,2.1715 0.011,2.3135 0.057,2.3853 0.027,0.042 0.09,0.1006 0.1386,0.1303 0.085,0.052 0.1534,0.054 1.9179,0.054 1.741,0 1.8334,-0.01 1.9147,-0.052 0.047,-0.029 0.1061,-0.096 0.1316,-0.1496 0.043,-0.09 0.046,-0.5689 0.046,-6.381 0,-6.9675 0.015,-6.4064 -0.1794,-6.5269 -0.088,-0.054 -0.1339,-0.056 -1.9164,-0.056 z m -15.6291,1e-4 c -5.1008,0 -4.7229,-0.014 -4.8377,0.1745 -0.052,0.085 -0.054,0.1494 -0.055,1.5245 0,1.5845 -0.01,1.5469 0.1745,1.6558 0.085,0.052 0.1482,0.054 1.3707,0.054 h 1.2819 v 4.7284 c 0,5.2441 -0.014,4.8588 0.178,4.9756 v 2e-4 c 0.081,0.049 0.1737,0.052 1.9146,0.052 1.7861,0 1.8315,0 1.9211,-0.056 0.1832,-0.1118 0.1715,0.2289 0.1715,-4.9737 v -4.7265 h 1.2362 c 1.3681,0 1.3753,0 1.4832,-0.1779 0.049,-0.081 0.052,-0.1654 0.052,-1.5267 0,-1.3807 -0.01,-1.445 -0.054,-1.53 -0.1147,-0.1882 0.263,-0.1746 -4.8378,-0.1746 z m -12.7083,3.2982 h 0.7326 c 0.4029,0 0.829,0.014 0.947,0.03 0.4231,0.059 0.6691,0.2066 0.7903,0.4748 0.061,0.1357 0.066,0.1811 0.066,0.6041 0,0.4419 -0.01,0.462 -0.074,0.5959 -0.1203,0.226 -0.2845,0.3564 -0.5816,0.4618 -0.1651,0.059 -0.2295,0.063 -1.0284,0.073 l -0.8524,0.01 v -1.125 z m -11.5067,0.2003 c 0.051,0 0.1021,0 0.1528,0.01 0.7443,0.073 1.0886,0.5003 1.2074,1.4976 0.039,0.3292 0.039,2.8029 0,3.1321 -0.065,0.5494 -0.2169,0.9563 -0.4383,1.1774 -0.1539,0.1537 -0.3192,0.2376 -0.5745,0.2917 -0.5143,0.109 -1.0838,-0.044 -1.3208,-0.3546 -0.1891,-0.248 -0.3254,-0.6577 -0.3797,-1.1423 -0.037,-0.3241 -0.037,-2.7524 0,-3.0765 0.061,-0.5457 0.2176,-0.9705 0.4424,-1.2022 0.1964,-0.2023 0.5532,-0.3286 0.9107,-0.3303 z m -6.0577,10.8549 c -0.7802,-0.011 -1.871,0.017 -2.7785,0.079 -1.9551,0.1325 -2.3637,0.3217 -2.4786,1.1473 -0.041,0.2995 -0.042,11.888 0,11.9658 0.016,0.03 0.069,0.079 0.1179,0.1093 v -1e-4 c 0.086,0.052 0.1445,0.054 1.9405,0.047 l 1.8522,-0.01 0.095,-0.1036 0.095,-0.1035 v -1.8843 -1.8843 l 0.7138,0.017 c 1.0451,0.024 1.7218,-0.043 2.5456,-0.2542 0.9667,-0.2478 1.705,-0.6497 2.3127,-1.2591 0.4583,-0.4597 0.7441,-0.9225 0.9402,-1.5225 0.2783,-0.8514 0.3128,-2.1254 0.082,-3.0318 -0.3887,-1.5287 -1.5085,-2.5701 -3.2686,-3.0396 -0.4246,-0.1132 -1.0349,-0.2142 -1.5106,-0.2501 -0.1728,-0.013 -0.3983,-0.021 -0.6584,-0.025 z m 12.5295,0 c -0.093,0 -0.1879,0 -0.2835,0.01 -1.2948,0.038 -2.3269,0.3309 -3.1788,0.9024 -1.2536,0.8409 -1.9614,2.1518 -2.172,4.0226 -0.095,0.8464 -0.079,3.1637 0.027,3.8942 0.2563,1.7664 0.9433,2.9793 2.1449,3.7864 0.7018,0.4714 1.5431,0.758 2.5542,0.87 0.6331,0.07 1.5224,0.046 2.148,-0.059 2.2185,-0.3706 3.668,-1.748 4.1535,-3.9463 0.1617,-0.7321 0.2109,-1.3659 0.2109,-2.7163 0,-1.3505 -0.05,-1.9842 -0.2109,-2.7163 -0.5747,-2.6026 -2.4938,-4.0363 -5.3928,-4.0419 z m 26.0329,0.1899 c -2.259,0 -2.1861,-0.01 -2.2943,0.1376 -0.029,0.038 -0.7257,1.3526 -1.5476,2.9212 l -1.4943,2.8518 -0.014,-2.8583 -0.014,-2.8582 -0.09,-0.091 -0.091,-0.091 -1.8496,-0.01 c -1.7519,-0.01 -1.8546,-0.01 -1.9444,0.044 -0.052,0.028 -0.1177,0.093 -0.1455,0.1455 -0.049,0.091 -0.051,0.3456 -0.051,6.3871 0,6.0413 0,6.2964 0.051,6.387 0.028,0.052 0.093,0.1174 0.1455,0.1455 0.09,0.048 0.1925,0.05 1.9444,0.044 l 1.8496,-0.01 0.091,-0.091 0.09,-0.091 0.014,-2.787 0.014,-2.7871 1.3554,2.7727 c 0.799,1.6343 1.3851,2.8009 1.4275,2.8415 0.1673,0.1604 0.081,0.155 2.4962,0.155 2.2143,0 2.2184,0 2.2763,-0.058 0.1301,-0.13 0.1558,-0.079 -1.731,-3.4204 -1.3038,-2.309 -1.7619,-3.143 -1.7434,-3.1736 0.014,-0.023 0.8144,-1.4361 1.779,-3.1407 1.6143,-2.8526 1.7524,-3.1066 1.736,-3.1935 -0.035,-0.1892 0.089,-0.1793 -2.2598,-0.1783 z m -17.6548,0.01 c -0.7722,0 -0.8468,0.01 -0.9142,0.047 -0.052,0.028 -0.1176,0.094 -0.1455,0.1455 -0.049,0.09 -0.051,0.2918 -0.051,4.682 10e-5,2.9922 0.01,4.6985 0.029,4.9064 0.1543,1.6841 0.9119,2.7256 2.3455,3.2246 0.4104,0.1429 0.8999,0.2387 1.5055,0.295 0.331,0.031 1.9774,0.013 2.4391,-0.026 0.5201,-0.044 1.0223,-0.1099 1.1787,-0.1537 0.084,-0.024 0.1722,-0.073 0.2218,-0.1252 l 0.082,-0.086 0.01,-1.4249 c 0.01,-1.5563 0.01,-1.5636 -0.1495,-1.6667 -0.072,-0.047 -0.1855,-0.052 -1.603,-0.065 -1.4555,-0.014 -1.5308,-0.016 -1.6358,-0.07 -0.061,-0.031 -0.1351,-0.099 -0.1663,-0.1525 -0.056,-0.096 -0.057,-0.139 -0.07,-4.7183 l -0.014,-4.6213 -0.091,-0.091 -0.091,-0.091 -1.8495,-0.01 c -0.438,0 -0.7729,-0.01 -1.0303,-0.01 z m -22.0643,3.2943 h 0.6035 c 0.897,0 1.2511,0.06 1.552,0.2637 0.3075,0.208 0.433,0.4869 0.4302,0.9558 -0.01,0.3689 -0.068,0.5584 -0.2615,0.764 -0.1603,0.1695 -0.3263,0.2642 -0.6058,0.3462 -0.1848,0.054 -0.2915,0.062 -0.9631,0.074 l -0.7553,0.014 v -1.2089 z m 13.6325,0.2003 c 0.051,0 0.1021,0 0.1528,0.01 0.7443,0.073 1.0886,0.5004 1.2074,1.4977 0.017,0.1447 0.029,0.8025 0.029,1.5661 0,1.356 -0.017,1.6424 -0.1149,2.0371 -0.1492,0.5963 -0.4234,0.8912 -0.9276,0.9979 -0.5143,0.1091 -1.0838,-0.044 -1.3207,-0.3545 -0.1892,-0.2481 -0.3255,-0.6577 -0.3798,-1.1423 -0.016,-0.1372 -0.028,-0.8294 -0.028,-1.5382 0,-0.709 0.012,-1.4011 0.028,-1.5384 0.061,-0.5457 0.2176,-0.9704 0.4424,-1.2021 0.1964,-0.2024 0.5531,-0.3286 0.9107,-0.3303 z" /></g></svg>
