<?xml version="1.0" encoding="UTF-8" standalone="no"?>
<svg
   width="485.21484"
   height="193.25195"
   viewBox="0 0 128.37976 51.131247"
   version="1.1"
   id="svg16"
   xml:space="preserve"
   xmlns="http://www.w3.org/2000/svg"
   xmlns:svg="http://www.w3.org/2000/svg"
   xmlns:rdf="http://www.w3.org/1999/02/22-rdf-syntax-ns#"
   xmlns:cc="http://creativecommons.org/ns#"
   xmlns:dc="http://purl.org/dc/elements/1.1/"><defs
     id="defs10" /><metadata
     id="metadata13"><rdf:RDF><cc:Work
         rdf:about=""><dc:format>image/svg+xml</dc:format><dc:type
           rdf:resource="http://purl.org/dc/dcmitype/StillImage" /></cc:Work></rdf:RDF></metadata><g
     id="layer1"
     transform="translate(2014.7076,-7096.7865)"><path
       style="fill:#030303;fill-opacity:1;stroke:none;stroke-width:0.0419823"
       d="m -1951.1867,7144.5636 c -0.012,0 -0.1347,-0.01 -0.2722,-0.016 -0.3529,-0.018 -0.4568,-0.029 -0.6775,-0.074 -0.871,-0.1758 -1.5147,-0.451 -2.1159,-0.9046 -0.9244,-0.6974 -1.622,-1.6682 -2.1484,-2.9898 -0.4233,-1.0625 -0.7414,-2.4193 -0.9387,-4.0025 -0.1317,-1.058 -0.2068,-1.918 -0.2394,-2.7438 -0.01,-0.165 -0.013,-0.3274 -0.014,-0.361 v -0.061 l -0.082,0.1331 c -0.4871,0.7925 -1.2686,1.3623 -2.2396,1.6327 -0.5303,0.1477 -1.302,0.2119 -2.0714,0.1724 -0.7523,-0.039 -1.2728,-0.1492 -1.8272,-0.3879 -0.3338,-0.1437 -0.6934,-0.3646 -0.9264,-0.569 -0.027,-0.024 -0.051,-0.041 -0.053,-0.039 0,0 -0.021,0.2383 -0.043,0.525 -0.1455,1.9268 -0.2578,2.9135 -0.3905,3.4318 -0.3431,1.3402 -1.3912,2.3209 -2.8727,2.688 -0.4687,0.1161 -0.8879,0.168 -1.4517,0.1798 -0.7122,0.015 -1.3008,-0.058 -1.816,-0.2252 -0.9077,-0.2945 -1.6375,-0.8778 -2.174,-1.7377 -0.6021,-0.965 -1.1205,-2.5139 -1.5578,-4.654 -0.028,-0.1375 -0.055,-0.2589 -0.059,-0.2698 -0.01,-0.013 -0.027,0.044 -0.068,0.1778 -0.3211,1.0619 -0.744,2.1868 -1.1558,3.0746 -0.5312,1.1452 -1.1774,2.1696 -1.7587,2.7883 -0.6403,0.6814 -1.5093,1.2922 -2.4032,1.689 -1.4232,0.6318 -2.9722,0.7656 -4.7522,0.4104 -2.6549,-0.5298 -4.5625,-1.7684 -6.0633,-3.9369 -0.1612,-0.233 -0.2861,-0.4314 -0.4375,-0.6953 -0.07,-0.1222 -0.1312,-0.2263 -0.1357,-0.2313 0,-0.01 -0.062,0.08 -0.1279,0.1889 -1.0436,1.7271 -2.1188,3.027 -3.2602,3.9413 -1.3817,1.1069 -2.933,1.6654 -4.5091,1.6235 -0.9381,-0.025 -2.0383,-0.2246 -2.9056,-0.5273 -1.1934,-0.4166 -2.1854,-1.0385 -3.0763,-1.9287 -0.6852,-0.6847 -1.2349,-1.4334 -1.8042,-2.4571 -1.3191,-2.3722 -2.4098,-5.9568 -3.0314,-9.9626 -0.4793,-3.0888 -0.7184,-6.483 -0.6451,-9.159 0.1365,-4.9885 1.0046,-9.3027 2.4498,-12.1748 1.2448,-2.4738 2.8203,-4.062 4.7836,-4.8221 0.8119,-0.3143 1.3994,-0.4104 2.5094,-0.4104 0.9009,0 1.494,0.058 2.2585,0.2227 0.7031,0.151 1.2714,0.3439 1.816,0.6163 0.5669,0.2835 1.0607,0.6281 1.5801,1.1027 0.1911,0.1745 0.5478,0.5367 0.7086,0.7193 0.9163,1.0409 1.3506,2.0659 1.5202,3.5879 0.064,0.5758 0.066,1.2421 0.01,1.9051 -0.1306,1.4371 -0.528,2.8209 -1.0255,3.5713 -0.1931,0.2912 -0.444,0.553 -0.7366,0.7684 -0.1023,0.075 -0.2548,0.1647 -0.4144,0.2429 -0.315,0.1544 -0.5705,0.2313 -0.9663,0.2907 -0.2021,0.03 -0.8821,0.027 -1.2773,-0.01 -0.6555,-0.055 -1.1346,-0.1274 -1.5661,-0.237 -0.1816,-0.046 -0.456,-0.1313 -0.5804,-0.1802 l -0.069,-0.027 -0.01,0.024 c -0.011,0.047 -0.072,0.4396 -0.122,0.7851 -0.1214,0.8376 -0.2372,1.8493 -0.3384,2.9548 -0.082,0.8951 -0.1113,1.8085 -0.1113,3.4548 0,1.6854 0.029,2.5586 0.1171,3.538 0.2389,2.6532 0.5535,4.8326 0.9822,6.8039 0.067,0.3092 0.2084,0.9191 0.248,1.0714 l 0.014,0.055 0.023,-0.038 c 0.4054,-0.6659 1.1778,-2.1173 1.7287,-3.2485 0.7388,-1.5172 1.223,-2.5972 2.0844,-4.6489 0.2064,-0.4919 0.4228,-1.0045 0.4807,-1.1393 l 0.1053,-0.2451 0.01,-0.427 c 0.025,-1.4633 0.035,-1.8725 0.062,-2.4987 0.1276,-2.9994 0.482,-5.7654 1.1172,-8.7202 0.4972,-2.3126 1.087,-4.2751 1.7643,-5.8708 0.2231,-0.5257 0.5611,-1.2228 0.7998,-1.6496 0.3643,-0.6515 0.7893,-1.2883 1.1453,-1.7163 0.151,-0.1814 0.5692,-0.6014 0.7379,-0.7408 0.8338,-0.6895 1.7671,-1.0856 2.8712,-1.2186 0.5575,-0.067 1.1826,-0.069 1.7494,-0.01 1.5867,0.1773 2.9679,0.7794 3.862,1.6835 0.5381,0.5441 0.8778,1.1634 1.0119,1.8446 l 0.03,0.1521 0.067,0.01 c 0.037,0 0.1891,0.011 0.3388,0.018 0.9465,0.042 1.5325,0.138 2.1825,0.3573 0.3548,0.1197 0.7006,0.2724 0.9374,0.4138 0.057,0.034 0.1062,0.06 0.1084,0.058 0,0 0.016,-0.1065 0.031,-0.2318 0.1395,-1.1638 0.3817,-1.8269 0.9387,-2.5696 0.1455,-0.194 0.319,-0.3897 0.5122,-0.5779 0.3936,-0.3833 0.7664,-0.6258 1.243,-0.8086 0.4832,-0.1852 1.2337,-0.3597 1.8326,-0.4261 0.2186,-0.024 0.8761,-0.027 1.1496,-0.01 0.9142,0.073 1.5986,0.3116 2.18,0.7586 0.1648,0.1268 0.4424,0.4073 0.5645,0.5705 0.2197,0.2936 0.3892,0.6265 0.4868,0.9563 0.083,0.2794 0.1131,0.4759 0.1308,0.8462 0.01,0.1543 0.016,0.2793 0.02,0.2777 0,0 0.1088,-0.054 0.2338,-0.1163 0.8252,-0.4113 1.6941,-0.6136 2.832,-0.6591 1.2079,-0.048 2.1751,0.1719 3.0285,0.6896 0.3402,0.2064 0.6522,0.4542 1.004,0.7972 0.1003,0.098 0.1857,0.1759 0.1898,0.1733 0,0 0.021,-0.028 0.038,-0.057 0.2434,-0.4213 0.6459,-0.972 0.998,-1.3658 0.3815,-0.4267 0.834,-0.8275 1.2561,-1.1129 1.0916,-0.7377 2.3355,-1.0597 3.982,-1.0309 0.7984,0.014 1.3624,0.1099 1.9728,0.3355 0.945,0.3492 1.7268,0.9312 2.3872,1.7772 0.13,0.1666 0.3703,0.5288 0.4938,0.7443 0.2663,0.465 0.5068,1.0188 0.6994,1.6107 0.365,1.1222 0.4919,1.8771 0.544,3.2381 0.022,0.5671 0.026,0.8014 0.033,1.7996 l 0.01,1.0164 0.037,-0.1555 c 0.2,-0.8295 0.5057,-1.8659 0.7847,-2.6605 1.1254,-3.2047 2.6401,-5.4451 4.5472,-6.7255 0.6291,-0.4224 1.5275,-0.8653 2.117,-1.0436 0.6969,-0.2108 1.3533,-0.2578 2.5767,-0.1844 0.6934,0.042 1.2351,0.1493 2.1326,0.4239 0.5276,0.1614 0.9916,0.3431 1.464,0.5734 l 0.2421,0.118 0.046,-0.055 c 0.1686,-0.2014 0.4001,-0.406 0.6358,-0.562 0.2245,-0.1485 0.7617,-0.41 1.0996,-0.5351 0.8876,-0.3287 2.0082,-0.5502 4.1097,-0.8125 2.0099,-0.2509 3.211,-0.3315 5.4036,-0.3628 1.4031,-0.02 2.6681,-0.01 3.4273,0.04 1.1132,0.067 2.208,0.2687 2.8603,0.5281 0.7855,0.3124 1.3817,0.8016 1.8147,1.489 0.048,0.076 0.088,0.1397 0.09,0.1419 0,0 0.052,-0.036 0.1123,-0.084 0.2695,-0.2181 0.7053,-0.5213 1.0253,-0.7134 0.5017,-0.3011 0.989,-0.4847 1.5162,-0.5712 0.3446,-0.057 0.56,-0.07 1.2551,-0.08 1.837,-0.026 3.0859,0.2051 4.2762,0.7898 0.6134,0.3014 1.0958,0.6471 1.544,1.1066 0.7711,0.7905 1.2589,1.7669 1.5649,3.1326 0.1152,0.5138 0.171,0.9397 0.209,1.5925 0.02,0.3404 0.02,2.3245 -10e-5,2.6771 -0.051,0.914 -0.1473,1.4769 -0.3656,2.144 -0.1948,0.5954 -0.3933,1.0201 -0.6348,1.3586 -0.031,0.044 -0.057,0.082 -0.057,0.085 0,0 0.03,0.01 0.066,0.01 0.1657,0 0.6644,0.049 0.9672,0.096 1.3568,0.2075 2.5623,0.7147 3.4765,1.4629 0.6307,0.5161 1.1365,1.18 1.61,2.1129 0.4051,0.7983 0.7621,1.7988 0.9671,2.7105 0.026,0.1161 0.049,0.2125 0.05,0.2144 0,0 0.1195,-0.02 0.2622,-0.048 1.234,-0.2428 2.2433,-0.3001 3.0252,-0.1717 0.8713,0.1431 1.625,0.5135 2.2253,1.0934 0.535,0.5169 0.9704,1.2258 1.1612,1.8906 0.2228,0.7761 0.1488,1.5871 -0.2061,2.2579 -0.3231,0.6111 -0.8381,1.08 -1.533,1.3961 -0.2754,0.1252 -0.4428,0.1866 -1.4086,0.5162 -1.3361,0.4561 -2.5028,0.9246 -3.2766,1.316 -0.2207,0.1117 -0.4756,0.2531 -0.4953,0.2749 -0.01,0.01 -0.028,0.091 -0.048,0.1855 -0.2612,1.2524 -0.5132,2.2825 -0.7745,3.1659 -0.7482,2.5303 -1.5833,4.6787 -2.4418,6.2819 -1.0262,1.9165 -1.9631,3.1147 -3.0713,3.9283 -0.5582,0.4097 -1.3408,0.8022 -2.0826,1.0442 -0.5602,0.1828 -1.0659,0.289 -1.6439,0.3452 -0.1903,0.019 -0.8236,0.018 -1.0052,0 -0.5507,-0.057 -1.1942,-0.1805 -1.7091,-0.3293 -1.587,-0.4586 -2.668,-1.0956 -3.3914,-1.9988 -0.3332,-0.416 -0.5224,-0.7765 -0.712,-1.3569 -0.2107,-0.6449 -0.3613,-1.3971 -0.4371,-2.1822 -0.029,-0.3048 -0.027,-0.8415 0.01,-1.1275 0.1073,-0.951 0.3065,-1.7906 0.6406,-2.6994 0.3818,-1.0388 1.0055,-2.2659 1.6966,-3.3381 0.2853,-0.4425 0.7182,-1.0469 0.9936,-1.3873 0.027,-0.033 0.046,-0.062 0.043,-0.065 0,0 -0.079,0.01 -0.1697,0.018 -0.3474,0.049 -0.5228,0.064 -0.9156,0.08 -0.8667,0.036 -1.7921,-0.072 -2.5831,-0.3007 -1.1025,-0.3189 -2.0573,-0.8787 -2.8534,-1.6729 -0.5863,-0.5847 -1.0516,-1.2495 -1.4617,-2.0884 -0.099,-0.2025 -0.1196,-0.2377 -0.1201,-0.2055 -8e-4,0.046 0.059,1.23 0.083,1.6552 0.1065,1.8663 0.2146,3.384 0.4656,6.5373 0.1877,2.3583 0.2384,3.1556 0.2739,4.3101 0.014,0.4703 0.01,1.6409 -0.012,1.994 -0.039,0.7158 -0.099,1.1524 -0.2115,1.5368 -0.3275,1.1197 -1.0938,1.893 -2.2215,2.2419 -0.8563,0.2648 -2.0837,0.365 -3.1045,0.2532 -0.6517,-0.071 -1.1864,-0.2527 -1.68,-0.5698 -0.5158,-0.3313 -0.9618,-0.8376 -1.2563,-1.426 -0.3298,-0.6589 -0.5318,-1.458 -0.7504,-2.9692 -0.3664,-2.5325 -0.9031,-8.4325 -1.1557,-12.7026 -0.122,-2.0631 -0.2132,-4.1625 -0.2503,-5.7597 -0.01,-0.2841 -0.015,-0.5686 -0.018,-0.6323 l -0.01,-0.1157 -0.053,0.1379 c -0.3932,1.0233 -0.8321,1.7319 -1.4332,2.3139 -0.4498,0.4354 -1.0269,0.833 -1.7906,1.2335 l -0.1636,0.086 0.1924,0.1908 c 0.2136,0.2119 0.2966,0.3111 0.4384,0.5242 0.3186,0.4784 0.4767,0.978 0.5257,1.6606 0.018,0.2543 0.018,1.8951 0,2.3328 -0.039,0.9336 -0.1124,1.6749 -0.2967,2.9993 -0.5034,3.6184 -1.1563,6.4542 -1.806,7.8452 -0.7162,1.5332 -1.9125,2.6941 -3.3446,3.2455 -0.49,0.1887 -0.9534,0.297 -1.524,0.3562 -1.1951,0.1241 -2.6618,-0.069 -3.7154,-0.4883 -0.9037,-0.36 -1.7359,-0.9698 -2.4213,-1.7744 l -0.1278,-0.15 -0.195,0.3845 c -0.2798,0.5515 -0.4746,0.8923 -0.7215,1.2621 -0.745,1.1155 -1.7312,1.9474 -2.871,2.4216 -0.6291,0.2617 -1.1367,0.3616 -2.0604,0.4052 -0.2095,0.01 -1.0898,0.014 -1.1496,0.01 z m -18.7923,-11.5545 c 0.01,-0.1148 0.05,-0.7511 0.093,-1.414 0.22,-3.3804 0.4011,-5.7533 0.5613,-7.3538 0.1295,-1.2938 0.356,-3.1494 0.5763,-4.721 0.021,-0.1497 0.037,-0.2735 0.035,-0.275 0,0 -0.057,0.01 -0.1241,0.024 -0.7547,0.1692 -1.5335,0.028 -2.1633,-0.3933 -0.084,-0.056 -0.1819,-0.1265 -0.2184,-0.1569 l -0.066,-0.055 v 0.503 c 8e-4,1.1632 0.036,2.2761 0.1222,3.819 0.2034,3.6437 0.5793,7.1017 1.0493,9.6532 0.097,0.5262 0.1093,0.5888 0.1145,0.5835 0,0 0.012,-0.099 0.02,-0.2137 z m 27.2324,-1.0585 c -0.3169,-1.6419 -0.6429,-3.8696 -0.7925,-5.4154 -0.038,-0.3932 -0.025,-0.4008 -0.1238,0.072 -0.2947,1.412 -0.6342,2.8323 -1.0551,4.4136 -0.055,0.2066 -0.1023,0.3815 -0.1051,0.3888 0,0.01 0.064,0.013 0.2755,0.014 0.2566,0 0.2957,0 0.4573,0.031 0.4799,0.084 0.9237,0.2818 1.2839,0.5714 0.046,0.037 0.084,0.066 0.085,0.065 9e-4,-9e-4 -0.01,-0.064 -0.025,-0.1406 z m 39.8816,-0.4722 c 0.3126,-0.9964 0.4963,-1.6883 0.7314,-2.7548 0.036,-0.165 0.07,-0.3174 0.074,-0.3388 0.01,-0.036 -0.01,-0.024 -0.1662,0.1359 -0.3186,0.3197 -0.6893,0.6482 -1.3947,1.2359 -0.3879,0.3231 -0.7331,0.6183 -0.733,0.6268 0,0 0.041,0.026 0.091,0.051 0.5276,0.2581 0.9726,0.7001 1.2502,1.2418 0.027,0.054 0.051,0.096 0.053,0.094 0,0 0.044,-0.1333 0.094,-0.2921 z m -81.4442,-1.6606 c 0.3389,-1.5777 0.5389,-3.3353 0.623,-5.475 0.09,-2.2819 0,-4.342 -0.2562,-6.0667 -0.063,-0.4222 -0.2013,-1.1664 -0.2161,-1.1664 0,0 -0.013,0.036 -0.02,0.081 -0.01,0.044 -0.04,0.253 -0.074,0.4638 -0.22,1.382 -0.3255,2.3565 -0.4055,3.7436 -0.073,1.2671 -0.094,2.1818 -0.086,3.6658 0.01,1.0341 0.012,1.3187 0.041,1.9773 0.038,0.8565 0.1008,1.6963 0.1725,2.305 0.043,0.3688 0.1058,0.7977 0.1243,0.8553 0.01,0.026 0.01,0.021 0.097,-0.3832 z m -5.5137,-0.4948 c -0.081,-0.7953 -0.1502,-2.1082 -0.1784,-3.4041 -0.01,-0.3023 -0.013,-0.5506 -0.014,-0.5518 0,0 -0.3145,0.7008 -0.4137,0.9349 -0.047,0.1099 -0.2147,0.5098 -0.3734,0.8886 -0.1587,0.3788 -0.3658,0.8702 -0.4601,1.092 -0.094,0.2217 -0.1686,0.4079 -0.165,0.4138 0,0.01 0.023,0.01 0.044,0.01 0.02,0 0.096,0.01 0.1687,0.023 0.4696,0.08 0.9055,0.2802 1.2701,0.5833 0.046,0.038 0.093,0.08 0.1046,0.093 0.012,0.013 0.023,0.022 0.024,0.02 0,0 0,-0.048 -0.01,-0.1028 z m 29.0712,-10.4193 c 0.2923,-1.395 0.5626,-2.5827 0.8533,-3.7491 0.074,-0.2963 0.1364,-0.5443 0.139,-0.5511 0,-0.01 -0.062,-0.011 -0.232,-0.01 -0.198,0 -0.2663,0 -0.419,-0.018 -0.3064,-0.04 -0.5568,-0.1115 -0.8339,-0.2393 -0.088,-0.041 -0.1668,-0.077 -0.174,-0.08 -0.01,0 -0.011,0.01 -0.01,0.037 0.01,0.085 0.074,1.3265 0.1097,2.1254 0.05,1.1174 0.1387,3.4457 0.1562,4.1101 0,0.1436 0.01,0.2686 0.013,0.2777 0,0.01 0.075,-0.3257 0.1591,-0.7443 0.084,-0.4185 0.191,-0.9408 0.2371,-1.1608 z m 22.9637,-1.9163 c 0.1141,-0.012 0.2182,-0.025 0.2311,-0.028 0.017,0 0.035,-0.03 0.064,-0.098 0.1064,-0.2477 0.1451,-0.3915 0.162,-0.6014 0.036,-0.4505 0.06,-1.4786 0.049,-2.1217 -0.01,-0.3895 -0.01,-0.4282 -0.023,-0.3833 -0.025,0.083 -0.2205,0.8554 -0.2805,1.1084 -0.1405,0.5927 -0.2942,1.3373 -0.3776,1.8298 -0.025,0.1466 -0.048,0.2779 -0.051,0.2916 -0.01,0.03 -0.027,0.03 0.2261,0 z m 28.8919,-1.2171 c 0.1196,-0.1079 0.4859,-0.4287 0.5197,-0.4551 0,0 -0.036,-0.011 -0.083,-0.021 -0.2086,-0.045 -0.388,-0.09 -0.5578,-0.1411 -0.1002,-0.03 -0.1858,-0.051 -0.1902,-0.046 -0.011,0.012 -0.2217,1.1063 -0.2217,1.1501 0,0.01 0.084,-0.069 0.1862,-0.1659 0.1024,-0.097 0.2586,-0.241 0.3471,-0.3209 z m -10.1059,-4.4148 c 0.1738,-0.5952 0.5105,-1.6297 0.7135,-2.1924 l 0.051,-0.143 -0.047,0.01 c -0.026,0 -0.2173,0.019 -0.425,0.035 -0.2077,0.016 -0.3889,0.031 -0.4026,0.034 l -0.025,0.01 v 0.8977 c 0,0.4938 0,1.0945 0.01,1.3348 0.01,0.4004 0.01,0.4325 0.023,0.3823 0.01,-0.03 0.056,-0.1922 0.1048,-0.3602 z m -68.2879,-2.7605 c 0.2029,-0.237 0.4779,-0.4656 0.7459,-0.6201 0.05,-0.029 0.052,-0.032 0.041,-0.06 -0.064,-0.1652 -0.1276,-0.4599 -0.1469,-0.6857 l -0.013,-0.1555 -0.071,0.1277 c -0.1236,0.2218 -0.347,0.6736 -0.464,0.9387 -0.099,0.2252 -0.2918,0.6887 -0.2918,0.7033 0,0 0.026,-0.029 0.057,-0.071 0.032,-0.042 0.096,-0.1217 0.1431,-0.1767 z"
       id="path2651" /><path
       style="fill:#d40000;fill-opacity:1;stroke:none;stroke-width:0.19161"
       d="m -1922.2563,7102.0712 c 2.1075,0 2.8905,0.043 3.7906,0.2268 0.8942,0.1791 1.113,0.3485 1.3879,1.0089 0.3058,0.7349 0.4031,1.7207 0.2566,1.9938 -0.037,0.071 -0.1826,0.158 -0.5282,0.2208 -0.2409,0.044 -4.7454,0.406 -5.0442,0.406 -0.1993,0 -0.1861,0.2743 -0.1941,0.4924 -0.072,1.9707 0.047,11.9509 0.197,15.9476 0.1577,3.9966 0.2804,5.9645 0.7074,11.2375 0.1813,2.2442 0.2474,3.7076 0.2149,4.8442 -0.042,1.5195 -0.1376,1.685 -0.6417,1.8296 -0.5562,0.1596 -1.5181,0.2156 -2.0834,0.1254 0,0 -0.016,0 -0.021,0 -0.7075,-0.1192 -0.9376,-0.5233 -1.2477,-2.6267 -0.3692,-2.5064 -0.9337,-8.77 -1.167,-12.9388 -0.2256,-4.0238 -0.2827,-6.3284 -0.3165,-12.5926 l -0.03,-5.6859 c -4e-4,-0.088 -0.071,-0.1593 -0.1583,-0.1613 l -2.0087,-0.032 c -1.1043,-0.029 -2.089,-0.058 -2.2175,-0.084 -0.2852,-0.061 -0.4553,-0.1807 -0.6746,-0.5076 -0.2433,-0.3606 -0.3984,-0.8313 -0.4657,-1.4267 -0.049,-0.4257 -0.049,-0.4614 0.033,-0.7162 0.092,-0.2802 0.052,-0.2263 0.3969,-0.3999 0.5853,-0.2944 1.5768,-0.5138 3.4116,-0.7522 2.3761,-0.3091 3.7428,-0.3968 6.4022,-0.403 z m -49.9257,0.7252 c 0.5335,-3e-4 1.4724,-0.016 1.4923,0.5433 l 0.1762,4.868 c -0.1901,0.071 0,0.1238 0,0.1406 v 0.054 c 0,0 0,0 0,0.016 v 0 c -5e-4,0.054 0,0.1132 0,0.2238 0,0.2983 0,0.7835 0,1.3521 0,1.7059 -0.016,4.1572 0.016,4.5876 l 0.041,1.2685 c 0.016,0.1868 0.2793,0.2067 0.3194,0.025 l 0.1879,-1.0387 c 0.4213,-2.312 1.266,-5.8669 1.6149,-6.8231 0.6421,-1.7597 1.5963,-2.485 3.3637,-2.5639 1.0769,-0.049 1.5872,0.1329 2.2027,0.7491 0.7605,0.7624 1.1976,1.8552 1.5431,3.9489 l 0.1642,0.9819 c 0.029,0.1618 0.2518,0.1832 0.3104,0.029 l 0.3224,-0.8744 c 1.302,-3.5239 2.0132,-4.8905 2.9818,-5.7964 0.728,-0.6813 1.4802,-0.946 2.8025,-0.9492 0.6743,0 1.0447,0.075 1.4865,0.2895 0.7464,0.3623 1.3332,1.145 1.7252,2.3579 0.4167,1.2895 0.4547,1.7586 0.4537,5.9336 0,3.7038 -0.034,4.6752 -0.3551,10.9898 -0.1391,2.7264 -0.1765,4.108 -0.2091,7.1814 -0.045,4.4859 0.068,6.8462 0.4568,7.2321 0.2294,0.2296 0.3564,-0.016 0.5611,-0.4478 0.9735,-2.0841 2.6011,-7.6146 3.4384,-11.6613 l 0.2537,-1.2268 c 0,-0.016 0,-0.021 0,-0.032 v -1.8743 c 0,-1.8158 0.046,-3.0956 0.1553,-4.4473 0.4821,-6.0072 2.0795,-10.8228 4.2801,-13.0225 0.4987,-0.4987 0.9619,-0.8275 1.5849,-1.137 0.7862,-0.3908 0.9838,-0.4333 1.952,-0.4031 0.7197,0.029 0.8589,0.038 1.4774,0.2001 1.366,0.3567 2.3376,0.8818 3.1309,1.6804 1.6888,1.7001 2.7813,5.2225 2.7848,9.0974 0,1.842 -0.1932,2.9978 -0.6655,4.0951 -0.2562,0.5956 -0.4925,0.9296 -0.8566,1.2298 -0.514,0.4239 -1.4901,0.928 -2.1311,1.0982 -0.2383,0.064 -2.897,0.1376 -5.7248,0.1528 h -0.8746 c -0.089,4e-4 -0.1607,0.072 -0.161,0.1613 v 1.5641 c 0,0.8607 0.029,1.8714 0.054,2.2534 0.2028,2.6224 0.8614,6.6096 1.4028,8.4826 0.1269,0.4379 0.4127,1.2465 0.5105,1.4267 0.016,0.022 0.1253,0.2039 0.2715,0.056 0.075,-0.075 0.3633,-1.2123 0.4656,-1.6804 0.1499,-0.6826 0.374,-2.0327 0.7373,-4.4472 0.5027,-3.343 0.6186,-3.9096 0.8297,-4.2145 0.2187,-0.3139 0.31,-0.3641 1.0357,-0.3641 0.5812,0 0.6608,0.026 1.0537,0.1406 0.5577,0.182 0.9385,0.4396 1.0356,0.6358 0.068,0.139 0.081,0.2429 0.078,1.4207 0,1.3819 -0.064,2.1447 -0.3283,4.0055 -0.449,3.174 -1.0689,5.8578 -1.5879,6.8977 -0.4865,0.9749 -1.2265,1.633 -2.0953,1.8893 -0.6502,0.1926 -1.6317,0.1823 -2.5459,-0.032 -1.0326,-0.242 -1.7621,-0.8144 -2.5549,-2.0536 -0.6203,-0.9692 -1.1212,-1.966 -1.5461,-3.0801 l -0.1672,-0.4477 c -0.054,-0.1421 -0.2561,-0.1375 -0.3044,0 l -0.4121,1.2088 c -0.5322,1.5626 -0.8945,2.4549 -1.4415,3.5698 -0.5528,1.1268 -0.8592,1.5922 -1.3371,2.0624 -0.4084,0.4014 -0.9204,0.7038 -1.4268,0.8448 -0.3764,0.1054 -1.7474,0.139 -2.2117,0.054 0,0 -0.016,0 -0.016,0.016 -0.6807,-0.133 -0.9707,-0.2722 -1.3909,-0.6686 -0.9038,-0.852 -1.5172,-2.5854 -1.8238,-5.2532 -0.2104,-1.8198 -0.2358,-2.4947 -0.2327,-6.4709 0,-3.9889 0.03,-4.6108 0.2537,-7.3604 0.1222,-1.4651 0.2304,-3.1098 0.3312,-4.898 0.092,-1.6784 0.1193,-5.5231 0.051,-7.1843 -0.035,-0.8394 -0.076,-1.5823 -0.1192,-1.6594 -0.089,-0.1668 -0.2459,-0.072 -0.2865,-0.029 -0.1483,0.1528 -0.613,1.1423 -0.9401,1.9848 -0.7882,2.0301 -1.6175,5.0502 -2.3909,8.6975 -1.0716,5.0523 -1.5507,8.5678 -1.5551,11.4225 0,1.5068 -0.2118,1.9112 -0.9342,2.1461 -0.3847,0.1253 -1.5194,0.1283 -1.9431,0 -0.5738,-0.1712 -0.7543,-0.3928 -0.8505,-1.0656 -0.057,-0.3853 -0.1346,-1.8915 -0.1823,-3.5577 -0.2823,-9.9649 -0.4487,-13.8754 -0.6654,-15.7028 -0.058,-0.4907 -0.067,-0.8514 -0.2596,-0.8835 -0.2322,-0.038 -0.2722,0.3525 -0.3673,0.8179 -0.6952,3.3871 -1.4064,8.0525 -1.8176,11.93 -0.161,1.5069 -0.3877,4.4595 -0.585,7.5632 -0.223,3.5114 -0.3842,5.3286 -0.5105,5.8979 -0.1252,0.5669 -0.7342,0.9054 -1.9133,0.9164 -0.9931,0 -1.3703,-0.2073 -1.7668,-0.973 -1.1579,-2.2363 -2.1526,-8.9204 -2.4386,-16.5624 -0.066,-1.7595 -0.029,-9.9135 0.056,-12.306 0.1009,-2.8385 0.1868,-3.6641 0.4119,-4.1101 0.1467,-0.2878 0.4358,-0.6174 0.6536,-0.7521 0.1928,-0.1207 1.0806,-0.3313 1.4178,-0.3313 z m 61.2557,0.03 c 1.4005,0 2.2167,0.1481 2.9729,0.5162 0.8595,0.417 1.3501,1.0463 1.6385,2.1431 0.2069,0.7811 0.2477,1.2437 0.2448,2.7549 0,1.5451 -0.064,2.0579 -0.3075,2.7341 -0.1513,0.4201 -0.1948,0.4946 -0.4535,0.7669 -0.2784,0.2933 -0.8055,0.4171 -1.6089,0.3194 -0.8363,-0.1009 -1.3053,-0.3574 -1.4715,-0.7163 -0.09,-0.1923 -0.094,-0.2614 -0.1192,-2.1639 l -0.029,-1.9998 c 0,-0.1711 -0.2332,-0.2228 -0.3075,-0.068 l -0.391,0.806 c -0.5212,1.0758 -0.7452,1.6603 -1.1221,2.9102 -0.4305,1.4267 -0.8991,3.5693 -1.1105,5.083 -0.3303,2.368 -0.4055,5.1241 -0.1283,5.7307 0.1452,0.3126 0.4568,0.2576 0.7312,0.018 0.1192,-0.1054 0.4837,-0.5128 0.8329,-0.9193 1.4923,-1.7374 3.3872,-3.6468 4.2741,-4.3159 0.7493,-0.565 1.6497,-0.7895 2.9042,-0.6955 1.4006,0.1054 2.553,0.6315 3.1248,1.391 0.8447,1.1212 1.4882,3.1911 1.4925,4.8232 0,0.4203 0.045,0.851 0.1701,0.973 0.047,0.047 0.1043,0.054 0.1254,0.054 0.116,0 0.4442,-0.102 0.8147,-0.2179 1.3651,-0.4302 2.4457,-0.6587 3.3937,-0.7193 0.8199,-0.052 1.327,0.1253 1.6625,0.5283 0.3496,0.4198 0.4366,0.7593 0.3491,0.9223 -0.068,0.1268 -0.2315,0.2299 -0.9312,0.4627 -2.9769,0.9901 -4.9626,1.9033 -5.6292,2.6265 -0.2134,0.2299 -0.2447,0.3296 -0.403,1.0775 -0.4094,1.9294 -0.5838,2.6072 -1.0447,4.0741 -0.5526,1.7587 -1.2392,3.4935 -1.8354,4.6384 -1.0233,1.9646 -1.8716,3.0091 -2.8237,3.5309 -0.9256,0.5075 -1.9168,0.7325 -2.6832,0.6238 0,0 0,0 0,0 -0.5907,-0.084 -0.8973,-0.1534 -1.4029,-0.3194 -0.9607,-0.3136 -1.5121,-0.6655 -1.8325,-1.1312 -0.2508,-0.3648 -0.5599,-1.8685 -0.5014,-2.525 0.098,-1.1023 0.4341,-2.2025 1.0656,-3.4564 1.1326,-2.2506 2.5465,-3.9339 5.038,-5.9963 0.927,-0.7668 1.405,-1.2031 1.5641,-1.4477 0.269,-0.4112 0.3884,-1.7604 0.388,-3.916 -2e-4,-1.5193 -9e-4,-1.7431 -0.113,-2.2324 -0.059,-0.2885 -0.1162,-0.567 -0.1643,-0.6209 -0.063,-0.071 -0.1701,-0.072 -0.2358,0 -0.208,0.2091 -0.3331,0.3754 -0.3641,0.4149 -1.2136,1.5468 -2.9655,3.7431 -3.322,4.1637 -1.0218,1.2046 -2.0784,2.1209 -2.7639,2.4146 -0.5718,0.2455 -1.548,0.347 -2.4266,0.2449 -1.6616,-0.1926 -2.8077,-1.0373 -3.5488,-2.6177 -0.2848,-0.6071 -0.4323,-1.0712 -0.6417,-2.0148 -0.3777,-1.7002 -0.4925,-3.1471 -0.3851,-4.8591 0.1406,-2.2737 0.492,-4.0002 1.3103,-6.4708 1.1688,-3.529 2.5155,-5.747 4.1042,-6.8113 0.7167,-0.4803 0.7965,-0.5044 1.9042,-0.5043 z m -75.6331,0.025 c 1.7314,0 3.2062,0.8072 3.2054,1.5908 0,0.2197 -0.1009,0.3789 -0.4268,0.5434 -0.4002,0.2019 -0.9316,0.7032 -1.0385,1.0265 -0.034,0.1066 -0.071,0.2649 -0.016,0.3583 0,0.016 0.016,0.018 0.025,0.027 0.052,0.049 0.1043,0.05 0.1284,0.054 0.2301,0.03 1.1961,0.058 2.3549,0.087 2.3813,0.06 2.7177,0.09 3.2802,0.2716 0.3811,0.1223 0.5852,0.2378 0.8208,0.4597 0.3928,0.3684 0.3878,0.6506 -0.025,0.997 -0.4217,0.3611 -1.1529,0.5476 -2.4175,0.588 l -0.8717,0.029 c -0.1376,0 -0.2038,0.171 -0.1099,0.2717 l 0.5343,0.5641 c 0.9308,0.9796 1.4126,1.6711 2.0057,2.8625 0.9838,1.9774 1.5563,4.1351 1.8476,7.0081 0.1742,1.7292 0.1497,4.9088 -0.056,6.9932 -0.4698,4.7382 -1.9096,9.2866 -3.522,11.1838 -0.1192,0.1405 -0.3948,0.388 -0.6119,0.5492 -1.3181,0.9773 -2.6933,1.199 -4.6265,0.7133 -1.8043,-0.4535 -3.0399,-1.3487 -4.092,-2.9667 -0.1669,-0.2562 -0.5159,-0.8995 -0.776,-1.4267 -0.6495,-1.3182 -0.9392,-2.0662 -1.4505,-3.7638 -0.021,-0.777 -0.5038,0.3488 -0.7193,0.8386 -2.6082,5.9082 -5.0126,8.4413 -7.65,8.2559 0,0 -0.016,0 -0.016,0 -1.8968,-0.1452 -3.238,-0.776 -4.3099,-2.0117 -1.318,-1.5187 -2.4699,-4.3142 -3.2982,-8.0468 -0.7316,-3.2969 -1.166,-7.6269 -1.1014,-11.0138 0.089,-4.5853 0.8885,-8.7452 2.158,-11.2792 1.0656,-2.1271 2.3291,-3.3261 3.8681,-3.731 0.4343,-0.113 1.6514,-0.116 2.364,0 1.3824,0.2333 2.0687,0.5862 2.9638,1.5223 0.6812,0.7128 0.9243,1.2628 1.0388,2.3668 0.1122,1.0771 -0.1177,2.6262 -0.5194,3.5072 -0.1391,0.3061 -0.1828,0.3437 -0.8806,0.3014 -1.1662,-0.072 -1.7776,-0.2425 -2.116,-0.5552 -0.2508,-0.2321 -0.2913,-0.3356 -0.2537,-1.3073 0.085,-2.2071 0.098,-2.6041 0.03,-2.7876 -0.039,-0.1055 -0.1405,-0.2419 -0.2806,-0.2419 -0.2368,0 -0.5327,0.4415 -0.8297,0.9969 -1.2346,2.3101 -1.8614,5.0396 -2.2863,9.9005 -0.13,1.472 -0.13,5.2684 0,6.7693 0.271,3.1566 0.6436,5.6948 1.182,8.029 0.5716,2.4779 1.28,4.6048 1.7013,4.9904 l 0.1253,0.1162 c 0.055,0.052 0.1406,0.058 0.203,0.016 l 0.1672,-0.1162 c 0.257,-0.1725 1.0109,-1.0251 1.537,-1.7251 1.43,-1.9039 3.3438,-5.5931 5.1188,-9.8587 0.2764,-0.664 0.5895,-1.4053 0.6954,-1.6446 l 0.1971,-0.4417 c 0.016,-0.02 0.016,-0.041 0.016,-0.063 l 0.029,-1.8236 c 0.056,-3.5192 0.4025,-6.5782 1.1224,-9.8945 0.7724,-3.5588 1.7305,-6.0847 2.922,-7.7423 0.6804,-0.9462 1.452,-1.3412 2.6504,-1.3432 z m 48.9407,3.1757 c -0.2562,0 -0.6682,0.45 -1.003,0.9552 -0.7367,1.1116 -1.3515,2.7244 -2.0593,5.3725 -0.6491,2.4274 -0.9997,4.527 -0.9999,6.0412 v 0.5759 c 0,0.093 0.08,0.1678 0.1729,0.1613 l 0.3792,-0.03 c 0.1876,-0.027 0.7297,-0.052 1.1908,-0.081 0,-9e-4 0,0 0.016,0 1.6067,-0.1009 2.633,-0.2325 2.9399,-0.3942 0.5923,-0.3114 1.2661,-1.5844 1.4058,-2.5698 0.089,-0.633 0.1192,-2.5462 0.059,-3.6025 -0.1391,-2.3973 -0.4652,-3.8581 -1.2417,-5.4472 -0.2832,-0.5802 -0.5688,-0.979 -0.8536,-0.979 z m -48.3558,3.4982 c -0.2373,0 -0.3517,0.4688 -0.5671,1.346 -0.6711,2.7508 -1.2588,6.0188 -1.4477,8.0261 -0.3266,3.4741 -0.2866,8.0523 0.098,10.6494 0.3434,2.3102 1.4274,5.5585 2.155,6.3874 0.2403,0.2759 0.4475,0.2957 0.6924,0.032 0.5831,-0.6161 1.4957,-2.6653 2.0266,-4.5009 0.6935,-2.3964 1.0481,-4.9313 1.1461,-8.1364 0.1162,-3.8046 -0.2216,-6.8689 -1.0416,-9.3601 -0.4221,-1.2815 -0.7961,-2.0251 -1.4924,-2.9521 -0.6371,-0.8488 -1.258,-1.4922 -1.5699,-1.4922 z m 79.6148,22.5258 c -0.038,0 -0.071,0.016 -0.087,0.025 -0.1269,0.068 -0.4095,0.4512 -0.6,0.7731 -0.6268,1.0581 -1.2814,2.6782 -1.2745,3.2204 v 0.1554 c -9e-4,0.1497 0.185,0.2203 0.2836,0.1065 l 0.1553,-0.1761 c 0.1146,-0.1314 0.349,-0.5736 0.5669,-1.0179 0,0 0,0 0.016,0 0.5071,-1.036 1.0712,-2.464 1.1193,-2.8266 0,-0.046 0.02,-0.1314 -0.051,-0.2029 -0.041,-0.041 -0.084,-0.052 -0.1222,-0.05 z"
       id="path2652" /><path
       id="path2657"
       style="color:#000000;fill:#000000;fill-opacity:1;stroke:none;stroke-width:1.52819;stroke-linecap:round;stroke-linejoin:round;-inkscape-stroke:none"
       d="m -1910.9035,7096.7867 a 1.3888854,1.3888854 0 0 0 -1.3891,1.3891 1.3888854,1.3888854 0 0 0 1.3891,1.3885 1.3888854,1.3888854 0 0 0 1.3885,-1.3885 1.3888854,1.3888854 0 0 0 -1.3885,-1.3891 z m -10.6511,0.041 a 0.70765266,0.70765266 0 0 0 -0.018,0.018 c -2.7838,0 -4.6142,0.1286 -7.1277,0.4538 -1.8285,0.2376 -3.3994,0.4351 -5.0384,1.1968 a 0.7075819,0.7075819 0 0 0 -0.3432,0.94 0.7075819,0.7075819 0 0 0 0.9405,0.3436 c 1.4104,-0.6556 2.7946,-0.8404 4.623,-1.078 2.4877,-0.3225 4.2166,-0.4444 6.9815,-0.4444 h 0.015 a 0.70765266,0.70765266 0 0 0 0.015,-0.015 c 2.1312,0 3.3733,0.057 4.6472,0.3163 0.4374,0.087 1.287,0.2807 2.1549,0.7731 a 0.7075819,0.7075819 0 0 0 0.9638,-0.2656 0.7075819,0.7075819 0 0 0 -0.2656,-0.9643 c -1.0714,-0.6079 -2.0904,-0.8346 -2.573,-0.9312 -1.4109,-0.2876 -2.7711,-0.3425 -4.9366,-0.3432 z m -65.0963,0.083 a 1.3888854,1.3888854 0 0 0 -1.389,1.3886 1.3888854,1.3888854 0 0 0 1.389,1.3891 1.3888854,1.3888854 0 0 0 1.3891,-1.3891 1.3888854,1.3888854 0 0 0 -1.3891,-1.3886 z m 80.175,0.2837 a 1.3888854,1.3888854 0 0 0 -1.3891,1.3891 1.3888854,1.3888854 0 0 0 1.3891,1.3886 1.3888854,1.3888854 0 0 0 1.3885,-1.3886 1.3888854,1.3888854 0 0 0 -1.3885,-1.3891 z m -30.532,0.3106 a 1.3888854,1.3888854 0 0 0 -1.3891,1.3891 1.3888854,1.3888854 0 0 0 1.3891,1.3885 1.3888854,1.3888854 0 0 0 1.3886,-1.3885 1.3888854,1.3888854 0 0 0 -1.3886,-1.3891 z m -34.2997,0.016 0.01,0.029 c -0.021,3e-4 -0.04,5e-4 -0.058,5e-4 v 0.037 a 0.70765266,0.70765266 0 0 0 -0.066,-0.038 0.70765266,0.70765266 0 0 0 -0.01,0 v 0 c 0,0 0,0 0,0 -0.017,7e-4 -0.026,0 -0.047,0 0,5e-4 -0.015,0 -0.024,0 0,7e-4 -0.029,0 -0.031,0 -10e-5,0 -0.026,0 -0.047,0.015 -0.9504,0.026 -1.7783,0.2114 -1.973,0.2568 -0.2482,0.057 -0.5206,0.128 -0.8088,0.2176 h -0.028 -0.015 a 0.70765266,0.70765266 0 0 0 -0.185,0.3674 c -0.027,-0.043 -0.1101,-0.1675 -0.1101,-0.1675 -10e-5,1e-4 0.2748,-0.1915 0.2806,-0.1937 -0.017,0 -0.032,0.015 -0.06,0.018 -0.082,0.027 -0.211,0.075 -0.3674,0.1375 -0.3126,0.1238 -0.7348,0.307 -1.14,0.5581 -1.1437,0.7088 -1.8047,1.6994 -2.3461,2.5787 -0.7435,-1.096 -1.5592,-2.1123 -2.4923,-2.5906 -0.929,-0.4756 -1.9222,-0.8012 -2.9487,-0.9823 a 0.7075819,0.7075819 0 0 0 -0.8206,0.573 0.7075819,0.7075819 0 0 0 0.5731,0.8212 c 0.8961,0.1582 1.7554,0.4398 2.5518,0.8475 0.7061,0.362 1.64,1.3038 2.358,2.5073 a 0.70765266,0.70765266 0 0 0 0.525,0.3401 c 0.032,0 0.1103,0.032 0.2987,0.06 a 0.70765266,0.70765266 0 0 0 0.7477,-0.4599 l -0.014,0.057 c 0.3877,-0.7609 1.2358,-1.8813 2.3135,-2.5492 0.2877,-0.1783 0.6508,-0.3422 0.9163,-0.4475 0.1329,-0.052 0.241,-0.089 0.3043,-0.1101 0.024,-0.015 0.035,-0.015 0.041,-0.015 0.2583,-0.081 0.5043,-0.1436 0.7343,-0.1969 0.2832,-0.066 0.9485,-0.2362 1.788,-0.2362 h 0.018 a 0.70765266,0.70765266 0 0 0 0.1881,-0.1101 c -0.022,0.025 -0.086,0.097 -0.09,0.1008 0.015,1e-4 0.032,5e-4 0.052,5e-4 h 0.4181 c 0.3577,0.015 0.8501,0.06 1.3343,0.1638 0.3796,0.082 1.3859,0.3681 2.2174,1.015 0.5474,0.4258 0.9364,0.8922 1.2599,1.4386 a 0.70765266,0.70765266 0 0 0 0.7431,0.3344 c 0.2894,-0.057 0.4956,-0.1623 0.6294,-0.2212 0.133,-0.058 0.1882,-0.078 0.2512,-0.081 1.2507,-0.057 2.414,0.2471 3.5517,0.7726 a 0.70765266,0.70765266 0 0 0 0.8149,-0.1608 c 0.2371,-0.2541 0.2477,-0.3435 0.2507,-0.3462 1.6327,-1.5278 3.7558,-2.1792 5.904,-2.1792 1.1805,0 2.3225,0.1883 3.4768,0.7493 1.5028,0.7308 2.4241,1.9171 3.146,3.2593 a 0.7075819,0.7075819 0 0 0 0.9581,0.2868 0.7075819,0.7075819 0 0 0 0.2868,-0.9586 c -0.7973,-1.4825 -1.9276,-2.9644 -3.7729,-3.8618 -1.3756,-0.6686 -2.7601,-0.8899 -4.0948,-0.8899 -2.4369,0 -4.9346,0.7516 -6.8683,2.5611 -0.082,0.078 -0.055,0.07 -0.1008,0.1282 -1.1327,-0.4531 -2.3095,-0.8314 -3.6142,-0.7731 -0.3204,0.015 -0.574,0.1195 -0.7462,0.1943 -0.3448,-0.4821 -0.686,-0.9675 -1.2031,-1.37 -1.0971,-0.8535 -2.2812,-1.1713 -2.7848,-1.2805 -0.5973,-0.1299 -1.1613,-0.1763 -1.5762,-0.1938 -0.2073,-0.015 -0.3776,-0.015 -0.495,-0.015 z m -0.038,1.4268 c -0.014,-1e-4 -0.022,4e-4 -0.031,5e-4 h 0.031 z m -0.011,-1.3968 v -5e-4 h -0.035 c 0.012,10e-5 0.022,5e-4 0.035,5e-4 z m 0.4697,0.2589 c 0,0 0.019,0.055 0.029,0.078 a 0.70765266,0.70765266 0 0 0 -0.072,-0.041 l 0.044,-0.035 z m 29.8173,0.01 a 1.3888854,1.3888854 0 0 0 -1.389,1.3891 1.3888854,1.3888854 0 0 0 1.389,1.3885 1.3888854,1.3888854 0 0 0 1.3886,-1.3885 1.3888854,1.3888854 0 0 0 -1.3886,-1.3891 z m -29.7594,0.1566 c 0.047,0.1326 0.1003,0.2878 0.1003,0.2878 0,0 -0.073,0.084 -0.1008,0.1163 a 0.70765266,0.70765266 0 0 0 5e-4,-0.4041 z m -19.127,0.1307 a 1.3888854,1.3888854 0 0 0 -1.389,1.3891 1.3888854,1.3888854 0 0 0 1.389,1.389 1.3888854,1.3888854 0 0 0 1.3891,-1.389 1.3888854,1.3888854 0 0 0 -1.3891,-1.3891 z m -11.6882,0.4708 c -0.4163,4e-4 -1.3721,-0.025 -2.5104,0.2604 a 0.70765266,0.70765266 0 0 0 -0.074,0.014 c -3.6283,0.9543 -6.1404,3.7482 -7.6828,6.8264 -1.9447,3.8822 -2.6881,8.6758 -2.7879,13.8374 -0.049,2.5294 0.1225,5.3052 0.4718,7.9872 a 0.7075819,0.7075819 0 0 0 0.7938,0.6087 0.7075819,0.7075819 0 0 0 0.6092,-0.7912 c -0.3409,-2.6155 -0.5065,-5.3318 -0.4599,-7.7783 0.098,-5.0411 0.8393,-9.6362 2.6386,-13.2281 1.4204,-2.8349 3.652,-5.2659 6.7753,-6.0891 a 0.70765266,0.70765266 0 0 0 0.015,0 c 0.9622,-0.2489 1.7436,-0.2295 2.2148,-0.2299 0.5883,0 1.2425,0.029 1.9431,0.138 a 0.70765266,0.70765266 0 0 0 0.1069,0.015 h 0.038 c 0.4319,0.075 0.858,0.1735 1.2748,0.3013 a 0.7075819,0.7075819 0 0 0 0.8832,-0.4687 0.7075819,0.7075819 0 0 0 -0.4682,-0.8862 c -0.4879,-0.1498 -0.9859,-0.2671 -1.4924,-0.3525 a 0.70765266,0.70765266 0 0 0 -0.1132,-0.015 h -0.035 -0.032 -0.029 -0.024 c -0.7448,-0.1069 -1.4431,-0.1482 -2.0536,-0.1467 z m 5.9557,0.7286 a 1.3888854,1.3888854 0 0 0 -1.389,1.3891 1.3888854,1.3888854 0 0 0 1.389,1.3885 1.3888854,1.3888854 0 0 0 1.3886,-1.3885 1.3888854,1.3888854 0 0 0 -1.3886,-1.3891 z m 93.1158,0.1644 a 1.3888854,1.3888854 0 0 0 -1.3891,1.389 1.3888854,1.3888854 0 0 0 1.3891,1.3886 1.3888854,1.3888854 0 0 0 1.3891,-1.3886 1.3888854,1.3888854 0 0 0 -1.3891,-1.389 z m -42.1178,0.3338 a 1.3888854,1.3888854 0 0 0 -1.3891,1.3891 1.3888854,1.3888854 0 0 0 1.3891,1.389 1.3888854,1.3888854 0 0 0 1.3885,-1.389 1.3888854,1.3888854 0 0 0 -1.3885,-1.3891 z m -48.0152,0.7286 a 1.3888854,1.3888854 0 0 0 -1.3891,1.3891 1.3888854,1.3888854 0 0 0 1.3891,1.3885 1.3888854,1.3888854 0 0 0 1.3886,-1.3885 1.3888854,1.3888854 0 0 0 -1.3886,-1.3891 z m 91.7024,2.3162 a 0.7075819,0.7075819 0 0 0 -0.2702,0.056 0.7075819,0.7075819 0 0 0 -0.3731,0.9312 c 0.1678,0.3904 0.3072,0.7945 0.418,1.2118 0.3033,1.1417 0.3969,2.3015 0.3969,3.9223 -2e-4,1.0399 -0.2106,1.836 -0.3881,2.7931 a 0.70765266,0.70765266 0 0 0 0.4718,0.8004 c 1.4718,0.4936 2.8104,1.2 3.8235,2.5456 0.4618,0.6128 0.8191,1.2539 1.1101,1.9131 a 0.7075819,0.7075819 0 0 0 0.9343,0.3617 0.7075819,0.7075819 0 0 0 0.3612,-0.9317 c -0.3273,-0.7418 -0.7383,-1.4822 -1.2744,-2.1937 -1.0929,-1.4518 -2.5229,-2.2357 -3.9579,-2.7848 0.1513,-0.7497 0.3372,-1.4957 0.3375,-2.5037 0,-1.6758 -0.098,-2.9807 -0.4449,-4.2835 -0.1284,-0.4808 -0.2902,-0.9516 -0.4868,-1.4087 a 0.7075819,0.7075819 0 0 0 -0.6579,-0.4294 z m 9.3834,13.8663 a 1.3888854,1.3888854 0 0 0 -1.389,1.3885 1.3888854,1.3888854 0 0 0 1.389,1.3891 1.3888854,1.3888854 0 0 0 1.3886,-1.3891 1.3888854,1.3888854 0 0 0 -1.3886,-1.3885 z m 3.7285,3.437 a 1.3888854,1.3888854 0 0 0 -1.3891,1.3885 1.3888854,1.3888854 0 0 0 1.3891,1.3891 1.3888854,1.3888854 0 0 0 1.389,-1.3891 1.3888854,1.3888854 0 0 0 -1.389,-1.3885 z m 0.1747,4.5444 a 1.3888854,1.3888854 0 0 0 -1.3886,1.3886 1.3888854,1.3888854 0 0 0 1.3886,1.389 1.3888854,1.3888854 0 0 0 1.389,-1.389 1.3888854,1.3888854 0 0 0 -1.389,-1.3886 z m -2.3772,3.5399 a 0.7075819,0.7075819 0 0 0 -0.356,0.087 h -10e-4 c -0.079,0.044 -0.1547,0.086 -0.2269,0.1225 -0.5073,0.2623 -0.96,0.4119 -1.355,0.5431 -1.2719,0.423 -2.2437,0.8139 -2.9455,1.1281 a 0.70765266,0.70765266 0 0 0 -0.4005,0.4868 c -0.261,1.1235 -0.4897,2.1325 -0.8294,3.2142 -0.6169,1.9634 -1.3416,3.8422 -2.1399,5.3754 -1.1851,2.275 -2.5084,4.2362 -4.6685,5.4204 -1.5507,0.8497 -3.4561,1.4313 -5.5066,1.1405 -0.7594,-0.1085 -1.4767,-0.2744 -2.1787,-0.5049 -1.3101,-0.4285 -2.7769,-1.1344 -3.8566,-2.4619 a 0.7075819,0.7075819 0 0 0 -0.9938,-0.1013 0.7075819,0.7075819 0 0 0 -0.1007,0.9943 c 1.3191,1.6222 3.0636,2.4421 4.5129,2.9161 0.7834,0.2574 1.582,0.4392 2.4174,0.5581 2.4289,0.3444 4.6424,-0.3441 6.3846,-1.2986 2.5235,-1.3834 4.0161,-3.6422 5.2467,-6.0048 0.8546,-1.641 1.6012,-3.5868 2.2356,-5.6059 0.3211,-1.0219 0.5308,-1.9673 0.758,-2.9487 0.6371,-0.2763 1.4134,-0.5963 2.5105,-0.9611 0.3954,-0.1314 0.941,-0.31 1.5549,-0.6269 0.095,-0.049 0.1826,-0.096 0.2631,-0.1405 a 0.7075819,0.7075819 0 0 0 0.2806,-0.9612 0.7075819,0.7075819 0 0 0 -0.6052,-0.3674 z m -122.8736,0.9229 a 1.3888854,1.3888854 0 0 0 -1.3885,1.3891 1.3888854,1.3888854 0 0 0 1.3885,1.389 1.3888854,1.3888854 0 0 0 1.3891,-1.389 1.3888854,1.3888854 0 0 0 -1.3891,-1.3891 z m 0.9198,4.2478 a 1.3888854,1.3888854 0 0 0 -1.389,1.3891 1.3888854,1.3888854 0 0 0 1.389,1.3885 1.3888854,1.3888854 0 0 0 1.3886,-1.3885 1.3888854,1.3888854 0 0 0 -1.3886,-1.3891 z m 52.2279,3.6546 c -0.047,0 -0.096,4e-4 -0.1442,0.01 l 0.023,-0.01 c -0.3672,0.06 -0.7616,0.1194 -1.0836,0.1643 -0.2578,0.035 -0.5112,0.06 -0.5814,0.069 -0.03,-0.01 -0.2002,-0.024 -0.3498,-0.047 -0.195,-0.031 -0.4172,-0.066 -0.6357,-0.078 -0.3666,-0.021 -0.6882,0.2422 -0.7405,0.6056 -0.057,0.4008 -0.043,0.7068 -0.078,0.863 -0.4135,1.8677 -1.4804,3.0063 -2.9786,3.7518 -1.1832,0.5898 -2.3817,0.7074 -3.3192,0.725 h -0.027 -0.015 -0.024 c -0.7622,0 -2.0381,-0.066 -3.301,-0.7612 -0.7676,-0.4226 -1.2663,-0.9246 -1.6806,-1.4625 -0.2377,-0.3094 -0.681,-0.3681 -0.9911,-0.1312 -0.3105,0.2387 -0.3678,0.684 -0.1282,0.9937 0.4919,0.6388 1.1522,1.308 2.1162,1.8387 1.5815,0.8705 3.1429,0.9405 3.9847,0.9405 h 0.024 c 0.02,3e-4 0.043,3e-4 0.063,0 1.0325,-0.018 2.4656,-0.1455 3.9217,-0.8718 1.7959,-0.8936 3.2287,-2.4426 3.731,-4.716 0.026,-0.1207 0.015,-0.1665 0.027,-0.2713 0.1116,0.02 0.2112,0.044 0.3793,0.044 0.2444,-2e-4 0.4528,-0.037 0.7907,-0.084 0.1421,-0.02 0.3132,-0.047 0.4718,-0.072 0.425,2.5108 1.1398,5.0542 3.2447,7.0383 1.3035,1.2299 2.7318,1.8709 4.3393,2.1849 0.2202,0.043 2.05,0.1389 2.4097,0.1312 h 0.015 c 0.015,3e-4 0.023,3e-4 0.035,0 0.058,0 0.4152,-10e-5 0.8568,-0.034 0.4415,-0.034 1.0066,-0.1113 1.6443,-0.2894 1.5633,-0.4363 2.9255,-1.281 3.9998,-2.3373 0.2341,-0.2303 0.2762,-0.3593 0.3819,-0.5462 0.5552,0.3221 1.0983,0.669 1.8355,0.8418 1.6218,0.3799 3.5718,0.5412 5.6023,-0.066 2.6623,-0.7894 4.625,-2.7205 5.734,-4.9424 0.4301,-0.8621 0.6297,-1.7547 0.8681,-2.5492 0.1116,-0.3741 -0.1006,-0.7682 -0.4743,-0.8805 -0.3741,-0.1116 -0.7683,0.1012 -0.8806,0.4749 -0.256,0.8528 -0.4493,1.6615 -0.7788,2.3218 -0.9576,1.9185 -2.6302,3.5529 -4.871,4.2173 -1.7258,0.5159 -3.4098,0.3851 -4.8741,0.041 -0.7392,-0.1735 -1.3614,-0.5309 -2.0299,-0.9493 -0.3048,-0.1907 -0.7037,-0.1222 -0.9281,0.1582 -0.3336,0.4183 -0.4678,0.7619 -0.5731,0.8656 -0.9165,0.901 -2.0753,1.6186 -3.3874,1.9848 -0.5298,0.1482 -1.0012,0.2102 -1.373,0.2388 -0.3692,0.029 -0.6029,0.018 -0.8211,0.031 -1.0329,-0.021 -1.454,-0.032 -2.1353,-0.098 -1.4183,-0.2771 -2.5265,-0.7747 -3.6416,-1.8267 -1.9608,-1.8483 -2.5961,-4.2735 -2.9844,-6.9097 -0.051,-0.3406 -0.337,-0.5873 -0.6681,-0.602 z m -50.8486,0.2987 a 1.3888854,1.3888854 0 0 0 -1.3886,1.389 1.3888854,1.3888854 0 0 0 1.3886,1.3891 1.3888854,1.3888854 0 0 0 1.389,-1.3891 1.3888854,1.3888854 0 0 0 -1.389,-1.389 z m 1.6531,3.162 a 0.7075819,0.7075819 0 0 0 -0.4336,0.1359 h -5e-4 a 0.7075819,0.7075819 0 0 0 -0.155,0.9875 c 0.24,0.328 0.4938,0.6471 0.7612,0.9555 2.142,2.4689 5.2055,3.8058 8.3602,4.0473 a 0.70765266,0.70765266 0 0 0 0.047,0 c 0,0 0,0 0.01,0 h 0.056 c 3.4394,0.2192 6.4541,-1.4694 8.5566,-3.7253 0.1821,-0.1953 0.2982,-0.3997 0.3643,-0.5339 0.066,-0.1345 0.087,-0.1825 0.1436,-0.2599 a 0.7075819,0.7075819 0 0 0 -0.155,-0.9911 0.7075819,0.7075819 0 0 0 -0.988,0.1555 c -0.1452,0.1994 -0.2262,0.3755 -0.2719,0.4682 -0.046,0.093 -0.053,0.1181 -0.1281,0.1974 -1.8951,2.0334 -4.5342,3.4831 -7.4797,3.2773 a 0.70765266,0.70765266 0 0 0 -0.056,0 c -2.8236,-0.219 -5.5205,-1.4091 -7.3871,-3.561 -0.2415,-0.2781 -0.4693,-0.5654 -0.6868,-0.8625 a 0.7075819,0.7075819 0 0 0 -0.554,-0.2889 z m 80.2711,0.339 a 1.3888854,1.3888854 0 0 0 -1.3891,1.3891 1.3888854,1.3888854 0 0 0 1.3891,1.3885 1.3888854,1.3888854 0 0 0 1.389,-1.3885 1.3888854,1.3888854 0 0 0 -1.389,-1.3891 z m -48.6921,0.7152 a 1.3888854,1.3888854 0 0 0 -1.3891,1.3891 1.3888854,1.3888854 0 0 0 1.3891,1.3885 1.3888854,1.3888854 0 0 0 1.389,-1.3885 1.3888854,1.3888854 0 0 0 -1.389,-1.3891 z m -11.9802,0.5845 a 1.3888854,1.3888854 0 0 0 -1.389,1.3885 1.3888854,1.3888854 0 0 0 1.389,1.3891 1.3888854,1.3888854 0 0 0 1.3891,-1.3891 1.3888854,1.3888854 0 0 0 -1.3891,-1.3885 z m 71.9295,1.1198 a 1.3888854,1.3888854 0 0 0 -1.3891,1.3891 1.3888854,1.3888854 0 0 0 1.3891,1.3885 1.3888854,1.3888854 0 0 0 1.389,-1.3885 1.3888854,1.3888854 0 0 0 -1.389,-1.3891 z m -63.6018,0.098 a 1.3888854,1.3888854 0 0 0 -1.3886,1.3885 1.3888854,1.3888854 0 0 0 1.3886,1.3891 1.3888854,1.3888854 0 0 0 1.389,-1.3891 1.3888854,1.3888854 0 0 0 -1.389,-1.3885 z m -4.4804,0.1943 a 1.3888854,1.3888854 0 0 0 -1.389,1.3891 1.3888854,1.3888854 0 0 0 1.389,1.389 1.3888854,1.3888854 0 0 0 1.3891,-1.389 1.3888854,1.3888854 0 0 0 -1.3891,-1.3891 z m 59.1639,0.6682 a 1.3888854,1.3888854 0 0 0 -1.3886,1.389 1.3888854,1.3888854 0 0 0 1.3886,1.3886 1.3888854,1.3888854 0 0 0 1.389,-1.3886 1.3888854,1.3888854 0 0 0 -1.389,-1.389 z m 4.7299,0.5984 a 1.3888854,1.3888854 0 0 0 -1.3885,1.389 1.3888854,1.3888854 0 0 0 1.3885,1.3886 1.3888854,1.3888854 0 0 0 1.3891,-1.3886 1.3888854,1.3888854 0 0 0 -1.3891,-1.389 z" /></g></svg>
