<?xml version="1.0" encoding="UTF-8" standalone="no"?>
<svg
   width="485.21484"
   height="193.25195"
   viewBox="0 0 128.37976 51.131247"
   version="1.1"
   id="svg16"
   xml:space="preserve"
   xmlns="http://www.w3.org/2000/svg"
   xmlns:svg="http://www.w3.org/2000/svg"
   xmlns:rdf="http://www.w3.org/1999/02/22-rdf-syntax-ns#"
   xmlns:cc="http://creativecommons.org/ns#"
   xmlns:dc="http://purl.org/dc/elements/1.1/"><defs
     id="defs10" /><metadata
     id="metadata13"><rdf:RDF><cc:Work
         rdf:about=""><dc:format>image/svg+xml</dc:format><dc:type
           rdf:resource="http://purl.org/dc/dcmitype/StillImage" /></cc:Work></rdf:RDF></metadata><g
     id="layer1"
     transform="translate(2014.7076,-7096.7865)"><path
       id="path2651"
       style="fill:#030303;fill-opacity:1;stroke:none;stroke-width:0.0419823"
       d="m -1922.3064,7100.1485 c -2.1926,0.031 -3.3934,0.1119 -5.4033,0.3628 -2.1015,0.2623 -3.2223,0.4837 -4.1099,0.8124 -0.3379,0.1251 -0.8751,0.3868 -1.0996,0.5353 -0.2357,0.156 -0.4671,0.3604 -0.6357,0.5618 l -0.046,0.055 -0.2424,-0.1179 c -0.4724,-0.2303 -0.9364,-0.4122 -1.464,-0.5736 -0.8975,-0.2746 -1.4393,-0.3817 -2.1327,-0.4237 -1.2234,-0.073 -1.8797,-0.027 -2.5766,0.1839 -0.5895,0.1783 -1.4881,0.6215 -2.1172,1.0439 -1.9071,1.2804 -3.4216,3.521 -4.547,6.7257 -0.279,0.7946 -0.5844,1.8308 -0.7844,2.6603 l -0.037,0.1555 -0.01,-1.0164 c -0.01,-0.9982 -0.011,-1.2323 -0.033,-1.7994 -0.052,-1.361 -0.1792,-2.1159 -0.5442,-3.2381 -0.1926,-0.5919 -0.4328,-1.1457 -0.6991,-1.6107 -0.1235,-0.2155 -0.3641,-0.5781 -0.4941,-0.7447 -0.6604,-0.846 -1.4419,-1.4279 -2.3869,-1.7771 -0.6104,-0.2256 -1.1746,-0.3214 -1.973,-0.3354 -1.6465,-0.029 -2.8906,0.2932 -3.9822,1.0309 -0.4221,0.2854 -0.8742,0.6859 -1.2557,1.1126 -0.3521,0.3938 -0.755,0.9446 -0.9984,1.3659 -0.017,0.029 -0.038,0.057 -0.038,0.057 0,0 -0.089,-0.076 -0.1897,-0.1736 -0.3518,-0.343 -0.6639,-0.5905 -1.0041,-0.7969 -0.8534,-0.5177 -1.8208,-0.7379 -3.0287,-0.6899 -1.1379,0.046 -2.0067,0.2481 -2.8319,0.6594 -0.125,0.062 -0.2336,0.1163 -0.2336,0.1163 0,0 -0.01,-0.1237 -0.02,-0.278 -0.018,-0.3703 -0.048,-0.5666 -0.1308,-0.846 -0.098,-0.3298 -0.2671,-0.6629 -0.4868,-0.9565 -0.1221,-0.1632 -0.4,-0.4437 -0.5648,-0.5705 -0.5814,-0.447 -1.2655,-0.6856 -2.1797,-0.7586 -0.2735,-0.017 -0.9312,-0.014 -1.1498,0.01 -0.5989,0.066 -1.3492,0.2406 -1.8324,0.4258 -0.4766,0.1828 -0.8493,0.4255 -1.2429,0.8088 -0.1932,0.1882 -0.3671,0.3837 -0.5126,0.5777 -0.557,0.7427 -0.7989,1.4061 -0.9384,2.5699 -0.015,0.1253 -0.031,0.2315 -0.031,0.2315 0,0 -0.052,-0.024 -0.1086,-0.058 -0.2368,-0.1414 -0.5826,-0.2942 -0.9374,-0.4139 -0.65,-0.2193 -1.2358,-0.3151 -2.1823,-0.3571 -0.1497,-0.01 -0.302,-0.018 -0.339,-0.018 l -0.067,-0.01 -0.03,-0.1524 c -0.1341,-0.6812 -0.4737,-1.3003 -1.0118,-1.8444 -0.8941,-0.9041 -2.2751,-1.5063 -3.8618,-1.6836 -0.5668,-0.059 -1.1918,-0.057 -1.7493,0.01 -1.1041,0.133 -2.0378,0.529 -2.8716,1.2185 -0.1687,0.1394 -0.5865,0.5591 -0.7375,0.7405 -0.356,0.428 -0.7813,1.0647 -1.1456,1.7162 -0.2387,0.4268 -0.5764,1.1243 -0.7995,1.65 -0.6773,1.5957 -1.2675,3.5579 -1.7647,5.8705 -0.6352,2.9548 -0.9896,5.7209 -1.1172,8.7203 -0.027,0.6262 -0.036,1.0353 -0.062,2.4986 l -0.01,0.4269 -0.1054,0.2454 c -0.058,0.1348 -0.2742,0.6471 -0.4806,1.139 -0.8614,2.0517 -1.3453,3.1321 -2.0841,4.6493 -0.5509,1.1312 -1.3237,2.5825 -1.7291,3.2484 l -0.023,0.038 -0.014,-0.055 c -0.04,-0.1523 -0.181,-0.762 -0.248,-1.0712 -0.4287,-1.9713 -0.7435,-4.1511 -0.9824,-6.8043 -0.088,-0.9794 -0.1168,-1.8523 -0.1168,-3.5377 0,-1.6463 0.029,-2.56 0.1111,-3.4551 0.1012,-1.1055 0.2171,-2.1168 0.3385,-2.9544 0.05,-0.3455 0.111,-0.7384 0.122,-0.7854 l 0.01,-0.024 0.069,0.027 c 0.1244,0.049 0.3987,0.1343 0.5803,0.1803 0.4315,0.1096 0.9109,0.1817 1.5664,0.2367 0.3952,0.037 1.0748,0.04 1.2769,0.01 0.3958,-0.059 0.6513,-0.1365 0.9663,-0.2909 0.1596,-0.078 0.3122,-0.1679 0.4145,-0.2429 0.2926,-0.2154 0.5433,-0.4772 0.7364,-0.7684 0.4975,-0.7504 0.8951,-2.1343 1.0257,-3.5714 0.056,-0.663 0.054,-1.329 -0.01,-1.9048 -0.1696,-1.522 -0.604,-2.547 -1.5203,-3.5879 -0.1608,-0.1826 -0.5174,-0.5448 -0.7085,-0.7193 -0.5194,-0.4746 -1.0133,-0.8193 -1.5802,-1.1028 -0.5446,-0.2724 -1.1129,-0.4655 -1.816,-0.6165 -0.7645,-0.1647 -1.3578,-0.2227 -2.2587,-0.2227 -1.11,0 -1.6975,0.096 -2.5094,0.4108 -1.9633,0.7601 -3.5389,2.3481 -4.7837,4.8219 -1.4452,2.8721 -2.313,7.1865 -2.4495,12.175 -0.073,2.676 0.1656,6.0698 0.6449,9.1586 0.6216,4.0058 1.7123,7.5905 3.0314,9.9627 0.5693,1.0237 1.1193,1.7725 1.8045,2.4572 0.8909,0.8902 1.8829,1.512 3.0763,1.9286 0.8673,0.3027 1.9672,0.5026 2.9053,0.5276 1.5761,0.042 3.1275,-0.5168 4.5092,-1.6237 1.1414,-0.9143 2.2167,-2.2142 3.2603,-3.9413 0.06,-0.099 0.116,-0.1819 0.1261,-0.1891 l 5e-4,-6e-4 h 5e-4 6e-4 v 6e-4 c 0,0.01 0.066,0.1093 0.1359,0.2315 0.1514,0.2639 0.2759,0.4625 0.4371,0.6955 1.5008,2.1685 3.4089,3.4069 6.0638,3.9367 1.78,0.3552 3.3289,0.2215 4.7521,-0.4103 0.8939,-0.3968 1.7627,-1.0079 2.403,-1.6893 0.5813,-0.6187 1.2278,-1.6427 1.759,-2.7879 0.4118,-0.8878 0.8344,-2.0129 1.1555,-3.0748 0.033,-0.1087 0.051,-0.1668 0.062,-0.1777 2e-4,-2e-4 0,-9e-4 0,0 l 5e-4,-5e-4 h 5e-4 l 5e-4,-5e-4 h 5e-4 6e-4 v 5e-4 h 5e-4 5e-4 l 5e-4,5e-4 5e-4,5e-4 5e-4,6e-4 c 0,0.011 0.031,0.1322 0.059,0.2697 0.4373,2.1401 0.9555,3.689 1.5576,4.654 0.5365,0.8599 1.2663,1.4434 2.174,1.7379 0.5152,0.1672 1.1042,0.2398 1.8164,0.2248 0.5638,-0.012 0.9829,-0.063 1.4516,-0.1794 1.4815,-0.3671 2.5296,-1.348 2.8727,-2.6882 0.1327,-0.5183 0.2447,-1.505 0.3902,-3.4318 0.022,-0.2867 0.043,-0.525 0.043,-0.525 h 5e-4 5e-4 c 0.01,0 0.028,0.018 0.052,0.039 0.233,0.2044 0.5927,0.4252 0.9265,0.5689 0.5544,0.2387 1.075,0.3486 1.8273,0.3876 0.7694,0.039 1.5409,-0.024 2.0712,-0.1721 0.971,-0.2704 1.7526,-0.8405 2.2397,-1.633 l 0.082,-0.1328 v 0.061 c 10e-4,0.034 0,0.1957 0.014,0.3607 0.033,0.8258 0.1076,1.686 0.2393,2.744 0.1973,1.5832 0.5156,2.9399 0.9389,4.0024 0.5264,1.3216 1.2238,2.2926 2.1482,2.99 0.6012,0.4536 1.2452,0.7285 2.1162,0.9043 0.2207,0.045 0.3245,0.056 0.6774,0.074 0.1375,0.01 0.2598,0.016 0.2718,0.016 l 0.01,5e-4 c 0.06,0 0.9403,2e-4 1.1498,-0.01 0.9237,-0.044 1.4312,-0.1434 2.0603,-0.4051 1.1398,-0.4742 2.1262,-1.3061 2.8712,-2.4216 0.2469,-0.3698 0.4416,-0.711 0.7214,-1.2625 l 0.1948,-0.3844 0.1276,0.1504 c 0.6854,0.8046 1.5179,1.414 2.4216,1.774 1.0536,0.4193 2.5204,0.6124 3.7155,0.4883 0.5706,-0.059 1.034,-0.1673 1.524,-0.356 1.4321,-0.5514 2.6283,-1.7121 3.3445,-3.2453 0.6497,-1.391 1.3027,-4.2271 1.8061,-7.8455 0.1843,-1.3244 0.2576,-2.0657 0.2966,-2.9993 0.018,-0.4377 0.018,-2.0784 0,-2.3327 -0.049,-0.6826 -0.207,-1.1825 -0.5256,-1.6609 -0.1418,-0.2131 -0.2251,-0.3121 -0.4387,-0.524 l -0.1922,-0.1906 0.1638,-0.086 c 0.7637,-0.4005 1.3408,-0.7982 1.7906,-1.2336 0.6011,-0.582 1.0398,-1.2902 1.433,-2.3135 l 0.053,-0.138 0.01,0.1158 c 0,0.064 0.01,0.3479 0.018,0.632 0.037,1.5972 0.1281,3.6967 0.2501,5.7598 0.2526,4.2701 0.7896,10.1701 1.156,12.7026 0.2186,1.5112 0.4206,2.3104 0.7504,2.9693 0.2945,0.5884 0.7404,1.0945 1.2562,1.4258 0.4936,0.3171 1.0283,0.499 1.68,0.57 1.0208,0.1118 2.2479,0.012 3.1042,-0.2532 1.1277,-0.3489 1.8941,-1.1221 2.2216,-2.2418 0.1125,-0.3844 0.1729,-0.821 0.2119,-1.5368 0.022,-0.3531 0.026,-1.5239 0.012,-1.9942 -0.035,-1.1545 -0.086,-1.9515 -0.2738,-4.3098 -0.251,-3.1533 -0.3591,-4.6713 -0.4656,-6.5376 -0.024,-0.4252 -0.084,-1.6092 -0.083,-1.6552 0,0 0,-0.01 5e-4,-0.01 1e-4,-3e-4 9e-4,0 0,0 v -5e-4 l 5e-4,-5e-4 h 5e-4 v -5e-4 h 6e-4 5e-4 5e-4 5e-4 l 5e-4,5e-4 c 0.011,0.01 0.043,0.067 0.1153,0.2155 0.4101,0.8389 0.8751,1.5035 1.4614,2.0882 0.7961,0.7942 1.751,1.3539 2.8535,1.6728 0.791,0.2287 1.7161,0.3367 2.5828,0.3007 0.3928,-0.016 0.5683,-0.03 0.9157,-0.079 0.091,-0.01 0.17,-0.018 0.17,-0.018 v 5e-4 5e-4 5e-4 c 0,0.01 -0.02,0.034 -0.043,0.063 -0.2754,0.3404 -0.7079,0.945 -0.9932,1.3875 -0.6911,1.0722 -1.3152,2.2995 -1.697,3.3383 -0.3341,0.9088 -0.533,1.748 -0.6403,2.699 -0.037,0.286 -0.039,0.8228 -0.01,1.1276 0.076,0.7851 0.2264,1.5374 0.4371,2.1823 0.1896,0.5804 0.3789,0.941 0.7121,1.357 0.7234,0.9032 1.8046,1.5403 3.3916,1.9989 0.5149,0.1488 1.1582,0.2722 1.7089,0.3292 0.1816,0.018 0.8148,0.019 1.0051,0 0.578,-0.056 1.0842,-0.1624 1.6444,-0.3452 0.7418,-0.242 1.5243,-0.6347 2.0825,-1.0444 1.1082,-0.8136 2.0449,-2.0114 3.0711,-3.9279 0.8585,-1.6032 1.6936,-3.7521 2.4418,-6.2824 0.2613,-0.8834 0.5134,-1.9132 0.7746,-3.1656 0.02,-0.095 0.038,-0.1756 0.048,-0.1856 0.02,-0.022 0.2744,-0.1632 0.4951,-0.2749 0.7738,-0.3914 1.9407,-0.8601 3.2768,-1.3162 0.9658,-0.3296 1.1333,-0.391 1.4087,-0.5162 0.6949,-0.3161 1.2096,-0.7847 1.5327,-1.3958 0.3549,-0.6708 0.429,-1.4817 0.2062,-2.2578 -0.1908,-0.6648 -0.6261,-1.3739 -1.1611,-1.8908 -0.6003,-0.5799 -1.3539,-0.9504 -2.2252,-1.0935 -0.7819,-0.1284 -1.7912,-0.071 -3.0252,0.1716 -0.1427,0.028 -0.2625,0.048 -0.2625,0.048 -10e-4,0 -0.024,-0.098 -0.05,-0.2145 -0.205,-0.9117 -0.5618,-1.9121 -0.9669,-2.7104 -0.4735,-0.9329 -0.9795,-1.5965 -1.6102,-2.1126 -0.9142,-0.7482 -2.1195,-1.2554 -3.4763,-1.4629 -0.3028,-0.047 -0.8017,-0.096 -0.9674,-0.096 -0.036,0 -0.066,-0.01 -0.066,-0.01 0,0 0.026,-0.041 0.057,-0.085 0.2415,-0.3385 0.4398,-0.7632 0.6346,-1.3586 0.2183,-0.6671 0.3149,-1.2301 0.3659,-2.1441 0.02,-0.3526 0.02,-2.3364 0,-2.6768 -0.038,-0.6528 -0.094,-1.0789 -0.2088,-1.5927 -0.306,-1.3657 -0.7942,-2.3421 -1.5653,-3.1326 -0.4482,-0.4595 -0.9306,-0.805 -1.544,-1.1064 -1.1903,-0.5847 -2.4388,-0.8161 -4.2758,-0.7901 -0.6951,0.01 -0.9106,0.023 -1.2552,0.08 -0.5272,0.086 -1.0145,0.2699 -1.5162,0.571 -0.32,0.1921 -0.7557,0.4956 -1.0252,0.7137 -0.06,0.048 -0.1127,0.084 -0.1127,0.084 0,0 -0.042,-0.066 -0.09,-0.1416 -0.433,-0.6874 -1.0289,-1.1769 -1.8144,-1.4893 -0.6523,-0.2594 -1.747,-0.4606 -2.8602,-0.5276 -0.7592,-0.05 -2.0246,-0.06 -3.4277,-0.04 z m 0.05,1.9229 c 2.1075,0 2.8904,0.043 3.7905,0.2264 0.8942,0.1791 1.1131,0.3488 1.388,1.0092 0.3058,0.7349 0.4033,1.7206 0.2568,1.9937 -0.037,0.071 -0.183,0.1578 -0.5286,0.2206 -0.2409,0.044 -4.7454,0.4062 -5.0442,0.4062 -0.1993,0 -0.1858,0.2744 -0.1938,0.4925 -0.072,1.9707 0.047,11.9506 0.1969,15.9473 0.1577,3.9966 0.2805,5.9646 0.7075,11.2376 0.1813,2.2442 0.2474,3.7076 0.2149,4.8442 -0.042,1.5195 -0.1377,1.6852 -0.6418,1.8298 -0.5562,0.1596 -1.5183,0.2153 -2.0836,0.1251 h -0.021 c -0.7075,-0.1192 -0.9379,-0.5233 -1.248,-2.6267 -0.3692,-2.5064 -0.9336,-8.77 -1.1669,-12.9388 -0.2256,-4.0238 -0.283,-6.3283 -0.3168,-12.5925 l -0.03,-5.686 c -4e-4,-0.088 -0.071,-0.1592 -0.1582,-0.1612 l -2.0086,-0.032 c -1.1043,-0.029 -2.089,-0.058 -2.2175,-0.084 -0.2852,-0.061 -0.4555,-0.1811 -0.6748,-0.508 -0.2433,-0.3606 -0.3984,-0.8309 -0.4657,-1.4263 -0.049,-0.4257 -0.049,-0.4614 0.033,-0.7162 0.092,-0.2802 0.052,-0.2264 0.3969,-0.4 0.5853,-0.2944 1.5769,-0.514 3.4117,-0.7524 2.3761,-0.3091 3.7428,-0.3969 6.4022,-0.4031 z m -49.9257,0.725 c 0.5335,-3e-4 1.4726,-0.016 1.4925,0.5432 l 0.1762,4.8679 c -0.1782,0.066 -0.022,0.1181 0,0.138 3e-4,3e-4 9e-4,0 0,0 v 5e-4 l 5e-4,5e-4 v 0.054 0.016 c -5e-4,0.054 0,0.1132 0,0.2238 v 1.3524 c 0,1.7059 -0.016,4.1569 0.016,4.5873 l 0.041,1.2686 c 0.016,0.1868 0.2793,0.2065 0.3194,0.025 l 0.1881,-1.0387 c 0.4213,-2.312 1.266,-5.8666 1.6149,-6.8228 0.6421,-1.7597 1.5962,-2.4853 3.3636,-2.5642 1.0769,-0.049 1.5869,0.1331 2.2024,0.7493 0.7605,0.7624 1.1976,1.8549 1.5431,3.9486 l 0.1643,0.9819 c 0.029,0.1618 0.252,0.1836 0.3106,0.029 l 0.3225,-0.8749 c 1.302,-3.5239 2.0131,-4.8901 2.9817,-5.796 0.728,-0.6813 1.4801,-0.9461 2.8024,-0.9493 0.6743,0 1.0449,0.075 1.4867,0.2894 0.7464,0.3623 1.333,1.1451 1.725,2.358 0.4167,1.2895 0.4547,1.7585 0.4537,5.9335 0,3.7038 -0.034,4.6754 -0.355,10.99 -0.1391,2.7264 -0.1767,4.1081 -0.2093,7.1815 -0.045,4.4859 0.068,6.8462 0.4568,7.2321 0.2294,0.2296 0.3565,-0.016 0.5612,-0.448 0.9735,-2.0841 2.6013,-7.6146 3.4386,-11.6613 l 0.2537,-1.2268 v -0.032 -1.8743 c 0,-1.8158 0.046,-3.0955 0.1551,-4.4472 0.4821,-6.0072 2.0797,-10.8228 4.2803,-13.0225 0.4987,-0.4987 0.9619,-0.8274 1.5849,-1.1369 0.7862,-0.3908 0.9836,-0.4333 1.9518,-0.4031 0.7197,0.029 0.859,0.038 1.4775,0.2 1.366,0.3567 2.3378,0.8819 3.1311,1.6805 1.6888,1.7001 2.7808,5.2223 2.7843,9.0972 0,1.842 -0.1928,2.998 -0.6651,4.0953 -0.2562,0.5956 -0.4927,0.9297 -0.8568,1.2299 -0.514,0.4239 -1.4901,0.9279 -2.1311,1.0981 -0.2383,0.064 -2.8969,0.1373 -5.7247,0.1525 h -0.8749 c -0.089,4e-4 -0.1604,0.072 -0.1607,0.1617 v 1.5638 c 0,0.8607 0.029,1.8716 0.054,2.2536 0.2028,2.6224 0.8616,6.6097 1.403,8.4827 0.1269,0.4379 0.4128,1.2465 0.5106,1.4267 0.016,0.022 0.1251,0.2038 0.2713,0.056 0.075,-0.075 0.3633,-1.2125 0.4656,-1.6806 0.1499,-0.6826 0.3741,-2.0327 0.7374,-4.4472 0.5027,-3.343 0.6188,-3.9093 0.8299,-4.2142 0.2187,-0.3139 0.3099,-0.3644 1.0356,-0.3644 0.5812,0 0.6608,0.026 1.0537,0.1406 0.5577,0.182 0.9385,0.4399 1.0356,0.6361 0.068,0.139 0.081,0.2428 0.078,1.4206 0,1.3819 -0.064,2.1447 -0.3286,4.0055 -0.449,3.174 -1.0685,5.8578 -1.5875,6.8977 -0.4865,0.9749 -1.2267,1.633 -2.0955,1.8893 -0.6502,0.1926 -1.6319,0.1823 -2.5461,-0.032 -1.0326,-0.242 -1.7621,-0.8144 -2.5549,-2.0536 -0.6203,-0.9692 -1.1212,-1.9659 -1.5461,-3.08 l -0.167,-0.448 c -0.054,-0.1421 -0.256,-0.1375 -0.3043,0 l -0.4124,1.2087 c -0.5322,1.5626 -0.8943,2.4549 -1.4413,3.5698 -0.5528,1.1268 -0.8595,1.5922 -1.3374,2.0624 -0.4084,0.4014 -0.9203,0.7039 -1.4267,0.8449 -0.3764,0.1054 -1.747,0.1393 -2.2113,0.054 0,0 -0.016,0 -0.016,0.016 -0.6807,-0.133 -0.9709,-0.2723 -1.3911,-0.6687 -0.9038,-0.852 -1.5171,-2.5856 -1.8237,-5.2534 -0.2104,-1.8198 -0.2361,-2.4947 -0.233,-6.4709 0,-3.9889 0.03,-4.6107 0.2537,-7.3603 0.1222,-1.4651 0.2304,-3.1097 0.3312,-4.8979 0.092,-1.6784 0.1195,-5.5234 0.051,-7.1846 -0.035,-0.8394 -0.076,-1.5822 -0.1194,-1.6593 -0.089,-0.1668 -0.2457,-0.072 -0.2863,-0.029 -0.1483,0.1528 -0.6129,1.1424 -0.94,1.9849 -0.7882,2.0301 -1.6176,5.0503 -2.391,8.6976 -1.0716,5.0523 -1.5506,8.5674 -1.555,11.4221 0,1.5068 -0.2119,1.9112 -0.9343,2.1461 -0.3847,0.1253 -1.5193,0.1283 -1.943,0 -0.5738,-0.1712 -0.7544,-0.3928 -0.8506,-1.0656 -0.057,-0.3853 -0.1347,-1.8912 -0.1824,-3.5574 -0.2823,-9.9649 -0.4484,-13.8755 -0.6651,-15.7029 -0.058,-0.4907 -0.067,-0.8516 -0.2599,-0.8837 -0.2322,-0.038 -0.2724,0.3527 -0.3675,0.8181 -0.6952,3.3871 -1.4062,8.0525 -1.8174,11.93 -0.161,1.5069 -0.3877,4.4596 -0.585,7.5633 -0.223,3.5114 -0.3843,5.3286 -0.5106,5.8979 -0.1252,0.5669 -0.7339,0.9052 -1.913,0.9162 -0.9931,0 -1.3703,-0.2074 -1.7668,-0.9731 -1.1579,-2.2363 -2.1526,-8.9203 -2.4386,-16.5623 -0.066,-1.7595 -0.029,-9.9132 0.056,-12.3057 0.1009,-2.8385 0.1867,-3.6643 0.4118,-4.1103 0.1467,-0.2878 0.4359,-0.6172 0.6537,-0.7519 0.1928,-0.1207 1.0808,-0.3313 1.418,-0.3313 z m 61.2557,0.03 c 1.4005,0 2.2168,0.1482 2.973,0.5163 0.8595,0.417 1.3502,1.0462 1.6386,2.143 0.2069,0.7811 0.2474,1.2437 0.2445,2.7549 0,1.5451 -0.064,2.058 -0.3075,2.7342 -0.1513,0.4201 -0.1945,0.4945 -0.4532,0.7668 -0.2784,0.2933 -0.8058,0.4171 -1.6092,0.3194 -0.8363,-0.1009 -1.305,-0.3573 -1.4712,-0.7162 -0.09,-0.1923 -0.094,-0.2617 -0.1194,-2.1642 l -0.029,-1.9994 c 0,-0.1711 -0.2332,-0.223 -0.3075,-0.068 l -0.3912,0.8061 c -0.5212,1.0758 -0.745,1.66 -1.1219,2.9099 -0.4305,1.4267 -0.8991,3.5697 -1.1105,5.0834 -0.3303,2.368 -0.4054,5.1238 -0.1282,5.7304 0.1452,0.3126 0.4568,0.2577 0.7312,0.018 0.1192,-0.1054 0.4833,-0.5128 0.8325,-0.9193 1.4923,-1.7374 3.3873,-3.6469 4.2742,-4.316 0.7493,-0.565 1.6497,-0.7896 2.9042,-0.6956 1.4006,0.1054 2.5531,0.6317 3.1249,1.3912 0.8447,1.1212 1.4881,3.1913 1.4924,4.8234 0,0.4203 0.045,0.8506 0.17,0.9726 0.047,0.047 0.1045,0.054 0.1256,0.054 0.116,0 0.4444,-0.1021 0.8149,-0.218 1.3651,-0.4302 2.4456,-0.6588 3.3936,-0.7194 0.8199,-0.052 1.327,0.1257 1.6625,0.5287 0.3496,0.4198 0.4363,0.7589 0.3488,0.9219 -0.068,0.1268 -0.2315,0.2302 -0.9312,0.463 -2.9769,0.9901 -4.9626,1.903 -5.6292,2.6262 -0.2134,0.2299 -0.2447,0.3296 -0.403,1.0775 -0.4094,1.9294 -0.5835,2.6072 -1.0444,4.0741 -0.5526,1.7587 -1.2394,3.4936 -1.8356,4.6385 -1.0233,1.9646 -1.8715,3.0093 -2.8236,3.5311 -0.9256,0.5075 -1.9166,0.7324 -2.683,0.6237 -0.5907,-0.084 -0.8974,-0.1534 -1.403,-0.3194 -0.9607,-0.3136 -1.5121,-0.6655 -1.8325,-1.1312 -0.2508,-0.3648 -0.5602,-1.8684 -0.5017,-2.5249 0.098,-1.1023 0.4345,-2.2027 1.066,-3.4566 1.1326,-2.2506 2.5465,-3.9336 5.038,-5.996 0.927,-0.7668 1.4046,-1.2034 1.5637,-1.448 0.269,-0.4112 0.3885,-1.7604 0.3881,-3.916 -2e-4,-1.5193 -6e-4,-1.7432 -0.1127,-2.2325 -0.059,-0.2885 -0.1162,-0.5667 -0.1643,-0.6206 -0.063,-0.071 -0.1704,-0.072 -0.2361,0 -0.208,0.2091 -0.3329,0.3755 -0.3639,0.415 -1.2136,1.5468 -2.9657,3.7429 -3.3222,4.1635 -1.0218,1.2046 -2.0782,2.1207 -2.7637,2.4144 -0.5718,0.2455 -1.5481,0.347 -2.4267,0.2449 -1.6616,-0.1926 -2.8075,-1.037 -3.5486,-2.6174 -0.2848,-0.6071 -0.4325,-1.0713 -0.6419,-2.0149 -0.3777,-1.7002 -0.4923,-3.1471 -0.3849,-4.8591 0.1406,-2.2737 0.4917,-4.0003 1.31,-6.4709 1.1688,-3.529 2.5154,-5.7467 4.1041,-6.811 0.7167,-0.4803 0.7966,-0.5044 1.9043,-0.5043 z m -75.6331,0.025 c 1.7314,0 3.2063,0.8075 3.2055,1.5911 0,0.2197 -0.1009,0.3787 -0.4268,0.5432 -0.4002,0.2019 -0.9318,0.7035 -1.0387,1.0268 -0.034,0.1066 -0.071,0.2647 -0.016,0.3581 0,0.016 0.016,0.018 0.025,0.027 0.052,0.049 0.104,0.05 0.1281,0.054 0.2301,0.03 1.1961,0.058 2.3549,0.087 2.3813,0.06 2.718,0.09 3.2805,0.2719 0.3811,0.1223 0.585,0.2375 0.8206,0.4594 0.3928,0.3684 0.388,0.6509 -0.025,0.9973 -0.4217,0.3611 -1.1529,0.5472 -2.4175,0.5876 l -0.8717,0.029 c -0.1376,0 -0.204,0.1706 -0.1101,0.2713 l 0.5343,0.5643 c 0.9308,0.9796 1.4125,1.671 2.0056,2.8624 0.9838,1.9774 1.5566,4.1354 1.8479,7.0084 0.1742,1.7292 0.1494,4.9084 -0.056,6.9928 -0.4698,4.7382 -1.9093,9.2866 -3.5217,11.1838 -0.1192,0.1405 -0.3948,0.3881 -0.6119,0.5493 -1.3181,0.9773 -2.6934,1.1989 -4.6266,0.7132 -1.8043,-0.4535 -3.0401,-1.3483 -4.0922,-2.9663 -0.1669,-0.2562 -0.5156,-0.8995 -0.7757,-1.4267 -0.6495,-1.3182 -0.9393,-2.0665 -1.4506,-3.7641 -0.021,-0.777 -0.5038,0.3489 -0.7193,0.8387 -2.6082,5.9082 -5.0128,8.4412 -7.6502,8.2558 h -0.016 c -1.8968,-0.1452 -3.2379,-0.7761 -4.3098,-2.0118 -1.318,-1.5187 -2.4697,-4.3139 -3.298,-8.0465 -0.7316,-3.2969 -1.1663,-7.6269 -1.1017,-11.0138 0.089,-4.5853 0.8885,-8.7454 2.158,-11.2794 1.0656,-2.1271 2.329,-3.3262 3.868,-3.7311 0.4343,-0.113 1.6516,-0.116 2.3642,0 1.3824,0.2333 2.0685,0.5863 2.9636,1.5224 0.6812,0.7128 0.9247,1.2628 1.0392,2.3668 0.1122,1.0771 -0.1182,2.6263 -0.5199,3.5073 -0.1391,0.3061 -0.1827,0.3436 -0.8805,0.3013 -1.1662,-0.072 -1.7773,-0.2423 -2.1157,-0.555 -0.2508,-0.2321 -0.2913,-0.3358 -0.2537,-1.3075 0.085,-2.2071 0.098,-2.6039 0.03,-2.7874 -0.039,-0.1055 -0.1405,-0.2418 -0.2806,-0.2418 -0.2368,0 -0.5329,0.4414 -0.8299,0.9968 -1.2346,2.3101 -1.8613,5.0393 -2.2862,9.9002 -0.13,1.472 -0.13,5.2687 0,6.7696 0.271,3.1566 0.6434,5.6948 1.1818,8.029 0.5716,2.4779 1.2804,4.6047 1.7017,4.9903 l 0.1251,0.1163 c 0.055,0.052 0.1407,0.058 0.2031,0.016 l 0.1669,-0.1162 c 0.257,-0.1725 1.0113,-1.025 1.5374,-1.725 1.43,-1.9039 3.3435,-5.5932 5.1185,-9.8588 0.2764,-0.664 0.5897,-1.4056 0.6956,-1.6449 l 0.1969,-0.4413 c 0.016,-0.02 0.016,-0.041 0.016,-0.063 l 0.029,-1.8237 c 0.056,-3.5192 0.4025,-6.5782 1.1224,-9.8945 0.7724,-3.5588 1.7308,-6.0846 2.9223,-7.7422 0.6804,-0.9462 1.4521,-1.3415 2.6505,-1.3435 z m 48.9407,3.1761 c -0.2562,0 -0.6682,0.4497 -1.003,0.9549 -0.7367,1.1116 -1.3515,2.7247 -2.0593,5.3728 -0.6491,2.4274 -0.9998,4.5268 -1,6.041 v 0.5757 c 0,0.093 0.08,0.1682 0.1731,0.1617 l 0.3794,-0.03 c 0.1876,-0.027 0.7295,-0.052 1.1906,-0.081 v -5e-4 h 5e-4 c 0,1e-4 0.01,5e-4 0.015,5e-4 1.6067,-0.1009 2.633,-0.2326 2.9399,-0.3943 0.5923,-0.3114 1.2659,-1.5844 1.4056,-2.5698 0.089,-0.633 0.1191,-2.5461 0.059,-3.6024 -0.1391,-2.3973 -0.4648,-3.8581 -1.2413,-5.4472 -0.2832,-0.5802 -0.5689,-0.9793 -0.8537,-0.9793 z m 19.3813,2.9931 -0.051,0.1426 c -0.203,0.5627 -0.5399,1.5974 -0.7137,2.1926 v 0.01 c -0.049,0.168 -0.095,0.3302 -0.1049,0.3602 0,0.01 0,0.015 -0.01,0.017 l -6e-4,5e-4 -5e-4,6e-4 h -5e-4 l -5e-4,-6e-4 -5e-4,-5e-4 c -0.01,-0.013 -0.01,-0.1117 -0.015,-0.3994 -0.01,-0.2403 -0.01,-0.841 -0.01,-1.3348 v -0.8977 l 0.025,-0.01 c 0.014,0 0.1954,-0.018 0.4031,-0.034 0.2077,-0.016 0.3987,-0.035 0.4247,-0.035 z m -67.7375,0.5043 5e-4,5e-4 c -0.2373,0 -0.352,0.469 -0.5674,1.3462 -0.6711,2.7508 -1.2586,6.0186 -1.4475,8.0259 -0.3266,3.4741 -0.2864,8.0524 0.098,10.6495 0.3434,2.3102 1.4273,5.5583 2.1549,6.3872 0.2403,0.2759 0.4476,0.2957 0.6925,0.032 0.5831,-0.6161 1.4953,-2.6649 2.0262,-4.5005 0.6935,-2.3964 1.0482,-4.9314 1.1462,-8.1365 0.1162,-3.8046 -0.2213,-6.8689 -1.0413,-9.3601 -0.4221,-1.2815 -0.7961,-2.0253 -1.4924,-2.9523 -0.6371,-0.8488 -1.258,-1.4919 -1.5699,-1.4919 z m 48.6756,4.2158 h 5e-4 5e-4 5e-4 l 5e-4,5e-4 c 0.01,0.01 0.01,0.1053 0.015,0.3974 0.011,0.6431 -0.013,1.6713 -0.049,2.1218 -0.017,0.2099 -0.056,0.3533 -0.1623,0.601 -0.029,0.068 -0.047,0.098 -0.064,0.098 -0.013,0 -0.1174,0.016 -0.2315,0.028 h 5e-4 c -0.1661,0.02 -0.2161,0.026 -0.2279,0.02 -4e-4,-3e-4 0,0 0,0 l -5e-4,-5e-4 v -5e-4 c -10e-5,-2e-4 -5e-4,0 -6e-4,0 0,-2e-4 0,0 0,0 6e-4,0 0,-0.01 0,-0.015 0,-0.014 0.026,-0.1448 0.051,-0.2914 0.083,-0.4925 0.2368,-1.2372 0.3773,-1.8299 0.06,-0.253 0.2556,-1.0254 0.2806,-1.1084 0,-0.01 0,-0.011 0,-0.014 l 6e-4,-5e-4 h 5e-4 z m 28.0939,1.3658 c 0.013,0 0.094,0.019 0.1881,0.047 0.1698,0.051 0.3495,0.096 0.5581,0.1411 0.047,0.01 0.083,0.021 0.083,0.021 -0.034,0.026 -0.3998,0.3473 -0.5194,0.4552 -0.089,0.08 -0.2449,0.2239 -0.3473,0.3209 -0.093,0.088 -0.1702,0.1609 -0.1839,0.1664 l -5e-4,6e-4 h -6e-4 -5e-4 v -6e-4 h -5e-4 v -5e-4 c 0,-0.044 0.2107,-1.1378 0.2217,-1.1498 v -5e-4 h 5e-4 c 2e-4,0 0,-5e-4 0,-5e-4 z m -74.9531,2.0035 c 0.015,0 0.153,0.7441 0.216,1.1663 0.2562,1.7247 0.3463,3.7849 0.2563,6.0668 -0.084,2.1397 -0.2843,3.8975 -0.6232,5.4752 -0.064,0.2968 -0.081,0.3785 -0.089,0.3906 l -5e-4,5e-4 -5e-4,6e-4 v 5e-4 h -5e-4 -5e-4 -6e-4 -5e-4 v -5e-4 h -5e-4 c 0,0 0,-0.01 0,-0.01 -0.019,-0.058 -0.082,-0.4865 -0.1246,-0.8553 -0.072,-0.6087 -0.1346,-1.4487 -0.1726,-2.3052 -0.029,-0.6586 -0.031,-0.9431 -0.041,-1.9772 -0.01,-1.484 0.013,-2.3988 0.086,-3.6659 0.08,-1.3871 0.1857,-2.3614 0.4057,-3.7434 0.034,-0.2108 0.064,-0.4196 0.074,-0.4636 0.01,-0.045 0.02,-0.081 0.02,-0.081 z m 77.7989,14.9412 c -0.038,0 -0.071,0.016 -0.087,0.025 -0.1269,0.068 -0.4095,0.4512 -0.6,0.7731 -0.6268,1.0581 -1.2812,2.6778 -1.2743,3.22 v 0.1555 c -9e-4,0.1497 0.1851,0.2203 0.2837,0.1065 l 0.155,-0.1757 c 0.1146,-0.1314 0.349,-0.5738 0.5669,-1.0181 h 0.016 c 0.5071,-1.036 1.0712,-2.4641 1.1193,-2.8267 0,-0.046 0.02,-0.1316 -0.051,-0.2031 -0.041,-0.041 -0.084,-0.052 -0.1225,-0.05 z" /><path
       id="path2657"
       style="color:#000000;fill:#000000;fill-opacity:1;stroke:none;stroke-width:1.52819;stroke-linecap:round;stroke-linejoin:round;-inkscape-stroke:none"
       d="m -1910.9035,7096.7867 a 1.3888854,1.3888854 0 0 0 -1.3891,1.3891 1.3888854,1.3888854 0 0 0 1.3891,1.3885 1.3888854,1.3888854 0 0 0 1.3885,-1.3885 1.3888854,1.3888854 0 0 0 -1.3885,-1.3891 z m -10.6511,0.041 a 0.70765266,0.70765266 0 0 0 -0.018,0.018 c -2.7838,0 -4.6142,0.1286 -7.1277,0.4538 -1.8285,0.2376 -3.3994,0.4351 -5.0384,1.1968 a 0.7075819,0.7075819 0 0 0 -0.3432,0.94 0.7075819,0.7075819 0 0 0 0.9405,0.3436 c 1.4104,-0.6556 2.7946,-0.8404 4.623,-1.078 2.4877,-0.3225 4.2166,-0.4444 6.9815,-0.4444 h 0.015 a 0.70765266,0.70765266 0 0 0 0.015,-0.015 c 2.1312,0 3.3733,0.057 4.6472,0.3163 0.4374,0.087 1.287,0.2807 2.1549,0.7731 a 0.7075819,0.7075819 0 0 0 0.9638,-0.2656 0.7075819,0.7075819 0 0 0 -0.2656,-0.9643 c -1.0714,-0.6079 -2.0904,-0.8346 -2.573,-0.9312 -1.4109,-0.2876 -2.7711,-0.3425 -4.9366,-0.3432 z m -65.0963,0.083 a 1.3888854,1.3888854 0 0 0 -1.389,1.3886 1.3888854,1.3888854 0 0 0 1.389,1.3891 1.3888854,1.3888854 0 0 0 1.3891,-1.3891 1.3888854,1.3888854 0 0 0 -1.3891,-1.3886 z m 80.175,0.2837 a 1.3888854,1.3888854 0 0 0 -1.3891,1.3891 1.3888854,1.3888854 0 0 0 1.3891,1.3886 1.3888854,1.3888854 0 0 0 1.3885,-1.3886 1.3888854,1.3888854 0 0 0 -1.3885,-1.3891 z m -30.532,0.3106 a 1.3888854,1.3888854 0 0 0 -1.3891,1.3891 1.3888854,1.3888854 0 0 0 1.3891,1.3885 1.3888854,1.3888854 0 0 0 1.3886,-1.3885 1.3888854,1.3888854 0 0 0 -1.3886,-1.3891 z m -34.2997,0.016 0.01,0.029 c -0.021,3e-4 -0.04,5e-4 -0.058,5e-4 v 0.037 a 0.70765266,0.70765266 0 0 0 -0.066,-0.038 0.70765266,0.70765266 0 0 0 -0.01,0 v 0 c 0,0 0,0 0,0 -0.017,7e-4 -0.026,0 -0.047,0 0,5e-4 -0.015,0 -0.024,0 0,7e-4 -0.029,0 -0.031,0 -10e-5,0 -0.026,0 -0.047,0.015 -0.9504,0.026 -1.7783,0.2114 -1.973,0.2568 -0.2482,0.057 -0.5206,0.128 -0.8088,0.2176 h -0.028 -0.015 a 0.70765266,0.70765266 0 0 0 -0.185,0.3674 c -0.027,-0.043 -0.1101,-0.1675 -0.1101,-0.1675 -10e-5,1e-4 0.2748,-0.1915 0.2806,-0.1937 -0.017,0 -0.032,0.015 -0.06,0.018 -0.082,0.027 -0.211,0.075 -0.3674,0.1375 -0.3126,0.1238 -0.7348,0.307 -1.14,0.5581 -1.1437,0.7088 -1.8047,1.6994 -2.3461,2.5787 -0.7435,-1.096 -1.5592,-2.1123 -2.4923,-2.5906 -0.929,-0.4756 -1.9222,-0.8012 -2.9487,-0.9823 a 0.7075819,0.7075819 0 0 0 -0.8206,0.573 0.7075819,0.7075819 0 0 0 0.5731,0.8212 c 0.8961,0.1582 1.7554,0.4398 2.5518,0.8475 0.7061,0.362 1.64,1.3038 2.358,2.5073 a 0.70765266,0.70765266 0 0 0 0.525,0.3401 c 0.032,0 0.1103,0.032 0.2987,0.06 a 0.70765266,0.70765266 0 0 0 0.7477,-0.4599 l -0.014,0.057 c 0.3877,-0.7609 1.2358,-1.8813 2.3135,-2.5492 0.2877,-0.1783 0.6508,-0.3422 0.9163,-0.4475 0.1329,-0.052 0.241,-0.089 0.3043,-0.1101 0.024,-0.015 0.035,-0.015 0.041,-0.015 0.2583,-0.081 0.5043,-0.1436 0.7343,-0.1969 0.2832,-0.066 0.9485,-0.2362 1.788,-0.2362 h 0.018 a 0.70765266,0.70765266 0 0 0 0.1881,-0.1101 c -0.022,0.025 -0.086,0.097 -0.09,0.1008 0.015,1e-4 0.032,5e-4 0.052,5e-4 h 0.4181 c 0.3577,0.015 0.8501,0.06 1.3343,0.1638 0.3796,0.082 1.3859,0.3681 2.2174,1.015 0.5474,0.4258 0.9364,0.8922 1.2599,1.4386 a 0.70765266,0.70765266 0 0 0 0.7431,0.3344 c 0.2894,-0.057 0.4956,-0.1623 0.6294,-0.2212 0.133,-0.058 0.1882,-0.078 0.2512,-0.081 1.2507,-0.057 2.414,0.2471 3.5517,0.7726 a 0.70765266,0.70765266 0 0 0 0.8149,-0.1608 c 0.2371,-0.2541 0.2477,-0.3435 0.2507,-0.3462 1.6327,-1.5278 3.7558,-2.1792 5.904,-2.1792 1.1805,0 2.3225,0.1883 3.4768,0.7493 1.5028,0.7308 2.4241,1.9171 3.146,3.2593 a 0.7075819,0.7075819 0 0 0 0.9581,0.2868 0.7075819,0.7075819 0 0 0 0.2868,-0.9586 c -0.7973,-1.4825 -1.9276,-2.9644 -3.7729,-3.8618 -1.3756,-0.6686 -2.7601,-0.8899 -4.0948,-0.8899 -2.4369,0 -4.9346,0.7516 -6.8683,2.5611 -0.082,0.078 -0.055,0.07 -0.1008,0.1282 -1.1327,-0.4531 -2.3095,-0.8314 -3.6142,-0.7731 -0.3204,0.015 -0.574,0.1195 -0.7462,0.1943 -0.3448,-0.4821 -0.686,-0.9675 -1.2031,-1.37 -1.0971,-0.8535 -2.2812,-1.1713 -2.7848,-1.2805 -0.5973,-0.1299 -1.1613,-0.1763 -1.5762,-0.1938 -0.2073,-0.015 -0.3776,-0.015 -0.495,-0.015 z m -0.038,1.4268 c -0.014,-1e-4 -0.022,4e-4 -0.031,5e-4 h 0.031 z m -0.011,-1.3968 v -5e-4 h -0.035 c 0.012,10e-5 0.022,5e-4 0.035,5e-4 z m 0.4697,0.2589 c 0,0 0.019,0.055 0.029,0.078 a 0.70765266,0.70765266 0 0 0 -0.072,-0.041 l 0.044,-0.035 z m 29.8173,0.01 a 1.3888854,1.3888854 0 0 0 -1.389,1.3891 1.3888854,1.3888854 0 0 0 1.389,1.3885 1.3888854,1.3888854 0 0 0 1.3886,-1.3885 1.3888854,1.3888854 0 0 0 -1.3886,-1.3891 z m -29.7594,0.1566 c 0.047,0.1326 0.1003,0.2878 0.1003,0.2878 0,0 -0.073,0.084 -0.1008,0.1163 a 0.70765266,0.70765266 0 0 0 5e-4,-0.4041 z m -19.127,0.1307 a 1.3888854,1.3888854 0 0 0 -1.389,1.3891 1.3888854,1.3888854 0 0 0 1.389,1.389 1.3888854,1.3888854 0 0 0 1.3891,-1.389 1.3888854,1.3888854 0 0 0 -1.3891,-1.3891 z m -11.6882,0.4708 c -0.4163,4e-4 -1.3721,-0.025 -2.5104,0.2604 a 0.70765266,0.70765266 0 0 0 -0.074,0.014 c -3.6283,0.9543 -6.1404,3.7482 -7.6828,6.8264 -1.9447,3.8822 -2.6881,8.6758 -2.7879,13.8374 -0.049,2.5294 0.1225,5.3052 0.4718,7.9872 a 0.7075819,0.7075819 0 0 0 0.7938,0.6087 0.7075819,0.7075819 0 0 0 0.6092,-0.7912 c -0.3409,-2.6155 -0.5065,-5.3318 -0.4599,-7.7783 0.098,-5.0411 0.8393,-9.6362 2.6386,-13.2281 1.4204,-2.8349 3.652,-5.2659 6.7753,-6.0891 a 0.70765266,0.70765266 0 0 0 0.015,0 c 0.9622,-0.2489 1.7436,-0.2295 2.2148,-0.2299 0.5883,0 1.2425,0.029 1.9431,0.138 a 0.70765266,0.70765266 0 0 0 0.1069,0.015 h 0.038 c 0.4319,0.075 0.858,0.1735 1.2748,0.3013 a 0.7075819,0.7075819 0 0 0 0.8832,-0.4687 0.7075819,0.7075819 0 0 0 -0.4682,-0.8862 c -0.4879,-0.1498 -0.9859,-0.2671 -1.4924,-0.3525 a 0.70765266,0.70765266 0 0 0 -0.1132,-0.015 h -0.035 -0.032 -0.029 -0.024 c -0.7448,-0.1069 -1.4431,-0.1482 -2.0536,-0.1467 z m 5.9557,0.7286 a 1.3888854,1.3888854 0 0 0 -1.389,1.3891 1.3888854,1.3888854 0 0 0 1.389,1.3885 1.3888854,1.3888854 0 0 0 1.3886,-1.3885 1.3888854,1.3888854 0 0 0 -1.3886,-1.3891 z m 93.1158,0.1644 a 1.3888854,1.3888854 0 0 0 -1.3891,1.389 1.3888854,1.3888854 0 0 0 1.3891,1.3886 1.3888854,1.3888854 0 0 0 1.3891,-1.3886 1.3888854,1.3888854 0 0 0 -1.3891,-1.389 z m -42.1178,0.3338 a 1.3888854,1.3888854 0 0 0 -1.3891,1.3891 1.3888854,1.3888854 0 0 0 1.3891,1.389 1.3888854,1.3888854 0 0 0 1.3885,-1.389 1.3888854,1.3888854 0 0 0 -1.3885,-1.3891 z m -48.0152,0.7286 a 1.3888854,1.3888854 0 0 0 -1.3891,1.3891 1.3888854,1.3888854 0 0 0 1.3891,1.3885 1.3888854,1.3888854 0 0 0 1.3886,-1.3885 1.3888854,1.3888854 0 0 0 -1.3886,-1.3891 z m 91.7024,2.3162 a 0.7075819,0.7075819 0 0 0 -0.2702,0.056 0.7075819,0.7075819 0 0 0 -0.3731,0.9312 c 0.1678,0.3904 0.3072,0.7945 0.418,1.2118 0.3033,1.1417 0.3969,2.3015 0.3969,3.9223 -2e-4,1.0399 -0.2106,1.836 -0.3881,2.7931 a 0.70765266,0.70765266 0 0 0 0.4718,0.8004 c 1.4718,0.4936 2.8104,1.2 3.8235,2.5456 0.4618,0.6128 0.8191,1.2539 1.1101,1.9131 a 0.7075819,0.7075819 0 0 0 0.9343,0.3617 0.7075819,0.7075819 0 0 0 0.3612,-0.9317 c -0.3273,-0.7418 -0.7383,-1.4822 -1.2744,-2.1937 -1.0929,-1.4518 -2.5229,-2.2357 -3.9579,-2.7848 0.1513,-0.7497 0.3372,-1.4957 0.3375,-2.5037 0,-1.6758 -0.098,-2.9807 -0.4449,-4.2835 -0.1284,-0.4808 -0.2902,-0.9516 -0.4868,-1.4087 a 0.7075819,0.7075819 0 0 0 -0.6579,-0.4294 z m 9.3834,13.8663 a 1.3888854,1.3888854 0 0 0 -1.389,1.3885 1.3888854,1.3888854 0 0 0 1.389,1.3891 1.3888854,1.3888854 0 0 0 1.3886,-1.3891 1.3888854,1.3888854 0 0 0 -1.3886,-1.3885 z m 3.7285,3.437 a 1.3888854,1.3888854 0 0 0 -1.3891,1.3885 1.3888854,1.3888854 0 0 0 1.3891,1.3891 1.3888854,1.3888854 0 0 0 1.389,-1.3891 1.3888854,1.3888854 0 0 0 -1.389,-1.3885 z m 0.1747,4.5444 a 1.3888854,1.3888854 0 0 0 -1.3886,1.3886 1.3888854,1.3888854 0 0 0 1.3886,1.389 1.3888854,1.3888854 0 0 0 1.389,-1.389 1.3888854,1.3888854 0 0 0 -1.389,-1.3886 z m -2.3772,3.5399 a 0.7075819,0.7075819 0 0 0 -0.356,0.087 h -10e-4 c -0.079,0.044 -0.1547,0.086 -0.2269,0.1225 -0.5073,0.2623 -0.96,0.4119 -1.355,0.5431 -1.2719,0.423 -2.2437,0.8139 -2.9455,1.1281 a 0.70765266,0.70765266 0 0 0 -0.4005,0.4868 c -0.261,1.1235 -0.4897,2.1325 -0.8294,3.2142 -0.6169,1.9634 -1.3416,3.8422 -2.1399,5.3754 -1.1851,2.275 -2.5084,4.2362 -4.6685,5.4204 -1.5507,0.8497 -3.4561,1.4313 -5.5066,1.1405 -0.7594,-0.1085 -1.4767,-0.2744 -2.1787,-0.5049 -1.3101,-0.4285 -2.7769,-1.1344 -3.8566,-2.4619 a 0.7075819,0.7075819 0 0 0 -0.9938,-0.1013 0.7075819,0.7075819 0 0 0 -0.1007,0.9943 c 1.3191,1.6222 3.0636,2.4421 4.5129,2.9161 0.7834,0.2574 1.582,0.4392 2.4174,0.5581 2.4289,0.3444 4.6424,-0.3441 6.3846,-1.2986 2.5235,-1.3834 4.0161,-3.6422 5.2467,-6.0048 0.8546,-1.641 1.6012,-3.5868 2.2356,-5.6059 0.3211,-1.0219 0.5308,-1.9673 0.758,-2.9487 0.6371,-0.2763 1.4134,-0.5963 2.5105,-0.9611 0.3954,-0.1314 0.941,-0.31 1.5549,-0.6269 0.095,-0.049 0.1826,-0.096 0.2631,-0.1405 a 0.7075819,0.7075819 0 0 0 0.2806,-0.9612 0.7075819,0.7075819 0 0 0 -0.6052,-0.3674 z m -122.8736,0.9229 a 1.3888854,1.3888854 0 0 0 -1.3885,1.3891 1.3888854,1.3888854 0 0 0 1.3885,1.389 1.3888854,1.3888854 0 0 0 1.3891,-1.389 1.3888854,1.3888854 0 0 0 -1.3891,-1.3891 z m 0.9198,4.2478 a 1.3888854,1.3888854 0 0 0 -1.389,1.3891 1.3888854,1.3888854 0 0 0 1.389,1.3885 1.3888854,1.3888854 0 0 0 1.3886,-1.3885 1.3888854,1.3888854 0 0 0 -1.3886,-1.3891 z m 52.2279,3.6546 c -0.047,0 -0.096,4e-4 -0.1442,0.01 l 0.023,-0.01 c -0.3672,0.06 -0.7616,0.1194 -1.0836,0.1643 -0.2578,0.035 -0.5112,0.06 -0.5814,0.069 -0.03,-0.01 -0.2002,-0.024 -0.3498,-0.047 -0.195,-0.031 -0.4172,-0.066 -0.6357,-0.078 -0.3666,-0.021 -0.6882,0.2422 -0.7405,0.6056 -0.057,0.4008 -0.043,0.7068 -0.078,0.863 -0.4135,1.8677 -1.4804,3.0063 -2.9786,3.7518 -1.1832,0.5898 -2.3817,0.7074 -3.3192,0.725 h -0.027 -0.015 -0.024 c -0.7622,0 -2.0381,-0.066 -3.301,-0.7612 -0.7676,-0.4226 -1.2663,-0.9246 -1.6806,-1.4625 -0.2377,-0.3094 -0.681,-0.3681 -0.9911,-0.1312 -0.3105,0.2387 -0.3678,0.684 -0.1282,0.9937 0.4919,0.6388 1.1522,1.308 2.1162,1.8387 1.5815,0.8705 3.1429,0.9405 3.9847,0.9405 h 0.024 c 0.02,3e-4 0.043,3e-4 0.063,0 1.0325,-0.018 2.4656,-0.1455 3.9217,-0.8718 1.7959,-0.8936 3.2287,-2.4426 3.731,-4.716 0.026,-0.1207 0.015,-0.1665 0.027,-0.2713 0.1116,0.02 0.2112,0.044 0.3793,0.044 0.2444,-2e-4 0.4528,-0.037 0.7907,-0.084 0.1421,-0.02 0.3132,-0.047 0.4718,-0.072 0.425,2.5108 1.1398,5.0542 3.2447,7.0383 1.3035,1.2299 2.7318,1.8709 4.3393,2.1849 0.2202,0.043 2.05,0.1389 2.4097,0.1312 h 0.015 c 0.015,3e-4 0.023,3e-4 0.035,0 0.058,0 0.4152,-10e-5 0.8568,-0.034 0.4415,-0.034 1.0066,-0.1113 1.6443,-0.2894 1.5633,-0.4363 2.9255,-1.281 3.9998,-2.3373 0.2341,-0.2303 0.2762,-0.3593 0.3819,-0.5462 0.5552,0.3221 1.0983,0.669 1.8355,0.8418 1.6218,0.3799 3.5718,0.5412 5.6023,-0.066 2.6623,-0.7894 4.625,-2.7205 5.734,-4.9424 0.4301,-0.8621 0.6297,-1.7547 0.8681,-2.5492 0.1116,-0.3741 -0.1006,-0.7682 -0.4743,-0.8805 -0.3741,-0.1116 -0.7683,0.1012 -0.8806,0.4749 -0.256,0.8528 -0.4493,1.6615 -0.7788,2.3218 -0.9576,1.9185 -2.6302,3.5529 -4.871,4.2173 -1.7258,0.5159 -3.4098,0.3851 -4.8741,0.041 -0.7392,-0.1735 -1.3614,-0.5309 -2.0299,-0.9493 -0.3048,-0.1907 -0.7037,-0.1222 -0.9281,0.1582 -0.3336,0.4183 -0.4678,0.7619 -0.5731,0.8656 -0.9165,0.901 -2.0753,1.6186 -3.3874,1.9848 -0.5298,0.1482 -1.0012,0.2102 -1.373,0.2388 -0.3692,0.029 -0.6029,0.018 -0.8211,0.031 -1.0329,-0.021 -1.454,-0.032 -2.1353,-0.098 -1.4183,-0.2771 -2.5265,-0.7747 -3.6416,-1.8267 -1.9608,-1.8483 -2.5961,-4.2735 -2.9844,-6.9097 -0.051,-0.3406 -0.337,-0.5873 -0.6681,-0.602 z m -50.8486,0.2987 a 1.3888854,1.3888854 0 0 0 -1.3886,1.389 1.3888854,1.3888854 0 0 0 1.3886,1.3891 1.3888854,1.3888854 0 0 0 1.389,-1.3891 1.3888854,1.3888854 0 0 0 -1.389,-1.389 z m 1.6531,3.162 a 0.7075819,0.7075819 0 0 0 -0.4336,0.1359 h -5e-4 a 0.7075819,0.7075819 0 0 0 -0.155,0.9875 c 0.24,0.328 0.4938,0.6471 0.7612,0.9555 2.142,2.4689 5.2055,3.8058 8.3602,4.0473 a 0.70765266,0.70765266 0 0 0 0.047,0 c 0,0 0,0 0.01,0 h 0.056 c 3.4394,0.2192 6.4541,-1.4694 8.5566,-3.7253 0.1821,-0.1953 0.2982,-0.3997 0.3643,-0.5339 0.066,-0.1345 0.087,-0.1825 0.1436,-0.2599 a 0.7075819,0.7075819 0 0 0 -0.155,-0.9911 0.7075819,0.7075819 0 0 0 -0.988,0.1555 c -0.1452,0.1994 -0.2262,0.3755 -0.2719,0.4682 -0.046,0.093 -0.053,0.1181 -0.1281,0.1974 -1.8951,2.0334 -4.5342,3.4831 -7.4797,3.2773 a 0.70765266,0.70765266 0 0 0 -0.056,0 c -2.8236,-0.219 -5.5205,-1.4091 -7.3871,-3.561 -0.2415,-0.2781 -0.4693,-0.5654 -0.6868,-0.8625 a 0.7075819,0.7075819 0 0 0 -0.554,-0.2889 z m 80.2711,0.339 a 1.3888854,1.3888854 0 0 0 -1.3891,1.3891 1.3888854,1.3888854 0 0 0 1.3891,1.3885 1.3888854,1.3888854 0 0 0 1.389,-1.3885 1.3888854,1.3888854 0 0 0 -1.389,-1.3891 z m -48.6921,0.7152 a 1.3888854,1.3888854 0 0 0 -1.3891,1.3891 1.3888854,1.3888854 0 0 0 1.3891,1.3885 1.3888854,1.3888854 0 0 0 1.389,-1.3885 1.3888854,1.3888854 0 0 0 -1.389,-1.3891 z m -11.9802,0.5845 a 1.3888854,1.3888854 0 0 0 -1.389,1.3885 1.3888854,1.3888854 0 0 0 1.389,1.3891 1.3888854,1.3888854 0 0 0 1.3891,-1.3891 1.3888854,1.3888854 0 0 0 -1.3891,-1.3885 z m 71.9295,1.1198 a 1.3888854,1.3888854 0 0 0 -1.3891,1.3891 1.3888854,1.3888854 0 0 0 1.3891,1.3885 1.3888854,1.3888854 0 0 0 1.389,-1.3885 1.3888854,1.3888854 0 0 0 -1.389,-1.3891 z m -63.6018,0.098 a 1.3888854,1.3888854 0 0 0 -1.3886,1.3885 1.3888854,1.3888854 0 0 0 1.3886,1.3891 1.3888854,1.3888854 0 0 0 1.389,-1.3891 1.3888854,1.3888854 0 0 0 -1.389,-1.3885 z m -4.4804,0.1943 a 1.3888854,1.3888854 0 0 0 -1.389,1.3891 1.3888854,1.3888854 0 0 0 1.389,1.389 1.3888854,1.3888854 0 0 0 1.3891,-1.389 1.3888854,1.3888854 0 0 0 -1.3891,-1.3891 z m 59.1639,0.6682 a 1.3888854,1.3888854 0 0 0 -1.3886,1.389 1.3888854,1.3888854 0 0 0 1.3886,1.3886 1.3888854,1.3888854 0 0 0 1.389,-1.3886 1.3888854,1.3888854 0 0 0 -1.389,-1.389 z m 4.7299,0.5984 a 1.3888854,1.3888854 0 0 0 -1.3885,1.389 1.3888854,1.3888854 0 0 0 1.3885,1.3886 1.3888854,1.3888854 0 0 0 1.3891,-1.3886 1.3888854,1.3888854 0 0 0 -1.3891,-1.389 z" /><path
       style="fill:#d40000;fill-opacity:1;stroke:none;stroke-width:0.19161"
       d="m -1922.2563,7102.0712 c 2.1075,0 2.8905,0.043 3.7906,0.2268 0.8942,0.1791 1.113,0.3485 1.3879,1.0089 0.3058,0.7349 0.4031,1.7207 0.2566,1.9938 -0.037,0.071 -0.1826,0.158 -0.5282,0.2208 -0.2409,0.044 -4.7454,0.406 -5.0442,0.406 -0.1993,0 -0.1861,0.2743 -0.1941,0.4924 -0.072,1.9707 0.047,11.9509 0.197,15.9476 0.1577,3.9966 0.2804,5.9645 0.7074,11.2375 0.1813,2.2442 0.2474,3.7076 0.2149,4.8442 -0.042,1.5195 -0.1376,1.685 -0.6417,1.8296 -0.5562,0.1596 -1.5181,0.2156 -2.0834,0.1254 0,0 -0.016,0 -0.021,0 -0.7075,-0.1192 -0.9376,-0.5233 -1.2477,-2.6267 -0.3692,-2.5064 -0.9337,-8.77 -1.167,-12.9388 -0.2256,-4.0238 -0.2827,-6.3284 -0.3165,-12.5926 l -0.03,-5.6859 c -4e-4,-0.088 -0.071,-0.1593 -0.1583,-0.1613 l -2.0087,-0.032 c -1.1043,-0.029 -2.089,-0.058 -2.2175,-0.084 -0.2852,-0.061 -0.4553,-0.1807 -0.6746,-0.5076 -0.2433,-0.3606 -0.3984,-0.8313 -0.4657,-1.4267 -0.049,-0.4257 -0.049,-0.4614 0.033,-0.7162 0.092,-0.2802 0.052,-0.2263 0.3969,-0.3999 0.5853,-0.2944 1.5768,-0.5138 3.4116,-0.7522 2.3761,-0.3091 3.7428,-0.3968 6.4022,-0.403 z m -49.9257,0.7252 c 0.5335,-3e-4 1.4724,-0.016 1.4923,0.5433 l 0.1762,4.868 c -0.1901,0.071 0,0.1238 0,0.1406 v 0.054 c 0,0 0,0 0,0.016 v 0 c -5e-4,0.054 0,0.1132 0,0.2238 0,0.2983 0,0.7835 0,1.3521 0,1.7059 -0.016,4.1572 0.016,4.5876 l 0.041,1.2685 c 0.016,0.1868 0.2793,0.2067 0.3194,0.025 l 0.1879,-1.0387 c 0.4213,-2.312 1.266,-5.8669 1.6149,-6.8231 0.6421,-1.7597 1.5963,-2.485 3.3637,-2.5639 1.0769,-0.049 1.5872,0.1329 2.2027,0.7491 0.7605,0.7624 1.1976,1.8552 1.5431,3.9489 l 0.1642,0.9819 c 0.029,0.1618 0.2518,0.1832 0.3104,0.029 l 0.3224,-0.8744 c 1.302,-3.5239 2.0132,-4.8905 2.9818,-5.7964 0.728,-0.6813 1.4802,-0.946 2.8025,-0.9492 0.6743,0 1.0447,0.075 1.4865,0.2895 0.7464,0.3623 1.3332,1.145 1.7252,2.3579 0.4167,1.2895 0.4547,1.7586 0.4537,5.9336 0,3.7038 -0.034,4.6752 -0.3551,10.9898 -0.1391,2.7264 -0.1765,4.108 -0.2091,7.1814 -0.045,4.4859 0.068,6.8462 0.4568,7.2321 0.2294,0.2296 0.3564,-0.016 0.5611,-0.4478 0.9735,-2.0841 2.6011,-7.6146 3.4384,-11.6613 l 0.2537,-1.2268 c 0,-0.016 0,-0.021 0,-0.032 v -1.8743 c 0,-1.8158 0.046,-3.0956 0.1553,-4.4473 0.4821,-6.0072 2.0795,-10.8228 4.2801,-13.0225 0.4987,-0.4987 0.9619,-0.8275 1.5849,-1.137 0.7862,-0.3908 0.9838,-0.4333 1.952,-0.4031 0.7197,0.029 0.8589,0.038 1.4774,0.2001 1.366,0.3567 2.3376,0.8818 3.1309,1.6804 1.6888,1.7001 2.7813,5.2225 2.7848,9.0974 0,1.842 -0.1932,2.9978 -0.6655,4.0951 -0.2562,0.5956 -0.4925,0.9296 -0.8566,1.2298 -0.514,0.4239 -1.4901,0.928 -2.1311,1.0982 -0.2383,0.064 -2.897,0.1376 -5.7248,0.1528 h -0.8746 c -0.089,4e-4 -0.1607,0.072 -0.161,0.1613 v 1.5641 c 0,0.8607 0.029,1.8714 0.054,2.2534 0.2028,2.6224 0.8614,6.6096 1.4028,8.4826 0.1269,0.4379 0.4127,1.2465 0.5105,1.4267 0.016,0.022 0.1253,0.2039 0.2715,0.056 0.075,-0.075 0.3633,-1.2123 0.4656,-1.6804 0.1499,-0.6826 0.374,-2.0327 0.7373,-4.4472 0.5027,-3.343 0.6186,-3.9096 0.8297,-4.2145 0.2187,-0.3139 0.31,-0.3641 1.0357,-0.3641 0.5812,0 0.6608,0.026 1.0537,0.1406 0.5577,0.182 0.9385,0.4396 1.0356,0.6358 0.068,0.139 0.081,0.2429 0.078,1.4207 0,1.3819 -0.064,2.1447 -0.3283,4.0055 -0.449,3.174 -1.0689,5.8578 -1.5879,6.8977 -0.4865,0.9749 -1.2265,1.633 -2.0953,1.8893 -0.6502,0.1926 -1.6317,0.1823 -2.5459,-0.032 -1.0326,-0.242 -1.7621,-0.8144 -2.5549,-2.0536 -0.6203,-0.9692 -1.1212,-1.966 -1.5461,-3.0801 l -0.1672,-0.4477 c -0.054,-0.1421 -0.2561,-0.1375 -0.3044,0 l -0.4121,1.2088 c -0.5322,1.5626 -0.8945,2.4549 -1.4415,3.5698 -0.5528,1.1268 -0.8592,1.5922 -1.3371,2.0624 -0.4084,0.4014 -0.9204,0.7038 -1.4268,0.8448 -0.3764,0.1054 -1.7474,0.139 -2.2117,0.054 0,0 -0.016,0 -0.016,0.016 -0.6807,-0.133 -0.9707,-0.2722 -1.3909,-0.6686 -0.9038,-0.852 -1.5172,-2.5854 -1.8238,-5.2532 -0.2104,-1.8198 -0.2358,-2.4947 -0.2327,-6.4709 0,-3.9889 0.03,-4.6108 0.2537,-7.3604 0.1222,-1.4651 0.2304,-3.1098 0.3312,-4.898 0.092,-1.6784 0.1193,-5.5231 0.051,-7.1843 -0.035,-0.8394 -0.076,-1.5823 -0.1192,-1.6594 -0.089,-0.1668 -0.2459,-0.072 -0.2865,-0.029 -0.1483,0.1528 -0.613,1.1423 -0.9401,1.9848 -0.7882,2.0301 -1.6175,5.0502 -2.3909,8.6975 -1.0716,5.0523 -1.5507,8.5678 -1.5551,11.4225 0,1.5068 -0.2118,1.9112 -0.9342,2.1461 -0.3847,0.1253 -1.5194,0.1283 -1.9431,0 -0.5738,-0.1712 -0.7543,-0.3928 -0.8505,-1.0656 -0.057,-0.3853 -0.1346,-1.8915 -0.1823,-3.5577 -0.2823,-9.9649 -0.4487,-13.8754 -0.6654,-15.7028 -0.058,-0.4907 -0.067,-0.8514 -0.2596,-0.8835 -0.2322,-0.038 -0.2722,0.3525 -0.3673,0.8179 -0.6952,3.3871 -1.4064,8.0525 -1.8176,11.93 -0.161,1.5069 -0.3877,4.4595 -0.585,7.5632 -0.223,3.5114 -0.3842,5.3286 -0.5105,5.8979 -0.1252,0.5669 -0.7342,0.9054 -1.9133,0.9164 -0.9931,0 -1.3703,-0.2073 -1.7668,-0.973 -1.1579,-2.2363 -2.1526,-8.9204 -2.4386,-16.5624 -0.066,-1.7595 -0.029,-9.9135 0.056,-12.306 0.1009,-2.8385 0.1868,-3.6641 0.4119,-4.1101 0.1467,-0.2878 0.4358,-0.6174 0.6536,-0.7521 0.1928,-0.1207 1.0806,-0.3313 1.4178,-0.3313 z m 61.2557,0.03 c 1.4005,0 2.2167,0.1481 2.9729,0.5162 0.8595,0.417 1.3501,1.0463 1.6385,2.1431 0.2069,0.7811 0.2477,1.2437 0.2448,2.7549 0,1.5451 -0.064,2.0579 -0.3075,2.7341 -0.1513,0.4201 -0.1948,0.4946 -0.4535,0.7669 -0.2784,0.2933 -0.8055,0.4171 -1.6089,0.3194 -0.8363,-0.1009 -1.3053,-0.3574 -1.4715,-0.7163 -0.09,-0.1923 -0.094,-0.2614 -0.1192,-2.1639 l -0.029,-1.9998 c 0,-0.1711 -0.2332,-0.2228 -0.3075,-0.068 l -0.391,0.806 c -0.5212,1.0758 -0.7452,1.6603 -1.1221,2.9102 -0.4305,1.4267 -0.8991,3.5693 -1.1105,5.083 -0.3303,2.368 -0.4055,5.1241 -0.1283,5.7307 0.1452,0.3126 0.4568,0.2576 0.7312,0.018 0.1192,-0.1054 0.4837,-0.5128 0.8329,-0.9193 1.4923,-1.7374 3.3872,-3.6468 4.2741,-4.3159 0.7493,-0.565 1.6497,-0.7895 2.9042,-0.6955 1.4006,0.1054 2.553,0.6315 3.1248,1.391 0.8447,1.1212 1.4882,3.1911 1.4925,4.8232 0,0.4203 0.045,0.851 0.1701,0.973 0.047,0.047 0.1043,0.054 0.1254,0.054 0.116,0 0.4442,-0.102 0.8147,-0.2179 1.3651,-0.4302 2.4457,-0.6587 3.3937,-0.7193 0.8199,-0.052 1.327,0.1253 1.6625,0.5283 0.3496,0.4198 0.4366,0.7593 0.3491,0.9223 -0.068,0.1268 -0.2315,0.2299 -0.9312,0.4627 -2.9769,0.9901 -4.9626,1.9033 -5.6292,2.6265 -0.2134,0.2299 -0.2447,0.3296 -0.403,1.0775 -0.4094,1.9294 -0.5838,2.6072 -1.0447,4.0741 -0.5526,1.7587 -1.2392,3.4935 -1.8354,4.6384 -1.0233,1.9646 -1.8716,3.0091 -2.8237,3.5309 -0.9256,0.5075 -1.9168,0.7325 -2.6832,0.6238 0,0 0,0 0,0 -0.5907,-0.084 -0.8973,-0.1534 -1.4029,-0.3194 -0.9607,-0.3136 -1.5121,-0.6655 -1.8325,-1.1312 -0.2508,-0.3648 -0.5599,-1.8685 -0.5014,-2.525 0.098,-1.1023 0.4341,-2.2025 1.0656,-3.4564 1.1326,-2.2506 2.5465,-3.9339 5.038,-5.9963 0.927,-0.7668 1.405,-1.2031 1.5641,-1.4477 0.269,-0.4112 0.3884,-1.7604 0.388,-3.916 -2e-4,-1.5193 -9e-4,-1.7431 -0.113,-2.2324 -0.059,-0.2885 -0.1162,-0.567 -0.1643,-0.6209 -0.063,-0.071 -0.1701,-0.072 -0.2358,0 -0.208,0.2091 -0.3331,0.3754 -0.3641,0.4149 -1.2136,1.5468 -2.9655,3.7431 -3.322,4.1637 -1.0218,1.2046 -2.0784,2.1209 -2.7639,2.4146 -0.5718,0.2455 -1.548,0.347 -2.4266,0.2449 -1.6616,-0.1926 -2.8077,-1.0373 -3.5488,-2.6177 -0.2848,-0.6071 -0.4323,-1.0712 -0.6417,-2.0148 -0.3777,-1.7002 -0.4925,-3.1471 -0.3851,-4.8591 0.1406,-2.2737 0.492,-4.0002 1.3103,-6.4708 1.1688,-3.529 2.5155,-5.747 4.1042,-6.8113 0.7167,-0.4803 0.7965,-0.5044 1.9042,-0.5043 z m -75.6331,0.025 c 1.7314,0 3.2062,0.8072 3.2054,1.5908 0,0.2197 -0.1009,0.3789 -0.4268,0.5434 -0.4002,0.2019 -0.9316,0.7032 -1.0385,1.0265 -0.034,0.1066 -0.071,0.2649 -0.016,0.3583 0,0.016 0.016,0.018 0.025,0.027 0.052,0.049 0.1043,0.05 0.1284,0.054 0.2301,0.03 1.1961,0.058 2.3549,0.087 2.3813,0.06 2.7177,0.09 3.2802,0.2716 0.3811,0.1223 0.5852,0.2378 0.8208,0.4597 0.3928,0.3684 0.3878,0.6506 -0.025,0.997 -0.4217,0.3611 -1.1529,0.5476 -2.4175,0.588 l -0.8717,0.029 c -0.1376,0 -0.2038,0.171 -0.1099,0.2717 l 0.5343,0.5641 c 0.9308,0.9796 1.4126,1.6711 2.0057,2.8625 0.9838,1.9774 1.5563,4.1351 1.8476,7.0081 0.1742,1.7292 0.1497,4.9088 -0.056,6.9932 -0.4698,4.7382 -1.9096,9.2866 -3.522,11.1838 -0.1192,0.1405 -0.3948,0.388 -0.6119,0.5492 -1.3181,0.9773 -2.6933,1.199 -4.6265,0.7133 -1.8043,-0.4535 -3.0399,-1.3487 -4.092,-2.9667 -0.1669,-0.2562 -0.5159,-0.8995 -0.776,-1.4267 -0.6495,-1.3182 -0.9392,-2.0662 -1.4505,-3.7638 -0.021,-0.777 -0.5038,0.3488 -0.7193,0.8386 -2.6082,5.9082 -5.0126,8.4413 -7.65,8.2559 0,0 -0.016,0 -0.016,0 -1.8968,-0.1452 -3.238,-0.776 -4.3099,-2.0117 -1.318,-1.5187 -2.4699,-4.3142 -3.2982,-8.0468 -0.7316,-3.2969 -1.166,-7.6269 -1.1014,-11.0138 0.089,-4.5853 0.8885,-8.7452 2.158,-11.2792 1.0656,-2.1271 2.3291,-3.3261 3.8681,-3.731 0.4343,-0.113 1.6514,-0.116 2.364,0 1.3824,0.2333 2.0687,0.5862 2.9638,1.5223 0.6812,0.7128 0.9243,1.2628 1.0388,2.3668 0.1122,1.0771 -0.1177,2.6262 -0.5194,3.5072 -0.1391,0.3061 -0.1828,0.3437 -0.8806,0.3014 -1.1662,-0.072 -1.7776,-0.2425 -2.116,-0.5552 -0.2508,-0.2321 -0.2913,-0.3356 -0.2537,-1.3073 0.085,-2.2071 0.098,-2.6041 0.03,-2.7876 -0.039,-0.1055 -0.1405,-0.2419 -0.2806,-0.2419 -0.2368,0 -0.5327,0.4415 -0.8297,0.9969 -1.2346,2.3101 -1.8614,5.0396 -2.2863,9.9005 -0.13,1.472 -0.13,5.2684 0,6.7693 0.271,3.1566 0.6436,5.6948 1.182,8.029 0.5716,2.4779 1.28,4.6048 1.7013,4.9904 l 0.1253,0.1162 c 0.055,0.052 0.1406,0.058 0.203,0.016 l 0.1672,-0.1162 c 0.257,-0.1725 1.0109,-1.0251 1.537,-1.7251 1.43,-1.9039 3.3438,-5.5931 5.1188,-9.8587 0.2764,-0.664 0.5895,-1.4053 0.6954,-1.6446 l 0.1971,-0.4417 c 0.016,-0.02 0.016,-0.041 0.016,-0.063 l 0.029,-1.8236 c 0.056,-3.5192 0.4025,-6.5782 1.1224,-9.8945 0.7724,-3.5588 1.7305,-6.0847 2.922,-7.7423 0.6804,-0.9462 1.452,-1.3412 2.6504,-1.3432 z m 48.9407,3.1757 c -0.2562,0 -0.6682,0.45 -1.003,0.9552 -0.7367,1.1116 -1.3515,2.7244 -2.0593,5.3725 -0.6491,2.4274 -0.9997,4.527 -0.9999,6.0412 v 0.5759 c 0,0.093 0.08,0.1678 0.1729,0.1613 l 0.3792,-0.03 c 0.1876,-0.027 0.7297,-0.052 1.1908,-0.081 0,-9e-4 0,0 0.016,0 1.6067,-0.1009 2.633,-0.2325 2.9399,-0.3942 0.5923,-0.3114 1.2661,-1.5844 1.4058,-2.5698 0.089,-0.633 0.1192,-2.5462 0.059,-3.6025 -0.1391,-2.3973 -0.4652,-3.8581 -1.2417,-5.4472 -0.2832,-0.5802 -0.5688,-0.979 -0.8536,-0.979 z m -48.3558,3.4982 c -0.2373,0 -0.3517,0.4688 -0.5671,1.346 -0.6711,2.7508 -1.2588,6.0188 -1.4477,8.0261 -0.3266,3.4741 -0.2866,8.0523 0.098,10.6494 0.3434,2.3102 1.4274,5.5585 2.155,6.3874 0.2403,0.2759 0.4475,0.2957 0.6924,0.032 0.5831,-0.6161 1.4957,-2.6653 2.0266,-4.5009 0.6935,-2.3964 1.0481,-4.9313 1.1461,-8.1364 0.1162,-3.8046 -0.2216,-6.8689 -1.0416,-9.3601 -0.4221,-1.2815 -0.7961,-2.0251 -1.4924,-2.9521 -0.6371,-0.8488 -1.258,-1.4922 -1.5699,-1.4922 z m 79.6148,22.5258 c -0.038,0 -0.071,0.016 -0.087,0.025 -0.1269,0.068 -0.4095,0.4512 -0.6,0.7731 -0.6268,1.0581 -1.2814,2.6782 -1.2745,3.2204 v 0.1554 c -9e-4,0.1497 0.185,0.2203 0.2836,0.1065 l 0.1553,-0.1761 c 0.1146,-0.1314 0.349,-0.5736 0.5669,-1.0179 0,0 0,0 0.016,0 0.5071,-1.036 1.0712,-2.464 1.1193,-2.8266 0,-0.046 0.02,-0.1314 -0.051,-0.2029 -0.041,-0.041 -0.084,-0.052 -0.1222,-0.05 z"
       id="path2652" /></g></svg>
