<?xml version="1.0" encoding="UTF-8" standalone="no"?>
<svg
   width="485.87891"
   height="226.88867"
   viewBox="0 0 128.55546 60.030963"
   version="1.1"
   id="svg16"
   xml:space="preserve"
   xmlns="http://www.w3.org/2000/svg"
   xmlns:svg="http://www.w3.org/2000/svg"
   xmlns:rdf="http://www.w3.org/1999/02/22-rdf-syntax-ns#"
   xmlns:cc="http://creativecommons.org/ns#"
   xmlns:dc="http://purl.org/dc/elements/1.1/"><defs
     id="defs10" /><metadata
     id="metadata13"><rdf:RDF><cc:Work
         rdf:about=""><dc:format>image/svg+xml</dc:format><dc:type
           rdf:resource="http://purl.org/dc/dcmitype/StillImage" /></cc:Work></rdf:RDF></metadata><g
     id="layer1"
     transform="translate(2023.2336,-7013.8748)"><path
       id="path2595"
       style="fill:#fafafa;fill-opacity:1;stroke-width:2.27746;stroke-linecap:round;stroke-linejoin:round;paint-order:stroke fill markers"
       d="m -1988.2554,7066.3418 -1.1705,1.17 v 2.2949 l 1.1705,1.17 h 2.5182 l 0.1039,0.109 v 1.0103 l -0.1039,0.109 h -1.8159 l -0.5204,-0.5674 -1.5761,1.28 0.926,0.9881 h 4.2613 l 1.1756,-1.17 v -2.2887 l -1.1756,-1.1762 h -2.5131 l -0.1043,-0.1038 v -1.015 l 0.1043,-0.1043 h 1.493 l 0.6035,0.5622 1.4935,-1.2749 -0.926,-0.9932 z m -23.8941,0.05 v 7.4611 h 5.1144 l 1.1756,-1.171 v -1.7591 l -1.0041,-0.8841 0.7339,-0.8222 v -1.649 l -1.171,-1.1757 z m 13.0581,0 -1.9927,7.4611 h 2.2164 l 0.2858,-1.28 h 1.6128 l 0.2656,1.28 h 2.5963 l -2.1803,-7.4611 z m 21.1625,0 v 7.4611 h 2.3466 v -2.8774 h 0.5096 l 1.1761,2.8774 h 2.6738 l -1.909,-4.0272 1.5968,-3.4339 h -2.3099 l -1.1395,2.8769 h -0.5979 v -2.8769 z m 11.6897,0 v 7.4611 h 5.2235 v -1.7591 h -2.8774 v -1.2221 h 2.5131 v -1.603 h -2.5131 v -1.1188 h 2.8774 v -1.7581 z m 10.2118,0 v 1.9198 h 1.9198 v 5.5413 h 2.3409 v -5.5413 h 1.9203 v -1.9198 z m 11.3771,0 v 7.4611 h 5.1144 l 1.1757,-1.171 v -1.7591 l -1.0041,-0.8841 0.7338,-0.8222 v -1.649 l -1.1705,-1.1757 z m 13.0581,0 -1.9926,7.4611 h 2.2164 l 0.2863,-1.28 h 1.6128 l 0.2651,1.28 h 2.5962 l -2.1802,-7.4611 z m 9.9725,0 v 7.4611 h 5.3279 v -1.9203 h -2.9812 v -5.5408 z m 10.5296,0 v 7.4611 h 5.3274 v -1.9203 h -2.9813 v -5.5408 z m -98.7128,1.493 h 1.1183 l 0.2134,0.2129 v 1.0671 l -0.2134,0.2129 h -1.1183 z m 67.4992,0 h 1.1188 l 0.2129,0.2129 v 1.0671 l -0.2129,0.2129 h -1.1188 z m -55.4979,0.5359 h 0.1251 l 0.1612,0.957 0.3225,1.494 h -1.1235 l 0.3432,-1.494 z m 67.4998,0 h 0.1245 l 0.1613,0.957 0.3229,1.494 h -1.1239 l 0.3431,-1.494 z m -79.5011,2.3409 h 1.3839 l 0.2134,0.2139 v 1.17 l -0.2134,0.2134 h -1.3839 z m 67.4992,0 h 1.3839 l 0.2134,0.2139 v 1.17 l -0.2134,0.2134 h -1.3839 z" /><path
       id="path2175"
       style="fill:#fcfcfc;fill-opacity:1;stroke-width:2.27746;stroke-linecap:round;stroke-linejoin:round;paint-order:stroke fill markers"
       d="m -1895.4864,7032.702 -18.8738,3.9119 v 2.5461 c 0.042,5.642 4.0689,8.2299 7.4203,9.6299 2.5452,1.103 3.5641,1.9948 3.5641,2.8438 v 2.9652 c 0,0.637 -0.5091,1.063 -1.3152,1.063 h -0.086 c -0.5938,0 -1.5291,-0.678 -1.5291,-2.078 v -3.3522 h -8.1865 v 3.3522 c 0,7.169 3.3114,10.8588 9.8019,10.8588 h 0.1282 c 6.2359,0 9.8411,-3.138 9.8836,-9.077 v -3.0571 c -0.042,-5.684 -4.4533,-8.1427 -7.7199,-9.6697 -2.2907,-1.103 -3.2654,-1.826 -3.2654,-2.59 v -2.9673 c 0,-0.594 0.5092,-1.0206 1.188,-1.0206 h 0.086 c 1.1454,0 1.4836,1.02 1.4836,1.911 v 3.3109 h 8.1458 v -4.0731 c 0,-1.804 -0.2714,-3.2788 -0.7245,-4.5078 z m -0.5317,0.8609 c 0.3079,1.025 0.5209,2.1929 0.5209,3.6469 v 3.3388 h -6.6761 v -2.5766 c 0,-0.538 -0.086,-1.137 -0.4212,-1.678 -0.3363,-0.54 -1.0059,-0.9663 -1.7968,-0.9663 h -0.086 c -0.026,0 -0.052,0 -0.078,0 z m -9.1571,1.8992 c -0.6884,0.252 -1.2247,0.8618 -1.2247,1.6298 v 2.9657 c 0,0.695 0.4433,1.2682 1.0557,1.7462 0.6122,0.478 1.4622,0.9448 2.6273,1.5058 1.6112,0.753 3.4511,1.7191 4.8617,3.1301 1.4101,1.41 2.4128,3.223 2.436,5.873 v 3.0479 c -0.023,2.819 -0.863,4.8492 -2.3771,6.2192 -1.5149,1.372 -3.7775,2.1239 -6.7722,2.1239 h -0.1276 c -3.1056,0 -5.3126,-0.8611 -6.7903,-2.5011 -1.4776,-1.639 -2.2769,-4.1518 -2.2769,-7.6238 v -2.6169 h 6.7174 v 2.6169 c 0,1.728 1.1095,2.8122 2.2635,2.8122 h 0.086 c 0.5325,0 1.0341,-0.1393 1.4242,-0.4573 0.3902,-0.318 0.6252,-0.825 0.6252,-1.339 v -2.9657 c 0,-0.719 -0.4332,-1.355 -1.0971,-1.896 -0.664,-0.541 -1.601,-1.0582 -2.9073,-1.6242 -1.6235,-0.678 -3.3755,-1.6338 -4.6999,-3.0478 -1.3235,-1.412 -2.2485,-3.257 -2.2717,-5.901 v -1.9471 z m -15.6176,2.4846 -8.2326,1.7053 v 24.2817 h 8.2326 z m -0.7344,0.9043 v 24.3479 h -6.7629 v -22.9501 z m -18.2273,3.0246 -12.1579,2.5203 v 19.5378 h 15.5257 v -8.7411 h -7.3794 v -5.303 h 7.3794 v -8.014 z m 0.084,0.7364 h 2.5486 v 6.5448 h -6.645 a 0.73633577,0.73633577 0 0 0 -0.7344,0.7338 v 5.3041 a 0.73633577,0.73633577 0 0 0 0.7344,0.7343 h 6.645 v 7.2699 h -14.0565 v -18.2062 z m -14.8575,2.3249 -17.3566,3.5967 c 0.07,0.499 0.1438,1.016 0.2227,1.401 l 1.6511,9.9704 h 5.6875 l 1.5694,-9.463 c 0.2114,-0.976 0.423,-2.674 0.508,-3.437 l 0.3411,0.05 c -0.1277,1.145 -0.3003,3.3934 -0.3003,4.8354 l -0.042,12.0478 h 7.72 z m -0.7328,0.9038 v 17.354 h -6.2467 l 0.037,-11.3078 c 0,-1.384 0.1718,-3.6412 0.2951,-4.7532 a 0.73633577,0.73633577 0 0 0 0,-0.06 z m -7.8011,1.6139 c -0.1022,0.849 -0.2562,2.0693 -0.4211,2.8293 a 0.73633577,0.73633577 0 0 0 0,0.03 l -1.4702,8.8537 h -4.4354 l -1.5519,-9.3566 a 0.73633577,0.73633577 0 0 0 0,-0.03 c -0.035,-0.171 -0.07,-0.4367 -0.1044,-0.6667 z m -9.2377,1.1622 -7.508,1.555 v 13.7578 h 7.7199 l -0.042,-11.7926 c 0,-0.824 -0.074,-2.2452 -0.1695,-3.5202 z m -0.6919,0.895 c 0.063,0.98 0.1282,2.0358 0.1282,2.6268 l 0.037,11.053 h -6.2451 v -12.423 z m -9.0077,1.1152 -8.1153,1.6816 c -0.033,2.498 -0.3233,3.3494 -1.5539,3.3894 h -0.1276 c -1.1493,0 -1.4612,-0.7243 -1.5348,-2.7223 l -8.09,1.6759 c 0.1928,4.235 1.4281,9.787 9.4532,9.787 h 0.4666 c 9.5025,0 9.5028,-7.804 9.5028,-11.961 z m -0.7343,0.9028 v 0.9478 c 0,2.078 -0.028,4.9592 -1.1163,7.2212 -1.0873,2.261 -3.102,4.006 -7.6517,4.006 h -0.4671 c -3.8427,0 -5.8544,-1.2682 -7.0575,-2.9952 -1.0859,-1.559 -1.4412,-3.5776 -1.5782,-5.4736 l 6.6942,-1.387 c 0.058,0.562 0.072,1.169 0.295,1.587 0.3425,0.64 1.0891,0.9969 1.818,0.9969 h 0.1282 a 0.73633577,0.73633577 0 0 0 0.023,0 c 0.3913,-0.02 0.78,-0.09 1.1214,-0.3029 0.3414,-0.212 0.5963,-0.5414 0.7565,-0.9074 0.2527,-0.579 0.276,-1.4059 0.3086,-2.2949 z m -20.7905,3.5579 -18.34,3.8013 c 0.9859,2.952 3.2555,5.5485 8.4905,5.5485 h 0.4263 c 7.7536,0 9.1606,-5.1788 9.4232,-9.3498 z m -0.8857,0.9333 c -0.1951,1.729 -0.584,3.4949 -1.6056,4.8669 -1.2157,1.632 -3.2189,2.8169 -6.9319,2.8169 h -0.4263 c -2.4956,0 -4.1903,-0.6088 -5.393,-1.5198 -0.9659,-0.731 -1.5743,-1.7103 -2.0366,-2.7673 z" /><path
       id="path2160"
       style="fill:#ffffff;stroke-width:2.27746;stroke-linecap:round;stroke-linejoin:round;paint-order:stroke fill markers"
       d="m -1992.5807,7027.722 c -9.46,0.09 -9.5028,7.85 -9.5028,12.007 v 13.194 0.3008 l 8.1018,-1.679 v -11.1368 c 0,-2.927 0.2115,-3.8622 1.5689,-3.9052 h 0.1277 c 1.3574,0.04 1.5689,0.9362 1.5689,3.9052 v 10.4598 l 8.1003,-1.6789 v -9.4599 c 0,-4.157 -0.042,-11.922 -9.5033,-12.007 z m 87.1916,0 c -5.5222,0 -8.9741,2.2486 -9.5059,7.4336 l 17.9483,-3.7186 c -1.9213,-2.93 -5.2898,-3.715 -8.3107,-3.715 z m -108.5965,0.04 c -9.2055,0 -9.248,8.1011 -9.248,11.9621 v 13.193 c 0,1.24 -4e-4,2.9169 0.3106,4.6219 l 8.3193,-1.7228 c -0.3762,-0.464 -0.4428,-1.4822 -0.4428,-3.3652 v -12.2199 c 0,-2.757 0.1694,-3.7321 1.188,-3.7321 h 0.3814 c 1.2302,0 1.4004,0.8509 1.4004,3.6499 v 4.6224 h 8.0202 v -5.0472 c 0,-4.158 -0.044,-11.9621 -9.5033,-11.9621 z m 33.5654,0.5489 v 20.4204 l 25.2796,-5.2389 v -15.1815 h -10.4779 l -1.5276,10.437 c -0.2113,1.357 -0.508,4.9634 -0.508,6.0234 h -0.3405 c 0,-1.018 -0.1672,-4.6664 -0.4212,-6.0234 l -1.5291,-10.437 z m 27.8949,0 v 14.6404 l 8.1463,-1.6893 v -4.2101 h 7.3794 v -8.741 z m 17.7121,0 v 8.741 h 5.1749 v 1.154 l 13.4085,-2.7777 v -7.1173 z m -77.2635,19.2143 v 5.0079 c 0,1.355 -0.042,2.2439 -0.2253,2.8019 l 8.2367,-1.7068 v -0.7142 -5.3888 z" /><path
       id="path1918"
       style="fill:#fcfcfc;fill-opacity:1;stroke-width:2.27746;stroke-linecap:round;stroke-linejoin:round;paint-order:stroke fill markers"
       d="m -1969.8865,7022.1409 -53.3471,0.9767 53.3471,0.9782 h 0.02 a 10.954034,10.983317 0 0 1 -0.043,-0.6061 10.954034,10.983317 0 0 1 0.096,-1.3488 z m 21.8039,0.05 a 10.954034,10.983317 0 0 1 0.081,1.3028 10.954034,10.983317 0 0 1 -0.04,0.5581 l 53.3636,-0.9302 z" /><path
       style="fill:#fafafa;fill-opacity:1;stroke-width:2.27746;stroke-linecap:round;stroke-linejoin:round;paint-order:stroke fill markers"
       d="m -1959.2556,7013.8828 v 0 c -0.038,-0.01 -0.075,0.149 -0.1126,0.475 -0.061,0.525 -0.141,1.402 -0.1411,1.547 0,0.09 -0.021,0.103 -0.2615,0.103 -0.2327,0 -1.4281,0.153 -1.604,0.205 -0.044,0.01 -0.1285,-0.07 -0.2419,-0.249 -0.3249,-0.503 -0.6856,-0.762 -1.2469,-0.894 -1.0018,-0.236 -2.2252,0.309 -3.2536,1.449 -0.3247,0.36 -1.0356,1.273 -1.0356,1.33 0,0.01 0.2074,-0.159 0.461,-0.387 0.8739,-0.783 1.6321,-1.36 2.064,-1.57 0.4815,-0.234 0.7052,-0.293 1.1373,-0.293 0.5522,0 0.6569,0.03 0.9101,0.295 0.1251,0.13 0.2634,0.298 0.3064,0.374 l 0.079,0.137 -0.4202,0.149 c -0.9191,0.327 -1.8673,0.778 -2.5357,1.208 -0.5295,0.34 -1.2601,0.955 -1.895,1.595 -0.7929,0.8 -1.3227,1.944 -1.6097,3.475 -0.044,0.238 -0.085,0.442 -0.085,0.453 0,0.01 0.014,0 0.037,-0.02 0.023,-0.02 0.1475,-0.349 0.2765,-0.722 0.129,-0.373 0.3063,-0.824 0.3953,-1.001 0.5664,-1.135 1.6303,-2.22 2.9368,-2.998 0.4648,-0.277 1.3532,-0.713 1.8567,-0.91 0.649,-0.255 1.0449,-0.391 1.0449,-0.359 0,0.107 -0.215,0.777 -0.3948,1.233 -0.3743,0.948 -0.7372,1.615 -1.8355,3.371 -0.7922,1.267 -1.0164,1.659 -1.2614,2.207 -0.2508,0.561 -0.4398,1.181 -0.5654,1.794 0.221,-0.05 0.4491,-0.07 0.6806,-0.08 0.2583,-0.806 0.723,-1.689 1.4454,-2.787 1.464,-2.225 2.2964,-3.955 2.7461,-5.705 0.026,-0.1 0.091,-0.209 0.1452,-0.243 0.1025,-0.06 0.7945,-0.146 1.3348,-0.159 l 0.3157,-0.01 0.035,0.159 c 0.019,0.09 0.056,0.958 0.082,1.934 0.058,2.186 0.1508,4.625 0.2506,6.799 h 0.3163 c 0.02,-2.635 0.032,-5.687 0.016,-6.969 l -0.023,-1.946 h 0.5483 c 0.3016,0 0.7271,0.02 0.9456,0.05 l 0.3974,0.05 0.1241,0.507 c 0.1679,0.687 0.4298,1.395 0.7689,2.076 0.4563,0.917 0.7236,1.323 1.8557,2.819 0.9074,1.199 1.5327,2.346 1.8671,3.411 h 0.7017 c -0.12,-0.499 -0.3004,-1.021 -0.5426,-1.571 -0.3161,-0.718 -0.7158,-1.393 -1.6536,-2.794 -1.196,-1.786 -1.6642,-2.61 -2.1518,-3.787 -0.2072,-0.5 -0.2114,-0.493 0.2124,-0.394 0.8659,0.201 2.0351,0.698 2.8753,1.223 1.6472,1.028 2.5746,2.104 3.254,3.777 0.2179,0.537 0.3395,0.742 0.3395,0.567 -8e-4,-0.114 -0.3219,-1.193 -0.4526,-1.522 -0.1942,-0.488 -0.5608,-1.132 -0.9235,-1.62 -0.4104,-0.553 -1.1679,-1.33 -1.6438,-1.685 -0.8404,-0.628 -1.8266,-1.084 -3.3244,-1.539 -0.2744,-0.08 -0.5052,-0.173 -0.5152,-0.199 -0.01,-0.03 0.1235,-0.188 0.294,-0.36 0.2439,-0.246 0.3625,-0.328 0.5545,-0.389 0.5138,-0.162 1.0586,-0.08 1.8035,0.285 0.5732,0.278 1.1051,0.655 1.8619,1.321 0.5674,0.499 0.5867,0.511 0.416,0.273 -1.2071,-1.687 -2.4174,-2.502 -3.7072,-2.502 -0.8532,0 -1.4661,0.331 -1.817,0.978 -0.1,0.184 -0.1446,0.231 -0.2356,0.221 -0.062,0 -0.3586,-0.02 -0.6589,-0.03 -0.3003,-0.02 -0.6926,-0.04 -0.8718,-0.06 l -0.3255,-0.03 -0.053,-0.393 c -0.077,-0.578 -0.2262,-1.519 -0.2552,-1.611 -0.013,-0.04 -0.025,-0.06 -0.038,-0.07 z"
       id="path1916" /></g></svg>
