<?xml version="1.0" encoding="UTF-8" standalone="no"?>
<svg
   width="468.29688"
   height="155.80664"
   viewBox="0 0 123.90355 41.223841"
   version="1.1"
   id="svg16"
   xml:space="preserve"
   xmlns="http://www.w3.org/2000/svg"
   xmlns:svg="http://www.w3.org/2000/svg"
   xmlns:rdf="http://www.w3.org/1999/02/22-rdf-syntax-ns#"
   xmlns:cc="http://creativecommons.org/ns#"
   xmlns:dc="http://purl.org/dc/elements/1.1/"><defs
     id="defs10" /><metadata
     id="metadata13"><rdf:RDF><cc:Work
         rdf:about=""><dc:format>image/svg+xml</dc:format><dc:type
           rdf:resource="http://purl.org/dc/dcmitype/StillImage" /></cc:Work></rdf:RDF></metadata><g
     id="layer1"
     transform="translate(1880.6263,-7508.0282)"><text
       xml:space="preserve"
       style="font-style:normal;font-variant:normal;font-weight:normal;font-stretch:normal;font-size:52.8077px;line-height:1.25;font-family:'FONTSPRING DEMO - Flexible H200 W400';-inkscape-font-specification:'FONTSPRING DEMO - Flexible H200 W400, Normal';font-variant-ligatures:normal;font-variant-caps:normal;font-variant-numeric:normal;font-variant-east-asian:normal;text-align:center;text-anchor:middle;fill:#fafafa;fill-opacity:1;stroke-width:0.209815"
       x="-1818.6747"
       y="7527.8726"
       id="text1865"><tspan
         id="tspan1865"
         style="font-style:normal;font-variant:normal;font-weight:normal;font-stretch:normal;font-size:52.8077px;font-family:'FONTSPRING DEMO - Flexible H200 W400';-inkscape-font-specification:'FONTSPRING DEMO - Flexible H200 W400, Normal';font-variant-ligatures:normal;font-variant-caps:normal;font-variant-numeric:normal;font-variant-east-asian:normal;fill:#fafafa;fill-opacity:1;stroke-width:0.209815"
         x="-1818.6747"
         y="7527.8726">COMETS</tspan></text><path
       id="path1865"
       style="fill:#ffffff;fill-opacity:1;stroke-width:0.793003;stroke-linecap:square;paint-order:stroke fill markers"
       d="m -1880.6263,7529.819 v 19.4329 h 123.6886 v -12.8892 l -6.5423,-6.5437 z m 19.3745,2.0991 h 96.9026 l 5.3144,5.3138 v 9.9214 h -102.217 z m -9.9187,0.9596 c 1.4024,0 2.6227,0.3656 3.7718,1.1296 1.4859,0.988 2.5176,2.4937 2.9016,4.2354 0.1965,0.891 0.1965,2.0132 0,2.9043 -0.2233,1.0126 -0.6944,2.0034 -1.3342,2.8065 -1.0854,1.3629 -2.7106,2.2815 -4.4334,2.5073 -0.3124,0.041 -1.0538,0.071 -1.2929,0.053 v -6e-4 c -0.6763,-0.053 -1.176,-0.1497 -1.7756,-0.3467 -0.7244,-0.2382 -1.4894,-0.6517 -2.0955,-1.1322 -0.2747,-0.2177 -0.8638,-0.8064 -1.0816,-1.0811 -0.7755,-0.9782 -1.2625,-2.1275 -1.4314,-3.3776 -0.054,-0.4048 -0.062,-1.281 -0.013,-1.6686 0.2555,-2.0373 1.3257,-3.7785 3.0122,-4.9 1.1504,-0.7649 2.3682,-1.1296 3.7719,-1.1296 z m -0.077,0.7829 c -0.5507,0.01 -1.1008,0.085 -1.6289,0.2398 l -0.2925,0.086 -0.019,0.2025 c -0.024,0.2541 3e-4,1.1092 0.04,1.3405 0.016,0.095 0.048,0.2666 0.072,0.3804 0.048,0.2309 0.055,0.2353 0.2507,0.1664 h 10e-4 c 0.2347,-0.082 0.8263,-0.2326 1.2666,-0.3204 1.1671,-0.2326 2.4133,-0.3019 3.5512,-0.1979 0.3516,0.032 0.9739,0.1189 1.2149,0.1695 0.089,0.02 0.1694,0.029 0.185,0.025 h 5e-4 l 6e-4,-5e-4 h 5e-4 v -5e-4 h 5e-4 v -5e-4 -6e-4 -5e-4 -5e-4 c 0,-0.022 -0.1533,-0.1729 -0.3364,-0.3519 -0.533,-0.5213 -1.0189,-0.8639 -1.6542,-1.1658 -0.8161,-0.388 -1.7347,-0.5806 -2.6525,-0.57 z m -2.7787,0.7126 c -0.069,0.018 -0.5119,0.2999 -0.7524,0.4785 -0.3498,0.26 -0.8674,0.7659 -1.1405,1.1147 l -0.2108,0.2697 0.077,0.3551 c 0.3807,1.7787 1.2062,3.453 2.4241,4.918 0.2622,0.3153 0.8502,0.9343 0.8878,0.9343 h 5e-4 5e-4 l 6e-4,-5e-4 c 0.018,-0.01 0.1124,-0.1397 0.2185,-0.2997 h -10e-4 c 0.3904,-0.5881 0.665,-1.2 0.8325,-1.8531 0.05,-0.1972 0.092,-0.3756 0.092,-0.3959 0,-0.021 -0.075,-0.1068 -0.1664,-0.1922 -0.6807,-0.6358 -1.1299,-1.2382 -1.5301,-2.0511 -0.4469,-0.9081 -0.6599,-1.7822 -0.6956,-2.8571 -0.01,-0.2239 -0.024,-0.4065 -0.036,-0.4202 v -5e-4 h -5e-4 z m 4.9382,1.9441 c -0.9612,2e-4 -1.2715,0.023 -2.0019,0.1488 -0.6394,0.1102 -1.6508,0.373 -1.6821,0.4356 v 5e-4 6e-4 5e-4 5e-4 c 0,0.047 0.334,0.7153 0.4542,0.9085 0.2267,0.3642 0.5766,0.8048 0.8847,1.1136 l 0.3127,0.3132 0.1044,-0.037 c 0.1883,-0.066 0.6013,-0.1715 0.8867,-0.2254 0.9204,-0.1738 2.0021,-0.1402 2.9094,0.089 0.5929,0.1502 1.3966,0.4869 1.8702,0.7835 0.095,0.061 0.1824,0.1088 0.1933,0.1095 h 5e-4 5e-4 l 5e-4,-5e-4 v -5e-4 l 5e-4,-5e-4 c 0.01,-0.017 0.019,-0.1592 0.019,-0.3318 v 0 c 0,-0.8505 -0.2057,-1.7444 -0.5834,-2.5342 l -0.1576,-0.3292 -0.1437,-0.041 c -0.5237,-0.1504 -1.1401,-0.2745 -1.772,-0.3561 -0.2978,-0.038 -0.5615,-0.048 -1.295,-0.048 z m -7.6295,1.0071 c -0.021,0 -0.042,0.069 -0.084,0.1768 -0.666,1.7272 -0.506,3.6736 0.4336,5.2699 0.082,0.1389 0.2407,0.3763 0.3529,0.5271 0.2193,0.2946 0.877,0.9876 0.9374,0.9876 0.021,0 0.1462,-0.055 0.2801,-0.122 0.4618,-0.2321 0.9556,-0.573 1.3441,-0.9281 l 0.1871,-0.171 -0.3339,-0.3452 c -1.391,-1.4377 -2.4691,-3.2561 -2.9889,-5.0416 -0.073,-0.2524 -0.1,-0.3573 -0.1277,-0.3535 -3e-4,10e-5 -7e-4,0 -10e-4,0 z m 7.7463,2.3245 c -0.5491,0.01 -1.1202,0.097 -1.6666,0.2599 l -0.1751,0.053 -0.046,0.2429 c -0.067,0.3506 -0.239,0.889 -0.4067,1.2769 -0.5877,1.3585 -1.5837,2.4817 -2.8505,3.2138 l -0.2356,0.1359 0.1023,0.064 c 0.2454,0.1528 0.8279,0.4165 1.1642,0.5271 0.513,0.1689 1.1562,0.2931 1.5777,0.3044 0.1233,0 0.1395,0 0.3184,-0.1633 v 0 c 0.2198,-0.1947 0.6883,-0.7032 0.9684,-1.0511 1.0083,-1.2528 1.8175,-2.87 2.2097,-4.4158 l 0.091,-0.3607 -0.067,-0.019 c -0.037,-0.01 -0.2368,-0.033 -0.4439,-0.05 -0.1763,-0.015 -0.357,-0.02 -0.54,-0.017 z m 1.8547,0.2676 c -0.038,0 -0.054,0.059 -0.1251,0.3432 -0.3167,1.2584 -0.9302,2.6539 -1.6526,3.7589 -0.2747,0.4202 -0.6654,0.939 -0.9912,1.3162 l -0.2723,0.3152 0.1013,-0.017 c 0.055,-0.01 0.216,-0.046 0.3566,-0.081 0.8228,-0.2038 1.6608,-0.6228 2.3342,-1.1674 0.3069,-0.2484 0.7984,-0.7614 1.0377,-1.0832 0.3647,-0.4906 0.6627,-1.0496 0.8567,-1.6055 0.1139,-0.3262 0.231,-0.7909 0.2109,-0.8336 -0.036,-0.06 -0.6084,-0.4127 -0.9173,-0.5674 -0.3036,-0.1523 -0.7393,-0.3315 -0.9079,-0.3736 -0.012,0 -0.022,-0.01 -0.031,0 z" /><text
       xml:space="preserve"
       style="font-style:normal;font-variant:normal;font-weight:bold;font-stretch:normal;font-size:14.7624px;line-height:1.25;font-family:'TT Mussels';-inkscape-font-specification:'TT Mussels, Bold';font-variant-ligatures:normal;font-variant-caps:normal;font-variant-numeric:normal;font-variant-east-asian:normal;text-align:center;letter-spacing:1.04908px;text-anchor:middle;fill:#fcfcfc;fill-opacity:1;stroke-width:0.209815"
       x="-1810.4171"
       y="7544.6113"
       id="text1866"><tspan
         id="tspan1866"
         style="font-style:normal;font-variant:normal;font-weight:bold;font-stretch:normal;font-size:14.7624px;font-family:'TT Mussels';-inkscape-font-specification:'TT Mussels, Bold';font-variant-ligatures:normal;font-variant-caps:normal;font-variant-numeric:normal;font-variant-east-asian:normal;letter-spacing:1.04908px;fill:#fcfcfc;fill-opacity:1;stroke-width:0.209815"
         x="-1809.8926"
         y="7544.6113">VOLLEYBALL</tspan></text></g></svg>
