<?xml version="1.0" encoding="UTF-8" standalone="no"?>
<svg
   width="468.29688"
   height="155.80859"
   viewBox="0 0 123.90355 41.224358"
   version="1.1"
   id="svg16"
   xml:space="preserve"
   xmlns="http://www.w3.org/2000/svg"
   xmlns:svg="http://www.w3.org/2000/svg"
   xmlns:rdf="http://www.w3.org/1999/02/22-rdf-syntax-ns#"
   xmlns:cc="http://creativecommons.org/ns#"
   xmlns:dc="http://purl.org/dc/elements/1.1/"><defs
     id="defs10" /><metadata
     id="metadata13"><rdf:RDF><cc:Work
         rdf:about=""><dc:format>image/svg+xml</dc:format><dc:type
           rdf:resource="http://purl.org/dc/dcmitype/StillImage" /></cc:Work></rdf:RDF></metadata><g
     id="layer1"
     transform="translate(2148.7634,-7224.994)"><path
       d="m -2142.7045,7245.1725 h 7.2263 c 6.2257,0 6.2257,-5.114 6.2257,-7.8378 v -1.6398 h -5.3085 v 1.473 c 0,1.7788 -0.083,2.3347 -1.0006,2.3347 h -6.865 c -0.8338,0 -0.945,-0.6115 -0.945,-2.3902 v -4.0023 c 0,-1.8066 0.1112,-2.4458 0.9172,-2.4458 h 6.865 c 0.945,0 1.0284,0.5836 1.0284,2.418 v 1.1951 h 5.3085 v -1.4175 c 0,-2.7237 -0.028,-7.8655 -6.2257,-7.8655 h -7.2263 c -6.0312,0 -6.059,5.3363 -6.059,7.8655 v 4.4748 c 0,2.5292 0,7.8378 6.059,7.8378 z m 20.6506,0 h 7.2541 c 6.2258,0 6.2258,-5.114 6.2258,-7.8378 v -4.4748 c 0,-2.7237 -0.028,-7.8377 -6.2258,-7.8655 h -7.2541 c -6.198,0.028 -6.2258,5.1418 -6.2258,7.8655 v 4.4748 c 0,2.7238 0,7.8378 6.2258,7.8378 z m -0.8894,-8.1713 v -3.7799 c 0,-1.9178 0.139,-2.5292 1.1673,-2.557 h 6.6983 c 1.0283,0.028 1.1673,0.6114 1.1673,2.557 v 3.7799 c 0,1.9177 -0.1668,2.5014 -1.1673,2.5014 h -6.6983 c -1.0283,0 -1.1673,-0.5837 -1.1673,-2.5014 z m 15.481,7.8378 h 5.2529 v -7.6988 c 0,-0.6115 -0.028,-1.6677 -0.1389,-2.4737 l 0.2223,-0.056 c 0.056,0.3336 0.3335,0.8894 0.5559,1.3897 l 3.9467,6.8094 h 3.8077 l 4.03,-6.6426 c 0.1946,-0.5003 0.4169,-1.1118 0.5003,-1.5009 l 0.2224,0.056 c -0.083,0.7504 -0.1668,1.5842 -0.1668,2.3069 v 7.81 h 5.2808 v -19.4555 h -6.2536 l -4.9472,8.1435 c -0.1946,0.5837 -0.5003,1.6398 -0.5003,2.0567 h -0.1946 c 0,-0.4169 -0.1945,-1.473 -0.4169,-2.0567 l -4.9472,-8.1435 h -6.2535 z m 24.9029,0 h 17.1208 v -5.6699 h -11.7844 v -1.5009 h 11.7844 v -5.1418 h -11.7844 v -1.473 h 11.7844 v -5.6699 h -17.1208 z m 25.042,0 h 5.5031 v -13.8412 h 6.8094 v -5.6143 h -19.1219 v 5.6143 h 6.8094 z m 19.1497,0.3335 h 7.0318 c 4.0856,0 6.4759,-2.0567 6.4759,-5.9478 v -0.083 c -0.028,-4.1968 -2.6404,-5.2808 -5.9479,-6.0034 -5.642,-0.806 -8.199,-1.0284 -8.199,-1.6954 v -0.083 c 0,-0.4447 0.3335,-0.7226 0.7782,-0.7226 h 6.9761 c 0.7505,0 0.9728,0.6392 0.9728,1.3618 v 0.3336 h 5.3642 v -0.8338 c 0,-5.3642 -3.502,-6.5037 -6.4759,-6.5037 h -7.0318 c -3.9189,0 -6.2813,1.7232 -6.2813,5.7532 v 0.083 c 0.028,3.8355 2.3346,5.3642 5.3641,6.0034 7.8378,0.9728 8.7828,1.2507 8.7828,1.8622 v 0.2223 c 0,0.3614 -0.3335,0.6115 -0.8616,0.6393 l -6.9762,-0.028 c -0.3891,0 -1.0006,-0.4725 -1.0006,-1.3897 v -0.4447 h -5.3919 v 0.3613 c 0,4.6971 2.1679,7.1152 6.4203,7.1152 z"
       id="text1865"
       style="font-size:52.8077px;line-height:1.25;font-family:'FONTSPRING DEMO - Flexible H200 W400';-inkscape-font-specification:'FONTSPRING DEMO - Flexible H200 W400, Normal';text-align:center;text-anchor:middle;fill:#fcfcfc;fill-opacity:1;stroke-width:0.209815"
       aria-label="COMETS" /><path
       id="path1865"
       style="fill:#ffffff;fill-opacity:1;stroke-width:0.793003;stroke-linecap:square;paint-order:stroke fill markers"
       d="m -2148.7634,7246.7854 v 19.4329 h 123.6886 v -12.8892 l -6.5423,-6.5437 z m 19.3745,2.0991 h 96.9026 l 5.3144,5.3138 v 9.9214 h -102.217 z m -9.9187,0.9596 c 1.4024,0 2.6227,0.3656 3.7718,1.1296 1.4859,0.988 2.5176,2.4937 2.9016,4.2354 0.1965,0.891 0.1965,2.0132 0,2.9043 -0.2233,1.0126 -0.6944,2.0034 -1.3342,2.8065 -1.0854,1.3629 -2.7106,2.2815 -4.4334,2.5073 -0.3124,0.041 -1.0538,0.071 -1.2929,0.053 v -6e-4 c -0.6763,-0.053 -1.176,-0.1497 -1.7756,-0.3467 -0.7244,-0.2382 -1.4894,-0.6517 -2.0955,-1.1322 -0.2747,-0.2177 -0.8638,-0.8064 -1.0816,-1.0811 -0.7755,-0.9782 -1.2625,-2.1275 -1.4314,-3.3776 -0.054,-0.4048 -0.062,-1.281 -0.013,-1.6686 0.2555,-2.0373 1.3257,-3.7785 3.0122,-4.9 1.1504,-0.7649 2.3682,-1.1296 3.7719,-1.1296 z m -0.077,0.7829 c -0.5507,0.01 -1.1008,0.085 -1.6289,0.2398 l -0.2925,0.086 -0.019,0.2025 c -0.024,0.2541 3e-4,1.1092 0.04,1.3405 0.016,0.095 0.048,0.2666 0.072,0.3804 0.048,0.2309 0.055,0.2353 0.2507,0.1664 v 0 c 0.2347,-0.082 0.8263,-0.2326 1.2666,-0.3204 1.1671,-0.2326 2.4133,-0.3019 3.5512,-0.1979 0.3516,0.032 0.9739,0.1189 1.2149,0.1695 0.089,0.02 0.1694,0.029 0.185,0.025 h 5e-4 l 6e-4,-5e-4 h 5e-4 v -5e-4 h 5e-4 v -5e-4 -6e-4 -5e-4 -5e-4 c 0,-0.022 -0.1533,-0.1729 -0.3364,-0.3519 -0.533,-0.5213 -1.0189,-0.8639 -1.6542,-1.1658 -0.8161,-0.388 -1.7347,-0.5806 -2.6525,-0.57 z m -2.7787,0.7126 c -0.069,0.018 -0.5119,0.2999 -0.7524,0.4785 -0.3498,0.26 -0.8674,0.7659 -1.1405,1.1147 l -0.2108,0.2697 0.077,0.3551 c 0.3807,1.7787 1.2062,3.453 2.4241,4.918 0.2622,0.3153 0.8502,0.9343 0.8878,0.9343 h 5e-4 5e-4 l 6e-4,-5e-4 c 0.018,-0.01 0.1124,-0.1397 0.2185,-0.2997 v 0 c 0.3904,-0.5881 0.665,-1.2 0.8325,-1.8531 0.05,-0.1972 0.092,-0.3756 0.092,-0.3959 0,-0.021 -0.075,-0.1068 -0.1664,-0.1922 -0.6807,-0.6358 -1.1299,-1.2382 -1.5301,-2.0511 -0.4469,-0.9081 -0.6599,-1.7822 -0.6956,-2.8571 -0.01,-0.2239 -0.024,-0.4065 -0.036,-0.4202 v -5e-4 h -5e-4 z m 4.9382,1.9441 c -0.9612,2e-4 -1.2715,0.023 -2.0019,0.1488 -0.6394,0.1102 -1.6508,0.373 -1.6821,0.4356 v 5e-4 6e-4 5e-4 5e-4 c 0,0.047 0.334,0.7153 0.4542,0.9085 0.2267,0.3642 0.5766,0.8048 0.8847,1.1136 l 0.3127,0.3132 0.1044,-0.037 c 0.1883,-0.066 0.6013,-0.1715 0.8867,-0.2254 0.9204,-0.1738 2.0021,-0.1402 2.9094,0.089 0.5929,0.1502 1.3966,0.4869 1.8702,0.7835 0.095,0.061 0.1824,0.1088 0.1933,0.1095 h 5e-4 5e-4 l 5e-4,-5e-4 v -5e-4 l 5e-4,-5e-4 c 0.01,-0.017 0.019,-0.1592 0.019,-0.3318 v 0 c 0,-0.8505 -0.2057,-1.7444 -0.5834,-2.5342 l -0.1576,-0.3292 -0.1437,-0.041 c -0.5237,-0.1504 -1.1401,-0.2745 -1.772,-0.3561 -0.2978,-0.038 -0.5615,-0.048 -1.295,-0.048 z m -7.6295,1.0071 c -0.021,0 -0.042,0.069 -0.084,0.1768 -0.666,1.7272 -0.506,3.6736 0.4336,5.2699 0.082,0.1389 0.2407,0.3763 0.3529,0.5271 0.2193,0.2946 0.877,0.9876 0.9374,0.9876 0.021,0 0.1462,-0.055 0.2801,-0.122 0.4618,-0.2321 0.9556,-0.573 1.3441,-0.9281 l 0.1871,-0.171 -0.3339,-0.3452 c -1.391,-1.4377 -2.4691,-3.2561 -2.9889,-5.0416 -0.073,-0.2524 -0.1,-0.3573 -0.1277,-0.3535 -3e-4,1e-4 -7e-4,0 0,0 z m 7.7463,2.3245 c -0.5491,0.01 -1.1202,0.097 -1.6666,0.2599 l -0.1751,0.053 -0.046,0.2429 c -0.067,0.3506 -0.239,0.889 -0.4067,1.2769 -0.5877,1.3585 -1.5837,2.4817 -2.8505,3.2138 l -0.2356,0.1359 0.1023,0.064 c 0.2454,0.1528 0.8279,0.4165 1.1642,0.5271 0.513,0.1689 1.1562,0.2931 1.5777,0.3044 0.1233,0 0.1395,0 0.3184,-0.1633 v 0 c 0.2198,-0.1947 0.6883,-0.7032 0.9684,-1.0511 1.0083,-1.2528 1.8175,-2.87 2.2097,-4.4158 l 0.091,-0.3607 -0.067,-0.019 c -0.037,-0.01 -0.2368,-0.033 -0.4439,-0.05 -0.1763,-0.015 -0.357,-0.02 -0.54,-0.017 z m 1.8547,0.2676 c -0.038,0 -0.054,0.059 -0.1251,0.3432 -0.3167,1.2584 -0.9302,2.6539 -1.6526,3.7589 -0.2747,0.4202 -0.6654,0.939 -0.9912,1.3162 l -0.2723,0.3152 0.1013,-0.017 c 0.055,-0.01 0.216,-0.046 0.3566,-0.081 0.8228,-0.2038 1.6608,-0.6228 2.3342,-1.1674 0.3069,-0.2484 0.7984,-0.7614 1.0377,-1.0832 0.3647,-0.4906 0.6627,-1.0496 0.8567,-1.6055 0.1139,-0.3262 0.231,-0.7909 0.2109,-0.8336 -0.036,-0.06 -0.6084,-0.4127 -0.9173,-0.5674 -0.3036,-0.1523 -0.7393,-0.3315 -0.9079,-0.3736 -0.012,0 -0.022,-0.01 -0.031,0 z" /><path
       d="m -2122.4264,7259.3504 h -0.1154 l -0.2378,-1.211 -1.6363,-6.8189 h -2.5733 l 2.8328,10.2572 h 3.1932 l 2.7031,-10.2572 h -2.2778 l -1.6362,6.8189 z m 7.9401,2.2994 h 4.8367 l 1.6291,-1.6218 v -7.1578 l -1.6291,-1.629 h -4.8367 l -1.6291,1.629 v 7.1578 z m 4.1303,-2.494 -0.6055,0.6055 h -2.2129 l -0.6055,-0.6055 v -5.4134 l 0.6055,-0.6055 h 2.2129 l 0.6055,0.6055 z m 7.9257,0.3964 v -8.2317 h -2.3283 v 10.2572 h 6.7469 v -2.0255 z m 9.2664,0 v -8.2317 h -2.3282 v 10.2572 h 6.7469 v -2.0255 z m 13.6274,2.0255 v -1.8741 h -4.3609 v -2.4652 h 3.8708 v -1.7444 h -3.8708 v -2.2994 h 4.3609 v -1.8741 h -6.6892 v 10.2572 z m 1.7123,-10.2572 3.1139,6.7324 v 3.5248 h 2.5805 v -3.5248 l 3.0996,-6.7324 h -2.2274 l -1.6362,3.8491 -0.2812,1.1389 h -0.079 l -0.2595,-1.1389 -1.6435,-3.8491 z m 10.8738,0 v 10.2572 h 6.2279 l 1.6219,-1.6218 v -2.3787 l -1.3984,-1.4056 1.0451,-1.0452 v -2.1841 l -1.6218,-1.6218 z m 5.1683,3.6257 -0.5622,0.5622 h -2.2778 v -2.4508 h 2.2345 l 0.6055,0.6055 z m 0.3532,4.2817 -0.6055,0.6054 h -2.5877 v -2.667 h 2.5877 l 0.6055,0.6055 z m 12.8489,2.3498 -3.1139,-10.2572 h -2.6959 l -2.9265,10.2572 h 2.2273 l 0.5767,-2.1264 h 2.804 l 0.5766,2.1264 z m -4.57,-7.9578 h 0.1153 l 0.2091,1.211 0.764,2.7895 h -2.0831 l 0.7713,-2.7895 z m 9.1295,5.9323 v -8.2317 h -2.3283 v 10.2572 h 6.7469 v -2.0255 z m 9.2664,0 v -8.2317 h -2.3282 v 10.2572 h 6.7468 v -2.0255 z"
       id="text1866"
       style="font-weight:bold;font-size:14.7624px;line-height:1.25;font-family:'TT Mussels';-inkscape-font-specification:'TT Mussels, Bold';text-align:center;letter-spacing:1.04908px;text-anchor:middle;fill:#fafafa;fill-opacity:1;stroke-width:0.209815"
       aria-label="VOLLEYBALL" /></g></svg>
