<?xml version="1.0" encoding="UTF-8" standalone="no"?>
<svg
   width="388.58545"
   height="141.02344"
   viewBox="0 0 102.81323 37.312452"
   version="1.1"
   id="svg16"
   xml:space="preserve"
   xmlns="http://www.w3.org/2000/svg"
   xmlns:svg="http://www.w3.org/2000/svg"
   xmlns:rdf="http://www.w3.org/1999/02/22-rdf-syntax-ns#"
   xmlns:cc="http://creativecommons.org/ns#"
   xmlns:dc="http://purl.org/dc/elements/1.1/"><defs
     id="defs10" /><metadata
     id="metadata13"><rdf:RDF><cc:Work
         rdf:about=""><dc:format>image/svg+xml</dc:format><dc:type
           rdf:resource="http://purl.org/dc/dcmitype/StillImage" /></cc:Work></rdf:RDF></metadata><g
     id="layer1"
     transform="translate(2160.44,-7143.6609)"><path
       id="path3367"
       style="fill:#d40000;fill-opacity:1;stroke-width:0.379541"
       d="m -2129.4478,7156.8174 c -1.0522,0 -1.9562,0.095 -2.712,0.2843 -0.7558,0.1894 -1.3954,0.5263 -1.9192,1.0102 -0.5238,0.4841 -0.9801,1.1466 -1.3695,1.9885 -0.3849,0.8208 -0.756,1.8731 -1.1131,3.157 -0.336,1.2837 -0.6986,2.8411 -1.0878,4.672 -0.3891,1.831 -0.6888,3.3879 -0.8986,4.6716 -0.1887,1.2838 -0.2672,2.3471 -0.2357,3.1889 0.036,0.8207 0.2127,1.4731 0.5307,1.957 0.318,0.4841 0.8146,0.8209 1.4899,1.0103 0.6753,0.1894 1.5394,0.2837 2.5916,0.2837 1.0734,0 1.9883,-0.094 2.744,-0.2837 0.7559,-0.1894 1.3954,-0.5262 1.9192,-1.0103 0.5448,-0.4839 0.9989,-1.1363 1.3627,-1.957 0.3894,-0.8418 0.7523,-1.9051 1.0883,-3.1889 0.3571,-1.2837 0.7302,-2.8406 1.1194,-4.6716 0.3891,-1.8309 0.6783,-3.3883 0.8671,-4.672 0.2097,-1.2839 0.2964,-2.3362 0.2604,-3.157 -0.01,-0.8419 -0.1854,-1.5044 -0.5245,-1.9885 -0.3179,-0.4839 -0.8145,-0.8208 -1.4898,-1.0102 -0.6752,-0.1895 -1.5497,-0.2843 -2.6231,-0.2843 z m 12.6266,0 c -1.0523,0 -1.9562,0.095 -2.712,0.2843 -0.7558,0.1894 -1.3954,0.5263 -1.9192,1.0102 -0.5238,0.4841 -0.9805,1.1466 -1.37,1.9885 -0.3848,0.8208 -0.7555,1.8731 -1.1126,3.157 -0.336,1.2837 -0.6991,2.8411 -1.0883,4.672 -0.3892,1.831 -0.6884,3.3879 -0.8981,4.6716 -0.1887,1.2838 -0.2671,2.3471 -0.2356,3.1889 0.036,0.8207 0.2131,1.4731 0.5312,1.957 0.318,0.4841 0.8146,0.8209 1.4898,1.0103 0.6753,0.1894 1.5388,0.2837 2.5911,0.2837 1.0733,0 1.9882,-0.094 2.744,-0.2837 0.7557,-0.1894 1.3955,-0.5262 1.9193,-1.0103 0.5448,-0.4839 0.9989,-1.1363 1.3627,-1.957 0.3894,-0.8418 0.7522,-1.9051 1.0883,-3.1889 0.357,-1.2837 0.7301,-2.8406 1.1193,-4.6716 0.3891,-1.8309 0.6779,-3.3883 0.8666,-4.672 0.2097,-1.2839 0.2964,-2.3362 0.2604,-3.157 -0.01,-0.8419 -0.1849,-1.5044 -0.524,-1.9885 -0.3179,-0.4839 -0.8145,-0.8208 -1.4898,-1.0102 -0.6752,-0.1895 -1.5498,-0.2843 -2.6231,-0.2843 z m -27.5482,0.2527 -4.6162,21.7186 h 4.3563 l 1.8386,-8.6496 h 3.6303 l 0.8118,-3.8194 h -3.6302 l 1.1539,-5.4296 h 4.1672 l 0.8118,-3.82 z m 33.5236,0 -0.832,3.914 h 3.2515 l -3.7848,17.8046 h 4.3883 l 3.7848,-17.8046 h 3.251 l 0.832,-3.914 z m 11.4587,0 -4.6168,21.7186 h 6.2823 c 0.884,0 1.6556,-0.1159 2.3151,-0.3473 0.6851,-0.2526 1.2686,-0.6208 1.7503,-1.1048 0.5028,-0.4841 0.9245,-1.0834 1.2661,-1.7989 0.3459,-0.7367 0.622,-1.5893 0.8278,-2.5574 0.2505,-1.1786 0.3446,-2.1153 0.2817,-2.8097 -0.042,-0.6945 -0.2228,-1.2308 -0.5421,-1.6097 -0.2983,-0.3788 -0.7576,-0.6418 -1.3787,-0.7891 l 0.026,-0.1266 c 0.6506,-0.1895 1.2052,-0.4732 1.6645,-0.8521 0.4639,-0.3998 0.8645,-0.9472 1.2015,-1.6418 0.3581,-0.6944 0.6491,-1.5677 0.8728,-2.62 0.2684,-1.2627 0.3087,-2.2941 0.1209,-3.0939 -0.1878,-0.7997 -0.5994,-1.3885 -1.2345,-1.7673 -0.6305,-0.3999 -1.4822,-0.6 -2.5554,-0.6 z m 14.6151,0 -7.9938,21.7186 h 4.3248 l 1.5074,-4.4194 h 3.3776 l -0.3711,4.4194 h 4.4199 l 1.2387,-21.7186 z m 10.4485,0 -4.6163,21.7186 h 8.4605 l 0.832,-3.9145 h -4.0726 l 3.7842,-17.8041 z m 9.1545,0 -4.6168,21.7186 h 8.4605 l 0.8319,-3.9145 h -4.0726 l 3.7848,-17.8041 z m -65.0906,3.5673 h 5e-4 5e-4 c 0.2942,0 0.5186,0.031 0.6733,0.094 0.1805,0.042 0.2984,0.1793 0.3545,0.4108 0.056,0.2315 0.049,0.6099 -0.02,1.1359 -0.044,0.5051 -0.1544,1.2207 -0.3302,2.1466 -0.1757,0.926 -0.4135,2.0942 -0.7132,3.5042 -0.2998,1.41 -0.5588,2.5782 -0.7767,3.5042 -0.2179,0.926 -0.4142,1.6519 -0.5891,2.1781 -0.1495,0.505 -0.3014,0.8734 -0.4558,1.1049 -0.1545,0.2315 -0.333,0.3787 -0.5358,0.4418 -0.1773,0.042 -0.4133,0.063 -0.708,0.063 -0.2736,0 -0.5006,-0.021 -0.6811,-0.063 -0.1549,-0.063 -0.2608,-0.2103 -0.3168,-0.4418 -0.056,-0.2315 -0.061,-0.5999 -0.017,-1.1049 0.069,-0.5262 0.1925,-1.2521 0.3684,-2.1781 l 0.7447,-3.5042 0.7451,-3.5042 c 0.2179,-0.9259 0.4014,-1.6415 0.5509,-2.1466 0.175,-0.526 0.3396,-0.9044 0.494,-1.1359 0.1544,-0.2315 0.3204,-0.3687 0.4977,-0.4108 0.2028,-0.063 0.4407,-0.094 0.7142,-0.094 z m 12.6266,0 h 5e-4 c 0.2945,0 0.519,0.031 0.6739,0.094 0.1805,0.042 0.2984,0.1793 0.3545,0.4108 0.056,0.2315 0.049,0.6099 -0.02,1.1359 -0.045,0.5051 -0.1543,1.2207 -0.3302,2.1466 -0.1757,0.926 -0.4134,2.0942 -0.7131,3.5042 -0.2997,1.41 -0.5588,2.5782 -0.7767,3.5042 -0.2179,0.926 -0.4143,1.6519 -0.5892,2.1781 -0.1495,0.505 -0.3013,0.8734 -0.4557,1.1049 -0.1544,0.2315 -0.3331,0.3787 -0.5359,0.4418 -0.1773,0.042 -0.4133,0.063 -0.708,0.063 -0.2736,0 -0.5007,-0.021 -0.6811,-0.063 -0.155,-0.063 -0.2602,-0.2103 -0.3162,-0.4418 -0.056,-0.2315 -0.061,-0.5999 -0.017,-1.1049 0.069,-0.5262 0.1927,-1.2521 0.3685,-2.1781 l 0.7446,-3.5042 0.7452,-3.5042 c 0.2179,-0.9259 0.4014,-1.6415 0.5509,-2.1466 0.175,-0.526 0.339,-0.9044 0.4935,-1.1359 0.1544,-0.2315 0.3208,-0.3687 0.4981,-0.4108 0.2026,-0.063 0.4405,-0.094 0.7137,-0.094 z m 21.7341,0.2206 h 1.0417 c 0.4629,0 0.7754,0.063 0.938,0.1897 0.1836,0.1263 0.2692,0.3682 0.2563,0.726 -0.013,0.3577 -0.098,0.9047 -0.2543,1.6413 -0.1476,0.6945 -0.3034,1.2314 -0.4681,1.6102 -0.1647,0.3788 -0.3681,0.6418 -0.6098,0.7891 -0.2373,0.1263 -0.5661,0.1897 -0.987,0.1897 h -1.0108 z m 13.3733,0.3473 h 0.1896 l -0.8702,9.4387 h -2.4939 z m -15.2389,8.4284 h 1.0103 c 0.4419,0 0.752,0.074 0.9312,0.2212 0.2046,0.1262 0.2991,0.3787 0.2817,0.7576 0,0.3788 -0.076,0.9471 -0.2367,1.7048 -0.161,0.7576 -0.3154,1.3364 -0.4636,1.7363 -0.1437,0.3788 -0.3337,0.6312 -0.571,0.7576 -0.2162,0.1262 -0.567,0.1896 -1.0511,0.1896 h -1.0413 z" /><path
       id="path3359"
       style="fill:#d30101;fill-opacity:1;stroke-width:0.379541"
       d="m -2129.8995,7146.154 c -2.6829,0.012 -3.1649,2.2239 -3.4153,3.4019 l -0.4113,1.9352 c -0.2504,1.1779 -0.7204,3.389 1.972,3.389 h 3.1367 c 2.6924,0 3.1624,-2.2111 3.4127,-3.389 l 0.4114,-1.9352 c 0.2504,-1.178 0.7089,-3.3898 -1.9689,-3.4019 z m 48.9986,0 c -2.6829,0.012 -3.1649,2.2239 -3.4153,3.4019 l -0.4119,1.9352 c -0.2504,1.1779 -0.7203,3.389 1.972,3.389 h 3.1373 c 2.6924,0 3.1623,-2.2111 3.4127,-3.389 l 0.4114,-1.9352 c 0.2504,-1.178 0.7084,-3.3898 -1.9694,-3.4019 z m -58.6104,0.168 -2.559,5e-4 -1.788,8.4139 h 2.2717 l 0.9855,-4.5795 c 0.028,-0.1322 0.049,-0.2887 0.061,-0.4569 0.024,-0.1683 0.036,-0.3366 0.047,-0.5048 l 0.1007,-0.024 c 0,0.048 0.013,0.1081 0.026,0.1561 0.022,0.1802 0.066,0.3127 0.108,0.3968 l 2.4686,5.0121 h 2.6081 l 1.7885,-8.4139 h -2.2722 l -1.0087,4.748 c -0.036,0.1682 -0.056,0.3721 -0.059,0.6124 l -0.013,0.06 -0.1007,0.024 c -0.043,-0.2524 -0.098,-0.445 -0.1659,-0.5772 z m 21.9522,0 -5.7826,5e-4 -1.788,8.4139 h 2.3078 l 0.5618,-2.6443 h 3.3414 c 0.3967,0 0.3126,0.5651 0.3074,0.5892 l -0.4366,2.0551 h 2.4159 c 0.086,-0.5168 0.2232,-1.3345 0.356,-1.9595 0.1942,-0.9135 -0.1571,-1.6346 -0.7581,-1.6346 l 0.02,-0.096 c 0.7212,0 1.5359,-1.1182 1.6867,-1.8273 l 0.057,-0.264 c 0.4599,-2.1635 -0.9906,-2.6329 -2.2887,-2.6329 z m 53.7657,0 -2.357,5e-4 -1.7885,8.4139 h 2.3559 l 0.447,-2.1037 c 0.051,-0.2404 0.077,-0.5888 0.075,-0.8051 l 0.1012,-0.024 c 0.019,0.1923 0.057,0.4686 0.138,0.649 l 2.0149,2.2841 h 3.4737 l -3.3394,-4.195 0.01,-0.036 5.0358,-4.1827 h -3.4137 l -3.0133,2.4159 c -0.1217,0.1201 -0.2964,0.4328 -0.3777,0.5891 l -0.089,-0.037 c 0.097,-0.2283 0.2289,-0.6246 0.2723,-0.8289 z m -50.3944,5e-4 -0.5157,2.4282 h 2.9445 l -1.2717,5.9857 h 2.3797 l 1.2717,-5.9857 h 2.9451 l 0.5162,-2.4282 z m 9.0341,0 -1.7885,8.4139 h 2.4283 l 0.6464,-3.0411 h 3.7977 l -0.6459,3.0411 h 2.4278 l 1.788,-8.4139 h -2.4278 l -0.6615,3.113 h -3.7987 l 0.662,-3.113 z m 12.2866,0 -1.789,8.4139 h 2.3084 l 0.5028,-2.3678 h 3.5579 c 1.7549,0 2.9458,-1.0219 3.3367,-2.8608 l 0.068,-0.325 c 0.3832,-1.803 -0.403,-2.8603 -2.1338,-2.8603 z m 18.5239,0 -1.788,8.4139 h 7.3675 l 0.5215,-2.4525 h -4.9041 l 1.2676,-5.9614 z m -55.9573,2.2836 h 2.8965 c 0.4422,0.012 0.4485,0.2645 0.2697,1.1058 l -0.3472,1.6346 c -0.1764,0.8294 -0.3022,1.0821 -0.7349,1.0821 h -2.8964 c -0.4447,0 -0.4517,-0.2527 -0.2755,-1.0821 l 0.3478,-1.6346 c 0.1763,-0.8293 0.2926,-1.0938 0.74,-1.1058 z m 48.9981,0 h 2.897 c 0.4422,0.012 0.4485,0.2645 0.2697,1.1058 l -0.3473,1.6346 c -0.1764,0.8294 -0.3022,1.0821 -0.7348,1.0821 h -2.897 c -0.4447,0 -0.4506,-0.2527 -0.2744,-1.0821 l 0.3473,-1.6346 c 0.1762,-0.8293 0.2923,-1.0938 0.7395,-1.1058 z m -9.7788,0.1684 h 3.4138 c 0.4327,0 0.4394,0.4207 0.401,0.601 l -0.02,0.096 c -0.08,0.3726 -0.3054,0.5891 -0.6299,0.5891 h -3.4375 z m -30.4813,0.036 h 3.4137 c 0.4447,0 0.3993,0.3249 0.3763,0.433 l -0.038,0.1804 c -0.023,0.1082 -0.123,0.4082 -0.5317,0.4082 h -3.4375 z" /><path
       id="path3343"
       style="fill:#ffffff;fill-opacity:1;stroke-width:0.379541"
       d="m -2146.4395,7143.6611 -1.9384,1.5374 c -2.6022,2.0635 -4.5416,4.0865 -6.4218,6.6983 -2.875,3.994 -4.5785,7.6828 -5.2736,11.5166 -0.232,1.2778 -0.3519,2.5716 -0.3659,3.8985 -0.05,4.836 2.0749,10.7236 4.8447,13.4188 0.1838,0.179 0.2893,0.2602 0.3126,0.2398 0.042,-0.045 -0.23,-0.4839 -0.8335,-1.3529 -0.7144,-1.0285 -1.2826,-1.9436 -1.2625,-2.034 0.019,-0.091 0.5935,0.081 1.2744,0.3829 1.4207,0.6286 2.9414,0.9474 4.9449,1.0082 l 0.7069,-3.3419 c -1.8413,-0.045 -3.6332,-0.2225 -5.193,-0.5317 -3.0744,-0.6091 -3.1825,-0.6963 -3.6524,-2.9714 -0.7274,-3.5216 -0.693,-5.5478 0.1612,-9.4305 0.8644,-3.9269 1.7288,-5.9815 4.0168,-9.5461 1.5506,-2.4157 1.6344,-2.4665 5.1852,-3.1363 1.1594,-0.2187 3.043,-0.3563 4.9847,-0.4056 l 0.7188,-3.4003 c -1.1367,0.066 -2.2094,0.1978 -3.0127,0.3922 -1.0451,0.253 -2.2633,0.6284 -2.7068,0.834 -0.4436,0.2058 -0.7871,0.2849 -0.7628,0.1757 0.023,-0.109 0.9958,-1.0428 2.1591,-2.0753 z m -5.9397,9.417 h 5e-4 -0.2672 c -0.6002,0.03 -1.2263,0.2257 -1.5534,0.5364 -0.3059,0.2909 -0.3335,0.405 -0.1312,0.5493 0.365,0.2615 -0.2617,1.4723 -0.8351,1.6139 -0.4384,0.1084 -0.5845,0.3005 -0.539,0.7105 0.011,0.098 0.1056,0.1504 0.2103,0.1179 0.232,-0.072 0.1915,0.1343 -0.2139,1.094 -0.2164,0.5124 -0.448,0.7389 -0.7555,0.7389 -0.2439,0 -0.4792,0.1597 -0.5225,0.355 -0.041,0.195 0.08,0.3546 0.2765,0.3545 0.2494,0 0.2983,0.2527 0.1654,0.8506 -0.1467,0.6509 -0.3062,0.8784 -0.6894,0.9731 -0.5802,0.1434 -0.8175,0.7783 -0.2909,0.7783 0.2477,0 0.299,0.2498 0.1705,0.8278 -0.1301,0.5782 -0.2912,0.8274 -0.539,0.8274 -0.2632,0 -0.4057,0.1593 -0.4181,0.3358 h -5e-4 c -0.012,0.1766 0.1057,0.3706 0.3638,0.4424 0.3413,0.095 0.4011,0.3226 0.2563,0.9736 -0.1342,0.5979 -0.2946,0.8494 -0.5441,0.8495 -0.1951,-10e-5 -0.3897,0.16 -0.4331,0.3551 -0.042,0.1971 0.1314,0.3545 0.3943,0.3545 0.2601,0 0.4517,0.093 0.4264,0.2077 -0.024,0.1138 -0.053,0.5437 -0.062,0.956 -0.012,0.5395 -0.096,0.7307 -0.2993,0.6806 -0.5391,-0.1331 -0.6259,0.5193 -0.098,0.7384 0.574,0.2385 0.7095,1.4357 0.1943,1.7157 -0.4778,0.2595 0.032,0.837 0.8862,1.0041 0.4164,0.081 1.0597,0.042 1.4299,-0.088 0.9092,-0.3191 1.0832,-1.056 0.2108,-0.896 -0.5035,0.092 -0.6521,-0.01 -0.7255,-0.461 -0.1346,-0.8533 -0.057,-0.9959 0.6299,-1.1591 0.9642,-0.2292 0.9227,-0.8061 -0.058,-0.8061 -0.6583,0 -0.8067,-0.093 -0.7265,-0.4533 0.058,-0.2497 0.075,-0.6155 0.043,-0.8123 -0.043,-0.2675 0.1438,-0.3766 0.7441,-0.4331 0.5335,-0.049 0.8603,-0.2142 0.9736,-0.4893 0.1396,-0.3393 -1e-4,-0.414 -0.7932,-0.414 -0.9433,0 -0.9594,-0.017 -0.7793,-0.8273 0.1614,-0.7179 0.2604,-0.8279 0.7565,-0.8279 1.5731,0 2.0478,-0.8809 0.5349,-0.9921 -0.9279,-0.068 -0.9789,-0.1161 -0.831,-0.7819 0.1499,-0.6656 0.2207,-0.7142 1.1788,-0.7824 1.5624,-0.1113 1.4791,-0.9917 -0.094,-0.9917 -0.4958,0 -0.5478,-0.1094 -0.3881,-0.8273 0.1777,-0.8106 0.2031,-0.8279 1.1477,-0.8279 0.7898,0 0.9657,-0.075 0.9767,-0.4134 0.01,-0.2753 -0.2441,-0.4402 -0.7555,-0.4904 -0.5751,-0.057 -0.7146,-0.1656 -0.5524,-0.433 0.1195,-0.1968 0.2626,-0.5613 0.3178,-0.8108 0.082,-0.3608 0.2703,-0.4537 0.9286,-0.4537 0.9805,0 1.2789,-0.5777 0.4165,-0.8067 -0.9558,-0.2541 -0.3481,-1.5587 0.7261,-1.5586 0.8922,0 1.0564,-0.6335 0.2517,-0.9679 -0.2036,-0.084 -0.4514,-0.1291 -0.7147,-0.1385 z" /></g></svg>
