<?xml version="1.0" encoding="UTF-8" standalone="no"?>
<svg
   width="351.90625"
   height="170.2168"
   viewBox="0 0 93.108527 45.036529"
   version="1.1"
   id="svg16"
   xml:space="preserve"
   xmlns="http://www.w3.org/2000/svg"
   xmlns:svg="http://www.w3.org/2000/svg"
   xmlns:rdf="http://www.w3.org/1999/02/22-rdf-syntax-ns#"
   xmlns:cc="http://creativecommons.org/ns#"
   xmlns:dc="http://purl.org/dc/elements/1.1/"><defs
     id="defs10" /><metadata
     id="metadata13"><rdf:RDF><cc:Work
         rdf:about=""><dc:format>image/svg+xml</dc:format><dc:type
           rdf:resource="http://purl.org/dc/dcmitype/StillImage" /></cc:Work></rdf:RDF></metadata><g
     id="layer1"
     transform="translate(2155.5923,-7086.2454)"><path
       id="path3388"
       style="fill:#000000;fill-opacity:1;stroke:none;stroke-width:0.609188"
       d="m -2072.534,7110.3453 -5e-4,6e-4 c -0.4423,0 -0.8426,0.034 -1.2015,0.1002 -0.3505,0.058 -0.6594,0.1751 -0.9265,0.3504 -0.2671,0.1668 -0.4964,0.4134 -0.6883,0.7389 -0.1835,0.3255 -0.3339,0.7588 -0.4507,1.3013 -0.05,0.2253 -0.092,0.4425 -0.125,0.6511 -0.025,0.2087 -0.038,0.4004 -0.038,0.5757 0,0.3505 0.063,0.6261 0.1881,0.8263 0.1334,0.2003 0.367,0.3302 0.7008,0.3886 l 1.3771,0.2625 c 0.2253,0.033 0.3963,0.071 0.5132,0.1126 0.1166,0.033 0.1957,0.079 0.2377,0.138 0.05,0.05 0.075,0.1292 0.075,0.2377 0,0.067 -0.01,0.1545 -0.025,0.2631 -0.017,0.1002 -0.038,0.2082 -0.063,0.325 -0.025,0.1169 -0.058,0.2296 -0.1003,0.338 -0.033,0.1085 -0.075,0.2048 -0.125,0.2883 -0.05,0.083 -0.1048,0.1457 -0.1633,0.1876 -0.075,0.05 -0.167,0.087 -0.2755,0.1127 -0.1001,0.025 -0.2248,0.042 -0.3751,0.05 -0.1419,0.01 -0.3169,0.012 -0.5256,0.012 -0.1586,0 -0.3548,1e-4 -0.5886,-0.012 -0.2252,-0.01 -0.4633,-0.021 -0.7136,-0.038 -0.2504,-0.025 -0.4965,-0.046 -0.7385,-0.063 l -0.3131,1.4526 c 0.242,0.042 0.5175,0.079 0.8263,0.1122 0.3087,0.033 0.6259,0.058 0.9513,0.075 0.3339,0.017 0.6468,0.025 0.939,0.025 v -5e-4 c 0.4257,0 0.8053,-0.029 1.139,-0.087 0.3338,-0.059 0.6259,-0.1756 0.8764,-0.3509 0.2587,-0.1753 0.4799,-0.4421 0.6635,-0.801 0.1919,-0.3589 0.3503,-0.8388 0.4755,-1.4397 0.041,-0.1502 0.071,-0.2918 0.088,-0.4253 0.025,-0.1336 0.042,-0.2588 0.05,-0.3757 0.01,-0.1168 0.012,-0.2213 0.012,-0.3131 0,-0.3421 -0.058,-0.601 -0.1751,-0.7762 -0.1085,-0.1836 -0.2547,-0.317 -0.4383,-0.4005 -0.1837,-0.083 -0.3927,-0.1457 -0.6263,-0.1876 l -1.2764,-0.2253 c -0.217,-0.042 -0.3671,-0.087 -0.4506,-0.1375 -0.084,-0.05 -0.1256,-0.1423 -0.1256,-0.2759 0,-0.1001 0.01,-0.2127 0.025,-0.338 0.016,-0.1251 0.046,-0.2499 0.088,-0.3751 0.042,-0.1252 0.092,-0.2337 0.1504,-0.3256 0.058,-0.1001 0.1208,-0.1752 0.1876,-0.2253 0.075,-0.058 0.1628,-0.1005 0.263,-0.1256 0.1001,-0.025 0.2209,-0.042 0.3628,-0.05 0.1419,-0.017 0.3133,-0.025 0.5136,-0.025 0.2253,0 0.4593,0.01 0.7013,0.025 0.2421,0.01 0.4673,0.021 0.6759,0.038 0.217,0.017 0.3961,0.038 0.5379,0.063 l 0.3132,-1.4521 c -0.1501,-0.042 -0.3547,-0.079 -0.6134,-0.1127 -0.2587,-0.033 -0.5428,-0.059 -0.8516,-0.075 -0.3088,-0.025 -0.6214,-0.038 -0.9385,-0.038 z m -33.8,0.1008 -0.3385,1.6144 h 1.9281 l -1.4893,6.998 h 1.9146 l 1.4903,-6.998 h 1.94 l 0.3503,-1.6144 z m 6.6973,0 -1.8402,8.6124 h 4.9568 l 0.3261,-1.5524 h -3.0422 l 0.4377,-2.0277 h 2.6045 l 0.325,-1.54 h -2.604 l 0.4135,-1.9404 h 3.0416 l 0.338,-1.5519 z m 6.1717,0 -1.8407,8.6124 h 1.7901 l 1.064,-4.9449 h 0.063 l 1.3772,4.9449 h 1.7524 l 1.8402,-8.6124 h -1.8025 l -0.9643,4.5315 h -0.075 l -1.2894,-4.5315 z m 7.5355,0 -1.8402,8.6124 h 1.79 l 1.0641,-4.9449 h 0.063 l 1.3767,4.9449 h 1.7528 l 1.8402,-8.6124 h -1.8024 l -0.9643,4.5315 h -0.075 l -1.2893,-4.5315 z m 7.5365,0 -1.8402,8.6124 h 1.9151 l 1.8402,-8.6124 z" /><path
       id="path3382"
       style="fill:#d40000;fill-opacity:1;stroke:none;stroke-width:0.609188"
       d="m -2127.1818,7109.9324 -26.1224,0.01 h -2.2883 c 0.034,0.6435 0.083,1.193 0.1582,1.5007 0.074,0.3006 0.1431,0.4892 0.2434,0.6584 0.1002,0.1693 0.2383,0.3298 0.4645,0.556 0.4113,0.4115 0.5583,0.5544 0.6367,0.5979 0.091,0.051 0.3559,0.1562 1.1653,0.2341 1.6175,0.1559 5.0951,0.1568 12.3078,0.1685 2.8658,0.01 5.5595,-5e-4 7.7773,-0.012 1.8527,-0.01 3.3901,-0.026 4.3883,-0.045 1.4388,-0.048 2.8145,-0.1195 4.5817,0.385 3.5911,1.0722 8.2941,3.7575 11.2411,5.7449 1.3589,0.9165 2.6704,1.8892 3.8412,2.8727 5.0779,4.2657 7.0172,5.5279 10.6355,6.9561 3.0269,1.1946 5.9793,1.7266 9.7105,1.7265 2.8121,1e-4 4.5914,-0.2118 6.9846,-0.8273 7.1076,-1.8276 13.4374,-6.9709 16.3008,-13.1506 1.1024,-2.3789 1.729,-4.8602 1.9234,-7.3618 l -2.0552,-0.01 c -0.284,3.2052 -1.3937,6.3332 -3.314,9.2878 -1.1338,1.7446 -3.7937,4.3752 -5.6462,5.6602 -1.7219,1.1933 -4.2335,2.4545 -6.1815,3.099 -11.8366,3.9162 -25.0501,-1.4506 -29.6659,-12.2597 -0.7711,-1.8058 -1.2159,-3.7811 -1.3834,-5.7873 h -2.0923 c 0.051,0.8565 0.1246,1.6638 0.2408,2.2221 l 1.0754,5.1537 -4.0153,-2.2732 c -1.2997,-0.7362 -5.0071,-2.4064 -6.2332,-2.819 l -2.4123,-0.8113 -0.01,-1.4723 z" /><path
       id="path3381"
       style="fill:#000000;fill-opacity:1;stroke:none;stroke-width:0.609188"
       d="m -2066.6847,7094.8905 -6.7583,5e-4 c -2.5208,0 -4.0405,1.1082 -4.0405,3.7005 v 0.053 c 0.018,2.5208 1.3947,3.5042 3.6116,3.8081 7.044,0.7331 7.7231,0.8401 7.7231,1.2692 v 0.1793 c 0,0.2324 -0.2148,0.3927 -0.5545,0.3927 h -6.7216 c -0.2325,0 -0.6258,-0.3396 -0.6258,-0.9296 v -0.3039 h -3.4861 v 0.2331 c 0,3.0214 1.3941,4.5764 4.1295,4.5764 h 6.7582 c 2.6281,0 4.1652,-1.3227 4.1652,-3.8256 v -0.053 c -0.018,-2.8785 -1.609,-3.4504 -4.1119,-3.808 -4.9702,-0.5542 -7.2228,-0.6616 -7.2228,-1.1623 v -0.054 c 0,-0.3039 0.2151,-0.4827 0.5012,-0.4827 h 6.704 c 0.4827,0 0.6253,0.411 0.6253,0.9116 v 0.2145 h 3.4685 v -0.5364 c 0,-3.4505 -2.2521,-4.1832 -4.1651,-4.1832 z m -85.0103,5e-4 c -3.8795,0 -3.8975,3.4327 -3.8975,5.0596 v 2.8784 c 0,1.627 1e-4,5.0416 3.8975,5.0416 h 6.8828 c 4.0047,0 4.0049,-3.2895 4.0049,-5.0416 v -0.4413 h -3.4148 v 0.3519 c 0,1.162 -0.071,1.5017 -0.6971,1.5017 h -6.5433 c -0.59,0 -0.6439,-0.3932 -0.6439,-1.5374 v -2.6101 c 0,-1.1622 0.054,-1.5736 0.6258,-1.5736 h 6.5433 c 0.6436,0 0.7152,0.3575 0.7152,1.5374 v 0.3163 h 3.4148 v -0.4233 c 0,-1.7521 -0.018,-5.0596 -4.0049,-5.0596 z m 15.5179,0 c -3.9868,0.018 -4.0044,3.3075 -4.0044,5.0596 v 2.8784 c 0,1.7521 -2e-4,5.0416 4.0044,5.0416 h 6.9009 c 4.0047,0 4.0049,-3.2895 4.0049,-5.0416 v -2.8784 c 0,-1.7521 -0.018,-5.0418 -4.0049,-5.0596 z m 25.154,0.2491 -4.4695,6.1319 c -0.1252,0.286 -0.3571,0.7689 -0.3571,0.9477 h -0.1075 c 0,-0.1788 -0.1789,-0.6437 -0.3219,-0.9477 l -4.469,-6.1314 -3.8085,5e-4 v 12.515 h 3.4509 v -5.6674 c 0,-0.3219 -10e-5,-0.912 -0.089,-1.4304 l 0.1432,-0.036 c 0.054,0.1788 0.2864,0.5546 0.4651,0.8407 l 3.468,4.9873 h 2.4851 l 3.5579,-4.934 c 0.143,-0.2682 0.3216,-0.6436 0.3752,-0.8403 l 0.1431,0.017 c -0.071,0.4827 -0.09,0.9473 -0.09,1.3585 v 5.703 h 3.4504 v -12.5144 z m 4.7201,0 v 12.515 h 13.2478 v -3.6117 h -9.8149 v -1.019 h 9.8149 v -3.2717 h -9.8149 v -1.0009 h 9.8149 v -3.6117 z m 13.963,0 v 3.576 h 5.4705 v 8.939 h 3.5936 v -8.939 h 5.4709 v -3.576 z m -43.6046,3.3791 h 6.4363 c 0.6972,0.018 0.7865,0.3934 0.7865,1.6449 v 2.467 c 0,1.2336 -0.089,1.6092 -0.7865,1.6092 h -6.4363 c -0.6973,0 -0.7865,-0.3756 -0.7865,-1.6092 v -2.467 c 0,-1.2336 0.089,-1.627 0.7865,-1.6449 z" /><path
       id="path3375"
       style="fill:#000000;fill-opacity:1;stroke:none;stroke-width:0.609188"
       d="m -2146.6726,7086.2455 -5e-4,5e-4 c -0.4252,0 -0.779,0.031 -1.0625,0.092 -0.2834,0.055 -0.518,0.1571 -0.7028,0.3049 -0.1787,0.1418 -0.3295,0.3359 -0.4527,0.5824 -0.1171,0.2403 -0.2218,0.5455 -0.3142,0.9152 -0.086,0.3697 -0.182,0.8135 -0.2868,1.3312 -0.092,0.4313 -0.1694,0.8129 -0.231,1.1456 -0.055,0.3266 -0.083,0.6072 -0.083,0.8413 0,0.3265 0.062,0.5852 0.1851,0.7762 0.1294,0.1849 0.345,0.3174 0.6469,0.3974 0.302,0.08 0.715,0.1209 1.2387,0.1209 0.4252,0 0.7765,-0.031 1.0537,-0.093 0.2835,-0.062 0.5143,-0.1631 0.693,-0.3049 0.1848,-0.1478 0.3329,-0.3421 0.4439,-0.5824 0.1171,-0.2465 0.2217,-0.5549 0.3142,-0.9245 0.099,-0.3698 0.2033,-0.8099 0.3142,-1.3213 0.099,-0.4375 0.1754,-0.817 0.231,-1.1374 0.055,-0.3266 0.083,-0.6066 0.083,-0.8408 0,-0.3328 -0.065,-0.5918 -0.1943,-0.7767 -0.1233,-0.191 -0.3358,-0.3266 -0.6377,-0.4067 -0.3019,-0.08 -0.7145,-0.1199 -1.2382,-0.1199 z m 27.5818,0 v 5e-4 c -0.4251,0 -0.7801,0.031 -1.0635,0.092 -0.2834,0.055 -0.5168,0.1571 -0.7018,0.3049 -0.1786,0.1418 -0.33,0.3359 -0.4532,0.5824 -0.1171,0.2403 -0.2223,0.5455 -0.3147,0.9152 -0.086,0.3697 -0.1816,0.8135 -0.2863,1.3312 -0.093,0.4313 -0.1694,0.8129 -0.231,1.1456 -0.056,0.3266 -0.083,0.6072 -0.083,0.8413 0,0.3265 0.062,0.5852 0.1855,0.7762 0.1293,0.1849 0.345,0.3174 0.647,0.3974 0.3018,0.08 0.7144,0.1209 1.2382,0.1209 0.4252,0 0.7764,-0.031 1.0537,-0.093 0.2835,-0.062 0.5148,-0.1631 0.6935,-0.3049 0.1849,-0.1478 0.3326,-0.3421 0.4434,-0.5824 0.1171,-0.2465 0.2218,-0.5549 0.3142,-0.9245 0.099,-0.3698 0.2033,-0.8099 0.3142,-1.3213 0.099,-0.4375 0.1755,-0.817 0.2309,-1.1374 0.055,-0.3266 0.083,-0.6066 0.083,-0.8408 0,-0.3328 -0.065,-0.5918 -0.1937,-0.7767 -0.1233,-0.191 -0.3358,-0.3266 -0.6377,-0.4067 -0.302,-0.08 -0.7149,-0.1199 -1.2387,-0.1199 z m -24.1432,0.074 -1.3493,6.3593 h 1.4051 l 0.4899,-2.2551 h 0.6935 0.1111 0.1012 l 0.2037,2.2551 h 1.4231 l -0.3142,-2.4768 c 0.1848,-0.08 0.3388,-0.179 0.462,-0.2961 0.1233,-0.1171 0.2217,-0.2495 0.2956,-0.3974 0.08,-0.1541 0.1487,-0.3237 0.2041,-0.5085 0.056,-0.1911 0.1049,-0.3946 0.1478,-0.6103 0.025,-0.1109 0.043,-0.2156 0.055,-0.3142 0.018,-0.1047 0.034,-0.2032 0.046,-0.2956 0.012,-0.099 0.019,-0.1907 0.019,-0.277 0,-0.2526 -0.046,-0.4651 -0.1385,-0.6377 -0.092,-0.1786 -0.2499,-0.3147 -0.4718,-0.4072 -0.2217,-0.092 -0.5328,-0.1385 -0.9333,-0.1385 z m 4.7511,0 -0.2496,1.1922 h 1.4232 l -1.0997,5.1671 h 1.4139 l 1.1001,-5.1671 h 1.433 l 0.2584,-1.1922 z m 4.9356,0 -1.3498,6.3593 h 1.4051 l 0.555,-2.5786 h 1.6082 l -0.5545,2.5786 h 1.4139 l 1.359,-6.3593 h -1.4143 l -0.5452,2.542 h -1.5994 l 0.5364,-2.542 z m 7.4595,0 -1.3586,6.3593 h 1.4139 l 0.4439,-2.0701 h 1.1555 c 0.3945,0 0.7116,-0.046 0.9519,-0.139 0.2465,-0.099 0.4407,-0.2372 0.5824,-0.416 0.1418,-0.1848 0.2557,-0.4063 0.342,-0.6651 0.086,-0.265 0.1632,-0.5611 0.231,-0.8878 0.043,-0.1848 0.074,-0.357 0.092,-0.5173 0.025,-0.1664 0.037,-0.3177 0.037,-0.4532 0,-0.265 -0.046,-0.4863 -0.1385,-0.6651 -0.093,-0.1786 -0.2526,-0.3147 -0.4806,-0.4072 -0.2218,-0.092 -0.5332,-0.1385 -0.9338,-0.1385 z m 10.4443,0 -1.3586,6.3593 h 3.3828 l 0.2589,-1.1921 h -1.9689 l 1.0997,-5.1672 z m 4.0577,0 -1.3591,6.3593 h 1.4143 l 0.5638,-2.6525 h 0.4346 l 0.7762,2.6525 h 1.4697 l -0.9979,-3.207 2.3384,-3.1523 h -1.5343 l -1.8025,2.5513 h -0.4346 l 0.5452,-2.5513 z m -42.6481,5e-4 -1.3586,6.3594 h 1.3219 l 0.7855,-3.651 h 0.046 l 1.016,3.651 h 1.2944 l 1.3586,-6.3594 h -1.3306 l -0.7121,3.3461 h -0.055 l -0.9519,-3.3461 z m 7.4688,1.0723 c 0.1726,0 0.3117,0.01 0.4165,0.018 0.1049,0.012 0.1819,0.049 0.231,0.1111 0.05,0.062 0.074,0.1636 0.074,0.3054 0,0.1417 -0.024,0.3448 -0.074,0.6098 -0.043,0.2649 -0.1143,0.6194 -0.2129,1.063 -0.086,0.4129 -0.1632,0.7516 -0.231,1.0165 -0.062,0.2649 -0.1234,0.4717 -0.185,0.6196 -0.062,0.1479 -0.1323,0.2558 -0.2124,0.3235 -0.08,0.068 -0.1759,0.1107 -0.2868,0.1291 -0.111,0.012 -0.2496,0.018 -0.416,0.018 -0.1664,0 -0.3051,-0.01 -0.416,-0.018 -0.1045,-0.012 -0.1813,-0.049 -0.231,-0.1105 -0.049,-0.062 -0.074,-0.16 -0.074,-0.2956 0,-0.099 0.01,-0.2221 0.028,-0.37 0.025,-0.1479 0.058,-0.3295 0.1013,-0.5452 0.049,-0.2156 0.1048,-0.4711 0.1664,-0.7669 0.086,-0.4128 0.1605,-0.752 0.2222,-1.017 0.068,-0.265 0.1322,-0.4712 0.1938,-0.6191 0.062,-0.1479 0.1296,-0.2562 0.2036,-0.324 0.08,-0.068 0.1753,-0.1076 0.2863,-0.1199 0.117,-0.018 0.2558,-0.027 0.416,-0.027 z m 27.5813,0 c 0.1725,0 0.3112,0.01 0.416,0.018 0.1045,0.012 0.1814,0.049 0.231,0.1111 0.049,0.062 0.074,0.1636 0.074,0.3054 0,0.1417 -0.025,0.3448 -0.074,0.6098 -0.043,0.2649 -0.1143,0.6194 -0.2129,1.063 -0.086,0.4129 -0.1632,0.7516 -0.231,1.0165 -0.062,0.2649 -0.1229,0.4717 -0.1845,0.6196 -0.062,0.1479 -0.1328,0.2558 -0.2129,0.3235 -0.08,0.068 -0.1754,0.1107 -0.2863,0.1291 -0.1109,0.012 -0.2501,0.018 -0.4165,0.018 -0.1664,0 -0.3051,-0.01 -0.416,-0.018 -0.105,-0.012 -0.1819,-0.049 -0.231,-0.1105 -0.049,-0.062 -0.074,-0.16 -0.074,-0.2956 0,-0.099 0.01,-0.2221 0.028,-0.37 0.025,-0.1479 0.058,-0.3295 0.1013,-0.5452 0.049,-0.2156 0.1053,-0.4711 0.1669,-0.7669 0.086,-0.4128 0.16,-0.752 0.2217,-1.017 0.068,-0.265 0.1327,-0.4712 0.1943,-0.6191 0.062,-0.1479 0.1292,-0.2562 0.2031,-0.324 0.08,-0.068 0.1753,-0.1076 0.2863,-0.1199 0.117,-0.018 0.2558,-0.027 0.416,-0.027 z m -5.7397,0.056 h 0.6842 c 0.154,0 0.2739,0.012 0.3601,0.037 0.086,0.018 0.1481,0.056 0.185,0.1105 0.043,0.056 0.064,0.1298 0.064,0.2222 0,0.08 -0.01,0.1723 -0.027,0.277 -0.018,0.099 -0.044,0.2221 -0.075,0.37 -0.043,0.2096 -0.086,0.3818 -0.1291,0.5173 -0.043,0.1294 -0.095,0.2314 -0.1571,0.3054 -0.062,0.074 -0.1447,0.1232 -0.2496,0.1478 -0.1047,0.025 -0.2403,0.037 -0.4067,0.037 h -0.6749 z m -17.1365,0.01 h 0.7576 c 0.1602,0 0.2832,0.012 0.3695,0.037 0.086,0.019 0.1482,0.055 0.185,0.1106 0.037,0.049 0.055,0.1174 0.055,0.2036 0,0.068 -0.01,0.151 -0.027,0.2496 -0.012,0.092 -0.034,0.2034 -0.065,0.3328 -0.037,0.1972 -0.077,0.3572 -0.1204,0.4805 -0.043,0.1171 -0.096,0.2099 -0.1571,0.2776 -0.061,0.068 -0.1447,0.1171 -0.2496,0.1477 -0.099,0.025 -0.231,0.037 -0.3974,0.037 h -0.7488 z" /></g></svg>
