<?xml version="1.0" encoding="UTF-8" standalone="no"?>
<svg
   width="342.46582"
   height="126.65039"
   viewBox="0 0 90.610746 33.509583"
   version="1.1"
   id="svg16"
   xml:space="preserve"
   xmlns="http://www.w3.org/2000/svg"
   xmlns:svg="http://www.w3.org/2000/svg"
   xmlns:rdf="http://www.w3.org/1999/02/22-rdf-syntax-ns#"
   xmlns:cc="http://creativecommons.org/ns#"
   xmlns:dc="http://purl.org/dc/elements/1.1/"><defs
     id="defs10" /><metadata
     id="metadata13"><rdf:RDF><cc:Work
         rdf:about=""><dc:format>image/svg+xml</dc:format><dc:type
           rdf:resource="http://purl.org/dc/dcmitype/StillImage" /></cc:Work></rdf:RDF></metadata><g
     id="layer1"
     transform="translate(2151.8611,-7032.2734)"><path
       id="path3328"
       style="color:#000000;-inkscape-font-specification:'College Block 2.0, Normal';fill:#000000;stroke:none;stroke-width:0.657218;stroke-linecap:round;stroke-linejoin:round;-inkscape-stroke:none"
       d="m -2103.5451,7032.2745 -3.9369,0.031 a 0.63372958,0.63372958 0 0 0 -0.4017,0.4055 0.63372958,0.63372958 0 0 0 -0.5404,-0.3991 l -3.937,0.03 a 0.63372958,0.63372958 0 0 0 -0.6276,0.6317 0.63372958,0.63372958 0 0 0 -0.6521,-0.5763 l -8.8829,0.616 a 0.63372958,0.63372958 0 0 0 -0.5903,0.6331 v 6.622 a 0.63372958,0.63372958 0 0 0 0.6775,0.6318 l 2.2005,-0.1529 a 0.63372958,0.63372958 0 0 0 0.4887,-0.5237 v 13.8466 l -0.2873,0.02 a 0.63372958,0.63372958 0 0 0 -0.5906,0.6314 v 3.6519 a 0.63372958,0.63372958 0 0 0 0.6867,0.6314 c 1.2967,-0.1065 2.6038,-0.1979 3.9203,-0.2734 a 0.63372958,0.63372958 0 0 0 0.5981,-0.6314 v -3.6533 a 0.63372958,0.63372958 0 0 0 -0.6789,-0.6327 l -0.1644,0.012 v -13.6373 a 0.63372958,0.63372958 0 0 0 0.5098,0.2466 l 2.2001,-0.1543 a 0.63372958,0.63372958 0 0 0 0.5889,-0.6313 v -2.9062 a 0.63372958,0.63372958 0 0 0 0.6137,0.5712 h 0.1797 v 16.2763 h -0.1912 a 0.63372958,0.63372958 0 0 0 -0.6277,0.6341 v 3.706 a 0.63372958,0.63372958 0 0 0 0.6559,0.6327 c 1.3037,-0.045 2.6115,-0.075 3.9217,-0.09 a 0.63372958,0.63372958 0 0 0 0.4003,-0.4042 0.63372958,0.63372958 0 0 0 0.5441,0.3953 c 0.304,-0.01 0.6075,-0.01 0.9116,-0.01 1.0022,2e-4 2.0043,0.01 3.005,0.027 a 0.63372958,0.63372958 0 0 0 0.6456,-0.6327 v -3.7046 a 0.63372958,0.63372958 0 0 0 -0.6405,-0.6341 h -0.2119 v -16.2675 h 0.2234 a 0.63372958,0.63372958 0 0 0 0.629,-0.6327 v -3.7033 a 0.63372958,0.63372958 0 0 0 -0.6392,-0.6341 z m 6.2652,0.2194 a 0.63372958,0.63372958 0 0 0 -0.6855,0.6317 v 3.7158 a 0.63372958,0.63372958 0 0 0 0.5829,0.6318 l 0.2774,0.023 v 16.2596 l -0.1759,-0.014 a 0.63372958,0.63372958 0 0 0 -0.6844,0.6316 v 3.7033 a 0.63372958,0.63372958 0 0 0 0.5982,0.6328 c 1.3164,0.074 2.6248,0.1654 3.9216,0.271 a 0.63372958,0.63372958 0 0 0 0.684,-0.6317 v -3.6571 a 0.63372958,0.63372958 0 0 0 -0.5824,-0.6317 l -0.2775,-0.022 v -5.1769 l 2.5737,0.2092 a 0.63372958,0.63372958 0 0 0 0.5879,-0.2951 l 1.6957,-2.7048 a 0.63372958,0.63372958 0 0 0 0.069,-0.2425 v 10.1932 a 0.63372958,0.63372958 0 0 0 0.079,0.3057 l 1.6764,3.0498 a 0.63372958,0.63372958 0 0 0 0.4762,0.3234 c 1.4286,0.1821 2.8332,0.3841 4.2117,0.6045 a 0.63372958,0.63372958 0 0 0 0.6313,-0.2785 l 1.675,-2.5672 a 0.63372958,0.63372958 0 0 0 0.076,-0.2531 v 2.9694 a 0.63372958,0.63372958 0 0 0 0.5186,0.6225 c 2.6187,0.4836 5.1153,1.0353 7.4643,1.6506 a 0.63372958,0.63372958 0 0 0 0.7676,-0.557 v 0.2785 a 0.63372958,0.63372958 0 0 0 0.4636,0.6096 c 1.3592,0.3797 2.6611,0.7815 3.9033,1.2016 a 0.63372958,0.63372958 0 0 0 0.4992,-0.074 0.63372958,0.63372958 0 0 0 0.2235,0.3145 c 1.3802,0.4803 2.6811,0.9843 3.8945,1.5094 a 0.63372958,0.63372958 0 0 0 0.8844,-0.5815 v -3.7005 a 0.63372958,0.63372958 0 0 0 -0.4262,-0.5981 l -0.7173,-0.2493 -2.4827,-9.1625 2.358,-7.0703 0.4262,0.1491 a 0.63372958,0.63372958 0 0 0 0.842,-0.5981 v -3.7009 a 0.63372958,0.63372958 0 0 0 -0.4235,-0.5981 l -3.9369,-1.3748 a 0.63372958,0.63372958 0 0 0 -0.5072,0.072 0.63372958,0.63372958 0 0 0 -0.222,-0.3135 l -3.9366,-1.3745 a 0.63372958,0.63372958 0 0 0 -0.8423,0.5981 v 3.6904 a 0.63372958,0.63372958 0 0 0 0.4248,0.5981 l 0.4354,0.1515 v 16.2059 l -0.019,-0.01 a 0.63372958,0.63372958 0 0 0 -0.8138,0.5455 v -3.186 a 0.63372958,0.63372958 0 0 0 -0.4965,-0.6189 l -2.2005,-0.4863 a 0.63372958,0.63372958 0 0 0 -0.7699,0.6188 v 2.1064 l -0.9653,-0.2143 v -16.2305 l 0.088,0.02 a 0.63372958,0.63372958 0 0 0 0.7716,-0.6189 v -3.6995 a 0.63372958,0.63372958 0 0 0 -0.4968,-0.6188 l -3.937,-0.8739 a 0.63372958,0.63372958 0 0 0 -0.7713,0.6185 v 2.5302 a 0.63372958,0.63372958 0 0 0 -0.05,-0.1953 l -1.6958,-3.0997 a 0.63372958,0.63372958 0 0 0 -0.4646,-0.3223 l -4.1937,-0.6097 a 0.63372958,0.63372958 0 0 0 -0.6226,0.2822 l -1.6957,2.6097 a 0.63372958,0.63372958 0 0 0 -0.076,0.2541 v -0.04 a 0.63372958,0.63372958 0 0 0 -0.082,-0.3118 l -1.6958,-2.9948 a 0.63372958,0.63372958 0 0 0 -0.4995,-0.3196 z m -28.2604,0.9075 -6.3177,0.8396 a 0.63372958,0.63372958 0 0 0 -0.5509,0.6275 v 2.9833 a 0.63372958,0.63372958 0 0 0 -0.084,-0.2682 l -1.6953,-2.4943 a 0.63372958,0.63372958 0 0 0 -0.6562,-0.2632 l -4.1921,0.8949 a 0.63372958,0.63372958 0 0 0 -0.4289,0.3247 l -1.6957,3.2142 a 0.63372958,0.63372958 0 0 0 -0.046,0.1875 v -2.4147 a 0.63372958,0.63372958 0 0 0 -0.8382,-0.5995 l -3.937,1.3466 a 0.63372958,0.63372958 0 0 0 -0.4286,0.5995 v 3.7009 a 0.63372958,0.63372958 0 0 0 0.8266,0.5981 v 4.0728 l -2.0961,-7.6925 a 0.63372958,0.63372958 0 0 0 -0.8192,-0.4314 l -2.9354,1.0179 a 0.63372958,0.63372958 0 0 0 -0.4262,0.598 v 3.6983 a 0.63372958,0.63372958 0 0 0 0.8368,0.5994 l 0.023,-0.01 v 16.171 l -0.43,0.1464 a 0.63372958,0.63372958 0 0 0 -0.4299,0.5994 v 3.6982 a 0.63372958,0.63372958 0 0 0 0.883,0.5828 c 1.2145,-0.5211 2.5137,-1.0215 3.8932,-1.4981 a 0.63372958,0.63372958 0 0 0 0.4275,-0.5994 v -3.5196 a 0.63372958,0.63372958 0 0 0 -0.8372,-0.5994 l -0.023,0.01 v -4.1499 l 2.1835,7.5991 a 0.63372958,0.63372958 0 0 0 0.7957,0.4299 c 0.9252,-0.2846 1.8793,-0.5594 2.8614,-0.8229 a 0.63372958,0.63372958 0 0 0 0.4697,-0.6123 v -3.0817 a 0.63372958,0.63372958 0 0 0 0.084,0.2706 l 1.67,2.4416 a 0.63372958,0.63372958 0 0 0 0.666,0.2605 c 1.3647,-0.3173 2.7724,-0.6151 4.2181,-0.8909 a 0.63372958,0.63372958 0 0 0 0.4415,-0.3246 l 1.6713,-3.1551 a 0.63372958,0.63372958 0 0 0 0.047,-0.1889 v 2.5123 a 0.63372958,0.63372958 0 0 0 0.7369,0.6262 c 1.2827,-0.2101 2.5884,-0.4044 3.9163,-0.5814 a 0.63372958,0.63372958 0 0 0 0.4198,-0.4789 0.63372958,0.63372958 0 0 0 0.5878,0.3468 c 1.2888,-0.1669 2.5962,-0.3187 3.919,-0.4534 a 0.63372958,0.63372958 0 0 0 0.5699,-0.63 v -3.6996 a 0.63372958,0.63372958 0 0 0 -0.7177,-0.6276 l -0.1423,0.019 v -7.0214 a 0.63372958,0.63372958 0 0 0 -0.1093,-0.3556 l -0.3926,-0.5777 0.4211,-0.7509 a 0.63372958,0.63372958 0 0 0 0.081,-0.3104 v -8.616 a 0.63372958,0.63372958 0 0 0 -0.1001,-0.3414 l -1.7036,-2.6687 a 0.63372958,0.63372958 0 0 0 -0.6175,-0.2874 z m 17.5268,3.4774 a 0.63372958,0.63372958 0 0 0 0.5417,0.3991 h 0.2208 v 5.6429 l -1.3953,0.012 v -5.6443 h 0.2324 a 0.63372958,0.63372958 0 0 0 0.4004,-0.4055 z m 14.392,0.9024 1.4699,0.1206 v 6.1051 l -1.4699,-0.1196 z m -32.9815,0.7934 v 6.0766 l -1.4621,0.1939 v -6.0766 z m -5.7787,0.092 a 0.63372958,0.63372958 0 0 0 0.6904,0.5686 l 0.1016,-0.012 v 16.2263 l -0.2683,0.035 a 0.63372958,0.63372958 0 0 0 -0.5237,0.5981 z m 47.1707,0.015 1.8931,0.2734 v 16.2352 l -1.8931,-0.2721 z m 5.3691,0.2822 a 0.63372958,0.63372958 0 0 0 0.4688,0.5828 l 0.3223,0.072 v 16.2468 l -0.047,-0.011 a 0.63372958,0.63372958 0 0 0 -0.7431,0.5597 z m -56.0159,1.0872 v 16.2188 l -1.8921,0.4018 v -16.2175 z m -5.3759,0.7217 v 17.4377 a 0.63372958,0.63372958 0 0 0 -0.8101,-0.5468 l -0.023,0.01 v -16.1893 l 0.4314,-0.1473 a 0.63372958,0.63372958 0 0 0 0.4018,-0.5625 z m 74.9742,2.0459 a 0.63372958,0.63372958 0 0 0 0.231,0.3247 l -0.1733,-0.06 -0.5328,1.6418 v -1.8394 a 0.63372958,0.63372958 0 0 0 0.4751,-0.067 z m -40.9915,5.0689 v 5.6585 h -0.2324 a 0.63372958,0.63372958 0 0 0 -0.4017,0.4042 0.63372958,0.63372958 0 0 0 -0.5404,-0.3967 h -0.2208 v -5.6568 z m -19.352,1.7396 v 5.1627 l -0.3094,0.041 a 0.63372958,0.63372958 0 0 0 -0.4197,0.4789 0.63372958,0.63372958 0 0 0 -0.5893,-0.3454 l -0.1437,0.019 v -5.1626 z m 59.8684,8.0855 0.4069,1.5391 a 0.63372958,0.63372958 0 0 0 -0.014,-0.019 l -0.393,-0.1359 z" /><path
       id="path3329"
       style="font-size:14.2043px;line-height:1.25;font-family:'College Block 2.0';-inkscape-font-specification:'College Block 2.0, Normal';fill:#d40000;fill-opacity:1;stroke:none;stroke-width:0.548436;stroke-dasharray:none;paint-order:stroke fill markers"
       d="m -2103.5402,7032.9082 -3.9369,0.031 v 3.7048 l 0.8602,-0.01 v 6.9098 l -2.663,0.022 v -6.9113 l 0.8603,-0.01 v -3.7048 l -3.9369,0.03 v 3.7062 l 0.8186,-0.01 v 17.5434 l -0.8186,0.01 v 3.7063 a 56.303663,18.719139 0 0 1 3.9369,-0.091 v -3.6508 l -0.8603,0.01 v -6.9244 l 2.663,-0.023 v 6.9237 l -0.8602,0.01 v 3.6501 a 56.303663,18.719139 0 0 1 0.9208,-0.01 56.303663,18.719139 0 0 1 3.0161,0.028 v -3.7041 l -0.8522,0.01 v -17.5362 l 0.8522,-0.01 z m -10.0573,0.1218 -8.8827,0.6165 v 6.6224 l 2.1997,-0.1532 v -2.8957 l 1.1666,-0.081 v 17.523 l -0.8769,0.061 v 3.6515 a 56.303663,18.719139 0 0 1 3.9367,-0.2743 v -3.653 l -0.8433,0.059 v -17.5216 l 1.1002,-0.077 v 2.895 l 2.1997,-0.1533 z m 16.266,0.095 v 3.7172 l 0.8601,0.07 v 17.5311 l -0.8601,-0.069 v 3.7033 a 56.303663,18.719139 0 0 1 3.9368,0.2714 v -3.6566 l -0.8603,-0.069 v -6.4488 l 3.2584,0.2649 1.6956,-2.7046 v -9.095 l -1.6956,-2.9949 z m -28.1253,0.9046 -6.3182,0.839 v 3.7391 l 0.8185,-0.1087 v 17.5056 l -0.8185,0.108 v 3.6975 a 56.303663,18.719139 0 0 1 3.9362,-0.5837 v -3.6333 l -0.8596,0.1132 v -6.4401 l 2.7286,-0.3611 v 6.4415 l -0.8593,0.113 v 3.6341 a 56.303663,18.719139 0 0 1 3.936,-0.4545 v -3.699 l -0.8602,0.1138 v -7.7438 l -0.612,-0.9025 0.612,-1.0922 v -8.6163 z m 39.0915,0.13 -1.6954,2.6096 v 19.2522 l 1.6765,3.0511 a 56.303663,18.719139 0 0 1 4.2324,0.607 l 1.6759,-2.5667 v -19.2441 l -1.6957,-3.1 z m 7.1296,1.0695 v 3.7004 l 0.8186,0.1817 v 17.5449 l -0.8186,-0.1816 v 3.7004 a 56.303663,18.719139 0 0 1 7.5095,1.6613 v -6.6086 l -2.1996,-0.4873 v 2.8957 l -2.2333,-0.494 v -17.5296 l 0.8601,0.1904 v -3.6996 z m -55.4759,0.2174 -4.1929,0.8944 -1.6955,3.2153 v 19.2406 l 1.6699,2.4426 a 56.303663,18.719139 0 0 1 4.2426,-0.8952 l 1.6715,-3.1547 v -19.25 z m -7.1287,1.5868 -3.9368,1.3461 v 3.7012 l 0.8267,-0.2824 v 9.6888 l -3.3415,-12.2613 -2.9359,1.0178 v 3.6982 l 0.8602,-0.2932 v 17.5099 l -0.8602,0.2918 v 3.6982 a 56.303663,18.719139 0 0 1 3.9368,-1.5145 v -3.5196 l -0.8602,0.2918 v -9.5334 l 3.4269,11.9229 a 56.303663,18.719139 0 0 1 2.884,-0.8288 v -3.7027 l -0.8601,0.2918 V 7041.03 l 0.8601,-0.294 z m 47.5853,0.061 2.7374,0.224 v 7.3768 l -2.7374,-0.2233 z m 23.7691,0.1343 v 3.6902 l 0.8602,0.2998 v 17.5464 l -0.8602,-0.2984 v 3.7041 a 56.303663,18.719139 0 0 1 3.9369,1.2104 v -3.5487 l -0.8186,-0.2838 v -6.7121 l 1.9522,7.3891 -0.4056,-0.1407 v 3.5392 a 56.303663,18.719139 0 0 1 3.9369,1.5263 v -3.7005 l -1.0339,-0.3582 -2.6213,-9.6713 2.6213,-7.8613 1.0339,0.3612 v -3.7004 l -3.9369,-1.3753 v 3.7019 l 0.4137,0.1437 -1.9603,6.0417 v -6.7252 l 0.8186,0.2859 v -3.6888 z m -55.4839,0.6237 v 7.3549 l -2.7286,0.3612 v -7.3542 z m 40.1255,0.098 3.1598,0.4582 v 17.5143 l -3.1598,-0.4545 z m -49.3803,1.3198 v 17.5151 l -3.1589,0.6697 v -17.5113 z" /></g></svg>
