<?xml version="1.0" encoding="UTF-8" standalone="no"?>
<svg
   width="342.4668"
   height="126.65039"
   viewBox="0 0 90.611005 33.509583"
   version="1.1"
   id="svg16"
   xml:space="preserve"
   xmlns="http://www.w3.org/2000/svg"
   xmlns:svg="http://www.w3.org/2000/svg"
   xmlns:rdf="http://www.w3.org/1999/02/22-rdf-syntax-ns#"
   xmlns:cc="http://creativecommons.org/ns#"
   xmlns:dc="http://purl.org/dc/elements/1.1/"><defs
     id="defs10" /><metadata
     id="metadata13"><rdf:RDF><cc:Work
         rdf:about=""><dc:format>image/svg+xml</dc:format><dc:type
           rdf:resource="http://purl.org/dc/dcmitype/StillImage" /></cc:Work></rdf:RDF></metadata><g
     id="layer1"
     transform="translate(2151.8614,-7183.4027)"><path
       id="path2660"
       style="color:#000000;-inkscape-font-specification:'College Block 2.0, Normal';fill:#000000;stroke:none;stroke-width:0.657218;stroke-linecap:round;stroke-linejoin:round;-inkscape-stroke:none"
       d="m -2103.545,7183.4024 v 0 l -3.9372,0.031 a 0.63372958,0.63372958 0 0 0 -0.4015,0.4057 0.63372958,0.63372958 0 0 0 -0.5406,-0.3989 l -3.9367,0.03 a 0.63372958,0.63372958 0 0 0 -0.6279,0.6315 0.63372958,0.63372958 0 0 0 -0.6521,-0.5762 l -8.8827,0.616 a 0.63372958,0.63372958 0 0 0 -0.5901,0.633 v 6.6219 a 0.63372958,0.63372958 0 0 0 0.6775,0.632 l 2.2003,-0.153 a 0.63372958,0.63372958 0 0 0 0.4889,-0.5235 V 7205.2 l -0.2873,0.02 a 0.63372958,0.63372958 0 0 0 -0.5907,0.6314 v 3.652 a 0.63372958,0.63372958 0 0 0 0.6868,0.6315 c 1.2967,-0.1065 2.6037,-0.1979 3.9202,-0.2734 a 0.63372958,0.63372958 0 0 0 0.5979,-0.6315 v -3.6535 a 0.63372958,0.63372958 0 0 0 -0.6785,-0.6325 l -0.1649,0.012 v -13.6374 a 0.63372958,0.63372958 0 0 0 0.5101,0.247 l 2.1998,-0.1545 a 0.63372958,0.63372958 0 0 0 0.5891,-0.6315 v -2.9058 a 0.63372958,0.63372958 0 0 0 0.6139,0.571 h 0.1794 v 16.2761 h -0.1912 a 0.63372958,0.63372958 0 0 0 -0.6274,0.6345 v 3.7058 a 0.63372958,0.63372958 0 0 0 0.6558,0.6325 c 1.3037,-0.045 2.6115,-0.075 3.9217,-0.09 a 0.63372958,0.63372958 0 0 0 0.4,-0.4041 0.63372958,0.63372958 0 0 0 0.5441,0.3953 c 0.304,-0.01 0.6075,-0.01 0.9116,-0.01 1.0022,2e-4 2.0043,0.01 3.005,0.027 a 0.63372958,0.63372958 0 0 0 0.6459,-0.6325 v -3.7047 a 0.63372958,0.63372958 0 0 0 -0.6407,-0.634 h -0.2119 v -16.2678 h 0.2237 a 0.63372958,0.63372958 0 0 0 0.6289,-0.6325 v -3.7037 a 0.63372958,0.63372958 0 0 0 -0.6392,-0.634 z m 6.1779,0.2201 a 0.63372958,0.63372958 0 0 0 -0.5984,0.6325 v 3.7161 a 0.63372958,0.63372958 0 0 0 0.5829,0.6315 l 0.2775,0.023 v 16.2595 l -0.1757,-0.014 a 0.63372958,0.63372958 0 0 0 -0.6847,0.6314 v 3.7037 a 0.63372958,0.63372958 0 0 0 0.5984,0.6325 c 1.3164,0.074 2.6249,0.1657 3.9217,0.2713 a 0.63372958,0.63372958 0 0 0 0.6837,-0.632 v -3.6571 a 0.63372958,0.63372958 0 0 0 -0.5824,-0.6315 l -0.2775,-0.022 v -5.177 l 2.574,0.2093 a 0.63372958,0.63372958 0 0 0 0.5876,-0.2951 l 1.696,-2.7047 a 0.63372958,0.63372958 0 0 0 0.069,-0.2424 v 10.1932 a 0.63372958,0.63372958 0 0 0 0.079,0.3054 l 1.6764,3.05 a 0.63372958,0.63372958 0 0 0 0.4765,0.3234 c 1.4286,0.1821 2.8331,0.3843 4.2116,0.6047 a 0.63372958,0.63372958 0 0 0 0.631,-0.2786 l 1.6753,-2.5673 a 0.63372958,0.63372958 0 0 0 0.076,-0.2532 v 2.9694 a 0.63372958,0.63372958 0 0 0 0.5183,0.6227 c 2.6187,0.4836 5.1156,1.0352 7.4646,1.6505 a 0.63372958,0.63372958 0 0 0 0.7674,-0.5571 v 0.2786 a 0.63372958,0.63372958 0 0 0 0.4636,0.6097 c 1.3592,0.3797 2.6609,0.7814 3.9031,1.2015 a 0.63372958,0.63372958 0 0 0 0.4992,-0.074 0.63372958,0.63372958 0 0 0 0.2237,0.3142 c 1.3802,0.4803 2.681,0.9844 3.8944,1.5095 a 0.63372958,0.63372958 0 0 0 0.8847,-0.5814 v -3.7005 a 0.63372958,0.63372958 0 0 0 -0.4263,-0.5979 l -0.7173,-0.2496 -2.4826,-9.1622 2.358,-7.0704 0.4259,0.1488 a 0.63372958,0.63372958 0 0 0 0.8423,-0.5979 v -3.7011 a 0.63372958,0.63372958 0 0 0 -0.4238,-0.5978 l -3.9367,-1.3746 a 0.63372958,0.63372958 0 0 0 -0.5074,0.072 0.63372958,0.63372958 0 0 0 -0.2217,-0.3137 l -3.9367,-1.3746 a 0.63372958,0.63372958 0 0 0 -0.8424,0.5984 v 3.6902 a 0.63372958,0.63372958 0 0 0 0.4248,0.5979 l 0.4356,0.152 v 16.2057 l -0.019,-0.01 a 0.63372958,0.63372958 0 0 0 -0.8139,0.5452 v -3.1859 a 0.63372958,0.63372958 0 0 0 -0.4966,-0.6191 l -2.2004,-0.4862 a 0.63372958,0.63372958 0 0 0 -0.7699,0.619 v 2.1064 l -0.9654,-0.2145 v -16.2305 l 0.088,0.02 a 0.63372958,0.63372958 0 0 0 0.772,-0.619 v -3.6996 a 0.63372958,0.63372958 0 0 0 -0.4971,-0.6185 l -3.9367,-0.8739 a 0.63372958,0.63372958 0 0 0 -0.7715,0.6186 v 2.5301 a 0.63372958,0.63372958 0 0 0 -0.05,-0.1954 l -1.6955,-3.0995 a 0.63372958,0.63372958 0 0 0 -0.4645,-0.3225 l -4.1941,-0.6098 a 0.63372958,0.63372958 0 0 0 -0.6222,0.2822 l -1.696,2.6096 a 0.63372958,0.63372958 0 0 0 -0.076,0.2543 v -0.04 a 0.63372958,0.63372958 0 0 0 -0.082,-0.3121 l -1.6955,-2.9947 a 0.63372958,0.63372958 0 0 0 -0.4997,-0.3198 l -6.3345,-0.5147 a 0.63372958,0.63372958 0 0 0 -0.087,0 z m -6.1732,0.4155 v 3.6995 l -0.8522,0.01 v 17.5364 l 0.8522,-0.01 v 3.7037 a 56.303663,18.719139 0 0 0 -3.0159,-0.028 56.303663,18.719139 0 0 0 -0.9209,0.01 v -3.6504 l 0.8599,-0.01 v -6.9237 l -2.6628,0.023 v 6.9246 l 0.8604,-0.01 v 3.6509 a 56.303663,18.719139 0 0 0 -3.9367,0.091 v -3.7063 l 0.8185,-0.01 v -17.5436 l -0.8185,0.01 v -3.7062 l 3.9367,-0.03 v 3.7047 l -0.8604,0.01 v 6.9112 l 2.6628,-0.022 v -6.9101 l -0.8599,0.01 v -3.7047 z m -10.0573,0.1214 v 6.6193 l -2.1994,0.1535 v -2.895 l -1.1001,0.077 v 17.5214 l 0.8428,-0.059 v 3.653 a 56.303663,18.719139 0 0 0 -3.9367,0.2744 v -3.6514 l 0.8769,-0.061 v -17.523 l -1.1663,0.081 v 2.8959 l -2.1999,0.153 v -6.6224 z m 16.2662,0.095 6.335,0.5199 1.6955,2.9952 v 9.095 l -1.6955,2.7048 -3.2587,-0.2651 v 6.4487 l 0.8604,0.069 v 3.6566 a 56.303663,18.719139 0 0 0 -3.9367,-0.2718 v -3.7031 l 0.8599,0.069 v -17.5312 l -0.8599,-0.07 z m -28.1301,0.2708 a 0.63372958,0.63372958 0 0 0 -0.08,0.01 l -6.3169,0.8397 a 0.63372958,0.63372958 0 0 0 -0.5509,0.6274 v 2.9833 a 0.63372958,0.63372958 0 0 0 -0.084,-0.2682 l -1.695,-2.4945 a 0.63372958,0.63372958 0 0 0 -0.6563,-0.263 l -4.192,0.895 a 0.63372958,0.63372958 0 0 0 -0.4289,0.3246 l -1.696,3.2142 a 0.63372958,0.63372958 0 0 0 -0.046,0.1876 v -2.4148 a 0.63372958,0.63372958 0 0 0 -0.8382,-0.5995 l -3.9367,1.3467 a 0.63372958,0.63372958 0 0 0 -0.4289,0.5995 v 3.701 a 0.63372958,0.63372958 0 0 0 0.8268,0.5979 v 4.0727 l -2.096,-7.6926 a 0.63372958,0.63372958 0 0 0 -0.8191,-0.431 l -2.9357,1.0175 a 0.63372958,0.63372958 0 0 0 -0.4263,0.5985 v 3.6979 a 0.63372958,0.63372958 0 0 0 0.8371,0.5995 l 0.023,-0.01 v 16.1712 l -0.43,0.1462 a 0.63372958,0.63372958 0 0 0 -0.4299,0.5994 v 3.698 a 0.63372958,0.63372958 0 0 0 0.8831,0.5829 c 1.2145,-0.5211 2.5138,-1.0215 3.8933,-1.4981 a 0.63372958,0.63372958 0 0 0 0.4274,-0.5994 v -3.5197 a 0.63372958,0.63372958 0 0 0 -0.8372,-0.5995 l -0.023,0.01 v -4.1502 l 2.1838,7.5991 a 0.63372958,0.63372958 0 0 0 0.7958,0.4299 c 0.9252,-0.2846 1.8793,-0.5592 2.8614,-0.8227 a 0.63372958,0.63372958 0 0 0 0.4697,-0.6123 v -3.082 a 0.63372958,0.63372958 0 0 0 0.084,0.2708 l 1.6702,2.4417 a 0.63372958,0.63372958 0 0 0 0.6661,0.2604 c 1.3647,-0.3173 2.7721,-0.6151 4.2178,-0.8909 a 0.63372958,0.63372958 0 0 0 0.4414,-0.3245 l 1.6717,-3.1554 a 0.63372958,0.63372958 0 0 0 0.047,-0.1886 v 2.512 a 0.63372958,0.63372958 0 0 0 0.7369,0.6263 c 1.2827,-0.2101 2.5882,-0.4043 3.9161,-0.5813 a 0.63372958,0.63372958 0 0 0 0.4196,-0.4791 0.63372958,0.63372958 0 0 0 0.5881,0.3468 c 1.2888,-0.1669 2.5963,-0.3185 3.9191,-0.4532 a 0.63372958,0.63372958 0 0 0 0.5695,-0.63 v -3.6995 a 0.63372958,0.63372958 0 0 0 -0.7173,-0.6279 l -0.1426,0.019 v -7.0213 a 0.63372958,0.63372958 0 0 0 -0.1091,-0.3555 l -0.3927,-0.5778 0.4212,-0.7508 a 0.63372958,0.63372958 0 0 0 0.081,-0.3106 v -8.616 a 0.63372958,0.63372958 0 0 0 -0.1003,-0.3416 l -1.7037,-2.6686 a 0.63372958,0.63372958 0 0 0 -0.538,-0.293 z m 0,0.6341 1.7037,2.6696 v 8.616 l -0.6123,1.0924 0.6123,0.9023 v 7.7437 l 0.8599,-0.1137 v 3.699 a 56.303663,18.719139 0 0 0 -3.9356,0.4548 v -3.6344 l 0.8588,-0.1127 v -6.4414 l -2.7285,0.3607 v 6.4404 l 0.8599,-0.1132 v 3.6329 a 56.303663,18.719139 0 0 0 -3.9362,0.5839 v -3.6974 l 0.818,-0.108 v -17.5059 l -0.818,0.109 v -3.7393 z m 39.0916,0.1297 4.1936,0.6093 1.6955,3.1 v 19.2438 l -1.6759,2.5668 a 56.303663,18.719139 0 0 0 -4.2323,-0.6067 l -1.6764,-3.0515 v -19.2521 z m 7.1293,1.0697 3.9367,0.8738 v 3.6996 l -0.8599,-0.1902 v 17.5297 l 2.2335,0.494 v -2.896 l 2.1993,0.4874 v 6.6088 a 56.303663,18.719139 0 0 0 -7.5096,-1.6613 v -3.7006 l 0.8186,0.1819 v -17.5452 l -0.8186,-0.1814 z m -55.4757,0.2175 1.6955,2.4929 v 19.25 l -1.6712,3.1549 a 56.303663,18.719139 0 0 0 -4.2426,0.895 l -1.6702,-2.4428 v -19.2406 l 1.6955,-3.2154 z m 26.6981,1.432 a 0.63372958,0.63372958 0 0 0 0.5416,0.3995 h 0.2207 v 5.6425 l -1.3953,0.012 v -5.6441 h 0.2326 a 0.63372958,0.63372958 0 0 0 0.4004,-0.4057 z m -33.8268,0.1545 v 3.7026 l -0.8599,0.2941 v 17.526 l 0.8599,-0.2919 v 3.7026 a 56.303663,18.719139 0 0 0 -2.8841,0.8289 l -3.4267,-11.9228 v 9.5332 l 0.8599,-0.2914 v 3.5192 a 56.303663,18.719139 0 0 0 -3.9367,1.5146 v -3.698 l 0.8604,-0.2919 v -17.5101 l -0.8604,0.2935 v -3.6984 l 2.9358,-1.0176 3.3419,12.2613 v -9.6888 l -0.8268,0.2821 v -3.701 z m 47.5852,0.061 v 7.3778 l 2.7373,0.2233 v -7.3768 z m 23.7691,0.1343 3.9372,1.3752 v 3.6891 l -0.8186,-0.2862 v 6.7251 l 1.9601,-6.0415 -0.4139,-0.1436 v -3.7021 l 3.9372,1.3756 v 3.7 l -1.034,-0.3612 -2.621,7.8615 2.621,9.6713 1.034,0.3581 v 3.7006 a 56.303663,18.719139 0 0 0 -3.9372,-1.526 v -3.5394 l 0.4057,0.1406 -1.9519,-7.3892 v 6.7122 l 0.8186,0.2837 v 3.5487 a 56.303663,18.719139 0 0 0 -3.9372,-1.2103 v -3.7042 l 0.8604,0.2987 v -17.5467 l -0.8604,-0.2997 z m -23.1356,0.5525 1.4702,0.1209 v 6.105 l -1.4702,-0.1198 z m -32.3484,0.071 -2.7285,0.3617 v 7.3546 l 2.7285,-0.3612 z m 40.1257,0.098 v 17.5178 l 3.16,0.4547 v -17.5147 z m -40.7587,0.6242 v 6.0767 l -1.4619,0.1937 v -6.0766 z m -5.7785,0.092 a 0.63372958,0.63372958 0 0 0 0.6904,0.5684 l 0.1013,-0.012 v 16.2264 l -0.2682,0.035 a 0.63372958,0.63372958 0 0 0 -0.5235,0.5984 z m 47.1703,0.015 1.8934,0.2734 v 16.2351 l -1.8934,-0.2723 z m 5.3692,0.2821 a 0.63372958,0.63372958 0 0 0 0.4687,0.583 l 0.3224,0.072 v 16.2471 l -0.047,-0.011 a 0.63372958,0.63372958 0 0 0 -0.7431,0.5596 z m -55.3827,0.3065 -3.159,0.6733 v 17.5111 l 3.159,-0.6697 z m -0.633,0.7808 v 16.2187 l -1.8924,0.402 v -16.2176 z m -5.3759,0.7256 v 17.4335 a 0.63372958,0.63372958 0 0 0 -0.8103,-0.5467 l -0.023,0.01 v -16.1897 l 0.4315,-0.1473 a 0.63372958,0.63372958 0 0 0 0.4016,-0.5601 z m 74.9742,2.0422 a 0.63372958,0.63372958 0 0 0 0.231,0.3245 l -0.1737,-0.06 -0.5327,1.6417 v -1.8396 a 0.63372958,0.63372958 0 0 0 0.4754,-0.067 z m -40.9918,5.0684 v 5.6586 h -0.2321 a 0.63372958,0.63372958 0 0 0 -0.402,0.4041 0.63372958,0.63372958 0 0 0 -0.54,-0.3963 h -0.2212 v -5.6571 z m -19.3518,1.74 v 5.1625 l -0.3096,0.041 a 0.63372958,0.63372958 0 0 0 -0.4196,0.479 0.63372958,0.63372958 0 0 0 -0.5891,-0.3452 l -0.1436,0.019 v -5.163 z m 59.8682,8.0853 0.4072,1.5389 a 0.63372958,0.63372958 0 0 0 -0.014,-0.019 l -0.3932,-0.1359 z" /><path
       id="path2661"
       style="font-size:14.2043px;line-height:1.25;font-family:'College Block 2.0';-inkscape-font-specification:'College Block 2.0, Normal';fill:#d40000;fill-opacity:1;stroke:none;stroke-width:0.548436;stroke-dasharray:none;paint-order:stroke fill markers"
       d="m -2103.5402,7184.0378 -3.9369,0.031 v 3.7048 l 0.8602,-0.01 v 6.9098 l -2.663,0.022 v -6.9113 l 0.8603,-0.01 v -3.7048 l -3.9369,0.03 v 3.7062 l 0.8186,-0.01 v 17.5434 l -0.8186,0.01 v 3.7063 a 56.303663,18.719139 0 0 1 3.9369,-0.091 v -3.6508 l -0.8603,0.01 v -6.9244 l 2.663,-0.023 v 6.9237 l -0.8602,0.01 v 3.6501 a 56.303663,18.719139 0 0 1 0.9208,-0.01 56.303663,18.719139 0 0 1 3.0161,0.028 v -3.7041 l -0.8522,0.01 v -17.5362 l 0.8522,-0.01 z m -10.0573,0.1218 -8.8827,0.6165 v 6.6224 l 2.1997,-0.1532 v -2.8957 l 1.1666,-0.081 v 17.523 l -0.8769,0.061 v 3.6515 a 56.303663,18.719139 0 0 1 3.9367,-0.2743 v -3.653 l -0.8433,0.059 v -17.5216 l 1.1002,-0.077 v 2.895 l 2.1997,-0.1533 z m 16.266,0.095 v 3.7172 l 0.8601,0.07 v 17.5311 l -0.8601,-0.069 v 3.7033 a 56.303663,18.719139 0 0 1 3.9368,0.2714 v -3.6566 l -0.8603,-0.069 v -6.4488 l 3.2584,0.2649 1.6956,-2.7046 v -9.095 l -1.6956,-2.9949 z m -28.1253,0.9046 -6.3182,0.839 v 3.7391 l 0.8185,-0.1087 v 17.5056 l -0.8185,0.108 v 3.6975 a 56.303663,18.719139 0 0 1 3.9362,-0.5837 v -3.6333 l -0.8596,0.1132 v -6.4401 l 2.7286,-0.3611 v 6.4415 l -0.8593,0.113 v 3.6341 a 56.303663,18.719139 0 0 1 3.936,-0.4545 v -3.699 l -0.8602,0.1138 v -7.7438 l -0.612,-0.9025 0.612,-1.0922 v -8.6163 z m 39.0915,0.13 -1.6954,2.6096 v 19.2522 l 1.6765,3.0511 a 56.303663,18.719139 0 0 1 4.2324,0.607 l 1.6759,-2.5667 v -19.2441 l -1.6957,-3.1 z m 7.1296,1.0695 v 3.7004 l 0.8186,0.1817 v 17.5449 l -0.8186,-0.1816 v 3.7004 a 56.303663,18.719139 0 0 1 7.5095,1.6613 v -6.6086 l -2.1996,-0.4873 v 2.8957 l -2.2333,-0.494 v -17.5296 l 0.8601,0.1904 v -3.6996 z m -55.4759,0.2174 -4.1929,0.8944 -1.6955,3.2153 v 19.2406 l 1.6699,2.4426 a 56.303663,18.719139 0 0 1 4.2426,-0.8952 l 1.6715,-3.1547 v -19.25 z m -7.1287,1.5868 -3.9368,1.3461 v 3.7012 l 0.8267,-0.2824 v 9.6888 l -3.3415,-12.2613 -2.9359,1.0178 v 3.6982 l 0.8602,-0.2932 v 17.5099 l -0.8602,0.2918 v 3.6982 a 56.303663,18.719139 0 0 1 3.9368,-1.5145 v -3.5196 l -0.8602,0.2918 v -9.5334 l 3.4269,11.9229 a 56.303663,18.719139 0 0 1 2.884,-0.8288 v -3.7027 l -0.8601,0.2918 v -17.5259 l 0.8601,-0.294 z m 47.5853,0.061 2.7374,0.224 v 7.3768 l -2.7374,-0.2233 z m 23.7691,0.1343 v 3.6902 l 0.8602,0.2998 v 17.5464 l -0.8602,-0.2984 v 3.7041 a 56.303663,18.719139 0 0 1 3.9369,1.2104 v -3.5487 l -0.8186,-0.2838 v -6.7121 l 1.9522,7.3891 -0.4056,-0.1407 v 3.5392 a 56.303663,18.719139 0 0 1 3.9369,1.5263 v -3.7005 l -1.0339,-0.3582 -2.6213,-9.6713 2.6213,-7.8613 1.0339,0.3612 v -3.7004 l -3.9369,-1.3753 v 3.7019 l 0.4137,0.1437 -1.9603,6.0417 v -6.7252 l 0.8186,0.2859 v -3.6888 z m -55.4839,0.6237 v 7.3549 l -2.7286,0.3612 v -7.3542 z m 40.1255,0.098 3.1598,0.4582 v 17.5143 l -3.1598,-0.4545 z m -49.3803,1.3198 v 17.5151 l -3.1589,0.6697 v -17.5113 z" /></g></svg>
