<?xml version="1.0" encoding="UTF-8" standalone="no"?>
<svg
   width="293.17139"
   height="157.87305"
   viewBox="0 0 77.568261 41.770578"
   version="1.1"
   id="svg16"
   xml:space="preserve"
   xmlns="http://www.w3.org/2000/svg"
   xmlns:svg="http://www.w3.org/2000/svg"
   xmlns:rdf="http://www.w3.org/1999/02/22-rdf-syntax-ns#"
   xmlns:cc="http://creativecommons.org/ns#"
   xmlns:dc="http://purl.org/dc/elements/1.1/"><defs
     id="defs10" /><metadata
     id="metadata13"><rdf:RDF><cc:Work
         rdf:about=""><dc:format>image/svg+xml</dc:format><dc:type
           rdf:resource="http://purl.org/dc/dcmitype/StillImage" /></cc:Work></rdf:RDF></metadata><g
     id="layer1"
     transform="translate(2145.1544,-6982.535)"><path
       id="path3327"
       style="fill:#000000;fill-opacity:1;stroke-width:0.0733145"
       d="m -2125.7933,6982.5362 c -0.8013,-0.01 -1.6561,0.054 -2.1008,0.1735 -0.5057,0.1363 -1.1438,0.4247 -1.698,0.7379 h 7.2585 c -0.5639,-0.3356 -1.1984,-0.5981 -1.9048,-0.7766 -0.3406,-0.086 -0.9316,-0.1303 -1.5549,-0.1348 z m -12.6696,0.01 c -1.1234,0 -1.4084,0.022 -1.916,0.1575 -0.6518,0.1736 -1.2407,0.4256 -1.7709,0.7448 h 7.5118 c -0.5339,-0.2871 -1.1552,-0.5455 -1.7375,-0.6989 -0.7003,-0.1843 -0.8838,-0.2022 -2.0874,-0.2034 z m 65.3114,0 c -0.8334,0 -1.052,0.031 -1.5056,0.1628 -0.5899,0.1709 -1.1064,0.4252 -1.5523,0.7389 h 7.1831 c -0.5172,-0.296 -1.1094,-0.5477 -1.6921,-0.7028 -0.6376,-0.1696 -0.8609,-0.1913 -2.0358,-0.1977 -0.1466,0 -0.2783,0 -0.3973,0 z m -45.5404,0.1021 v 0.7996 h 5.0678 l -0.3448,-0.7609 -2.3616,-0.019 z m 10.9508,0 -0.3698,0.7976 h 5.0347 v -0.7976 h -2.3326 z m 5.2773,0 v 0.7976 h 10.484 v -0.7976 h -5.242 z m 11.316,0 v 0.7976 h 12.5369 v -0.7976 h -6.2684 z m -52.2721,1.8262 c -0.1965,0.2105 -0.3781,0.4367 -0.5449,0.6778 h 10.5238 v -0.6778 z m 12.4896,0 c -0.1997,0.2129 -0.3797,0.4405 -0.5448,0.6778 h 10.9645 c -0.1661,-0.24 -0.3465,-0.467 -0.5453,-0.6778 z m 12.2384,0 v 0.6778 h 5.8411 l -0.3072,-0.6778 z m 10.1041,0 -0.3143,0.6778 h 5.8259 v -0.6778 z m 6.124,0 v 0.6778 h 10.484 v -0.4511 -0.2267 z m 11.316,0 v 0.6778 h 12.5369 v -0.6778 z m 13.9062,0 c -0.1455,0.2121 -0.264,0.4401 -0.364,0.6778 h 9.6451 l 0.01,-0.6778 z m -67.2119,1.5006 c -0.1347,0.2748 -0.2471,0.5647 -0.3428,0.8631 h 4.3126 c 0.1019,-0.1356 0.2147,-0.2662 0.345,-0.3912 0.22,-0.2112 0.4942,-0.3646 0.7999,-0.4719 z m 7.2765,0 c 0.1377,0.038 0.2759,0.079 0.4152,0.1318 l 0.3884,0.1453 v 0.586 h 2.9324 v -0.8154 -0.047 z m 5.216,0 c -0.1368,0.2789 -0.2542,0.5671 -0.3515,0.8631 h 4.3216 c 0.2522,-0.347 0.5652,-0.6189 0.9295,-0.7978 0.07,-0.034 0.1195,-0.041 0.1778,-0.066 z m 6.868,0 c 0.059,0.025 0.1106,0.032 0.183,0.067 0.3798,0.1864 0.6933,0.4573 0.9406,0.7956 h 4.2773 c -0.096,-0.3012 -0.2087,-0.5896 -0.3404,-0.8631 z m 7.7206,0 v 0.8631 h 5.288 c -0.1356,-0.2979 -0.2439,-0.5333 -0.3933,-0.8631 z m 8.089,0 -0.026,0.056 c -0.1704,0.3674 -0.2469,0.5236 -0.3799,0.807 h 5.2996 l -0.01,-0.8631 z m 8.0642,0 -0.01,0.8631 h 3.7452 v -0.2309 -0.6322 z m 6.3801,0 v 0.1557 0.6232 h 1.4296 1.4297 v -0.7789 z m 3.6913,0 v 0.8631 h 2.8593 v -0.2309 -0.6322 z m 4.3255,0 v 0.8631 h 3.8857 v -0.8631 z m 5.3521,0 v 0.6322 0.2309 h 2.8593 v -0.8631 z m 3.6142,0 c 0,0.01 -0.01,0.017 -0.01,0.026 -0.046,0.2727 -0.05,0.5547 -0.033,0.8366 h 3.8082 c -0.1271,-0.2987 -0.088,-0.6088 0.077,-0.8631 z m 6.9165,0 0.019,0.01 0.021,0.8263 v 0.028 h 2.9199 l 0.01,-0.8629 z m -74.0363,1.5213 c -0.045,0.205 -0.082,0.4124 -0.1102,0.6223 h 4.0556 c 0.043,-0.2275 0.109,-0.4297 0.185,-0.6223 z m 8.6024,0 v 0.2848 h 1.4662 1.4662 v -0.2848 z m 3.8761,0 c -0.046,0.2056 -0.085,0.4131 -0.1136,0.6223 h 4.0513 c 0.052,-0.2218 0.1251,-0.4269 0.2071,-0.6223 z m 8.8859,0 c 0.078,0.1951 0.1446,0.4005 0.1905,0.6223 h 4.0317 c -0.031,-0.2162 -0.083,-0.4168 -0.1283,-0.6223 z m 6.239,0 v 0.6224 h 5.8717 c -0.078,-0.1698 -0.1953,-0.429 -0.2837,-0.6224 z m 7.373,0 c -0.085,0.1783 -0.2204,0.472 -0.293,0.6224 h 5.9091 l -0.01,-0.6224 z m 8.7726,0 -0.01,0.6224 h 7.4172 v -0.4117 h -1.8329 -1.8328 v -0.2107 z m 10.079,0 v 0.2107 h 1.4297 1.4296 v -0.2107 z m 4.3255,0 v 0.6224 h 3.8857 v -0.6224 z m 5.3521,0 v 0.2107 h 1.4296 1.4297 v -0.2107 z m 3.6666,0 c 0.048,0.2129 0.1078,0.4227 0.188,0.6224 h 6.218 c -0.061,-0.016 -0.1135,-0.031 -0.1767,-0.047 -0.9337,-0.2389 -1.4565,-0.4051 -1.8091,-0.5753 z m 6.9201,0 0.01,0.1404 1.4455,-0.02 1.4456,-0.02 v -0.1005 z m -54.9098,1.6226 c -0.8013,-0.01 -1.6561,0.054 -2.1008,0.1733 -0.593,0.1599 -1.3814,0.5245 -1.9848,0.8988 h 7.7815 c -0.6225,-0.4099 -1.3307,-0.7327 -2.141,-0.9374 -0.3406,-0.086 -0.9316,-0.1302 -1.5549,-0.1347 z m -12.6696,0.01 c -1.1234,0 -1.4084,0.022 -1.916,0.1574 -0.7569,0.2015 -1.4297,0.5083 -2.022,0.9057 h 8.0576 c -0.5842,-0.3524 -1.3409,-0.6777 -2.0322,-0.8596 -0.7003,-0.1844 -0.8838,-0.2024 -2.0874,-0.2035 z m 65.3114,0 v 1e-4 c -0.8334,0 -1.052,0.031 -1.5056,0.1627 -0.6892,0.1996 -1.2845,0.5077 -1.7744,0.8996 h 7.6692 c -0.5722,-0.3667 -1.2703,-0.681 -1.9561,-0.8636 -0.6376,-0.1696 -0.8609,-0.1913 -2.0358,-0.1976 -0.1466,0 -0.2783,0 -0.3973,0 z m -45.5404,0.1021 v 0.9603 h 5.1406 l -0.4176,-0.9217 -2.3616,-0.019 z m 10.9508,0 -0.4444,0.9585 h 5.1095 v -0.9585 h -2.3326 z m 5.2773,0 v 0.9585 h 10.484 v -0.9585 h -5.242 z m 11.316,0 v 0.9585 h 12.5369 v -0.9585 h -6.2684 z m -51.745,1.3251 c -0.437,0.3641 -0.8179,0.7892 -1.1398,1.2737 h 10.5916 v -0.9828 l -0.369,-0.2909 z m 12.4934,0 c -0.01,0.01 -0.017,0.011 -0.024,0.017 -0.4385,0.3662 -0.8047,0.7936 -1.1143,1.2567 h 11.0928 c -0.3184,-0.4787 -0.6922,-0.9092 -1.1357,-1.2738 z m 11.7075,0 v 0.031 1.2434 h 5.8839 l -0.5771,-1.2738 z m 10.3364,0 -0.5904,1.2737 h 5.8699 v -1.2425 -0.031 z m 5.8917,0 v 0.031 1.2424 h 10.484 v -0.546 -0.7277 z m 11.316,0 v 1.2042 0.07 h 12.5369 v -0.07 -1.2042 z m 14.3101,0 c -0.3557,0.3701 -0.6236,0.8008 -0.8073,1.2737 h 9.6833 l 0.012,-1.0486 -0.2926,-0.2251 z m -67.3753,1.5666 c -0.076,0.1294 -0.1541,0.2569 -0.2225,0.394 -0.4825,0.9667 -0.7212,2.1077 -0.7166,3.2497 h 4.0261 c 0,-0.088 0,-0.1759 0.01,-0.2664 0.053,-1.1383 0.3363,-1.8519 0.9812,-2.4708 0.7393,-0.7095 2.0394,-0.8403 3.3769,-0.3399 l 0.3883,0.1451 v 0.7646 0.7646 h 1.4663 1.4662 v -1.7585 -0.4824 z m 12.489,0 c -0.6442,1.0901 -0.9641,2.3667 -0.9561,3.6437 h 4.0294 c -0.01,-0.3893 0.021,-0.77 0.088,-1.0562 0.2316,-0.9859 0.763,-1.7251 1.5008,-2.0874 0.359,-0.1763 0.5008,-0.2031 1.0734,-0.2031 0.5743,0 0.7141,0.026 1.078,0.2052 1.0416,0.5116 1.6048,1.6356 1.584,3.1415 h 4.0199 c 0,-0.2578 -0.015,-0.5188 -0.043,-0.7833 -0.1171,-1.088 -0.4255,-2.0443 -0.9012,-2.8604 z m 14.3516,0 v 3.6331 0.01 h 3.3248 c 0.014,-0.3067 0.035,-0.379 0.071,-0.3057 0.01,0.016 0.1138,0.2535 0.1377,0.3057 h 2.8347 c -0.1047,-0.2075 -0.7273,-1.5625 -1.4924,-3.251 l -0.1782,-0.3929 z m 8.2906,0 -0.2277,0.491 c -0.9056,1.9535 -1.3392,2.8544 -1.5262,3.1527 h 2.9144 c 0.098,-0.2066 0.2033,-0.4285 0.2182,-0.4506 0.026,-0.038 0.043,0.1094 0.052,0.4506 h 3.2727 l -2e-4,-0.029 -0.019,-3.6146 z m 7.8648,0 -0.019,3.6146 -2e-4,0.029 h 7.4227 v -0.1574 -1.3198 h -1.8329 -1.8328 v -1.0997 -1.067 z m 6.3779,0 v 0.5903 0.6232 h 1.4296 1.4297 v -1.2135 z m 3.6913,0 v 2.1666 h 1.4297 1.4296 v -1.0997 -1.0669 z m 4.3255,0 v 3.6437 h 3.8857 v -3.6437 z m 5.3521,0 v 1.0669 1.0997 h 1.4296 1.4297 v -2.1666 z m 3.7219,0 c -0.045,0.1508 -0.087,0.3027 -0.1143,0.4614 -0.1898,1.1202 0.179,2.3972 0.9057,3.1825 h 8.1755 c -0.5479,-0.437 -1.3012,-0.7308 -2.7929,-1.1124 -1.5636,-0.4001 -2.0411,-0.5938 -2.3406,-0.9498 -0.4864,-0.5781 -0.2351,-1.3229 0.4555,-1.5817 z m 5.6759,0 c 0.2698,0.058 0.5315,0.1343 0.7307,0.2338 l 0.4202,0.2101 0.021,0.8263 0.021,0.8265 1.4453,-0.02 1.4457,-0.02 0.02,-1.6992 0.01,-0.3575 z m -53.9893,4.6443 c -0.7178,0.01 -1.4372,0.066 -1.8324,0.1731 -0.7979,0.2152 -1.9525,0.8005 -2.5294,1.2824 -3.1935,2.6673 -2.9594,8.3381 0.4399,10.6567 0.8804,0.6006 2.0666,1.0165 3.1892,1.1179 0.3629,0.033 0.6762,0.064 0.6964,0.07 0.1749,0.047 1.735,-0.1766 2.2349,-0.3214 3.0537,-0.885 4.8748,-3.7549 4.5133,-7.1126 -0.3218,-2.9882 -2.0498,-5.0141 -4.8886,-5.7312 -0.3892,-0.098 -1.1055,-0.1421 -1.8233,-0.1346 z m -12.4012,0.01 c -1.1234,0 -1.4084,0.022 -1.916,0.1573 -1.8596,0.4952 -3.2388,1.5943 -4.0566,3.2332 -0.8987,1.8011 -0.9598,4.2062 -0.1549,6.0977 0.8957,2.105 2.8977,3.5105 5.321,3.7357 2.0802,0.1931 4.3928,-0.325 5.6603,-1.2681 l 0.3093,-0.2301 v -1.8161 -1.8161 l -1.448,0.02 -1.4479,0.02 -0.021,0.7409 c -0.02,0.6973 -0.031,0.7455 -0.1933,0.8195 -0.3593,0.1638 -1.0829,0.2516 -1.8536,0.2252 -0.7234,-0.025 -0.8423,-0.05 -1.2854,-0.2676 -1.1152,-0.5491 -1.6516,-1.664 -1.5765,-3.2775 0.053,-1.1383 0.3364,-1.8518 0.9812,-2.4707 0.7392,-0.7095 2.0395,-0.8403 3.3769,-0.3399 l 0.3883,0.1452 v 0.7645 0.7647 h 1.4664 1.4661 v -1.7586 -1.7585 l -0.4215,-0.3322 c -0.5922,-0.467 -1.6116,-0.9477 -2.513,-1.185 -0.7003,-0.1843 -0.8838,-0.2022 -2.0874,-0.2033 z m 65.7087,0 c -1.1729,-0.01 -1.3845,0.011 -1.9029,0.1616 -1.7654,0.5111 -2.938,1.7163 -3.2055,3.2947 -0.1982,1.17 0.212,2.5125 1.004,3.2858 0.6622,0.6466 1.6226,1.0458 3.6949,1.5362 1.4529,0.3437 1.8392,0.5878 1.8392,1.1631 0,0.4011 -0.2431,0.7266 -0.6404,0.8577 -0.6426,0.2121 -1.9805,0.045 -2.7453,-0.3421 l -0.3534,-0.1791 v -0.7336 -0.7334 l -1.448,0.02 -1.4479,0.02 -0.02,1.5498 -0.02,1.5498 0.3786,0.3403 c 0.8783,0.7897 2.2043,1.295 3.7664,1.4351 h 2e-4 c 2.2148,0.1986 4.1125,-0.2558 5.1894,-1.2431 0.7423,-0.6807 1.0788,-1.4709 1.0788,-2.535 0,-1.1449 -0.2823,-1.9259 -0.9303,-2.5739 -0.5763,-0.5763 -1.3136,-0.9011 -3.0584,-1.3475 -1.5637,-0.4001 -2.0411,-0.5938 -2.3406,-0.9499 -0.5496,-0.6531 -0.1596,-1.5221 0.7444,-1.6588 0.5008,-0.075 1.3412,0.067 1.8287,0.311 l 0.4203,0.2101 0.021,0.8264 0.021,0.8263 1.4455,-0.02 1.4455,-0.02 0.02,-1.6992 0.02,-1.6994 -0.4411,-0.3393 c -0.6175,-0.4752 -1.4876,-0.8923 -2.3278,-1.1159 -0.6376,-0.1697 -0.861,-0.1914 -2.0358,-0.1977 z m -45.9377,0.1009 v 1.3574 1.3573 h 0.6597 0.6598 v 3.8124 3.8123 h -0.6598 -0.6597 v 1.3196 1.3197 h 2.9691 2.9693 v -1.3197 -1.3196 h -0.6598 -0.6598 l 0.01,-2.1444 c 0.01,-1.7065 0.023,-2.1074 0.092,-1.9628 0.048,0.1 0.4341,0.9577 0.8589,1.9062 l 0.7722,1.7245 h 1.4475 1.4476 l 0.8366,-1.833 c 0.4603,-1.0079 0.8703,-1.8823 0.911,-1.9428 0.05,-0.075 0.069,0.5775 0.059,2.0528 l -0.014,2.1629 -0.6415,0.021 -0.6415,0.021 v 1.3167 1.3169 h 2.9325 2.9327 v -1.3167 -1.3169 l -0.6415,-0.021 -0.6415,-0.021 -0.019,-3.7942 -0.019,-3.794 h 0.6605 0.6606 v -1.3563 -1.3563 h -2.3326 -2.3326 l -1.5683,3.3831 c -1.2191,2.6296 -1.5848,3.357 -1.642,3.2663 -0.04,-0.064 -0.7359,-1.5781 -1.5454,-3.3645 l -1.4721,-3.2482 -2.3616,-0.019 z m 16.2281,0 v 1.3564 1.3562 h 0.6238 0.6239 l -0.019,3.794 -0.019,3.7941 -0.6048,0.021 -0.6048,0.021 v 1.3167 l 10e-5,1.3166 h 5.3521 5.3519 v -2.0528 -2.0529 h -1.4297 -1.4296 v 0.6233 0.6232 h -1.4296 -1.4297 v -1.2097 -1.2097 h 1.8329 1.8328 v -1.3197 -1.3196 h -1.8328 -1.8329 v -1.0997 -1.0998 h 1.3197 1.3197 v 0.6232 0.6232 h 1.4297 1.4296 v -2.0528 -2.0528 h -5.242 z m 11.316,0 v 2.5294 2.5293 h 1.4297 1.4296 v -1.0997 -1.0997 h 0.7332 0.733 v 3.7391 3.739 h -0.5864 -0.5865 v 1.3196 1.3197 h 3.1159 3.1159 v -1.3197 -1.3196 h -0.5865 -0.5867 v -3.739 -3.7391 h 0.7333 0.7331 v 1.0997 1.0997 h 1.4296 1.4297 v -2.5293 -2.5294 h -6.2684 z m -34.8402,3.1892 c 0.5743,0 0.7141,0.026 1.078,0.2054 1.0809,0.5307 1.6485,1.72 1.5809,3.3123 -0.066,1.5456 -0.7153,2.6191 -1.8213,3.0093 v 0 c -0.3819,0.1348 -1.329,0.1325 -1.7009,-0.01 -0.7012,-0.2574 -1.2999,-0.9151 -1.5995,-1.7575 -0.2158,-0.6069 -0.2696,-1.8013 -0.1114,-2.4751 0.2316,-0.9859 0.763,-1.725 1.5008,-2.0873 0.359,-0.1763 0.5008,-0.2031 1.0734,-0.2031 z m 8.6156,11.0035 v 0.011 3.6294 h 4.699 l 0.1765,-0.3892 c 0.7651,-1.6884 1.3877,-3.0435 1.4924,-3.251 h -2.8346 c -0.024,0.053 -0.1301,0.2898 -0.1379,0.3057 -0.035,0.074 -0.057,0 -0.07,-0.3057 z m 6.5367,0 c 0.187,0.2985 0.6206,1.1993 1.5262,3.1529 l 0.226,0.4874 h 4.6873 l 0.019,-3.6111 10e-5,-0.029 h -3.2727 c -0.01,0.3414 -0.027,0.4885 -0.052,0.4508 -0.015,-0.022 -0.1201,-0.244 -0.2183,-0.4508 z m 9.6003,0 2e-4,0.029 0.019,3.611 h 3.7385 v -1.0634 -1.0997 h 1.8329 1.8328 v -1.3197 -0.1574 z m 14.4131,0 v 3.6403 h 3.8857 v -3.6403 z m 9.8654,0 c -0.7267,0.7855 -1.0955,2.0623 -0.9057,3.1826 0.026,0.1574 0.069,0.3081 0.1133,0.4577 h 4.276 c -0.6807,-0.2634 -0.925,-1.0035 -0.4416,-1.578 0.2995,-0.3561 0.777,-0.5498 2.3406,-0.9498 1.4917,-0.3817 2.245,-0.6755 2.7929,-1.1125 z m -68.1952,2e-4 c -0.01,1.142 0.2341,2.2828 0.7166,3.2497 0.067,0.1358 0.1452,0.262 0.2205,0.3904 h 10.774 v -0.4789 -1.7586 h -1.4662 -1.4662 v 0.7647 0.7645 l -0.3884,0.1452 c -1.3374,0.5005 -2.6377,0.3695 -3.3769,-0.3399 -0.6448,-0.6188 -0.9283,-1.3325 -0.9812,-2.4708 -0.01,-0.091 -0.01,-0.179 -0.01,-0.2663 z m 12.472,0 c -0.01,1.2754 0.3111,2.5507 0.9538,3.6401 h 11.477 c 0.4745,-0.8155 0.7824,-1.7705 0.8995,-2.8569 0.028,-0.2645 0.041,-0.5255 0.043,-0.7832 h -4.0198 c 0.021,1.5057 -0.5425,2.6298 -1.5841,3.1413 -0.3638,0.1787 -0.5036,0.2054 -1.0779,0.2054 -0.5726,0 -0.7145,-0.027 -1.0734,-0.2033 -0.7379,-0.3623 -1.2693,-1.1014 -1.5008,-2.0872 -0.067,-0.2863 -0.094,-0.667 -0.089,-1.0562 z m 41.5323,1.477 v 2.1631 h 2.8593 v -1.0634 -1.0997 h -1.4296 z m 9.6776,0 v 1.0997 1.0634 h 2.8593 v -2.1631 h -1.4297 z m 10.5902,0.07 -0.02,0.8264 -0.021,0.8264 -0.4203,0.2101 c -0.1951,0.097 -0.4507,0.1723 -0.7146,0.23 h 4.0914 l -0.01,-0.3537 -0.02,-1.6993 -1.4456,-0.02 z m -23.9591,0.883 v 0.6232 0.5867 h 2.8593 v -1.2099 h -1.4297 z m -49.1961,1.5032 c 0.3215,0.4845 0.702,0.9094 1.1385,1.2737 h 9.0913 l 0.3644,-0.2874 v -0.9863 z m 12.4951,0 c 0.3102,0.4644 0.677,0.8931 1.1166,1.2603 0.01,0.01 0.014,0.01 0.019,0.014 h 8.829 c 0.4425,-0.3646 0.8156,-0.7953 1.1333,-1.2738 z m 12.8482,0 v 1.247 0.026 h 5.3085 l 0.5772,-1.2737 z m 9.7443,0 0.5906,1.2737 h 5.281 v -0.028 -1.2461 z m 6.4838,0 v 1.2461 0.028 h 10.484 v -0.7241 -0.5496 z m 11.316,0 v 0.073 1.2007 h 12.5369 v -1.2007 -0.073 z m 13.5013,0 c 0.1832,0.4729 0.4508,0.9033 0.8058,1.2737 h 8.6036 l 0.2876,-0.2214 -0.012,-1.0523 z m -64.7594,1.6403 c 0.5935,0.3991 1.2678,0.7072 2.027,0.9093 0.5076,0.135 0.7926,0.1584 1.916,0.1574 1.2036,0 1.3871,-0.019 2.0874,-0.2036 0.6936,-0.1825 1.4525,-0.5095 2.0375,-0.8631 z m 12.5205,0 c 0.6042,0.3756 1.3964,0.7419 1.9913,0.9024 0.4447,0.1199 1.2995,0.1794 2.1008,0.1734 0.6233,-0.01 1.2143,-0.049 1.5549,-0.1348 0.8125,-0.2052 1.5225,-0.5294 2.1461,-0.941 z m 11.1935,0 v 0.964 l 2.3614,-0.019 2.3616,-0.019 0.4194,-0.9255 z m 10.5046,0 0.4462,0.9621 h 2.3325 2.3326 v -0.9621 z m 5.7235,0 v 0.9621 h 5.242 5.242 v -0.9621 z m 11.316,0 v 0.9621 h 6.2685 6.2684 v -0.9621 z m 14.7121,0 c 0.4908,0.3937 1.0873,0.7032 1.7786,0.9034 0.4536,0.1313 0.6722,0.1616 1.5056,0.1626 v 2e-4 c 0.119,0 0.2507,-3e-4 0.3973,0 1.1749,-0.01 1.3982,-0.028 2.0358,-0.1978 0.6881,-0.183 1.3884,-0.499 1.9614,-0.8673 z m -40.9367,2.0758 v 0.6189 h 5.5896 c 0.088,-0.1921 0.2046,-0.4499 0.2821,-0.6189 z m 7.08,0 c 0.072,0.1496 0.2071,0.4418 0.2913,0.6189 h 5.6146 l 0.01,-0.6189 z m 9.0625,0 0.01,0.6189 h 3.7483 v -0.207 h 1.8329 1.8328 v -0.4119 z m 14.4076,0 v 0.6189 h 3.8857 v -0.6189 z m 9.2067,0 c -0.079,0.1989 -0.139,0.4073 -0.1874,0.6189 h 4.427 c 0.3527,-0.1688 0.8749,-0.3344 1.8017,-0.5716 0.063,-0.016 0.116,-0.031 0.1767,-0.047 z m -67.4704,2e-4 c 0.028,0.2087 0.065,0.4149 0.1093,0.6187 h 4.1299 c -0.075,-0.1915 -0.1403,-0.3926 -0.1836,-0.6187 z m 12.4751,0 c 0.028,0.208 0.066,0.4143 0.1127,0.6187 h 4.1444 c -0.081,-0.1944 -0.1535,-0.3981 -0.2058,-0.6187 z m 9.19,0 c -0.046,0.2205 -0.1121,0.4246 -0.1893,0.6187 h 4.0934 c 0.045,-0.2044 0.097,-0.4038 0.1276,-0.6187 z m -12.9525,0.3375 v 0.2812 h 2.9324 v -0.2812 h -1.4662 z m 45.2256,0.075 v 0.207 h 2.8593 v -0.207 h -1.4296 z m 9.6776,0 v 0.207 h 2.8593 v -0.207 h -1.4297 z m 10.5902,0.07 -0.01,0.1366 h 2.8957 v -0.097 l -1.4456,-0.02 z m -73.9176,0.7949 c 0.095,0.2985 0.208,0.5881 0.3425,0.863 h 5.1054 c -0.3013,-0.1072 -0.5715,-0.2596 -0.789,-0.4682 -0.1314,-0.1262 -0.2448,-0.2579 -0.3473,-0.3948 z m 8.4242,0 v 0.5896 l -0.3884,0.1453 c -0.1354,0.05 -0.2699,0.09 -0.4039,0.1281 h 3.7247 v -0.044 -0.8189 z m 4.0596,0 c 0.097,0.2959 0.2145,0.5841 0.3511,0.863 h 5.0693 c -0.055,-0.023 -0.102,-0.029 -0.168,-0.062 -0.3656,-0.1796 -0.6799,-0.4524 -0.9327,-0.8013 z m 8.3477,0 c -0.2477,0.3402 -0.5626,0.6119 -0.9439,0.7991 -0.069,0.034 -0.1162,0.04 -0.1733,0.064 h 5.0527 c 0.1314,-0.2736 0.2436,-0.562 0.3398,-0.8631 z m 6.5937,0 v 0.863 h 4.8962 c 0.1494,-0.3297 0.2578,-0.5653 0.3934,-0.863 z m 7.6814,0 c 0.1333,0.2843 0.2105,0.4414 0.3815,0.8105 l 0.025,0.052 h 4.891 l 0.01,-0.8631 z m 8.4675,0 0.01,0.863 h 3.7407 v -0.6286 -0.2344 z m 10.0757,0 v 0.863 h 2.8593 v -0.6286 -0.2344 z m 4.3255,0 v 0.863 h 3.8857 v -0.863 z m 5.3521,0 v 0.2344 0.6286 h 2.8593 v -0.863 z m 3.5751,0 c -0.017,0.2831 -0.014,0.5662 0.033,0.8401 0,0.01 0.01,0.015 0.01,0.023 h 3.844 c -0.1629,-0.2546 -0.2015,-0.5647 -0.073,-0.8629 z m 6.9952,0 v 0.031 l -0.021,0.8264 -0.011,0.01 h 2.9619 l -0.01,-0.8631 z m -23.9392,0.088 v 0.6233 0.152 h 2.8593 v -0.7753 h -1.4297 z m -49.1282,1.5982 c 0.1666,0.2411 0.348,0.4672 0.5443,0.6778 h 9.982 v -0.6778 z m 12.4898,0 c 0.1647,0.2374 0.3446,0.465 0.5441,0.6778 h 9.8811 c 0.1985,-0.2107 0.3785,-0.4379 0.5443,-0.6778 z m 12.7856,0 v 0.6778 h 5.5356 l 0.3071,-0.6778 z m 9.7883,0 0.3141,0.6778 h 5.5133 v -0.6778 z m 6.4398,0 v 0.6778 h 10.484 v -0.2231 -0.4547 z m 11.316,0 v 0.6778 h 12.5369 v -0.6778 z m 13.5408,0 c 0.1,0.2378 0.218,0.4656 0.3633,0.6778 h 9.2909 l -0.01,-0.6778 z m -64.5491,1.7064 c 0.5319,0.321 1.1229,0.5741 1.7772,0.7482 0.5076,0.1351 0.7926,0.1587 1.916,0.1576 1.2036,0 1.3871,-0.019 2.0874,-0.2035 0.5847,-0.1539 1.2086,-0.4138 1.7439,-0.7023 z m 12.5578,0 c 0.5556,0.3146 1.1967,0.6046 1.7042,0.7414 0.4447,0.12 1.2995,0.1795 2.1008,0.1735 0.6233,-0.01 1.2143,-0.049 1.5549,-0.1348 0.7086,-0.1791 1.3446,-0.443 1.9098,-0.7801 z m 10.9064,0 v 0.8031 l 2.3614,-0.019 2.3616,-0.019 0.3463,-0.7643 z m 10.5794,0 0.3714,0.8011 h 2.3323 2.3326 v -0.8011 z m 5.6487,0 v 0.8011 h 5.242 5.242 v -0.8011 z m 11.316,0 v 0.8011 h 6.2685 6.2684 v -0.8011 z m 14.9332,0 c 0.447,0.3155 0.9654,0.571 1.5575,0.7423 0.4536,0.1314 0.6722,0.1618 1.5056,0.1628 0.119,0 0.2507,-2e-4 0.3973,0 1.1749,-0.01 1.3982,-0.028 2.0358,-0.1977 0.5851,-0.1557 1.1797,-0.4085 1.6984,-0.7062 z" /></g></svg>
