<?xml version="1.0" encoding="UTF-8" standalone="no"?>
<svg
   width="360.87158"
   height="141.42188"
   viewBox="0 0 95.480604 37.417872"
   version="1.1"
   id="svg16"
   xml:space="preserve"
   xmlns="http://www.w3.org/2000/svg"
   xmlns:svg="http://www.w3.org/2000/svg"
   xmlns:rdf="http://www.w3.org/1999/02/22-rdf-syntax-ns#"
   xmlns:cc="http://creativecommons.org/ns#"
   xmlns:dc="http://purl.org/dc/elements/1.1/"><defs
     id="defs10" /><metadata
     id="metadata13"><rdf:RDF><cc:Work
         rdf:about=""><dc:format>image/svg+xml</dc:format><dc:type
           rdf:resource="http://purl.org/dc/dcmitype/StillImage" /></cc:Work></rdf:RDF></metadata><g
     id="layer1"
     transform="translate(2023.3383,-7496.0135)"><g
       id="g3058"
       transform="matrix(0.7446919,0,0,0.7446919,-3460.0281,5082.0759)"
       style="fill:#000000;fill-opacity:1"><path
         id="path3056"
         style="font-size:10.5833px;line-height:1.25;font-family:'College Block 2.0';-inkscape-font-specification:'College Block 2.0, Normal';fill:#000000;fill-opacity:1;stroke-width:0.264583"
         d="m 1995.2994,3247.3761 -7.5251,0.049 -4.6731,14.0787 -4.7201,-13.7661 -7.4001,0.5654 v 3.8302 l 2.0149,-0.077 v 21.1584 l -2.0149,0.077 v 3.8101 c 2.8048,-0.2378 5.66,-0.4302 8.5504,-0.5772 v -3.5595 l -1.5901,0.061 v -12.3822 l 0.1519,-0.034 3.682,9.8372 3.0427,-0.1163 3.3269,-10.4691 0.1974,0.024 v 12.7429 l -1.2294,0.047 v 3.5667 c 2.0702,-0.057 4.1484,-0.09 6.2291,-0.1007 0.6526,0 1.3052,3e-4 1.9575,0.011 v -3.7899 l -2.0934,0.08 v -21.1569 l 2.0934,-0.08 z m 3.6551,0.069 v 4.2901 l 1.6914,0.08 v 20.2334 l -1.6914,-0.082 v 4.2348 c 5.2608,0.1066 10.464,0.3632 15.5215,0.7655 v -7.614 l -4.5496,-0.2191 v 3.3471 l -4.6162,-0.2232 v -7.9737 l 5.9671,0.2863 v -4.2762 l -5.9671,-0.2848 v -7.9736 l 4.6162,0.2186 v 3.3631 l 4.5496,0.216 v -7.6574 c -5.1738,-0.4364 -10.3477,-0.6641 -15.5215,-0.7309 z m 19.1818,1.0883 v 7.6419 l 4.3981,0.6082 v -3.3414 l 2.3312,0.3225 v 20.223 l -1.7524,-0.2417 v 4.0684 c 2.7008,0.3172 5.3286,0.6771 7.8693,1.078 v -4.0597 l -1.6862,-0.233 v -20.2221 l 2.1983,0.3039 v 3.3409 l 4.3972,0.6077 v -7.6404 c -5.9185,-1.15 -11.837,-1.9535 -17.7555,-2.4562 z m -54.5776,0.511 c -2.8705,0.346 -5.7984,0.6678 -8.74,1.2284 l -3.5078,3.9253 v 22.2095 l 3.4075,2.6795 c 2.8834,-0.472 5.8838,-0.8908 8.9804,-1.2532 l 3.4199,-3.6546 v -22.2038 z m -19.4794,3.3471 c -3.0097,0.7122 -5.9704,1.5473 -8.8915,2.481 l -3.3636,4.5698 v 22.2513 l 3.175,2.0996 c 2.7996,-0.976 5.9319,-1.8803 9.3566,-2.7011 l 3.1879,-3.9724 v -4.3444 l -4.47,1.2971 v 3.3414 l -6.7443,1.9606 v -20.2324 l 6.7443,-1.9363 v 3.3414 l 4.47,-1.2862 v -4.329 z m 98.7614,0.051 -3.6871,2.4794 v 9.9637 l 3.4954,4.2732 7.5334,2.1776 v 7.9835 l -6.3438,-1.8449 v -3.3455 l -4.685,-1.3591 v 4.3496 l 3.3166,4.0024 c 3.3334,0.79 6.3945,1.6587 9.1462,2.5957 l 3.2556,-2.0237 v -9.9647 l -3.6892,-4.3848 -7.3442,-2.1167 v -7.9721 l 6.3438,1.8175 v 4.9532 l 4.6896,1.3487 v -5.9531 l -3.5672,-4.5775 c -2.8214,-0.9805 -5.6428,-1.7918 -8.4641,-2.4024 z m -80.3238,1.172 v 20.2075 l -6.5851,0.9281 v -20.2096 z" /><path
         id="path3057"
         style="fill:#000000;fill-opacity:1;stroke-linecap:round;stroke-linejoin:round;paint-order:stroke fill markers"
         d="m 1993.3476,3280.2939 c -21.4231,0 -40.8147,2.4528 -54.9884,6.4745 -3.3521,0.9512 -6.386,1.9943 -9.1188,3.1161 v 1.8867 a 77.10218,21.877584 0 0 1 64.1077,-9.7565 77.10218,21.877584 0 0 1 64.1072,9.7565 v -1.8872 c -2.7324,-1.1216 -5.7658,-2.1646 -9.1173,-3.1156 -14.1738,-4.0217 -33.5674,-6.4745 -54.9904,-6.4745 z" /><path
         id="path3058"
         style="fill:#000000;fill-opacity:1;stroke-linecap:round;stroke-linejoin:round;paint-order:stroke fill markers"
         d="m 1993.3476,3241.5248 c -21.4231,0 -40.8147,2.4528 -54.9884,6.4745 -3.3521,0.9512 -6.386,1.9943 -9.1188,3.1161 v 1.8867 a 77.10218,21.877584 0 0 1 64.1077,-9.7565 77.10218,21.877584 0 0 1 64.1072,9.7565 v -1.8872 c -2.7324,-1.1216 -5.7658,-2.1646 -9.1173,-3.1156 -14.1738,-4.0217 -33.5674,-6.4745 -54.9904,-6.4745 z" /></g></g></svg>
