<?xml version="1.0" encoding="UTF-8" standalone="no"?>
<svg
   width="357.15527"
   height="162.49414"
   viewBox="0 0 94.497331 42.993243"
   version="1.1"
   id="svg16"
   xml:space="preserve"
   xmlns="http://www.w3.org/2000/svg"
   xmlns:svg="http://www.w3.org/2000/svg"
   xmlns:rdf="http://www.w3.org/1999/02/22-rdf-syntax-ns#"
   xmlns:cc="http://creativecommons.org/ns#"
   xmlns:dc="http://purl.org/dc/elements/1.1/"><defs
     id="defs10" /><metadata
     id="metadata13"><rdf:RDF><cc:Work
         rdf:about=""><dc:format>image/svg+xml</dc:format><dc:type
           rdf:resource="http://purl.org/dc/dcmitype/StillImage" /></cc:Work></rdf:RDF></metadata><g
     id="layer1"
     transform="translate(2161.3565,-6907.219)"><path
       id="path3325"
       style="color:#000000;fill:#000000;stroke-width:0.689561;stroke-linecap:round;stroke-linejoin:round;-inkscape-stroke:none"
       d="m -2147.259,6907.2263 c -0.01,2e-4 -0.032,0.01 -0.04,0.01 -0.046,0.01 -0.075,-0.01 -0.1212,0 -0.01,0.01 -0.01,0.01 -0.012,0.013 -0.068,0 -0.1181,2e-4 -0.2569,0.018 -0.5602,0.076 -1.3913,0.2192 -2.3355,0.5669 h 0.01 c -2.4371,0.891 -3.9882,2.4672 -4.8252,3.3657 -2.2209,2.3837 -3.488,5.0278 -4.3934,7.2918 -1.189,2.9733 -1.6652,5.8637 -1.9562,8.2888 v -0.01 c -0.081,0.8297 -0.066,0.5408 -0.096,1.0886 -0.024,0.4342 -0.072,0.9466 -0.071,1.2929 0,0.2404 0.01,0.4413 0.012,0.5882 0.01,0.147 0.01,0.3809 0.01,0.1754 l 0.015,0.6931 v 0.017 c 0,0.01 10e-5,0.039 0,0.069 0,0.014 0,0.029 0,0.043 0,0 2e-4,0.01 0,0.01 -2e-4,0.025 -2e-4,0.051 0,0.077 -3e-4,0.02 -3e-4,0.039 0,0.059 0.039,0.8646 0.1571,1.5729 0.2195,1.9584 0.2699,1.651 0.6526,3.5139 1.4023,5.4841 0.4481,1.1769 0.9929,2.1133 1.4114,2.8012 0.9836,1.6163 2.1468,2.7489 2.9897,3.5327 0.7966,0.741 1.7844,1.4931 2.994,2.0957 2.5154,1.2534 4.9668,1.2377 6.521,1.1118 1.3765,-0.1113 2.6542,-0.4476 3.8129,-0.9198 1.3759,-0.5615 2.4698,-1.2936 3.3132,-1.942 0.9658,-0.7421 1.7448,-1.6143 2.5289,-2.4741 0.3003,0.1451 0.4281,0.2805 0.8542,0.3867 1.7144,0.4258 4.0209,0.5271 6.3176,-0.5199 0.9925,-0.4527 1.7725,-1.1333 2.4929,-1.8238 0.1324,-0.027 0.4102,-0.075 0.8862,-0.2287 0.5936,-0.1915 1.346,-0.4909 2.0985,-0.9953 1.4127,-0.9467 2.2908,-2.0731 2.7731,-2.7367 0.2482,-0.3426 0.4575,-0.656 0.6425,-0.9322 0.091,-0.1369 0.1856,-0.2763 0.2544,-0.377 -0.01,0.01 0.063,-0.087 0.095,-0.1318 0.01,-0.011 -0.01,0.01 0.039,-0.054 0.01,-0.01 0.011,-0.017 0.027,-0.042 0.01,-0.012 0.039,-0.062 0.039,-0.062 0,0 0.01,-0.017 0.019,-0.034 0.018,-0.023 0.043,-0.064 0.063,-0.092 0.055,0.4917 0.075,0.9825 0.1632,1.4692 0.1796,1.0019 0.4641,1.9554 0.8388,2.8607 0.4264,1.0303 1.2592,2.6163 3.0666,3.8438 1.3684,0.9273 2.6519,1.14 3.3347,1.2255 0.7044,0.089 2.1152,0.1931 3.7333,-0.4458 1.1664,-0.4603 1.886,-1.0539 2.4823,-1.6528 1.4433,0.5189 3.1239,0.8149 5.0223,0.3532 0.3931,0.6196 0.7269,1.2502 1.2579,1.833 1.465,1.6072 3.836,3.105 6.8727,3.0638 0.01,1e-4 0.019,1e-4 0.03,0 1.052,-0.019 1.9909,-0.2566 2.8714,-0.5669 0.7898,0.9869 1.6999,1.8731 2.8632,2.4309 2.264,1.086 4.4177,0.9475 5.4894,0.831 2.0103,-0.2165 3.9839,-1.0904 5.5382,-2.6209 2.3016,-2.2678 3.0538,-5.333 2.823,-7.9382 -0.038,-0.4241 -0.1087,-0.5794 -0.1832,-0.8605 0.3202,-0.3151 0.6504,-0.6297 0.9318,-0.9425 0.01,-0.01 0.028,-0.025 0.032,-0.03 l 0.01,-0.01 0.016,-0.015 c 0.029,-0.028 0.06,-0.059 0.092,-0.091 v -3e-4 c 0.046,-0.1334 0.075,-0.2722 0.085,-0.413 0.025,0.012 0.1443,0.071 0.1443,0.071 1e-4,0 -0.088,0.1522 -0.088,0.1521 10e-5,-2e-4 -0.065,0.093 -0.082,0.1159 -0.034,0.043 -0.047,0.059 -0.058,0.072 0.01,-0.01 0.017,-0.016 0.028,-0.027 0.095,-0.098 0.2292,-0.2402 0.4041,-0.4336 0.4788,-0.5296 0.9401,-1.0775 1.3602,-1.6 0.6975,-0.867 1.5822,-1.9303 2.3703,-3.2823 0.2271,-0.3897 0.4233,-0.7748 0.6091,-1.1648 0.2275,-0.479 0.3604,-0.9016 0.4376,-1.2298 0.066,-0.2811 0.091,-0.515 0.085,-0.4821 v -0.01 c 0.1732,-0.9289 0.099,-1.965 -0.3906,-3.2163 -0.01,-0.023 -0.018,-0.045 -0.028,-0.068 -0.464,-1.0451 -0.9912,-1.783 -1.714,-2.3543 -0.4975,-0.3965 -0.9116,-0.6288 -1.1385,-0.7597 -0.2362,-0.1366 -0.6548,-0.3805 -1.2365,-0.6033 -0.6234,-0.2386 -1.2404,-0.3414 -1.8273,-0.3891 -0.7729,-0.068 -1.4828,0.049 -2.1523,0.2398 -0.062,-0.6734 -0.1776,-1.3991 -0.4337,-2.1726 -0.4259,-1.2836 -1.1232,-2.4209 -2.075,-3.3817 -1.1185,-1.128 -2.4225,-1.8563 -3.7348,-2.2991 -0.9034,-0.3047 -2.081,-0.5294 -3.3346,-0.4511 -0.9649,0.06 -1.7804,0.3423 -2.5795,0.625 -0.2623,-0.4355 -0.5683,-0.8841 -1.0398,-1.3024 -0.012,-0.012 -0.024,-0.023 -0.035,-0.034 -0.9978,-0.8695 -2.0685,-1.1638 -2.5239,-1.2714 -0.6009,-0.1419 -1.0792,-0.1522 -1.5127,-0.1493 -0.05,-0.086 0.012,-0.07 -0.1279,-0.2291 -0.9398,-1.07 -2.0305,-1.5128 -2.6939,-1.7133 -0.056,-0.024 -0.1134,-0.045 -0.1718,-0.063 -0.5877,-0.1592 -1.022,-0.2131 -1.2942,-0.2494 h -0.013 c -0.3446,-0.043 -0.7835,-0.074 -1.2903,-0.062 -0.9091,0 -1.6638,0.2014 -2.225,0.4161 -0.011,0.01 -0.021,0.01 -0.032,0.014 -0.018,0.01 -0.033,0.015 -0.05,0.021 -0.5809,0.2335 -1.0046,0.5107 -1.2622,0.6867 -0.4552,0.3095 -1.1124,0.7396 -1.7332,1.8572 -0.066,0.1197 -0.041,0.1354 -0.093,0.2534 l -0.6966,0.156 c -0.1293,0.029 -0.2544,0.074 -0.3728,0.1333 l -0.6937,0.3489 c -0.03,0.014 -0.059,0.03 -0.088,0.047 -0.8716,0.5067 -1.6078,1.2025 -2.1495,2.3138 -0.663,0.2293 -1.1788,0.553 -1.6324,0.8862 -1.4707,-1.3356 -3.2405,-1.9312 -5.0824,-1.8722 -2.4152,0.082 -3.889,1.1666 -4.8851,2.0781 -0.2182,-0.3206 -0.4192,-0.6475 -0.722,-0.9371 v -0.01 c -0.9816,-0.934 -2.0525,-1.3201 -2.9116,-1.4894 -0.4511,-0.092 -0.8131,-0.1213 -0.8955,-0.1294 -0.05,-0.01 -0.1016,-0.01 -0.1525,-0.01 -0.02,0 -0.039,0 -0.059,0 l 0.1415,0.01 c -0.3311,-0.028 -0.7228,-0.043 -1.1353,-0.035 -0.054,0 -0.468,0.01 -0.9764,0.094 -0.3668,0.059 -1.0118,0.1849 -1.7415,0.5267 -0.6817,0.3208 -1.196,0.7239 -1.2147,0.738 -0.029,0.022 -0.058,0.046 -0.085,0.069 -0.013,0.012 -0.037,0.033 -0.066,0.059 -0.2181,0.1753 -0.3184,0.2797 -0.5655,0.548 -0.1213,0.1317 -0.251,0.372 -0.3827,0.5417 -0.5922,-0.1608 -1.4394,-0.3058 -2.5225,-0.2776 -0.015,-0.1148 0.01,-0.2002 -0.019,-0.3193 v -0.01 c -0.019,-0.094 -0.039,-0.1748 -0.057,-0.2441 -0.3502,-1.3982 -1.1406,-2.3094 -1.6901,-2.8254 -0.4662,-0.4369 -0.8502,-0.697 -1.079,-0.8553 -0.2642,-0.182 -0.6608,-0.4494 -1.1987,-0.7069 h -0.01 c -0.6346,-0.3015 -1.2911,-0.4695 -1.9381,-0.5577 -0.177,-0.2407 -0.2863,-0.4286 -0.6023,-0.7369 -1.1199,-1.0921 -2.5929,-2.0797 -4.4054,-2.6302 -0.1175,-0.031 -0.238,-0.05 -0.3595,-0.054 l 0.2572,0.032 c -0.8092,-0.2024 -1.8808,-0.4187 -3.1863,-0.3798 -0.035,-0.01 -0.063,-0.01 -0.078,-0.011 -0.1118,-0.011 -0.1072,-0.01 -0.1226,-0.01 h -0.1927 z m -0.211,0.036 0.016,4e-4 h -0.013 c -0.1063,0.049 -0.2071,0.1093 -0.3004,0.1799 l 0.095,-0.1265 c -1e-4,0 0.1201,-0.032 0.202,-0.054 z m -1.25,1.4432 c -0.01,0.012 -0.01,0.023 -0.014,0.035 l -0.01,-0.01 z m 2.2546,0.099 c 0.7904,-0.01 1.6064,0.09 2.3704,0.3407 0.01,0 0.01,0.01 0.013,0.01 1.5291,0.4645 2.7837,1.303 3.7444,2.2396 0.3633,0.3543 0.6083,0.7635 0.9211,1.1435 -0.013,-0.019 0.099,-0.017 0.562,0.031 0.5235,0.067 1.0708,0.2231 1.4852,0.4187 0.01,0 0.01,0.01 0.014,0.01 0.428,0.2046 0.7186,0.3987 0.9792,0.579 0.2426,0.1677 0.4982,0.3341 0.8945,0.7071 0.3682,0.3456 0.9912,1.0743 1.2321,2.055 0.01,0.04 0.019,0.081 0.027,0.1215 0.1759,0.8416 0.039,1.4947 -0.058,1.88 0.5118,-0.1369 0.9828,-0.2038 1.41,-0.2369 h 0.01 c 1.2407,-0.094 2.1305,0.1462 2.6907,0.3135 0.01,0 0.01,0.01 0.014,0.01 0.3025,0.092 0.5348,0.2825 0.8324,0.4148 0.045,-0.1889 0.023,-0.2729 0.1895,-0.6115 0.317,-0.6472 1.0046,-1.2647 1.0858,-1.3281 0.013,-0.01 0.026,-0.02 0.039,-0.03 0.1017,-0.077 0.4063,-0.3176 0.9265,-0.5655 0.5681,-0.2702 1.0379,-0.3518 1.3441,-0.3987 0.3491,-0.066 0.5575,-0.082 0.6439,-0.082 0.3873,-0.014 0.7605,0.01 1.0462,0.03 h 0.025 c 0.1792,0.016 0.4103,0.035 0.7825,0.1119 0.5298,0.1074 1.4359,0.4437 2.0861,1.0612 0.6115,0.5815 0.9987,1.3698 1.1595,2.0229 0.2115,0.039 0.3938,0.092 0.5741,0.1497 0.1093,-0.1325 0.1904,-0.2763 0.3043,-0.4069 0.566,-0.6497 2.1576,-2.3497 4.7607,-2.4364 h 0.01 c 1.8337,-0.059 3.1346,0.3857 4.4686,1.9221 0.1472,0.1697 0.198,0.3431 0.3167,0.521 0.5915,-0.5999 1.3185,-1.1927 2.4605,-1.5704 0.2081,-0.069 0.4634,-0.037 0.6639,-0.086 0.07,-0.2343 0.062,-0.3873 0.217,-0.7055 0.3235,-0.6648 1.0425,-1.3549 1.5162,-1.6295 0.6336,-0.3576 1.3414,-0.5766 2.0682,-0.661 0.05,-0.01 0.1047,-0.013 0.1551,-0.021 0.04,-0.2007 0.046,-0.3796 0.3164,-0.8673 0.3533,-0.638 1.0707,-1.2048 1.204,-1.2971 0.2721,-0.1896 0.5282,-0.3537 0.9871,-0.5374 0.021,-0.01 0.042,-0.016 0.064,-0.024 0.3811,-0.1442 1.0021,-0.2978 1.6485,-0.3061 0.4247,-0.01 0.7716,0.018 1.0654,0.055 h 0.012 c 0.28,0.036 0.573,0.065 1.0883,0.2073 0.012,0.01 0.023,0.01 0.035,0.011 0.472,0.1357 1.3426,0.469 2.0337,1.2633 0.092,0.1057 0.2794,0.3924 0.4515,0.6803 0.4852,-0.042 1.0975,-0.024 2.0322,0.1991 0.4089,0.096 1.0956,0.2918 1.8034,0.8998 0.01,0.01 0.012,0.01 0.019,0.016 0.7661,0.6673 1.1384,1.594 1.2686,2.0642 0.02,0.071 0.014,0.09 0.03,0.1537 0.2546,-0.1434 0.4957,-0.3268 0.7582,-0.4415 h 0.01 c 0.8143,-0.3539 1.7436,-0.6122 2.7787,-0.6735 0.9516,-0.058 2.0376,0.1419 2.7093,0.3688 1.1176,0.3767 2.1785,0.9693 3.1034,1.9017 0.7917,0.7997 1.3304,1.6853 1.6847,2.7528 0.7354,2.2159 0.2645,4.4601 0.288,4.1457 -0.01,0.081 -0.015,0.1609 -0.027,0.2408 -0.016,0.1094 -0.036,0.2219 -0.047,0.3058 0.076,-0.097 0.078,-0.1242 0.171,-0.2316 0.8197,-0.9481 1.9332,-1.5595 3.561,-1.4236 0.4864,0.036 1.0058,0.1364 1.4154,0.2911 0.01,0 0.01,0.01 0.014,0.01 0.4753,0.1818 0.7634,0.3511 1.0049,0.4889 0.01,0 0.01,0.01 0.015,0.01 0.2554,0.1475 0.5246,0.2956 0.9482,0.6357 0.3585,0.2852 0.9289,0.9262 1.2676,1.7186 0.3838,0.9372 0.3592,1.8833 0.2762,2.334 -0.01,0.06 -0.05,0.5791 -0.3963,1.3131 0,0.01 -0.01,0.01 -0.01,0.013 -0.176,0.3687 -0.3511,0.7107 -0.547,1.0477 -0.7084,1.2173 -1.5281,2.2082 -2.2382,3.0909 -0.4026,0.5004 -0.8454,1.0277 -1.2985,1.5287 -0.3246,0.3591 -0.4894,0.5166 -0.4604,0.4835 -0.01,0.01 -0.013,0.015 -0.02,0.023 0,0 0,0 0,0 0.01,0.012 0.058,0.1079 0.069,0.1308 l -0.1026,-0.096 c -0.4318,0.4854 -0.9853,1.0256 -1.5511,1.5597 0.096,0.5125 0.2919,1.0048 0.3381,1.5234 0.1943,2.179 -0.4451,4.7696 -2.3436,6.6407 -1.2856,1.2669 -2.9105,1.9856 -4.5804,2.1645 -0.9712,0.1054 -2.7557,0.208 -4.6072,-0.6803 -1.246,-0.5976 -2.341,-1.6042 -3.1044,-2.8714 -0.9649,0.4911 -2.0894,0.8261 -3.3631,0.8488 h -0.014 c -2.4922,0.034 -4.4267,-1.1929 -5.6487,-2.5336 -0.737,-0.8088 -1.3078,-1.7279 -1.8248,-2.6693 -0.208,0.09 -0.3494,0.2026 -0.5844,0.2761 -2.1185,0.661 -4.0681,0.205 -5.4855,-0.5024 -0.024,-0.012 -0.041,-0.03 -0.065,-0.042 -0.034,0.043 -0.033,0.052 -0.069,0.096 -0.6549,0.8053 -1.1034,1.3232 -2.5293,1.8869 h -0.01 c -1.152,0.4548 -2.5689,0.3887 -2.9295,0.3445 -0.3042,-0.038 -1.6849,-0.3192 -2.6287,-0.9589 -1.4902,-1.0115 -2.0977,-2.1982 -2.4794,-3.1216 -0.333,-0.8042 -0.5859,-1.6461 -0.7462,-2.5335 -0.1817,-1.0041 -0.2808,-2.0694 -0.3435,-3.1394 -0.1635,0.038 -0.2587,0.1287 -0.4351,0.1604 h -0.01 c -0.6696,0.1211 -1.2541,0.107 -1.8049,0.038 -0.053,0.099 -0.041,0.1637 -0.1047,0.2697 -0.2317,0.3857 -0.4264,0.636 -0.5506,0.794 -0.036,0.049 -0.1146,0.1547 -0.1525,0.2106 -0.075,0.11 -0.173,0.2542 -0.2669,0.3934 l -0.01,0.01 c -0.1854,0.2764 -0.3751,0.5677 -0.6047,0.8834 -0.4446,0.6115 -1.1868,1.5533 -2.3651,2.3423 -1.1481,0.7691 -2.4864,1.0147 -2.6287,1.0422 -0.025,0.01 -0.026,-0.01 -0.051,0 -0.8037,0.8286 -1.6941,1.4779 -2.5735,1.879 -1.8796,0.8568 -3.8164,0.7773 -5.2539,0.4202 -0.668,-0.1665 -1.2011,-0.408 -1.6605,-0.6561 -0.8852,1.0815 -1.9236,2.1324 -3.0991,3.0357 -0.7737,0.5946 -1.7433,1.2337 -2.9412,1.7226 -1.0211,0.4157 -2.1362,0.7074 -3.3336,0.8042 -1.4308,0.1162 -3.5132,0.1205 -5.6498,-0.9443 -1.0438,-0.5202 -1.9061,-1.1729 -2.6127,-1.8301 -0.8145,-0.7572 -1.8461,-1.7652 -2.71,-3.1839 -0.4029,-0.6617 -0.8846,-1.5049 -1.2792,-2.5415 -0.6943,-1.8244 -1.0569,-3.5707 -1.3185,-5.1716 -0.065,-0.3953 -0.1683,-1.0209 -0.2034,-1.7805 v -0.015 c 0,-0.01 6e-4,-0.1166 0,-0.1821 v -0.691 c 0,-0.1037 -0.087,-1.1551 0.075,-2.3768 -0.021,0.162 0,-0.1261 0.051,-0.5562 0.2847,-2.3736 0.7269,-5.1095 1.8345,-7.8791 0.8728,-2.1826 2.0514,-4.6167 4.074,-6.7875 0.7987,-0.8573 2.1256,-2.1962 4.1966,-2.9523 0.7976,-0.2923 1.5064,-0.4127 1.9959,-0.4796 0.139,-0.018 0.2789,-0.028 0.419,-0.028 l -0.2077,0.01 c 0.2536,-0.025 0.5126,-0.044 0.7747,-0.044 z m 8.6911,3.6607 v 0 c 0,0.019 0.016,0.089 0.016,0.089 0,-10e-5 -0.013,0.069 -0.017,0.092 0.01,-0.06 0.01,-0.1202 0,-0.1803 z m 17.9404,22.8432 v 0 c -0.017,0.017 -0.05,0.051 -0.05,0.051 0,0 -0.035,-0.038 -0.038,-0.041 0.03,0 0.059,-0.01 0.089,-0.011 z m -6.7488,5.2928 h 4e-4 0.01 l -0.1026,0.024 c -0.01,0 0.09,-0.024 0.094,-0.024 z m -8.5065,0.6677 c 0.025,0.01 0.048,0.017 0.074,0.024 -0.01,0.017 -0.01,0.027 -0.014,0.043 -0.021,0.043 -0.098,0.087 -0.1318,0.1322 0.028,-0.065 0.052,-0.1316 0.071,-0.1996 z" /><path
       id="path3326"
       style="color:#000000;fill:#d40000;fill-opacity:1;stroke-width:1.49341;stroke-linecap:round;stroke-linejoin:round;-inkscape-stroke:none"
       d="m -2146.5155,6912.3726 c -0.1466,0 -0.2888,0.024 -0.4245,0.036 h -0.032 c -0.3655,0.05 -0.7943,0.1276 -1.2507,0.295 -1.2397,0.4519 -2.1254,1.2982 -2.8095,2.0326 -1.5833,1.6992 -2.5739,3.6846 -3.3717,5.6793 -0.924,2.3108 -1.3347,4.7287 -1.6043,6.9772 -0.034,0.2861 -0.036,0.4535 -0.057,0.6035 -0.098,0.7407 -0.045,1.4956 -0.045,1.908 v 0.6906 c -3e-4,0.024 -3e-4,0.024 0,0.033 0.024,0.5237 0.098,0.9916 0.1604,1.3685 0.243,1.4869 0.5603,2.9747 1.132,4.4768 0.2778,0.7298 0.6379,1.3728 0.9918,1.9541 0.5882,0.9663 1.3571,1.7444 2.0915,2.4271 0.509,0.4734 1.0944,0.9103 1.7734,1.2486 1.2817,0.6388 2.6367,0.6723 3.7684,0.5804 0.7874,-0.064 1.5672,-0.2635 2.2751,-0.5517 0.8085,-0.33 1.5089,-0.7824 2.1145,-1.2478 0.9296,-0.7143 1.8414,-1.6252 2.5615,-2.5123 0.2307,-0.2839 0.3965,-0.5313 0.5656,-0.7756 0.5614,-0.8104 1.0983,-1.6778 1.575,-2.505 0.3935,0.7575 0.9042,1.5427 1.738,2.1293 0.3436,0.2406 0.7989,0.51 1.3598,0.6497 0.8989,0.2233 1.9109,0.2524 2.9114,-0.2037 0.6528,-0.2977 1.2867,-0.7382 1.7963,-1.3735 0.2259,-0.2819 0.3192,-0.5415 0.4167,-0.7849 0.3636,0.047 0.705,0.1224 1.2079,0.024 0.3006,-0.059 0.765,-0.1276 1.3273,-0.5049 0.6638,-0.4445 1.1173,-0.9985 1.4641,-1.4756 0.15,-0.2062 0.3386,-0.4909 0.5338,-0.7815 0.1964,-0.291 0.4088,-0.6032 0.4401,-0.6444 0.1587,-0.2086 0.2865,-0.3552 0.4352,-0.6043 0.15,-0.2495 0.2606,-0.5732 0.3179,-0.8365 0.1328,-0.6039 0.1465,-1.2287 0.1743,-1.6487 0.036,-0.5246 0.024,-0.7089 0.047,-0.9275 0.1345,-0.067 0.5083,-0.2258 0.8551,-0.8019 0.15,-0.2501 0.2738,-0.524 0.402,-0.7903 0.037,0.4895 0.039,0.95 0.2087,1.5135 0.1051,0.353 0.2663,0.6697 0.6267,1.0033 0.3601,0.3335 1.044,0.6239 1.7061,0.5046 0.5114,-0.093 1.3417,-0.5723 1.7094,-1.2456 0.3473,-0.6357 0.7412,-1.5916 0.9686,-2.0767 0.5039,-1.0743 1.1078,-1.9499 1.8197,-2.8326 0,0.1277 0.024,0.1743 0.027,0.3045 0.024,0.5329 0,1.0673 0,1.4577 0,1.0283 -3e-4,2.0569 0,3.0854 0,1.4538 0.024,2.9074 0.1052,4.3596 0.057,1.0039 0.1551,1.9953 0.3017,2.8052 0.1103,0.6112 0.2992,1.2439 0.5308,1.8028 0.1889,0.4571 0.5753,1.1173 1.1848,1.5311 0.4396,0.2979 0.7275,0.329 1.064,0.3707 0.336,0.041 0.6727,0.079 1.1817,-0.1224 0.4107,-0.1621 0.8609,-0.5583 1.0735,-0.8196 0.2503,-0.3081 0.4159,-0.5759 0.5625,-0.7965 0.4796,-0.7227 0.8935,-1.5453 1.193,-2.164 0.067,-0.1379 0.1396,-0.3103 0.221,-0.4962 0.1466,0.2381 0.2283,0.4629 0.3969,0.6767 0.3233,0.4129 0.6928,0.7935 1.1228,1.1377 0.3188,0.2548 0.6496,0.4684 1.0041,0.6451 0.776,0.3872 1.8028,0.6079 2.8262,0.2886 0.6584,-0.2062 1.139,-0.5922 1.467,-0.8814 0.6008,-0.5293 0.9684,-1.1504 1.2424,-1.7061 0.2011,-0.4086 0.2998,-0.7355 0.4322,-1.0998 0,0.024 0.024,0.054 0.024,0.079 0.2282,1.4743 0.637,3.2213 1.3681,4.6875 0.4136,0.8293 0.9541,1.6253 1.5835,2.3161 0.6801,0.7461 1.7233,1.3843 2.9607,1.3676 1.3695,-0.024 2.4885,-0.7394 3.2582,-1.5606 0.3542,-0.3774 0.6117,-0.7609 0.8342,-1.1343 1.1301,-1.8954 1.7203,-3.7818 2.3445,-5.481 0.257,-0.6987 0.4286,-1.3849 0.6098,-2.0535 0.6205,0.7385 1.2509,1.4604 1.8523,2.2256 0.5567,0.7084 1.0923,1.4154 1.3096,1.9107 0.024,0.059 0.04,0.046 0.065,0.098 -0.4218,0.2564 -0.8557,0.5174 -1.1895,0.7695 -0.5631,0.4251 -1.2397,0.9344 -1.8235,1.5988 -0.2597,0.2957 -0.6187,0.6746 -0.913,1.2481 -0.28,0.5459 -0.3703,1.1119 -0.3703,1.5981 0,1.4314 0.9493,2.6029 2.0975,3.1534 0.9727,0.4667 1.9246,0.4325 2.6803,0.3503 0.8902,-0.095 1.7735,-0.486 2.4556,-1.1582 1.0618,-1.0465 1.4136,-2.4259 1.2928,-3.7799 -0.091,-1.0218 -0.3367,-2.1514 -0.6715,-3.0517 -0.024,-0.054 -0.036,-0.032 -0.059,-0.086 0.03,-0.024 0.024,0 0.04,-0.027 0.3996,-0.2806 0.7983,-0.6371 1.0767,-0.8774 0.6556,-0.5665 1.2178,-1.1659 1.7409,-1.7589 0.1466,-0.169 0.2862,-0.2917 0.5107,-0.5402 0.3915,-0.4329 0.7982,-0.9163 1.1661,-1.3736 0.7065,-0.8781 1.4292,-1.7808 1.9342,-2.6485 0.1465,-0.252 0.2579,-0.4675 0.4119,-0.7901 0.071,-0.15 0.093,-0.3053 0.1154,-0.433 0.024,-0.1275 0.024,-0.2331 -0.024,-0.3304 -0.032,-0.098 -0.1,-0.1815 -0.2333,-0.2862 -0.1293,-0.1051 -0.3262,-0.2282 -0.5099,-0.3343 -0.1842,-0.1051 -0.3557,-0.1963 -0.5104,-0.2555 -0.1551,-0.059 -0.2903,-0.086 -0.4275,-0.091 -0.2886,-0.03 -0.5012,0.1207 -0.5857,0.2184 -0.2136,0.2457 -0.3758,0.5038 -0.5464,0.7539 -0.5374,0.787 -1.1629,1.673 -1.7974,2.4619 -0.3356,0.4172 -0.7161,0.8668 -1.0642,1.2518 -0.1344,0.1499 -0.291,0.2905 -0.5308,0.5626 -0.4838,0.5485 -0.9611,1.0514 -1.4764,1.4964 -0.2381,0.2038 -0.5262,0.4413 -0.7144,0.5887 -0.413,-0.7208 -0.8737,-1.4149 -1.2976,-1.9541 -2.6235,-3.3385 -2.7032,-3.3149 -3.097,-3.7859 -0.6768,-0.8805 -1.3097,-1.8173 -1.6106,-2.6602 -0.1939,-0.5405 -0.2622,-0.9356 -0.2404,-1.4086 0.024,-0.3658 0.052,-0.5923 0.162,-0.9624 0.1345,-0.4409 0.3033,-0.7793 0.5257,-1.0536 0.3036,-0.3739 0.4145,-0.4458 0.828,-0.6264 0.2511,-0.1086 0.4095,-0.1501 0.6245,-0.1604 h 0.024 c -0.081,0 0.2833,0.046 0.301,0.048 0.4925,0.1672 0.3514,0.079 0.6298,0.3589 0.112,0.1121 0.1206,0.1172 0.1743,0.2857 0.03,0.091 0.032,1.0457 -0.024,1.6681 0,0.024 0,0.024 0,0.032 v 0.057 c -0.024,0.1137 -0.024,0.2953 0,0.4621 0,0.1673 0.024,0.3182 0.054,0.4449 0.03,0.1275 0.064,0.2282 0.1294,0.3048 0.065,0.078 0.1602,0.1292 0.3219,0.1791 0.162,0.047 0.3877,0.091 0.5978,0.1207 0.211,0.032 0.4038,0.048 0.5689,0.048 0.1639,0 0.2838,-0.024 0.4197,-0.03 0.1431,-0.024 0.4676,-0.1085 0.5338,-0.4667 0.098,-0.5214 0.079,-0.4801 0.1449,-0.9354 0.036,-0.4858 0.2814,-1.5523 -0.1172,-2.7533 -0.1673,-0.5039 -0.4709,-0.9982 -0.8342,-1.3652 -0.4564,-0.4601 -1.0644,-0.8156 -1.7095,-1.0328 -0.4493,-0.1518 -0.8092,-0.2233 -1.3528,-0.189 -0.5558,0.032 -1.0902,0.1767 -1.5698,0.3851 -0.6887,0.301 -1.3446,0.7743 -1.8693,1.4208 -0.5054,0.6227 -0.8147,1.3149 -1.0208,1.9834 -0.1743,0.5707 -0.2601,1.1158 -0.2833,1.6569 -0.036,0.8644 0.1224,1.6828 0.3997,2.4589 0.2504,0.701 0.6223,1.2695 1.0258,1.815 0.2258,0.3042 6e-4,0.92 -0.1447,1.5713 -0.1744,0.76 -0.5168,1.9376 -0.8028,2.7152 -0.6529,1.7766 -1.1959,3.4567 -2.126,5.0168 -0.1791,0.2984 -0.2891,0.4604 -0.4753,0.6592 -0.4469,0.476 -0.8151,0.6775 -1.2835,0.6861 -0.3384,0 -0.5512,-0.1053 -0.8783,-0.464 -0.4403,-0.4829 -0.8557,-1.0949 -1.1523,-1.6893 -0.507,-1.0167 -0.9116,-2.5913 -1.1103,-3.8734 -0.1329,-0.8435 -0.2875,-2.0823 -0.3883,-2.9372 -0.1397,-1.1899 -0.2381,-2.2842 -0.3057,-3.3392 -0.098,-1.5476 -0.1293,-3.0101 -0.1293,-4.5659 -0.024,-0.8949 0.024,-1.8421 -0.05,-2.6841 0.763,-0.051 1.5259,-0.1766 2.2852,-0.2258 0.7644,-0.052 1.525,-0.03 2.2781,-0.1841 0.1939,-0.04 0.2135,-0.065 0.261,-0.138 0.047,-0.071 0.1207,-0.1889 0.1689,-0.3162 0.052,-0.1277 0.079,-0.2635 0.086,-0.4283 0,-0.1638 -0.024,-0.3586 -0.037,-0.5695 -0.027,-0.2111 -0.063,-0.4384 -0.1086,-0.6006 -0.045,-0.1621 -0.095,-0.2579 -0.1723,-0.3255 -0.076,-0.066 -0.1767,-0.1052 -0.3017,-0.1345 -0.4518,-0.1086 -1.2589,-0.024 -2.0709,0.04 -0.8563,0.065 -1.7173,0.1207 -2.1714,0.1207 0.064,-0.7296 0.041,-1.2399 0.024,-1.8707 0,-0.1293 -0.069,-0.2259 -0.1344,-0.3008 -0.065,-0.075 -0.1639,-0.1276 -0.3265,-0.1744 -0.162,-0.045 -0.3897,-0.081 -0.6006,-0.1086 -0.211,-0.027 -0.4043,-0.041 -0.5694,-0.034 -0.1638,0 -0.3007,0.034 -0.4283,0.083 -0.1275,0.051 -0.2455,0.1224 -0.3163,0.1724 -0.071,0.047 -0.093,0.069 -0.1345,0.2607 -0.1603,0.6171 -0.194,1.2438 -0.2763,1.8729 -0.024,0.1379 -0.024,0.1914 -0.024,0.3002 -0.4263,0 -1.0016,0.1155 -1.5533,0.1724 -0.7158,0.074 -1.5606,0.2158 -1.8139,0.3152 -0.2332,0.093 -0.3203,0.088 -0.2923,0.785 0,0.1638 0.024,0.3586 0.036,0.5695 0.028,0.211 0.064,0.4384 0.1086,0.6006 0.045,0.162 0.095,0.2586 0.1725,0.3263 0.076,0.067 0.1766,0.1053 0.3014,0.1345 0.126,0.03 0.277,0.064 0.4441,0.064 0.3913,0 0.755,0 1.1622,-0.059 0.3706,-0.047 0.772,-0.1052 1.2434,-0.1259 0.059,0.8203 0.034,1.6449 0.034,2.4671 0,1.4094 0.03,2.4242 0.071,3.212 0.083,1.5763 0.2062,2.3412 0.1791,3.4435 -0.024,0.8938 -0.8403,2.1587 -1.1552,2.7907 -0.3241,0.6504 -0.8086,1.3028 -1.0258,1.7226 -0.4448,0.8596 -1.2838,1.2623 -1.8754,1.0549 -0.4418,-0.1551 -1.0476,-0.6451 -1.3503,-1.0063 -0.7842,-0.9353 -1.1254,-1.6648 -1.1254,-3.2359 v -0.024 c -0.024,-0.1224 -0.024,-0.1637 -0.03,-0.2504 0.2429,-0.062 0.4733,-0.1207 0.7348,-0.2283 0.3627,-0.1499 0.7213,-0.2798 1.1552,-0.6886 0.7054,-0.6635 1.0851,-1.4505 1.3652,-2.1266 0.3969,-0.9602 0.4499,-1.8243 0.5364,-2.4876 v -0.024 c 0.074,-0.594 -4e-4,-1.0593 -0.057,-1.4758 -0.078,-0.5302 -0.1586,-1.3922 -0.9854,-2.126 -0.6501,-0.5765 -1.4089,-0.6459 -1.8174,-0.6652 -0.3527,-0.024 -0.7656,0.047 -1.0463,0.1397 -0.6231,0.206 -1.1117,0.6506 -1.4148,1.0325 -0.2823,0.3558 -0.5015,0.7467 -0.6713,1.1408 -0.4522,1.0526 -0.537,2.0553 -0.6446,2.8437 v 0.024 c -0.024,0.1051 -0.039,0.238 -0.062,0.4551 -0.066,0.6624 -0.088,1.4971 -0.088,2.1377 0.1552,3.1231 -0.1689,3.814 -0.3242,4.1775 -0.2137,0.4546 -0.5892,1.327 -0.7092,1.575 -0.2775,0.574 -0.666,1.3287 -1.0056,1.8406 -0.091,0.1344 -0.1431,0.2062 -0.211,0.3034 -0.1396,-0.3401 -0.2977,-0.8644 -0.3647,-1.2363 -0.1154,-0.6388 -0.1937,-1.4766 -0.2497,-2.3408 -0.075,-1.1836 -0.1001,-1.6732 -0.1086,-3.7344 v -3.6851 c 0,-0.3051 0.024,-0.891 0,-1.5048 -0.024,-0.6139 -0.024,-1.2353 -0.189,-1.8753 -0.081,-0.3182 -0.1793,-0.7249 -0.5541,-1.1553 -0.3739,-0.4309 -1.083,-0.7123 -1.6569,-0.6938 -1.0765,0.036 -1.7842,0.7507 -2.1871,1.2131 -1.0581,1.2142 -1.8548,2.4881 -2.5234,3.9143 -0.03,0.063 -0.062,0.1327 -0.093,0.2012 -0.024,-0.1501 -0.031,-0.3026 -0.045,-0.4322 -0.024,-0.584 -5e-4,-0.9555 -0.3958,-1.5573 -0.053,-0.081 -0.6304,-0.7214 -1.272,-0.7757 -0.5962,-0.051 -0.9832,0.083 -1.4533,0.2688 -0.6104,0.2719 -0.7935,0.5991 -1.006,0.898 -0.059,0.083 -0.1,0.1724 -0.1552,0.2564 0.024,-0.447 -0.024,-0.745 0,-1.1662 0.032,-0.9769 0.041,-1.6381 0.045,-1.8236 0,-0.3415 -0.057,-0.6797 -0.1344,-1.0182 -0.03,-0.1258 -0.083,-0.2208 -0.1569,-0.2908 -0.074,-0.071 -0.1724,-0.1173 -0.3365,-0.1501 -0.1138,-0.024 -0.2574,-0.04 -0.4049,-0.054 -0.2795,-0.024 -0.4397,-0.034 -0.6374,-0.024 -0.047,0 -0.091,0 -0.1345,0.024 -0.1638,0.024 -0.2979,0.054 -0.4219,0.1137 -0.1258,0.059 -0.2356,0.1397 -0.3041,0.1916 -0.065,0.051 -0.088,0.074 -0.1206,0.2693 -0.1466,0.66 -0.1294,1.3309 -0.1552,2.0057 -0.024,0.3436 0,0.5272 0,0.7672 0,1.1401 0,2.7296 0.03,4.06 0.03,1.1813 0.1328,3.1885 0.024,3.655 -0.041,0.1725 -0.3419,0.4824 -0.5391,0.7764 -0.1964,0.2941 -0.4049,0.6037 -0.4725,0.6969 l -0.024,0.024 c 0.1155,-0.4925 0.233,-0.8538 0.2801,-1.4315 0.024,-0.2332 0.086,-0.6652 0.079,-1.1553 0,-0.3143 -0.045,-0.5213 -0.054,-0.6243 -0.024,-0.093 -0.024,-0.1086 -0.024,-0.2708 v -0.024 c -0.032,-1.8943 -0.8319,-3.8173 -2.1029,-5.1943 -0.2846,-0.3086 -0.5685,-0.528 -0.8203,-0.7085 -0.4744,-0.3405 -0.8403,-0.5387 -1.4407,-0.721 -0.3174,-0.095 -0.8465,-0.216 -1.3999,-0.1743 -0.4162,0.032 -1.0137,0.1517 -1.5282,0.4348 -0.5937,0.3262 -1.0213,0.7783 -1.3358,1.2548 -0.3256,0.4687 -0.4264,1.0051 -0.5951,1.5481 -0.8387,2.7019 -1.5171,5.4305 -2.7882,7.678 -0.2234,0.355 -0.4721,0.8447 -0.5688,1.0149 -0.457,0.8014 -1.0002,1.6697 -1.5427,2.4533 -0.1768,0.256 -0.2902,0.422 -0.4377,0.6034 -0.5749,0.7084 -1.3905,1.5171 -2.0998,2.0623 -0.4744,0.3648 -0.974,0.6776 -1.4731,0.8811 -0.4419,0.1793 -1.0002,0.3191 -1.4556,0.356 -0.859,0.071 -1.7402,-0.024 -2.3098,-0.3001 -0.3974,-0.199 -0.7734,-0.4687 -1.1261,-0.7965 -0.6579,-0.6115 -1.2447,-1.2395 -1.6106,-1.8408 -0.3155,-0.5182 -0.5863,-1.0185 -0.7696,-1.4993 -0.476,-1.2513 -0.7598,-2.5431 -0.9892,-3.9438 -0.062,-0.3815 -0.1156,-0.7513 -0.1224,-0.98 0,-0.2653 0,-0.4106 0,-0.6591 0,-0.5495 -0.024,-1.2911 0.024,-1.5458 0.039,-0.3045 0.045,-0.4992 0.062,-0.6359 0.2577,-2.1486 0.6446,-4.3309 1.4239,-6.2797 0.738,-1.8452 1.5869,-3.4858 2.8292,-4.8187 0.5598,-0.6012 1.1981,-1.1265 1.7323,-1.3213 0.194,-0.071 0.4344,-0.1224 0.6795,-0.1569 0.2765,-0.037 0.3585,-0.04 0.6597,0.05 0.466,0.1413 0.7832,0.3462 1.1606,0.7144 0.4599,0.4486 0.7879,0.8627 1.1291,1.4031 0.2605,0.4127 0.5449,0.8709 0.767,1.3567 1.2869,2.8155 3.3611,1.575 3.5764,1.2535 0.2724,-0.2013 0.4416,-0.3867 0.5949,-0.572 0.3007,-0.4641 0.5725,-0.9403 0.8148,-1.4356 0.065,-0.1517 0.1173,-0.2972 0.1501,-0.4229 0.032,-0.1258 0.045,-0.2306 0.024,-0.3296 -0.024,-0.098 -0.086,-0.189 -0.2087,-0.3037 -0.1223,-0.1156 -0.3075,-0.253 -0.4822,-0.3737 -0.1743,-0.1207 -0.3392,-0.2234 -0.4885,-0.2948 -0.15,-0.071 -0.2828,-0.1086 -0.4191,-0.1224 -0.1345,-0.024 -0.2735,0 -0.359,0 -0.086,0.024 -0.1137,0.024 -0.2429,0.1672 -0.024,0.03 -0.4565,0.5333 -0.6591,0.8629 -0.2233,-0.4156 -0.4527,-0.8422 -0.7202,-1.2656 -0.4362,-0.6915 -0.9277,-1.3131 -1.5371,-1.9076 -0.6164,-0.6008 -1.3808,-1.1032 -2.2898,-1.3793 -0.4781,-0.1432 -0.961,-0.194 -1.4014,-0.1792 z m 41.3945,10.8855 c 0.065,-0.024 -0.032,-0.024 0.052,0 h 0.079 c 0.03,0.081 0.088,0.2283 0.1173,0.4238 0.036,0.261 0.047,0.7297 0.047,0.7292 -0.098,0.7548 -0.1552,1.3125 -0.3495,1.7852 -0.2062,0.495 -0.4958,0.9752 -0.7061,1.1729 0.071,-0.066 -0.088,0.032 -0.1891,0.091 0.024,-0.3915 0.024,-0.807 0.04,-1.0827 0.024,-0.081 0.03,-0.1768 0.051,-0.3641 0.1171,-0.8525 0.211,-1.5789 0.4439,-2.1242 0.098,-0.2282 0.169,-0.3499 0.2971,-0.5098 0.1344,-0.169 0.091,-0.1206 0.1206,-0.1275 z m -27.2377,1.1206 c 0.1258,0 0.2406,0.036 0.3636,0.074 -0.071,-0.024 0.6415,0.3296 0.6297,0.3212 0.2307,0.1637 0.2404,0.1672 0.3997,0.3378 0.7058,0.7652 1.3541,2.3563 1.3705,3.3665 0,0.15 2e-4,0.3279 0.03,0.5455 0.027,0.2405 0.036,0.305 0.036,0.3297 -2e-4,0.024 -2e-4,0.024 0,0.027 0,0.081 -0.04,0.5287 -0.071,0.8983 -0.04,0.501 -0.2808,1.3778 -0.4491,2.2404 -0.2619,-0.1396 -0.5694,-0.2984 -0.6506,-0.3589 -0.5452,-0.41 -1.046,-0.9069 -1.4874,-1.4585 -0.3585,-0.4484 -0.5869,-0.9917 -0.8518,-1.4296 -0.3682,-0.6089 -0.4437,-1.1629 -0.5125,-1.6976 -0.095,-0.7445 0.024,-1.4678 0.2462,-2.2976 0.024,-0.074 0.062,-0.216 0.062,-0.2381 0.1431,-0.2658 0.3365,-0.4768 0.4599,-0.5446 0.1621,-0.088 0.2989,-0.1207 0.4244,-0.1173 z m -2.8202,6.6393 v 7e-4 c 0.263,0.4893 0.5045,1.0042 0.8282,1.4094 0.5759,0.7196 1.2404,1.3797 1.9896,1.9424 0.2469,0.1842 0.4292,0.2431 0.6651,0.3734 -0.1689,0.1501 -0.3377,0.3137 -0.5456,0.4085 -0.189,0.086 -0.7317,0.1258 -1.094,0.034 -0.1294,-0.031 -0.2063,-0.071 -0.4345,-0.2307 -0.4029,-0.2832 -0.7089,-0.6951 -0.9771,-1.2425 -0.448,-0.8364 -0.4304,-1.656 -0.4352,-2.5668 z m 53.8399,7.728 c 0.1293,0.5204 0.2882,1.0406 0.3294,1.5044 0.04,0.4422 -0.3038,1.3882 -0.4815,1.5635 -0.2332,0.2307 -0.4801,0.3419 -0.8142,0.379 -0.4945,0.054 -0.9913,5e-4 -1.187,-0.093 -0.402,-0.194 -0.5246,-0.3923 -0.5246,-0.6593 0,-0.1672 0.024,-0.2594 0.062,-0.3347 0.1035,-0.2013 0.2406,-0.3554 0.5309,-0.6864 0.3267,-0.372 0.8683,-0.8061 1.4116,-1.2161 0.287,-0.2161 0.4496,-0.3083 0.6744,-0.4578 z" /></g></svg>
