<?xml version="1.0" encoding="UTF-8" standalone="no"?>
<svg
   width="496.69873"
   height="252.02345"
   viewBox="0 0 131.4182 66.681207"
   version="1.1"
   id="svg16"
   xml:space="preserve"
   xmlns="http://www.w3.org/2000/svg"
   xmlns:svg="http://www.w3.org/2000/svg"
   xmlns:rdf="http://www.w3.org/1999/02/22-rdf-syntax-ns#"
   xmlns:cc="http://creativecommons.org/ns#"
   xmlns:dc="http://purl.org/dc/elements/1.1/"><defs
     id="defs10" /><metadata
     id="metadata13"><rdf:RDF><cc:Work
         rdf:about=""><dc:format>image/svg+xml</dc:format><dc:type
           rdf:resource="http://purl.org/dc/dcmitype/StillImage" /></cc:Work></rdf:RDF></metadata><g
     id="layer1"
     transform="translate(1883.7941,-7480.0037)"><path
       id="path3018"
       style="font-size:36.7897px;line-height:1.25;font-family:'League Spartan';-inkscape-font-specification:'League Spartan';letter-spacing:5.52321px;baseline-shift:baseline;display:inline;overflow:visible;vector-effect:none;fill:#ffffff;fill-opacity:0;stroke-linecap:round;stroke-linejoin:round;enable-background:accumulate;stop-color:#000000"
       d="m -1791.5397,7480.0039 -0.01,5e-4 c -1.4934,0.018 -2.9137,0.7244 -3.8732,1.9141 -0.639,0.7923 -1.0181,1.7673 -1.3141,2.6092 -0.2569,0.7296 -0.5089,1.1251 -0.676,1.3069 -0.1672,0.182 -0.2275,0.199 -0.3948,0.2361 -0.6751,0.15 -1.4039,0.3976 -2.037,0.9473 -0.2653,0.2304 -0.473,0.5422 -0.66,0.8692 -0.3915,-0.2138 -0.6836,-0.5431 -1.1249,-0.6873 -1.9072,-0.6222 -4.1606,-0.4314 -6.041,0.1834 -2.7066,0.8848 -4.7784,2.904 -6.3242,5.332 -0.2684,-0.2766 -0.446,-0.4241 -0.7855,-0.7674 -0.3072,-0.3105 -0.6477,-0.5517 -0.986,-0.7891 -1.3047,-1.8581 -3.4584,-2.6562 -5.6973,-2.6055 -2.1117,0.048 -3.8954,1.0028 -5.4689,2.3611 -1.2175,-0.8879 -2.6593,-1.401 -4.3005,-1.2361 -1.7362,0.1746 -3.2086,1.0308 -4.5548,2.1347 -0.1758,-0.1996 -0.2286,-0.4656 -0.4532,-0.6309 -0.7224,-0.5317 -1.6986,-0.7911 -2.7187,-0.6817 -1.0771,0.1154 -1.9717,0.6807 -2.6096,1.3555 -0.6378,0.6747 -1.0744,1.4615 -1.418,2.2268 -0.2259,0.5033 -0.4569,1.2694 -0.6873,1.9766 -1.0527,-1.9486 -2.741,-3.5206 -4.9217,-4.0489 -1.7461,-0.4234 -3.9791,-0.2151 -5.6193,0.3943 -0.4156,0.1546 -0.7986,0.3738 -1.1916,0.5741 l -0.086,-0.072 -0.1292,-0.1101 -0.07,-0.061 -0.1287,-0.1236 -0.076,-0.077 -0.1483,-0.1498 -0.061,-0.065 -0.2713,-0.2868 -0.3452,-0.3695 -0.01,-0.01 -0.1405,-0.1458 c 0,-0.01 -0.01,-0.011 -0.014,-0.016 l -0.086,-0.086 -0.012,-0.012 -0.1581,-0.156 -0.016,-0.016 -0.092,-0.086 c -0.01,-0.01 -0.014,-0.014 -0.021,-0.022 l -0.1504,-0.137 c -0.01,-0.01 -0.019,-0.017 -0.029,-0.025 l -0.1039,-0.09 c -0.01,-0.01 -0.016,-0.015 -0.025,-0.022 l -0.123,-0.1018 c -0.4827,-1.9537 -1.517,-3.5898 -3.0763,-4.5935 -1.7424,-1.1215 -3.94,-1.5675 -6.367,-1.4863 -7.8586,0.2627 -14.4575,6.9559 -16.2052,15.4394 -0.5064,2.4592 -0.5612,4.0609 -0.2465,6.8575 0.2482,2.2063 0.4334,3.0839 0.9084,4.3299 0.1837,0.4823 0.4088,0.9753 0.6579,1.4609 l 0.01,0.01 h 5e-4 v 5e-4 5e-4 5e-4 h 5e-4 v 5e-4 5e-4 c 10e-5,0 0,2e-4 0,0.01 v 0.01 c 0.02,0.04 0.041,0.077 0.047,0.09 0.014,0.021 0.029,0.041 0.045,0.061 0.012,0.027 0.015,0.04 0.023,0.059 l -0.037,-0.059 c 0.1066,0.2018 0.2171,0.4032 0.3359,0.6072 0.045,0.077 0.093,0.1594 0.1467,0.2465 0.5085,0.8414 1.0584,1.6067 1.6676,2.1993 0.059,0.057 0.1069,0.1046 0.1509,0.1463 l 0.01,0.01 c 0.2595,0.2749 0.52,0.5417 0.7519,0.7596 1.8513,1.7399 3.9683,3.1332 6.1113,4.3538 0.6269,0.3572 1.3889,0.7723 1.7363,0.957 0.1047,0.056 0.2166,0.097 0.3323,0.123 0.1556,0.035 0.1518,0.029 0.2889,0.059 -0.6267,1.1037 -1.1608,2.2713 -1.4806,3.5585 -0.7209,2.9019 -0.5032,7.213 0.4806,10.0629 0,0.012 -0.01,0.024 -0.012,0.037 0.1732,0.5135 0.3255,1.0594 0.5742,1.4981 0.8886,1.5677 2.748,4.9762 8.7064,7.8306 l 2.5043,1.1994 c 0.1643,0.071 0.341,0.1066 0.5198,0.1069 h 0.012 c 0.2324,-1e-4 0.4608,-0.061 0.662,-0.1772 2.0024,-1.1591 3.304,-3.1784 3.5905,-3.5321 0.9563,-1.1788 1.9288,-1.9741 3.6871,-3.2768 0.5009,-0.371 1.4539,-1.0036 2.0076,-1.3415 2.228,-1.3598 5.0267,-2.7456 7.7112,-3.8091 0.6152,-0.2435 1.686,-0.6352 2.3223,-0.8537 3.2414,-1.1135 7.5675,-2.3447 10.5503,-3.0081 0.6426,-0.1429 1.761,-0.3569 2.436,-0.4795 8.6179,-1.566 26.7931,-4.137 34.8227,-4.9305 0.6792,-0.067 1.8105,-0.1652 2.5151,-0.2299 1.4874,-0.1365 3.7978,-0.3551 6.1252,-0.5783 0.7005,-0.066 1.8292,-0.1769 2.5249,-0.2439 2.2929,-0.2203 4.5546,-0.4342 6.0006,-0.569 0.6861,-0.065 1.817,-0.1613 2.543,-0.2397 0.4578,-0.05 0.9067,-0.1035 1.3478,-0.1618 0.782,-0.1025 1.8821,-0.3173 2.6287,-0.5002 2.0429,-0.5001 4.0961,-1.0814 6.0834,-1.8542 0.7624,-0.2964 1.7682,-0.7789 2.5001,-1.2516 0.5104,-0.3294 0.9988,-0.6831 1.4692,-1.0609 0.6365,-0.5108 1.4501,-1.2813 1.9921,-1.8722 0.3598,-0.3921 0.7167,-0.8068 1.033,-1.2134 0.5655,-0.7266 1.1042,-1.6984 1.4227,-2.5585 1.1014,-2.9765 0.9893,-6.4107 -0.2724,-9.3462 -0.3536,-0.8227 -0.9093,-1.7817 -1.5937,-2.5115 -0.1199,-0.1282 -0.2415,-0.2513 -0.3653,-0.371 -0.6845,-0.6629 -1.6232,-1.2645 -2.2774,-1.6619 -0.073,-0.044 -0.1404,-0.086 -0.1876,-0.1158 -0.024,-0.015 -0.043,-0.026 -0.055,-0.033 h -0.01 v -0.01 h -5e-4 -0.01 v -0.01 h -5e-4 -5e-4 l -0.3788,-0.246 -0.086,-0.059 -0.096,-0.064 -0.2211,-0.1602 -0.01,-0.01 -0.1018,-0.07 c -0.044,-0.032 -0.091,-0.062 -0.1385,-0.088 -1.1469,-0.6168 -2.0962,-1.0427 -2.9357,-1.4413 -0.024,-0.042 -0.044,-0.082 -0.068,-0.1255 -4.8457,-9.2536 -4.1724,-2.5646 -11.666,-11.3663 -1.1881,-1.4313 -3.0164,-2.1117 -4.8348,-2.157 -1.9514,-0.05 -3.5849,0.9847 -4.9532,2.3374 -1.1586,-0.5566 -2.452,-2.2815 -4.2659,-3.7321 -0.2972,-0.2376 -0.636,-0.4357 -0.9782,-0.6305 -0.016,-0.015 -0.015,-0.015 -0.041,-0.037 -0.044,-0.038 -0.097,-0.045 -0.1421,-0.08 -0.8349,-0.6585 -1.8114,-0.9339 -2.6918,-0.9275 -0.01,-0.01 -0.019,-0.014 -0.029,-0.021 z m 0.01,1.326 0.01,0.018 c 0.6673,-0.01 1.3868,0.1843 1.9787,0.693 0.029,0.025 0.056,0.051 0.085,0.077 0.3686,0.2021 0.7198,0.4214 0.971,0.6222 1.6399,1.3115 2.9678,3.3422 4.7578,4.0504 0.1677,0.066 0.3736,0.1125 0.5948,0.1385 1.3071,-1.5492 2.8872,-2.5498 4.6587,-2.5048 1.5338,0.038 3.0476,0.653 3.9191,1.7627 1.2405,1.0393 2.5322,2.4455 4.1997,3.9781 l 0.3416,0.264 0.1907,0.1333 0.059,0.037 0.1018,0.065 0.2496,0.1489 0.052,0.031 0.2987,0.1612 c 0.2335,0.122 0.4522,0.2281 1.6216,0.8046 l 0.1313,0.069 0.1617,0.089 0.1395,0.08 0.1969,0.1194 0.1912,0.1235 h 6e-4 c 0,0 0.01,-1e-4 0.011,0 0,0 0.028,0.02 0.072,0.052 0.021,0.017 0.045,0.037 0.069,0.057 0.3675,0.3009 1.4859,1.3986 3.3765,4.8601 0.095,0.1615 0.1833,0.327 0.2693,0.4941 0.9284,0.4492 2.0231,0.9339 3.269,1.604 l 0.1,0.071 0.2321,0.1679 0.11,0.076 0.1029,0.07 0.4093,0.264 c -10e-5,4e-4 0.1259,0.08 0.2826,0.1747 0.5985,0.3636 1.5411,0.9963 2.0438,1.4831 0.1121,0.1083 0.219,0.2167 0.3209,0.3256 0.4783,0.5096 1.0689,1.4887 1.3452,2.1316 1.1217,2.6097 1.2191,5.7344 0.2454,8.3644 -0.2428,0.6561 -0.7961,1.6535 -1.2257,2.2055 -0.2894,0.372 -0.6245,0.7637 -0.9628,1.1323 -0.4733,0.5159 -1.2989,1.2976 -1.8448,1.7358 -0.435,0.3492 -0.8879,0.6755 -1.3601,0.9803 -0.588,0.3797 -1.6088,0.877 -2.2614,1.1307 -1.9085,0.7421 -3.9065,1.3084 -5.9185,1.8009 -0.68,0.1666 -1.7935,0.3834 -2.4877,0.4744 -0.4289,0.057 -0.8678,0.1081 -1.3177,0.1571 -0.696,0.075 -1.8271,0.1737 -2.5244,0.2397 -1.4484,0.1351 -3.71,0.3502 -6.0038,0.5706 -0.697,0.067 -1.8269,0.1768 -2.5239,0.2428 -2.3269,0.2232 -4.6369,0.4411 -6.1211,0.5773 -0.6973,0.064 -1.8282,0.162 -2.5249,0.231 -8.1124,0.8017 -26.2396,3.3665 -34.9281,4.9454 -0.689,0.1251 -1.8038,0.3389 -2.4872,0.4909 -3.0553,0.6795 -7.3931,1.914 -10.6923,3.0474 -0.6623,0.2274 -1.7291,0.6165 -2.3802,0.8743 -2.7567,1.0921 -5.6058,2.5017 -7.9122,3.9094 -0.5976,0.3647 -1.5454,0.9909 -2.1079,1.4076 -1.7791,1.318 -3.5005,2.9404 -4.5527,4.2375 -0.4406,0.5434 -0.9688,1.5465 -2.5983,2.4898 h -0.011 c -0.9295,-0.1114 -1.7524,-0.6837 -2.5921,-1.1106 -5.0618,-2.5735 -7.1621,-5.5951 -7.9412,-7.2631 -0.1688,-0.3614 -0.3522,-0.8667 -0.5188,-1.3606 l 0.014,-0.011 c -0.8538,-2.4484 -1.0694,-6.8588 -0.4512,-9.3472 0.4499,-1.8111 1.2394,-3.4207 2.3265,-4.7977 -0.398,-0.074 -0.982,-0.1722 -2.1306,-0.4289 -0.33,-0.1755 -1.0944,-0.5918 -1.7027,-0.9384 -2.092,-1.1916 -4.1203,-2.5319 -5.8612,-4.1682 -0.2157,-0.2027 -0.48,-0.4722 -0.7441,-0.7535 -0.051,-0.048 -0.1014,-0.095 -0.1514,-0.1442 -0.475,-0.4621 -0.9926,-1.1641 -1.462,-1.9414 -0.046,-0.076 -0.091,-0.1525 -0.1359,-0.2295 -0.1076,-0.1847 -0.2106,-0.3719 -0.3106,-0.5612 -0.01,-0.011 -0.01,-0.024 -0.019,-0.035 -0.017,-0.034 -0.035,-0.068 -0.052,-0.1029 -0.2357,-0.4574 -0.4455,-0.9185 -0.6113,-1.3539 -0.4492,-1.1784 -0.5845,-1.824 -0.8299,-4.0054 -0.3078,-2.7352 -0.2632,-4.0642 0.2268,-6.4436 1.6424,-7.9723 7.8329,-14.146 14.9536,-14.3841 4.4716,-0.1495 7.703,1.6847 8.3329,5.6085 v 5e-4 l 0.1576,0.1157 0.1927,0.1582 0.1044,0.09 0.1514,0.1385 0.091,0.087 0.1581,0.156 0.086,0.087 0.1401,0.1457 0.3472,0.37 0.2734,0.2904 0.071,0.075 0.1597,0.1612 0.091,0.091 0.1545,0.1458 0.094,0.086 0.1535,0.1297 0.1157,0.096 0.062,0.047 0.054,0.04 0.075,0.052 0.051,0.035 0.085,0.054 0.049,0.029 0.085,0.048 0.047,0.027 0.08,0.04 0.061,0.028 0.074,0.031 0.049,0.019 c 0.5447,-0.325 1.113,-0.6013 1.7027,-0.8206 1.2402,-0.4608 3.5949,-0.6522 4.8483,-0.3483 1.8796,0.4554 3.4146,1.8465 4.2917,3.6664 0.062,0.1288 0.1218,0.2721 0.1778,0.4258 0.161,0.1111 0.3253,0.2049 0.4935,0.2729 0.3278,0.1331 0.7901,0.038 1.171,-0.1747 0.343,-1.1612 0.6992,-2.2078 0.9932,-2.8629 0.6137,-1.367 1.5257,-2.6549 2.9605,-2.8086 1.4869,-0.1595 2.3686,0.6948 2.7978,1.8531 1.4667,-1.5312 3.046,-2.4858 4.9201,-2.6742 1.8427,-0.1852 3.1734,0.2601 4.224,1.51 1.5829,-1.6577 3.3082,-2.5813 5.4431,-2.6293 2.0444,-0.046 3.7201,0.59 4.7351,2.2029 0.011,0.016 0.018,0.031 0.029,0.047 0.3635,0.2508 0.7131,0.5126 0.9498,0.7518 0.6258,0.6329 1.2076,1.381 1.8769,1.7906 0.01,0 0.016,0 0.027,0.014 1.3783,-2.8828 3.6904,-5.105 6.5568,-6.042 1.6231,-0.5307 3.7354,-0.6691 5.2208,-0.184 0.9343,0.3051 1.7246,0.8047 2.3591,1.4371 -0.011,-0.1207 -0.022,-0.2408 -0.011,-0.3627 0.1268,-1.393 1.0601,-1.9216 2.1735,-2.1689 0.7641,-0.1697 1.4404,-0.7201 2.0299,-2.3962 0.2666,-0.7583 0.6864,-1.709 1.0965,-2.2175 0.7107,-0.8811 1.7872,-1.4068 2.8572,-1.4206 z" /><path
       id="path3055"
       style="font-size:36.7897px;line-height:1.25;font-family:'League Spartan';-inkscape-font-specification:'League Spartan';letter-spacing:5.52321px;baseline-shift:baseline;display:inline;overflow:visible;vector-effect:none;fill:#ffffff;fill-opacity:0;stroke-linecap:round;stroke-linejoin:round;enable-background:accumulate;stop-color:#000000"
       d="m -1791.5108,7482.9092 v 0.01 c -0.581,0.01 -1.219,0.302 -1.6453,0.8305 -0.215,0.2665 -0.5907,1.0531 -0.8351,1.7482 -0.7096,2.0178 -1.7083,3.0905 -3.1818,3.4179 -0.7633,0.1694 -0.8934,0.2759 -0.9384,0.7648 -0.082,0.9037 0.657,1.8667 1.5622,2.0355 0.2586,0.049 0.4758,0.1029 0.4956,0.1251 l 5e-4,5e-4 5e-4,5e-4 v 5e-4 6e-4 l 5e-4,5e-4 v 5e-4 c 0.014,0.1274 -1.3534,5.493 -1.4898,5.8472 -0.2391,0.6211 -1.5527,2.1659 -2.3446,2.7574 -1.1828,0.8835 -2.6193,1.4784 -4.116,1.7048 -2.0208,0.3058 -3.4322,0.034 -4.1321,-0.7979 -0.3859,-0.4585 -0.444,-0.7577 -0.2041,-1.0552 0.1562,-0.1944 0.2419,-0.197 0.8584,-0.027 0.8766,0.2424 2.3584,0.233 3.468,-0.021 1.5853,-0.3633 3.2389,-1.6803 3.9589,-3.1544 1.432,-2.9313 0.2843,-6.2261 -2.4831,-7.1298 -1.0465,-0.3417 -2.8709,-0.2621 -4.2359,0.184 -3.1499,1.0298 -5.6133,3.9607 -6.5076,7.7442 -0.2975,1.2583 -0.85,2.3407 -1.5208,2.9761 -0.3428,0.3248 -0.5816,0.4267 -1.2583,0.5379 -0.7578,0.1248 -0.8747,0.11 -1.2713,-0.1571 -0.9093,-0.6126 -1.0289,-1.6997 -0.4553,-4.1625 0.4702,-2.0194 0.4022,-3.1119 -0.2594,-4.1631 -0.6683,-1.062 -1.6749,-1.4999 -3.3574,-1.4629 -1.7099,0.039 -3.2317,0.8544 -4.6824,2.5099 -0.4685,0.5344 -0.9001,0.9724 -0.9591,0.9834 -0.059,0.01 -0.334,-0.3627 -0.6103,-0.8206 -0.7753,-1.2858 -1.6944,-1.7213 -3.2928,-1.5606 -1.4686,0.1477 -2.8112,0.9251 -4.1605,2.4091 -1.2355,1.3588 -1.9116,1.2473 -2.2872,-0.3772 -0.2099,-0.9078 -0.5997,-1.2824 -1.2599,-1.2124 -0.5961,0.064 -1.1399,0.6723 -1.6831,1.8821 -0.4951,1.103 -1.2449,3.6051 -1.7229,5.7506 -0.304,1.3643 -0.3898,1.5689 -0.9317,2.2308 -0.4322,0.5277 -0.7709,0.8019 -1.2283,0.9927 -0.8262,0.3449 -1.2597,0.3932 -1.1907,0.1328 0.028,-0.1079 0.092,-0.7024 0.1406,-1.3208 0.1273,-1.6146 -0.2653,-4.3479 -0.7762,-5.408 -0.7032,-1.4591 -1.8853,-2.4871 -3.2375,-2.8148 -0.9044,-0.2191 -2.9565,-0.066 -3.9217,0.2936 -3.0662,1.1405 -5.5847,4.1113 -6.6983,7.9023 -0.46,1.5657 -0.9661,2.2732 -2.1436,2.9972 -1.25,0.7687 -2.4013,1.1208 -4.3211,1.3209 -1.2446,0.1296 -1.8864,0.134 -2.6635,0.016 -3.0769,-0.4668 -5.0554,-2.4667 -5.3717,-5.4286 -0.3696,-3.4646 1.6451,-6.9619 4.4643,-7.7504 0.8735,-0.2447 1.6048,-0.2317 2.1823,0.04 0.3905,0.1835 0.5953,0.4504 0.8682,1.1317 0.1557,0.3886 0.04,1.5669 -0.2481,2.5202 -0.5468,1.8121 -0.559,1.8889 -0.3379,2.2133 0.4929,0.7234 2.0401,0.5754 3.4607,-0.3317 1.5833,-1.0109 2.684,-2.4001 3.3301,-4.2018 0.4687,-1.3073 0.565,-2.3455 0.3446,-3.7197 -0.4645,-2.8936 -2.839,-4.4057 -6.7153,-4.2762 -6.2842,0.2102 -11.929,5.7151 -13.4545,13.1206 -0.466,2.262 -0.5019,3.3002 -0.2041,5.9459 0.2428,2.1579 0.3155,2.5146 0.7364,3.6189 0.5346,1.4033 1.4424,2.8999 2.2148,3.6515 1.6851,1.6397 3.795,2.4264 6.3562,2.3704 0.5597,-0.011 1.1863,-0.055 1.3922,-0.096 0.2061,-0.041 0.7382,-0.1434 1.1824,-0.2294 3.0289,-0.5861 5.8377,-2.636 7.8005,-5.6932 0.6416,-0.9994 0.6614,-1.0167 0.7679,-0.6831 0.7058,2.2055 1.8914,3.5653 3.6262,4.1615 3.0315,1.0418 6.5095,-0.4226 8.9436,-3.7662 l 0.7436,-1.0212 0.7142,-0.076 c 0.8553,-0.092 2.0995,-0.6054 2.6954,-1.1137 0.2376,-0.2026 0.4541,-0.3736 0.4811,-0.3736 0.027,0 0.1305,0.8029 0.2305,1.7916 0.168,1.6653 0.2071,1.8336 0.5318,2.2816 0.6928,0.956 1.9793,1.2936 3.3005,0.8666 1.7406,-0.5627 2.2153,-1.8757 1.8671,-5.1672 -0.2844,-2.6889 0.1095,-4.6918 1.2098,-6.1531 0.6921,-0.9193 1.2402,-1.2744 2.1084,-1.3684 0.5679,-0.061 0.7429,-0.023 1.0495,0.2243 0.5668,0.457 0.6472,1.4187 0.2574,3.0779 -0.9289,3.9522 -0.9006,3.741 -0.7323,5.3712 0.1373,1.3303 0.1973,1.573 0.4935,2.0082 0.6215,0.9134 1.5707,1.2098 3.0975,0.9679 1.2851,-0.2036 1.9666,-0.7225 2.3854,-1.8149 0.2602,-0.6783 0.2821,-0.9041 0.1814,-1.864 -0.063,-0.6007 -0.2192,-1.6267 -0.3473,-2.2794 -0.2757,-1.4042 -0.1909,-2.4787 0.3033,-3.8293 0.8387,-2.2922 2.8112,-3.6494 4.0313,-2.7739 0.3923,0.2812 0.447,0.3867 0.494,0.9565 0.032,0.3762 -0.1034,1.413 -0.3281,2.5099 -0.5024,2.4514 -0.6064,3.7959 -0.3855,4.9919 0.3017,1.6333 0.8426,2.4689 1.9079,2.9508 0.5601,0.2526 0.75,0.2711 1.7683,0.1622 1.0687,-0.1146 1.2003,-0.1596 2.0661,-0.7095 1.4505,-0.9209 2.9102,-2.7963 3.9253,-5.0436 l 0.2951,-0.6547 0.3318,0.8934 c 1.1395,3.07 3.8584,4.621 7.1184,4.0608 2.6276,-0.4515 4.5833,-1.7032 6.6637,-4.2654 0.6101,-0.7514 1.124,-1.3705 1.143,-1.3705 0.019,0 0.1052,0.3767 0.1902,0.8408 0.9129,4.929 6.706,4.6448 9.9901,-0.4894 0.7305,-1.142 0.8802,-1.299 0.9162,-0.9627 0.048,0.4454 1.0195,1.8097 1.6531,2.3208 0.7459,0.6015 1.8792,1.0687 2.9332,1.2103 0.9939,0.1335 3.0432,-0.1185 4.0902,-0.5028 2.5582,-0.9395 4.7104,-3.0275 6.3283,-6.1408 0.1802,-0.3467 0.3729,-0.7628 0.5602,-1.1963 2.5829,0.3508 4.0586,1.9181 4.0586,4.4137 0,1.4991 -0.388,2.3109 -1.7637,3.6866 -1.7409,1.741 -4.8139,2.9663 -8.4667,3.3771 -0.8807,0.099 -4.7236,0.4636 -8.54,0.8087 -6.7027,0.6062 -10.0314,0.9135 -17.97,1.6604 -2.055,0.1934 -5.0978,0.4742 -6.7613,0.6237 -1.6635,0.1494 -3.8247,0.3544 -4.8033,0.4563 -0.9784,0.1014 -3.5808,0.3444 -5.7826,0.5395 -1.6457,0.1459 -3.1786,0.2949 -3.9522,0.3809 l -2.8991,0.3198 -10.2758,1.0914 c -1.0146,0.1363 -2.2919,0.2678 -3.9559,0.4197 -14.3541,1.3101 -15.9158,1.5173 -18.7482,2.4861 -4.0938,1.4004 -6.8146,4.2359 -7.7757,8.1049 -0.5679,2.2857 -0.3437,6.4594 0.4619,8.5902 0.4058,1.0739 1.3663,2.7957 1.5571,2.7957 0.071,-9e-4 0.3035,-0.3008 0.5157,-0.6671 1.055,-1.8195 4.079,-4.7131 6.8197,-6.5257 2.8664,-1.8956 6.8569,-3.8753 10.4971,-5.2069 3.8699,-1.4155 9.9444,-3.1399 13.3749,-3.7972 8.5622,-1.6405 29.8479,-4.651 37.5992,-5.3175 1.1742,-0.1009 5.0572,-0.4657 8.6289,-0.8108 3.5718,-0.3449 7.4148,-0.7082 8.5401,-0.8088 7.2112,-0.641 11.4699,-2.1199 14.6198,-5.0756 0.8473,-0.7952 1.9404,-2.0955 2.2443,-2.6702 1.434,-2.7128 1.3263,-6.3916 -0.2667,-9.11 -0.613,-1.0459 -2.5343,-2.5487 -4.054,-3.1703 -0.9672,-0.3953 -1.3486,-0.4905 -2.4867,-0.4905 -0.1626,-0.011 -0.3405,0 -0.5379,0 -1.2548,0.016 -2.1176,0.1306 -2.928,0.3892 -0.5295,0.1689 -0.9849,0.2995 -1.1307,0.3255 -0.2649,-0.4696 -0.5726,-0.9956 -0.8811,-1.4975 -0.6722,-1.093 -1.2356,-2.111 -1.2516,-2.2624 -0.055,-0.5086 0.2475,-0.991 0.9426,-1.5059 1.3157,-0.9741 1.4517,-1.1413 1.3917,-1.7012 -0.1299,-1.2131 -1.4225,-2.1046 -3.1135,-2.1466 -1.3961,-0.035 -2.8125,0.9525 -4.0949,2.8525 -0.3633,0.5381 -1.4216,2.4179 -2.3523,4.177 -0.9306,1.7592 -1.9227,3.5179 -2.205,3.9088 -0.6689,0.9258 -1.4929,1.4594 -2.5451,1.6485 -2.0118,0.3617 -3.2315,-0.4968 -3.4442,-2.4241 -0.1498,-1.3557 0.3354,-3.3714 0.9281,-3.8572 0.2042,-0.1674 0.835,-0.3464 2.0577,-0.5818 1.6762,-0.323 1.7764,-0.3581 2.0201,-0.7116 0.3043,-0.4413 0.4528,-1.2445 0.3788,-2.0598 -0.081,-0.8957 -0.2143,-0.9614 -1.7038,-0.8439 -1.2772,0.1008 -1.285,0.1011 -1.357,-0.2212 -0.04,-0.1781 0.099,-0.9311 0.309,-1.6722 0.4678,-1.6474 0.4517,-2.5474 -0.052,-2.9807 -0.2499,-0.2149 -0.5781,-0.3216 -0.9266,-0.3106 z m 9.5038,9.5183 c 0.4027,0.028 1.0753,1.121 1.4356,2.3487 0.4097,1.3964 0.037,2.7063 -0.9441,3.3181 -0.9386,0.5859 -2.2997,0.5573 -2.9885,-0.062 -0.6024,-0.5417 -0.5823,-0.6965 0.2744,-2.1373 0.4387,-0.7377 1.0714,-1.8154 1.4062,-2.3947 0.3351,-0.5794 0.6862,-1.0603 0.7782,-1.0713 0.01,6e-4 0.01,0 0.019,0 h 5e-4 c 0.01,0 0.01,-7e-4 0.019,0 z m -23.7572,1.5699 v 0 h 6e-4 c 0.018,0 0.038,4e-4 0.057,0 0.1754,0 0.3531,0.029 0.5302,0.076 0.7423,0.196 1.0675,0.6444 1.0785,1.48 0.01,0.7385 -0.3415,1.3594 -0.9943,1.7663 -0.274,0.171 -0.7417,0.3328 -1.0526,0.3628 -1.2027,0.118 -1.9179,-0.4589 -1.9069,-1.5483 0.01,-1.2019 1.0835,-2.1378 2.2877,-2.1378 z m -45.8819,6.3567 c 0.018,0 0.036,1e-4 0.052,5e-4 0.5998,0.012 0.9806,0.2368 1.3746,0.77 0.8477,1.147 0.1381,3.6009 -1.292,4.47 -0.3185,0.1935 -0.7795,0.35 -1.1363,0.385 -1.2988,0.1282 -1.991,-0.4375 -2.1327,-1.743 -0.2184,-2.0119 0.9442,-3.6524 2.7337,-3.8572 0.1441,-0.014 0.2768,-0.025 0.4005,-0.025 z" /><path
       id="path3016"
       style="font-size:36.7897px;line-height:1.25;font-family:'League Spartan';-inkscape-font-specification:'League Spartan';letter-spacing:5.52321px;fill:#d40000;fill-opacity:1;stroke-width:0.440722"
       d="m -1791.5298,7481.3263 c -1.0708,0.013 -2.1482,0.5389 -2.8594,1.4207 -0.4101,0.5085 -0.8298,1.4593 -1.0964,2.2176 -0.5895,1.6761 -1.2661,2.2265 -2.0302,2.3962 -1.1134,0.2473 -2.0467,0.7757 -2.1735,2.1687 -0.011,0.1219 0,0.2418 0.011,0.3625 -0.6345,-0.6324 -1.4244,-1.1317 -2.3587,-1.4368 -1.4854,-0.4851 -3.5978,-0.347 -5.2209,0.1837 -2.8664,0.937 -5.1784,3.1593 -6.5567,6.0421 -0.011,-0.011 -0.019,-0.011 -0.027,-0.014 -0.6693,-0.4096 -1.2513,-1.1574 -1.8771,-1.7903 -0.2367,-0.2392 -0.5864,-0.5013 -0.9499,-0.7521 -0.011,-0.016 -0.018,-0.031 -0.029,-0.047 -1.015,-1.6129 -2.6906,-2.249 -4.735,-2.2027 -2.1349,0.048 -3.86,0.9716 -5.4429,2.6293 -1.0506,-1.2499 -2.3812,-1.6954 -4.2239,-1.5102 -1.8741,0.1884 -3.4538,1.1428 -4.9205,2.674 -0.4292,-1.1583 -1.3108,-2.0124 -2.7977,-1.8529 -1.4348,0.1537 -2.3469,1.4417 -2.9606,2.8087 -0.294,0.6551 -0.6498,1.7016 -0.9928,2.8628 -0.3809,0.2127 -0.8436,0.3078 -1.1714,0.1747 -0.1682,-0.068 -0.3322,-0.1616 -0.4932,-0.2727 -0.056,-0.1537 -0.1159,-0.2972 -0.1777,-0.426 -0.8771,-1.8199 -2.4124,-3.2111 -4.292,-3.6665 -1.2534,-0.3039 -3.6078,-0.1124 -4.848,0.3484 -0.5897,0.2193 -1.1581,0.4955 -1.7028,0.8205 l -0.049,-0.019 -0.074,-0.031 -0.061,-0.028 -0.08,-0.04 -0.047,-0.027 -0.085,-0.048 -0.049,-0.029 -0.085,-0.054 -0.051,-0.035 -0.075,-0.052 -0.054,-0.04 -0.062,-0.047 -0.1159,-0.096 -0.1536,-0.13 -0.094,-0.086 -0.1546,-0.1458 -0.091,-0.091 -0.1597,-0.1613 -0.071,-0.075 -0.2737,-0.2902 -0.347,-0.3699 -0.1402,-0.1461 -0.086,-0.087 -0.1585,-0.1563 -0.091,-0.087 -0.1512,-0.1382 -0.1042,-0.09 -0.1927,-0.1581 -0.1577,-0.116 v -10e-5 c -0.6299,-3.9238 -3.8611,-5.7582 -8.3327,-5.6087 -7.1207,0.2381 -13.3116,6.412 -14.954,14.3843 -0.49,2.3794 -0.5346,3.7083 -0.2268,6.4435 0.2454,2.1814 0.381,2.8272 0.8302,4.0056 0.1658,0.4354 0.3756,0.8964 0.6113,1.3538 0.017,0.035 0.035,0.069 0.052,0.103 0.011,0.011 0.011,0.024 0.019,0.035 0.1,0.1893 0.2029,0.3764 0.3105,0.5611 0.045,0.077 0.09,0.1534 0.136,0.2292 0.4694,0.7773 0.9869,1.4796 1.4619,1.9417 0.05,0.049 0.1007,0.096 0.1514,0.144 0.2641,0.2813 0.5285,0.5507 0.7442,0.7534 1.7409,1.6363 3.769,2.977 5.861,4.1686 0.6083,0.3466 1.3732,0.7629 1.7032,0.9384 1.1486,0.2567 1.7323,0.3549 2.1303,0.429 -1.0871,1.377 -1.8763,2.9864 -2.3262,4.7975 -0.6182,2.4884 -0.4028,6.8986 0.451,9.347 l -0.014,0.011 c 0.1666,0.4939 0.3502,0.9993 0.519,1.3607 0.7791,1.668 2.879,4.6897 7.9408,7.2632 0.8397,0.4269 1.663,0.9992 2.5925,1.1106 h 0.011 c 1.6295,-0.9433 2.158,-1.9466 2.5986,-2.49 1.0522,-1.2971 2.7733,-2.9192 4.5524,-4.2372 0.5625,-0.4167 1.5105,-1.043 2.1081,-1.4077 2.3064,-1.4077 5.1556,-2.8172 7.9123,-3.9093 0.6511,-0.2578 1.7175,-0.6471 2.3798,-0.8745 3.2992,-1.1334 7.6373,-2.3681 10.6926,-3.0476 0.6834,-0.152 1.7983,-0.3656 2.4873,-0.4907 8.6885,-1.5789 26.8155,-4.1437 34.9279,-4.9454 0.6967,-0.069 1.8275,-0.167 2.5248,-0.231 1.4842,-0.1362 3.7942,-0.3542 6.1211,-0.5774 0.697,-0.066 1.8269,-0.1758 2.5239,-0.2429 2.2938,-0.2204 4.5555,-0.4355 6.0039,-0.5706 0.6973,-0.066 1.8283,-0.1643 2.5243,-0.2395 0.4499,-0.049 0.8888,-0.1007 1.3177,-0.1574 0.6942,-0.091 1.808,-0.3077 2.488,-0.4743 2.012,-0.4925 4.0097,-1.0589 5.9182,-1.801 0.6526,-0.2537 1.6736,-0.7508 2.2616,-1.1305 0.4722,-0.3048 0.9248,-0.6313 1.3598,-0.9805 0.5459,-0.4382 1.3719,-1.2196 1.8452,-1.7355 0.3383,-0.3686 0.6731,-0.7605 0.9625,-1.1325 0.4296,-0.552 0.9831,-1.5495 1.2259,-2.2056 0.9737,-2.63 0.8763,-5.7544 -0.2454,-8.3641 -0.2763,-0.6429 -0.867,-1.6221 -1.3453,-2.1317 -0.1019,-0.1089 -0.2088,-0.217 -0.3209,-0.3253 -0.5027,-0.4868 -1.4451,-1.1199 -2.0436,-1.4835 -0.1567,-0.095 -0.2829,-0.1741 -0.2828,-0.1745 l -0.4091,-0.2643 -0.1031,-0.07 -0.11,-0.076 -0.232,-0.1679 -0.1,-0.071 c -1.2459,-0.6701 -2.3404,-1.1546 -3.2688,-1.6038 -0.086,-0.1671 -0.1748,-0.3326 -0.2695,-0.4941 -1.8906,-3.4615 -3.0088,-4.5591 -3.3763,-4.86 -0.024,-0.02 -0.048,-0.04 -0.069,-0.057 -0.044,-0.032 -0.069,-0.05 -0.072,-0.052 -3e-4,-1e-4 -0.011,0 -0.011,0 h -3e-4 l -0.1911,-0.1237 -0.1973,-0.1192 -0.1396,-0.08 -0.1616,-0.089 -0.1311,-0.069 c -1.1694,-0.5765 -1.388,-0.6824 -1.6215,-0.8044 l -0.2991,-0.1613 -0.052,-0.031 -0.2496,-0.1489 -0.1018,-0.065 -0.059,-0.037 -0.1907,-0.1333 -0.3415,-0.2638 c -1.6675,-1.5326 -2.9592,-2.9387 -4.1997,-3.978 -0.8715,-1.1097 -2.3852,-1.7244 -3.919,-1.7626 -1.7715,-0.045 -3.3519,0.9552 -4.659,2.5044 -0.2212,-0.026 -0.4268,-0.072 -0.5945,-0.1385 -1.79,-0.7082 -3.1182,-2.7386 -4.7581,-4.0501 -0.2512,-0.2008 -0.6024,-0.4204 -0.971,-0.6225 -0.029,-0.026 -0.056,-0.052 -0.085,-0.077 -0.5919,-0.5087 -1.3117,-0.7011 -1.979,-0.6929 z m 0.019,1.5851 c 0.3485,-0.011 0.6769,0.095 0.9268,0.3099 0.5041,0.4333 0.5198,1.3339 0.052,2.9813 -0.2102,0.7411 -0.3493,1.4933 -0.309,1.6714 0.072,0.3223 0.08,0.323 1.3572,0.2222 1.4895,-0.1175 1.6222,-0.052 1.7033,0.8437 0.074,0.8153 -0.074,1.6185 -0.3783,2.0598 -0.2437,0.3535 -0.3439,0.3887 -2.0201,0.7117 -1.2227,0.2354 -1.8538,0.4137 -2.058,0.5811 -0.5927,0.4858 -1.0776,2.502 -0.9278,3.8577 0.2127,1.9273 1.4324,2.7856 3.4442,2.4239 1.0522,-0.1891 1.8758,-0.7227 2.5447,-1.6485 0.2823,-0.3909 1.2745,-2.1498 2.2051,-3.909 0.9307,-1.7591 1.9892,-3.6388 2.3525,-4.1769 1.2824,-1.9 2.6989,-2.8866 4.095,-2.852 1.691,0.042 2.9832,0.9329 3.1131,2.146 0.06,0.5599 -0.076,0.7271 -1.3917,1.7012 -0.6951,0.5149 -0.9971,0.997 -0.9425,1.5056 0.016,0.1514 0.5796,1.1696 1.2518,2.2626 0.3085,0.5019 0.6159,1.028 0.8808,1.4976 0.1458,-0.026 0.6013,-0.156 1.1308,-0.3249 0.8104,-0.2586 1.6733,-0.3733 2.9281,-0.3891 0.1974,0 0.3755,-0.011 0.5381,0 1.1381,0 1.5192,0.095 2.4864,0.4903 1.5197,0.6216 3.4413,2.1236 4.0543,3.1695 1.593,2.7184 1.7007,6.3977 0.2667,9.1105 -0.3039,0.5747 -1.3971,1.875 -2.2444,2.6702 -3.1499,2.9557 -7.4088,4.4346 -14.62,5.0756 -1.1253,0.1006 -4.9683,0.4641 -8.5401,0.809 -3.5717,0.3451 -7.4548,0.71 -8.629,0.8109 -7.7513,0.6665 -29.0369,3.6771 -37.5991,5.3176 -3.4305,0.6573 -9.5048,2.3815 -13.3747,3.797 -3.6402,1.3316 -7.6307,3.3112 -10.4971,5.2068 -2.7407,1.8126 -5.7648,4.7062 -6.8198,6.5257 -0.2122,0.3663 -0.4443,0.6661 -0.5155,0.667 -0.1908,0 -1.1513,-1.722 -1.5571,-2.7959 -0.8056,-2.1308 -1.03,-6.3038 -0.4621,-8.5895 0.9611,-3.869 3.6821,-6.705 7.7759,-8.1054 2.8324,-0.9688 4.3937,-1.1756 18.7478,-2.4857 1.664,-0.1519 2.9412,-0.2837 3.9558,-0.42 l 10.2763,-1.0915 2.8991,-0.3194 c 0.7736,-0.086 2.3065,-0.2358 3.9522,-0.3817 2.2018,-0.1951 4.804,-0.438 5.7824,-0.5394 0.9786,-0.1019 3.14,-0.307 4.8035,-0.4564 1.6635,-0.1495 4.7062,-0.4299 6.7612,-0.6233 7.9386,-0.7469 11.2671,-1.0547 17.9698,-1.6609 3.8164,-0.3451 7.6594,-0.7089 8.5401,-0.8079 3.6528,-0.4108 6.7257,-1.6368 8.4666,-3.3778 1.3757,-1.3757 1.7636,-2.1871 1.7636,-3.6862 0,-2.4956 -1.4753,-4.0633 -4.0582,-4.4141 -0.1873,0.4335 -0.3803,0.8497 -0.5605,1.1964 -1.6179,3.1133 -3.77,5.2017 -6.3282,6.1412 -1.047,0.3843 -3.0965,0.6365 -4.0904,0.503 -1.054,-0.1416 -2.1872,-0.6093 -2.9331,-1.2108 -0.6336,-0.5111 -1.6054,-1.8752 -1.6531,-2.3206 -0.036,-0.3363 -0.1858,-0.179 -0.9163,0.963 -3.2841,5.1342 -9.0768,5.4179 -9.9897,0.4889 -0.085,-0.4641 -0.1716,-0.8425 -0.1902,-0.8405 -0.019,0 -0.533,0.6188 -1.1431,1.3702 -2.0804,2.5622 -4.0361,3.8142 -6.6637,4.2657 -3.26,0.5602 -5.9792,-0.991 -7.1187,-4.061 l -0.3316,-0.8932 -0.2952,0.6542 c -1.0151,2.2473 -2.4748,4.1229 -3.9253,5.0438 -0.8658,0.5499 -0.997,0.5947 -2.0657,0.7093 -1.0183,0.1089 -1.2087,0.091 -1.7688,-0.1616 -1.0653,-0.4819 -1.6059,-1.3177 -1.9076,-2.951 -0.2209,-1.196 -0.1171,-2.5409 0.3853,-4.9923 0.2247,-1.0969 0.36,-2.1329 0.3283,-2.5091 -0.047,-0.5698 -0.1018,-0.6759 -0.4941,-0.9571 -1.2201,-0.8755 -3.1925,0.4817 -4.0312,2.7739 -0.4942,1.3506 -0.5793,2.4257 -0.3036,3.8299 0.1281,0.6527 0.2844,1.6782 0.3474,2.2789 0.1007,0.9599 0.079,1.1859 -0.1812,1.8642 -0.4188,1.0924 -1.1004,1.6107 -2.3855,1.8143 -1.5268,0.2419 -2.4762,-0.054 -3.0977,-0.9674 -0.2962,-0.4352 -0.3559,-0.6783 -0.4932,-2.0086 -0.1683,-1.6302 -0.1969,-1.4183 0.732,-5.3705 0.3898,-1.6592 0.3094,-2.6214 -0.2574,-3.0784 -0.3066,-0.2476 -0.4812,-0.2849 -1.0491,-0.2242 -0.8682,0.094 -1.4167,0.449 -2.1088,1.3683 -1.1003,1.4613 -1.4938,3.464 -1.2094,6.1529 0.3482,3.2915 -0.1267,4.605 -1.8673,5.1677 -1.3212,0.427 -2.6075,0.089 -3.3003,-0.867 -0.3247,-0.448 -0.3638,-0.6156 -0.5318,-2.2809 -0.1,-0.9887 -0.2035,-1.7951 -0.2306,-1.7924 -0.027,0 -0.2437,0.1712 -0.4813,0.3738 -0.5959,0.5083 -1.84,1.0225 -2.6953,1.1141 l -0.7143,0.076 -0.7435,1.0215 c -2.4341,3.3436 -5.9121,4.8083 -8.9436,3.7665 -1.7348,-0.5962 -2.9205,-1.9569 -3.6263,-4.1624 -0.1065,-0.3336 -0.1261,-0.3161 -0.7677,0.6833 -1.9628,3.0572 -4.772,5.1069 -7.8009,5.693 -0.4442,0.086 -0.976,0.1895 -1.1821,0.23 -0.2059,0.041 -0.8326,0.085 -1.3923,0.096 -2.5612,0.056 -4.6711,-0.7307 -6.3562,-2.3704 -0.7724,-0.7516 -1.6801,-2.2483 -2.2147,-3.6516 -0.4209,-1.1043 -0.4937,-1.4609 -0.7365,-3.6188 -0.2978,-2.6457 -0.2619,-3.6842 0.2041,-5.9462 1.5255,-7.4055 7.1704,-12.9105 13.4546,-13.1207 3.8763,-0.1295 6.2508,1.3827 6.7153,4.2763 0.2204,1.3742 0.1241,2.4126 -0.3446,3.7199 -0.6461,1.8017 -1.7468,3.1906 -3.3301,4.2015 -1.4206,0.9071 -2.9676,1.0554 -3.4605,0.332 -0.2211,-0.3244 -0.209,-0.4012 0.3378,-2.2133 0.2877,-0.9533 0.4036,-2.1317 0.2479,-2.5203 -0.2729,-0.6813 -0.4778,-0.9481 -0.8683,-1.1316 -0.5775,-0.2713 -1.3086,-0.2847 -2.1821,-0.04 -2.8192,0.7885 -4.8338,4.286 -4.4642,7.7506 0.3163,2.9619 2.2949,4.9617 5.3718,5.4285 0.7771,0.1179 1.4188,0.1136 2.6634,-0.016 1.9198,-0.2001 3.0709,-0.5521 4.3209,-1.3208 1.1775,-0.724 1.6836,-1.4317 2.1436,-2.9974 1.1136,-3.791 3.632,-6.7617 6.6982,-7.9022 0.9652,-0.3591 3.0177,-0.5125 3.9221,-0.2934 1.3522,0.3277 2.5343,1.3554 3.2375,2.8145 0.5109,1.0601 0.9033,3.7937 0.776,5.4083 -0.049,0.6184 -0.1123,1.2126 -0.1404,1.3205 -0.069,0.2604 0.3645,0.2121 1.1907,-0.1328 0.4574,-0.1908 0.7961,-0.4646 1.2283,-0.9923 0.5419,-0.6619 0.6278,-0.8666 0.9318,-2.2309 0.478,-2.1455 1.2273,-4.6476 1.7224,-5.7506 0.5432,-1.2098 1.0872,-1.818 1.6833,-1.882 0.6602,-0.07 1.05,0.3044 1.2599,1.2122 0.3756,1.6245 1.0517,1.736 2.2872,0.3772 1.3493,-1.484 2.692,-2.2616 4.1606,-2.4093 1.5984,-0.1607 2.5175,0.2748 3.2928,1.5606 0.2763,0.4579 0.5507,0.827 0.61,0.8207 0.059,-0.011 0.491,-0.4489 0.9595,-0.9833 1.4507,-1.6555 2.9722,-2.4712 4.6821,-2.5099 1.6825,-0.037 2.6894,0.4008 3.3577,1.4628 0.6616,1.0512 0.7297,2.1436 0.2595,4.163 -0.5736,2.4628 -0.4545,3.55 0.4548,4.1626 0.3966,0.2671 0.5137,0.2818 1.2715,0.157 0.6767,-0.1112 0.9153,-0.2132 1.2581,-0.538 0.6708,-0.6354 1.2235,-1.7175 1.521,-2.9758 0.8943,-3.7835 3.3575,-6.7146 6.5074,-7.7444 1.365,-0.4461 3.1897,-0.5253 4.2362,-0.1836 2.7674,0.9037 3.9148,4.1983 2.4828,7.1296 -0.72,1.4741 -2.3733,2.7911 -3.9586,3.1544 -1.1096,0.2543 -2.5915,0.2634 -3.4681,0.021 -0.6165,-0.1702 -0.702,-0.1674 -0.8582,0.027 -0.2399,0.2975 -0.1819,0.5967 0.204,1.0552 0.6999,0.8314 2.111,1.1039 4.1318,0.7981 1.4967,-0.2264 2.9335,-0.8215 4.1163,-1.705 0.7919,-0.5915 2.1053,-2.1365 2.3444,-2.7576 0.1364,-0.3542 1.5035,-5.7196 1.4898,-5.847 0,-0.02 -0.2257,-0.077 -0.497,-0.1284 -0.9052,-0.1688 -1.6442,-1.1314 -1.562,-2.0351 0.045,-0.4889 0.1751,-0.5957 0.9384,-0.7651 1.4735,-0.3274 2.4722,-1.4001 3.1818,-3.4179 0.2444,-0.6951 0.62,-1.4816 0.835,-1.7481 0.4263,-0.5285 1.064,-0.8237 1.645,-0.8307 z m 9.4844,9.5146 c -0.011,0 -0.013,6e-4 -0.019,0 -0.092,0.011 -0.4429,0.4919 -0.778,1.0713 -0.3348,0.5793 -0.9675,1.6571 -1.4062,2.3948 -0.8567,1.4408 -0.8769,1.5953 -0.2745,2.137 0.6888,0.6193 2.0498,0.6479 2.9884,0.062 0.9811,-0.6118 1.354,-1.9215 0.9443,-3.3179 -0.3603,-1.2277 -1.0331,-2.3202 -1.4358,-2.3487 v 4e-4 c -0.011,-7e-4 -0.013,0 -0.019,0 z m -23.7376,1.5694 c -1.2042,0 -2.2813,0.9361 -2.2879,2.138 -0.011,1.0894 0.7042,1.666 1.9069,1.548 0.3109,-0.03 0.7786,-0.1916 1.0526,-0.3626 0.6528,-0.4069 1.0021,-1.0278 0.9942,-1.7663 -0.011,-0.8356 -0.3361,-1.2843 -1.0784,-1.4803 -0.1771,-0.047 -0.3546,-0.071 -0.53,-0.076 -0.019,-7e-4 -0.039,-8e-4 -0.057,-8e-4 z m -45.8825,6.356 c -0.1237,1e-4 -0.2566,0.011 -0.4007,0.025 -1.7895,0.2048 -2.9522,1.8454 -2.7338,3.8573 0.1417,1.3055 0.8343,1.8711 2.1331,1.7429 0.3568,-0.035 0.8178,-0.1918 1.1363,-0.3853 1.4301,-0.8691 2.1392,-3.323 1.2915,-4.47 -0.394,-0.5332 -0.7744,-0.7581 -1.3742,-0.7697 -0.016,-4e-4 -0.034,-4e-4 -0.052,-4e-4 z" /></g></svg>
