<?xml version="1.0" encoding="UTF-8" standalone="no"?>
<svg
   width="320.55664"
   height="150.85156"
   viewBox="0 0 84.813943 39.91281"
   version="1.1"
   id="svg16"
   xml:space="preserve"
   xmlns="http://www.w3.org/2000/svg"
   xmlns:svg="http://www.w3.org/2000/svg"
   xmlns:rdf="http://www.w3.org/1999/02/22-rdf-syntax-ns#"
   xmlns:cc="http://creativecommons.org/ns#"
   xmlns:dc="http://purl.org/dc/elements/1.1/"><defs
     id="defs10" /><metadata
     id="metadata13"><rdf:RDF><cc:Work
         rdf:about=""><dc:format>image/svg+xml</dc:format><dc:type
           rdf:resource="http://purl.org/dc/dcmitype/StillImage" /></cc:Work></rdf:RDF></metadata><g
     id="layer1"
     transform="translate(2090.4349,-7519.6737)"><path
       id="path3010"
       style="fill:#d40000;fill-opacity:1;stroke:none;stroke-width:0.454335"
       d="m -2013.4897,7519.6965 c -0.3439,0.046 -0.6846,0.1838 -0.9369,0.3506 -0.5047,0.3334 -0.8646,0.7402 -1.1534,1.1793 -0.5188,0.7888 -0.9012,1.6062 -1.2308,2.4314 0.161,-0.615 0.3038,-1.2837 0.217,-2.0194 -0.075,-0.6349 -0.5189,-1.0724 -1.0296,-1.1819 -0.5106,-0.1096 -1.0869,0.025 -1.6205,0.408 h -10e-5 c -1.1404,0.8183 -1.4677,1.9503 -1.7668,2.5824 -0.7409,2.0335 -2.6116,8.7252 -2.8302,11.0969 -0.033,0.015 -0.157,0.056 -0.1744,0.062 -0.072,0.028 -0.1579,0.044 -0.2317,0.07 0.3398,-1.4895 0.5493,-3.035 0.2334,-4.4707 -0.167,-0.7587 -0.611,-1.3234 -1.275,-1.5775 -0.6638,-0.2542 -1.6941,-0.074 -2.4647,0.6726 -0.6774,0.6557 -0.9278,1.4084 -1.0936,1.956 -0.1222,0.4035 -0.2041,0.6296 -0.2901,0.8534 -0.4624,0.1967 -0.8925,0.4932 -1.2221,0.9535 -0.7943,1.1092 -0.9007,2.181 -1.077,2.9116 -0.3431,1.4205 -0.6338,3.2331 0.2992,4.4785 0.3575,0.477 0.9304,0.6847 1.4816,0.6827 0.5514,0 1.0871,-0.1745 1.5723,-0.4127 1.4155,-0.6945 2.4383,-2.1404 2.84,-3.6504 0.4182,-0.1079 0.8513,-0.2344 1.3029,-0.4008 -0.023,0.7544 0.065,1.4512 0.2375,2.0241 0.1386,0.4582 0.4221,0.8222 0.8502,1.0096 0.4282,0.1873 1.0411,0.1608 1.6063,-0.1579 0.5077,-0.2861 0.861,-0.6658 1.2337,-1.028 -0.039,0.1562 -0.015,0.2039 -0.06,0.3787 v 0 c -0.062,0.2472 -0.1439,0.5148 -0.2334,0.8013 -0.1862,0.5977 0.1051,1.1142 0.6504,1.1544 0.5458,0.041 1.1397,-0.4115 1.3263,-1.0098 0.091,-0.291 0.1872,-0.6029 0.2716,-0.9365 0.4236,-1.6827 0.7423,-3.2982 0.9205,-4.761 0.1256,-0.091 0.2176,-0.1593 0.4405,-0.3234 0.3485,-0.2566 0.8254,-0.6706 1.164,-1.2668 0.8425,-1.4823 1.3626,-2.8121 1.9626,-3.2689 0.1126,-0.086 0.1682,-0.115 0.2628,-0.18 0.046,0.186 0.1008,0.4215 0.01,0.9371 -0.2127,1.2225 -1.0847,2.4169 -2.1453,3.6219 -0.6605,0.7504 -0.9332,1.6352 -0.9809,2.3769 -0.047,0.7417 0.095,1.3954 0.3207,1.9396 0.3745,0.902 1.3916,1.3371 2.4981,0.9189 1.543,-0.5829 2.5228,-2.0131 3.1978,-3.2097 0.8166,-1.4479 0.7883,-1.576 1.9753,-4.3362 0.061,-0.1419 0.2696,-0.9829 0.7505,-0.8474 0.3945,0.1112 0.051,1.1506 0.077,1.3837 -0.2245,1.6303 -0.4149,2.2079 -0.5809,2.7704 -0.2792,0.9453 -0.7182,1.8808 -1.0969,2.4608 -0.8298,1.2707 -0.9709,1.3571 -1.9903,2.4208 -1.1936,1.2457 -4.6323,2.5716 -8.3396,3.2159 -3.934,0.6837 -22.6866,2.8353 -35.1645,4.0347 -12.8257,1.2329 -17.2284,1.8613 -22.2234,3.1706 -4.0931,1.0729 -8.3296,3.2341 -9.96,5.0816 -0.6962,0.7891 -1.3955,1.8481 -1.2899,1.9536 0.1388,0.1388 1.5706,-0.133 3.6876,-0.6998 2.2553,-0.6038 4.0022,-0.7632 6.4544,-0.5893 3.9743,0.2817 10.9078,3.2345 10.9078,3.2345 v 0 c 0,0 1.259,0.6379 1.4262,0.6402 0.1782,0 0.6736,-0.3722 1.1976,-0.9066 2.1622,-2.2051 4.6676,-3.4479 9.6496,-4.7866 2.6692,-0.717 3.6869,-0.9177 10.6111,-2.0923 2.9139,-0.4944 6.1298,-1.0645 7.1461,-1.2667 1.0165,-0.2022 3.0778,-0.574 4.5807,-0.8264 6.6385,-1.1151 12.4973,-2.6041 16.2781,-4.1367 3.0441,-1.234 4.8559,-2.367 6.6603,-4.1658 0.8785,-0.8756 1.586,-1.8156 1.8373,-2.1886 0.8822,-1.3108 0.6536,-0.8884 1.1452,-1.8704 0.5578,-1.114 0.6672,-1.9396 0.7855,-2.703 0.1607,-1.0365 0.303,-2.2193 0.2498,-2.9126 0.024,-0.4792 -0.038,-0.9496 -0.106,-1.3306 -0.1201,-0.6661 -0.5636,-1.0318 -0.9591,-1.2453 -0.2499,-0.1349 -0.5745,-0.3248 -1.4273,-0.2693 -1.1071,0.072 -1.773,1.1443 -2.0499,1.7298 0,0.01 -0.011,0.015 -0.014,0.023 -0.6161,1.5374 -1.2037,3.0253 -1.9552,4.3574 -0.5368,0.9517 -1.1779,1.6899 -1.6869,1.8822 -0.1346,0.051 -0.2406,0.024 -0.3162,-0.158 -0.1367,-0.3294 -0.2165,-0.7535 -0.194,-1.1009 0.023,-0.3473 0.1131,-0.5633 0.2634,-0.7339 1.1629,-1.321 2.4815,-2.9916 2.8337,-5.0169 0.1373,-0.7878 0.3808,-2.0701 -0.4982,-2.8386 -0.477,-0.4168 -1.2536,-0.2736 -1.7144,-0.052 -0.4002,0.1921 -0.6694,0.4094 -0.8973,0.5844 0.977,-1.6661 1.6334,-3.4316 2.106,-5.0753 0.084,-0.2938 0.2047,-0.6944 0.2343,-1.1601 0.03,-0.4658 -0.067,-1.0746 -0.5229,-1.4298 -0.2638,-0.2056 -0.61,-0.2531 -0.9539,-0.2073 z m -18.9129,1.544 c -0.3642,-0.011 -0.734,0.015 -1.0976,0.071 v 1e-4 c -0.2077,0.033 -0.4136,0.073 -0.6151,0.1223 v -2e-4 c -3.2083,0.783 -6.2639,3.9552 -7.0921,7.5714 -0.3781,1.6499 -0.4721,3.5235 0.4253,4.8691 0.2845,0.4269 0.922,0.4319 1.4238,0.011 0.5017,-0.4208 0.6778,-1.108 0.393,-1.5348 -0.4995,-0.749 -0.5128,-2.0869 -0.2139,-3.3924 0.5933,-2.59 2.8876,-4.8966 5.0108,-5.4149 1.1338,-0.2765 2.2259,-0.1658 2.767,0.6063 0.5739,0.819 0.6525,2.2445 0.4207,3.6739 -0.4226,2.6052 -2.3047,5.4128 -4.3131,6.3213 -0.354,0.1602 -0.6566,0.3079 -0.8403,0.3656 -0.051,0.015 -0.018,0.01 -0.042,0.014 0.018,-0.1386 0.061,-0.3452 0.1237,-0.6193 0.6358,-2.738 1.2277,-5.4451 2.4207,-7.8053 0.072,-0.1421 0.1463,-0.2769 0.2237,-0.4047 0.3395,-0.5601 0.2357,-1.1883 -0.232,-1.4024 -0.4666,-0.214 -1.1197,0.066 -1.4584,0.6257 -0.1219,0.2016 -0.2329,0.4037 -0.3347,0.6051 -1.4175,2.8045 -2.0189,5.716 -2.6471,8.4221 -0.2963,1.7555 -0.8759,3.4787 -1.1767,5.2559 -0.2202,1.263 -0.3943,2.4839 -0.6483,3.6699 -0.128,0.5988 0.2235,1.066 0.7858,1.0434 0.5624,-0.023 1.1223,-0.5264 1.2505,-1.1253 0.2775,-1.2967 0.4541,-2.5478 0.6656,-3.7617 0.1512,-0.8699 0.3577,-1.5945 0.5522,-2.3479 0.2126,-0.02 0.4286,-0.044 0.6084,-0.1 0.4725,-0.1484 0.8576,-0.3533 1.1227,-0.4732 3.1745,-1.436 5.4454,-5.0838 5.9968,-8.4838 0.2811,-1.7322 0.2779,-3.653 -0.682,-5.0226 -0.6661,-0.9506 -1.7065,-1.3248 -2.7989,-1.3585 z m 13.5678,2.1048 c -0.07,0.3688 -0.08,0.6516 -0.2079,1.1368 -0.4884,1.862 -1.1451,3.662 -1.9351,5.3569 0.4152,-2.0316 0.9268,-4.0321 1.8022,-5.8826 0.1615,-0.3412 0.2134,-0.3783 0.3408,-0.6111 z m 5.073,-1.5714 c -0.3845,1.5591 -0.9874,4.0713 -1.8072,4.5188 0.073,-0.8782 1.0041,-3.523 1.8072,-4.5188 z m -34.991,3.1096 -0.01,3e-4 c -0.1659,-0.023 -0.3385,-0.02 -0.5053,0 v 5e-4 c -0.1667,0.025 -0.3275,0.072 -0.4702,0.1386 -0.5711,0.2648 -1.0158,0.68 -1.3478,1.2416 -1.4009,2.3704 -1.9871,4.9131 -2.5649,7.3521 -0.4891,2.0642 -0.7624,3.6188 -1.0706,5.7473 -0.3068,1.544 -0.2776,1.7671 -1.1646,2.4369 -0.7969,0.5136 -1.1896,0.7341 -1.4129,0.8633 -0.1733,0.1 -0.3355,0.1642 -0.4126,0.184 -0.627,0.032 -0.5739,-0.7331 -0.3943,-1.6458 0.2401,-1.9012 0.5376,-3.807 0.9104,-5.7125 0.043,0 0.095,0.018 0.1352,0.011 0.4834,-0.082 0.8522,-0.2713 1.0845,-0.3752 0.4961,-0.2221 1.0539,-0.5833 1.5139,-1.1573 0.413,-0.5152 0.4214,-1.1815 0.02,-1.4876 -0.4026,-0.3061 -1.0638,-0.1363 -1.4769,0.3789 -0.083,0.104 -0.2229,0.2125 -0.4218,0.3015 -0.1381,0.062 -0.1864,0.073 -0.2798,0.1083 l 0.01,-0.022 c 0.2849,-0.8524 0.4982,-1.7054 0.7154,-2.56 0.1082,-0.421 0.2817,-1.0613 0.5923,-2.1444 0.1716,-0.5987 -0.1143,-1.1115 -0.6618,-1.1466 -0.5471,-0.034 -1.1379,0.4213 -1.3199,1.0195 -0.8231,2.915 -0.3267,1.1329 -1.0418,3.6421 -0.055,0.1929 -0.194,0.5661 -0.3235,1.0398 2e-4,0.011 -0.01,0.029 -0.01,0.041 -0.3562,0.1246 -0.6371,0.5133 -0.8039,0.8753 -0.09,0.2318 -0.1063,0.4574 -0.062,0.6513 0.057,0.267 0.2075,0.325 0.3543,0.3905 0,0.067 -0.015,0.3028 -0.059,0.5293 l -0.4337,2.9924 c -0.3597,2.8508 -0.5063,2.778 -2.2326,4.3238 -0.3322,0.2975 -0.472,0.4429 -0.6426,0.5207 -0.02,-0.097 -0.049,-0.1826 -0.053,-0.3146 -0.021,-0.8627 0.2252,-1.9433 0.5899,-3.1335 0.1777,-0.58 0.3001,-1.0376 0.4617,-1.6152 0.2984,-0.8668 0.3558,-1.0442 0.6496,-1.8409 0.2246,-0.6094 0.1601,-1.1795 -0.3277,-1.3564 -0.4883,-0.1773 -1.2519,0.4059 -1.4409,0.7168 -0.2579,0.2865 -0.5492,0.5666 -0.9144,0.7762 -0.3931,0.2205 -0.6562,0.4354 -0.7331,0.4818 -0.081,0.049 -0.085,0.051 -0.1543,0.094 -0.02,-0.1916 -0.058,-0.3096 -0.042,-0.605 0.018,-0.3027 0.2418,-0.7831 0.5092,-1.5248 h -1e-4 c 0.046,-0.1259 0.088,-0.2552 0.1262,-0.3872 0.1742,-0.5984 -0.1299,-1.1052 -0.6796,-1.1323 -0.5498,-0.027 -1.1363,0.4367 -1.3106,1.0353 -0.02,0.072 -0.047,0.1477 -0.074,0.2246 v 0 c -0.1791,0.4969 -0.6023,1.2577 -0.6569,2.2256 -0.025,0.4528 -0.02,1.0415 0.1592,1.6181 -0.3154,0.5973 -0.5585,0.9967 -0.7799,1.35 0.2022,-1.139 0.2704,-2.2548 0.1445,-3.2622 -0.076,-0.6055 -0.2725,-1.1826 -0.675,-1.6283 -0.3631,-0.4022 -1.0131,-0.6251 -1.7532,-0.47 -0.113,0.034 -0.1565,0.047 -0.2851,0.091 -0.3866,0.1179 -0.7654,0.2815 -1.0519,0.5526 -0.6425,0.6075 -0.9042,1.3177 -1.0655,1.8272 -0.1545,0.4884 -0.2594,0.8516 -0.3491,1.0336 -0.015,0 -0.048,0.023 -0.1726,0.092 -0.2774,0.154 -0.9298,0.499 -1.3418,1.2264 -0.8481,1.4975 -0.9733,3.0106 -1.0657,4.2737 -0.086,1.1704 -0.01,2.7124 1.2681,3.3124 0.9622,0.4539 2.1952,0.022 3.1204,-0.7069 0.9251,-0.7282 1.6845,-1.7795 1.9942,-2.9561 0.02,-0.072 0.1392,-0.2889 0.1836,-0.374 0.6319,-0.1463 1.2571,-0.4185 1.7914,-0.8982 1.0134,-0.9094 1.4017,-1.8946 1.7472,-2.6393 0.038,-0.014 0.094,-0.01 0.128,-0.023 0.4149,-0.1744 0.6495,-0.3553 0.8084,-0.462 -0.043,0.138 -0.083,0.1736 -0.1141,0.3464 -0.2173,1.2053 -0.8228,2.7106 -0.7808,4.3512 0.017,0.3657 0.05,0.7813 0.2396,1.1882 0.1895,0.407 0.6427,0.8468 1.326,0.8032 1.1577,-0.074 2.157,-0.9352 2.813,-1.8916 0.1709,-0.2494 0.2542,-0.3055 0.3931,-0.4896 0.086,0.5396 0.2888,0.9857 0.5538,1.271 0.3825,0.4112 1.0003,0.4809 1.4806,0.384 0.4802,-0.097 0.8755,-0.3038 1.1946,-0.4884 0.5267,-0.3048 0.8962,-0.65 1.1905,-0.9635 -0.01,0.029 -0.01,0.033 -0.01,0.061 -0.069,0.2636 -0.1501,0.5069 -0.2463,0.7185 -0.2667,0.5854 -0.067,1.1651 0.4445,1.2944 0.5122,0.1295 1.1435,-0.241 1.4093,-0.8269 0.1825,-0.4017 0.3204,-0.7943 0.405,-1.1659 0.3738,-1.6407 0.5545,-2.726 0.7311,-4.0208 0.429,-0.2796 1.1804,-0.701 1.7501,-1.7223 0.7482,-1.3415 1.2599,-2.5106 1.8341,-3.2732 -0.6134,2.042 -1.7523,4.3852 -1.7904,6.8975 0,0.2843 -0.017,0.6758 0.07,1.095 0.086,0.4194 0.3155,0.9714 0.9353,1.1393 1.0449,0.2827 2.0836,-0.4271 2.737,-1.0011 1.2973,-1.1404 1.8327,-2.5959 2.3349,-3.6597 0.4905,-1.039 0.9603,-2.1114 1.3497,-3.2217 0.209,-0.5959 -0.057,-1.1312 -0.5956,-1.196 -0.5375,-0.065 -1.1421,0.3647 -1.3515,0.96 -0.3446,0.9823 -0.7719,1.9656 -1.2377,2.9524 -0.5497,1.1641 -1.023,2.1729 -1.5844,2.6663 -0.2888,0.2539 -0.4432,0.2933 -0.5423,0.3166 -0.02,-0.1428 -0.032,-0.3455 -0.029,-0.5807 h 10e-5 c 0.029,-1.8534 0.9988,-3.9439 1.6946,-6.269 0.1647,-0.5507 0.6668,-1.7082 0.05,-2.6317 -0.1978,-0.2966 -0.6062,-0.4807 -0.9767,-0.4589 -0.3704,0.022 -0.6638,0.1656 -0.9014,0.3039 -0.306,0.1783 -0.4683,0.349 -0.6656,0.5244 0.6981,-1.4335 1.2359,-2.8936 1.6438,-4.2707 0.179,-0.6047 0.3627,-1.5917 0.087,-2.8055 -0.1806,-0.29 -0.4809,-0.4115 -0.8174,-0.4813 z m -1.0095,2.3618 c -0.094,0.2656 -0.2281,2.2748 -1.3658,4.1919 -0.1779,-0.5826 1.0855,-3.7379 1.3658,-4.1919 z m 31.684,0.9144 h 10e-5 3e-4 c 0.011,0.08 -0.116,0.6212 -0.2691,1.3978 v 0 c -0.2903,1.477 -0.5244,2.7971 -0.7379,3.9683 -0.3659,2.4888 -0.3551,2.4954 -2.6081,4.0493 -0.1917,-0.6408 -0.2805,-1.3182 -0.1624,-1.8567 l 0.088,-1.8142 c 0.094,-0.059 -0.066,0.034 0.1287,-0.076 0.2709,-0.165 0.904,-0.4634 1.377,-1.2154 1.2235,-1.9462 1.9782,-4.0364 2.1257,-4.3712 0.036,-0.084 0.055,-0.1078 0.057,-0.081 z m -57.5972,1.2042 c -0.097,0 -0.1935,0.014 -0.2887,0.03 0,-2e-4 0,0 0,0 h -0.01 c -0.1252,0.022 -0.2487,0.051 -0.3673,0.087 -0.4821,0.1407 -0.979,0.3966 -1.4529,0.8107 -0.4738,0.4143 -0.8543,0.9428 -1.2693,1.5933 -0.4148,0.6506 -0.9558,1.5718 -1.6188,2.9533 -0.1032,0.2147 -0.2503,0.6255 -0.3593,0.8627 0.01,-1.0389 -0.03,-2.2434 -0.4744,-3.1798 -0.4634,-0.9762 -1.3062,-1.2545 -2.0321,-1.2202 v -5e-4 c -0.726,0.035 -1.419,0.3366 -2.0069,0.6904 -0.5879,0.3539 -1.1141,0.7962 -1.6273,1.3189 -0.5135,0.5225 -1.0791,1.1723 -1.5566,1.9831 -0.4773,0.8109 -0.7626,1.6134 -0.9774,2.2234 -0.2149,0.61 -0.4231,1.2199 -0.5605,1.9184 -0.1379,0.6986 -0.1964,1.4449 -0.131,2.1822 0.065,0.7372 0.237,1.5066 0.7117,2.036 0.4748,0.5295 1.0637,0.6049 1.5056,0.6477 0.4418,0.043 0.8296,0.042 1.1906,-0.028 0.3614,-0.071 0.7525,-0.3283 0.8588,-0.412 0.4827,-0.3813 0.7407,-1.1449 0.5765,-1.706 -0.1647,-0.5593 -0.688,-0.7053 -1.1703,-0.3264 -0.011,0.01 -0.01,0.01 -0.015,0.014 -0.01,0 -0.01,0 -0.025,0 -0.1109,0.02 -0.4526,0.041 -0.8051,0.01 -0.3524,-0.034 -0.6223,-0.1291 -0.7257,-0.2444 -0.1034,-0.1154 -0.2295,-0.4653 -0.2665,-0.8877 -0.036,-0.4226 0,-0.8778 0.081,-1.2914 0.082,-0.4133 0.2149,-0.8254 0.418,-1.4022 0.2033,-0.5771 0.4143,-1.1258 0.6723,-1.5639 0.2579,-0.4384 0.6675,-0.9349 1.0685,-1.3433 0.4011,-0.4082 0.7267,-0.6792 1.1293,-0.9215 0.4029,-0.2424 0.8371,-0.4185 1.2263,-0.437 0.3892,-0.018 0.6492,0.075 0.8215,0.4377 0.1722,0.3632 0.2968,1.4002 0.2867,2.2575 -0.01,0.8573 -0.083,1.3875 -0.5574,3.2947 -0.4793,1.9083 -1.3556,5.0535 -1.8041,6.7028 -0.1124,0.4124 -0.1977,0.7293 -0.259,0.9681 -0.032,0.1193 -0.055,0.2194 -0.076,0.3122 -0.02,0.092 -0.05,0.061 -0.065,0.4307 0,0.046 -0.01,0.1041 0,0.1878 0.01,0.041 0.022,0.1503 0.022,0.1509 10e-5,4e-4 0.062,0.2126 0.062,0.2129 0,0 0.1686,0.2546 0.1688,0.2547 4e-4,3e-4 0.3302,0.166 0.3303,0.1661 4e-4,0 0.3812,-0.052 0.3815,-0.052 3e-4,-10e-5 0.2726,-0.1666 0.2731,-0.1671 0,-3e-4 0.1606,-0.1558 0.1611,-0.1561 0,0 0.072,-0.083 0.097,-0.1177 0.051,-0.069 0.08,-0.1176 0.1035,-0.1572 0.047,-0.079 0.066,-0.1248 0.084,-0.163 0.072,-0.1531 0.09,-0.2101 0.123,-0.3029 0.069,-0.1858 0.1531,-0.4275 0.2672,-0.7621 0.4559,-1.3385 1.3593,-4.0758 2.1809,-6.3033 0.8216,-2.2273 1.5714,-3.9728 2.173,-5.2262 0.6015,-1.2535 1.0498,-2.0105 1.4045,-2.5668 0.3545,-0.5561 0.5245,-0.7639 0.6967,-0.9144 0.1725,-0.1507 0.417,-0.2908 0.6685,-0.3644 0.2514,-0.074 0.422,-0.035 0.4394,-0.021 0.017,0.012 0.06,-0.053 0.05,0.4348 -0.01,0.4878 -0.1592,1.4809 -0.5154,3.2107 -0.3561,1.7298 -0.9046,4.1935 -1.2581,5.9744 -0.3533,1.7807 -0.5184,2.8764 -0.5357,3.7589 -0.017,0.8823 0.157,1.551 0.4076,1.963 0.2508,0.412 0.5554,0.6207 0.7831,0.7344 0.2271,0.1135 0.4555,0.147 0.5608,0.1584 0.4803,0.053 1.0105,-0.4531 1.1833,-1.1302 0.1737,-0.6772 -0.075,-1.2691 -0.5564,-1.3211 -0.1054,-0.011 -0.085,0 -0.1655,-0.043 -0.08,-0.041 -0.1822,-0.1154 -0.2506,-0.2278 -0.069,-0.1123 -0.1255,-0.2054 -0.1155,-0.7252 0.01,-0.5197 0.1316,-1.468 0.4697,-3.1717 0.338,-1.7036 0.888,-4.1658 1.2548,-5.9487 0.3672,-1.7828 0.5658,-2.889 0.5844,-3.8232 0.019,-0.9342 -0.233,-1.7457 -0.7235,-2.0896 -0.2761,-0.1934 -0.5719,-0.2548 -0.8637,-0.2463 z m 60.5613,-1.3274 c -0.1124,0.1994 -1.7011,3.4592 -1.7967,3.6538 0.033,-0.1342 0.5363,-3.5932 0.5786,-3.7236 0.5353,0.3282 0.8357,0.1695 1.2181,0.07 z m -11.3948,2.6125 c 0.01,0 0.02,0.02 0.082,0.044 0.1276,0.048 0.315,0.2457 0.3691,0.4914 0.2359,1.0717 0.065,2.3763 -0.2427,3.6934 -0.076,-0.051 -0.1658,-0.073 -0.2283,-0.151 -0.384,-0.4777 0.036,-0.995 -0.7527,-2.218 0.1532,-0.4041 0.3329,-0.8453 0.4179,-1.1263 0.1311,-0.4326 0.2374,-0.6174 0.3029,-0.6808 0.043,-0.041 0.045,-0.054 0.051,-0.053 z m -2.4618,3.9169 v 0 c 0.085,0.5231 0.1952,1.1611 0.6995,1.7884 0.2698,0.3356 0.6431,0.5227 1.0309,0.6695 -0.2154,0.8239 -0.7845,1.5257 -1.2959,1.7767 -0.2247,0.1103 -0.4508,0.168 -0.5881,0.1685 -0.1372,0 -0.1803,-0.015 -0.2441,-0.1016 -0.392,-0.5233 -0.3364,-1.7129 -0.051,-2.9076 0.1561,-0.6465 0.2949,-1.0154 0.4455,-1.3939 z m -23.6965,2.5548 c 0.1031,-0.3581 0.6389,-3.3158 0.8461,-3.3924 0.2737,-0.1011 0.269,-0.1023 0.5258,-0.1918 0.4057,-0.1416 0.8752,-0.4281 0.8751,-0.3826 0,0.3115 -2.354,3.94 -2.247,3.9668 z m -16.9522,-0.3958 c 0.01,0.01 0.02,0.014 0.032,0.019 0.051,-0.018 0.038,-0.039 0.1584,0.095 0.1206,0.1336 0.2507,0.439 0.2895,0.7494 0.1359,1.0907 0.051,2.2495 -0.2526,3.3064 -0.107,-0.067 -0.2792,-0.072 -0.3524,-0.1688 -0.13,-0.1712 -0.2128,-0.5096 -0.3073,-1.0029 -0.062,-0.3226 -0.1776,-0.7082 -0.3579,-1.0857 0.2404,-0.5225 0.3844,-1.008 0.4858,-1.3279 0.118,-0.3729 0.2028,-0.5074 0.2592,-0.5607 -3e-4,0 -0.023,0.028 -0.1105,0.042 0.052,-0.018 0.1046,-0.039 0.1556,-0.065 v -2e-4 z m -2.5255,3.8195 h 2e-4 c 0.015,0.052 0.027,0.049 0.038,0.1078 0.09,0.4671 0.1737,1.1119 0.5964,1.6691 0.3139,0.4137 0.7284,0.6458 1.1663,0.809 -0.034,0.101 -0.081,0.1533 -0.1102,0.264 -0.1306,0.4956 -0.5274,1.0566 -0.9425,1.3835 -0.4154,0.327 -0.7066,0.3924 -0.9215,0.2909 -0.2836,-0.1338 -0.4879,-0.8547 -0.4264,-1.6959 0.078,-1.0567 0.259,-2.052 0.5999,-2.8284 z" /></g></svg>
