<?xml version="1.0" encoding="UTF-8" standalone="no"?>
<svg
   width="288.41846"
   height="197.93164"
   viewBox="0 0 76.310715 52.369415"
   version="1.1"
   id="svg16"
   xml:space="preserve"
   xmlns="http://www.w3.org/2000/svg"
   xmlns:svg="http://www.w3.org/2000/svg"
   xmlns:rdf="http://www.w3.org/1999/02/22-rdf-syntax-ns#"
   xmlns:cc="http://creativecommons.org/ns#"
   xmlns:dc="http://purl.org/dc/elements/1.1/"><defs
     id="defs10" /><metadata
     id="metadata13"><rdf:RDF><cc:Work
         rdf:about=""><dc:format>image/svg+xml</dc:format><dc:type
           rdf:resource="http://purl.org/dc/dcmitype/StillImage" /></cc:Work></rdf:RDF></metadata><g
     id="layer1"
     transform="translate(2121.754,-7427.8245)"><path
       id="path3007"
       style="font-size:20.9535px;line-height:1.25;font-family:COCOGOOSE;-inkscape-font-specification:'COCOGOOSE, Normal';fill:#d40000;fill-opacity:1;stroke:none;stroke-width:1.17727"
       d="m -2086.7792,7427.8284 c -0.2511,0 -0.4709,0.079 -0.6593,0.2357 -0.1882,0.157 -0.314,0.3768 -0.3769,0.6594 v 18.8596 c -2.0093,-3.2178 -3.9947,-6.3887 -5.9568,-9.5124 -1.9622,-3.1236 -3.9401,-6.2942 -5.9335,-9.5121 -0.1727,-0.2674 -0.377,-0.4559 -0.6123,-0.5653 -0.2356,-0.1093 -0.463,-0.1639 -0.6827,-0.1639 h -7.6996 c -0.3454,0 -0.6043,0.1021 -0.777,0.3061 -0.1725,0.2041 -0.259,0.4473 -0.259,0.7298 v 24.2914 c 0.1929,-0.1554 0.3929,-0.2977 0.6012,-0.4247 0.261,-0.1592 0.6459,-0.3513 0.9378,-0.4677 0.4294,-0.1714 0.7659,-0.2242 1.4261,-0.2245 1.102,0 1.9144,0.2175 2.6766,0.7186 0.4154,0.273 0.8355,0.6596 1.1305,1.0409 0.8978,1.1605 1.2609,2.818 0.9122,4.1617 -0.1078,0.4159 -0.3,0.7968 -0.5731,1.1361 -0.7654,0.9508 -2.1666,1.5778 -4.2934,1.9214 -0.3987,0.064 -0.7618,0.1107 -1.5061,0.192 -0.4228,0.046 -0.448,0.05 -0.4512,0.065 -0.01,0.037 -0.043,0.3583 -0.05,0.4655 -0.014,0.207 -0.01,0.6461 -0.01,1.0369 0.072,0.01 0.1481,0.016 0.2301,0.016 h 6.6869 c 0.4082,0 0.6907,-0.086 0.8477,-0.2588 0.157,-0.1727 0.2357,-0.4318 0.2357,-0.7772 v -20.2257 c 2.1033,3.4533 4.1753,6.8677 6.2159,10.2426 2.0406,3.3748 4.1048,6.7889 6.1925,10.2422 0.1728,0.2357 0.3373,0.4241 0.4942,0.5649 0.157,0.1409 0.3377,0.2114 0.5418,0.2114 h 7.511 c 0.3296,0 0.5885,-0.07 0.7768,-0.2114 0.1884,-0.1568 0.2824,-0.3921 0.2824,-0.7061 v -33.0111 c 0,-0.3296 -0.1095,-0.5806 -0.3292,-0.7532 -0.2197,-0.1885 -0.4946,-0.2828 -0.8242,-0.2828 z m 14.0528,0 c -0.3454,0 -0.6043,0.102 -0.777,0.3061 -0.1726,0.1885 -0.259,0.4476 -0.259,0.7772 v 32.8692 c 0,0.3454 0.094,0.6045 0.2825,0.7773 0.1794,0.1494 0.4198,0.2227 0.7133,0.2298 0.5334,-0.5541 1.1807,-0.9514 1.8715,-1.1032 0.2175,-0.048 0.4158,-0.069 0.6432,-0.069 0.359,0 0.6677,0.057 0.9843,0.1834 0.3397,0.1351 0.6027,0.3121 0.9122,0.6136 0.1398,0.1361 0.2338,0.257 0.3094,0.3806 h 1.6493 c 0.056,-1.0848 0.1143,-2.2805 0.1672,-3.2334 0.087,-1.5624 0.1263,-2.3671 0.1373,-2.7982 v -0.089 l -0.1626,-0.01 c -0.09,0 -0.4453,-0.01 -0.7907,-0.011 -1.5053,-0.014 -2.1835,0.037 -2.4631,0.1841 -0.074,0.039 -0.1242,0.1006 -0.1994,0.2459 -0.093,0.1792 -0.1584,0.2747 -0.2558,0.3727 -0.1788,0.1796 -0.3808,0.2717 -0.6937,0.3163 -0.6825,0.097 -1.2684,-0.033 -1.5896,-0.3516 -0.2845,-0.2827 -0.3528,-0.6473 -0.2044,-1.0933 0.1761,-0.5299 0.6889,-1.057 1.3503,-1.3885 0.5198,-0.2605 0.9109,-0.3741 1.4201,-0.4132 0.7666,-0.059 2.6315,-0.023 3.4918,0.066 0.1,0.01 0.1846,0.019 0.188,0.019 0.01,0 0.01,-0.1474 0.01,-0.3276 0,-0.7248 0.034,-1.3423 0.085,-1.5597 0.044,-0.1875 0.1269,-0.3369 0.2676,-0.4832 0.2269,-0.2361 0.5571,-0.391 0.9922,-0.48 v -1.1891 h 7.1344 c 1.6011,-0.016 3.0608,-0.3454 4.3792,-0.9889 1.3187,-0.6594 2.449,-1.5148 3.3907,-2.5664 0.9419,-1.0517 1.6639,-2.2525 2.1661,-3.6024 0.5182,-1.3499 0.7772,-2.7314 0.7772,-4.1442 0,-0.9574 -0.1176,-1.8993 -0.3531,-2.8255 -0.2354,-0.9419 -0.581,-1.8364 -1.0364,-2.684 -0.4394,-0.8477 -0.9809,-1.6326 -1.6245,-2.3547 -0.6435,-0.7377 -1.3657,-1.3657 -2.1662,-1.8837 -0.8005,-0.5336 -1.6796,-0.9497 -2.6372,-1.2479 -0.9575,-0.2983 -1.9777,-0.4474 -3.0608,-0.4474 z m 8.0761,7.4642 h 4.9916 c 0.565,0 1.0675,0.1175 1.5071,0.3528 0.4551,0.2356 0.8396,0.5419 1.1534,0.9185 0.3141,0.3611 0.5496,0.7771 0.7065,1.248 0.1727,0.4709 0.2591,0.9417 0.2591,1.4126 0,0.5022 -0.086,0.9889 -0.2591,1.46 -0.1569,0.4709 -0.3924,0.8867 -0.7065,1.2476 -0.2981,0.3611 -0.6748,0.6594 -1.1301,0.8948 -0.4551,0.2198 -0.9654,0.3298 -1.5304,0.3298 h -4.9916 z m -41.0886,19.1105 c -0.2014,0.045 -0.4003,0.1462 -0.6084,0.3107 -0.095,0.076 -0.3491,0.3275 -0.4413,0.4385 -0.2882,0.3468 -0.6031,0.8477 -0.8144,1.2963 -0.2995,0.6351 -0.6362,1.5419 -0.8557,2.3044 -0.043,0.1488 -0.1132,0.4157 -0.1132,0.4293 0,0.01 0.011,0.01 0.2031,-0.019 0,0 0,-2e-4 0,-3e-4 h 3e-4 c 0.5852,-0.074 1.5014,-0.2161 1.8271,-0.2838 0.7966,-0.1654 1.5833,-0.4671 2.0087,-0.7703 0.098,-0.07 0.2366,-0.2114 0.2996,-0.3065 0.1247,-0.188 0.2067,-0.4183 0.2469,-0.6935 0.023,-0.1574 0.025,-0.4626 0.01,-0.6351 -0.077,-0.6374 -0.3561,-1.2418 -0.7601,-1.6457 -0.2226,-0.2225 -0.4485,-0.3648 -0.663,-0.418 -0.08,-0.02 -0.2621,-0.023 -0.3378,-0.01 z" /><path
       style="fill:#ffffff;fill-opacity:1;stroke:none;stroke-width:1.17446;stroke-dasharray:none;stroke-opacity:1;paint-order:stroke fill markers"
       d="m -2064.5317,7479.8137 c -1.0284,-0.9606 -1.4873,-3.5601 -1.5009,-8.5002 -0.011,-2.112 -0.038,-2.6201 -0.1538,-2.4386 -1.7013,2.6549 -2.4525,3.5092 -3.5115,3.9941 -0.5086,0.2329 -0.797,0.2901 -1.2221,0.242 -0.6953,-0.078 -1.0906,-0.3622 -1.6274,-1.1691 l -0.4213,-0.633 -0.6327,1.145 c -1.5289,2.7673 -2.8094,4.0077 -4.1455,4.0157 -0.5396,0 -1.2103,-0.4204 -1.4663,-0.9262 -0.3406,-0.6724 -0.2212,-2.2112 0.3551,-4.5794 0.5824,-2.3946 0.735,-3.5572 0.519,-3.9608 -0.2144,-0.4003 -0.489,-0.3283 -1.0735,0.2817 -0.6634,0.6924 -1.37,2.1373 -2.0432,4.1778 -0.3719,1.1278 -0.6028,1.6404 -0.7952,1.7665 -0.3853,0.2525 -1.5227,0.3449 -2.0606,0.1673 -0.5866,-0.1935 -0.6962,-0.422 -0.5648,-1.1777 0.059,-0.3382 0.1645,-1.3609 0.2349,-2.2727 0.2145,-2.7725 0.152,-4.1969 -0.1837,-4.1969 -0.289,0 -1.0816,2.1669 -1.7808,4.8685 -0.607,2.3442 -0.565,2.2564 -1.1494,2.4136 -0.708,0.1906 -2.0052,0.096 -2.2673,-0.1667 -0.1819,-0.1819 -0.2036,-0.5172 -0.1818,-2.7982 l 0.025,-2.5916 h -0.5006 c -0.2755,0 -0.7148,-0.1037 -0.9767,-0.23 l -0.476,-0.23 0.011,0.9387 c 0,0.5163 -0.057,1.1658 -0.1339,1.4433 -0.2895,1.0433 -1.1921,2.0149 -2.1078,2.2694 -1.3558,0.3765 -3.0034,-0.2287 -3.768,-1.3842 l -0.3314,-0.5007 -0.3886,0.7264 c -1.054,1.9699 -2.5902,3.8002 -3.9569,4.7143 -1.2053,0.8061 -1.9753,1.0614 -3.2078,1.0635 -0.82,0 -1.1076,-0.055 -1.709,-0.3367 -1.9748,-0.9249 -3.5774,-3.6695 -4.3255,-7.4078 -0.4102,-2.0504 -0.6037,-4.2871 -0.5268,-6.0888 0.048,-1.1102 0.026,-1.5098 -0.08,-1.5098 -0.08,0 -0.8364,0.084 -1.6818,0.1875 -4.3662,0.5327 -6.0553,1.6028 -6.6084,4.1867 -0.073,0.3391 -0.1793,0.5059 -0.3436,0.5372 -0.3914,0.075 -0.539,-0.2679 -0.4255,-0.9872 0.3158,-1.9973 1.8677,-3.3895 4.5821,-4.1113 0.947,-0.2516 3.7995,-0.6758 4.546,-0.6758 0.1544,0 0.244,-0.182 0.3485,-0.7087 0.6551,-3.2968 1.9291,-5.425 3.7987,-6.3453 0.7245,-0.3568 0.9313,-0.402 1.8067,-0.3955 1.1967,0.011 2.0606,0.3556 2.8805,1.1564 1.0153,0.9918 1.4956,2.7091 1.1335,4.0535 -0.4023,1.4941 -2.1425,2.3768 -5.391,2.7344 l -1.3797,0.152 -0.086,0.6862 c -0.1477,1.1821 0.032,4.77 0.3156,6.3088 0.3019,1.6368 0.9498,3.6671 1.4987,4.6973 0.8477,1.5903 1.9467,2.4004 3.1241,2.3027 0.3474,-0.028 0.8875,-0.1765 1.2007,-0.3279 0.7157,-0.3464 1.9754,-1.5983 2.7785,-2.7607 0.8358,-1.21 1.8773,-3.1852 1.8773,-3.5603 0,-0.5743 0.3674,-1.545 0.7983,-2.1093 0.6345,-0.8313 1.5697,-1.255 2.7723,-1.2563 1.0567,0 1.4883,0.1765 2.8386,1.1678 1.2931,0.9493 2.1002,1.0352 2.2186,0.2358 0.083,-0.5605 0.4764,-0.759 1.3665,-0.6887 0.7713,0.061 1.3944,0.3308 1.5258,0.6619 0.048,0.1212 0.083,0.8027 0.08,1.5145 l -0.011,1.2941 0.529,-1.4791 c 0.6419,-1.7951 1.0591,-2.6286 1.6328,-3.2637 0.788,-0.8723 1.8143,-0.9407 2.5827,-0.1724 0.5808,0.5809 0.8124,1.4236 0.8859,3.2237 l 0.061,1.5131 0.4871,-0.8351 c 0.6206,-1.0648 0.8837,-1.3432 1.6261,-1.7208 1.6713,-0.8508 3.6255,-0.269 4.0205,1.1966 0.1988,0.7379 0.1026,1.4456 -0.5675,4.1411 -0.5452,2.195 -0.6322,2.9978 -0.3354,3.095 0.2117,0.069 1.2823,-1.5136 2.0853,-3.0835 l 0.6953,-1.3591 -0.1382,-0.8365 c -0.3365,-2.0374 -0.079,-4.2276 0.6389,-5.4225 0.9893,-1.6482 2.8812,-2.1951 4.011,-1.1596 0.4142,0.3795 0.4502,0.4672 0.4502,1.094 0,0.6263 -0.04,0.7214 -0.4831,1.1762 -0.2657,0.2722 -0.7847,0.6493 -1.1531,0.8379 l -0.67,0.3431 0.079,1.2942 c 0.1863,3.0748 0.6633,4.2243 1.566,3.7742 0.4435,-0.2212 1.3241,-1.4044 2.2372,-3.0059 l 0.8358,-1.4663 0.1279,-2.5782 c 0.069,-1.4181 0.1968,-3.7985 0.281,-5.2898 0.084,-1.4914 0.1314,-2.7395 0.1048,-2.7734 -0.026,-0.033 -0.89,-0.061 -1.9181,-0.061 -2.07,0 -2.5084,0.1199 -2.8188,0.77 -0.1329,0.2787 -0.2543,0.3461 -0.6801,0.3771 -0.5993,0.043 -1.0208,-0.1394 -1.0202,-0.4427 0,-0.4687 0.5,-1.0295 1.2046,-1.3537 0.6287,-0.2892 0.8598,-0.3253 2.1229,-0.3304 0.7796,0 1.8197,0.035 2.3109,0.087 l 0.8937,0.093 v -1.0792 c 0,-0.5937 0.033,-1.1996 0.073,-1.3467 0.1436,-0.535 1.4965,-0.7474 2.2568,-0.3541 0.6463,0.3343 0.7496,0.6099 0.7496,2.0023 0,1.2104 0.011,1.2671 0.2773,1.327 0.4239,0.096 3.6038,0.6503 4.7144,0.8223 0.5425,0.083 2.1785,0.1559 3.6361,0.1601 2.6056,0.011 2.6613,0 3.3277,-0.3133 1.0941,-0.5175 1.5479,-1.0801 2.167,-2.6861 0.3149,-0.8177 0.4023,-0.9348 0.8485,-1.1374 0.9713,-0.4413 1.9147,-0.197 1.9147,0.4955 0,0.5621 -0.6817,1.7556 -1.4312,2.505 -1.2958,1.2958 -2.9308,1.8794 -5.6558,2.0183 -1.9067,0.098 -3.6706,-0.055 -7.2708,-0.6292 -1.4226,-0.2269 -2.5949,-0.4027 -2.6049,-0.3905 -0.045,0.055 -0.4312,7.6254 -0.5495,10.7448 -0.1332,3.5168 -0.082,6.4666 0.1504,8.5662 0.2371,2.1452 0.6404,2.5128 1.3775,1.2553 0.9113,-1.5552 2.2146,-4.8944 3.0999,-7.9418 l 0.4564,-1.5716 -0.3641,-0.4621 c -1.2486,-1.5844 -1.92,-4.265 -1.4627,-5.8384 0.2441,-0.8392 0.7701,-1.5831 1.3938,-1.9708 0.6673,-0.4148 1.9962,-0.4211 2.6531,-0.012 1.2276,0.7633 1.3784,2.8593 0.3861,5.3706 l -0.4316,1.0921 0.474,0.4874 c 0.2606,0.268 1.1571,1.0122 1.9922,1.6537 l 1.5184,1.1666 0.4771,-0.378 c 1.0048,-0.7957 1.6826,-1.6898 2.0864,-2.7518 0.097,-0.2545 0.2011,-0.3352 0.3959,-0.3063 0.515,0.078 0.5428,0.3751 0.1187,1.281 -0.2979,0.6369 -0.6357,1.0783 -1.3753,1.7983 -0.5393,0.525 -0.9802,0.995 -0.9802,1.0446 0,0.049 0.1059,0.2047 0.2356,0.3448 0.7882,0.8504 1.2415,2.6103 1.0105,3.9221 -0.3562,2.0224 -1.9099,3.5458 -3.8196,3.7454 -0.8731,0.092 -1.4775,-0.088 -2.0776,-0.6145 -0.5565,-0.4885 -0.7721,-1.0059 -0.7721,-1.8516 0,-1.3617 0.5933,-2.6502 1.796,-3.8994 l 0.5341,-0.5547 -1.5616,-1.2544 -1.5616,-1.2543 -0.4624,1.5847 c -1.0601,3.6321 -2.5989,7.2312 -3.729,8.7216 -1.0441,1.3766 -2.3166,1.7941 -3.136,1.0286 z m 10.4606,-3.6627 c 0.5831,-0.5268 1.2386,-1.7915 1.3249,-2.5558 0.069,-0.6144 -0.1004,-1.2276 -0.4665,-1.6832 l -0.2473,-0.3081 -0.73,0.7806 c -0.9292,0.9931 -1.2534,1.6614 -1.3305,2.742 -0.1049,1.4695 0.4907,1.8907 1.4494,1.0245 z m -39.5876,-6.2147 c 0.4784,-0.4456 0.6627,-0.963 0.6627,-1.8604 0,-0.9537 -0.3249,-1.8041 -0.811,-2.1226 -0.2574,-0.1687 -0.3198,-0.1646 -0.6621,0.043 -1.1475,0.6979 -1.4879,2.9871 -0.5795,3.8955 0.3722,0.3721 1.0158,0.3924 1.3899,0.043 z m 23.9355,-5.3724 c 0.4558,-0.4116 0.6068,-0.7556 0.4156,-0.9467 -0.203,-0.203 -0.8975,0.5108 -1.0852,1.1153 -0.1251,0.403 0.099,0.3465 0.6696,-0.1686 z m 13.857,-0.6568 c 0.3909,-1.2371 0.5192,-2.4158 0.3266,-2.9992 -0.458,-1.3876 -1.2414,-0.4143 -1.2414,1.5421 0,0.9074 0.3493,2.4365 0.5565,2.4365 0.026,0 0.1881,-0.4407 0.3583,-0.9794 z m -50.8329,-4.3998 c 1.1165,-0.1901 2.2157,-0.6255 2.6963,-1.0679 1.1205,-1.0313 0.6825,-3.4918 -0.7826,-4.3973 -1.0412,-0.6437 -2.2021,0.028 -3.1901,1.8468 -0.4613,0.8491 -1.114,2.7024 -1.2304,3.4933 l -0.069,0.4737 0.7645,-0.084 c 0.4203,-0.047 1.2357,-0.1653 1.812,-0.2636 z"
       id="path3008" /></g></svg>
