<?xml version="1.0" encoding="UTF-8" standalone="no"?>
<svg
   width="418.90332"
   height="127.16212"
   viewBox="0 0 110.83483 33.644978"
   version="1.1"
   id="svg16"
   xml:space="preserve"
   xmlns="http://www.w3.org/2000/svg"
   xmlns:svg="http://www.w3.org/2000/svg"
   xmlns:rdf="http://www.w3.org/1999/02/22-rdf-syntax-ns#"
   xmlns:cc="http://creativecommons.org/ns#"
   xmlns:dc="http://purl.org/dc/elements/1.1/"><defs
     id="defs10" /><metadata
     id="metadata13"><rdf:RDF><cc:Work
         rdf:about=""><dc:format>image/svg+xml</dc:format><dc:type
           rdf:resource="http://purl.org/dc/dcmitype/StillImage" /></cc:Work></rdf:RDF></metadata><g
     id="layer1"
     transform="translate(1879.3438,-7424.447)"><path
       id="path3006"
       style="fill:#ffffff;fill-opacity:1;stroke:none;stroke-width:0;stroke-linejoin:round;paint-order:stroke fill markers"
       d="m -6990.4689,28065.014 1.8926,2.733 c -1.7253,-0.209 -3.6962,-0.288 -5.7637,-0.231 v 0 c -2.6309,0.07 -5.416,0.363 -8.039,0.885 -13.0537,2.587 -25.4059,8.488 -35.8574,17.127 -11.5525,9.55 -19.2366,21.142 -22.75,34.322 -0.8523,3.197 -1.5915,7.829 -1.6739,10.496 -0.359,11.548 4.5919,20.814 13.6114,25.475 3.3713,1.742 6.7753,2.737 11.9804,3.502 0.2986,0.04 2.4664,0.05 4.8184,0.04 3.7546,-0.05 4.5622,-0.117 6.6387,-0.541 5.529,-1.129 10.4814,-3.137 16.289,-6.604 5.0336,-3.004 11.0828,-7.851 13.7617,-11.025 4.486,-5.315 7.8937,-11.722 8.7891,-16.539 0.5053,-2.72 0.038,-5.172 -1.3535,-6.957 -1.694,-2.186 -3.6138,-3.02 -6.9024,-2.996 -4.3158,0.04 -7.0361,1.018 -8.4648,3.07 -0.3213,0.461 -0.9339,2.039 -1.7598,4.539 -1.4717,4.452 -1.6561,4.89 -2.8281,6.703 -1.9706,3.049 -6.7275,6.289 -11.9297,8.127 -6.5019,2.298 -15.2649,1.981 -19.334,-0.697 -0.5242,-0.344 -1.4635,-1.253 -2.0878,-2.018 -2.8925,-3.541 -2.7879,-8.236 0.3593,-16.222 2.513,-6.375 6.6939,-12.687 11.8457,-17.879 5.7551,-5.801 14.7942,-11.726 19.7129,-12.922 1.7715,-0.43 6.4409,-0.449 7.8574,-0.04 1.6532,0.489 2.1829,1.026 2.9883,3.027 0.8262,2.051 2.3558,4.172 3.6348,5.037 2.6351,1.784 5.9876,1.397 9.1133,-1.048 3.0172,-2.361 5.4227,-7.677 5.9023,-13.043 0.034,-0.377 0.061,-0.747 0.08,-1.112 l 2.3223,3.35 c 0,-0.01 0,-0.02 0.01,-0.03 v 0 l -2.3262,-3.356 c 0.2922,-5.672 -1.1576,-9.804 -3.9843,-11.238 -1.0923,-0.555 -2.7039,-0.953 -4.625,-1.188 v 0 l -1.8945,-2.736 v 0 c -0.01,0 -0.017,0 -0.025,0 z m 209.2891,11.309 v 0.03 c -1.2662,0 -2.4638,0.714 -4.4356,2.476 -1.72,1.537 -1.9541,1.815 -2.5078,2.997 -1.3421,2.863 -1.2193,2.804 -6.6641,3.156 -2.4068,0.155 -4.9472,0.359 -5.6464,0.457 -0.6989,0.09 -2.5823,0.265 -4.1836,0.375 -5.5605,0.383 -6.7898,0.695 -7.6973,1.947 -1.6838,2.325 0.2654,8.229 3.2754,9.926 l 0.7285,0.41 5.2148,-0.242 c 3.7883,-0.174 5.6357,-0.189 6.7461,-0.05 0.841,0.11 1.5753,0.25 1.6309,0.318 4e-4,0 0,0 0,0 v 0 c 0.027,0.121 -0.3726,1.087 -0.9082,2.196 -3.2466,6.724 -4.1923,9.094 -5.7559,14.412 -0.946,3.218 -1.043,3.378 -4.2617,7.136 -0.7857,0.918 -2.582,3.13 -3.9902,4.914 -3.8445,4.871 -6.968,8.224 -10.1953,10.94 -2.7863,2.345 -4.7561,3.678 -7.0586,4.775 -1.0764,0.513 -1.5771,0.629 -3.3399,0.785 -3.2957,0.291 -4.3392,0.249 -4.6933,-0.185 -0.1663,-0.204 -0.2884,-0.451 -0.2696,-0.551 0.038,-0.1 1.2507,-1.039 2.7383,-2.086 7.8346,-5.517 8.0645,-5.694 10.3828,-7.963 3.4114,-3.339 6.3241,-7.477 9.0098,-12.799 1.731,-3.43 2.3304,-5.22 2.4102,-7.203 0.1171,-2.949 -0.9972,-5.054 -3.7676,-7.109 -1.9869,-1.474 -3.2345,-2.052 -5.6836,-2.631 -1.7711,-0.418 -2.5692,-0.503 -4.7266,-0.502 -3.1922,0 -5.2883,0.47 -8.33,1.867 -3.9761,1.827 -5.3958,3.038 -9.627,8.2 -4.2663,5.204 -4.7319,6.013 -7.1875,12.515 -1.4661,3.881 -1.7742,4.876 -2.4141,7.787 -0.7268,3.31 -0.7391,3.345 -1.4297,4.141 -1.0499,1.21 -2.8813,2.665 -3.9902,3.172 -0.5435,0.249 -1.4261,0.488 -1.9609,0.531 -0.8621,0.07 -0.9955,0.04 -1.1758,-0.359 -0.1134,-0.254 -0.1356,-1.311 -0.045,-2.479 0.1738,-2.218 0.7889,-5.111 2.2539,-10.568 0.4921,-1.836 1.0374,-4.092 1.209,-5.014 0.17,-0.922 0.7845,-3.301 1.3593,-5.285 1.6736,-5.776 1.7915,-6.789 1.0489,-8.984 -0.5088,-1.505 -2.4947,-3.941 -3.7696,-4.625 -0.9377,-0.504 -1.0582,-0.522 -2.9804,-0.424 -3.7025,0.189 -5.7544,1.163 -10.0215,4.759 -3.4178,2.882 -5.9999,5.748 -8.8613,9.838 -3.2829,4.693 -3.5174,4.673 -2.9161,-0.246 0.3939,-3.225 0.385,-4.62 -0.039,-6.736 -0.7087,-3.548 -2.7062,-5.998 -5.7813,-7.09 -2.4075,-0.855 -5.2385,-0.732 -7.7148,0.336 -4.2501,1.832 -10.5101,7.715 -14.6094,13.729 -1.152,1.689 -2.2941,3.223 -2.5371,3.41 -0.4312,0.332 -0.4455,0.33 -0.5898,-0.09 -0.083,-0.235 -0.038,-1.555 0.1621,-2.936 0.3949,-3.19 0.4191,-4.52 0.1172,-6.562 -0.3137,-2.132 -0.6995,-3.048 -1.7657,-4.225 -1.782,-1.966 -4.0769,-2.621 -6.4179,-1.83 -1.9741,0.667 -6.3521,2.762 -6.8575,3.281 -0.6191,0.637 -0.6655,0.992 -0.6152,4.731 0.049,3.549 -0.1476,7.025 -0.5898,10.511 l -0.2911,2.297 -0.6699,0.262 c -1.5314,0.593 -4.5452,0.616 -6.5683,0.05 -0.6414,-0.182 -2.3422,-0.875 -2.5274,-1.033 -0.038,-0.04 -0.048,-0.702 -0.037,-1.498 0.038,-2.411 -0.2828,-4.674 -0.957,-6.912 -0.6357,-2.112 -0.6572,-2.147 -3.2246,-5.307 -1.4215,-1.75 -3.0413,-3.528 -3.5977,-3.951 -3.3354,-2.538 -7.7039,-4.006 -10.5469,-3.547 -2.5549,0.412 -6.1338,1.895 -8.7031,3.605 -6.4777,4.312 -12.6489,12.209 -15.8672,20.307 -0.8114,2.042 -1.007,2.763 -1.5879,5.852 -0.4921,2.647 -0.6569,3.937 -0.6425,5.191 0.075,6.673 2.0206,12.533 5.3261,16.057 2.4647,2.627 4.6962,4.076 6.8418,4.443 0.4936,0.09 2.1974,0.124 3.7852,0.09 7.0276,-0.163 11.191,-2.012 16.9336,-7.514 2.691,-2.579 6.3454,-8.495 8.1308,-13.164 0.3326,-0.867 0.6679,-1.712 0.7461,-1.879 0.1285,-0.272 0.3509,-0.246 2.1231,0.231 3.239,0.869 5.564,1.279 7.2519,1.279 h 1.5899 l -0.2383,0.604 c -0.1285,0.332 -0.7329,2.199 -1.3418,4.15 -0.6093,1.951 -1.3848,4.348 -1.7246,5.328 -1.3006,3.751 -1.4634,6.596 -0.4746,8.311 0.8969,1.554 1.9683,1.98 5.125,2.033 1.6603,0.04 1.8563,-0.04 3.5586,-0.69 2.2095,-0.879 3.3158,-1.521 4.2422,-2.468 1.2219,-1.25 3.7358,-5.278 7.0195,-11.243 5.3699,-9.755 5.6755,-10.274 8.3476,-14.183 2.0516,-3.001 2.6831,-3.812 3.0039,-3.858 0.731,-0.102 0.6695,0.685 -0.2871,3.672 -0.6784,2.119 -1.0942,3.909 -1.9589,8.438 l -1.0957,5.746 0.1171,2.689 c 0.1096,2.475 0.5516,5.025 1.4258,8.221 0.6675,2.438 2.8863,3.649 6.6817,3.643 3.1407,0 5.0519,-0.601 6.8925,-2.153 1.3747,-1.159 4.1935,-5.336 6.6192,-9.804 4.6514,-8.569 7.0907,-12.788 9.3535,-16.176 2.4627,-3.688 2.9567,-4.311 3.4141,-4.311 0.6054,0 0.5363,0.853 -0.2793,3.442 -1.0451,3.316 -2.5979,10.269 -2.8848,12.91 -0.325,2.994 -0.1332,6.513 0.5195,9.342 0.4702,2.048 0.6619,2.523 1.377,3.408 1.3549,1.676 3.5305,2.757 6.5508,3.26 1.4301,0.238 1.8357,0.238 3.2168,0 3.1623,-0.535 7.6767,-3.034 13.5429,-7.495 l 1.9414,-1.476 1.5059,1.883 c 3.2409,4.052 7.0518,6.067 12.5469,6.634 3.0946,0.318 7.1017,-0.15 9.9492,-1.162 2.7821,-0.991 6.7846,-2.844 9.0176,-4.172 2.6169,-1.556 7.8648,-5.898 9.8574,-8.158 0.7393,-0.838 1.3689,-1.493 1.3984,-1.457 0.038,0.04 0.1707,0.791 0.3106,1.678 l 0.2558,1.613 -0.7304,1.414 c -2.1018,4.071 -2.4762,8.381 -0.8789,10.116 0.3326,0.362 0.8792,0.696 1.2519,0.769 0.3704,0.07 1.8839,-0.04 3.4316,-0.201 3.5543,-0.422 3.4103,-0.425 5.3692,0.156 4.8801,1.451 11.192,0.369 14.9023,-2.549 0.9827,-0.773 2.7861,-2.598 4.5137,-4.57 l 0.959,-1.096 0.5254,1.155 c 1.8361,4.034 4.4563,6.605 7.1387,7.003 1.5322,0.227 4.6266,0.224 5.9355,-0.04 2.2462,-0.401 7.1237,-2.663 10.0098,-4.642 1.6429,-1.127 4.8738,-3.936 6.7031,-5.828 0.7888,-0.816 1.9257,-1.967 2.5293,-2.557 2.0557,-2.011 5.806,-6.52 11.3672,-13.668 3.0546,-3.926 6.0797,-7.791 6.7226,-8.59 0.6429,-0.798 1.2111,-1.675 1.2618,-1.947 0.1738,-0.933 0.1204,-3.609 -0.072,-3.906 -0.1096,-0.163 -0.8556,-1.305 -1.6621,-2.537 -0.8062,-1.233 -1.6612,-2.339 -1.9004,-2.457 -0.6592,-0.329 -1.8694,-0.26 -2.5996,0.14 -0.7204,0.4 -1.9268,1.897 -6.5918,8.17 -4.763,6.405 -8.7735,11.544 -9.2051,11.799 -0.223,0.132 -0.4937,0.169 -0.6094,0.09 v 0 c -0.1151,-0.116 -0.2299,-1.412 -0.252,-2.91 -0.06,-4.144 -0.392,-8.012 -0.9472,-11.114 -0.2722,-1.527 -0.6342,-4.153 -0.8028,-5.836 -0.3439,-3.428 -0.7082,-5.377 -1.2226,-6.533 -0.5057,-1.135 -1.7699,-2.723 -2.4903,-3.129 -1.1471,-0.646 -3.7664,-0.378 -5.875,0.604 -1.138,0.53 -2.299,1.48 -4.7968,3.93 -5.7691,5.654 -12.4865,13.258 -18.1524,20.546 -1.8731,2.41 -3.4075,4.177 -6.2539,7.202 -3.0697,3.262 -2.8767,3.238 -2.7305,0.324 0.2117,-4.191 0.8498,-7.671 2.5313,-13.766 2.4567,-8.897 3.9275,-13.333 5.75,-17.336 1.3289,-2.918 3.7161,-7.703 3.9531,-7.922 0.3628,-0.336 1.9358,-0.58 5.7422,-0.894 6.6746,-0.55 9.6946,-0.98 10.9316,-1.557 1.0371,-0.483 2.1099,-1.524 2.4161,-2.344 0.5261,-1.409 -0.3701,-6.513 -1.3399,-7.627 -0.9475,-1.087 -1.4907,-1.175 -4.2676,-0.695 -1.4774,0.257 -7.3194,0.821 -8.5293,0.828 -0.7135,0 -1.3923,-0.776 -1.9101,-2.193 -1.1781,-3.224 -2.7511,-5.498 -4.0996,-5.926 -0.4679,-0.147 -0.8966,-0.23 -1.3184,-0.23 z m -47.7305,39.509 0.9864,0.301 c 0.5661,0.174 1.1688,0.531 1.416,0.834 0.3666,0.45 0.4033,0.677 0.2461,1.524 -0.3957,2.13 -1.4221,3.847 -4.2364,7.097 -1.9445,2.246 -3.1548,3.368 -5.1289,4.744 -1.3659,0.953 -1.7545,1.101 -1.6679,0.635 0.038,-0.155 -0.038,-0.792 -0.1328,-1.42 -0.155,-0.95 -0.1162,-1.382 0.205,-2.576 0.46,-1.705 0.624,-2.04 2.3633,-4.812 2.0413,-3.253 3.3262,-4.728 5.0156,-5.758 z m -133.6152,6.329 c 0.2495,0 0.5029,0.965 0.7285,2.763 0.3402,2.713 1.0776,3.904 3.752,6.047 0.4554,0.363 0.3832,0.781 -0.6426,3.684 -1.4343,4.057 -2.5643,5.873 -4.8672,7.824 -0.7336,0.621 -1.8407,1.392 -2.4609,1.713 -1.1622,0.602 -1.4567,0.651 -2.4356,0.408 -1.2185,-0.302 -1.7799,-1.115 -2.2988,-3.322 -0.7211,-3.067 0.053,-7.605 1.918,-11.233 1.9336,-3.762 5.2306,-7.883 6.3066,-7.884 z m 198.7402,2.224 c 0,0 0.01,0 0.014,0 v 0 0 c 0.09,0.01 0.4635,0.341 0.8438,0.742 0.8111,0.854 1.232,2.344 1.4648,5.192 0.2154,2.647 0.1587,4.598 -0.2344,7.918 -0.4047,3.396 -0.6215,4.035 -1.7636,5.166 -0.3791,0.374 -0.9856,0.795 -1.3477,0.935 -1.9729,0.766 -4.1294,-0.21 -5.5195,-2.506 l -0.4336,-0.716 0.6035,-1.366 c 0.7438,-1.688 1.4758,-4.183 2.6055,-8.877 0.8606,-3.572 0.8795,-3.625 1.6093,-4.509 0.7529,-0.913 1.8747,-1.941 2.1543,-1.979 z"
       transform="scale(0.26458333)" /><path
       id="path3002"
       style="fill:#fcfcfc;fill-opacity:1;stroke:none;stroke-width:3.30372;stroke-linecap:round;stroke-linejoin:round;stroke-dasharray:none;stroke-opacity:1;paint-order:stroke fill markers"
       d="m -1879.3437,7437.5574 v 4.1563 h 9.0403 c 0.09,-0.6101 0.2191,-1.2382 0.3721,-1.8102 0.2135,-0.799 0.4819,-1.582 0.8025,-2.3461 z m 12.0044,0 c -0.114,0.255 -0.2102,0.5174 -0.311,0.7777 0.101,-0.2606 0.1989,-0.5225 0.3131,-0.7777 z m 83.2978,0 c 0.01,0.069 0.014,0.1407 0.021,0.2139 0.039,0.3825 0.1359,1.0901 0.1969,1.4243 0.01,0.014 0.01,0.031 0.01,0.044 0.4635,-0.6245 0.8545,-1.1434 1.1121,-1.4645 0.06,-0.075 0.1153,-0.1472 0.1705,-0.2181 z m 5.7774,0 c 0.029,0.043 0.058,0.086 0.087,0.1302 0.2113,0.3298 0.4241,0.6462 0.4341,0.6682 0.2536,0.3826 0.2033,0.4663 0.2243,0.5674 0.021,0.101 0.023,0.1715 0.033,0.2465 0.013,0.1407 0.014,0.2769 0.024,0.4176 0,0.1466 0.01,0.2682 0,0.4185 l 0.017,1.7079 h 8.9359 v -4.1563 z m -2.2303,0.5411 c 0,-2e-4 -0.01,6e-4 -0.01,5e-4 0.026,9e-4 0.052,0 0.077,0.01 -0.022,0 -0.045,0 -0.068,-0.01 z m -0.139,0 c -0.01,7e-4 -0.014,0 -0.021,0 0.01,-9e-4 0.014,0 0.021,0 z m 0.3824,0.05 c 0.01,0 0.018,0.012 0.031,0.024 -0.013,-0.012 -0.023,-0.02 -0.031,-0.024 z m -87.5725,0.615 c -0.1485,0.4181 -0.2808,0.8425 -0.3958,1.2738 0.1149,-0.4312 0.2473,-0.8557 0.3958,-1.2738 z m -11.5202,10.2195 v 4.1563 h 14.92 l -3.0861,-2.931 0.01,-0.01 c -0.4374,-0.3642 -0.8339,-0.7689 -1.1797,-1.2154 z m 100.7768,0 c -0.3175,0.4045 -0.773,0.9877 -1.217,1.5586 -0.8634,1.1105 -1.5307,1.9515 -2.0856,2.5977 h 13.3604 v -4.1563 z" /><path
       id="path2999"
       style="fill:#d30101;fill-opacity:1;stroke:none;stroke-width:3.30372;stroke-linecap:round;stroke-linejoin:round;stroke-dasharray:none;stroke-opacity:1;paint-order:stroke fill markers"
       d="m -1879.3437,7443.2718 v 4.1563 h 9.7286 c -0.5614,-1.2302 -0.8462,-2.6406 -0.8247,-4.1563 z m 10.6779,0 c 0,0.1033 0.018,0.199 0.023,0.3007 0,-0.099 -0.01,-0.1999 -0.01,-0.3007 z m 91.2368,0 0.03,3.0039 c 0.01,0.2639 0.03,0.431 -0.05,0.862 -0.023,0.1235 -0.046,0.2171 -0.069,0.2904 h 9.0082 v -4.1563 z m -91.1644,0.9255 c 0.02,0.1665 0.045,0.3293 0.073,0.4909 -0.029,-0.1613 -0.054,-0.3247 -0.073,-0.4909 z m 0.2005,1.0764 c 0.039,0.1514 0.08,0.3003 0.1276,0.4465 -0.047,-0.146 -0.089,-0.2953 -0.1276,-0.4465 z m 0.3312,0.9917 c 0.059,0.1412 0.1179,0.2812 0.185,0.4165 -0.067,-0.1351 -0.1264,-0.2755 -0.185,-0.4165 z m 0.4589,0.9054 c 0.051,0.084 0.09,0.1763 0.1442,0.2573 h 0.019 c -0.057,-0.084 -0.1105,-0.1702 -0.1633,-0.2573 z" /><path
       id="path2975"
       style="fill:#d40000;fill-opacity:1;stroke:none;stroke-width:0.439753px;stroke-linejoin:round;stroke-opacity:1"
       d="m -1849.7915,7424.4476 -0.022,10e-4 v 6e-4 c -0.1595,0 -0.322,0.01 -0.4868,0.01 l 1.247,1.7999 c 10e-5,0 3e-4,0 5e-4,0 0.5083,0.062 0.9347,0.1675 1.2237,0.3142 0.7479,0.3794 1.1315,1.4726 1.0542,2.9734 l 1.4025,2.0242 c -2e-4,0 0,0.01 0,0.01 l -1.403,-2.0247 c -0.01,0.096 -0.012,0.1944 -0.021,0.2941 -0.1269,1.4199 -0.7634,2.8264 -1.5617,3.4509 -0.827,0.6471 -1.714,0.7493 -2.4112,0.2775 -0.3384,-0.229 -0.7431,-0.79 -0.9617,-1.3327 -0.2131,-0.5294 -0.3533,-0.6716 -0.7907,-0.801 -0.3748,-0.1084 -1.6102,-0.1035 -2.0789,0.01 -1.3014,0.3165 -3.693,1.8841 -5.2157,3.4189 -1.3631,1.3738 -2.4693,3.0436 -3.1342,4.7304 -0.8327,2.1131 -0.8604,3.3552 -0.095,4.2923 0.1652,0.2023 0.4138,0.4428 0.5525,0.5338 1.0766,0.7086 3.3951,0.7924 5.1154,0.1845 1.3764,-0.4865 2.635,-1.3437 3.1564,-2.1503 0.3101,-0.4799 0.3589,-0.5957 0.7483,-1.7735 0.2185,-0.6615 0.3806,-1.0791 0.4656,-1.201 0.378,-0.5429 1.0977,-0.8023 2.2396,-0.8123 0.8701,-0.01 1.3781,0.2143 1.8263,0.7927 0.3681,0.4724 0.4918,1.1211 0.3581,1.8407 -0.2369,1.2746 -1.1385,2.9696 -2.3254,4.376 -0.7088,0.8398 -2.3094,2.1221 -3.6412,2.9171 -1.5366,0.9173 -2.8469,1.4486 -4.3098,1.7472 -0.5494,0.1123 -0.7631,0.1291 -1.7565,0.1431 -0.6223,0 -1.1958,0 -1.2748,-0.01 -1.3772,-0.2025 -2.2778,-0.4657 -3.1698,-0.9266 -2.3864,-1.2331 -3.6964,-3.6848 -3.6014,-6.7401 0.022,-0.7056 0.2174,-1.9314 0.4429,-2.7771 0.9296,-3.4873 2.9627,-6.5544 6.0193,-9.0811 2.7653,-2.2858 6.0334,-3.8471 9.4872,-4.5315 0.694,-0.138 1.4309,-0.2151 2.127,-0.2341 v 0 c 0.547,-0.015 1.0685,0.01 1.525,0.061 l -1.249,-1.803 c -0.7912,0.022 -1.6212,0.11 -2.4334,0.2683 -3.7809,0.752 -7.3891,2.4672 -10.4439,4.9914 -3.373,2.7924 -5.7051,6.3016 -6.7442,10.189 -0.274,1.0246 -0.4713,2.2293 -0.5044,3.1879 -0.064,2.1307 0.473,4.0615 1.5301,5.5873 0.3952,0.5704 0.87,1.0775 1.4061,1.5239 l -0.01,0.01 5.4255,5.1531 h 5e-4 c 0.7788,0.6933 1.6143,1.2768 2.5441,1.6237 0.9631,0.4968 2.0023,0.7956 3.3719,0.9979 0.2662,0.036 0.2342,0.017 0.3214,0.022 h 0.2982 c 0.2244,0 0.5102,3e-4 0.8056,0 0.9392,-0.013 1.3863,-0.053 1.9492,-0.1716 1.5584,-0.3166 3.0379,-0.919 4.6059,-1.8557 0.9655,-0.5785 1.9167,-1.2774 2.7384,-2.0231 l 2.1539,2.4091 0.1503,0.168 c 0.7007,0.7475 1.4165,1.2973 2.4082,1.4733 h 0.01 0.01 c 0.1292,0.022 0.1804,0.014 0.2558,0.017 l 0.01,0.01 0.01,-0.01 c 0.096,0.01 0.2154,0.022 0.321,0.022 0.197,0.01 0.4173,0.01 0.6423,0 1.9916,-0.044 3.8366,-0.8619 5.4472,-2.4055 0.1144,-0.1099 0.2239,-0.2241 0.3307,-0.3411 l 1.1054,1.4625 c 0.193,0.3343 0.5802,0.7344 1.0464,0.9234 0.467,0.1847 0.8946,0.2026 1.3503,0.2114 0.439,0.01 1.119,-0.1276 1.5555,-0.2992 h 0.01 c 0.6366,-0.255 1.2757,-0.5932 1.7586,-1.0857 0.4077,-0.4203 0.6034,-0.7495 0.8929,-1.2118 l 0.4941,0.7539 c 0.3357,1.2225 1.6544,1.8385 2.9305,1.834 0.9762,0 2.1229,-0.3256 2.9208,-0.9984 0.584,-0.4925 0.7712,-0.8353 1.1054,-1.3322 0.083,-0.1242 0.1653,-0.2683 0.249,-0.4129 l 0.4269,0.7752 v 5e-4 c 0.1085,0.2687 0.2358,0.5059 0.371,0.6749 0.5721,0.708 1.4466,1.0904 2.4102,1.2531 0.3966,0.066 0.9332,0.066 1.3333,-0.01 1.1038,-0.1891 2.1461,-0.8049 3.285,-1.6097 l -0.081,-0.1767 c 0.047,0.044 0.094,0.089 0.1416,0.1328 0.01,-0.01 0.01,-0.01 0.011,-0.01 h 6e-4 l 5e-4,-6e-4 c 8e-4,-1e-4 0,0 0,0 l 0.022,0.05 c 0.9065,0.8487 2.0606,1.3806 3.4065,1.5213 1.0489,0.1055 2.1388,-0.01 3.1977,-0.3824 0.8479,-0.3035 1.8092,-0.7436 2.5653,-1.1922 0.01,-0.01 0.016,-0.012 0.025,-0.016 0.061,0.4046 0.1991,0.7958 0.525,1.1477 0.2779,0.3034 0.3651,0.4529 1.0186,0.5804 h 0.01 c 0.5222,0.1011 0.5081,0.036 0.6997,0.022 0.1951,-0.01 0.41,-0.03 0.6304,-0.057 0.3056,-0.033 0.4749,-0.048 0.5369,-0.055 0.016,0.01 0.048,0.016 0.1551,0.046 1.6922,0.5014 3.6269,0.2901 5.2544,-0.9896 0.4601,0.5058 1.0198,0.9014 1.8201,1.0201 0.668,0.097 1.1848,0.1322 1.9813,-0.013 1.2555,-0.2242 2.2143,-0.7694 3.2178,-1.4598 0.6899,-0.4705 1.3866,-1.095 1.97,-1.7018 0.1794,-0.1847 0.4651,-0.4706 0.5787,-0.5849 0.72,-0.7037 1.5995,-1.7901 2.9807,-3.5667 0.7455,-0.9586 1.5237,-1.9523 1.6258,-2.0754 0.1261,-0.1583 0.2324,-0.3036 0.3322,-0.4619 0.054,-0.079 0.104,-0.1583 0.1597,-0.2683 0.06,-0.1099 0.14,-0.1848 0.2176,-0.6025 0.08,-0.431 0.058,-0.5981 0.05,-0.862 l -0.063,-6.2699 c 0.01,-0.1503 0,-0.2719 0,-0.4185 -0.01,-0.1407 -0.011,-0.2769 -0.024,-0.4176 -0.01,-0.075 -0.012,-0.1455 -0.033,-0.2465 -0.021,-0.1011 0.029,-0.1848 -0.2243,-0.5674 -0.01,-0.022 -0.2228,-0.3384 -0.4341,-0.6682 -0.1232,-0.1891 -0.249,-0.3653 -0.37,-0.5193 -0.06,-0.079 -0.1129,-0.149 -0.187,-0.2238 -0.069,-0.079 0.018,-0.1233 -0.4723,-0.3695 -0.426,-0.2154 -0.7754,-0.2288 -1.1261,-0.2113 -0.3559,0.022 -0.7122,0.07 -1.2175,0.3519 -0.6659,0.3651 -0.848,0.6818 -1.1513,1.0599 -0.2576,0.3211 -0.6486,0.84 -1.1121,1.4645 0,-0.013 2e-4,-0.03 -0.01,-0.044 -0.061,-0.3342 -0.158,-1.0418 -0.1969,-1.4243 -0.094,-0.9587 -0.1659,-1.57 -0.4393,-2.1812 -0.147,-0.321 -0.3066,-0.5499 -0.4847,-0.7741 -0.1819,-0.2287 -0.275,-0.4131 -0.7405,-0.677 -0.2816,-0.1563 -0.5398,-0.2354 -0.785,-0.2697 l -0.201,-1.9513 c -0.01,-0.2815 -0.042,-0.554 -0.089,-0.8222 -0.047,-0.2683 -0.108,-0.5322 -0.1917,-0.7917 -0.084,-0.255 -0.1244,-0.4882 -0.4506,-0.862 -0.1958,-0.2244 -0.6692,-0.611 -1.2237,-0.7033 -0.5588,-0.092 -0.9237,-4e-4 -1.3281,0.07 -0.018,0.01 -0.7081,0.07 -1.2852,0.1235 -0.1473,-0.343 -0.293,-0.6949 -0.4904,-0.9808 -0.2739,-0.3958 -0.5256,-0.7923 -1.2738,-1.0253 -0.2244,-0.07 -0.4989,-0.1315 -0.8279,-0.1359 -0.01,0 -0.01,0.01 -0.012,0.01 h -5e-4 l -5e-4,5e-4 -5e-4,5e-4 h -5e-4 c -0.4924,0 -1.072,0.1847 -1.4899,0.4222 -0.4276,0.2419 -0.7354,0.5012 -1.0567,0.7871 -0.238,0.2154 -0.4361,0.3826 -0.6791,0.6728 -0.1073,0.1275 -0.1495,0.2374 -0.232,0.3736 -0.099,0.013 -0.1276,0.022 -0.248,0.03 -0.6588,0.044 -1.1922,0.075 -1.6258,0.1364 -0.043,0.01 -0.5934,0.057 -0.9829,0.083 -0.7618,0.053 -1.2426,0.083 -1.8149,0.2284 -0.5766,0.1452 -1.4567,0.7168 -1.806,1.2005 -0.4969,0.686 -0.5527,1.271 -0.5566,1.7415 -0.01,0.4706 0.079,0.8749 0.2052,1.2619 l 0.014,0.05 c -0.4034,-0.07 -0.7878,-0.1338 -1.2655,-0.1338 -1.0158,0 -2.0432,0.2289 -3.0236,0.6775 -1.1695,0.5389 -2.1322,1.3291 -3.2572,2.683 l -0.3607,-0.9638 c -0.1734,-0.5101 -0.3963,-0.8006 -0.6584,-1.1172 -0.2578,-0.3166 -0.4704,-0.5935 -0.9782,-0.8661 -0.14,-0.075 -0.4419,-0.2242 -0.7927,-0.277 -0.3517,-0.049 -0.5592,-0.022 -0.8211,-0.01 -1.2611,0.066 -2.6388,0.712 -3.8903,1.7673 -0.2242,0.1891 -0.4138,0.4047 -0.6221,0.6026 -0.4018,-0.9851 -1.1422,-1.7812 -2.1694,-2.1461 -1.0192,-0.3606 -2.1988,-0.3296 -3.3466,0.1674 -1.0176,0.4353 -1.9272,1.1168 -2.7548,1.926 -0.1324,-0.2815 -0.2844,-0.5501 -0.4667,-0.7524 -0.7514,-0.831 -2.0644,-1.2928 -3.4018,-0.8398 -0.4455,0.1495 -0.8686,0.3434 -1.2889,0.5457 -0.2122,0.1012 -0.4156,0.2022 -0.6015,0.3034 -0.093,0.053 -0.1867,0.1056 -0.2914,0.1715 -0.1089,0.066 -0.1898,0.075 -0.5158,0.4088 -0.2123,0.2199 -0.6846,1.0816 -0.7394,1.495 -0.01,0.044 0,0.083 0,0.1235 -0.1883,-0.3122 -0.3844,-0.5365 -0.7209,-0.9498 -0.2033,-0.2551 -0.417,-0.5015 -0.6108,-0.7126 -0.1939,-0.2111 -0.2729,-0.3297 -0.5654,-0.554 -0.9215,-0.6985 -1.8667,-1.2379 -3.0897,-1.2723 -0.1058,-0.2205 -0.2418,-0.4208 -0.3969,-0.6072 l -4.9356,-7.5437 -1.0888,-0.9198 c -0.9031,-0.4617 -1.9012,-0.5569 -3.0195,-0.5468 z m 55.6044,4.0794 c 0.1116,0 0.225,0.022 0.3488,0.061 0.3568,0.1131 0.773,0.7148 1.0847,1.5679 0.137,0.375 0.3166,0.5803 0.5054,0.5803 0.3201,0 1.8658,-0.1511 2.2567,-0.2191 0.7347,-0.127 0.8784,-0.1038 1.1291,0.184 0.2566,0.2945 0.4937,1.6451 0.3545,2.0179 -0.081,0.2168 -0.3648,0.4924 -0.6392,0.6202 -0.3273,0.1525 -1.1264,0.2663 -2.8924,0.4118 -1.0071,0.083 -1.4232,0.1477 -1.5192,0.2367 -0.063,0.058 -0.6944,1.3238 -1.046,2.096 -0.4822,1.059 -0.8713,2.2327 -1.5213,4.5868 -0.4449,1.6127 -0.6138,2.5334 -0.6698,3.6422 -0.039,0.771 -0.09,0.7773 0.7225,-0.086 0.7531,-0.8002 1.1591,-1.2678 1.6547,-1.9053 1.4991,-1.9285 3.2764,-3.9402 4.8028,-5.4364 0.6609,-0.6481 0.968,-0.8995 1.2691,-1.0397 0.5579,-0.2597 1.251,-0.3308 1.5545,-0.1597 0.1906,0.1074 0.525,0.5274 0.6588,0.8278 0.1361,0.3057 0.2325,0.8215 0.3235,1.7286 0.045,0.4451 0.1404,1.14 0.2124,1.5441 0.1469,0.8207 0.2347,1.844 0.2507,2.9404 0.01,0.3995 0.036,0.7441 0.067,0.77 l 5e-4,5e-4 c 0.031,0.021 0.1023,0.011 0.1613,-0.024 0.1142,-0.067 1.1753,-1.427 2.4355,-3.1217 1.2343,-1.6597 1.5535,-2.056 1.7441,-2.1617 0.1932,-0.106 0.5134,-0.1242 0.6878,-0.037 0.063,0.031 0.2895,0.3241 0.5028,0.6501 0.2134,0.326 0.4107,0.6283 0.4397,0.6713 0.051,0.079 0.065,0.7867 0.019,1.0335 -0.013,0.072 -0.1638,0.3039 -0.3339,0.5152 -0.1701,0.2113 -0.9705,1.2341 -1.7787,2.2728 -1.4714,1.8913 -2.4636,3.0843 -3.0075,3.6163 -0.1597,0.1562 -0.4605,0.4606 -0.6692,0.6764 -0.484,0.5008 -1.3389,1.244 -1.7736,1.542 -0.7636,0.5236 -2.0541,1.1221 -2.6484,1.2284 -0.3463,0.069 -1.165,0.07 -1.5704,0.01 -0.7097,-0.1055 -1.403,-0.7857 -1.8888,-1.8531 l -0.139,-0.3054 -0.2538,0.2899 c -0.4571,0.5217 -0.9342,1.0046 -1.1942,1.2092 -0.9817,0.7721 -2.6517,1.0584 -3.9429,0.6744 -0.5183,-0.1537 -0.4802,-0.153 -1.4206,-0.041 -0.4095,0.043 -0.81,0.072 -0.908,0.053 -0.099,-0.019 -0.2432,-0.1076 -0.3312,-0.2036 -0.4226,-0.4589 -0.3236,-1.5993 0.2325,-2.6763 l 0.1933,-0.3742 -0.068,-0.4268 c -0.037,-0.2346 -0.072,-0.4339 -0.082,-0.4439 -0.01,-0.01 -0.1744,0.1637 -0.37,0.3855 -0.5272,0.5978 -1.9158,1.7468 -2.6082,2.1585 -0.5908,0.3513 -1.6498,0.8414 -2.3859,1.1038 -0.7534,0.2678 -1.8136,0.3915 -2.6324,0.3075 -1.4539,-0.1502 -2.4621,-0.6834 -3.3196,-1.7555 l -0.3985,-0.4981 -0.5136,0.3907 c -1.5521,1.1802 -2.7466,1.8413 -3.5833,1.9828 -0.3654,0.063 -0.4727,0.063 -0.8511,0 -0.7991,-0.1329 -1.3747,-0.4191 -1.7332,-0.8625 -0.1892,-0.234 -0.2399,-0.3598 -0.3643,-0.9018 -0.1727,-0.7483 -0.2235,-1.6793 -0.1375,-2.4716 0.076,-0.6988 0.4868,-2.5385 0.7633,-3.4159 0.2158,-0.6849 0.2341,-0.9105 0.074,-0.9105 -0.121,0 -0.2517,0.1647 -0.9033,1.1405 -0.5987,0.8964 -1.2441,2.0126 -2.4748,4.2798 -0.6418,1.1823 -1.3876,2.2875 -1.7513,2.5942 -0.487,0.4106 -0.9927,0.5695 -1.8237,0.5695 -1.0042,0 -1.5913,-0.3187 -1.7679,-0.9638 -0.2313,-0.8456 -0.3482,-1.5202 -0.3772,-2.175 l -0.031,-0.7116 0.2899,-1.5204 c 0.2288,-1.1983 0.3388,-1.6719 0.5183,-2.2324 0.2531,-0.7905 0.2694,-0.9985 0.076,-0.9715 -0.085,0.012 -0.252,0.2266 -0.7948,1.0206 -0.707,1.0343 -0.7878,1.1716 -2.2086,3.7528 -0.8688,1.5782 -1.534,2.644 -1.8573,2.9745 -0.2451,0.2507 -0.5378,0.4205 -1.1224,0.6531 -0.4504,0.172 -0.5023,0.1925 -0.9416,0.1825 -0.8352,-0.014 -1.1186,-0.1267 -1.3559,-0.538 -0.2616,-0.4536 -0.2186,-1.2063 0.1255,-2.1988 0.09,-0.2592 0.2951,-0.8935 0.4563,-1.4098 0.1611,-0.5163 0.321,-1.0101 0.355,-1.0981 l 0.063,-0.1597 h -0.4207 c -0.4466,0 -1.0617,-0.1085 -1.9187,-0.3384 -0.4689,-0.126 -0.5277,-0.133 -0.5617,-0.061 -0.021,0.044 -0.1094,0.2677 -0.1974,0.4971 -0.4724,1.2352 -1.4393,2.8007 -2.1513,3.483 -1.5194,1.4557 -2.621,1.945 -4.4804,1.988 -0.4201,0.01 -0.8709,3e-4 -1.0015,-0.023 -0.5677,-0.097 -1.1581,-0.4805 -1.8102,-1.1757 -0.8746,-0.9323 -1.3892,-2.4828 -1.4092,-4.2483 0,-0.3318 0.04,-0.673 0.17,-1.3736 0.1537,-0.8173 0.2055,-1.008 0.4202,-1.5482 0.8515,-2.1426 2.4842,-4.2319 4.1981,-5.3728 0.6798,-0.4525 1.6267,-0.8449 2.3027,-0.9539 0.7522,-0.1214 1.9081,0.267 2.7906,0.9384 0.1472,0.1121 0.5758,0.5825 0.9519,1.0454 0.6793,0.836 0.6849,0.8455 0.8531,1.4041 0.1784,0.5922 0.2632,1.1909 0.2532,1.8288 0,0.2108 -10e-5,0.3864 0.01,0.3964 0.049,0.042 0.499,0.2253 0.6687,0.2733 0.5353,0.15 1.3326,0.1441 1.7378,-0.013 l 0.1773,-0.069 0.077,-0.6077 c 0.117,-0.9224 0.169,-1.8421 0.156,-2.7813 -0.013,-0.9892 -10e-4,-1.0831 0.1628,-1.2516 0.1337,-0.1375 1.2921,-0.6917 1.8144,-0.8681 0.6194,-0.2093 1.2266,-0.036 1.6981,0.4842 0.2821,0.3113 0.3841,0.5538 0.4671,1.1177 0.08,0.5403 0.073,0.8924 -0.031,1.7364 -0.053,0.3654 -0.065,0.7147 -0.043,0.7767 0.038,0.11 0.042,0.1107 0.1561,0.023 0.064,-0.049 0.3665,-0.4553 0.6713,-0.9023 1.0846,-1.5911 2.7409,-3.1476 3.8654,-3.6323 0.6552,-0.2826 1.4042,-0.3151 2.0412,-0.089 0.8136,0.289 1.3421,0.9373 1.5296,1.8759 0.1122,0.5598 0.1145,0.929 0.01,1.7823 -0.1591,1.3014 -0.097,1.3068 0.7716,0.065 0.7571,-1.0823 1.4402,-1.8407 2.3445,-2.603 1.129,-0.9516 1.672,-1.2093 2.6516,-1.2593 0.5086,-0.026 0.5404,-0.021 0.7885,0.1121 0.3373,0.1812 0.8628,0.8255 0.9974,1.2237 0.1965,0.581 0.1653,0.8489 -0.2775,2.3771 -0.1521,0.525 -0.3147,1.1544 -0.3597,1.3984 -0.045,0.244 -0.1897,0.8408 -0.3199,1.3265 -0.3876,1.444 -0.5503,2.2093 -0.5963,2.7963 -0.024,0.309 -0.018,0.5887 0.012,0.6557 0.048,0.105 0.083,0.1141 0.3111,0.095 0.1415,-0.012 0.375,-0.075 0.5188,-0.1405 0.2934,-0.1341 0.778,-0.5191 1.0558,-0.8393 0.1827,-0.2107 0.1859,-0.2197 0.3782,-1.0955 0.1693,-0.7703 0.2508,-1.0335 0.6387,-2.0604 0.6497,-1.7204 0.7729,-1.9343 1.9017,-3.3114 1.1195,-1.3656 1.4952,-1.686 2.5472,-2.1694 0.8048,-0.3698 1.3594,-0.494 2.204,-0.494 0.5708,-2e-4 0.7819,0.022 1.2505,0.1328 0.648,0.1533 0.9781,0.3062 1.5038,0.6961 0.733,0.5437 1.0279,1.1007 0.9969,1.881 -0.021,0.5247 -0.1797,0.9982 -0.6377,1.9059 -0.7106,1.4081 -1.4813,2.5028 -2.3839,3.3863 -0.6134,0.6003 -0.6742,0.6471 -2.7471,2.1069 -0.3936,0.2771 -0.7145,0.5259 -0.7245,0.5519 0,0.026 0.027,0.092 0.071,0.1457 0.094,0.115 0.3698,0.1261 1.2418,0.049 0.4664,-0.041 0.5989,-0.072 0.8837,-0.2078 0.6092,-0.2903 1.1304,-0.6428 1.8676,-1.2634 0.8539,-0.7187 1.6803,-1.6057 2.6975,-2.8944 0.3726,-0.4721 0.8478,-1.0573 1.0557,-1.3002 0.8516,-0.9945 0.8773,-1.0369 1.1276,-1.8883 0.4137,-1.407 0.6639,-2.0339 1.5229,-3.8132 0.1417,-0.2933 0.2475,-0.5488 0.2403,-0.5808 v -5e-4 c -10e-5,-2e-4 -9e-4,0 -10e-4,0 -0.015,-0.018 -0.209,-0.055 -0.4315,-0.084 -0.2938,-0.037 -0.7826,-0.033 -1.7849,0.013 l -1.3798,0.064 -0.1927,-0.1085 c -0.7964,-0.4489 -1.3122,-2.0112 -0.8667,-2.6262 0.2401,-0.3313 0.5654,-0.4139 2.0366,-0.5153 0.4237,-0.029 0.922,-0.074 1.1069,-0.099 0.185,-0.026 0.8572,-0.08 1.494,-0.1209 1.4406,-0.093 1.4081,-0.078 1.7632,-0.8351 0.1465,-0.3126 0.2084,-0.3861 0.6635,-0.7927 0.5217,-0.4662 0.8386,-0.6553 1.1736,-0.6553 z m -12.6287,10.4536 -0.247,0.1504 c -0.447,0.2727 -0.787,0.6628 -1.3271,1.5234 -0.4602,0.7334 -0.5036,0.8221 -0.6253,1.2733 -0.085,0.316 -0.095,0.4301 -0.054,0.6816 0.025,0.1661 0.045,0.3347 0.035,0.3757 -0.023,0.1232 0.08,0.084 0.4413,-0.168 0.5223,-0.3641 0.8426,-0.6609 1.3571,-1.2552 0.7446,-0.86 1.0161,-1.3142 1.1208,-1.8779 0.042,-0.2241 0.032,-0.2841 -0.065,-0.4031 -0.065,-0.08 -0.2249,-0.1746 -0.3747,-0.2206 z m -35.3524,1.6743 c -0.2847,3e-4 -1.157,1.0907 -1.6686,2.0862 -0.4934,0.9599 -0.6983,2.1604 -0.5075,2.9719 0.1373,0.5841 0.2859,0.799 0.6083,0.879 0.259,0.064 0.3369,0.051 0.6444,-0.108 0.1641,-0.085 0.457,-0.289 0.6511,-0.4532 0.6093,-0.5163 0.9083,-0.9967 1.2878,-2.0702 0.2714,-0.768 0.2905,-0.8786 0.17,-0.9746 -0.7076,-0.5671 -0.9027,-0.8822 -0.9927,-1.5999 -0.06,-0.4759 -0.1268,-0.731 -0.1928,-0.7312 z m 52.5834,0.5886 c -0.074,0.01 -0.3708,0.2821 -0.57,0.5235 -0.1931,0.234 -0.1981,0.2479 -0.4258,1.1932 -0.2989,1.2417 -0.4926,1.902 -0.6894,2.3487 l -0.1597,0.3612 0.1147,0.1896 c 0.3678,0.6074 0.9384,0.8656 1.4604,0.6631 0.096,-0.037 0.2563,-0.1486 0.3566,-0.2476 0.3022,-0.2991 0.3595,-0.4683 0.4666,-1.3668 0.104,-0.8784 0.119,-1.3945 0.062,-2.095 -0.062,-0.7534 -0.1729,-1.1476 -0.3875,-1.3735 -0.1006,-0.1062 -0.1995,-0.1929 -0.2233,-0.1964 h -5e-4 -5e-4 c -9e-4,0 0,-10e-5 0,0 z" /></g></svg>
