<?xml version="1.0" encoding="UTF-8" standalone="no"?>
<svg
   width="274.71826"
   height="125.23243"
   viewBox="0 0 72.685872 33.134415"
   version="1.1"
   id="svg16"
   xml:space="preserve"
   xmlns="http://www.w3.org/2000/svg"
   xmlns:svg="http://www.w3.org/2000/svg"
   xmlns:rdf="http://www.w3.org/1999/02/22-rdf-syntax-ns#"
   xmlns:cc="http://creativecommons.org/ns#"
   xmlns:dc="http://purl.org/dc/elements/1.1/"><defs
     id="defs10" /><metadata
     id="metadata13"><rdf:RDF><cc:Work
         rdf:about=""><dc:format>image/svg+xml</dc:format><dc:type
           rdf:resource="http://purl.org/dc/dcmitype/StillImage" /></cc:Work></rdf:RDF></metadata><g
     id="layer1"
     transform="translate(1984.1198,-7451.5271)"><path
       d="m -1978.7632,7473.0518 h 0.2457 c 5.5041,0 5.5041,-4.5211 5.5041,-6.9292 v -3.1206 h -4.6441 v 2.8994 c 0,1.5972 -0.098,2.0886 -0.7863,2.0886 h -0.2457 c -0.6143,0 -0.688,-0.5405 -0.688,-2.1377 v -7.0766 c 0,-1.5972 0.098,-2.1623 0.688,-2.1623 h 0.2212 c 0.7125,0 0.8108,0.4914 0.8108,2.1132 v 2.6782 h 4.6441 v -2.9239 c 0,-2.4081 -0.025,-6.9293 -5.5041,-6.9293 h -0.2457 c -5.3321,0 -5.3565,4.6932 -5.3565,6.9293 v 7.6417 c 0,2.236 0,6.9292 5.3565,6.9292 z m 12.1139,0 h 0.2703 c 5.504,0 5.504,-4.5211 5.504,-6.9292 v -7.6417 c 0,-2.4081 -0.025,-6.9047 -5.504,-6.9538 h -0.2703 c -5.4795,0.049 -5.5041,4.5457 -5.5041,6.9538 v 7.6417 c 0,2.4081 0,6.9292 5.5041,6.9292 z m -0.8109,-7.2977 v -6.8801 c 0,-1.6955 0.1229,-2.236 0.9092,-2.2606 h 0.074 c 0.7862,0.025 0.9092,0.5406 0.9092,2.2606 v 6.8801 c 0,1.6954 -0.1476,2.2114 -0.9092,2.2359 h -0.074 c -0.7863,0 -0.9092,-0.5159 -0.9092,-2.2359 z m 7.568,7.0029 h 4.472 l -0.025,-6.831 v -2.4202 l 1.2285,6.9168 h 3.2926 l 1.2408,-6.9046 -0.013,2.2606 -0.025,6.9784 h 4.472 v -20.8859 h -6.0692 l -1.2532,9.2753 -1.2531,-9.2753 h -6.0692 z m 15.8733,0 h 8.9932 v -5.0618 h -4.2755 v -3.0714 h 4.2755 v -4.644 h -4.2755 v -3.047 h 4.2755 v -5.0617 h -8.9932 z m 12.9737,0 h 4.7669 v -15.8242 h 2.9977 v -5.0617 h -10.7623 v 5.0617 h 2.9977 z m 13.8092,0.2948 h 0.074 c 3.612,0 5.7007,-1.8183 5.7252,-5.2583 v -1.7692 c -0.025,-3.2926 -2.5799,-4.7177 -4.472,-5.6022 -1.3269,-0.639 -1.892,-1.0566 -1.892,-1.4989 v -1.7201 c 0,-0.344 0.2949,-0.5897 0.688,-0.5897 h 0.049 c 0.6635,0 0.8602,0.5897 0.8602,1.1057 v 1.9167 h 4.7176 v -2.359 c 0,-4.7423 -3.096,-5.7497 -5.7252,-5.7497 h -0.074 c -3.4647,0 -5.5286,1.5234 -5.5532,5.0863 v 1.7938 c 0.025,3.2679 2.3588,4.7668 4.3,5.5776 1.4742,0.639 2.0641,1.1549 2.0641,1.6464 v 1.72 c 0,0.3686 -0.2949,0.6143 -0.7618,0.6143 h -0.049 c -0.344,0 -0.8845,-0.3932 -0.8845,-1.204 v -1.9412 l -4.7424,1.4684 v 0.4728 c 0,4.1526 1.9166,6.2903 5.676,6.2903 z"
       id="path2960"
       style="font-size:45.547px;line-height:1.25;font-family:'FONTSPRING DEMO - Flexible H300 W200';-inkscape-font-specification:'FONTSPRING DEMO - Flexible H300 W200, Normal';text-align:center;text-anchor:middle;fill:#000000;fill-opacity:1;stroke:none;stroke-width:0.2712"
       aria-label="COMETS" /><path
       id="path2970"
       style="fill:#d40000;fill-opacity:1;stroke:none;stroke-width:0.2712px;stroke-linecap:butt;stroke-linejoin:miter;stroke-opacity:1"
       d="m -1922.9121,7466.2887 -31.2692,9.6022 23.1361,-3.1339 -33.1244,11.0704 34.121,-6.8772 -18.2374,7.7114 31.382,-9.3301 c 2.0145,-0.5316 3.4701,-1.1794 4.336,-2.0826 1.1355,-1.1848 1.1703,-3.6658 1.1212,-5.1102 -0.1588,3.2162 -2.2261,4.9131 -5.7152,4.9131 h -0.074 c -3.7595,0 -5.6761,-2.1376 -5.6761,-6.2902 z" /></g></svg>
