<?xml version="1.0" encoding="UTF-8" standalone="no"?>
<svg
   width="326.70117"
   height="226.42969"
   viewBox="0 0 86.439683 59.909523"
   version="1.1"
   id="svg16"
   xml:space="preserve"
   xmlns="http://www.w3.org/2000/svg"
   xmlns:svg="http://www.w3.org/2000/svg"
   xmlns:rdf="http://www.w3.org/1999/02/22-rdf-syntax-ns#"
   xmlns:cc="http://creativecommons.org/ns#"
   xmlns:dc="http://purl.org/dc/elements/1.1/"><defs
     id="defs10" /><metadata
     id="metadata13"><rdf:RDF><cc:Work
         rdf:about=""><dc:format>image/svg+xml</dc:format><dc:type
           rdf:resource="http://purl.org/dc/dcmitype/StillImage" /></cc:Work></rdf:RDF></metadata><g
     id="layer1"
     transform="translate(2147.0416,-7416.512)"><path
       id="path2959"
       style="font-size:109.505px;line-height:1.25;font-family:TradeGothic;-inkscape-font-specification:'TradeGothic, Normal';letter-spacing:-3.175px;fill:#ffffff;fill-opacity:1;stroke:none;stroke-width:0.884217"
       d="m -2140.644,7416.5122 c -1.1111,0 -2.0537,0.1856 -2.8619,0.5571 -0.8081,0.3714 -1.448,0.8546 -1.9869,1.449 -0.5387,0.6315 -0.9095,1.3742 -1.1788,2.1916 -0.2694,0.8544 -0.37,1.746 -0.37,2.6747 v 6.9097 h 4.1755 v -6.798 c 0,-1.003 0.1345,-1.746 0.4713,-2.2289 0.3031,-0.4829 0.8754,-0.7431 1.7508,-0.7431 0.5388,0 1.0104,0.2603 1.4144,0.7804 0.4041,0.5201 0.6061,1.337 0.6061,2.4515 v 2.0805 h 4.1755 v -1.9689 c 0,-0.9658 -0.1347,-1.932 -0.4041,-2.8236 -0.2693,-0.8915 -0.6396,-1.6717 -1.1447,-2.3404 -0.5051,-0.6687 -1.1451,-1.1886 -1.9197,-1.5973 -0.8082,-0.3716 -1.7172,-0.5943 -2.7275,-0.5943 z m 14.0555,0 c -1.1112,0 -2.0542,0.1856 -2.8624,0.5571 -0.808,0.3714 -1.4477,0.8546 -1.9864,1.449 -0.5389,0.6315 -0.9094,1.3742 -1.1788,2.1916 -0.2693,0.8544 -0.3705,1.746 -0.3705,2.6747 v 6.9097 h 4.1754 v -6.798 c 0,-1.003 0.1351,-1.746 0.4719,-2.2289 0.3031,-0.4829 0.8752,-0.7431 1.7508,-0.7431 0.8417,0 1.4145,0.2602 1.7513,0.7431 0.3031,0.4829 0.4713,1.2259 0.4713,2.2289 v 6.798 h 4.1754 v -6.9097 c 0,-0.9287 -0.1347,-1.8203 -0.4041,-2.6747 -0.2693,-0.8174 -0.6399,-1.5601 -1.1787,-2.1916 -0.5388,-0.5944 -1.1783,-1.0776 -1.9865,-1.449 -0.8081,-0.3715 -1.7512,-0.5571 -2.8287,-0.5571 z m 59.9927,0 c -2.0878,0 -3.6704,0.594 -4.7816,1.7456 -1.1448,1.1517 -1.6837,2.7866 -1.6837,4.9413 0,1.3002 0.2022,2.4145 0.6062,3.3802 0.4041,0.966 0.9425,1.8578 1.5823,2.6008 0.3031,0.39 0.6315,0.7613 0.9767,1.1142 h 6.1883 c -0.3635,-0.3854 -0.7403,-0.7558 -1.1374,-1.1142 -0.7408,-0.6686 -1.448,-1.3006 -2.0542,-1.9693 -0.6398,-0.6315 -1.1783,-1.2631 -1.5823,-1.9317 -0.4042,-0.6315 -0.6062,-1.3371 -0.6062,-2.1172 0,-0.8173 0.1686,-1.4859 0.539,-1.9317 0.3367,-0.4457 0.8754,-0.7059 1.5488,-0.7059 0.2021,0 0.4375,0.074 0.7069,0.1484 0.2358,0.1114 0.4719,0.2601 0.6739,0.4831 0.202,0.2229 0.4037,0.5573 0.5384,0.9287 0.1347,0.3716 0.2361,0.8545 0.3034,1.4118 l 3.9729,-0.4832 c -0.1009,-0.9288 -0.3026,-1.7831 -0.6057,-2.6004 -0.3031,-0.7801 -0.7072,-1.4489 -1.1787,-2.0433 -0.4713,-0.5944 -1.0438,-1.0403 -1.7172,-1.3746 -0.6735,-0.2971 -1.4479,-0.4826 -2.2898,-0.4826 z m -52.1333,0.3715 v 13.4106 h 3.6365 v -7.5412 h 0.068 l 1.357,7.5412 h 2.9626 l -2.5352,-13.4106 z m 11.4825,0 -2.5347,13.4106 h 2.9621 l 1.3575,-7.5412 h 0.068 v 7.5412 h 3.6365 v -13.4106 z m 6.9505,0 v 13.4106 h 10.1332 v -2.4888 h -5.9577 v -6.9096 h 7.0037 v -4.0122 z m 13.1124,0 v 4.0122 h 4.0411 v 9.3984 h 4.1749 v -9.3984 h 4.0406 v -4.0122 z m -39.4033,0.1747 v 0 c 1.0136,0 1.8764,0.1751 2.5994,0.5075 0.7329,0.3369 1.3167,0.7782 1.8024,1.3126 0.4768,0.5607 0.8149,1.231 1.0672,1.9942 0.2513,0.7978 0.3782,1.6342 0.3782,2.5078 v 6.3583 h -3.0732 v -6.2472 c 0,-1.0569 -0.1762,-1.9186 -0.555,-2.5223 l -0.01,-0.012 -0.01,-0.01 c -0.4802,-0.6886 -1.2201,-0.9793 -2.204,-0.9793 -0.9868,0 -1.7606,0.301 -2.1999,0.9798 5e-4,-2e-4 0,-3e-4 0,-5e-4 l -0.014,0.022 h 5e-4 5e-4 l 5e-4,-5e-4 c 5e-4,-2e-4 0,-3e-4 0,-5e-4 -0.4091,0.6036 -0.5566,1.4917 -0.5566,2.5187 v 6.2466 h -3.0732 v -6.3582 c 0,-0.8884 0.097,-1.7208 0.3452,-2.5079 0.2522,-0.7628 0.59,-1.4325 1.0666,-1.9932 0.4859,-0.5345 1.07,-0.9757 1.803,-1.3125 0.7213,-0.3316 1.5837,-0.5075 2.6314,-0.5075 z m -2.2071,3.8933 c 0,0 0,0 -0.01,0 0,0 0,0.01 0,0.01 0,0 0.01,-0.01 0.01,-0.013 z m -11.8499,-3.8897 c 0.921,0 1.7469,0.203 2.483,0.539 0.7046,0.3739 1.2776,0.8423 1.7245,1.434 0.4583,0.6068 0.803,1.3253 1.0573,2.1673 0.2528,0.8365 0.3803,1.7481 0.3803,2.6645 v 1.4175 h -3.0737 v -1.5291 c 0,-1.1728 -0.2155,-2.1383 -0.7219,-2.7901 -0.4949,-0.6369 -1.0886,-0.9932 -1.8495,-0.9932 -0.986,0 -1.7592,0.3009 -2.1989,0.9788 h -5e-4 -5e-4 v 0 l -0.014,0.022 h 6e-4 5e-4 5e-4 5e-4 c 5e-4,-1e-4 0,-3e-4 0,-5e-4 -0.4102,0.6034 -0.5592,1.4927 -0.5592,2.5213 v 6.2466 h -3.0737 v -6.3582 c 0,-0.8885 0.097,-1.7205 0.3452,-2.5074 0.2521,-0.7629 0.5906,-1.433 1.0671,-1.9936 0.4859,-0.5346 1.0701,-0.9757 1.803,-1.3126 0.7211,-0.3314 1.5842,-0.507 2.6319,-0.507 z m 74.0482,0 c 0.7555,0 1.45,0.1673 2.0551,0.4326 0.6009,0.3002 1.1053,0.6944 1.5193,1.2164 0.4396,0.5541 0.8142,1.1744 1.0951,1.8955 0.2239,0.6044 0.3426,1.2629 0.4501,1.9317 l -2.8717,0.3498 c -0.064,-0.3496 -0.1172,-0.7228 -0.215,-0.9927 -0.1558,-0.4297 -0.3929,-0.8288 -0.6485,-1.111 -0.2654,-0.2927 -0.5663,-0.4785 -0.846,-0.6108 l -0.043,-0.02 -0.046,-0.012 c -0.2635,-0.072 -0.5837,-0.1689 -0.8537,-0.1689 -0.8282,0 -1.5202,0.3177 -1.9787,0.9172 -0.4692,0.5723 -0.6594,1.3929 -0.6594,2.2707 0,0.8757 0.2276,1.6801 0.6847,2.4003 v 0 l 0.01,0.012 v 0 c 0.4297,0.7085 0.9939,1.3682 1.6418,2.0097 0,0 0,0 -0.01,0 l 0.011,0.011 c -1e-4,0 -3e-4,0 -6e-4,0 0,0 0,0 0,0 -10e-4,-1e-4 0,1e-4 0,0 l 0.01,0.01 c -1e-4,-9e-4 -5e-4,0 0,0 0.6233,0.685 1.3431,1.3297 2.0769,1.9921 0.055,0.049 0.1032,0.1035 0.1571,0.1535 h -4.5899 c -0.276,-0.2914 -0.5461,-0.5877 -0.7901,-0.9018 l -0.01,-0.01 -0.01,-0.011 c -0.5986,-0.6951 -1.1073,-1.5356 -1.4913,-2.4536 -0.3707,-0.8859 -0.5638,-1.9257 -0.5638,-3.1678 0,-2.0512 0.5169,-3.5397 1.5234,-4.5522 0.9808,-1.0164 2.415,-1.5769 4.3847,-1.5771 z m -51.5819,0.3711 h 4.4798 l 2.327,12.3093 h -1.8355 l -1.3576,-7.5412 h -1.079 v 7.5412 h -2.5347 z m 11.3885,0 h 4.4808 v 12.3093 h -2.5347 v -7.5412 h -1.0795 l -1.3586,7.5412 h -1.8345 z m 7.0445,0 h 10.0769 v 2.9109 h -7.0037 v 8.0114 h 5.9572 v 1.387 h -9.0304 z m 13.1124,0 h 11.1548 v 2.9109 h -4.0405 v 9.3984 h -3.0732 v -9.3984 h -4.0411 z m 17.6578,3.4437 v 0 5e-4 l -5e-4,5e-4 h -5e-4 v 6e-4 c -4e-4,4e-4 -7e-4,0 0,0 v 0 z m -0.01,0.01 -0.01,0.012 h 5e-4 c 8e-4,-1e-4 0,-6e-4 0.01,0 0,0 0,0 0,-0.01 0,0 -2e-4,-9e-4 0,0 z m -73.8637,0.067 c 0,0 0,0.01 -0.01,0.01 4e-4,0 0,0 0,-0.01 7e-4,-9e-4 0,0 0,0 z m -4.1962,41.6864 v 6.9096 c 0,0.9659 0.1006,1.8581 0.37,2.6753 0.2693,0.8544 0.6401,1.5971 1.1788,2.1916 0.5389,0.6316 1.1788,1.1148 1.9869,1.4862 0.8082,0.3716 1.7508,0.5199 2.8619,0.5199 1.0103,0 1.9193,-0.1483 2.7275,-0.5199 0.7746,-0.3714 1.4146,-0.8546 1.9197,-1.4862 0.5051,-0.5945 0.8754,-1.3372 1.1447,-2.1916 0.2694,-0.8172 0.4041,-1.7094 0.4041,-2.6753 v -3.083 h -4.1755 v 3.2319 c 0,0.8915 -0.1683,1.5603 -0.4377,2.006 -0.303,0.483 -0.8419,0.7059 -1.5828,0.7059 -0.8754,0 -1.4477,-0.2229 -1.7508,-0.7059 -0.3368,-0.4829 -0.4713,-1.2258 -0.4713,-2.266 v -6.7985 z m 14.055,0 v 6.9096 c 0,0.9659 0.1012,1.8581 0.3705,2.6753 0.2694,0.8544 0.6399,1.5971 1.1788,2.1916 0.5387,0.6316 1.1784,1.1148 1.9864,1.4862 0.8082,0.3716 1.7512,0.5199 2.8624,0.5199 1.0775,0 2.0206,-0.1483 2.8287,-0.5199 0.8082,-0.3714 1.4477,-0.8546 1.9865,-1.4862 0.5388,-0.5945 0.9094,-1.3372 1.1787,-2.1916 0.2694,-0.8172 0.4041,-1.7094 0.4041,-2.6753 v -6.9096 h -4.1754 v 6.7985 c 0,1.0402 -0.1682,1.7831 -0.4713,2.266 -0.3368,0.483 -0.9096,0.7059 -1.7513,0.7059 -0.8756,0 -1.4477,-0.2229 -1.7508,-0.7059 -0.3368,-0.4829 -0.4719,-1.2258 -0.4719,-2.266 v -6.7985 z m 14.2575,0 v 13.411 h 3.6365 v -13.411 z m 5.0612,0 2.4143,13.411 h 2.0206 l 2.4138,-13.411 h -2.9621 l -0.4284,2.2665 h -0.068 l -0.4279,-2.2665 z m 8.2734,0 v 13.411 h 3.6365 v -13.411 z m 5.0984,0 v 13.411 h 11.651 v -4.0121 h -7.4755 v -7.8755 h 5.9577 v -1.5234 z m 17.1535,0 v 13.411 h 4.1749 v -13.411 z m 13.2467,0 c 0.3451,0.3528 0.7072,0.6872 1.0775,1.003 0.7408,0.6686 1.4144,1.3003 2.0541,1.9317 0.6062,0.6688 1.1453,1.3373 1.5493,2.0061 0.404,0.7058 0.6397,1.4865 0.6397,2.3781 0,0.8172 -0.2361,1.4109 -0.6738,1.8195 -0.4714,0.4458 -1.0436,0.632 -1.7508,0.632 -0.6734,0 -1.2459,-0.3342 -1.6837,-1.003 -0.4712,-0.6686 -0.7408,-1.6717 -0.8082,-3.0463 l -3.9734,0.6315 c 0.034,1.0402 0.2023,1.9688 0.5054,2.8603 0.2694,0.8916 0.6731,1.7089 1.2118,2.3776 0.5388,0.6687 1.1789,1.2262 1.9534,1.5978 0.7408,0.4086 1.616,0.5943 2.5926,0.5943 0.9428,0 1.8522,-0.1487 2.6603,-0.446 0.8082,-0.2972 1.5152,-0.7058 2.0877,-1.3001 0.5724,-0.5944 1.01,-1.2999 1.3467,-2.1544 0.3366,-0.8545 0.5054,-1.858 0.5054,-2.9725 0,-1.1887 -0.2357,-2.266 -0.6397,-3.2318 -0.4041,-0.9659 -0.9433,-1.8204 -1.5493,-2.6376 -0.2968,-0.362 -0.6021,-0.7066 -0.9167,-1.0402 z m -76.5948,0.5509 h 3.0732 v 6.2466 c 0,1.069 0.1502,1.9629 0.5648,2.5663 0.4453,0.7001 1.2333,0.9565 2.2092,0.9565 0.8651,0 1.6163,-0.2735 2.0495,-0.9638 0.3337,-0.5523 0.5167,-1.3381 0.5167,-2.2903 v -2.6815 h 3.0732 v 2.5322 c 0,0.9139 -0.1269,1.7471 -0.3756,2.5021 -0.2539,0.8052 -0.5933,1.4756 -1.0398,2.001 l -0.01,0.01 -0.01,0.01 c -0.4448,0.5563 -1.0169,0.9918 -1.725,1.3317 -0.7147,0.3275 -1.5378,0.4682 -2.4913,0.4682 -1.0628,0 -1.9199,-0.1422 -2.6324,-0.4698 -0.7357,-0.3381 -1.315,-0.7782 -1.7978,-1.3441 l -0.01,-0.01 -0.01,-0.01 c -0.4701,-0.5187 -0.8079,-1.1835 -1.0614,-1.9875 -0.2456,-0.7453 -0.3421,-1.5735 -0.3421,-2.5021 z m 14.0555,0 h 3.0732 v 6.2466 c 0,1.0686 0.1494,1.9626 0.5643,2.5663 0.4454,0.7 1.2333,0.9565 2.2092,0.9565 0.9512,0 1.7296,-0.2612 2.204,-0.9416 l 0.01,-0.01 0.01,-0.012 c 0.3787,-0.6035 0.555,-1.4667 0.555,-2.559 v -6.2466 h 3.0737 v 6.3582 c 0,0.9139 -0.1273,1.7473 -0.3762,2.5022 -0.2535,0.804 -0.5911,1.4687 -1.0614,1.9875 l -0.01,0.01 -0.01,0.01 c -0.4827,0.566 -1.0627,1.0055 -1.7983,1.3436 -0.7139,0.3282 -1.5704,0.4697 -2.5988,0.4697 -1.0627,0 -1.9187,-0.1421 -2.6314,-0.4697 -0.7355,-0.3381 -1.3149,-0.7776 -1.7978,-1.3436 l -0.01,-0.01 -0.01,-0.01 c -0.4702,-0.5188 -0.8078,-1.1834 -1.0614,-1.9875 -0.2456,-0.7454 -0.3426,-1.5737 -0.3426,-2.5022 z m 14.2575,0 h 2.5347 v 12.3077 h -2.5347 z m 5.1692,0 h 1.8459 l 0.4289,2.266 h 0.9808 l 0.4289,-2.266 h 1.8454 l -2.2164,12.3077 h -1.0971 z m 8.1654,0 h 2.5342 v 12.3077 h -2.5342 z m 5.0984,0 h 9.0304 v 0.4206 h -5.9572 v 8.9777 h 7.475 v 2.9094 h -10.5482 z m 17.153,0 h 3.0737 v 12.3077 h -3.0737 z m 14.12,0 h 4.5114 c 0.2486,0.2691 0.4947,0.5401 0.7302,0.8268 0.5864,0.7918 1.0967,1.6037 1.4764,2.5115 0.3764,0.8996 0.5979,1.9063 0.5979,3.0199 0,1.0606 -0.1608,1.9915 -0.4677,2.7699 -0.3135,0.7957 -0.7164,1.4396 -1.2315,1.9745 -0.5004,0.5196 -1.1304,0.8887 -1.881,1.1648 -0.7407,0.2723 -1.5824,0.4124 -2.4691,0.4124 -0.9062,0 -1.6862,-0.1721 -2.327,-0.5256 l -0.014,-0.01 -0.014,-0.01 c -0.6845,-0.3283 -1.2644,-0.8287 -1.7622,-1.4464 -0.4874,-0.605 -0.8614,-1.3547 -1.1141,-2.1911 v -0.01 -0.01 c -0.2357,-0.6937 -0.3643,-1.4307 -0.4268,-2.2205 l 2.9093,-0.462 c 0.117,1.1123 0.3553,2.0588 0.8145,2.7172 h 5e-4 5e-4 5e-4 c 0,4e-4 0,0 0.01,0 l 5e-4,6e-4 5e-4,5e-4 c 0,0 0,0 0,0.01 2e-4,0 0,-2e-4 0,0.01 0.5296,0.7994 1.2374,1.2366 2.1321,1.2366 0.8279,0 1.5249,-0.2107 2.1265,-0.7798 0.5755,-0.5372 0.8491,-1.2858 0.8491,-2.2226 0,-1.0009 -0.2619,-1.8644 -0.7121,-2.651 v -0.01 -0.01 c -0.4285,-0.7092 -0.9942,-1.41 -1.6123,-2.0919 l -0.01,-0.012 -0.01,-0.01 c -0.6469,-0.6385 -1.3268,-1.2752 -2.0722,-1.9482 l -0.01,-0.01 -0.01,-0.01 c 0,0 -0.01,-0.01 -0.013,-0.012 z m -0.6723,8.5178 v 0.01 z m -73.7185,0.2852 c 0,0 2e-4,0 5e-4,0 l 5e-4,5e-4 v 5e-4 5e-4 h 6e-4 v 5e-4 l 5e-4,5e-4 v 6e-4 c 10e-5,1e-4 0,8e-4 0,0 h 5e-4 l 6e-4,5e-4 h 5e-4 z m 14.055,0 c 0,0 2e-4,0 5e-4,0 v 5e-4 c 1e-4,2e-4 9e-4,0 0,0 v 5e-4 l 5e-4,6e-4 c 3e-4,2e-4 0,7e-4 0,0 l 5e-4,5e-4 h 5e-4 5e-4 z m -14.0493,0.01 0.01,0.013 c -1e-4,0 0,-0.01 0,-0.01 -7e-4,-9e-4 0,0 0,0 -3e-4,0 0,-4e-4 0,-5e-4 z m 14.055,0 0.01,0.013 c -10e-5,0 0,-0.01 -0.01,-0.012 z" /><path
       id="path2932"
       style="font-size:109.505px;line-height:1.25;font-family:TradeGothic;-inkscape-font-specification:'TradeGothic, Normal';letter-spacing:-3.175px;fill:#ffffff;fill-opacity:1;stroke:none;stroke-width:0.884217"
       d="m -2140.644,7432.6838 c -1.1113,0 -2.0537,0.1857 -2.8619,0.5571 -0.8081,0.3716 -1.4482,0.8546 -1.9869,1.449 -0.5388,0.6315 -0.9089,1.3743 -1.1782,2.1916 -0.2693,0.8545 -0.3706,1.746 -0.3706,2.6748 v 13.8193 c 0,0.966 0.1013,1.858 0.3706,2.6753 0.2693,0.8544 0.6394,1.5973 1.1782,2.1916 0.5387,0.6316 1.1788,1.1141 1.9869,1.4856 0.8082,0.3716 1.7506,0.5204 2.8619,0.5204 1.0102,0 1.9194,-0.1488 2.7275,-0.5204 0.7745,-0.3715 1.4146,-0.854 1.9197,-1.4856 0.5051,-0.5943 0.8753,-1.3372 1.1447,-2.1916 0.2694,-0.8173 0.4041,-1.7093 0.4041,-2.6753 v -3.0831 h -4.1755 v 3.2319 c 0,0.8916 -0.1683,1.5604 -0.4377,2.0061 -0.303,0.4831 -0.842,0.7059 -1.5828,0.7059 -0.8755,0 -1.4478,-0.2228 -1.7508,-0.7059 -0.3368,-0.4828 -0.4713,-1.2258 -0.4713,-2.266 v -13.5966 c 0,-1.003 0.1345,-1.7459 0.4713,-2.2288 0.303,-0.4829 0.8753,-0.7431 1.7508,-0.7431 0.5387,0 1.0103,0.2598 1.4144,0.7798 0.4041,0.5202 0.6061,1.3376 0.6061,2.452 v 2.0805 h 4.1755 v -1.9689 c 0,-0.9658 -0.1347,-1.9321 -0.4041,-2.8236 -0.2694,-0.8916 -0.6396,-1.6716 -1.1447,-2.3404 -0.5051,-0.6686 -1.1452,-1.1886 -1.9197,-1.5973 -0.8081,-0.3714 -1.7173,-0.5943 -2.7275,-0.5943 z m 14.0555,0 c -1.1112,0 -2.0541,0.1857 -2.8624,0.5571 -0.8081,0.3716 -1.4476,0.8546 -1.9864,1.449 -0.5389,0.6315 -0.9094,1.3743 -1.1788,2.1916 -0.2694,0.8545 -0.3705,1.746 -0.3705,2.6748 v 13.8193 c 0,0.966 0.1011,1.858 0.3705,2.6753 0.2694,0.8544 0.6399,1.5973 1.1788,2.1916 0.5388,0.6316 1.1783,1.1141 1.9864,1.4856 0.8083,0.3716 1.7512,0.5204 2.8624,0.5204 1.0777,0 2.0206,-0.1488 2.8287,-0.5204 0.8082,-0.3715 1.4477,-0.854 1.9865,-1.4856 0.5388,-0.5943 0.9094,-1.3372 1.1787,-2.1916 0.2694,-0.8173 0.4041,-1.7093 0.4041,-2.6753 v -13.8193 c 0,-0.9288 -0.1347,-1.8203 -0.4041,-2.6748 -0.2693,-0.8173 -0.6399,-1.5601 -1.1787,-2.1916 -0.5388,-0.5944 -1.1783,-1.0774 -1.9865,-1.449 -0.8081,-0.3714 -1.751,-0.5571 -2.8287,-0.5571 z m 59.9927,0 c -2.0878,0 -3.6703,0.5947 -4.7816,1.7462 -1.1448,1.1517 -1.6837,2.7861 -1.6837,4.9407 0,1.3002 0.2022,2.4148 0.6062,3.3807 0.4041,0.9658 0.9429,1.8574 1.5828,2.6004 0.6061,0.7801 1.3129,1.4855 2.0537,2.1171 0.7407,0.6686 1.4144,1.3006 2.0541,1.9322 0.6062,0.6686 1.1447,1.3374 1.5488,2.0061 0.404,0.7058 0.6402,1.486 0.6402,2.3776 0,0.8173 -0.236,1.4114 -0.6738,1.8201 -0.4713,0.4458 -1.0436,0.6315 -1.7508,0.6315 -0.6734,0 -1.2459,-0.3344 -1.6837,-1.0031 -0.4714,-0.6687 -0.7408,-1.6717 -0.8082,-3.0463 l -3.9734,0.6315 c 0.034,1.0402 0.2018,1.9692 0.5049,2.8608 0.2693,0.8916 0.6736,1.7089 1.2123,2.3776 0.5388,0.6687 1.1789,1.2259 1.9534,1.5974 0.7408,0.4086 1.616,0.5942 2.5926,0.5942 0.9428,0 1.8522,-0.1487 2.6603,-0.4459 0.8082,-0.2972 1.5152,-0.7058 2.0877,-1.3002 0.5724,-0.5943 1.01,-1.2999 1.3467,-2.1544 0.3368,-0.8544 0.5054,-1.8578 0.5054,-2.9724 0,-1.1887 -0.2357,-2.266 -0.6397,-3.2319 -0.4041,-0.9659 -0.9433,-1.8203 -1.5493,-2.6375 -0.6399,-0.7802 -1.3133,-1.4857 -2.0541,-2.1544 -0.7408,-0.6687 -1.448,-1.3003 -2.0542,-1.9689 -0.6397,-0.6316 -1.1783,-1.2631 -1.5823,-1.9317 -0.4041,-0.6316 -0.6062,-1.3376 -0.6062,-2.1177 0,-0.8173 0.1681,-1.4858 0.5385,-1.9316 0.3368,-0.4457 0.8759,-0.7059 1.5493,-0.7059 0.202,0 0.4375,0.074 0.7069,0.1483 0.2357,0.1114 0.472,0.2602 0.6739,0.4831 0.202,0.2229 0.4037,0.5573 0.5384,0.9287 0.1347,0.3715 0.2361,0.8546 0.3034,1.4118 l 3.9734,-0.4832 c -0.1011,-0.9287 -0.3031,-1.7831 -0.6062,-2.6004 -0.3031,-0.7801 -0.7072,-1.4489 -1.1787,-2.0432 -0.4713,-0.5944 -1.0437,-1.0402 -1.7172,-1.3746 -0.6735,-0.2972 -1.4479,-0.4827 -2.2898,-0.4827 z m -52.1333,0.3716 v 26.8216 h 3.6365 v -20.9522 h 0.068 l 3.7714,20.9522 h 2.0205 l 3.7713,-20.9522 h 0.068 v 20.9522 h 3.6364 v -26.8216 h -5.4885 l -2.9632,15.677 h -0.068 l -2.9631,-15.677 z m 18.433,0 v 26.8216 h 11.651 v -4.0122 h -7.4755 v -7.8755 h 5.9577 v -4.0121 h -5.9577 v -6.9097 h 7.0037 v -4.0121 z m 13.1124,0 v 4.0121 h 4.0406 v 22.8095 h 4.1754 v -22.8095 h 4.0411 v -4.0121 z m -39.4048,3.6406 c 0.8419,0 1.414,0.2602 1.7508,0.7431 0.303,0.4829 0.4718,1.2258 0.4718,2.2288 v 13.5966 c 0,1.0402 -0.1688,1.7832 -0.4718,2.266 -0.3368,0.4831 -0.9089,0.7059 -1.7508,0.7059 -0.8755,0 -1.4477,-0.2228 -1.7508,-0.7059 -0.3368,-0.4828 -0.4719,-1.2258 -0.4719,-2.266 v -13.5966 c 0,-1.003 0.1351,-1.7459 0.4719,-2.2288 0.3031,-0.4829 0.8753,-0.7431 1.7508,-0.7431 z" /></g></svg>
