<?xml version="1.0" encoding="UTF-8" standalone="no"?>
<svg
   width="472.30463"
   height="227.05469"
   viewBox="0 0 124.96393 60.074888"
   version="1.1"
   id="svg16"
   xml:space="preserve"
   xmlns="http://www.w3.org/2000/svg"
   xmlns:svg="http://www.w3.org/2000/svg"
   xmlns:rdf="http://www.w3.org/1999/02/22-rdf-syntax-ns#"
   xmlns:cc="http://creativecommons.org/ns#"
   xmlns:dc="http://purl.org/dc/elements/1.1/"><defs
     id="defs10" /><metadata
     id="metadata13"><rdf:RDF><cc:Work
         rdf:about=""><dc:format>image/svg+xml</dc:format><dc:type
           rdf:resource="http://purl.org/dc/dcmitype/StillImage" /></cc:Work></rdf:RDF></metadata><g
     id="layer1"
     transform="translate(-48.702047,-7349.8167)"><g
       id="g3535"
       transform="translate(-5.561311,-23.913637)"><path
         id="path3513"
         style="fill:#d40000;fill-opacity:1;stroke-width:0.325903;stroke-linecap:round;stroke-linejoin:round;paint-order:stroke fill markers"
         d="m 133.78925,7382.5763 c 0.18082,0.431 0.34741,0.8681 0.49609,1.3146 14.68553,0.6105 28.56585,1.97 40.42183,4.0132 1.8527,0.3193 3.2213,1.9435 3.2215,3.8235 v 1.7229 c 0.4712,0.2735 0.89803,0.6066 1.29863,0.9685 v -2.6929 c -2e-4,-2.5184 -1.81354,-4.6711 -4.29534,-5.0989 -12.07869,-2.0815 -26.20565,-3.4498 -41.14271,-4.0509 z m -34.091459,0.01 c -14.934872,0.5967 -29.059165,1.9607 -41.138058,4.0416 -2.4818,0.4277 -4.295045,2.5805 -4.295345,5.0989 v 2.6918 c 0.398964,-0.3602 0.823388,-0.6922 1.292428,-0.9648 v -1.727 c 1e-4,-1.88 1.368909,-3.5042 3.221509,-3.8235 11.856999,-2.0427 25.736927,-3.3905 40.422339,-3.9967 0.148896,-0.4485 0.315824,-0.8874 0.497127,-1.3203 z m 79.529509,41.2 c -0.39951,0.3583 -0.83412,0.6746 -1.29863,0.9457 v 1.7746 c -2e-4,2.3791 -2.1889,4.2275 -4.5346,3.8251 l -0.0481,-0.01 h 0.10697 a 1.2935571,1.2935571 0 0 1 -0.21911,-0.019 c -11.33212,-1.9484 -24.85039,-3.2688 -39.19502,-3.8659 v 1.2987 c 14.2794,0.5967 27.7295,1.9087 38.97643,3.8426 h 0.0103 l 0.15555,0.027 c 3.1598,0.5413 6.04584,-1.8941 6.04614,-5.0999 z m -124.962912,0.042 v 2.7104 c 3e-4,3.21 2.892961,5.6449 6.055961,5.0979 l 0.155546,-0.027 c 11.232185,-1.9421 24.682176,-3.2648 38.971265,-3.8685 v -1.2945 c -14.353335,0.6095 -27.871218,1.9477 -39.19399,3.8881 l -0.156063,0.027 c -2.3454,0.4019 -4.540291,-1.4415 -4.540291,-3.8231 v -1.7647 c -0.462021,-0.2716 -0.894824,-0.5876 -1.292428,-0.9457 z" /><g
         id="text3514"><path
           style="-inkscape-font-specification:'College Block 2.0, Normal'"
           d="m 103.69584,7421.4216 -1.3778,1.3845 v 9.3288 l 1.3778,1.3778 h 3.40755 l 1.3778,-1.3778 v -5.565 h -2.82954 v 1.7945 h 1.03504 v 3.3471 h -2.56742 v -8.4886 h 2.56742 v 1.4046 h 1.7945 v -1.8214 l -1.3778,-1.3845 z m 10.59329,10.2899 h -2.56742 v -8.4954 h 2.56742 z m -2.99084,-10.2966 -1.3778,1.3845 v 9.3355 l 1.3778,1.3778 h 3.40755 l 1.3778,-1.3778 v -9.3355 l -1.3778,-1.3845 z m 9.42384,1.7945 v -1.7945 h -3.1992 v 1.7945 h 0.66538 v 8.5088 h -0.66538 v 1.7945 h 6.10267 v -3.2059 h -1.78779 v 1.4047 h -1.81467 v -8.5021 z m 6.84297,5.155 h 2.34563 v -1.7945 h -2.34563 v -3.3403 h 1.81467 v 1.4114 h 1.78778 v -3.2127 h -6.10266 v 1.8013 h 0.66538 v 8.4886 h -0.66538 v 1.7945 h 3.19919 v -1.7945 h -0.69898 z"
           id="path3528" /><path
           style="-inkscape-font-specification:'College Block 2.0, Normal'"
           d="m 111.17969,7421.1309 -1.54492,1.5507 v 9.5704 l 1.54492,1.5449 h 3.64453 l 1.54492,-1.5449 v -9.5704 l -1.54492,-1.5507 z m 6.05859,0 v 2.3632 h 0.66602 v 7.9395 h -0.66602 v 2.3633 h 6.67188 v -3.7754 h -2.35743 v 1.4043 h -1.24414 v -7.9317 h 0.69922 v -2.3632 z m -13.66015,0.01 -1.54493,1.5528 v 9.5625 l 1.54493,1.5449 h 3.64257 l 1.54493,-1.5449 v -5.9668 h -3.39844 v 2.3632 h 1.03515 v 2.7774 h -1.99804 v -7.918 h 1.99804 v 1.4043 h 2.36329 v -2.2226 l -1.54297,-1.5528 z m 21.20117,0.01 v 2.3711 h 0.66601 v 7.9199 h -0.66601 v 2.3633 h 3.76953 v -2.3633 h -0.69922 v -2.7852 h 2.3457 v -2.3632 h -2.3457 v -2.7715 h 1.24609 v 1.4121 h 2.35742 v -3.7832 z m -13.36328,0.5566 h 3.17187 l 1.21094,1.2188 v 9.0996 l -1.21094,1.2109 h -3.17187 l -1.21094,-1.2109 v -9.0996 z m 6.39257,0 h 2.62891 v 1.2246 h -0.69922 v 9.0723 h 2.38477 v -1.4043 h 1.21679 v 2.6367 h -5.53125 v -1.2246 h 0.66407 v -9.0801 h -0.66407 z m -13.99414,0.01 h 3.16993 l 1.21093,1.2168 v 1.418 h -1.22461 v -1.4043 h -3.13672 v 9.0586 h 3.13672 v -3.916 h -1.0332 v -1.2246 h 2.25781 v 5.1621 l -1.20898,1.2109 h -3.17188 l -1.21093,-1.2109 v -9.0938 z m 21.53516,0.01 h 5.5332 v 2.6426 h -1.21875 v -1.4102 h -2.38476 v 3.9102 h 2.3457 v 1.2246 h -2.3457 v 3.9238 h 0.69922 v 1.2246 h -2.62891 v -1.2246 h 0.66602 v -9.0586 h -0.66602 z m -13.91211,1.2187 v 9.0645 h 3.13672 v -9.0645 z m 0.56836,0.5704 h 1.99805 v 7.9238 h -1.99805 z"
           id="path3529" /></g><path
         id="path3530"
         style="stroke-linecap:round;stroke-linejoin:round;paint-order:stroke fill markers"
         d="m 116.7443,7373.7303 c -8.80485,0 -15.99799,7.1952 -15.99799,16.0001 0,1.3194 0.16442,2.6014 0.4687,3.8297 0.88094,-0.032 1.76718,-0.059 2.65307,-0.086 a 13.411224,13.411224 0 0 1 -0.53589,-3.7445 13.411224,13.411224 0 0 1 13.41107,-13.411 13.411224,13.411224 0 0 1 13.41107,13.411 13.411224,13.411224 0 0 1 -0.53175,3.7264 c 0.88644,0.027 1.77394,0.053 2.65513,0.086 0.30133,-1.2227 0.46458,-2.4983 0.46458,-3.8111 0,-8.8049 -7.19313,-16.0001 -15.99799,-16.0001 z" /><path
         id="path3515"
         style="fill:#000000;fill-opacity:1;stroke-width:0.325903;stroke-linecap:round;stroke-linejoin:round;paint-order:stroke fill markers"
         d="m 130.07113,7390.8915 a 13.411224,13.411224 0 0 1 -0.54932,2.573 c 16.37951,0.4966 31.92225,1.9079 44.96315,4.1553 a 2.5871141,2.5871141 0 0 1 2.14767,2.5497 v 17.8945 a 2.5871141,2.5871141 0 0 1 -3.02307,2.5503 l -0.15555,-0.027 c -15.9084,-2.7354 -35.99681,-4.2525 -56.70971,-4.2525 -20.731907,0 -40.823305,1.5383 -56.709205,4.285 l -0.155546,0.027 a 2.5871141,2.5871141 0 0 1 -3.028239,-2.5487 v -17.9286 a 2.5871141,2.5871141 0 0 1 2.147673,-2.5492 c 13.042012,-2.2467 28.589907,-3.6476 44.969347,-4.1403 a 13.411224,13.411224 0 0 1 -0.5519,-2.572 c -16.30367,0.5075 -31.782483,1.9107 -44.85773,4.1631 a 5.1742281,5.1742281 0 0 0 -4.295345,5.0984 v 17.9286 a 5.1742281,5.1742281 0 0 0 6.055961,5.0979 l 0.155546,-0.027 c 15.6852,-2.712 35.663613,-4.2422 56.268918,-4.2467 20.5863,0 40.56167,1.5136 56.27047,4.2147 a 5.1742281,5.1742281 0 0 0 0.0103,0 l 0.15555,0.027 a 5.1742281,5.1742281 0 0 0 6.04614,-5.1 v -17.895 a 5.1742281,5.1742281 0 0 0 -4.29535,-5.0984 c -13.0758,-2.2533 -28.55185,-3.6678 -44.85979,-4.1791 z" /><path
         id="path3516"
         style="fill:#000000;stroke-width:0.325903"
         d="m 116.52364,7378.8535 c -1.73134,0.025 -3.40067,0.4671 -5.0059,1.3245 -0.6869,0.367 -1.9408,1.3091 -2.4846,1.8665 -1.6945,1.7368 -2.71074,3.7885 -3.04684,6.1521 -0.25576,1.7991 -0.0802,3.5434 0.52089,5.2085 1.6619,-0.04 3.33224,-0.065 5.00797,-0.086 -0.23275,-0.2454 -0.42544,-0.5204 -0.46561,-0.6884 -0.0559,-0.2346 0.0469,-0.5024 0.2682,-0.6991 0.3868,-0.344 0.98864,-0.3518 1.61644,-0.022 0.2945,0.155 0.34042,0.1973 0.62632,0.5778 0.2855,0.3804 0.3128,0.4345 0.3638,0.7286 0.005,0.027 0.003,0.05 0.007,0.075 0.63841,0 1.27013,-0.02 1.90996,-0.022 a 2.5871141,2.5871141 0 0 1 0.0408,-0.017 h 0.86093 c 0.82291,5e-4 1.63606,0.019 2.45669,0.024 -0.0133,-0.3863 0.18277,-0.8521 0.5855,-1.3121 0.3999,-0.4569 0.9211,-0.6717 1.4056,-0.5767 0.4647,0.09 0.7124,0.3059 0.7984,0.6961 0.0763,0.3448 -0.0974,0.811 -0.38861,1.2154 1.8038,0.021 3.59791,0.052 5.38572,0.096 0.24028,-0.6818 0.41364,-1.3943 0.51935,-2.1378 0.3361,-2.3635 -0.068,-4.6175 -1.2113,-6.7578 -0.3669,-0.6869 -1.30864,-1.9412 -1.86604,-2.4851 -1.7369,-1.6945 -3.78909,-2.7107 -6.15259,-3.0468 -0.59088,-0.084 -1.17472,-0.1217 -1.75183,-0.1132 z m 0.13591,1.5379 c 3.68816,-0.031 7.20312,2.1351 8.70799,5.7614 0.2889,0.6953 0.35659,1.0433 0.26459,1.342 -0.1528,0.4946 -0.58727,0.5827 -1.06867,0.2166 -0.3291,-0.2501 -0.63645,-0.3669 -0.92605,-0.3669 -0.2089,0 -0.28079,0.031 -0.48679,0.1855 -0.3652,0.2743 -0.5671,0.7179 -0.7028,1.541 -0.1034,0.6286 -0.11223,0.6519 -0.28783,0.7839 -0.1969,0.1481 -0.20204,0.1481 -0.96274,-0.018 -0.7563,-0.1648 -1.57887,0.2277 -2.07997,0.9927 -0.2355,0.3595 -0.34994,0.6477 -0.44494,1.1219 -0.0657,0.3269 -0.10559,0.4194 -0.21859,0.5044 -0.1968,0.1476 -0.38951,0.1525 -0.76791,0.019 -0.1819,-0.064 -0.47299,-0.1302 -0.64699,-0.1462 -0.3291,-0.031 -1.11987,0.085 -1.25057,0.1834 -0.1083,0.081 -0.36653,0.1157 -0.51263,0.068 -0.1733,-0.057 -0.27339,-0.2047 -0.55759,-0.8247 -0.1348,-0.2943 -0.35347,-0.6995 -0.48627,-0.9008 -0.5408,-0.8193 -1.24754,-1.1155 -2.11564,-0.8852 -0.3594,0.096 -0.56695,0.1 -0.73845,0.018 -0.2164,-0.1046 -0.26907,-0.211 -0.29507,-0.5953 -0.0458,-0.6867 -0.3554,-1.3488 -0.7612,-1.6299 -0.3488,-0.2421 -0.70091,-0.2332 -1.19941,0.03 -0.3324,0.1751 -0.55641,0.2282 -0.69711,0.1622 -0.3389,-0.1576 -0.4075,-0.8703 -0.1726,-1.7926 0.1595,-0.6265 0.33548,-1.0262 0.68368,-1.5539 0.9883,-1.4977 2.42814,-2.7168 4.04574,-3.4257 1.19993,-0.5258 2.44843,-0.7803 3.67782,-0.7906 z m -5.75107,3.128 c -0.19169,-0.022 -0.45066,0.087 -0.76016,0.356 -0.3043,0.2642 -0.33892,0.3707 -0.17312,0.5302 0.3206,0.3082 0.23147,1.0496 -0.25063,2.0836 -0.1025,0.2198 -0.20758,0.4528 -0.23358,0.5188 -0.0508,0.1288 0.0223,0.2726 0.13384,0.2626 0.289,-0.026 1.07447,-1.1331 1.39837,-1.9699 0.40363,-1.0432 0.30698,-1.732 -0.11472,-1.7813 z m 11.80858,0.05 c -0.52979,0.011 -0.53571,0.8848 0.0108,2.0598 h 5.2e-4 c 0.1292,0.2774 0.28751,0.5325 0.50281,0.8077 l 0.31367,0.4026 0.11266,-0.084 c 0.1085,-0.081 0.10622,-0.1018 -0.0641,-0.5901 -0.3321,-0.9515 -0.31888,-1.4496 0.0439,-1.6459 0.1524,-0.082 0.17834,-0.1152 0.16434,-0.2052 -0.0314,-0.2042 -0.66094,-0.6803 -0.97204,-0.7353 -0.04,-0.01 -0.0773,-0.01 -0.11265,-0.01 z m -2.56935,1.8676 c -0.0684,0 -0.13519,0.012 -0.19999,0.024 -0.3299,0.063 -0.73776,0.3018 -0.92346,0.5401 -0.1917,0.2457 -0.35863,0.7048 -0.35863,0.9963 h 5.1e-4 c -0.002,0.2078 0.0179,0.2729 0.0899,0.3069 0.1346,0.062 0.20313,0.025 0.32453,-0.1757 0.1789,-0.2959 0.62954,-0.6035 0.99684,-0.6805 0.6119,-0.1284 1.34974,0.101 1.90014,0.5917 0.2596,0.231 0.39697,0.2733 0.47697,0.1452 0.1043,-0.1663 -0.40722,-0.953 -0.81752,-1.2573 -0.45561,-0.3382 -1.01046,-0.5177 -1.48931,-0.4909 z m -6.83525,0.015 c -0.31342,-0.017 -0.64545,0.066 -1.00045,0.2476 -0.3556,0.1817 -0.76016,0.5724 -0.76016,0.7307 0.002,0.1543 0.15579,0.1969 0.38189,0.1059 0.8208,-0.329 1.70814,-0.035 2.08514,0.6899 0.1367,0.263 0.21738,0.5629 0.22738,0.8087 0.006,0.2168 0.15708,0.3508 0.28628,0.2538 0.1177,-0.088 0.28198,-0.6171 0.29198,-0.9405 0.0118,-0.3764 -0.0732,-0.7684 -0.23358,-1.0806 -0.1186,-0.2306 -0.18276,-0.3082 -0.39016,-0.4677 -0.2798,-0.2151 -0.57489,-0.3311 -0.88832,-0.3478 z m 3.4215,1.9606 c -0.32968,-0.01 -0.61778,0.057 -0.95033,0.2031 -0.487,0.2134 -0.97492,0.6993 -1.15032,1.1452 h 5.2e-4 c -0.056,0.1405 -0.0513,0.1958 0.0217,0.2728 0.0906,0.096 0.0968,0.094 0.45941,-0.1426 0.6957,-0.4523 1.37172,-0.5437 2.13062,-0.2889 0.5688,0.1911 1.12975,0.7236 1.36425,1.2956 0.1297,0.3164 0.22352,0.3889 0.36432,0.2832 0.099,-0.074 0.12096,-0.541 0.045,-0.9152 -0.1983,-0.9705 -0.95688,-1.6842 -1.93838,-1.8237 -0.1223,-0.017 -0.23686,-0.027 -0.34675,-0.03 z m -7.36699,1.5607 c 0.35818,0.041 0.7028,0.4239 0.90485,1.0485 0.1182,0.3589 0.17152,1.0302 0.10852,1.3477 -0.0976,0.5022 -0.50968,0.6212 -0.97048,0.2796 h -5.2e-4 c -0.2592,-0.1925 -0.65486,-0.7117 -0.75086,-0.9855 -0.2458,-0.7014 -0.10303,-1.3597 0.35037,-1.6138 0.11758,-0.066 0.23872,-0.09 0.35812,-0.077 z m 14.59704,0.1901 c 0.2618,-0.022 0.47683,0.096 0.68833,0.3773 0.2245,0.2975 0.26366,0.567 0.14986,1.0387 -0.1497,0.6196 -0.44169,1.0471 -0.85369,1.2506 -0.2116,0.1041 -0.63184,0.063 -0.81804,-0.08 v 0 c -0.1907,-0.1471 -0.19473,-0.1529 -0.25373,-0.4191 -0.0684,-0.3086 0.0449,-0.9984 0.22841,-1.3896 0.1953,-0.4163 0.56886,-0.7548 0.85886,-0.7788 z m 2.06137,0.065 c 0.1066,-0.01 0.21609,0.1815 0.29869,0.5721 0.0607,0.2875 -0.0365,1.3462 -0.14417,1.5694 -0.0867,0.1797 -0.20033,0.2607 -0.28733,0.2067 h 5.2e-4 c -0.1131,-0.071 -0.13425,-0.1214 -0.17725,-0.4238 -0.063,-0.4441 -0.0541,-0.839 0.0279,-1.3064 0.0711,-0.4032 0.17503,-0.6105 0.28163,-0.6191 z m -18.65932,0.691 c 0.0981,-0.033 0.28218,0.2259 0.36018,0.5079 0.1527,0.5509 0.15862,1.5171 0.01,1.6289 h -5.2e-4 c -0.1356,0.1019 -0.36765,-0.2944 -0.45165,-0.77 -0.0998,-0.5717 -0.0551,-1.3208 0.0822,-1.3668 z" /><g
         id="g3523"
         transform="matrix(0.32590305,0,0,0.32590305,-920.91302,6729.9323)"
         style="fill:#d40000;fill-opacity:1"><path
           style="color:#000000;font-style:normal;font-variant:normal;font-weight:normal;font-stretch:normal;font-size:medium;line-height:normal;font-family:sans-serif;font-variant-ligatures:normal;font-variant-position:normal;font-variant-caps:normal;font-variant-numeric:normal;font-variant-alternates:normal;font-variant-east-asian:normal;font-feature-settings:normal;font-variation-settings:normal;text-indent:0;text-align:start;text-decoration-line:none;text-decoration-style:solid;text-decoration-color:#000000;letter-spacing:normal;word-spacing:normal;text-transform:none;writing-mode:lr-tb;direction:ltr;text-orientation:mixed;dominant-baseline:auto;baseline-shift:baseline;text-anchor:start;white-space:normal;shape-padding:0;shape-margin:0;inline-size:0;clip-rule:nonzero;display:inline;overflow:visible;visibility:visible;isolation:auto;mix-blend-mode:normal;color-interpolation:sRGB;color-interpolation-filters:linearRGB;solid-color:#000000;solid-opacity:1;vector-effect:none;fill:#d40000;fill-opacity:1;fill-rule:nonzero;stroke:none;stroke-linecap:round;stroke-linejoin:round;stroke-miterlimit:4;stroke-dasharray:none;stroke-dashoffset:0;stroke-opacity:1;-inkscape-stroke:none;paint-order:stroke fill markers;color-rendering:auto;image-rendering:auto;shape-rendering:auto;text-rendering:auto;enable-background:accumulate;stop-color:#000000;stop-opacity:1"
           d="m 3308.9753,2050.3209 c -1.4629,-0.2127 -2.649,0.7983 -2.6489,2.2578 v 8.8163 10.1463 8.8166 c -2e-4,1.4595 1.186,2.8142 2.6489,3.0253 l 8.8356,1.2775 10.1654,1.4698 10.1621,1.4693 8.847,1.2791 v 7.5204 l -8.847,-1.278 -10.1621,-1.4681 -10.1654,-1.4686 -8.8356,-1.2764 c -1.4629,-0.2118 -2.649,0.7999 -2.6489,2.2594 v 7.4846 c -2e-4,1.4595 1.186,2.8137 2.6489,3.0244 l 8.8356,1.2746 10.1654,1.4665 10.1621,1.4661 10.1606,1.4658 8.8243,1.273 c 1.4607,0.2111 2.645,-0.8002 2.6448,-2.2585 v -8.8086 -10.1399 -8.8065 c 4e-4,-1.4585 -1.1839,-2.8124 -2.6448,-3.0235 l -8.8243,-1.2777 -10.1606,-1.4711 -10.1621,-1.4714 -8.8522,-1.2817 v -7.5237 l 8.8522,1.2828 10.1621,1.4725 10.1606,1.4724 8.8243,1.2787 c 1.4607,0.2121 2.645,-0.7985 2.6448,-2.2568 v -7.4781 c 1e-4,-1.4583 -1.1841,-2.8122 -2.6448,-3.0237 l -8.8243,-1.2806 -10.1606,-1.4744 -10.1621,-1.4746 -10.1654,-1.4751 z"
           id="path3518" /><path
           style="color:#000000;font-style:normal;font-variant:normal;font-weight:normal;font-stretch:normal;font-size:medium;line-height:normal;font-family:sans-serif;font-variant-ligatures:normal;font-variant-position:normal;font-variant-caps:normal;font-variant-numeric:normal;font-variant-alternates:normal;font-variant-east-asian:normal;font-feature-settings:normal;font-variation-settings:normal;text-indent:0;text-align:start;text-decoration-line:none;text-decoration-style:solid;text-decoration-color:#000000;letter-spacing:normal;word-spacing:normal;text-transform:none;writing-mode:lr-tb;direction:ltr;text-orientation:mixed;dominant-baseline:auto;baseline-shift:baseline;text-anchor:start;white-space:normal;shape-padding:0;shape-margin:0;inline-size:0;clip-rule:nonzero;display:inline;overflow:visible;visibility:visible;isolation:auto;mix-blend-mode:normal;color-interpolation:sRGB;color-interpolation-filters:linearRGB;solid-color:#000000;solid-opacity:1;vector-effect:none;fill:#d40000;fill-opacity:1;fill-rule:nonzero;stroke:none;stroke-linecap:round;stroke-linejoin:round;stroke-miterlimit:4;stroke-dasharray:none;stroke-dashoffset:0;stroke-opacity:1;-inkscape-stroke:none;paint-order:stroke fill markers;color-rendering:auto;image-rendering:auto;shape-rendering:auto;text-rendering:auto;enable-background:accumulate;stop-color:#000000;stop-opacity:1"
           d="m 3248.9376,2045.3081 c -1.4637,-0.1144 -2.6505,0.977 -2.6504,2.4374 v 7.4893 c -2e-4,1.4605 1.1867,2.7365 2.6504,2.8496 l 8.8391,0.6857 8.8545,0.687 v 8.8367 10.1474 10.1496 8.8171 c -10e-5,1.4595 1.1851,2.7334 2.647,2.8451 l 7.4962,0.5736 c 1.4615,0.1123 2.6464,-0.9799 2.6462,-2.4392 v -8.8141 -10.1462 -10.144 -8.8339 l 8.8425,0.686 8.8208,0.6844 c 1.4598,0.1134 2.6431,-0.977 2.6429,-2.4353 v -7.4789 c 1e-4,-1.4582 -1.1832,-2.7325 -2.6429,-2.8461 l -8.8208,-0.6872 -10.1568,-0.7914 -10.1622,-0.7917 -10.1674,-0.7922 z"
           id="path3519" /><path
           style="color:#000000;font-style:normal;font-variant:normal;font-weight:normal;font-stretch:normal;font-size:medium;line-height:normal;font-family:sans-serif;font-variant-ligatures:normal;font-variant-position:normal;font-variant-caps:normal;font-variant-numeric:normal;font-variant-alternates:normal;font-variant-east-asian:normal;font-feature-settings:normal;font-variation-settings:normal;text-indent:0;text-align:start;text-decoration-line:none;text-decoration-style:solid;text-decoration-color:#000000;letter-spacing:normal;word-spacing:normal;text-transform:none;writing-mode:lr-tb;direction:ltr;text-orientation:mixed;dominant-baseline:auto;baseline-shift:baseline;text-anchor:start;white-space:normal;shape-padding:0;shape-margin:0;inline-size:0;clip-rule:nonzero;display:inline;overflow:visible;visibility:visible;isolation:auto;mix-blend-mode:normal;color-interpolation:sRGB;color-interpolation-filters:linearRGB;solid-color:#000000;solid-opacity:1;vector-effect:none;fill:#d40000;fill-opacity:1;fill-rule:nonzero;stroke:none;stroke-linecap:round;stroke-linejoin:round;stroke-miterlimit:4;stroke-dasharray:none;stroke-dashoffset:0;stroke-opacity:1;-inkscape-stroke:none;paint-order:stroke fill markers;color-rendering:auto;image-rendering:auto;shape-rendering:auto;text-rendering:auto;enable-background:accumulate;stop-color:#000000;stop-opacity:1"
           d="m 3188.8961,2043.5489 c -1.4634,-0.037 -2.6498,1.1175 -2.6497,2.5785 v 8.8267 10.1584 10.1582 10.1605 8.8265 c -2e-4,1.4611 1.1863,2.6738 2.6497,2.7086 l 8.8393,0.2106 10.1689,0.2423 10.1621,0.2421 10.1567,0.242 8.8211,0.2102 c 1.4597,0.035 2.643,-1.1198 2.6428,-2.5789 v -7.4831 c 1e-4,-1.459 -1.1832,-2.6704 -2.6428,-2.7055 l -8.8211,-0.2131 -10.1567,-0.2453 -10.1621,-0.2454 -8.8538,-0.2139 v -7.5317 l 8.8538,0.2156 10.1621,0.2474 13.9015,0.3384 c 1.4601,0.036 2.6438,-1.1185 2.6436,-2.5778 v -7.484 c 5e-4,-1.4595 -1.1833,-2.672 -2.6436,-2.7079 l -13.9015,-0.3429 -10.1621,-0.2507 -8.8538,-0.2185 v -7.5317 l 8.8538,0.2202 10.1621,0.2526 10.1567,0.2526 8.8211,0.2193 c 1.4597,0.036 2.643,-1.1171 2.6428,-2.5761 v -7.4832 c 1e-4,-1.459 -1.1832,-2.6716 -2.6428,-2.7082 l -8.8211,-0.2222 -10.1567,-0.2559 -10.1621,-0.2559 -10.1689,-0.2562 z"
           id="path3520" /><path
           style="color:#000000;font-style:normal;font-variant:normal;font-weight:normal;font-stretch:normal;font-size:medium;line-height:normal;font-family:sans-serif;font-variant-ligatures:normal;font-variant-position:normal;font-variant-caps:normal;font-variant-numeric:normal;font-variant-alternates:normal;font-variant-east-asian:normal;font-feature-settings:normal;font-variation-settings:normal;text-indent:0;text-align:start;text-decoration-line:none;text-decoration-style:solid;text-decoration-color:#000000;letter-spacing:normal;word-spacing:normal;text-transform:none;writing-mode:lr-tb;direction:ltr;text-orientation:mixed;dominant-baseline:auto;baseline-shift:baseline;text-anchor:start;white-space:normal;shape-padding:0;shape-margin:0;inline-size:0;clip-rule:nonzero;display:inline;overflow:visible;visibility:visible;isolation:auto;mix-blend-mode:normal;color-interpolation:sRGB;color-interpolation-filters:linearRGB;solid-color:#000000;solid-opacity:1;vector-effect:none;fill:#d40000;fill-opacity:1;fill-rule:nonzero;stroke:none;stroke-linecap:round;stroke-linejoin:round;stroke-miterlimit:4;stroke-dasharray:none;stroke-dashoffset:0;stroke-opacity:1;-inkscape-stroke:none;paint-order:stroke fill markers;color-rendering:auto;image-rendering:auto;shape-rendering:auto;text-rendering:auto;enable-background:accumulate;stop-color:#000000;stop-opacity:1"
           d="m 3128.8556,2044.8376 c -1.4624,0.038 -2.648,1.2548 -2.6479,2.7175 v 8.8364 10.1695 10.1716 10.1695 8.8363 c -2e-4,1.4627 1.1854,2.6167 2.6479,2.5774 l 7.4992,-0.2008 c 1.4623,-0.039 2.6479,-1.2563 2.6477,-2.7189 v -8.835 -10.168 -10.1701 -2.7849 l 12.0626,11.7477 c 1.0334,1.0066 2.709,0.9621 3.7424,-0.099 l 12.0585,-12.3836 v 2.784 10.1668 10.1648 8.8322 c -2e-4,1.462 1.1843,2.6155 2.6455,2.5762 l 7.4926,-0.2007 c 1.4608,-0.039 2.645,-1.2558 2.6448,-2.7175 v -8.8309 -10.1633 -10.1653 -10.1632 -8.831 c 10e-5,-1.4617 -1.184,-2.6157 -2.6448,-2.5774 l -8.2737,0.2165 c -0.7016,0.018 -1.3745,0.3149 -1.8706,0.8243 l -13.9235,14.296 -13.9301,-13.5669 c -0.4964,-0.4836 -1.1698,-0.745 -1.8719,-0.7266 z"
           id="path3521" /><path
           style="color:#000000;font-style:normal;font-variant:normal;font-weight:normal;font-stretch:normal;font-size:medium;line-height:normal;font-family:sans-serif;font-variant-ligatures:normal;font-variant-position:normal;font-variant-caps:normal;font-variant-numeric:normal;font-variant-alternates:normal;font-variant-east-asian:normal;font-feature-settings:normal;font-variation-settings:normal;text-indent:0;text-align:start;text-decoration-line:none;text-decoration-style:solid;text-decoration-color:#000000;letter-spacing:normal;word-spacing:normal;text-transform:none;writing-mode:lr-tb;direction:ltr;text-orientation:mixed;dominant-baseline:auto;baseline-shift:baseline;text-anchor:start;white-space:normal;shape-padding:0;shape-margin:0;inline-size:0;clip-rule:nonzero;display:inline;overflow:visible;visibility:visible;isolation:auto;mix-blend-mode:normal;color-interpolation:sRGB;color-interpolation-filters:linearRGB;solid-color:#000000;solid-opacity:1;vector-effect:none;fill:#d40000;fill-opacity:1;fill-rule:nonzero;stroke:none;stroke-linecap:round;stroke-linejoin:round;stroke-miterlimit:4;stroke-dasharray:none;stroke-dashoffset:0;stroke-opacity:1;-inkscape-stroke:none;paint-order:stroke fill markers;color-rendering:auto;image-rendering:auto;shape-rendering:auto;text-rendering:auto;enable-background:accumulate;stop-color:#000000;stop-opacity:1"
           d="m 3068.8123,2049.2656 c -1.4603,0.1169 -2.644,1.3967 -2.6439,2.8581 v 8.8293 10.1614 10.1634 10.1614 8.8292 c -2e-4,1.4616 1.1836,2.5527 2.6439,2.4369 l 8.8233,-0.6988 10.1583,-0.8045 10.1622,-0.8048 10.1681,-0.8053 8.8366,-0.6998 c 1.4629,-0.1157 2.649,-1.3957 2.6488,-2.8586 v -8.8381 -10.1716 -10.1737 -10.1716 -8.8382 c 1e-4,-1.4629 -1.1859,-2.5538 -2.6488,-2.4363 l -8.8366,0.7087 -10.1681,0.8155 -10.1622,0.815 -10.1583,0.8147 z m 10.1352,11.9781 8.8464,-0.7074 10.1622,-0.8126 8.8528,-0.7078 v 8.8556 10.1712 8.8557 l -8.8528,0.7032 -10.1622,0.8073 -8.8464,0.7027 v -8.851 -10.1659 z"
           id="path3522" /><path
           style="color:#000000;font-style:normal;font-variant:normal;font-weight:normal;font-stretch:normal;font-size:medium;line-height:normal;font-family:sans-serif;font-variant-ligatures:normal;font-variant-position:normal;font-variant-caps:normal;font-variant-numeric:normal;font-variant-alternates:normal;font-variant-east-asian:normal;font-feature-settings:normal;font-variation-settings:normal;text-indent:0;text-align:start;text-decoration-line:none;text-decoration-style:solid;text-decoration-color:#000000;letter-spacing:normal;word-spacing:normal;text-transform:none;writing-mode:lr-tb;direction:ltr;text-orientation:mixed;dominant-baseline:auto;baseline-shift:baseline;text-anchor:start;white-space:normal;shape-padding:0;shape-margin:0;inline-size:0;clip-rule:nonzero;display:inline;overflow:visible;visibility:visible;isolation:auto;mix-blend-mode:normal;color-interpolation:sRGB;color-interpolation-filters:linearRGB;solid-color:#000000;solid-opacity:1;vector-effect:none;fill:#d40000;fill-opacity:1;fill-rule:nonzero;stroke:none;stroke-linecap:round;stroke-linejoin:round;stroke-miterlimit:4;stroke-dasharray:none;stroke-dashoffset:0;stroke-opacity:1;-inkscape-stroke:none;paint-order:stroke fill markers;color-rendering:auto;image-rendering:auto;shape-rendering:auto;text-rendering:auto;enable-background:accumulate;stop-color:#000000;stop-opacity:1"
           d="m 3010.7525,2057.2984 c -1.4595,0.2139 -2.6426,1.5719 -2.6425,3.0331 v 8.8275 10.1594 10.1592 10.1615 8.8274 c -2e-4,1.4612 1.183,2.4742 2.6425,2.2623 l 8.8179,-1.2791 10.1565,-1.4734 10.1646,-1.4745 10.1689,-1.4751 6.8572,-0.9947 c 1.4639,-0.212 2.6509,-1.5707 2.6507,-3.0343 v -7.5057 c 1e-4,-1.4636 -1.1868,-2.4774 -2.6507,-2.2641 l -6.8572,0.9973 -10.1689,1.4791 -10.1646,1.4784 -8.845,1.2865 v -8.8526 -10.1632 -8.8505 l 8.845,-1.2939 10.1646,-1.4869 10.1689,-1.4876 6.8572,-1.0031 c 1.4639,-0.2138 2.6509,-1.5739 2.6507,-3.0375 v -7.5057 c 1e-4,-1.4636 -1.1868,-2.476 -2.6507,-2.2609 l -6.8572,1.0058 -10.1689,1.4914 -10.1646,1.4909 -10.1565,1.4896 z"
           id="path3523" /></g></g></g></svg>
