<?xml version="1.0" encoding="UTF-8" standalone="no"?>
<svg
   width="1072.9434"
   height="998.79688"
   viewBox="0 0 283.88292 264.26501"
   version="1.1"
   id="svg16"
   xml:space="preserve"
   xmlns="http://www.w3.org/2000/svg"
   xmlns:svg="http://www.w3.org/2000/svg"
   xmlns:rdf="http://www.w3.org/1999/02/22-rdf-syntax-ns#"
   xmlns:cc="http://creativecommons.org/ns#"
   xmlns:dc="http://purl.org/dc/elements/1.1/"><defs
     id="defs10" /><metadata
     id="metadata13"><rdf:RDF><cc:Work
         rdf:about=""><dc:format>image/svg+xml</dc:format><dc:type
           rdf:resource="http://purl.org/dc/dcmitype/StillImage" /></cc:Work></rdf:RDF></metadata><g
     id="layer1"
     transform="translate(-776.34744,-8977.2909)"><path
       id="path1628"
       style="fill:#00ff00;stroke-width:0.200575;stroke-linejoin:round;paint-order:stroke fill markers"
       d="m 856.90997,8977.2908 c -33.73392,0 -64.14621,21.8535 -77.05576,55.3703 -1.39312,3.617 -2.56455,7.3283 -3.50676,11.1099 1.24518,71.3151 96.07757,142.9962 141.32417,197.7849 28.62832,-65.3127 170.02558,-131.5232 137.81748,-208.8948 -12.9096,-33.5168 -43.3219,-55.3703 -77.0558,-55.3703 -3.78327,3e-4 -7.56214,0.2774 -11.31042,0.8294 -15.08081,2.2209 -29.30893,8.8378 -41.14271,19.1337 -2.94125,2.5592 -5.71717,5.3306 -8.30853,8.2951 -15.76182,-18.0304 -37.75019,-28.2565 -60.76167,-28.2582 z" /></g></svg>
