<?xml version="1.0" encoding="UTF-8" standalone="no"?>
<svg
   width="493.40982"
   height="123.1875"
   viewBox="0 0 130.54801 32.59336"
   version="1.1"
   id="svg16"
   xml:space="preserve"
   xmlns="http://www.w3.org/2000/svg"
   xmlns:svg="http://www.w3.org/2000/svg"
   xmlns:rdf="http://www.w3.org/1999/02/22-rdf-syntax-ns#"
   xmlns:cc="http://creativecommons.org/ns#"
   xmlns:dc="http://purl.org/dc/elements/1.1/"><defs
     id="defs10" /><metadata
     id="metadata13"><rdf:RDF><cc:Work
         rdf:about=""><dc:format>image/svg+xml</dc:format><dc:type
           rdf:resource="http://purl.org/dc/dcmitype/StillImage" /></cc:Work></rdf:RDF></metadata><g
     id="layer1"
     transform="translate(165.89348,-8340.8632)"><path
       id="path1952"
       style="-inkscape-font-specification:'I.F.C. HARDBALL, Normal';fill:#000000;fill-opacity:1;stroke-width:0.553793;stroke-linecap:square;paint-order:stroke fill markers"
       d="m -100.26882,8341.4573 c -0.35299,0.8106 -0.62251,1.7209 -0.91829,2.576 0.56227,0.5364 0.89575,1.2789 0.78859,2.0392 l -0.0181,2.667 c -0.73318,-0.01 -1.46669,-0.01 -2.19987,0 l -0.0165,-2.7285 c 0,-0.3599 0.14403,-0.7467 0.56275,-1.2129 0.0945,-0.1053 0.1893,-0.2106 0.28422,-0.3157 -0.0465,-0.1308 -0.0925,-0.2614 -0.13901,-0.3922 -0.0609,-0.171 -0.10883,-0.3021 -0.14366,-0.3949 -0.0172,-0.047 -0.0306,-0.084 -0.0439,-0.1178 -0.006,-0.013 -0.0125,-0.026 -0.0186,-0.041 -0.15107,-0.462 -0.27394,-0.8293 -0.36122,-1.0738 -0.046,-0.1281 -0.0824,-0.2269 -0.11576,-0.308 -0.0166,-0.04 -0.0316,-0.074 -0.0579,-0.1246 -0.0133,-0.025 -0.0254,-0.053 -0.0682,-0.1111 -0.0216,-0.029 -0.0477,-0.067 -0.11937,-0.1292 -0.036,-0.031 -0.16642,-0.1097 -0.16692,-0.11 -5.6e-4,-2e-4 -0.37633,-0.085 -0.37672,-0.085 -0.23455,0 -0.46882,0.01 -0.70331,0.01 -0.38033,-0.2459 -0.92968,-0.06 -1.37046,-0.1038 -0.37082,0.01 -0.74148,0.018 -1.11208,0.029 -0.43627,0.012 -0.8724,0.025 -1.30896,0.04 -0.0321,0.1038 -0.0629,0.2015 -0.0951,0.3054 l -5.1e-4,-0.01 c -0.19837,0.7295 -0.49102,1.4438 -0.62891,2.1833 0.0421,0.3427 0.47494,0.5322 0.58498,0.8754 0.25042,0.457 0.25231,0.9721 0.2496,1.4847 -0.0795,-0.1364 -0.15937,-0.2729 -0.23926,-0.4093 -0.663,-1.1274 -1.20434,-2.0186 -1.55805,-2.5936 -0.18032,-0.2931 -0.32397,-0.5222 -0.42426,-0.6806 -0.0504,-0.08 -0.0902,-0.1431 -0.12247,-0.1922 -0.0327,-0.049 -0.024,-0.05 -0.10387,-0.1458 -0.0832,-0.1 -0.16614,-0.1999 -0.2496,-0.2997 -0.36055,0.018 -0.72092,0.037 -1.08159,0.057 -0.0113,-0.016 -0.0228,-0.032 -0.0341,-0.049 -0.10402,-0.068 -0.23331,-0.083 -0.37258,-0.078 -0.23212,0.01 -0.49225,0.075 -0.71107,0.054 -3.27535,0.2054 -6.55445,0.5078 -9.82886,0.9157 -0.0661,0.041 -0.13186,0.083 -0.19792,0.124 -0.38055,0.8333 -0.84695,1.818 -1.17664,2.6779 -1.11187,-0.7886 -0.51592,-0.4117 -1.15427,-0.7482 -0.47859,-0.2522 -1.2595,-0.6588 -2.23655,-1.1478 -0.0784,-0.038 -0.15713,-0.076 -0.23565,-0.1142 -0.30676,0.048 -0.52037,0.021 -0.82698,0.071 -0.10478,-0.043 -0.21322,-0.07 -0.32556,-0.075 -0.12038,-0.01 -0.24554,0.012 -0.37569,0.058 -2.67344,0.4522 -5.34058,0.9792 -7.99693,1.5864 -0.06,0.088 -0.11957,0.1758 -0.17931,0.2636 h -5.2e-4 c -0.067,0.7855 -0.22635,1.5777 -0.22428,2.359 0.0826,0.3102 0.51357,0.3998 0.69247,0.6749 0.56716,0.6298 0.5307,1.5471 0.77359,2.31 0.62542,2.7435 1.2797,5.4817 1.88826,8.2284 0.0798,0.5382 -0.13107,1.0614 -0.38034,1.5172 0.38643,0.7197 0.79273,1.4328 1.23455,2.1141 0.16802,0.143 0.35799,0.1189 0.55346,0.079 0.038,0 0.17773,0.6006 0.87978,0.561 1.05276,-0.2314 2.11011,-0.4486 3.1719,-0.6517 0.11403,-1.0081 0.23573,-2.0165 0.36432,-3.0251 -0.11386,-0.087 -0.2278,-0.173 -0.3421,-0.2594 -0.10949,-0.083 -0.2027,-0.1675 -0.28732,-0.2538 -0.25291,-0.3071 -0.38033,-0.568 -0.42065,-0.7798 l -0.38292,-2.0122 c 0.51948,0.8222 1.03409,1.633 1.50637,2.4908 0.1575,0.2346 0.1181,0.5087 0.0522,0.757 0.1035,0.4557 0.52641,0.7461 0.76481,1.1307 0.22723,0.2939 0.46135,0.5815 0.7059,0.8589 0.10521,-0.018 0.21046,-0.036 0.31574,-0.054 0.11088,0.1397 0.20365,0.2533 0.28216,0.3447 0.0861,0.1002 0.17208,0.2003 0.25786,0.3007 1.2045,-0.2015 2.41429,-0.3855 3.6282,-0.5534 v -0.6341 c -3.3e-4,-0.1124 -0.006,-0.2301 -0.014,-0.57 0.009,0.2964 -0.0341,-1.2442 -0.0403,-1.4769 -0.001,-0.046 -0.001,-0.048 -5.1e-4,-0.016 -0.006,-0.1576 -0.008,-0.3152 -0.0119,-0.4728 -0.14853,-0.06 -0.29705,-0.1193 -0.44597,-0.1788 -0.40454,-0.1608 -0.7333,-0.4312 -1.03146,-0.8739 -0.16292,-0.274 -0.82475,-1.4568 -1.71514,-2.9952 0.0736,-0.094 0.15582,-0.2001 0.26769,-0.3421 0.36871,-0.468 0.97354,-1.228 1.75234,-2.1698 0.0684,-0.082 0.1369,-0.1649 0.20568,-0.2471 l -0.0434,-0.3147 c -0.0343,-0.2497 -0.11407,-0.3069 -0.154,-0.3571 -0.0404,-0.05 -0.0657,-0.074 -0.0879,-0.095 -0.0448,-0.041 -0.0744,-0.062 -0.10542,-0.085 -0.0216,-0.016 -0.0425,-0.032 -0.0641,-0.047 -0.0244,-0.011 -0.0487,-0.022 -0.0729,-0.032 h -5.2e-4 -5.1e-4 -5.2e-4 c -2.5e-4,0 -0.001,-4e-4 -0.002,-5e-4 -0.0105,0 -0.0429,-0.033 -0.0765,-0.2733 l -0.0538,-0.385 c -0.0792,-0.5672 -0.20068,-1.4903 -0.3607,-2.7497 0.15611,0.2124 0.45189,0.3072 0.73846,0.4036 0.0229,0.039 0.0426,0.065 0.0594,0.085 0.0393,0.049 0.0636,0.072 0.0842,0.09 0.041,0.037 0.0641,0.053 0.0863,0.069 0.0443,0.032 0.0807,0.055 0.12557,0.083 0.0205,0.013 0.0411,0.026 0.0615,0.039 0.0227,0.01 0.0454,0.018 0.0677,0.027 0.85411,0.3381 1.43537,0.5891 1.65727,0.6961 0.0686,0.033 0.13716,0.066 0.20567,0.099 0.21963,-0.027 0.43918,-0.052 0.65887,-0.078 0.0624,-0.1168 0.12484,-0.2337 0.18759,-0.3504 0.17909,-0.3331 0.42306,-0.6884 0.72554,-1.0583 0.30783,-0.3101 0.60299,-0.5053 0.90227,-0.6139 0.32003,3.1752 0.661,6.3486 0.96376,9.525 0.0133,0.5457 -0.2678,1.0372 -0.58601,1.4515 0.33803,0.7718 0.64412,1.5612 1.01079,2.3162 0.15166,0.1618 0.3431,0.1521 0.54571,0.1377 0.14748,0.4015 0.39263,0.6309 0.81497,0.6759 0.99373,-0.092 1.9896,-0.1737 2.98742,-0.246 0.0918,-0.1109 0.18368,-0.2221 0.27595,-0.3328 0.0144,-0.037 0.029,-0.073 0.0439,-0.109 0.0728,-0.1833 0.0511,-0.1606 0.077,-0.2626 0.0255,-0.1017 0.0583,-0.2374 0.10077,-0.4139 0.066,-0.2746 0.2967,-1.2497 0.36277,-1.5244 0.0316,-0.1325 0.0634,-0.2649 0.0951,-0.3974 -0.094,-0.097 -0.18836,-0.1944 -0.28267,-0.2915 -0.40415,-0.417 -0.5702,-0.7867 -0.59789,-1.1829 l -0.6873,-9.8407 c 0.079,-0.01 0.15765,-0.011 0.23668,-0.017 0.21742,-0.015 0.46416,0.017 0.75551,0.1184 0.0116,0.01 0.0225,0.01 0.0336,0.012 0.0122,0.01 0.024,0.01 0.0362,0.01 0.0325,0.01 0.0784,0.025 0.13539,0.052 0.27808,0.2596 0.52733,0.5461 0.75345,0.8475 0.10044,0.01 0.19516,-0.01 0.28577,-0.027 0.11895,0.1266 0.22927,0.2562 0.33073,0.3881 0.0813,0.1053 0.16237,0.2108 0.24339,0.3163 0.13596,-0.01 0.27178,-0.014 0.40773,-0.021 5e-4,0 0.12725,-0.016 0.16175,-0.024 0.0349,-0.01 0.058,-0.017 0.0765,-0.023 0.0366,-0.013 0.0559,-0.024 0.0729,-0.032 0.0338,-0.016 0.0533,-0.027 0.0724,-0.037 0.0382,-0.022 0.0728,-0.043 0.11472,-0.069 0.0841,-0.052 0.19178,-0.121 0.33383,-0.2135 0.28343,-0.1844 0.69486,-0.4571 1.24023,-0.8149 0.15843,-0.1039 0.31694,-0.2077 0.47594,-0.3111 7.5e-4,0.1842 0.006,0.367 0.0274,0.5452 0.096,2.8974 0.22341,5.7959 0.30128,8.6925 -0.0382,0.5332 -0.32837,0.9991 -0.67128,1.388 0.24533,0.7895 0.5243,1.575 0.84129,2.3332 0.14051,0.1663 0.3272,0.1656 0.5271,0.1637 0.12052,0.4027 0.36754,0.6761 0.78085,0.7304 1.09225,-0.03 2.18432,-0.049 3.27629,-0.056 0.056,-0.1591 0.11255,-0.3185 0.16898,-0.4775 0.0899,-0.2539 0.25258,-0.8039 0.63769,-2.0371 0.0404,-0.1298 0.0816,-0.2599 0.12247,-0.3896 -0.087,-0.1039 -0.17415,-0.2074 -0.26148,-0.3111 -0.38943,-0.4618 -0.53454,-0.85 -0.53692,-1.233 l -0.0176,-2.8474 c 0.7125,-0.01 1.42455,-0.01 2.13682,0 -0.003,0.9007 0.0168,1.8032 -0.0413,2.6991 -0.0807,0.5187 -0.39233,0.9502 -0.72399,1.3348 0.26283,0.7765 0.44367,1.5867 0.74466,2.3445 0.13531,0.1634 0.31701,0.1493 0.51263,0.1554 0.09965,0.4043 0.331088,0.7096 0.7431,0.7788 0.983701,0.015 1.96669,0.039 2.949174,0.073 0.148527,-0.071 0.296998,-0.1418 0.445968,-0.2124 0.303644,-0.8782 0.612004,-1.756 0.925008,-2.6324 -0.07864,-0.1062 -0.15719,-0.2122 -0.236161,-0.3183 -0.363122,-0.4868 -0.491483,-0.8893 -0.476974,-1.2754 l 0.369487,-9.8723 c 0.01551,-0.4172 0.183454,-0.8057 0.606164,-1.2376 0.09558,-0.098 0.191405,-0.1958 0.287321,-0.2935 -0.036,-0.1293 -0.07155,-0.2584 -0.107487,-0.3876 -0.130584,-0.4704 -0.234725,-0.8349 -0.307991,-1.0837 -0.03711,-0.1253 -0.06645,-0.2235 -0.09043,-0.2986 -0.01218,-0.038 -0.02249,-0.068 -0.03411,-0.1003 1.82e-4,-0.01 -0.0051,-0.014 -0.0072,-0.017 l -5.17e-4,-5e-4 v -5e-4 c -0.04929,-0.1847 -0.09173,-0.3376 -0.130225,-0.4542 -0.02104,-0.063 -0.03868,-0.115 -0.0708,-0.1855 -0.01606,-0.035 -0.03267,-0.073 -0.08423,-0.1463 -0.02603,-0.037 -0.05832,-0.083 -0.13901,-0.1504 -0.04043,-0.034 -0.09392,-0.072 -0.174666,-0.1095 -0.04043,-0.019 -0.08764,-0.038 -0.142627,-0.051 -0.05483,-0.014 -0.18513,-0.027 -0.185518,-0.027 l 5.16e-4,-0.01 c -0.22871,-0.01 -0.45758,-0.014 -0.686263,-0.021 -0.338639,-0.2776 -0.87619,-0.096 -1.292944,-0.1654 -0.823545,-0.018 -1.646807,-0.03 -2.470135,-0.035 z m 14.086483,0.8128 c -0.08074,0.063 -0.161268,0.1256 -0.241845,0.1887 -0.350938,0.7333 -0.67538,1.484 -1.000456,2.2267 0.445914,0.572 0.794378,1.2704 0.613399,1.9901 -0.293843,3.2232 -0.562968,6.4727 -0.871264,9.6795 -0.04652,0.2338 -0.124144,0.4625 -0.255282,0.6625 -0.124936,-0.2535 -0.216242,0.4368 -0.422197,0.51 -0.298051,0.2918 -0.0078,0.7476 0.02274,1.1033 0.156945,0.5096 0.163211,1.0806 0.399459,1.5565 0.133299,0.1016 0.285146,0.1519 0.445451,0.1788 0.153389,0.708 0.513502,0.794 0.679542,0.794 1.076849,0.105 2.152042,0.222 3.225126,0.3509 0.0726,-0.1591 0.145085,-0.3185 0.218075,-0.4775 0.05815,-0.1264 0.308961,-0.6969 0.86868,-1.9312 0.0587,-0.1302 0.117238,-0.2605 0.176217,-0.3907 -0.0813,-0.1158 -0.162689,-0.2316 -0.244429,-0.3472 -0.06989,-0.098 -0.136062,-0.2132 -0.197921,-0.3395 -0.125766,-0.3198 -0.163078,-0.5529 -0.158647,-0.6357 l 0.222726,-1.8329 c 1.368587,0.1662 2.734707,0.3513 4.097424,0.5555 0.07249,-0.041 0.144956,-0.082 0.217558,-0.1225 0.921733,-0.5158 1.684075,-0.9282 2.142505,-1.1756 0.544267,-0.2939 1.99e-4,-7e-4 0.545186,-0.2946 0.06186,-0.034 0.108273,-0.059 0.14366,-0.079 0.01772,-0.01 0.03142,-0.017 0.04858,-0.027 0.0089,-0.01 0.01631,-0.011 0.03514,-0.023 0.0094,-0.01 0.02089,-0.012 0.04858,-0.033 0.0144,-0.011 0.06914,-0.058 0.06925,-0.059 1.1e-4,0 0.07797,-0.089 0.07803,-0.089 0,-10e-5 0.133325,-0.3116 0.133325,-0.3116 l 0.04651,-0.2708 c -0.04873,-0.079 -0.09752,-0.1572 -0.146244,-0.2357 -0.246937,-0.3958 -0.29988,-0.6804 -0.255799,-0.9441 l 0.370003,-2.2148 0.373621,-2.2366 c 0.03987,-0.2399 0.188667,-0.5058 0.576709,-0.8155 0.19416,-0.1546 0.388676,-0.3086 0.583944,-0.4625 -0.165861,-0.1887 -0.696325,-0.6763 -0.863515,-0.8644 -1.05894,-1.0584 -1.830656,-1.947 -3.172931,-2.4351 -0.0598,-0.058 -0.119688,-0.1152 -0.179318,-0.1731 -2.783971,-0.3974 -5.575649,-0.7218 -8.371582,-0.9752 z m 16.262057,2.1508 c -0.01163,0.014 -0.02403,0.029 -0.03566,0.044 h -0.001 c -0.845032,0.4627 -1.774628,0.8267 -2.637049,1.2681 -0.294119,0.1397 -0.735811,0.3073 -0.762227,0.6341 0.377465,0.511 0.626252,1.1389 0.412378,1.7482 -0.614655,3.485 -1.181829,6.7846 -1.852084,10.2573 -0.177878,0.4911 -0.618821,0.8133 -0.989086,1.1477 0.152823,0.1755 0.305145,0.3514 0.456819,0.5276 -0.0097,0.01 -0.01972,0.017 -0.02945,0.026 0.156834,0.1852 0.313256,0.3708 0.468705,0.5566 0.3876,0.4634 0.85717,1.0085 1.447457,1.694 0.306828,0.3403 0.564891,0.8431 1.02836,0.9752 1.772579,0.3651 3.534724,0.763 5.282881,1.1958 0.07116,0.018 0.165085,0.048 0.355534,0 0.05759,-0.014 0.126612,-0.076 0.193787,-0.123 l -0.05271,0.065 c 0.915364,-0.4236 1.668185,-0.7601 2.127002,-0.9637 0.239626,-0.1063 0.420694,-0.1853 0.545186,-0.2409 0.06236,-0.028 0.110229,-0.049 0.147278,-0.067 0.01827,-0.01 0.03396,-0.015 0.05168,-0.024 0.0089,-0.01 0.01734,-0.01 0.03617,-0.019 0.0089,-0.01 0.02078,-0.012 0.04237,-0.025 0.01163,-0.01 0.02539,-0.016 0.04754,-0.033 0.02271,-0.017 0.115644,-0.1069 0.115755,-0.107 0.03766,-0.043 0.07459,-0.086 0.112138,-0.1297 l 0.132809,-0.4832 c -0.05261,-0.09 -0.104838,-0.1796 -0.157614,-0.2692 -0.153234,-0.2596 -0.213944,-0.6991 -0.01447,-1.4382 l 1.845882,-6.8492 c 0.170402,-0.6324 0.447844,-1.6322 0.827857,-2.976 v -0.01 -0.01 c 0.03821,-0.1416 0.210152,-0.397 0.665592,-0.6879 0.216754,-0.1385 0.363963,-0.2834 0.581991,-0.4209 -0.159326,-0.2077 -0.319659,-0.4151 -0.480591,-0.6222 -0.302489,-0.3883 -2.042272,-2.1787 -3.237124,-3.0536 -0.05092,-0.055 -0.102076,-0.11 -0.153479,-0.1648 -1.944698,-0.4978 -3.908374,-0.9061 -5.869409,-1.2935 -0.02824,-0.01 -0.624725,-0.124 -0.65319,-0.1297 z m -72.90769,2.3903 c -0.0721,-0.024 -0.14455,-0.048 -0.21705,-0.071 -2.16258,0.5527 -4.32651,1.235 -6.50037,1.9802 -0.022,0.1066 -0.044,0.2138 -0.0656,0.3204 -0.19981,0.2418 -0.47469,0.5717 -0.60875,0.6465 -0.49026,0.7177 -1.05599,1.3997 -1.46503,2.1549 -0.20232,0.3691 0.17378,0.4481 0.4346,0.5948 0.76997,0.3401 0.84814,1.2326 1.1498,1.8929 1.17623,3.1528 2.21039,5.8395 3.3445,9.0062 0.0275,0.2292 0.002,0.4598 -0.0413,0.6826 -0.058,0.1303 -0.11532,0.531 -0.20981,0.7514 0.21522,0.077 0.42927,0.1539 0.64286,0.232 -0.004,0.013 -0.008,0.025 -0.0114,0.038 0.22224,0.083 0.44351,0.1672 0.66456,0.2521 0.54964,0.2112 1.21201,0.4239 2.0376,0.735 0.42645,0.148 0.8721,0.4977 1.33325,0.3865 1.65632,-0.5409 3.3564,-1.0468 5.08651,-1.5322 0.0707,-0.02 0.16773,-0.039 0.31109,-0.1747 0.0429,-0.04 0.54053,-0.7355 0.7312,-0.9948 0.301,-0.4087 0.56084,-0.7559 0.75034,-1.0077 0.14327,-0.1905 0.21536,-0.2844 0.35863,-0.4749 0.0409,-0.055 0.0715,-0.096 0.0956,-0.1292 0.012,-0.017 0.0218,-0.03 0.0336,-0.047 0.006,-0.01 0.0121,-0.017 0.0233,-0.035 0.006,-0.01 0.0126,-0.018 0.0253,-0.041 0.006,-0.012 0.0132,-0.026 0.0248,-0.051 0.0116,-0.025 0.0496,-0.1508 0.0496,-0.1509 l 0.0357,-0.1664 -0.11782,-0.4868 c -0.0891,-0.053 -0.17837,-0.1059 -0.26769,-0.1586 -0.25904,-0.1528 -0.52532,-0.5078 -0.709,-1.2501 l -1.7017,-6.8781 c -0.15726,-0.6354 -0.39793,-1.6427 -0.71624,-3.0014 l -5.1e-4,-0.01 -10e-4,-0.01 c -0.0352,-0.1422 -0.009,-0.4484 0.24805,-0.923 0.12304,-0.2261 0.21786,-0.4516 0.3425,-0.6774 -0.23983,-0.1043 -0.48026,-0.208 -0.7214,-0.3111 -1.55335,-0.532 -2.94745,-1.0887 -4.36872,-1.0912 z m 61.142516,0.3398 c 0.59981,0.073 1.199725,0.1497 1.798857,0.2294 -0.0029,0.01 -0.0061,0.015 -0.0093,0.022 l -0.49661,3.7331 c -0.217364,0.2697 -0.518748,0.24 -0.831474,0.1674 -0.316971,-0.041 -0.63414,-0.08 -0.951363,-0.1184 z m 24.091553,0.2496 v 5e-4 c -0.498025,0.7416 -1.082899,1.445 -1.514636,2.2164 -0.08589,0.3068 0.27868,0.5769 0.296623,0.9033 0.185908,0.942 -0.319966,1.8404 -0.51108,2.7337 -0.770769,2.6449 -1.49557,5.3056 -2.292367,7.9416 -0.199476,0.4849 -0.635271,0.8113 -1.062467,1.0713 0.164107,0.7754 -0.454145,2.3415 0.552527,2.5886 -0.03548,0.2789 -0.02696,0.6661 0.127016,0.9011 0.04375,0.055 0.08757,0.111 0.131258,0.1664 2.488799,0.7343 4.94155,1.5475 7.346838,2.4469 0.103836,-0.087 0.207441,-0.1745 0.311609,-0.2615 0.163535,-0.1375 0.37427,-0.3427 0.884701,-0.8165 0.349953,-0.325 0.851217,-0.7887 1.458309,-1.3395 -0.09151,0.759 -0.232765,1.5241 -0.265617,2.2893 0.07249,0.1977 0.274516,0.2095 0.45216,0.3039 -0.08312,0.4404 0.0031,0.8103 0.348772,1.0896 l 3.081465,1.4258 0.361219,-0.3887 c 0.450275,-0.4837 0.79259,-0.8541 1.028361,-1.111 -0.04476,0.3646 -0.08441,0.7278 -0.0956,1.0857 0.07721,0.1914 0.225515,0.3123 0.400493,0.4052 -0.08223,0.4373 0.05253,0.6956 0.401006,0.9768 l 3.083532,1.4267 0.361735,-0.3751 c 0.171998,-0.1786 0.623973,-0.6661 1.392164,-1.4971 l 0.07855,-0.085 0.199471,-0.4315 -0.151412,-0.3117 c -0.09081,-0.1873 -0.143855,-0.3101 -0.153996,-0.3348 -0.129187,-0.4119 -0.180817,-0.7672 -0.168465,-1.0625 l 0.0021,-0.03 -10e-4,-0.03 c -0.06651,-1.6395 -0.123678,-3.4533 -0.173632,-5.3837 0.445288,-0.3671 1.236306,-1.0083 2.660819,-2.1497 l 0.0098,-0.01 0.0041,-0.01 c 0.46717,-0.3868 0.835502,-0.6872 1.101741,-0.8976 0.522891,-0.3572 0.990866,-0.8659 1.640215,-1.0242 l 0.588078,-0.051 0.07493,-0.5865 c 0.07916,-0.6167 0.117418,-0.8886 0.132808,-1.0795 0.04048,-0.2939 0.07027,-0.5231 0.08888,-0.6951 0.0097,-0.088 0.01642,-0.1605 0.02015,-0.2279 0.0043,-0.067 0.04691,-0.04 -0.02015,-0.3105 l -0.08527,-0.3406 -0.875916,-0.402 c -0.07395,-0.3105 -0.509094,-0.3278 -0.757576,-0.4951 l -2.366264,-1.095 c -0.07102,0.072 -0.141816,0.144 -0.212907,0.216 h -5.17e-4 c -0.320431,0.3373 -0.640658,0.6752 -0.960665,1.0128 0.04081,-0.3293 0.07133,-0.5772 0.09043,-0.7477 0.0098,-0.086 0.01699,-0.1513 0.0217,-0.2041 0.0023,-0.026 0.0035,-0.048 0.0047,-0.079 8.54e-4,-0.016 0.0022,-0.031 0,-0.074 -0.0011,-0.021 -9.02e-4,-0.047 -0.01344,-0.1121 -0.0063,-0.033 -0.04747,-0.1563 -0.04754,-0.1566 -5.8e-5,-10e-5 -0.09558,-0.157 -0.0956,-0.1571 -9.9e-5,-1e-4 -0.268154,-0.2134 -0.2682,-0.2134 l -0.585494,-0.2708 c -6.7e-5,-2e-4 6.6e-5,-4e-4 0,-5e-4 -0.191694,-0.3904 -0.74991,-0.4402 -1.097608,-0.6641 -0.619903,-0.2681 -1.225977,-0.6036 -1.85415,-0.8304 -0.02591,0 -0.05093,-0.01 -0.07493,0 -0.359974,0.01 -0.515193,0.4607 -0.784448,0.6656 -0.346779,0.4334 -0.828928,0.7762 -1.073836,1.2775 0.242494,0.6442 0.225733,1.3801 -0.139527,1.9761 -1.345684,2.8914 -2.666793,5.7951 -4.026111,8.6795 -0.215074,0.3816 -0.578507,0.633 -0.967383,0.8181 0.127848,-0.1154 0.259521,-0.2339 0.394808,-0.355 0.04375,-0.039 0.08745,-0.079 0.131259,-0.1179 l 0.06563,-0.1643 c 1.1e-4,-2e-4 0.04186,-0.1507 0.04186,-0.1509 5.5e-5,-3e-4 0.01081,-0.08 0.01137,-0.1106 0,-0.062 -0.0054,-0.1048 -0.0093,-0.1385 -0.01108,-0.067 -0.02414,-0.1017 -0.03411,-0.1297 -0.01938,-0.056 -0.03274,-0.082 -0.04548,-0.1064 -0.02437,-0.049 -0.04555,-0.085 -0.0708,-0.1271 -0.0066,-0.011 -0.013,-0.022 -0.01964,-0.032 -0.0072,-0.01 -0.0145,-0.019 -0.0217,-0.029 -0.544102,-0.7252 -0.910342,-1.2034 -1.054716,-1.4041 -0.04209,-0.059 -0.08389,-0.1172 -0.12609,-0.1757 -0.19499,-0.073 -0.390522,-0.1458 -0.586011,-0.218 -0.02463,0.018 -0.04929,0.036 -0.0739,0.054 -0.103844,-0.1391 -0.216151,-0.2661 -0.355534,-0.3561 -0.277007,-0.2258 -0.474174,0.1069 -0.708484,0.2269 -0.780792,0.5448 -1.790986,0.9764 -2.710946,0.585 -0.111406,-0.037 -0.222807,-0.074 -0.334346,-0.1111 l 2.864424,-8.646 c 0.06153,-0.1857 0.108938,-0.3282 0.145211,-0.4201 l 0.02532,-0.076 c 0.0055,-0.01 0.01101,-0.016 0.01654,-0.024 l 0.02894,-0.087 c 0.181755,-0.5484 0.465504,-0.8702 0.936893,-1.094 0.136565,-0.065 0.273303,-0.129 0.410311,-0.1933 v -0.4418 c -0.0055,-0.8077 -0.01,-1.214 -0.02377,-1.4304 0.0061,-0.2594 0.0074,-0.4582 0.0057,-0.6093 0,-0.076 -0.0056,-0.1363 -0.01395,-0.2113 -0.0055,-0.038 -0.0078,-0.075 -0.03049,-0.1525 -0.01163,-0.039 -0.02498,-0.089 -0.07648,-0.1767 -0.02547,-0.044 -0.06296,-0.1001 -0.132292,-0.1679 -0.03489,-0.034 -0.132938,-0.1078 -0.133325,-0.1081 -3.88e-4,-2e-4 -0.205284,-0.098 -0.205672,-0.098 h -0.0088 v 5e-4 c -0.221124,-0.072 -0.442626,-0.1436 -0.664042,-0.2144 -0.249343,-0.3675 -0.84154,-0.3485 -1.23145,-0.5313 -0.814242,-0.2509 -1.630164,-0.4936 -2.447396,-0.7291 z m -71.769259,0.9095 0.39222,2.2231 c -0.21753,0.2173 -0.31859,0.6099 -0.61237,0.7095 -0.36046,0.066 -0.72058,0.1325 -1.08055,0.201 l -0.53278,-2.7972 c 0.61054,-0.1163 1.22175,-0.2283 1.83348,-0.3364 z m 61.965723,1.1291 c 0.493591,0.1075 0.986665,0.2174 1.479497,0.3302 -0.0026,0.01 -0.0053,0.012 -0.0083,0.018 l -2.167309,9.4408 c -0.363288,0.1314 -0.703953,0.4557 -1.097091,0.2589 -0.180521,-0.05 -0.368481,-0.086 -0.556555,-0.122 -0.08744,-0.1 -0.166939,-0.1908 -0.223242,-0.2563 l 2.030367,-9.4387 c 0.14753,-0.064 0.316932,-0.1372 0.542602,-0.2305 z m -87.374513,1.6531 c -0.0954,0 -0.20949,0.012 -0.3359,0.07 l -0.58084,0.2661 c -0.057,-0.023 -0.11664,-0.034 -0.1788,-0.032 -0.0703,0 -0.14397,0.025 -0.22117,0.072 l -2.85409,1.3027 c 0.10637,0.8903 0.21246,1.7804 0.31884,2.6707 0.67415,0.2388 1.28334,0.7343 1.49397,1.4392 0.16192,0.3791 0.34087,0.752 0.51676,1.126 -0.79416,-0.7761 -1.70635,-1.6678 -2.87528,-2.8086 l -0.007,-0.01 c -0.3327,-0.3329 -0.58922,-0.587 -0.76843,-0.7612 -0.0904,-0.088 -0.16224,-0.1564 -0.21911,-0.2088 -0.0282,-0.026 -0.052,-0.049 -0.0806,-0.073 -0.0143,-0.012 -0.0287,-0.024 -0.0537,-0.042 -0.0249,-0.018 -0.0227,-0.04 -0.1881,-0.1024 l -0.28267,-0.1033 -0.84026,0.384 c -1.5e-4,-10e-5 -3.7e-4,0 -5.2e-4,0 -0.15096,-0.071 -0.29927,-0.03 -0.44648,0.041 -0.16705,0.076 -0.32971,0.198 -0.49558,0.2408 -0.86118,0.3935 -1.72252,0.786 -2.58382,1.1792 0.11015,0.8397 0.17709,1.6917 0.31368,2.5239 0.0926,0.1498 0.22861,0.2483 0.37672,0.3339 0.0955,-0.075 0.24467,-0.2587 0.35295,-0.3127 l 0.001,0.01 0.0475,0.1044 c 0.0447,0.098 0.12543,0.2005 0.22221,0.2837 1.9e-4,2e-4 3.3e-4,4e-4 5.2e-4,5e-4 l 0.50436,1.17 0.0207,0.033 c 1.2703,2.8109 2.58288,5.6034 3.82664,8.4258 0.28839,0.5976 0.34213,1.2892 0.1049,1.9131 0.0735,0.4456 0.55512,0.7175 0.81494,1.0748 0.34401,0.3097 0.57913,0.7867 1.02319,0.9591 0.14155,-0.013 0.27803,-0.048 0.41135,-0.096 0.28281,0.339 0.59267,0.4344 1.01596,0.3287 l 3.14606,-1.4356 -0.35812,-3.0814 -0.35967,-0.1762 c -0.37839,-0.1849 -0.61312,-0.3622 -0.68264,-0.4383 l -0.0336,-0.038 -0.0362,-0.031 5.2e-4,-5e-4 v -5e-4 l 5.2e-4,-5e-4 -5.2e-4,-6e-4 c -0.0106,-0.03 -0.30598,-0.4286 -0.58963,-1.05 l -0.33744,-0.739 c 0.23397,0.2363 0.46955,0.4706 0.71365,0.6951 1.08069,1.0405 2.13177,2.1138 3.22409,3.1398 0.19489,0.089 0.37315,0.026 0.55916,-0.052 0.29062,0.3251 0.59866,0.45 1.0226,0.341 l 3.34347,-1.526 -0.34933,-3.0577 -0.39378,-0.1675 c -0.0621,-0.027 -0.20072,-0.1001 -0.35863,-0.1896 -0.31595,-0.2497 -0.49316,-0.475 -0.48938,-0.4667 l -4.28242,-9.3823 v -5e-4 c 9e-5,0 -0.0397,-0.1187 -0.0687,-0.2931 l -0.002,-0.02 -0.005,-0.021 c -0.0398,-0.176 -0.0319,-0.4661 0.0941,-0.8718 l 0.0827,-0.2671 -0.11576,-0.2538 c -0.0568,-0.1246 -0.0687,-0.1213 -0.0837,-0.1416 -0.0149,-0.021 -0.0271,-0.034 -0.0382,-0.049 -0.0227,-0.028 -0.0451,-0.056 -0.0739,-0.09 -0.0577,-0.067 -0.13591,-0.1541 -0.2372,-0.2671 -0.20261,-0.2262 -0.49815,-0.5518 -0.88935,-0.9793 -0.0664,-0.081 -0.12479,-0.1498 -0.19017,-0.2155 -0.0375,-0.038 -0.0714,-0.074 -0.15038,-0.1292 -0.0393,-0.027 -0.0887,-0.063 -0.19172,-0.099 -0.0516,-0.018 -0.12785,-0.041 -0.22324,-0.045 z m 11.41894,0.3091 c 5.1e-4,0.01 8.1e-4,0.013 0.001,0.02 l 2.70887,9.3224 c -0.24929,0.2936 -0.38726,0.7426 -0.82165,0.7623 -0.18016,0.045 -0.35987,0.1049 -0.5395,0.1653 -0.12583,-0.046 -0.24363,-0.088 -0.31781,-0.1157 l -2.86959,-9.2486 c 0.0987,-0.1287 0.21425,-0.2766 0.36793,-0.4692 0.49005,-0.1492 0.98043,-0.2948 1.47071,-0.4361 z m 97.210607,15.536 c -0.0051,0.3266 -0.04951,0.6465 -0.197921,0.9477 -0.01884,0.028 -0.04055,0.054 -0.06356,0.078 -0.03543,-0.3195 0.0091,-0.5673 0.106453,-0.7778 l 0.09508,-0.2051 c 0.02118,-0.015 0.02959,-0.022 0.05684,-0.041 z" /><path
       id="path1980"
       style="-inkscape-font-specification:'I.F.C. HARDBALL, Normal';fill:#00ffff;fill-opacity:1;stroke-width:0.553793;stroke-linecap:square;paint-order:stroke fill markers"
       d="m -100.48276,8340.863 c -0.0663,0.1549 -0.13253,0.3096 -0.19843,0.4646 -0.10949,0.2575 -0.32391,0.8807 -0.72657,2.0836 -0.0432,0.129 -0.0863,0.2584 -0.1292,0.3875 0.0934,0.1028 0.18694,0.2056 0.28009,0.3085 0.0765,0.084 0.15611,0.1839 0.23668,0.2905 0.2326,0.3761 0.31887,0.673 0.31781,0.8728 l -0.0145,2.8727 c -0.96116,-0.01 -1.92214,-2e-4 -2.88303,0.011 l -0.0341,-2.8597 c -0.006,-0.3598 0.14037,-0.7479 0.5581,-1.2165 0.0944,-0.1058 0.18849,-0.2117 0.28319,-0.3173 -0.0471,-0.1306 -0.0946,-0.2608 -0.14211,-0.3912 -0.0621,-0.1708 -0.11075,-0.3011 -0.14625,-0.3938 -0.0177,-0.046 -0.0311,-0.084 -0.045,-0.1178 -0.006,-0.013 -0.012,-0.026 -0.0186,-0.041 -0.15434,-0.4611 -0.28044,-0.8279 -0.36949,-1.0718 -0.0465,-0.1279 -0.0833,-0.226 -0.1173,-0.3069 -0.0172,-0.04 -0.0322,-0.074 -0.0589,-0.1246 -0.0133,-0.025 -0.026,-0.053 -0.0692,-0.1106 -0.0216,-0.029 -0.048,-0.067 -0.1204,-0.1281 -0.036,-0.03 -0.16797,-0.1089 -0.16847,-0.1091 -5.5e-4,-2e-4 -0.3784,-0.083 -0.37879,-0.083 -0.72453,0.012 -1.44901,0.028 -2.17299,0.049 -0.51447,0.014 -1.02917,0.03 -1.54409,0.049 -0.0526,0.1704 -0.10558,0.3406 -0.15813,0.5111 -0.20352,0.6601 -0.36039,1.1801 -0.45941,1.5121 -0.0504,0.1692 -0.089,0.2989 -0.11472,0.388 -0.0111,0.039 -0.0194,0.07 -0.0305,0.108 -0.006,0.014 -0.008,0.028 -0.0114,0.043 3.3e-4,0.01 -0.006,0.016 -0.007,0.033 3.3e-4,0.01 -0.006,0.018 -0.008,0.038 -0.006,0.019 -0.007,0.1331 -0.007,0.1333 l 0.0119,0.2713 c 0.0652,0.066 0.13027,0.132 0.19534,0.1979 0.079,0.08 0.16781,0.1797 0.25941,0.2884 0.24278,0.3626 0.33565,0.6449 0.34158,0.802 l 0.38447,10.1989 c 0,0.048 -0.0187,0.2241 -0.0961,0.4718 l 5.1e-4,0.01 c -0.0482,0.1571 -0.16329,0.375 -0.37207,0.633 -0.0809,0.1 -0.16178,0.2006 -0.24236,0.3008 0.036,0.1238 0.0725,0.2472 0.10852,0.371 0.0714,0.2462 0.2149,0.6301 0.47336,1.324 0.0776,0.231 0.14067,0.4137 0.19223,0.5483 0.1254,0.3862 0.37178,0.5995 0.77252,0.6439 0.28177,-0.01 0.56349,-0.019 0.84542,-0.027 0.81568,-0.023 1.63178,-0.039 2.4474,-0.05 0.0554,-0.1594 0.11063,-0.3181 0.1664,-0.4774 0.0888,-0.2541 0.24974,-0.8062 0.62942,-2.0413 0.0399,-0.1301 0.0807,-0.2605 0.12092,-0.3906 -0.088,-0.1032 -0.17632,-0.2065 -0.26459,-0.3096 -0.39392,-0.4595 -0.54213,-0.8465 -0.54673,-1.2294 l -0.0341,-2.8473 c 0.93674,-0.011 1.87343,-0.014 2.81017,-0.01 l -0.0145,2.8959 c 0,0.1254 -0.0563,0.3711 -0.17984,0.6795 -0.0837,0.1503 -0.19541,0.321 -0.35346,0.5142 -0.084,0.1027 -0.16799,0.2052 -0.25167,0.308 0.20263,0.6487 0.40278,1.2982 0.60048,1.9477 l -0.006,-0.01 c 0.11467,0.4918 0.29326,0.8787 0.82476,0.9616 0.988518,0.01 1.977157,0.028 2.96468,0.056 0.148804,-0.072 0.297754,-0.1436 0.447001,-0.215 0.299824,-0.8801 0.603941,-1.7594 0.913123,-2.6376 -0.07975,-0.1057 -0.159239,-0.2111 -0.239262,-0.3167 -0.367884,-0.4847 -0.499437,-0.8866 -0.487309,-1.2728 l 0.311609,-9.8744 c 0.01329,-0.4173 0.179174,-0.8069 0.600997,-1.2412 0.09536,-0.098 0.190593,-0.1969 0.286288,-0.2951 -0.03655,-0.1291 -0.07371,-0.2581 -0.110588,-0.3871 -0.134018,-0.4696 -0.240076,-0.8332 -0.315226,-1.0816 -0.03821,-0.1251 -0.06796,-0.2236 -0.0925,-0.2986 -0.01274,-0.038 -0.02351,-0.068 -0.03514,-0.1 1.35e-4,-0.01 -0.0051,-0.013 -0.0072,-0.017 -1.29e-4,-3e-4 -4.3e-4,0 -5.16e-4,0 -0.05039,-0.1844 -0.09395,-0.3374 -0.133326,-0.4537 -0.02104,-0.063 -0.03946,-0.1147 -0.07235,-0.185 -0.01606,-0.035 -0.03305,-0.073 -0.08527,-0.1457 -0.02658,-0.036 -0.05863,-0.083 -0.140043,-0.1494 -0.04098,-0.033 -0.09492,-0.072 -0.176217,-0.109 -0.04098,-0.018 -0.08839,-0.037 -0.14366,-0.05 -0.05538,-0.014 -0.186109,-0.026 -0.186552,-0.026 -1.221611,-0.033 -2.443256,-0.053 -3.664379,-0.06 z m -11.05307,0.555 c -3.70304,0.2061 -7.41215,0.5346 -11.11663,0.9979 h -10e-4 c -0.11147,0.069 -0.22258,0.1383 -0.33383,0.2077 -0.0321,0.058 -0.0642,0.1169 -0.0961,0.1752 -0.0548,0.1007 -0.0454,0.095 -0.0677,0.1457 -0.0221,0.052 -0.0509,0.1206 -0.0868,0.2067 -0.0705,0.1701 -0.1719,0.4201 -0.29972,0.7385 -0.24937,0.6211 -0.63764,1.6029 -1.09967,2.8262 -0.0216,0.056 -0.0427,0.1128 -0.0641,0.169 l 0.0248,0.1762 c 6e-5,2e-4 0.0382,0.1475 0.0382,0.1478 1.1e-4,3e-4 0.0295,0.07 0.0439,0.095 0.0282,0.051 0.0531,0.082 0.0729,0.1065 0.0399,0.049 0.0644,0.071 0.0853,0.089 0.041,0.037 0.0644,0.053 0.0868,0.069 0.0449,0.032 0.0814,0.055 0.12661,0.083 0.0205,0.013 0.0411,0.025 0.062,0.038 0.0227,0.01 0.0454,0.018 0.0682,0.027 0.86037,0.3317 1.44656,0.5784 1.67018,0.6837 0.0692,0.033 0.13822,0.065 0.20722,0.098 0.22052,-0.028 0.44089,-0.055 0.66146,-0.082 0.062,-0.1173 0.12425,-0.2347 0.18655,-0.3519 0.17805,-0.3343 0.42073,-0.6914 0.72244,-1.0635 0.45716,-0.4642 0.88765,-0.6748 1.34669,-0.7235 0.0793,-0.01 0.15852,-0.017 0.23771,-0.025 l 1.02164,9.8108 c 0.0432,0.4162 -0.0575,0.793 -0.37827,1.2423 -0.0798,0.1115 -0.15928,0.2233 -0.23875,0.3349 0.0532,0.1274 0.10646,0.2545 0.15968,0.3818 0.20633,0.4934 0.34158,0.8086 0.44959,1.0238 0.13052,0.3231 0.23014,0.5659 0.30696,0.7415 0.20463,0.4747 0.3809,0.6804 0.84281,0.6804 0.99732,-0.099 1.99679,-0.1871 2.99827,-0.2656 0.0916,-0.1115 0.18339,-0.2231 0.27543,-0.3344 0.0144,-0.037 0.029,-0.073 0.0434,-0.1095 0.072,-0.1838 0.0501,-0.1609 0.0754,-0.2631 0.0255,-0.1019 0.0576,-0.2372 0.0992,-0.4139 0.0667,-0.2836 0.28931,-1.2435 0.35605,-1.527 0.031,-0.1328 0.0615,-0.2658 0.0925,-0.3985 -0.095,-0.097 -0.18995,-0.1927 -0.28526,-0.2893 -0.40826,-0.4144 -0.57712,-0.7827 -0.6072,-1.1788 l -0.74672,-9.8366 c 0.0793,-0.01 0.15841,-0.012 0.23771,-0.018 0.21836,-0.016 0.46636,0.013 0.75965,0.1137 0.0116,0.01 0.0225,0.01 0.0341,0.012 0.0122,0.01 0.0245,0.01 0.0367,0.01 0.10899,0.027 0.36801,0.15 0.68988,0.4036 0.32131,0.269 0.59775,0.5512 0.82941,0.8475 0.0822,0.1049 0.16454,0.2097 0.2465,0.3147 0.13657,-0.01 0.27271,-0.016 0.40927,-0.024 5e-4,0 0.12766,-0.016 0.16227,-0.025 0.0349,-0.01 0.0585,-0.017 0.077,-0.024 0.0371,-0.014 0.0559,-0.024 0.0729,-0.032 0.0338,-0.016 0.0532,-0.026 0.0724,-0.038 0.0382,-0.022 0.0727,-0.043 0.11472,-0.069 0.0842,-0.053 0.19218,-0.1222 0.33434,-0.2155 0.2837,-0.1861 0.6954,-0.461 1.24127,-0.8221 0.193,-0.1277 0.38651,-0.2549 0.58033,-0.3819 -0.11524,-0.1949 -0.23079,-0.3898 -0.34675,-0.5845 -0.67225,-1.1235 -1.22123,-2.0116 -1.57975,-2.5843 -0.18281,-0.292 -0.32833,-0.5203 -0.42995,-0.678 -0.0515,-0.08 -0.0918,-0.1428 -0.12454,-0.1917 -0.0327,-0.049 -0.0244,-0.049 -0.1049,-0.1447 -0.0841,-0.1 -0.16825,-0.199 -0.2527,-0.2982 z m 11.588959,0.1814 c 1.036756,0.01 2.073889,0.028 3.110921,0.057 h 5.17e-4 5.17e-4 5.16e-4 c 0.02738,0.01 0.09603,0.2101 0.203605,0.6005 0.02492,0.041 0.177046,0.5307 0.449069,1.4702 -0.516688,0.5343 -0.77948,1.1072 -0.795817,1.7136 l -0.266134,9.8754 c -0.01551,0.5823 0.201407,1.1625 0.643888,1.743 -0.227111,0.6567 -0.451384,1.3138 -0.673344,1.9715 -0.0078,0.01 -0.01602,0.01 -0.02377,0.012 -0.936464,-0.025 -1.873394,-0.043 -2.810677,-0.052 h -5.2e-4 l -5.2e-4,-5e-4 h -5.2e-4 c -0.0171,-0.01 -0.0669,-0.1554 -0.14831,-0.4382 -0.15689,-0.5231 -0.31537,-1.0457 -0.47542,-1.5684 0.19183,-0.2337 0.34495,-0.4551 0.45837,-0.6646 0.1627,-0.3872 0.2459,-0.718 0.24856,-0.9932 l 0.03514,-3.6287 c -1.43627,-0.014 -2.87308,-0.01 -4.30929,0.015 l 0.0589,3.5796 c 0.009,0.5824 0.25615,1.1486 0.73174,1.7012 -0.37314,1.2306 -0.55974,1.86 -0.61185,2.0107 -0.65503,0.011 -1.30971,0.024 -1.96474,0.043 -0.28326,0.01 -0.56646,0.018 -0.84956,0.027 -1.9e-4,0 -0.001,-5e-4 -0.002,-5e-4 h -5.2e-4 l -5.2e-4,-5e-4 c -0.0271,-0.014 -0.11635,-0.2533 -0.27026,-0.7183 -0.25419,-0.6901 -0.40399,-1.1077 -0.45062,-1.2708 0.25109,-0.3093 0.42044,-0.6021 0.50694,-0.8805 0.094,-0.2947 0.1385,-0.5348 0.1323,-0.7209 l -0.34004,-10.2004 c -0.0116,-0.3475 -0.16495,-0.7438 -0.46405,-1.1865 -0.11657,-0.1417 -0.22903,-0.2673 -0.33641,-0.3767 0,-0.016 0.19975,-0.6922 0.61598,-2.0252 v -6e-4 c 0.32186,-0.011 0.64357,-0.02 0.96532,-0.029 0.72148,-0.021 1.44326,-0.037 2.16524,-0.049 0.026,-4e-4 0.2098,0.4901 0.54208,1.4728 0.009,0.01 0.0754,0.181 0.19999,0.5193 -0.50102,0.5644 -0.74311,1.1313 -0.7338,1.6976 l 0.0589,3.5915 c 1.46052,-0.024 2.92166,-0.029 4.382672,-0.015 l 0.03462,-3.6044 c 0.0055,-0.3801 -0.137532,-0.8024 -0.426332,-1.2656 -0.10207,-0.1382 -0.20481,-0.2644 -0.30748,-0.3782 0.40775,-1.2021 0.65792,-1.8982 0.716242,-2.034 z m 13.685986,0.073 c -0.132467,0.1032 -0.264444,0.2065 -0.396358,0.31 -0.02381,0.048 -0.04745,0.096 -0.07131,0.1447 -0.105664,0.2126 -0.393027,0.8467 -0.86868,1.9384 -0.05095,0.1181 -0.102474,0.2364 -0.153479,0.3545 0.141162,0.2048 0.28168,0.4098 0.421679,0.6149 0.229713,0.4156 0.289557,0.7143 0.280087,0.8232 l -0.879533,10.0976 c 0.0027,-0.035 -0.01466,0.078 -0.05426,0.2191 l -5.16e-4,0.01 -5.17e-4,0.01 c -0.06463,0.2436 -0.227529,0.5227 -0.549837,0.8371 -0.336712,0.2712 -0.211985,0.6828 -0.131774,1.0537 0.05095,0.2311 0.123706,0.5475 0.222725,0.9751 0.04873,0.2365 0.08716,0.4202 0.118339,0.553 0.161815,0.6851 0.556943,0.7389 0.676962,0.7389 1.083107,0.099 2.164684,0.2094 3.244247,0.3323 0.07188,-0.1595 0.14431,-0.319 0.216524,-0.4785 0.05759,-0.1267 0.305365,-0.6989 0.859379,-1.9363 0.05815,-0.1306 0.116297,-0.2611 0.174667,-0.3917 -0.08257,-0.1153 -0.165606,-0.2305 -0.248564,-0.3457 -0.07089,-0.098 -0.138,-0.2124 -0.201021,-0.3385 -0.128591,-0.3191 -0.167747,-0.5523 -0.163815,-0.6351 l 0.211357,-1.834 c 1.37634,0.1585 2.750392,0.3358 4.121195,0.5323 0.07255,-0.041 0.144901,-0.083 0.217558,-0.1241 0.922563,-0.521 1.685755,-0.9378 2.144572,-1.188 0.562764,-0.3067 -0.01695,0.01 0.545703,-0.2972 0.06191,-0.034 0.108218,-0.06 0.143661,-0.08 0.01772,-0.01 0.03248,-0.017 0.04909,-0.027 0.0089,-0.01 0.01579,-0.011 0.03462,-0.023 0.0094,-0.01 0.0214,-0.012 0.04909,-0.034 0.0144,-0.011 0.06862,-0.059 0.06873,-0.059 5.5e-5,-1e-4 0.07746,-0.089 0.07751,-0.089 l 0.131775,-0.3121 0.04496,-0.2713 c -0.04929,-0.078 -0.0988,-0.1563 -0.148311,-0.2346 -0.251034,-0.3945 -0.306432,-0.6795 -0.264067,-0.9436 l 0.355534,-2.2164 0.359151,-2.2397 c 0.03877,-0.2401 0.186119,-0.5065 0.573608,-0.8185 0.193883,-0.1558 0.388381,-0.3111 0.583427,-0.4662 -0.168021,-0.1876 -0.336673,-0.375 -0.505912,-0.5622 -0.109595,-0.1212 -0.308,-0.3188 -0.7059,-0.7116 -0.39275,-0.3877 -0.99452,-0.9742 -1.751831,-1.6924 -0.06319,-0.06 -0.126299,-0.1202 -0.189653,-0.1803 -2.873242,-0.4123 -5.754763,-0.7473 -8.640299,-1.0067 z m -25.645465,0.4981 c 0.0656,0.077 0.82105,1.2383 2.18902,3.5078 -1.09136,0.7231 -1.64416,1.0941 -1.67794,1.0961 -0.26549,-0.3417 -0.57855,-0.6639 -0.93896,-0.9659 -0.37741,-0.3009 -0.7111,-0.4858 -0.9989,-0.5555 -0.37763,-0.1284 -0.73854,-0.18 -1.08056,-0.1545 -0.33781,0.025 -0.67561,0.051 -1.01337,0.079 l 0.85266,10.5637 c 0.0476,0.5891 0.32473,1.1345 0.82475,1.6402 -0.30464,1.33 -0.46179,2.0294 -0.48782,2.0965 -0.006,0.01 -0.007,0.01 -0.0109,0.013 -0.90872,0.073 -1.81577,0.1543 -2.72128,0.2439 -0.0233,0 -0.16542,-0.3292 -0.43047,-0.9937 -0.0795,-0.1557 -0.22341,-0.4891 -0.43667,-1.0051 0.40332,-0.5623 0.57927,-1.144 0.51935,-1.7482 l -1.04593,-10.5457 c -0.33753,0.034 -0.67486,0.068 -1.01234,0.1039 -0.67496,0.072 -1.29709,0.3984 -1.85725,0.9783 -0.33843,0.415 -0.61089,0.8198 -0.81856,1.2128 -0.008,0 -0.0169,-2e-4 -0.0258,0.01 -0.2656,-0.1254 -0.84955,-0.3704 -1.71618,-0.7054 -0.0708,-0.044 -0.1093,-0.072 -0.11472,-0.082 l -5.2e-4,-6e-4 v -5e-4 c 0.94749,-2.4815 1.48849,-3.7556 1.53169,-3.8344 v -0.01 c 3.48828,-0.4319 6.98184,-0.7438 10.47068,-0.9467 z m 25.909532,0.2615 v 5e-4 c 2.672603,0.2455 5.341491,0.5561 8.003129,0.9333 1.533784,1.451 2.321579,2.2498 2.425692,2.3647 -0.482076,0.39 -0.755717,0.8107 -0.825273,1.2583 l -0.348299,2.2417 -0.344165,2.218 c -0.07205,0.4638 0.05521,0.9454 0.375687,1.4469 0,0.01 -0.978907,0.5205 -2.871659,1.5922 -1.537827,-0.2177 -3.079129,-0.4112 -4.62349,-0.5814 l -0.287321,2.605 c -0.01274,0.2591 0.06424,0.5849 0.227893,0.9778 0.08451,0.1724 0.178409,0.3291 0.281636,0.4712 -0.548864,1.2398 -0.826098,1.8851 -0.846976,1.9317 -0.916471,-0.1011 -1.834468,-0.1935 -2.753321,-0.2775 -0.01551,0 -0.07142,-0.2463 -0.169498,-0.7343 -0.19211,-0.8457 -0.289777,-1.2883 -0.286288,-1.3286 0.391255,-0.3801 0.643201,-0.7712 0.752409,-1.1757 0.04763,-0.1662 0.07423,-0.2817 0.0801,-0.3462 l 0.928109,-10.1012 c 0.03046,-0.33 -0.0903,-0.7443 -0.365869,-1.2397 -0.07637,-0.1124 -0.152687,-0.2247 -0.229443,-0.3369 0.480193,-1.0898 0.783582,-1.75 0.862996,-1.9084 0.0021,0 0.0045,-0.01 0.0062,-0.01 5.64e-4,-4e-4 0.002,0 0.0026,0 0.0016,-6e-4 0.0035,0 0.0052,0 z m -42.551922,0.7157 -0.002,0.01 c -2.92325,0.4825 -5.83948,1.0542 -8.74365,1.7209 -0.0984,0.1424 -0.19636,0.2847 -0.29404,0.4273 -0.007,0.058 -0.0139,0.1158 -0.0207,0.1737 -0.0798,0.6815 -0.13815,1.2154 -0.17363,1.5637 -0.0182,0.1769 -0.031,0.3131 -0.0393,0.4108 -0.004,0.049 -0.007,0.088 -0.008,0.124 -0.002,0.018 -0.003,0.034 -0.003,0.058 -5.3e-4,0.023 -0.0282,-0.013 0.0191,0.1845 l 0.0641,0.2692 c 0.0797,0.051 0.1597,0.1038 0.23926,0.1556 0.49569,0.3259 0.72821,0.6593 0.82062,1.0552 l 2.22622,9.5452 c 0.0926,0.3971 0.0422,0.794 -0.21756,1.3001 -0.0579,0.1127 -0.11563,0.2252 -0.17311,0.338 0.0582,0.1135 0.11611,0.2271 0.17415,0.3406 0.11142,0.2183 0.30991,0.5475 0.65526,1.1229 0.13296,0.2373 0.23801,0.4227 0.31936,0.5565 0.19567,0.3645 0.46724,0.5392 0.88002,0.5122 1.05664,-0.2408 2.11806,-0.467 3.18378,-0.6791 0.10815,-1.0092 0.22334,-2.0189 0.34623,-3.0287 -0.11497,-0.086 -0.22984,-0.171 -0.3452,-0.2563 -0.11059,-0.082 -0.20486,-0.1661 -0.29042,-0.2517 -0.25613,-0.3051 -0.38549,-0.5652 -0.42736,-0.7767 l -0.55036,-2.7802 c 0.0532,-0.011 0.10617,-0.021 0.15917,-0.032 0.53618,0.843 1.06484,1.6894 1.58646,2.5383 0,0 0.005,0.01 0.007,0.01 h 5.2e-4 c 0.25607,0.3938 0.44807,0.7147 0.57361,0.9447 0.0982,0.1796 0.15242,0.3344 0.16278,0.3478 v 5e-4 h 5.1e-4 5.2e-4 v -5e-4 h 5.2e-4 v -6e-4 c 3.1e-4,0 -0.001,-0.011 -0.004,-0.024 l 0.0176,0.096 c 0,0.015 0.007,0.038 -0.0191,0.1137 -0.0227,0.063 -0.0451,0.1262 -0.0677,0.1892 l 0.0372,0.1989 c 0.0421,0.226 0.10727,0.2896 0.15451,0.3576 0.0417,0.06 0.0801,0.1067 0.12144,0.1535 0.54001,0.6901 0.87843,1.1209 1.10226,1.3767 0.0871,0.1 0.17413,0.1994 0.26097,0.2992 1.20898,-0.2112 2.42267,-0.4049 3.64112,-0.5819 0,-0.2114 -0.006,-0.4227 -0.006,-0.6341 0,-0.1084 -0.006,-0.2218 -0.0165,-0.5348 1.4e-4,0 -4e-5,-0.01 -0.001,-0.035 -0.003,-0.097 -0.0448,-1.3149 -0.0501,-1.4769 -0.001,-0.038 -0.002,-0.045 -0.001,-0.027 -0.005,-0.1537 -0.009,-0.3072 -0.014,-0.4609 -0.14958,-0.059 -0.29916,-0.1174 -0.44907,-0.1757 -0.40748,-0.1578 -0.73948,-0.4256 -1.04179,-0.8661 -0.16542,-0.2727 -0.83778,-1.4508 -1.74201,-2.9823 0.0734,-0.095 0.15512,-0.2012 0.26665,-0.3441 0.36767,-0.4708 0.97129,-1.2358 1.74821,-2.1834 0.0683,-0.083 0.13659,-0.1658 0.20515,-0.2485 l -0.0455,-0.3147 c -0.0354,-0.2494 -0.11661,-0.3057 -0.1571,-0.3556 -0.041,-0.05 -0.0664,-0.074 -0.0889,-0.094 -0.0454,-0.04 -0.0747,-0.061 -0.10594,-0.084 -0.0216,-0.016 -0.0436,-0.031 -0.0651,-0.047 -0.0244,-0.011 -0.049,-0.021 -0.0734,-0.032 h -5.2e-4 -5.1e-4 c -0.006,9e-4 -0.0422,-0.01 -0.0811,-0.2734 l -0.0563,-0.3839 c -0.0867,-0.5911 -0.22158,-1.5694 -0.40101,-2.9125 v -0.01 -0.01 c -0.0271,-0.1833 0.032,-0.4796 0.32918,-0.9131 0.13219,-0.1928 0.26512,-0.3853 0.39842,-0.5777 -0.19272,-0.1349 -0.38604,-0.2699 -0.57981,-0.4041 -0.0578,-0.04 -0.0729,-0.048 -0.077,-0.05 h -5.1e-4 -5.2e-4 v 5e-4 h -5.2e-4 v 5e-4 h -5.1e-4 -5.2e-4 -5.2e-4 -5.1e-4 c -5.4e-4,-2e-4 -10e-4,-6e-4 -0.002,0 0.0158,0.01 -0.0349,-0.02 -0.047,-0.026 -6.3e-4,-3e-4 -6e-4,-3e-4 -0.001,-5e-4 -10e-4,-7e-4 -0.002,0 -0.002,0 -0.0368,-0.02 -0.0865,-0.045 -0.14986,-0.079 -0.12748,-0.067 -0.32253,-0.1692 -0.57102,-0.2972 -0.48263,-0.2485 -1.27042,-0.6492 -2.25568,-1.1306 -0.0791,-0.038 -0.15794,-0.075 -0.23719,-0.1127 z m 58.546294,0.6599 c -0.05095,0.062 -0.102364,0.125 -0.153479,0.1876 -0.966091,0.4391 -1.739198,0.8042 -2.222603,1.0361 -0.252918,0.1213 -0.448543,0.2173 -0.577743,0.2811 -0.0654,0.032 -0.116374,0.058 -0.155029,0.077 -0.01717,0.01 -0.03765,0.02 -0.05426,0.029 -0.0094,0.01 -0.01886,0.01 -0.03824,0.021 -0.0094,0.01 -0.02074,0.014 -0.04289,0.03 -0.01163,0.01 -0.02591,0.017 -0.04806,0.035 -0.02271,0.019 -0.113061,0.1162 -0.113172,0.1163 -0.101566,0.1296 -0.203196,0.2593 -0.304374,0.3891 0.09038,0.1405 0.180498,0.281 0.270268,0.4217 0.06158,0.096 0.128309,0.2144 0.19637,0.3421 0.107658,0.2662 0.13331,0.4608 0.121957,0.5659 -0.156723,0.9323 -0.277836,1.649 -0.361735,2.1228 l -1.140499,6.4399 c -0.08108,0.4579 -0.206986,1.1355 -0.365869,1.9891 0,0.01 -0.0082,0.017 -0.0093,0.022 -0.01385,0.047 -0.01872,0.076 -0.02481,0.109 -0.02271,0.09 -0.176892,0.3612 -0.563273,0.6992 -0.184524,0.1615 -0.368488,0.3235 -0.551904,0.4857 0.158994,0.1844 0.317241,0.3691 0.474906,0.554 0.392916,0.4611 0.869644,1.0037 1.468128,1.6857 0.194824,0.2366 0.34881,0.4214 0.465604,0.5545 0.229632,0.323 0.521805,0.4038 0.899169,0.4786 1.676441,0.3379 3.344446,0.7048 5.000729,1.1028 0.07177,0.017 0.166893,0.048 0.358117,-5e-4 0.05782,-0.014 0.126612,-0.076 0.193787,-0.124 -0.01772,0.022 -0.03499,0.043 -0.05271,0.065 0.917357,-0.4287 1.671895,-0.7694 2.131653,-0.9757 0.436084,-0.1672 0.796972,-0.3076 1.09967,-0.6507 l 0.129191,-0.4842 c -0.05372,-0.089 -0.107291,-0.1789 -0.16123,-0.2682 -0.156502,-0.2589 -0.221621,-0.6986 -0.02791,-1.4392 l 1.795239,-6.8626 c 0.16575,-0.6337 0.435997,-1.6351 0.806152,-2.9818 v -0.01 -0.01 c 0.0371,-0.1419 0.207552,-0.3981 0.662492,-0.692 0.216533,-0.1399 0.433834,-0.2795 0.65164,-0.4185 -0.161818,-0.2066 -0.324457,-0.4131 -0.487826,-0.6191 -0.389095,-0.4905 -0.901122,-1.1044 -1.531172,-1.8232 l -0.01654,-0.018 c -0.209776,-0.2543 -0.380109,-0.4549 -0.507979,-0.5974 -0.06612,-0.074 -0.1208,-0.1324 -0.178284,-0.1886 -0.0288,-0.028 -0.05687,-0.056 -0.102836,-0.093 -0.04541,-0.037 -0.03323,-0.1019 -0.363285,-0.1808 -1.90333,-0.4542 -3.811695,-0.8679 -5.721615,-1.2423 -0.122776,-0.024 -0.245621,-0.049 -0.368453,-0.073 l 0.0041,0.01 c -0.160711,-0.032 -0.321375,-0.063 -0.482141,-0.094 z m -58.698744,0.1173 c 2.00728,0.9768 2.99223,1.5063 3.02152,1.5265 -0.36002,0.5274 -0.50491,1.0003 -0.44183,1.416 0.18679,1.3436 0.32672,2.3213 0.41754,2.9187 l 0.0584,0.3839 c 0.0656,0.4318 0.23903,0.7081 0.51831,0.8299 0.037,0.026 0.0561,0.044 0.0584,0.053 -0.18795,0.2302 -0.31361,0.3883 -0.44442,0.5503 0.02,0.018 0.0355,0.041 0.0579,0.056 -0.0235,-0.013 -0.0473,-0.027 -0.0708,-0.04 -1.0192,1.2633 -1.86094,2.3635 -1.85983,2.3699 1.16811,1.9515 1.82878,3.1051 2.03501,3.4411 0.37652,0.5465 0.83927,0.9248 1.38907,1.1374 0.0487,1.293 0.0768,1.9681 0.0775,2.0252 -0.89498,0.1343 -1.7873,0.2777 -2.67735,0.4305 -0.19117,-0.2198 -0.53973,-0.6643 -1.08211,-1.3627 -0.0697,-0.078 -0.10746,-0.133 -0.11317,-0.1648 0.0642,-0.1759 0.0823,-0.343 0.0537,-0.5023 l -0.017,-0.096 c -0.0382,-0.2131 -0.31377,-0.7308 -0.83406,-1.5384 -0.60319,-0.9915 -1.21631,-1.9789 -1.83916,-2.9626 -0.4622,0.089 -0.92374,0.1804 -1.38493,0.2744 l 0.7121,3.4944 c 0.076,0.3726 0.27847,0.748 0.6041,1.1281 0.12145,0.1241 0.25719,0.2409 0.40721,0.3514 -0.0792,0.6917 -0.15459,1.3834 -0.22686,2.0748 -0.90506,0.184 -1.80709,0.3781 -2.70578,0.5829 h -5.2e-4 v 5e-4 h -5.1e-4 -5.2e-4 -5.2e-4 -5.1e-4 c -2.4e-4,0 -0.001,-4e-4 -0.002,-5e-4 -0.0327,-0.014 -0.17791,-0.2622 -0.4377,-0.7323 -0.33981,-0.5725 -0.54472,-0.9252 -0.62115,-1.0769 0.32165,-0.6231 0.42093,-1.2254 0.28835,-1.8092 l -2.16989,-9.5581 c -0.13246,-0.5833 -0.50116,-1.0807 -1.11415,-1.4862 -0.007,-0.032 0.0623,-0.7336 0.22996,-2.1068 0.003,-0.01 0.007,-0.01 0.0103,-0.015 h 5.2e-4 c 2.6921,-0.6113 5.39476,-1.1403 8.10441,-1.5927 z m 58.476019,0.2155 h 5.17e-4 5.16e-4 0.0031 c -0.0036,0.01 -0.0059,0.01 -0.0072,0.01 h -5.16e-4 l -5.17e-4,5e-4 h -5.17e-4 -5.17e-4 -5.16e-4 c -3.86e-4,10e-5 -0.0011,0 -0.0016,0 0,0 0.0046,-0.01 0.0072,-0.01 z m 0.519348,0.478 c 0.0091,-7e-4 0.02378,0 0.04341,0.01 h 0.0021 l 0.364836,0.072 c 1.900949,0.3737 3.799905,0.7859 5.693709,1.2387 0.04264,0.011 0.284056,0.2752 0.716236,0.7984 0.634203,0.721 1.145069,1.3326 1.529622,1.8159 -0.54183,0.3522 -0.858861,0.7234 -0.957048,1.1074 -0.362956,1.3504 -0.628442,2.3539 -0.792199,2.9947 l -1.755965,6.8719 c -0.218416,0.8548 -0.176021,1.5264 0.119372,2.0128 l -0.0057,0.012 c -0.01163,0.013 -0.985758,0.4303 -2.864942,1.3105 -0.0055,0.016 -0.02073,0.02 -0.05064,0.013 -1.666196,-0.4003 -3.343812,-0.769 -5.029667,-1.1084 -0.10799,-0.022 -0.215966,-0.043 -0.324011,-0.064 -0.03821,-0.01 -0.254422,-0.2564 -0.655257,-0.7447 -0.595549,-0.6803 -1.069529,-1.2217 -1.454692,-1.6748 0.44669,-0.389 0.713947,-0.7462 0.798401,-1.0764 0.01204,-0.065 0.02313,-0.1004 0.02997,-0.1054 h 5.16e-4 5.17e-4 5.17e-4 c 0.172119,-0.8989 0.30133,-1.5843 0.388607,-2.063 l 1.173055,-6.4342 c 0.08855,-0.4857 0.214182,-1.206 0.381372,-2.1626 0.03101,-0.2656 -0.02607,-0.5763 -0.1726,-0.9313 -0.08456,-0.1632 -0.168226,-0.3096 -0.25063,-0.4392 0.01163,-0.014 1.011412,-0.5145 3.060278,-1.4407 v -6e-4 c 7.5e-5,-5e-4 8.09e-4,0 0.001,0 l 5.16e-4,-6e-4 c 1.87e-4,-2e-4 8.11e-4,0 0.001,0 h 0.0083 z m -13.572815,0.8816 -0.621151,5.6322 c 1.119658,0.1235 2.238167,0.2588 3.354834,0.4067 0.01717,-0.01 0.221167,-0.1584 0.613916,-0.4558 l 0.610299,-4.4844 c -0.153954,-0.2004 -0.339303,-0.4293 -0.556555,-0.6863 -1.132506,-0.1495 -2.266456,-0.2871 -3.401343,-0.4124 z m -59.839242,0.6501 c -0.0552,0 -0.13564,0.014 -0.25942,0.048 -2.0278,0.5516 -4.07092,1.171 -6.11538,1.8737 l -5.2e-4,0.01 c -0.16981,0.058 -0.3397,0.1174 -0.50953,0.1768 -0.0118,0.084 -0.0236,0.1685 -0.0351,0.2527 -0.64799,0.8755 -1.14823,1.5827 -1.46606,2.0401 -0.16525,0.2379 -0.29273,0.4257 -0.37569,0.5488 -0.0421,0.062 -0.0737,0.1109 -0.0982,0.1484 -0.0121,0.019 -0.0223,0.035 -0.0341,0.054 -0.006,0.01 -0.0122,0.019 -0.0232,0.039 -0.006,0.01 -0.0124,0.022 -0.0248,0.047 -0.006,0.013 -0.014,0.029 -0.0248,0.057 -0.0108,0.028 -0.0408,0.1601 -0.0408,0.1602 -0.023,0.1649 -0.0459,0.3298 -0.0682,0.4946 0.15397,0.071 0.30734,0.1433 0.46044,0.2155 0.10614,0.05 0.22722,0.117 0.35553,0.1912 0.23238,0.1703 0.35657,0.3241 0.40049,0.4196 0.3423,0.8815 0.60487,1.565 0.77463,2.0143 l 2.31614,6.1304 c 0.16473,0.4361 0.40424,1.0818 0.70487,1.8971 0.002,0.01 0.003,0.021 0.004,0.027 0.0133,0.051 0.0257,0.085 0.0382,0.1179 0.0244,0.1035 0.027,0.4083 -0.1142,0.8733 -0.07,0.2307 -0.13851,0.4615 -0.20567,0.6919 0.22419,0.08 0.44731,0.1602 0.67024,0.2419 0.54573,0.2003 1.23111,0.4436 2.05414,0.7416 0.27903,0.1111 0.49639,0.1963 0.65939,0.2557 0.0836,0.031 0.15054,0.054 0.21911,0.074 0.0343,0.01 0.0672,0.02 0.11782,0.03 0.0505,0.01 0.0742,0.07 0.34468,-0.021 1.65638,-0.5583 3.35694,-1.0778 5.08806,-1.5725 0.0707,-0.02 0.16779,-0.04 0.31058,-0.1767 0.0427,-0.041 1.1227,-1.5413 1.42007,-1.942 0,0 0.0596,-0.08 0.0605,-0.081 0.1421,-0.191 0.21503,-0.2871 0.35708,-0.478 0.041,-0.055 0.0716,-0.097 0.0956,-0.1303 0.0122,-0.017 0.0215,-0.03 0.0331,-0.047 0.006,-0.01 0.0121,-0.017 0.0232,-0.035 0.006,-0.01 0.0126,-0.019 0.0248,-0.042 0.006,-0.012 0.0131,-0.026 0.0248,-0.052 0.0116,-0.026 0.0491,-0.1518 0.0491,-0.1519 0.0116,-0.056 0.0235,-0.1108 0.0351,-0.1664 l -0.12195,-0.4863 c -0.0899,-0.052 -0.1796,-0.104 -0.26975,-0.156 -0.26145,-0.1504 -0.5314,-0.5031 -0.72089,-1.2439 l -1.75648,-6.8657 c -0.16224,-0.6343 -0.41012,-1.6395 -0.73898,-2.9957 l -0.001,-0.01 -0.001,-0.01 c -0.0363,-0.1419 -0.0124,-0.4478 0.24391,-0.925 0.12231,-0.2273 0.24558,-0.4546 0.36949,-0.6816 -0.24188,-0.1021 -0.48442,-0.2035 -0.72761,-0.3044 -0.27161,-0.1126 -0.57978,-0.2355 -0.92242,-0.3669 -0.38746,-0.153 -0.82425,-0.3194 -1.30483,-0.495 -0.008,-0.01 -0.0156,-0.01 -0.0233,-0.01 -0.30748,-0.1229 -0.55401,-0.2175 -0.73587,-0.2811 -0.094,-0.033 -0.17207,-0.058 -0.25011,-0.079 -0.039,-0.01 -0.0765,-0.022 -0.13488,-0.032 -0.036,-0.01 -0.0578,-0.034 -0.14986,-0.032 z m 60.528089,0.1633 c 0.767002,0.088 1.533189,0.1826 2.299084,0.2822 0.05732,0.07 0.112073,0.1361 0.163298,0.2 l -0.510046,3.8881 c -0.03655,0.028 -0.08607,0.065 -0.115756,0.087 -0.771599,-0.1007 -1.544132,-0.1956 -2.317171,-0.2847 z m 24.933362,0.4573 c -0.55058,0.7723 -1.095464,1.5475 -1.634526,2.3255 l -0.118339,0.4279 c 0.05483,0.09 0.109321,0.1793 0.163815,0.2692 0.267925,0.4393 0.330195,0.9021 0.147277,1.5467 l -2.629813,9.265 c -0.107601,0.3791 -0.339156,0.6908 -0.815971,0.9995 -0.113694,0.074 -0.227242,0.1473 -0.340548,0.2211 v 0.4098 c 0,0.5141 0.0045,0.8093 0.02015,1.0325 -4.57e-4,0 -9.81e-4,0 -0.0016,-0.01 0.0055,0.3592 0.01145,0.6279 0.01809,0.8238 -0.01575,0.3652 0.08891,0.6093 0.317805,0.8924 2.512502,0.7209 4.990158,1.5209 7.422803,2.4071 0.103614,-0.088 0.207663,-0.1758 0.311609,-0.2636 0.162982,-0.1384 0.373107,-0.3453 0.8816,-0.8226 0.476317,-0.4471 1.234264,-1.1551 2.157491,-1.9917 0.481681,-0.4294 0.124322,-0.9876 0.0377,-1.1079 -0.555675,-0.7225 -0.929517,-1.1989 -1.076937,-1.3989 -0.04264,-0.058 -0.08611,-0.1168 -0.129191,-0.1752 -0.196984,-0.072 -0.394213,-0.1439 -0.591695,-0.2149 -0.104335,0.077 -0.208586,0.1542 -0.312643,0.2315 -0.307798,0.2281 -0.676375,0.4472 -1.09554,0.6557 -0.596269,0.2374 -1.049147,0.2576 -1.463993,0.1184 -0.45699,-0.1534 -0.915222,-0.304 -1.374593,-0.4517 l 2.836002,-8.7994 c 0.06003,-0.1862 0.106391,-0.3291 0.14211,-0.4212 l 0.0248,-0.076 c 0.0055,-0.01 0.01101,-0.016 0.01654,-0.024 l 0.02739,-0.087 c 0.177324,-0.5499 0.459766,-0.8741 0.931209,-1.1012 0.136621,-0.066 0.273192,-0.1312 0.410311,-0.1964 0,-0.1474 -0.0055,-0.2944 -0.0072,-0.4418 -0.01274,-0.8082 -0.02166,-1.2143 -0.03772,-1.4309 0.0055,-0.2596 3.32e-4,-0.4587 -0.0052,-0.6098 0.0029,-0.686 -0.595284,-0.9104 -0.595284,-0.9104 -1.20832,-0.383 -2.4206,-0.748 -3.635954,-1.0951 z m -85.523461,0.1478 c 0.0429,-0.012 0.38549,0.104 1.02009,0.3556 0.73405,0.2652 1.3646,0.5095 1.87482,0.7183 0.12153,0.049 0.23726,0.095 0.34675,0.1405 -0.0804,0.1506 -0.1467,0.2949 -0.19844,0.4326 -0.143,0.3818 -0.17621,0.7144 -0.10232,0.9968 0.33712,1.356 0.5917,2.3616 0.75913,3.0009 l 1.79627,6.8579 c 0.16706,0.638 0.41195,1.1152 0.73123,1.431 0.10733,0.1073 0.22299,0.1964 0.34726,0.2676 l 0.006,0.012 c 0,0.01 -0.0699,0.099 -0.20515,0.2812 -0.21871,0.2949 -1.66541,2.2983 -1.69551,2.3063 -1.74278,0.497 -3.45681,1.0205 -5.12837,1.5844 -0.0356,0.012 -0.33809,-0.1006 -0.91364,-0.3302 -0.82317,-0.2981 -1.50657,-0.5411 -2.04431,-0.739 0.17259,-0.5577 0.21675,-0.9992 0.12092,-1.3276 -0.0221,-0.06 -0.0307,-0.095 -0.0279,-0.1049 v -5e-4 -5e-4 h 5.2e-4 v -5e-4 h 5.2e-4 l 5.1e-4,-5e-4 c -0.3093,-0.8648 -0.54629,-1.5204 -0.71468,-1.9792 l -2.25878,-6.1547 c -0.16968,-0.4623 -0.42796,-1.1536 -0.77101,-2.0619 -0.10879,-0.2449 -0.3196,-0.4834 -0.63407,-0.7116 -0.16003,-0.096 -0.31054,-0.1773 -0.45165,-0.2449 0.003,-0.018 0.63745,-0.9832 2.02055,-2.8402 l -5.2e-4,-5e-4 h 0.001 c 0.003,-0.01 0.0195,-0.015 0.0475,-0.024 l -0.003,-5e-4 c 2.02962,-0.6963 4.05967,-1.3114 6.07612,-1.8599 z m 13.12064,0.037 c -1.05763,0.1904 -2.11397,0.3932 -3.16828,0.6083 l 0.88935,4.3615 c 1.02419,-0.2088 2.0505,-0.4053 3.07889,-0.5902 0.28792,-0.3899 0.52627,-0.7164 0.71933,-0.9891 l -0.4656,-2.6897 c -0.32707,-0.2305 -0.67799,-0.4644 -1.05369,-0.7008 z m 72.763006,0.6832 c 1.020751,0.2964 2.039103,0.6053 3.054593,0.9271 h 5.17e-4 l 5.17e-4,5e-4 5.17e-4,5e-4 5.17e-4,5e-4 c 0.02383,0.025 0.03475,0.2807 0.03101,0.7731 0.0094,0.1066 0.02826,0.6065 0.04599,1.4557 -0.642455,0.3115 -1.070282,0.8223 -1.29191,1.5245 -0.01827,0.029 -0.0869,0.2312 -0.206189,0.6092 l -3.002918,9.5168 c 0.684487,0.2155 1.366644,0.4372 2.04587,0.6651 0.597099,0.2003 1.252245,0.1524 1.977657,-0.1401 0.467734,-0.2291 0.882115,-0.475 1.242302,-0.74 0.0078,0 0.01498,0.01 0.02274,0.01 0.165252,0.2237 0.534476,0.6932 1.090373,1.4144 0.04077,0.066 0.06036,0.1041 0.05891,0.1132 h -5.17e-4 c -1.884168,1.723 -2.852176,2.6773 -2.993615,2.7983 -2.265011,-0.8159 -4.567522,-1.5577 -6.899321,-2.2314 -0.01772,-0.022 -0.02742,-0.3878 -0.03462,-1.0971 -0.01163,-0.1311 -0.01602,-0.4661 -0.01602,-1.0144 0.589402,-0.3798 0.970007,-0.8503 1.134815,-1.418 l 2.68459,-9.2486 c 0.227941,-0.7853 0.158099,-1.4893 -0.218591,-2.1099 l 0.0067,-0.023 c 0.418501,-0.5965 0.840188,-1.1913 1.265556,-1.7843 z m -72.953686,0.093 c 0.18391,0.1182 0.36118,0.2362 0.53175,0.3525 l 0.37414,2.0929 c -0.10605,0.1482 -0.22411,0.3108 -0.35502,0.4899 -0.68061,0.124 -1.36031,0.2531 -2.03915,0.3875 l -0.57981,-2.9295 c 0.68869,-0.1364 1.37789,-0.2675 2.06809,-0.3933 z m 61.924385,0.02 c -0.527266,0.2186 -0.909127,0.3856 -1.128097,0.4878 l -2.060339,10.1694 c 0.01717,0.037 0.280091,0.333 0.77928,0.893 0.672138,0.1418 1.343317,0.2881 2.012797,0.4397 0.56952,-0.2581 0.911504,-0.4127 1.067119,-0.4898 l 2.358512,-10.124 c -0.02326,-0.014 -0.296289,-0.3149 -0.828373,-0.8991 -0.733055,-0.1648 -1.466459,-0.324 -2.200899,-0.477 z m 0.101802,0.7679 c 0.562931,0.1184 1.125763,0.24 1.687752,0.3653 0.150908,0.1653 0.300552,0.3311 0.397909,0.4372 l -2.138888,9.4103 c -0.135126,0.063 -0.274073,0.1269 -0.519348,0.2388 -0.518128,-0.1163 -1.036815,-0.2297 -1.556494,-0.3401 -0.144872,-0.163 -0.290716,-0.3257 -0.379822,-0.4273 l 1.965772,-9.4506 c 0.147696,-0.065 0.317227,-0.1389 0.543119,-0.2336 z m -81.789327,0.1504 -0.001,0.01 c -2.7e-4,0.01 -0.001,0.01 -0.002,0.01 l -5.1e-4,6e-4 -5.2e-4,5e-4 -5.2e-4,5e-4 -5.1e-4,5e-4 c 2.4e-4,0 7.4e-4,-0.01 0.001,-0.01 v -5e-4 h 5.2e-4 v -5e-4 h 5.1e-4 5.2e-4 5.2e-4 v -5e-4 l 5.1e-4,-5e-4 c 5.1e-4,0 0.001,0 0.002,-0.01 z m 5.72162,1.4831 c -0.73123,0.2146 -1.463,0.4383 -2.19418,0.6713 -0.36117,0.4536 -0.61802,0.7911 -0.76171,0.9901 l 3.26026,9.8867 c 0.0326,0.024 0.40384,0.1522 1.10536,0.3974 0.64429,-0.205 1.2925,-0.4042 1.94459,-0.5984 0.37029,-0.509 0.58562,-0.8012 0.68678,-0.9498 l -2.86701,-10.0134 c -0.0274,0 -0.41487,-0.1331 -1.17409,-0.3839 z m -11.6396,0.6769 c -0.0953,0 -0.20898,0.012 -0.33538,0.07 l -3.11454,1.4216 0.36639,3.0551 0.3948,0.1644 c 0.0921,0.038 0.19828,0.096 0.31575,0.1715 0.35451,0.2403 0.52932,0.4553 0.57981,0.5659 l 1.24126,2.7197 c -1.11139,-1.0863 -2.31819,-2.2658 -4.1646,-4.0679 l -0.007,-0.01 c -0.33269,-0.3329 -0.5887,-0.5864 -0.76792,-0.7606 -0.0904,-0.088 -0.16175,-0.1559 -0.21859,-0.2083 -0.0282,-0.026 -0.0519,-0.049 -0.0806,-0.073 -0.0143,-0.012 -0.0289,-0.024 -0.0537,-0.043 -0.0249,-0.018 -0.0227,-0.04 -0.1881,-0.1023 l -0.28473,-0.1059 -3.64526,1.6712 0.32246,2.7326 0.0481,0.1049 c 0.0745,0.1632 0.2488,0.3386 0.4315,0.4166 0.4993,0.2281 0.7775,0.5076 0.95033,0.8862 l 3.77341,8.2672 c 0.11718,0.2567 0.24159,0.5826 0.3669,0.9648 0.0839,0.2838 0.0845,0.6335 -0.0537,1.0976 l -0.078,0.263 0.1142,0.2496 c 0.0904,0.1979 0.0902,0.152 0.10956,0.1763 0.0197,0.024 0.036,0.044 0.0558,0.067 0.0401,0.047 0.0907,0.1037 0.15554,0.1752 0.12975,0.1431 0.31643,0.3444 0.56173,0.6077 0.22358,0.2509 0.39872,0.4436 0.52658,0.5778 0.0656,0.069 0.11642,0.1226 0.17157,0.1736 0.0274,0.025 0.0523,0.048 0.10645,0.087 0.027,0.02 0.0584,0.044 0.13642,0.079 0.0393,0.018 0.0909,0.043 0.18294,0.058 0.0464,0.01 0.17532,0.01 0.1757,0.01 4.7e-4,0 0.25701,-0.064 0.25735,-0.064 l 3.14606,-1.4361 -0.35812,-3.0814 -0.35915,-0.1757 c -0.3784,-0.1849 -0.61317,-0.3628 -0.68265,-0.4388 l -0.0341,-0.037 -0.0346,-0.031 v -5e-4 c -0.006,-0.025 -0.30408,-0.4244 -0.59014,-1.0511 l -0.84646,-1.8546 c 1.55062,1.5197 3.50811,3.4428 4.22972,4.1403 0.31563,0.3185 0.55799,0.5609 0.72553,0.7245 0.0851,0.083 0.15164,0.1464 0.20619,0.1963 0.0272,0.025 0.049,0.046 0.0837,0.074 0.0174,0.014 0.0339,0.028 0.0811,0.058 0.0234,0.015 0.0513,0.035 0.12402,0.064 0.0362,0.014 0.16912,0.046 0.1695,0.046 h 0.16537 c 1.3e-4,-10e-5 0.24432,-0.063 0.24443,-0.063 l 3.34346,-1.5261 -0.34933,-3.0582 -0.39429,-0.1674 c -0.0621,-0.027 -0.20073,-0.1 -0.35864,-0.1891 -0.31599,-0.2498 -0.49212,-0.475 -0.48834,-0.4667 l -4.28243,-9.3829 c 1.4e-4,0 -0.0401,-0.1191 -0.0692,-0.2935 l -0.002,-0.02 -0.005,-0.021 c -0.0398,-0.176 -0.0325,-0.466 0.0935,-0.8718 l 0.0827,-0.2672 -0.11576,-0.2542 c -0.0568,-0.1244 -0.0686,-0.1212 -0.0837,-0.1416 -0.0149,-0.021 -0.0265,-0.034 -0.0372,-0.048 -0.0227,-0.028 -0.0455,-0.056 -0.0744,-0.09 -0.0578,-0.067 -0.13586,-0.1541 -0.23719,-0.2672 -0.20065,-0.2238 -0.49219,-0.5452 -0.87747,-0.9663 -0.0718,-0.088 -0.13209,-0.1582 -0.20153,-0.2279 -0.0375,-0.038 -0.0714,-0.074 -0.15038,-0.1292 -0.0393,-0.027 -0.0888,-0.063 -0.19172,-0.099 -0.0516,-0.018 -0.12849,-0.041 -0.22376,-0.045 z m 11.59722,0.1 c 0.19781,0.065 0.36908,0.1221 0.56689,0.1871 l 2.72387,9.2826 c -0.0901,0.1263 -0.17106,0.2398 -0.33228,0.4625 -0.50492,0.1514 -1.00785,0.306 -1.50844,0.464 -0.19294,-0.068 -0.42176,-0.1472 -0.5364,-0.1881 l -2.95951,-9.2195 c 0.0986,-0.1301 0.21382,-0.2803 0.36742,-0.475 0.55914,-0.1766 1.11899,-0.3478 1.67845,-0.5136 z m -11.62668,0.6449 c 0.0251,0 0.10667,0.079 0.24443,0.2491 0.78066,0.853 1.17902,1.2975 1.1958,1.3343 -0.15121,0.4869 -0.18779,0.9033 -0.10956,1.25 0.0358,0.2148 0.0775,0.3745 0.12454,0.4775 l 4.28294,9.3824 c 0.0975,0.2135 0.34362,0.4705 0.73846,0.7705 0.2057,0.1195 0.36861,0.205 0.48989,0.2563 l 0.24082,2.1043 -2.85926,1.3053 c -0.0147,0.01 -0.34342,-0.3147 -0.9865,-0.9638 -1.19358,-1.1537 -3.53251,-3.4428 -7.01663,-6.8678 h -0.0109 l 2.4691,5.4095 c 0.32248,0.7065 0.58404,1.1426 0.78445,1.309 0.1777,0.1944 0.47774,0.3951 0.90123,0.602 l 0.2496,2.1534 -2.6603,1.2144 c -0.0221,0.01 -0.2612,-0.2409 -0.71727,-0.7529 -0.48821,-0.5241 -0.73899,-0.8006 -0.75241,-0.83 0.16847,-0.566 0.18638,-1.0724 0.0537,-1.5187 -0.13389,-0.4102 -0.26767,-0.7624 -0.40204,-1.0568 l -3.77393,-8.2677 c -0.25193,-0.552 -0.69747,-0.9719 -1.33532,-1.2589 -0.0214,-0.01 -0.0371,-0.024 -0.047,-0.045 l -0.2465,-2.0888 2.88148,-1.3152 c 0.0321,0.012 0.38402,0.3545 1.05523,1.0263 4.61867,4.5078 6.93978,6.7786 6.96392,6.812 h 0.0109 l -2.86701,-6.2818 c -0.13441,-0.2945 -0.41345,-0.5847 -0.83768,-0.8712 -0.15215,-0.1 -0.29967,-0.179 -0.44235,-0.2383 l -0.25166,-2.0996 2.62775,-1.1994 c 6.9e-4,-3e-4 0.001,-4e-4 0.002,-5e-4 z m 111.711014,0.124 -0.507979,0.017 -1.684652,1.8298 -0.168982,0.3659 0.07855,0.2651 c 0.163616,0.5532 0.134473,0.9501 -0.03204,1.31 l -4.07727,8.8103 c -0.171007,0.3696 -0.453193,0.645 -0.973067,0.8703 l -0.380339,0.1648 -0.05426,0.4113 c -0.09157,0.6901 -0.158854,1.2093 -0.201538,1.5607 -0.131054,0.8388 -0.09199,1.0653 0.366955,1.2777 l 3.081466,1.4258 0.361218,-0.3892 c 0.461549,-0.4959 0.809727,-0.8721 1.045931,-1.1296 0.21774,-0.2358 0.268348,-0.2901 0.457339,-0.5229 -0.07285,0.6377 -0.06605,1.0931 -0.136935,1.731 -0.119288,1.0774 -0.0027,1.1083 0.367446,1.2796 l 3.083532,1.4268 0.361735,-0.3747 c 0.17204,-0.1786 0.624447,-0.6664 1.39268,-1.4975 l 0.07803,-0.085 0.199471,-0.431 -0.150896,-0.3121 c -0.09085,-0.1872 -0.143854,-0.3097 -0.153995,-0.3344 -0.129187,-0.4119 -0.181293,-0.7672 -0.168982,-1.0624 l 0.0026,-0.03 -0.0016,-0.03 c -0.06651,-1.6394 -0.123721,-3.4525 -0.173633,-5.3831 0.445246,-0.3669 1.236782,-1.0088 2.661337,-2.1503 l 0.0093,-0.01 0.0041,-0.01 c 0.46717,-0.3868 0.835978,-0.6872 1.102258,-0.8976 0.242793,-0.1917 0.443534,-0.3287 0.438733,-0.3297 v -6e-4 h 5.17e-4 5.16e-4 v -5e-4 l 0.06305,-0.035 0.05891,-0.053 c 0.478151,-0.4263 0.856689,-0.5855 1.07797,-0.6046 l 0.588078,-0.051 0.07441,-0.586 c 0.07725,-0.602 0.113606,-0.8655 0.129708,-1.0558 0.04217,-0.3054 0.07287,-0.5422 0.09198,-0.7188 0.0097,-0.088 0.01694,-0.1599 0.02067,-0.2273 0.0043,-0.067 0.04673,-0.04 -0.02015,-0.3111 l -0.08837,-0.3339 -3.384806,-1.5647 -0.361735,0.3664 c -0.17391,0.176 -0.649058,0.6786 -1.473812,1.5549 l -0.142627,0.1509 0.02945,-0.1302 c 0.05354,-0.2357 0.08699,-0.5381 0.163298,-1.1493 0.04096,-0.3302 0.07128,-0.579 0.09043,-0.7498 0.0098,-0.3485 0.02296,-0.5269 -0.130174,-0.7824 -1e-4,0 -0.267629,-0.2133 -0.267684,-0.2134 z m -0.150378,0.7385 2.588473,1.1978 c 0.0073,0 -0.03018,0.3336 -0.111622,0.9912 -0.0758,0.6068 -0.125893,0.9665 -0.151412,1.0795 -0.629155,0.2616 -1.086647,0.7006 -1.372009,1.3173 l -0.305924,0.6609 -1.452108,3.1383 c 1.765409,-1.4649 3.05963,-2.5281 3.882967,-3.19 0.210922,-0.2055 0.360709,-0.4038 0.449068,-0.5948 l 0.02067,-0.044 c 0.0067,-0.014 0.01674,-0.024 0.02636,-0.028 0.08496,-0.1836 0.122237,-0.3892 0.111621,-0.617 0.823827,-0.8753 1.310784,-1.3884 1.461926,-1.5415 h 5.17e-4 l 2.598291,1.203 c 0.01288,0.05 -0.02269,0.3775 -0.105937,0.9808 -0.0052,0.069 -0.0487,0.4226 -0.130741,1.062 -0.454913,0.039 -0.955444,0.3026 -1.501717,0.7896 -0.156593,0.088 -0.704059,0.5209 -1.643311,1.2986 -1.572464,1.26 -2.55473,2.053 -2.94659,2.3797 0.05213,2.0832 0.113841,4.0014 0.185002,5.7547 -0.0168,0.4022 0.0505,0.8441 0.202571,1.3245 0.02752,0.076 0.0919,0.2158 0.192237,0.4227 l -0.0052,0.011 c -0.767513,0.8303 -1.228502,1.3259 -1.382861,1.4862 l -2.610177,-1.2082 c -0.0073,0 0.07101,-0.7116 0.234611,-2.1244 0.166789,-0.1101 0.29762,-0.2679 0.392741,-0.4734 0.159668,-0.3451 0.218999,-0.7811 0.177767,-1.3084 -0.02856,-1.4215 -0.042,-2.1719 -0.04082,-2.2516 -0.0606,0.035 -0.556013,0.4112 -1.486215,1.1307 -0.145228,0.1022 -0.221607,0.1605 -0.22841,0.1752 l -0.167948,0.3633 c -0.217412,0.4698 -0.242131,1.0242 -0.07441,1.6634 l 0.02429,0.093 -0.0052,0.011 c -0.01386,0.03 -0.481614,0.5395 -1.403532,1.5301 l -2.598291,-1.2025 c -0.01461,-0.01 0.06883,-0.699 0.251665,-2.0763 0.646607,-0.2801 1.095775,-0.6917 1.347204,-1.2351 l 4.076754,-8.8098 c 0.247986,-0.5359 0.271337,-1.1453 0.06976,-1.8268 l 0.0047,-0.011 1.398364,-1.5193 z m 2.948657,3.8018 0.0062,0.1406 c 0.0056,0.1212 -0.01325,0.1956 -0.04186,0.2615 -0.0063,0.014 -0.024,0.03 -0.02946,0.042 l -0.02067,0.044 c -0.03612,0.078 -0.129406,0.2109 -0.288354,0.368 -0.295442,0.2377 -0.9572,0.7885 -1.367875,1.1245 l 0.106453,-0.23 0.305925,-0.6615 c 0.215774,-0.4663 0.511153,-0.7494 0.988053,-0.9477 z m -4.889624,9.3705 h -5.17e-4 c -0.03026,0.5762 0.138231,1.2521 -0.09407,1.7906 -0.126472,0.1793 -0.251435,0.2482 -0.406693,0.3509 -0.0098,-0.2349 0.0032,-0.2938 -0.0403,-0.4568 -0.135267,-0.5185 -0.101588,-0.877 0.03204,-1.1658 0.09549,-0.2596 0.290192,-0.3525 0.509522,-0.5204 z" /></g></svg>
