<?xml version="1.0" encoding="UTF-8" standalone="no"?>
<svg
   width="472.30466"
   height="227.05469"
   viewBox="0 0 124.96394 60.074888"
   version="1.1"
   id="svg16"
   xml:space="preserve"
   xmlns="http://www.w3.org/2000/svg"
   xmlns:svg="http://www.w3.org/2000/svg"
   xmlns:rdf="http://www.w3.org/1999/02/22-rdf-syntax-ns#"
   xmlns:cc="http://creativecommons.org/ns#"
   xmlns:dc="http://purl.org/dc/elements/1.1/"><defs
     id="defs10" /><metadata
     id="metadata13"><rdf:RDF><cc:Work
         rdf:about=""><dc:format>image/svg+xml</dc:format><dc:type
           rdf:resource="http://purl.org/dc/dcmitype/StillImage" /></cc:Work></rdf:RDF></metadata><g
     id="layer1"
     transform="translate(-100.0213,-7467.0462)"><path
       id="path1769"
       style="fill:#d40000;fill-opacity:1;stroke-width:0.325903;stroke-linecap:round;stroke-linejoin:round;paint-order:stroke fill markers"
       d="m 179.54718,7475.892 c 0.18082,0.431 0.34741,0.8682 0.49609,1.3147 14.68553,0.6105 28.56585,1.97 40.42183,4.0132 1.8527,0.3193 3.22131,1.9435 3.22151,3.8235 v 1.7229 c 0.4712,0.2735 0.89802,0.6065 1.29862,0.9684 v -2.6929 c -2e-4,-2.5184 -1.81354,-4.6711 -4.29534,-5.0989 -12.07869,-2.0815 -26.20565,-3.4498 -41.14271,-4.0509 z m -34.09146,0.01 c -14.93488,0.5967 -29.05917,1.9602 -41.13806,4.0411 -2.4818,0.4277 -4.29504,2.5805 -4.29534,5.0989 v 2.6918 c 0.39897,-0.3602 0.82339,-0.6922 1.29243,-0.9648 v -1.727 c 1e-4,-1.88 1.36891,-3.5038 3.22151,-3.8231 11.857,-2.0427 25.73692,-3.3909 40.42233,-3.9971 0.14889,-0.4485 0.31582,-0.8869 0.49713,-1.3198 z m 18.66036,13.3444 c -0.47693,-0.012 -0.86354,0.3645 -0.86351,0.8407 v 2.8763 3.311 3.3103 3.3115 2.8763 c -7e-5,0.4761 0.38658,0.8718 0.86351,0.8831 l 2.88045,0.069 3.31401,0.079 3.31194,0.079 3.31039,0.079 2.87476,0.069 c 0.47572,0.011 0.86152,-0.3648 0.86145,-0.8403 v -2.4386 c 4e-5,-0.4755 -0.38576,-0.8706 -0.86145,-0.8821 l -2.87476,-0.069 -3.31039,-0.08 -3.31194,-0.08 -2.8851,-0.07 v -2.4546 l 2.8851,0.07 3.31194,0.081 4.53047,0.11 c 0.47585,0.012 0.86203,-0.3641 0.86196,-0.8397 v -2.4391 c 1.7e-4,-0.4756 -0.38605,-0.871 -0.86196,-0.8827 l -4.53047,-0.1116 -3.31194,-0.082 -2.8851,-0.071 v -2.4547 l 2.8851,0.072 3.31194,0.082 3.31039,0.082 2.87476,0.071 c 0.47572,0.012 0.86152,-0.3643 0.86145,-0.8398 v -2.4386 c 4e-5,-0.4755 -0.38576,-0.8707 -0.86145,-0.8826 l -2.87476,-0.072 -3.31039,-0.083 -3.31194,-0.083 -3.31401,-0.084 z m -3.87573,0.011 -2.69648,0.07 c -0.22865,0.01 -0.4481,0.1027 -0.60978,0.2687 l -4.53771,4.6591 -4.53977,-4.4214 c -0.16177,-0.1576 -0.38097,-0.2427 -0.60978,-0.2367 l -2.69803,0.07 c -0.4766,0.012 -0.86303,0.409 -0.863,0.8857 v 2.88 3.314 3.315 3.3145 2.8794 c -6e-5,0.4767 0.38637,0.8531 0.863,0.8403 l 2.44378,-0.065 c 0.47656,-0.013 0.86305,-0.4097 0.86299,-0.8863 v -2.8794 -3.3135 -3.3145 -0.9079 l 3.93103,3.8287 c 0.33679,0.328 0.88277,0.3134 1.21956,-0.032 l 3.93,-4.0354 v 0.9069 3.3135 3.313 2.8784 c -7e-5,0.4765 0.38628,0.852 0.86248,0.8392 l 2.44171,-0.065 c 0.47608,-0.013 0.86203,-0.4093 0.86196,-0.8857 v -2.8779 -3.3124 -3.313 -3.312 -2.8783 c 4e-5,-0.4764 -0.38588,-0.8523 -0.86196,-0.8398 z m 23.35516,0.5602 c -0.43554,0.01 -0.77569,0.3507 -0.77566,0.7968 v 2.4407 c -7e-5,0.476 0.38701,0.8917 0.86403,0.9286 l 2.88044,0.2238 2.88562,0.2238 v 2.8799 3.3068 3.3078 2.8737 c -3e-5,0.4757 0.38655,0.8907 0.86299,0.9271 l 2.44275,0.187 c 0.47631,0.037 0.86254,-0.3192 0.86248,-0.7947 v -2.8727 -3.3068 -3.3058 -2.8788 l 2.88199,0.2232 2.87476,0.2232 c 0.47575,0.037 0.86099,-0.3184 0.86093,-0.7937 v -2.4376 c 3e-5,-0.4752 -0.38521,-0.8901 -0.86093,-0.9271 l -2.87476,-0.2242 -3.31039,-0.2579 -3.31194,-0.2579 -3.3135,-0.2584 -2.88044,-0.2242 c -0.0298,0 -0.0593,0 -0.0884,0 z m -42.83511,0.031 c -0.029,-6e-4 -0.0586,2e-4 -0.0884,0 l -2.87992,0.231 -3.31401,0.2656 -3.31143,0.2661 -3.31091,0.2651 -2.87527,0.231 c -0.47592,0.038 -0.862,0.4549 -0.86197,0.9312 v 2.8774 3.3119 3.312 3.3119 2.8773 c -6e-5,0.4763 0.38605,0.832 0.86197,0.7943 l 2.87527,-0.2279 3.31091,-0.262 3.31143,-0.2625 3.31401,-0.2625 2.87992,-0.2279 c 0.47677,-0.038 0.86307,-0.4549 0.863,-0.9317 v -2.8805 -3.3145 -3.3156 -3.315 -2.8805 c 4e-5,-0.447 -0.33932,-0.7876 -0.77463,-0.7968 z m 62.40136,1.5968 c -0.43531,-0.019 -0.77517,0.2982 -0.77515,0.7441 v 2.8732 3.3068 2.8732 c -7e-5,0.4756 0.38676,0.9172 0.86352,0.986 l 2.87941,0.4165 3.31297,0.4791 3.31195,0.4785 2.88302,0.417 v 2.451 l -2.88302,-0.4165 -3.31195,-0.4785 -3.31297,-0.4785 -2.87941,-0.416 c -0.47676,-0.069 -0.86355,0.2607 -0.86352,0.7364 v 2.4391 c -7e-5,0.4756 0.38676,0.9169 0.86352,0.9855 l 2.87941,0.4154 3.31297,0.478 3.31195,0.4781 3.31142,0.4774 2.8758,0.415 c 0.47605,0.069 0.86203,-0.2606 0.86196,-0.7359 v -2.8711 -3.3042 -2.8701 c 1.3e-4,-0.4754 -0.38585,-0.9167 -0.86196,-0.9855 l -2.8758,-0.4165 -3.31142,-0.4795 -3.31195,-0.4796 -2.88509,-0.4175 v -2.4521 l 2.88509,0.4181 3.31195,0.48 3.31142,0.4796 2.8758,0.417 c 0.47605,0.069 0.86203,-0.2601 0.86196,-0.7353 v -2.4376 c 3e-5,-0.4752 -0.38591,-0.9161 -0.86196,-0.985 l -2.8758,-0.4175 -3.31142,-0.4806 -3.31195,-0.4806 -3.31297,-0.4806 -2.87941,-0.418 c -0.0298,0 -0.0594,-0.01 -0.0884,-0.01 z m -81.96967,0.067 c -0.029,0 -0.0585,0 -0.0884,0.01 l -2.23501,0.3282 -3.31401,0.4857 -3.31246,0.4858 -3.30987,0.4858 -2.87373,0.4216 c -0.47565,0.07 -0.86147,0.5119 -0.86144,0.9881 v 2.8773 3.3109 3.311 3.3114 2.8768 c -6e-5,0.4762 0.38579,0.8064 0.86144,0.7374 l 2.87373,-0.417 3.30987,-0.4801 3.31246,-0.4806 3.31401,-0.4806 2.23501,-0.324 c 0.47709,-0.069 0.8641,-0.5121 0.86403,-0.9891 v -2.4463 c 3e-5,-0.477 -0.38694,-0.807 -0.86403,-0.7374 l -2.23501,0.325 -3.31401,0.4816 -3.31246,0.4822 -2.88251,0.4191 v -2.8851 -3.312 -2.8845 l 2.88251,-0.4217 3.31246,-0.4848 3.31401,-0.4847 2.23501,-0.3271 c 0.47709,-0.07 0.8641,-0.5126 0.86403,-0.9896 v -2.4464 c 3e-5,-0.4471 -0.34006,-0.7649 -0.77566,-0.7451 z m 16.17162,2.775 v 2.8861 3.3146 2.8861 l -2.88561,0.2294 -3.31143,0.2631 -2.88354,0.2289 v -2.8846 -3.313 -2.8845 l 2.88354,-0.2305 3.31143,-0.2651 z m 87.62152,22.8141 c -0.39951,0.3583 -0.83411,0.6746 -1.29862,0.9457 v 1.7746 c -2e-4,2.3791 -2.18891,4.2274 -4.53461,3.825 l -0.0481,-0.01 h 0.10697 a 1.2935571,1.2935571 0 0 1 -0.21911,-0.019 c -11.33212,-1.9484 -24.85039,-3.2688 -39.19502,-3.8659 v 1.2991 c 14.2794,0.5967 27.7295,1.9083 38.97643,3.8422 h 0.0103 l 0.15554,0.027 c 3.1598,0.5413 6.04584,-1.8942 6.04614,-5.1 z m -124.96291,0.042 v 5e-4 2.7104 c 3e-4,3.21 2.89296,5.6449 6.05596,5.0979 l 0.15555,-0.027 c 11.23218,-1.9421 24.68217,-3.2648 38.97126,-3.8685 v -1.2945 c -14.35333,0.6095 -27.87121,1.9477 -39.19399,3.8881 l -0.15606,0.027 c -2.3454,0.4019 -4.54029,-1.4419 -4.54029,-3.8235 v -1.7648 c -0.46202,-0.2716 -0.89482,-0.5875 -1.29243,-0.9456 z" /><path
       id="path1770"
       style="-inkscape-font-specification:'College Block 2.0, Normal'"
       d="m 162.50223,7467.046 c -8.80485,0 -15.99799,7.1952 -15.99799,16.0001 0,0.4265 0.0171,0.849 0.0506,1.2671 -15.33992,0.5712 -29.86521,1.9422 -42.23825,4.0737 a 5.1742281,5.1742281 0 0 0 -4.29534,5.0984 v 17.9286 a 5.1742281,5.1742281 0 0 0 6.05596,5.0979 l 0.15554,-0.027 c 15.6852,-2.712 35.66362,-4.2423 56.26892,-4.2468 20.5863,0 40.56167,1.5137 56.27047,4.2148 a 5.1742281,5.1742281 0 0 0 0.0103,0 l 0.15555,0.027 a 5.1742281,5.1742281 0 0 0 6.04614,-5.0999 v -17.8951 a 5.1742281,5.1742281 0 0 0 -4.29534,-5.0984 c -12.37312,-2.1322 -26.89558,-3.5131 -42.23825,-4.0886 0.0327,-0.4128 0.0496,-0.8301 0.0496,-1.2511 0,-8.8049 -7.19313,-16 -15.99799,-16 z m -0.001,2.5885 a 13.411224,13.411224 0 0 1 13.41107,13.4111 13.411224,13.411224 0 0 1 -0.0517,1.1627 c -0.0105,-3e-4 -0.021,-7e-4 -0.0315,0 a 13.411224,13.411224 0 0 1 -0.54932,2.5729 c 16.37951,0.4966 31.92225,1.9079 44.96315,4.1553 a 2.5871141,2.5871141 0 0 1 2.14767,2.5498 v 17.8945 a 2.5871141,2.5871141 0 0 1 -3.02307,2.5502 l -0.15555,-0.027 c -15.9084,-2.7354 -35.99681,-4.2524 -56.70971,-4.2524 -20.7319,0 -40.8233,1.5383 -56.7092,4.285 l -0.15555,0.027 a 2.5871141,2.5871141 0 0 1 -3.02824,-2.5487 v -17.9286 a 2.5871141,2.5871141 0 0 1 2.14767,-2.5492 c 13.04201,-2.2467 28.58991,-3.6477 44.96935,-4.1404 a 13.411224,13.411224 0 0 1 -0.5519,-2.5719 c -0.0105,3e-4 -0.021,7e-4 -0.0315,0 a 13.411224,13.411224 0 0 1 -0.0527,-1.1792 13.411224,13.411224 0 0 1 13.41107,-13.4111 z m -0.21962,2.5347 c -1.73134,0.025 -3.40067,0.4671 -5.0059,1.3245 -0.6869,0.367 -1.9408,1.3092 -2.4846,1.8666 -1.6945,1.7368 -2.71074,3.7884 -3.04684,6.152 -0.25576,1.7991 -0.0802,3.5434 0.52089,5.2085 1.6619,-0.04 3.33224,-0.065 5.00797,-0.086 -0.23275,-0.2454 -0.42544,-0.5203 -0.46561,-0.6883 -0.0559,-0.2346 0.0469,-0.5025 0.2682,-0.6992 0.3868,-0.344 0.98864,-0.352 1.61644,-0.022 0.2945,0.155 0.34042,0.1972 0.62632,0.5777 0.2855,0.3804 0.3128,0.4346 0.3638,0.7287 0.005,0.027 0.003,0.05 0.007,0.075 0.63841,0 1.27013,-0.02 1.90996,-0.022 a 2.5871141,2.5871141 0 0 1 0.0408,-0.017 h 0.86093 c 0.82291,5e-4 1.63607,0.019 2.4567,0.024 -0.0133,-0.3863 0.18276,-0.852 0.58549,-1.312 0.3999,-0.4569 0.9211,-0.6717 1.4056,-0.5767 0.4647,0.09 0.7124,0.3058 0.7984,0.696 0.0763,0.3448 -0.0974,0.8111 -0.3886,1.2155 1.8038,0.021 3.59791,0.052 5.38572,0.096 0.24028,-0.6818 0.41363,-1.3944 0.51934,-2.1379 0.3361,-2.3635 -0.068,-4.6174 -1.21129,-6.7577 -0.3669,-0.6869 -1.30864,-1.9412 -1.86604,-2.4851 -1.7369,-1.6945 -3.78909,-2.7108 -6.15259,-3.0469 -0.59088,-0.084 -1.17473,-0.1216 -1.75184,-0.1131 z m 0.13591,1.5379 c 3.68816,-0.031 7.20312,2.1351 8.70799,5.7614 0.2889,0.6953 0.35659,1.0434 0.26459,1.3421 -0.1528,0.4946 -0.58727,0.5826 -1.06867,0.2165 -0.3291,-0.2501 -0.63644,-0.3669 -0.92604,-0.3669 -0.2089,0 -0.2808,0.031 -0.4868,0.1855 -0.3652,0.2743 -0.5671,0.7179 -0.7028,1.541 -0.1034,0.6286 -0.11223,0.6519 -0.28783,0.7839 -0.1969,0.1481 -0.20204,0.1481 -0.96274,-0.018 -0.7563,-0.1648 -1.57887,0.2277 -2.07997,0.9927 -0.2355,0.3595 -0.34994,0.6477 -0.44494,1.1219 -0.0657,0.3269 -0.10559,0.4193 -0.21859,0.5043 -0.1968,0.1476 -0.38951,0.1526 -0.76791,0.019 -0.1819,-0.064 -0.47299,-0.1302 -0.64699,-0.1462 -0.3291,-0.031 -1.11987,0.085 -1.25057,0.1834 -0.1083,0.081 -0.36653,0.116 -0.51263,0.068 -0.1733,-0.057 -0.27339,-0.2048 -0.55759,-0.8248 -0.1348,-0.2943 -0.35347,-0.6994 -0.48627,-0.9007 -0.5408,-0.8193 -1.24754,-1.1155 -2.11564,-0.8852 -0.3594,0.096 -0.56695,0.1001 -0.73845,0.018 -0.2164,-0.1046 -0.26907,-0.2111 -0.29507,-0.5954 -0.0458,-0.6867 -0.3554,-1.3493 -0.7612,-1.6304 -0.3488,-0.2421 -0.70091,-0.2327 -1.19941,0.03 -0.3324,0.1751 -0.55641,0.2278 -0.69711,0.1618 -0.3389,-0.1576 -0.4075,-0.8699 -0.1726,-1.7922 0.1595,-0.6265 0.33548,-1.0262 0.68368,-1.5539 0.9883,-1.4977 2.42815,-2.7172 4.04575,-3.4261 1.19993,-0.5258 2.44842,-0.7798 3.67781,-0.7901 z m -5.78776,3.1254 c -0.18754,-0.01 -0.43332,0.1065 -0.72347,0.3587 -0.3043,0.2642 -0.33892,0.3707 -0.17312,0.5302 0.3206,0.3082 0.23147,1.0496 -0.25063,2.0836 -0.1025,0.2198 -0.20758,0.4528 -0.23358,0.5188 -0.0508,0.1288 0.0223,0.2725 0.13384,0.2625 0.289,-0.026 1.07447,-1.1331 1.39837,-1.9699 0.40363,-1.0432 0.30698,-1.732 -0.11472,-1.7813 -0.012,0 -0.0242,0 -0.0367,0 z m 11.84527,0.052 v 5e-4 c -0.52979,0.011 -0.53566,0.8849 0.0109,2.0599 h 5.2e-4 c 0.1292,0.2774 0.28751,0.5325 0.50281,0.8077 l 0.31367,0.4025 0.11266,-0.084 c 0.1085,-0.081 0.10624,-0.1019 -0.0641,-0.5902 -0.3321,-0.9515 -0.31885,-1.4495 0.0439,-1.6458 0.1524,-0.082 0.17833,-0.1152 0.16433,-0.2052 -0.0314,-0.2042 -0.66094,-0.6804 -0.97204,-0.7354 -0.04,-0.01 -0.0773,-0.01 -0.11265,-0.01 z m -2.38642,1.8676 c -0.0619,0 -0.12308,0 -0.18293,5e-4 -0.0684,0 -0.13519,0.012 -0.19999,0.024 -0.3299,0.063 -0.73776,0.3022 -0.92346,0.5405 -0.1917,0.2457 -0.35863,0.7049 -0.35863,0.9964 h 5.1e-4 c -0.002,0.2078 0.0179,0.2724 0.0899,0.3064 0.1346,0.062 0.20313,0.025 0.32453,-0.1757 0.1789,-0.2959 0.62954,-0.6031 0.99684,-0.6801 0.6119,-0.1284 1.34974,0.101 1.90014,0.5917 0.2596,0.231 0.39697,0.2733 0.47697,0.1452 0.1043,-0.1663 -0.40722,-0.9529 -0.81752,-1.2572 -0.39866,-0.296 -0.87316,-0.4705 -1.30638,-0.4915 z m -7.01818,0.015 c -0.31342,-0.017 -0.64545,0.066 -1.00045,0.2475 -0.3556,0.1817 -0.76016,0.5724 -0.76016,0.7307 0.002,0.1543 0.15579,0.197 0.38189,0.106 0.8208,-0.329 1.70814,-0.035 2.08514,0.6899 0.1367,0.263 0.21738,0.5629 0.22738,0.8087 0.006,0.2168 0.15708,0.3507 0.28628,0.2537 0.1177,-0.088 0.28198,-0.6171 0.29198,-0.9405 0.0118,-0.3764 -0.0732,-0.7683 -0.23358,-1.0805 -0.1186,-0.2306 -0.18276,-0.3082 -0.39016,-0.4677 -0.2798,-0.2151 -0.57489,-0.3311 -0.88832,-0.3478 z m 3.4215,1.9601 v 5e-4 c -0.32968,-0.01 -0.61778,0.057 -0.95033,0.2031 -0.487,0.2134 -0.97492,0.6993 -1.15032,1.1452 h 5.2e-4 c -0.056,0.1405 -0.0513,0.1958 0.0217,0.2728 0.0906,0.096 0.0968,0.094 0.45941,-0.1426 0.6957,-0.4523 1.37172,-0.5437 2.13062,-0.2889 0.5688,0.1911 1.12976,0.7235 1.36426,1.2955 0.1297,0.3164 0.22351,0.3889 0.36431,0.2832 0.099,-0.074 0.12092,-0.541 0.045,-0.9152 -0.1983,-0.9705 -0.95688,-1.6841 -1.93838,-1.8236 -0.1223,-0.017 -0.23686,-0.027 -0.34675,-0.03 z m -7.45691,1.558 c 0.03,0 0.0601,-6e-4 0.0899,0 v 5e-4 c 0.35818,0.041 0.7028,0.424 0.90485,1.0486 0.1182,0.3589 0.17152,1.0302 0.10852,1.3477 -0.0976,0.5022 -0.50968,0.6212 -0.97048,0.2796 h -5.2e-4 c -0.2592,-0.1925 -0.65486,-0.7117 -0.75086,-0.9855 -0.2458,-0.7014 -0.10303,-1.3598 0.35037,-1.6139 0.0882,-0.05 0.17825,-0.075 0.2682,-0.08 z m 14.78308,0.1918 c 0.21943,0.012 0.40715,0.1326 0.59221,0.3788 0.2245,0.2975 0.26366,0.5669 0.14986,1.0386 -0.1497,0.6196 -0.44169,1.0471 -0.85369,1.2506 -0.2116,0.1041 -0.63184,0.063 -0.81804,-0.08 -0.1907,-0.1471 -0.19473,-0.1529 -0.25373,-0.4191 -0.0684,-0.3086 0.0449,-0.9984 0.22841,-1.3896 0.1953,-0.4163 0.56886,-0.7547 0.85886,-0.7787 v 0 c 0.0327,0 0.0648,0 0.0961,0 z m 1.96525,0.066 v 0 c 0.1066,-0.01 0.21609,0.1815 0.29869,0.5721 0.0607,0.2875 -0.0365,1.3462 -0.14417,1.5694 -0.0866,0.1794 -0.19986,0.2602 -0.28681,0.2067 h -5.1e-4 c -0.11277,-0.071 -0.13379,-0.1217 -0.17674,-0.4237 -0.063,-0.4441 -0.0541,-0.839 0.0279,-1.3064 0.0711,-0.4032 0.17503,-0.6105 0.28163,-0.6191 z m -18.64485,0.6888 c 0.002,-10e-5 0.004,0 0.005,0 0.10135,0 0.26743,0.2467 0.34055,0.5111 0.1527,0.5509 0.15844,1.5171 0.01,1.6289 h -5.2e-4 c -0.1356,0.1019 -0.36765,-0.2944 -0.45165,-0.77 -0.0997,-0.5711 -0.0548,-1.3194 0.0822,-1.3669 h 5.1e-4 c 0.004,0 0.009,0 0.014,0 z m 3.79925,31.2147 -1.54513,1.5508 v 9.5705 l 1.54513,1.5446 h 3.64474 l 1.54461,-1.5446 v -9.5705 l -1.54461,-1.5508 z m 6.05854,0 v 2.3631 h 0.66611 v 7.9396 h -0.66611 v 2.3632 h 6.67195 v -3.7755 h -2.35748 v 1.4046 h -1.24437 v -7.9319 h 0.6997 v -2.3631 z m -13.66015,0.01 -1.54512,1.5529 v 9.5627 l 1.54512,1.5446 h 3.64268 l 1.54461,-1.5446 v -5.9671 h -3.39825 v 2.3632 h 1.03508 v 2.7776 h -1.99781 v -7.9179 h 1.99781 v 1.4041 h 2.36317 v -2.2226 l -1.54255,-1.5529 z m 21.20129,0.01 v 2.3709 h 0.66611 v 7.92 h -0.66611 v 2.3631 h 3.76928 v -2.3631 h -0.69918 v -2.7854 h 2.34559 v -2.3632 h -2.34559 v -2.7714 h 1.24644 v 1.4124 h 2.35696 v -3.7833 z m -12.77338,2.3653 h 1.99781 v 7.924 h -1.99781 z" /></g></svg>
