<?xml version="1.0" encoding="UTF-8" standalone="no"?>
<svg
   width="477.49243"
   height="286.0293"
   viewBox="0 0 126.33654 75.678587"
   version="1.1"
   id="svg16"
   xml:space="preserve"
   xmlns="http://www.w3.org/2000/svg"
   xmlns:svg="http://www.w3.org/2000/svg"
   xmlns:rdf="http://www.w3.org/1999/02/22-rdf-syntax-ns#"
   xmlns:cc="http://creativecommons.org/ns#"
   xmlns:dc="http://purl.org/dc/elements/1.1/"><defs
     id="defs10" /><metadata
     id="metadata13"><rdf:RDF><cc:Work
         rdf:about=""><dc:format>image/svg+xml</dc:format><dc:type
           rdf:resource="http://purl.org/dc/dcmitype/StillImage" /></cc:Work></rdf:RDF></metadata><g
     id="layer1"
     transform="translate(333.82574,-8161.9495)"><path
       id="path248"
       style="opacity:1;fill:#000000;stroke:none;stroke-width:0.186449;stroke-linejoin:round;paint-order:stroke fill markers"
       d="m -253.923,8164.4117 c -4.69623,0 -9.85657,2.5183 -11.37296,7.226 -0.94054,3.3118 -0.46265,7.2694 2.10737,9.7483 2.85352,2.8887 7.42899,4.2892 11.32179,2.9099 2.43635,-0.9604 3.09239,-3.7354 3.79409,-5.9632 0.41571,-1.6959 2.1425,-2.8606 3.84782,-2.5913 3.10146,-0.1156 5.82496,1.552 8.54884,2.7821 -1.16822,2.6863 -2.2978,5.3906 -3.31298,8.1391 -1.0189,0.1082 -2.7112,-0.1701 -2.94504,1.2216 -0.3538,0.5392 -0.0666,1.3388 0.64699,1.2427 0.54856,0.087 1.85245,-0.2659 1.23093,0.7081 -0.87625,2.5053 -1.55595,5.1321 -2.83704,7.4512 -1.22234,1.6293 -2.94811,3.3356 -5.17177,3.0556 -1.04672,0.031 -2.33985,-0.6262 -2.42828,-1.7362 1.91538,0.019 4.11425,-0.2344 5.41776,-1.8542 1.70308,-2.074 2.31895,-5.1109 1.44332,-7.6554 -0.7311,-1.7915 -2.77059,-2.5988 -4.5992,-2.2757 -4.42403,0.3395 -7.85519,4.0016 -9.21649,8.0283 -0.6353,1.9682 -1.13656,4.3719 -3.11403,5.4427 -0.79896,0.2492 -0.36847,-0.9271 -0.41599,-1.3618 0.59342,-3.1515 2.29157,-6.0198 2.76521,-9.1895 0.0146,-1.7915 -1.85094,-2.9271 -3.50315,-2.7297 -2.59959,-0.113 -4.30791,2.1764 -5.84305,3.9237 -0.64162,0.7491 -1.27405,1.7431 -1.77303,2.4506 0.47893,-1.5629 1.70244,-3.1035 1.38907,-4.8032 -0.72015,-2.1072 -3.65297,-2.3061 -5.2002,-1.002 -2.00425,1.4772 -3.27912,3.6819 -4.64262,5.7137 0.51485,-1.7783 1.61277,-3.41 1.90066,-5.2388 -0.43992,-0.7461 -1.60428,-0.1931 -2.2846,-0.3085 -1.65891,0.1902 -3.31176,-0.1643 -4.97747,-0.164 -1.20994,0.3892 -0.85474,2.006 -1.09606,2.9808 -0.41529,2.287 -0.79333,4.7254 -1.98491,6.7738 -0.20235,0.3331 -1.14906,0.9658 -0.88469,0.1209 0.45792,-2.8186 1.36393,-6.2637 -0.66042,-8.7262 -2.0269,-2.1103 -5.54077,-1.9658 -7.96954,-0.6665 -3.52632,2.3064 -5.30495,6.499 -6.15157,10.4831 -0.29191,2.2892 -0.53279,4.9268 0.87747,6.9112 2.08259,2.8088 6.57627,2.8789 8.98964,0.4588 1.26082,-1.0951 2.17548,-2.5144 2.97553,-3.964 0.75375,-0.01 1.48799,-0.055 2.22827,0 0.20595,1.9089 0.77396,4.047 2.62051,5.0006 1.46376,0.7771 3.4117,0.866 4.88704,0.095 0.63048,-0.8416 -0.12965,-1.9978 0.0522,-2.9678 0.0934,-4.1084 2.34151,-7.9605 4.73099,-11.2739 0.24839,-0.3426 0.36282,-0.4662 0.38859,-0.4516 5.3e-4,5e-4 0.002,0 0.002,0 0.0313,0.045 -0.18799,0.4839 -0.4222,0.9141 -1.44573,2.9906 -3.16164,6.1228 -2.84893,9.5629 -0.26879,1.7385 0.99643,3.6795 2.86341,3.6271 2.32955,0 3.94231,-2.1407 4.54339,-4.1915 1.27257,-3.2623 2.43306,-6.5931 4.254,-9.5726 -1.83433,3.7317 -3.52168,8.0423 -2.45152,12.2407 0.57261,1.619 2.32801,2.6437 4.02456,2.3751 1.6655,0.1625 3.36784,-0.291 4.55114,-1.5229 0.81663,-0.6964 1.3934,-1.6052 1.95337,-2.5064 0.98052,2.4815 3.52207,4.078 6.1588,4.1156 3.30727,0.2296 6.86896,-1.2653 8.61032,-4.1156 0.53992,3.3552 4.83185,4.9273 7.63468,3.2623 0.87,-0.4463 1.56652,-1.1462 2.26756,-1.8121 1.19063,1.7049 3.11876,2.827 5.22087,2.8146 3.38948,0.4554 6.89537,-1.2009 8.70231,-4.101 0.44569,-0.743 0.3097,0.7352 0.416,0.9678 0.31758,2.5625 -0.64864,5.5097 -3.10782,6.7212 -2.59993,1.4068 -5.67148,0.9721 -8.48941,0.803 -6.41806,-0.7614 -12.52551,-3.5123 -19.06757,-3.344 -5.53879,-0.2945 -11.60434,1.7359 -14.70453,6.5804 -2.42297,3.8312 -2.32196,9.248 0.63097,12.7802 2.29866,2.9776 6.12695,4.6619 9.8795,4.2122 1.92555,-0.1966 4.39267,-0.4676 5.40691,-2.3652 0.73178,-2.5947 -0.11503,-5.389 0.59841,-7.9758 1.53914,-3.3843 5.59022,-4.8189 9.05474,-4.6644 5.685,-0.1053 11.40301,1.4322 17.10284,0.4353 3.6424,-0.767 6.697,-3.6036 7.70185,-7.1919 0.76951,-2.5144 0.53135,-5.2089 0.42943,-7.7986 -0.50634,-2.4371 -1.60856,-4.8342 -3.30987,-6.6678 -0.59105,-0.7736 -1.6135,-0.3431 -1.98024,0.4056 -0.76645,1.0076 -1.36067,2.1434 -2.09755,3.1636 -0.2277,-2.5312 -0.47863,-5.0612 -0.85214,-7.5766 0.80887,-1.3422 2.30018,-2.9186 1.69653,-4.6138 -1.04538,-1.7055 -3.55065,-1.3726 -5.08961,-0.5905 -1.82686,0.8885 -2.86296,2.8501 -2.9037,4.8374 -0.5581,0.8895 -1.75149,1.2218 -2.41639,2.0695 -1.67877,1.5653 -2.91215,3.5399 -3.73569,5.6663 -0.19024,0.48 -1.02315,1.088 -1.21698,0.2802 -0.16352,-2.8051 0.89855,-5.5353 1.64642,-8.1772 0.44595,-0.8694 0.26809,-2.5648 1.64537,-2.2444 0.88389,-0.021 2.10335,0 2.32183,-1.1166 0.34879,-0.4937 0.24061,-1.3015 -0.49352,-1.2377 -0.55042,-0.1466 -1.4374,0.09 -1.76991,-0.2103 0.70302,-1.7016 1.37078,-3.5658 2.24999,-5.1327 3.08152,0.8274 6.15188,2.2394 9.43508,1.833 3.44093,-0.1325 7.20933,-1.8703 8.32249,-5.3633 1.17628,-3.0089 -0.51039,-6.5104 -3.24166,-8.0209 -3.07003,-1.7597 -6.8969,-1.4382 -10.18697,-0.5477 -2.89722,0.8028 -5.26415,2.7157 -7.46467,4.6758 -5.83681,-3.1404 -11.08791,-7.756 -17.69142,-9.2713 -1.16975,-0.2461 -2.36593,-0.3707 -3.56154,-0.3551 z m 33.25792,9.2966 c 1.22133,-0.046 1.94497,1.4259 1.27382,2.4096 -0.8171,1.5634 -2.83255,1.3399 -4.29069,1.2219 -1.01224,-0.1125 -2.07061,-0.2424 -2.99259,-0.638 1.37379,-1.583 3.45297,-2.4368 5.44928,-2.9424 0.18478,-0.032 0.37234,-0.054 0.56018,-0.051 z m -100.21457,0.8599 c -4.04445,0.1919 -7.65329,3.2917 -8.82891,7.1173 -0.31977,2.3323 -0.15327,5.1311 1.91564,6.6556 1.86637,1.6645 4.66328,1.9548 7.00526,1.3616 1.76004,-0.5967 3.15606,-2.1199 3.34037,-4.0069 0.22077,-1.8137 1.36827,-3.6409 3.26803,-3.9865 1.47812,-0.2492 3.09554,-0.3394 4.51598,-0.01 -3.18068,3.6742 -6.44157,7.4784 -8.39792,12.0105 -1.98454,4.3471 -2.95775,9.3355 -1.94096,14.0597 0.92453,3.9772 4.32223,7.2334 8.38758,7.8208 2.2855,0.3492 4.77745,0.35 6.78201,-0.965 3.42011,-1.7941 7.56452,-1.1054 10.94457,0.3816 1.53371,0.6329 3.27761,1.8994 2.87475,3.8039 -0.18973,1.8709 -1.43597,4.1055 0.12867,5.7369 2.41795,2.4551 6.54214,2.2345 9.28264,0.444 3.07179,-1.8846 3.51727,-6.2111 1.8619,-9.1845 -1.52418,-3.0538 -4.78203,-4.7421 -8.01862,-5.3649 -5.3794,-1.2949 -10.94219,-1.7161 -16.28841,-3.1396 -2.74894,-0.7752 -4.92813,-3.1199 -5.41155,-5.9441 -0.87543,-4.4842 0.69056,-9.1128 2.64271,-13.1786 0.88146,-1.6312 1.7784,-3.3602 3.03342,-4.6911 3.25181,0.7961 6.4901,2.6099 9.94667,1.9558 2.83387,-0.4307 5.32363,-3.3406 4.45037,-6.2553 -0.69599,-2.4474 -3.32293,-4.0068 -5.80946,-3.711 -3.91898,-0.2373 -7.64407,1.4414 -10.93576,3.3988 -4.1521,-1.77 -8.31315,-4.0142 -12.89999,-4.3005 -0.34481,-0.013 -0.69009,-0.016 -1.03508,-0.011 v 0 c -0.27292,-0.014 -0.54427,-0.014 -0.81391,0 z m 23.84713,4.2887 c 0.96433,0.032 1.81928,1.4401 0.69919,1.9555 -1.451,0.5863 -3.25109,0.2098 -4.6514,-0.1164 0.97396,-1.0033 2.18977,-1.8571 3.65146,-1.8024 0.10004,-0.029 0.201,-0.04 0.30075,-0.037 z m 6.28126,12.8942 c 0.86093,0.2191 0.43942,1.4965 0.4925,2.1251 0.009,0.8872 -0.15439,1.904 -1.14155,2.1987 -1.19589,0.7612 -1.51939,2.2878 -1.28725,3.5957 -0.42378,0.4641 -1.69066,1.1705 -1.76993,0.059 -0.24228,-2.5723 0.95287,-5.0806 2.35181,-7.1676 0.33615,-0.4101 0.78356,-0.8371 1.35442,-0.8104 z m 42.72092,0.081 c 0.01,-6e-4 0.0192,-6e-4 0.0289,5e-4 0.59453,0.6167 -0.11434,1.674 -0.32866,2.3347 -0.53361,1.0327 -1.20324,2.1381 -2.30839,2.6294 0.37873,-1.7669 1.16342,-3.5607 2.42156,-4.8919 0.0548,-0.036 0.11937,-0.07 0.18655,-0.073 z m 20.33881,3.3213 c 0.0593,1.4877 0.37038,3.0662 -0.0951,4.4871 -0.39685,0.8368 -1.78666,0.8903 -1.81333,-0.2011 -0.0907,-1.5989 0.90417,-3.152 1.90841,-4.286 z" /><path
       id="path427"
       style="fill:#00ffff;stroke-linecap:round;stroke-linejoin:round"
       d="m -253.69304,8161.9494 c -4.36788,-0.01 -8.58586,1.4884 -12.28556,4.857 -2.63771,2.4017 -3.71966,5.8918 -3.69951,9.5256 0.0211,2.6813 0.70288,5.2112 2.15645,7.3845 0.51775,0.7741 1.18775,1.3432 1.834,1.9436 -0.18025,0.098 -0.33873,0.2157 -0.51005,0.324 -0.57617,-0.5091 -1.25248,-1.0448 -2.20503,-1.3612 -1.00461,-0.3339 -1.98258,-0.3959 -2.83962,-0.3441 h -0.004 c -0.86438,0.052 -1.82407,0.2349 -2.77348,0.68 -0.40304,0.1887 -0.55328,0.4021 -0.85162,0.6212 -0.40679,-0.182 -0.82675,-0.333 -1.30432,-0.3793 h -0.002 c -0.76939,-0.074 -1.41488,0 -1.89859,0.062 h 0.0176 c -0.29572,0.034 -1.04232,0.06 -1.68155,0.059 -0.53348,0 -1.20083,-0.05 -1.2361,-0.041 h -5.2e-4 v 6e-4 h -5.1e-4 v 5e-4 h 5.1e-4 l 5.2e-4,5e-4 c 0.004,0 0.0224,0.01 0.0568,0.011 -0.74203,-0.1163 -1.36263,-0.2279 -2.13683,-0.2165 -0.0278,4e-4 -0.0431,0 -0.0641,0 -1.31918,0.041 -2.40018,0.5367 -3.28146,1.3772 -0.059,-0.04 -0.0969,-0.1144 -0.15658,-0.1524 1.09583,-1.4855 1.73048,-4.0301 0.44235,-8.1308 -0.83604,-2.6615 -3.49843,-4.2193 -6.09006,-4.8907 -2.50137,-0.648 -5.19053,-0.4573 -7.97626,0.2439 -2.08528,0.5248 -4.21524,1.4378 -6.12107,2.4784 -2.00639,-0.8988 -3.83276,-1.7071 -4.98265,-2.1404 h -0.002 c -3.08387,-1.161 -5.95479,-1.8109 -8.73022,-1.803 -3.08073,0 -6.73842,0.8835 -9.91619,4.0659 -2.4033,2.4065 -3.90728,5.5428 -3.89072,8.9178 0.0241,5.6244 4.60347,10.0274 10.23814,10.3167 h 0.002 c 0.45509,0.023 1.33429,-0.1152 1.33429,-0.1152 l -0.005,0.015 c 0,0 -2.0323,5.4067 -2.21175,8.9049 -0.20061,3.9108 0.67019,7.8059 3.20239,10.896 3.22891,3.8201 8.19843,5.2945 9.61698,5.6508 0.54722,0.1374 1.09686,0.2264 1.64796,0.2915 h 5.2e-4 5.2e-4 5.1e-4 5.2e-4 c 0.51784,0.083 1.03522,0.1333 1.54978,0.139 0.0348,0 0.0696,0.01 0.10438,0.01 l -0.0196,-0.011 c 0.2772,6e-4 0.55398,-1e-4 0.82837,-0.025 2.43257,-0.2218 4.07905,-1.4875 4.73046,-1.772 1.04094,-0.4547 3.3451,-1.5837 7.84552,0.9487 -0.26677,0.9641 -0.51727,1.9309 -0.61909,2.9285 -0.0847,0.9858 0.0376,1.9175 0.28732,2.7472 0.83239,2.7761 3.20345,4.4123 5.51956,5.1779 2.32937,0.7705 4.84249,0.7061 7.19336,0.053 h 0.002 c 1.17177,-0.3273 2.2186,-0.8327 3.24425,-1.5312 2.27801,-1.5509 3.80714,-3.9015 4.31239,-6.611 0.55565,-2.9813 -0.16798,-5.997 -1.78697,-8.5529 -0.4901,-0.7269 -1.00557,-1.5129 -1.63091,-2.1208 0.68297,-0.2233 1.38146,-0.7753 1.68931,-1.0377 0.93143,0.307 1.88277,0.4654 2.78949,0.4005 1.4266,-0.102 2.68447,-0.71 3.81992,-1.5017 0.74245,0.8122 1.62728,1.5067 2.71508,1.943 h 0.002 c 0.50864,0.2036 1.15155,0.1817 1.71669,0.2615 -1.15243,1.2945 -2.16113,2.7123 -2.79311,4.2876 -2.33339,5.8166 -1.03917,12.3636 3.4494,16.6522 2.29416,2.1914 5.21697,3.5997 8.37107,4.084 1.88826,0.2901 4.01523,0.1605 5.826,-0.2579 h 0.002 c 1.38574,-0.3213 2.75511,-0.7707 3.99821,-1.65 1.33492,-0.9444 2.27353,-2.2868 2.7404,-3.7662 0.16946,-0.5384 0.35417,-1.2875 0.35915,-2.1833 1e-5,0 1e-5,-0.01 0,-0.012 v -0.02 c 0,-0.701 -0.0665,-1.3657 -0.17363,-2.4201 -0.12159,-1.2253 -0.0855,-2.0497 -0.10284,-2.0877 v -5e-4 h -5.1e-4 v -5e-4 h -5.2e-4 -5.2e-4 l -5.1e-4,5e-4 c -5.6e-4,7e-4 -0.001,0 -0.002,0 0.17183,-0.7515 1.11382,-1.9599 3.16363,-2.4339 0.28505,-0.066 1.58174,-0.1949 3.13056,-0.1876 1.54881,0.01 3.44635,0.1113 5.36711,0.3442 5.60132,0.6789 9.30075,0.7407 12.6566,-0.1876 3.7507,-1.0384 6.83391,-3.6817 9.33793,-8.0895 0.74347,-1.3087 1.27899,-4.9739 1.27899,-7.2832 0.15747,-3.6301 -0.89749,-7.065 -2.7032,-10.1901 0,0 -0.97833,-1.5152 -1.63659,-2.1916 -0.5109,-0.5248 -1.67734,-1.4104 -3.29489,-1.6325 0.37677,-0.6997 0.68865,-1.4399 0.87127,-2.2484 0.21287,-0.9423 0.15037,-2.0101 -0.13901,-3.0644 3.23379,-1.0475 5.9743,-2.9938 7.41401,-5.98 1.09416,-2.2699 1.40206,-4.8067 0.77774,-7.2482 -0.48203,-1.8839 -1.47791,-3.539 -2.85978,-4.9242 -2.27264,-2.2781 -5.34195,-3.4305 -8.662,-3.5977 -5.04981,-0.2547 -9.87885,1.4257 -13.70304,4.5842 -0.90921,-0.5599 -1.90362,-1.1777 -3.11919,-1.9585 -3.53847,-2.2735 -5.41525,-3.3943 -7.24969,-4.2794 -3.40521,-1.6431 -6.89309,-2.555 -10.29033,-2.5595 z m -0.73122,1.0779 c 1.10791,-0.01 3.30269,0.096 5.51335,0.6026 1.67187,0.3826 3.34584,1.0588 4.60541,1.7301 1.65309,0.881 3.51133,1.8933 7.02954,4.1538 1.51933,0.976 2.90349,1.8453 3.91759,2.4592 0.1511,0.089 0.30353,0.1786 0.45527,0.2677 1.58579,-1.5693 6.22347,-5.3939 13.45913,-5.0296 2.92667,0.1475 5.43411,1.1159 7.3086,2.9946 1.16798,1.1708 1.9313,2.4538 2.32234,3.9822 0.50434,1.9723 0.27078,3.9631 -0.63666,5.8456 -1.29625,2.6887 -3.85004,4.4335 -7.1546,5.254 -0.54913,0.1359 -1.23887,0.1509 -1.88464,0.2129 0.25682,0.166 0.5435,0.2687 0.76533,0.5002 0.95396,0.9961 1.11442,2.3789 0.85163,3.543 -0.25161,1.1147 -0.83152,2.1502 -1.61696,3.1874 h 0.002 l -0.0413,0.053 0.0393,0.4279 c 0.0368,0.3953 0.13188,1.0334 0.21498,1.6174 0.65448,-0.5112 1.37954,-0.678 1.97455,-0.678 0.87458,0 2.17033,0.3702 3.73052,2.9807 h -0.002 c 0.82059,1.3725 1.65733,3.0564 2.0252,4.8473 0.40082,2.0583 0.43917,5.1378 0.27801,7.2362 -0.61234,7.9729 -6.87566,10.1575 -8.82891,10.8702 -0.46725,0.1704 -1.69796,0.9648 -12.03079,-0.2879 -4.01635,-0.4862 -7.85759,-0.4293 -9.20874,-0.1168 -2.76185,0.6386 -4.46833,2.4083 -4.75217,4.2003 -0.0361,0.2259 -0.0466,0.9631 0.10956,2.5296 0.10341,1.051 0.16174,1.6498 0.16174,2.2153 1e-5,0 1e-5,0.01 0,0.01 -0.003,0.6183 -0.13163,1.156 -0.26561,1.5802 -0.33605,1.0658 -1.0094,2.0311 -1.96268,2.7053 -0.92743,0.656 -2.01534,1.0341 -3.27525,1.326 -1.51107,0.3484 -3.52766,0.461 -5.05085,0.2263 -2.75302,-0.4229 -5.27933,-1.6433 -7.26157,-3.5367 -3.88437,-3.7113 -5.00175,-9.3045 -2.959,-14.3965 0.8906,-2.22 2.66595,-4.398 4.66794,-5.8302 h 0.002 l 0.7674,-0.5467 c 1.3417,-1.0554 2.69694,-1.4228 3.60908,-1.758 h 0.006 c 0.36453,-0.1395 0.78899,-0.1917 1.16995,-0.3085 -0.54851,-0.3847 -1.05462,-0.7971 -1.48828,-1.3126 -0.49429,0.5472 -0.90544,1.2214 -1.50585,1.6231 -1.35685,0.9072 -2.80049,1.2852 -4.63279,1.2852 -1.21644,0 -1.96684,-0.097 -2.66237,-0.3751 -1.4453,-0.5796 -2.50665,-1.7389 -3.13056,-3.1389 -0.14786,0.1936 -0.25886,0.4472 -0.42374,0.6253 -1.03512,1.1183 -2.4042,1.8257 -3.89641,1.9317 -1.16355,0.083 -2.37415,-0.1785 -3.33054,-0.9395 -0.0105,-0.01 -0.015,-0.019 -0.0253,-0.029 -0.1035,0.2656 -0.08,0.583 -0.27698,0.8242 h -0.002 c -0.51303,0.6276 -1.23827,0.8801 -1.60558,0.9901 -0.4671,0.1396 -0.94069,0.216 -1.41801,0.26 h -0.004 c -0.94972,0.087 -1.9848,0.072 -2.99207,-0.2207 -2.36771,-0.6878 -3.91115,-2.6826 -4.5098,-5.1428 -0.54707,0.925 -1.08472,1.9045 -1.73839,2.6034 -0.46214,0.494 -1.00628,0.8499 -1.53893,1.2227 1.05181,0.241 2.25441,0.5571 3.24993,0.6211 0.064,0.01 0.12732,0.021 0.18966,0.037 h 0.004 c 2.06911,0.3159 3.84208,0.8815 5.42964,1.7363 0.7464,0.4015 1.6364,0.9109 2.26757,1.5643 0.53212,0.5508 1.52308,1.711 1.85156,2.2975 1.39841,2.1863 1.97538,4.6733 1.51981,7.1169 -0.41308,2.2158 -1.59019,4.0266 -3.44734,5.2912 -0.89058,0.6064 -1.65884,0.9741 -2.6386,1.2479 h -0.002 c -2.01475,0.5605 -4.12813,0.5977 -5.99601,-0.02 -1.89805,-0.6275 -3.61352,-1.8723 -4.19561,-3.8184 v -5e-4 h -5.2e-4 c -6.3e-4,0 -0.002,-0.01 -0.003,-0.01 v -5e-4 h -5.2e-4 v -5e-4 h -5.2e-4 c -0.17012,-0.5822 -0.26638,-1.2521 -0.20308,-1.9689 0.0598,-0.6832 0.2233,-1.3487 0.46095,-2.2107 0.1017,-0.5026 0.35433,-0.998 0.30437,-1.5172 -0.022,-0.2739 -0.14119,-0.4587 -0.53898,-0.8594 -2.03243,-1.2655 -4.1287,-1.9792 -6.53294,-1.9962 h -0.0879 c -0.0203,4e-4 -0.0407,4e-4 -0.061,0 -1.92857,-0.151 -2.76275,0.1942 -3.7481,0.6934 -0.94416,0.4781 -2.14669,1.391 -3.98787,1.5586 -4.52098,0.4123 -8.61585,-1.1098 -11.28509,-4.0804 -2.22431,-2.4636 -3.09523,-5.6463 -3.26647,-8.8718 h -0.002 c -0.0456,-1.406 10e-4,-2.8787 0.20464,-4.1155 0.49023,-2.9939 1.45647,-5.952 2.84272,-8.7147 h 5.2e-4 v -5e-4 c 6.3e-4,0 0.002,-0.01 0.003,-0.01 v -5e-4 h 5.2e-4 v -5e-4 h 5.1e-4 c 0.31127,-0.6129 0.4373,-0.8138 0.60152,-1.1033 -1.38955,0.8568 -3.06309,1.2382 -4.86327,1.1482 h -0.002 c -4.66863,-0.2399 -8.26308,-3.7265 -8.28528,-8.2672 -0.0143,-2.7634 1.20731,-5.3711 3.28869,-7.4553 3.15874,-3.1631 7.00971,-3.4986 8.40414,-3.5078 2.45868,-0.016 5.11275,0.5819 8.06307,1.6929 1.24964,0.4706 5.71696,2.326 5.71696,2.326 0,0 4.41574,-2.0427 6.6151,-2.5957 2.56371,-0.6455 4.90428,-0.7777 6.95668,-0.246 2.07323,0.537 3.83241,1.8562 4.74649,3.7811 h 0.002 c 0.95744,2.018 0.80612,4.2775 -0.22427,6.0648 -0.44392,0.7698 -1.09791,1.4002 -1.81075,1.9647 1.63798,0.3983 3.16798,1.1664 4.15427,2.6169 0.0141,-0.097 0.008,-0.2227 0.0295,-0.324 0.18046,-0.8414 0.57001,-1.211 0.92552,-1.5198 h 5.2e-4 l 5.2e-4,-5e-4 5.1e-4,-5e-4 5.2e-4,-5e-4 c 0.001,0 0.003,-0.01 0.005,-0.01 v -5e-4 h 5.2e-4 5.1e-4 c 0.53268,-0.4555 1.07743,-0.6591 1.81023,-0.6971 0.0176,-3e-4 0.0351,-3e-4 0.0527,0 0.55391,-0.01 1.04336,0.077 1.80092,0.1953 0.37551,0.055 2.43458,0.085 3.40445,-0.025 h 0.004 c 0.46874,-0.052 0.91931,-0.1037 1.44694,-0.053 0.47185,0.045 1.06537,0.3243 1.57251,0.8103 0.52476,-0.4678 1.03908,-0.9528 1.65417,-1.2403 0.66156,-0.3094 1.3518,-0.4472 2.0252,-0.4862 h 0.004 c 0.66527,-0.04 1.36596,0.01 2.06447,0.2423 h 0.002 c 0.71766,0.2385 1.28306,0.6491 1.73633,1.0821 0.24589,0.235 0.4295,0.6703 0.65422,1.0232 0.83568,-0.7873 1.7246,-1.4096 2.73627,-1.7652 1.00388,-0.3531 2.08458,-0.4549 3.12126,-0.3303 -1.99555,-0.9498 -3.7864,-2.1897 -5.01003,-4.0194 -1.21872,-1.8218 -1.78611,-3.8987 -1.80661,-6.2502 -0.0176,-3.1872 1.00419,-5.881 3.12539,-8.09 2.54182,-2.6479 6.04159,-4.0556 10.07019,-4.209 z m 1.26607,1.0051 c -0.40967,-0.021 -0.80564,6e-4 -1.18959,0.02 -3.73568,0.1396 -6.81417,1.3975 -9.08007,3.7579 -1.89471,1.973 -2.73067,4.1621 -2.71456,7.0626 4e-4,0.045 0.008,0.084 0.009,0.1287 -0.004,0.1515 -0.0158,0.2972 -0.015,0.4527 0.0186,2.1349 0.49951,3.8613 1.55856,5.4451 1.66379,2.4873 4.23278,4.0903 7.46724,4.6964 1.24951,0.2338 3.04216,0.2752 4.09846,0.051 1.17582,-0.2475 2.37563,-0.8755 3.16828,-1.6846 0.76448,-0.7806 1.15514,-1.628 1.64331,-3.4546 0.30262,-1.1322 0.54994,-1.8546 0.80771,-2.3321 0.25757,-0.4776 0.50779,-0.7282 0.94464,-1.0222 0.62907,-0.4233 0.83658,-0.4777 2.06706,-0.5472 1.82157,-0.1028 3.34054,0.3397 7.16649,2.1647 l 0.86454,0.4113 c -0.17124,0.3758 -0.37465,0.8214 -0.52038,1.1385 -0.39653,0.8633 -1.98675,4.8548 -2.34404,5.8766 l -0.0625,0.1778 -0.75964,0.023 c -0.51204,0.015 -0.8203,0.026 -1.09348,0.078 -0.27366,0.052 -0.54816,0.2091 -0.69763,0.3586 -0.17761,0.1778 -0.24575,0.3386 -0.32401,0.5214 -0.0783,0.1827 -0.14296,0.3805 -0.19534,0.5783 -0.13364,0.5953 -0.13184,0.8687 -0.12195,1.4531 0.0186,0.1067 0.0186,0.2417 0.16381,0.4207 0.41589,0.4051 1.13332,0.3193 1.68052,0.3152 h 0.0806 c -0.27046,0.9294 -0.475,1.7245 -0.68316,2.4634 -0.43325,1.5378 -0.88069,2.831 -1.96164,4.5785 -0.52572,0.8499 -1.79143,1.9679 -2.37246,2.3208 -0.61512,0.3738 -1.30004,0.5571 -2.16421,0.5571 -0.76234,0 -1.35867,-0.176 -1.75597,-0.4418 -0.0163,-0.011 -0.0195,-0.029 -0.0341,-0.041 0.0568,0 0.10083,0.01 0.16691,0.01 1.88133,-0.021 3.63147,-0.7714 4.68964,-2.1084 1.02491,-1.2955 1.63872,-2.8998 1.82211,-4.47 0.0516,-0.4428 0.0596,-0.8813 0.0408,-1.3131 0.0387,-1.3087 -0.21801,-2.5652 -0.89245,-3.5455 -0.95681,-1.3905 -2.63393,-1.916 -4.83381,-1.6758 -1.37431,0.15 -2.72039,0.59 -3.88659,1.2753 -1.2293,0.7227 -2.93206,2.3669 -3.73672,3.5957 -1.0516,1.6064 -1.85501,3.5694 -2.24999,5.4865 -0.17448,0.8467 -0.6995,1.7526 -1.62884,2.6913 -0.33428,0.3377 -0.51568,0.4968 -0.56224,0.5255 -0.0443,0.027 -0.004,0.016 -0.1695,0.016 0.0301,-0.2286 0.0786,-0.5029 0.1912,-0.9115 0.25865,-0.9406 0.75034,-2.3685 1.55495,-4.5558 0.24963,-0.6786 0.4948,-1.3692 0.68781,-1.9374 0.19311,-0.5682 0.3306,-0.9834 0.39016,-1.2376 0.0979,-0.4184 0.11182,-0.8264 0.0868,-1.2227 0.0843,-1.0155 -0.18544,-1.9651 -0.87436,-2.605 -1.14506,-1.0638 -3.06358,-1.2936 -4.70927,-0.7152 -1.3314,0.468 -2.71486,1.8476 -4.11707,3.623 0.0758,-0.3416 0.0846,-0.6565 0.0543,-0.9575 0.0376,-0.3911 0.0241,-0.7628 -0.0718,-1.1085 -0.1252,-0.452 -0.41119,-0.8114 -0.75189,-1.1369 -0.34031,-0.325 -0.73806,-0.6038 -1.18339,-0.7519 h -0.002 c -0.47109,-0.1567 -0.99549,-0.2002 -1.51567,-0.17 h -0.002 c -0.52361,0.032 -1.04104,0.1424 -1.49035,0.3514 -1.02939,0.4814 -2.10872,1.6249 -3.21014,3.0567 0.034,-0.09 0.0988,-0.2144 0.12506,-0.2982 0.16294,-0.5188 0.15003,-1.3693 0.0212,-1.6371 -0.18296,-0.3795 -0.59971,-0.5289 -0.93172,-0.5607 -0.33201,-0.032 -0.68946,-5e-4 -1.14257,0.051 -1.15528,0.1314 -3.05719,0.1276 -3.79305,0.021 -0.75857,-0.1187 -1.19174,-0.185 -1.55856,-0.1794 -0.36869,0.01 -0.72869,0.1736 -0.92759,0.3432 h -0.002 c -0.14497,0.1248 -0.38452,0.4079 -0.45113,0.7193 -0.0666,0.3114 -0.0741,0.6571 -0.10749,1.3606 -0.0787,1.6372 -0.27903,2.6825 -0.95705,4.9238 -0.27802,0.9189 -0.54577,1.8085 -0.6072,2.0231 v -5e-4 -5e-4 -5e-4 h -5.1e-4 -5.2e-4 l -5.2e-4,5e-4 c -0.022,0.018 -0.22489,0.3573 -0.45372,0.5937 -0.0379,0.039 -0.074,0.067 -0.1111,0.1 0.01,-0.039 0.0159,-0.068 0.0258,-0.1085 0.32373,-1.2883 0.49151,-2.5164 0.50384,-3.6376 0.003,-0.057 10e-4,-0.11 0.004,-0.1664 -2.3e-4,-0.065 0.005,-0.134 0.004,-0.1984 0.0417,-1.4492 -0.17399,-2.7271 -0.70331,-3.7 -0.89549,-1.6452 -2.68782,-2.544 -4.60748,-2.7074 -1.91966,-0.1633 -4.01214,0.3923 -5.63479,1.741 -2.33639,1.942 -4.3783,5.796 -5.1754,9.5721 -0.17864,0.846 -0.27246,1.9534 -0.2868,3.0039 -0.0441,0.999 -0.0171,1.9916 0.10697,2.7011 0.33686,1.9254 1.40168,3.3943 3.08353,4.2277 0.0858,0.043 0.17497,0.066 0.26148,0.1039 -2.2173,-0.2978 -3.06334,-0.458 -4.81572,-1.0646 -3.40542,-1.1789 -5.14987,-3.4013 -5.45859,-7.0559 -0.16038,-4.1709 1.71337,-9.8923 4.88963,-14.5076 0.31703,-0.4606 0.68174,-0.9659 0.78496,-1.0971 l 1.67794,0.633 c 2.87591,1.0793 4.31345,1.4401 6.09058,1.5178 1.07583,0.047 1.63117,0.018 2.28772,-0.1267 1.86308,-0.4142 3.32269,-1.4801 4.12378,-2.8695 0.50425,-0.8746 0.73969,-1.8808 0.65732,-2.9032 0.0251,-0.7804 -0.12993,-1.5825 -0.49661,-2.3549 -0.72072,-1.5172 -2.06484,-2.5413 -3.78892,-2.988 -1.72408,-0.4467 -3.83013,-0.3547 -6.23062,0.2496 -2.12764,0.5353 -4.68475,1.6164 -6.44922,2.7322 l -0.37879,0.2403 -0.39843,-0.1793 c -2.72299,-1.2366 -4.73051,-2.1022 -5.98258,-2.574 -2.88619,-1.0868 -5.40405,-1.6308 -7.64242,-1.5979 l -5.2e-4,0.01 c -0.0138,0.01 -0.0274,0.012 -0.0408,0.019 -2.85751,0.053 -5.25889,1.0785 -7.2285,3.0509 -1.85769,1.8601 -2.86894,4.0773 -2.85719,6.41 4.1e-4,0.077 0.0195,0.1472 0.0222,0.2237 -0.005,0.1185 -0.0182,0.236 -0.0176,0.3551 0.0206,3.8124 2.85824,6.5984 6.88692,6.8052 1.65575,0.085 3.11067,-0.2579 4.22144,-1.0077 1.11086,-0.7499 1.85497,-1.915 2.08566,-3.329 0.24776,-1.5188 0.29117,-1.7079 0.57671,-2.2799 0.64213,-1.2845 1.98558,-1.956 4.35116,-1.956 0.42525,0 0.94967,0.029 1.43299,0.07 -1.52259,1.6272 -2.37301,2.6371 -3.58738,4.2674 -0.74115,0.9947 -1.82302,2.5045 -2.40812,3.5936 -0.47909,0.8916 -0.5746,0.9726 -1.17409,2.1523 -1.32019,2.6314 -2.24134,5.4514 -2.70681,8.2931 -0.17674,1.0778 -0.22899,2.4991 -0.18552,3.8344 0.002,0.049 0.008,0.087 0.01,0.1353 0.002,0.1474 -0.007,0.2938 -0.002,0.4398 0.0402,1.2575 0.16739,2.3503 0.40514,3.1311 l 0.0512,-0.055 c -0.009,0.03 -0.0149,0.061 -0.0186,0.093 l -0.0341,-0.034 c 0,0.028 7.8e-4,0.087 0.0186,0.1163 -1.9e-4,0.01 -1.9e-4,0.017 0,0.026 0,0.019 0.0186,0.028 0.0186,0.044 0.0893,0.3368 0.20157,0.645 0.29714,0.926 1.71315,5.0327 6.42519,7.8168 12.20597,7.2895 1.40141,-0.1275 2.35056,-0.8786 3.4587,-1.4067 3.13698,-1.4949 8.05118,-1.0628 12.04475,1.4547 1.46881,1.1304 1.06212,1.996 0.68936,3.3554 -0.23058,0.8365 -0.3667,1.4247 -0.41238,1.9472 -0.0237,0.2706 -0.0172,0.5226 0.0114,0.7663 -0.0161,0.4415 0.033,0.8454 0.14624,1.2387 0.38926,1.301 1.66536,2.322 3.24683,2.8448 1.52328,0.5039 3.37417,0.4903 5.13923,-0.019 0.88027,-0.246 1.38826,-0.4896 2.20916,-1.0485 1.59766,-1.0878 2.47371,-2.4329 2.8298,-4.344 0.11208,-0.6011 0.14363,-1.203 0.11369,-1.8024 0.0396,-1.6621 -0.45163,-3.3132 -1.45004,-4.8607 -0.72914,-1.4416 -2.80608,-2.9272 -3.55275,-3.3202 -3.74008,-1.8759 -8.1199,-2.0597 -12.20339,-2.9627 1.62749,-0.2045 3.20451,-1.0021 4.48655,-2.3724 0.77018,-0.8234 1.7059,-2.2384 2.23862,-3.3548 0.2717,0.051 0.54479,0.1011 0.84387,0.1049 0.31566,0 0.60139,-0.042 0.88212,-0.097 l 0.0186,0.1793 c 0.20449,2.7102 1.53486,4.6543 3.75275,5.2984 0.7326,0.2131 1.62902,0.2436 2.44688,0.1675 0.40898,-0.038 0.79333,-0.1048 1.13068,-0.2047 0.33745,-0.1009 0.63889,-0.1987 0.89245,-0.5095 0.31913,-0.3908 0.31717,-0.8965 0.29972,-1.4573 -0.01,-0.3224 -0.0889,-0.6468 -0.22066,-1.1136 -0.0898,-0.3189 -0.12816,-0.6939 -0.13849,-1.0966 0.0917,-1.5082 0.66651,-3.463 1.75752,-5.6963 -0.22401,0.6674 -0.41402,1.3104 -0.53485,1.9007 -0.13556,0.6624 -0.19883,1.4822 -0.18966,2.2474 -0.0292,0.7536 0.005,1.5004 0.1385,2.0365 0.22764,0.9238 0.62796,1.6717 1.24643,2.1637 0.61917,0.4928 1.42366,0.688 2.30942,0.6248 1.13942,-0.082 2.08249,-0.5657 2.9192,-1.4692 0.8732,-0.9435 1.4431,-2.1084 2.24948,-4.4767 0.056,-0.1636 0.11787,-0.2828 0.1788,-0.4036 -0.0728,0.6741 -0.0996,1.3547 -0.0749,2.0035 -0.0176,0.8514 0.0421,1.6576 0.22376,2.2454 0.40898,1.3011 1.31711,2.2645 2.60656,2.7817 0.5385,0.2155 0.95015,0.2718 2.12028,0.2718 1.6841,0 2.64234,-0.256 3.81217,-1.0382 0.95985,-0.6419 1.74626,-1.5153 2.48719,-2.7032 0.64164,1.2856 1.69634,2.3966 2.90886,2.9745 0.87248,0.4157 1.52185,0.6093 2.40657,0.6966 -1.68618,0.1891 -3.2663,0.531 -4.66328,1.0682 -0.99542,0.3657 -2.11415,0.6744 -3.20704,1.5348 l 0.0217,-0.018 -0.84388,0.6031 c -1.73613,1.2418 -3.40937,3.3175 -4.15788,5.1836 -0.70841,1.7657 -0.98865,3.5746 -0.87902,5.3222 0.0415,3.0002 1.22472,5.8538 3.49643,8.0243 1.76054,1.6819 3.99961,2.768 6.46782,3.1471 1.18534,0.1828 3.26331,0.08 4.49947,-0.2046 1.16277,-0.2694 2.06151,-0.6055 2.75642,-1.0971 0.69501,-0.4917 1.16025,-1.1571 1.4087,-1.9457 0.11618,-0.3675 0.19488,-0.6954 0.19792,-1.1451 0,-0.076 -0.023,-0.2655 -0.0258,-0.3504 0.005,-0.072 0.0191,-0.1316 0.0196,-0.2098 0.003,-0.4499 -0.0514,-1.0242 -0.15452,-2.0722 -0.0688,-0.6883 -0.0989,-1.1702 -0.11834,-1.6025 0.002,-0.2781 8.8e-4,-0.5632 0.0295,-0.741 0.3978,-2.5117 2.65175,-4.6624 5.87199,-5.4069 1.79802,-0.4157 5.59616,-0.4078 9.71776,0.093 5.43695,0.659 8.62311,0.6534 11.2913,-0.085 2.86297,-0.7927 5.2655,-2.5397 6.58151,-5.2586 0.94471,-1.9518 1.57099,-4.1959 1.62264,-6.691 0.0303,-1.4635 -0.19186,-3.2142 -0.51728,-4.5078 -0.4286,-1.6203 -1.12455,-3.232 -1.86501,-4.4705 -0.37023,-0.6193 -0.74874,-1.1443 -1.13481,-1.541 -0.38606,-0.3968 -0.77289,-0.7234 -1.33222,-0.7234 -0.38726,0 -0.82891,0.102 -1.15445,0.3932 -0.32555,0.2911 -0.54484,0.6703 -0.863,1.2532 -0.25248,0.4625 -0.65116,1.094 -1.01389,1.6526 -8.4e-4,-0.022 -0.001,-0.035 -0.002,-0.057 -0.0355,-0.9367 -0.16188,-2.2555 -0.293,-3.0272 -0.11805,-0.6976 -0.26818,-1.8407 -0.32815,-2.4882 l -0.0439,-0.477 0.34675,-0.4609 c 0.70532,-0.9319 1.16905,-1.8074 1.35392,-2.6257 0.078,-0.3456 0.0866,-0.6877 0.046,-1.0149 0.0553,-0.6618 -0.0968,-1.2945 -0.5364,-1.7534 -0.56248,-0.5871 -1.37832,-0.8618 -2.2717,-0.8868 -0.89433,-0.026 -1.88778,0.1899 -2.91403,0.6248 -1.00253,0.4241 -1.95376,1.4418 -2.45721,2.3244 -0.19149,0.3355 -0.35692,0.6902 -0.47646,1.1932 -0.0661,0.2838 -0.097,0.6218 -0.12299,0.9865 l -0.0486,0.7478 -0.66042,0.4299 c -2.0324,1.3185 -4.15819,3.7966 -5.0059,5.8829 -0.15458,0.3809 -0.19781,0.782 -0.36122,1.1539 -0.2578,0.5867 -0.58631,0.9294 -0.73897,0.248 0.0135,-0.3555 0.0504,-0.7739 0.14573,-1.3167 0.27701,-1.5668 0.91474,-3.8771 1.91875,-6.9572 l 0.2899,-0.8966 h 0.83664 c 0.58815,0 0.91357,-4e-4 1.2051,-0.044 0.29152,-0.047 0.57599,-0.2185 0.72553,-0.3571 0.32116,-0.3042 0.4846,-0.6597 0.63924,-1.064 0.0834,-0.2207 0.15416,-0.3979 0.18655,-0.6315 0.0147,-0.1129 -0.005,-0.2669 -0.0537,-0.416 0.0124,-0.052 0.0388,-0.098 0.0465,-0.155 0.0313,-0.2337 -0.0719,-0.6397 -0.32815,-0.8242 -0.25625,-0.1845 -0.47976,-0.1966 -0.7307,-0.2171 -0.25094,-0.02 -0.54479,-0.023 -0.92553,-0.023 -0.0859,0 -0.13138,-3e-4 -0.19068,-0.01 0.19964,-0.4872 0.42657,-1.0338 0.67747,-1.6175 0.29585,-0.6888 0.5997,-1.3746 0.83716,-1.8971 0.0952,-0.2111 0.17353,-0.368 0.24133,-0.5126 0.17702,0.057 0.38294,0.1297 0.62167,0.2264 1.38807,0.5659 3.51954,1.2371 4.79299,1.5063 1.59511,0.337 4.44139,0.3111 5.96604,-0.067 3.02399,-0.751 5.09346,-2.2129 6.17999,-4.4664 0.60521,-1.2556 0.84086,-2.4572 0.7276,-3.7027 -0.002,-0.5593 -0.0509,-1.1227 -0.19947,-1.7037 -0.33525,-1.3106 -0.8987,-2.268 -1.93735,-3.3089 -1.60377,-1.6077 -3.67873,-2.43 -6.34173,-2.5642 -4.65488,-0.2344 -9.04278,1.3905 -12.30881,4.5682 -0.29859,0.2904 -0.58055,0.5551 -0.78858,0.7421 -0.0326,0.029 -0.0478,0.041 -0.0765,0.066 -0.0605,-0.032 -0.10409,-0.053 -0.18346,-0.098 -0.30082,-0.1683 -0.72655,-0.4185 -1.2423,-0.7307 -1.03151,-0.6243 -2.42555,-1.4969 -3.95324,-2.4784 -3.50384,-2.2512 -5.27011,-3.3002 -6.86884,-4.0685 -3.02972,-1.4555 -5.45612,-2.1231 -8.09976,-2.2066 -0.038,-0.014 -0.0773,-0.023 -0.1173,-0.029 z m -0.0305,0.5886 -5.2e-4,0.01 c 2.60824,0.062 4.95616,0.7099 7.9928,2.1688 1.56282,0.751 3.30828,1.7853 6.8063,4.0328 3.06255,1.9677 5.58996,3.4975 5.77846,3.4975 0.049,0 0.58609,-0.4829 1.19269,-1.0728 3.14958,-3.0644 7.36943,-4.6294 11.87008,-4.4028 2.56153,0.1291 4.45686,0.89 5.95571,2.3926 0.99203,0.9941 1.4685,1.8062 1.78387,3.0391 0.3976,1.5547 0.24732,2.8993 -0.49558,4.4405 -1.00518,2.085 -2.87875,3.4271 -5.795,4.1512 -1.33841,0.3314 -4.27784,0.3644 -5.70456,0.063 -1.20604,-0.2551 -3.35141,-0.9305 -4.69325,-1.4775 -0.59061,-0.2412 -1.11042,-0.4005 -1.15652,-0.3555 -0.18526,0.1858 -2.46962,5.5022 -2.46962,5.7474 0,0.072 0.43494,0.1142 1.22887,0.1142 1.51169,0 1.57248,0.043 1.24592,0.8972 -0.12648,0.3304 -0.34877,0.7114 -0.49351,0.8485 -0.24354,0.2262 -0.35773,0.2449 -1.52756,0.2449 h -1.264 l -0.42427,1.3012 c -2.01635,6.1854 -2.56768,9.3027 -1.74098,9.8444 0.15582,0.114 0.35567,0.1392 0.5271,0.095 0.23706,-0.06 0.8056,-0.2642 0.98082,-0.8578 0.16378,-0.5549 0.2209,-0.8279 0.38654,-1.2361 0.77439,-1.9058 2.88317,-4.3806 4.78059,-5.6116 l 0.90899,-0.5912 0.0667,-1.0428 c 0.0251,-0.3528 0.0594,-0.6822 0.10852,-0.893 0.10744,-0.4521 0.23588,-0.7233 0.41496,-1.0371 0.42193,-0.7397 1.4109,-1.7518 2.17558,-2.0753 0.96358,-0.4083 1.88315,-0.6008 2.66805,-0.5778 0.7846,0.022 1.43525,0.258 1.86346,0.7049 0.76242,0.7959 0.42503,2.2894 -0.91829,4.0643 l -0.5209,0.6899 0.11265,1.2242 c 0.0624,0.6737 0.21248,1.8145 0.33435,2.5342 0.12246,0.72 0.24992,2.0495 0.28422,2.9534 0.034,0.9039 0.0841,1.6643 0.11059,1.6903 0.0804,0.08 1.392,-1.8953 2.00969,-3.0267 0.62162,-1.1388 0.84797,-1.3415 1.50069,-1.3415 1.04031,0 2.93921,3.1759 3.76463,6.2962 0.27808,1.0602 0.42474,2.7324 0.26406,5.0979 -0.13904,2.0469 -0.84583,4.1544 -1.32343,5.1031 -1.29402,2.5705 -3.50453,4.2207 -6.22443,4.9738 -2.55279,0.7072 -5.65503,0.7264 -11.06392,0.071 -4.16124,-0.505 -7.95419,-0.5363 -9.91981,-0.082 -3.40442,0.7871 -5.87668,3.0906 -6.31951,5.8869 -0.0972,0.6001 -0.0709,1.4373 0.0909,3.0551 0.20591,2.0924 0.20473,2.2748 -0.0186,2.9828 -0.43283,1.3731 -1.49458,2.1248 -3.73828,2.6448 -1.10743,0.2553 -3.25078,0.3563 -4.27726,0.1984 -2.35458,-0.3616 -4.47819,-1.3944 -6.15052,-2.992 -3.29559,-3.1488 -4.23211,-7.7526 -2.47117,-12.1419 0.68824,-1.7158 2.33183,-3.7618 3.9548,-4.9227 l 0.84387,-0.6036 c 0.99508,-0.7834 2.02813,-1.0709 3.0546,-1.4485 2.08533,-0.8019 4.59977,-1.204 7.34528,-1.204 1.64721,0 3.37751,0.1509 5.14904,0.4501 0.97565,0.1646 3.32443,0.6896 5.21881,1.1673 l 3.44371,0.8682 0.68988,0.1659 1.92857,0.3963 c 4.75587,0.9798 8.97046,0.9062 11.10113,-0.1958 v -5e-4 c 0.53987,-0.3251 0.99118,-0.574 1.64538,-1.1349 1.39738,-1.1985 1.92546,-3.035 1.92546,-5.1459 0,-1.1329 -0.22741,-2.6152 -0.40256,-2.5962 -0.0436,0 -0.26512,0.3239 -0.49247,0.7172 -0.70198,1.2147 -2.07077,2.4737 -3.38739,3.1161 -2.68949,1.3115 -6.12154,1.2984 -8.22689,-0.03 -0.88361,-0.5581 -1.57469,-1.3247 -2.06138,-2.2143 -1.20281,1.5777 -2.52749,2.4582 -4.02869,2.7006 -0.78597,0.1275 -1.01797,0.1275 -1.7539,0 -1.85395,-0.3121 -3.12006,-1.3234 -3.76876,-3.0101 -0.10833,-0.2784 -0.16664,-0.5972 -0.21084,-1.0026 -0.24463,-0.1596 -0.29498,0.014 -0.51625,0.4016 -0.77626,1.3582 -2.38538,2.5678 -3.7915,3.1553 -1.25785,0.5253 -2.19506,0.6917 -3.91449,0.6915 -1.78124,-2e-4 -2.35318,-0.1127 -3.59719,-0.7054 -1.08113,-0.5153 -2.09225,-1.5536 -2.67168,-2.7414 l -0.43511,-0.8894 -0.5302,0.8552 c -0.71572,1.1544 -1.44653,1.9502 -2.33681,2.5456 -1.10939,0.7419 -1.85042,0.9395 -3.48712,0.9395 -1.15944,0 -1.40303,-0.031 -1.89963,-0.23 -1.15551,-0.4635 -1.89985,-1.2562 -2.26291,-2.4112 -0.30394,-1.0036 -0.3005,-3.3076 0.0186,-4.748 0.53468,-2.4164 1.54821,-5.1004 2.73885,-7.2528 0.85358,-1.5433 0.24199,-1.2592 -0.76222,0.354 -1.08279,1.7391 -2.36643,4.6488 -3.43442,7.7856 -0.79843,2.3447 -1.32572,3.4058 -2.12338,4.2674 -0.76772,0.8293 -1.51531,1.206 -2.5306,1.279 -1.56223,0.1117 -2.53056,-0.6592 -2.94504,-2.3441 -0.18283,-0.7377 -0.157,-2.4324 0.0512,-3.4494 0.45981,-2.2462 1.66391,-5.153 3.41581,-8.2475 0.18495,-0.3277 0.20734,-0.4404 0.11214,-0.5354 -0.33116,-0.331 -2.39431,2.5907 -3.87108,5.4824 -1.76133,3.4465 -2.41953,6.3297 -1.88309,8.2346 0.25574,0.9054 0.26328,1.1894 0.0382,1.465 -0.41359,0.5066 -2.6262,0.7108 -3.85196,0.3545 -1.98848,-0.5777 -3.13524,-2.2241 -3.32796,-4.7785 l -0.0667,-0.863 -0.45423,0.1426 c -0.4397,0.1371 -1.46069,0.1254 -1.93787,-0.021 -0.16161,-0.05 -0.23438,0.011 -0.37724,0.3136 -0.49278,1.0433 -1.45626,2.4879 -2.16059,3.2407 -2.12115,2.2672 -4.97788,2.8846 -7.52047,1.6247 -1.5328,-0.7596 -2.45363,-2.0258 -2.76469,-3.8039 -0.2038,-1.1675 -0.1243,-3.5359 0.16537,-4.9077 0.77076,-3.6513 2.81219,-7.4428 4.97592,-9.2413 2.98179,-2.4783 7.79084,-2.0692 9.35033,0.7958 0.78902,1.4502 0.84424,3.9382 0.14883,6.7055 -0.15729,0.6234 -0.28455,1.2264 -0.28474,1.3426 0,0.3023 0.24101,0.4665 0.56276,0.3855 0.37689,-0.094 1.26605,-1.0143 1.38596,-1.433 0.0543,-0.1896 0.32695,-1.0969 0.60513,-2.0164 0.68373,-2.2601 0.90136,-3.3895 0.98186,-5.0648 0.0668,-1.4064 0.07,-1.4175 0.35501,-1.663 0.31115,-0.2653 0.49802,-0.2685 2.02159,-0.03 0.85702,0.1238 2.72101,0.1197 3.94187,-0.019 1.76054,-0.2003 1.86828,0.025 0.95033,1.9704 -0.34902,0.7398 -0.84067,1.9153 -1.09295,2.6128 -0.79991,2.2114 -0.72534,2.3939 0.28318,0.6987 1.87388,-3.149 3.71116,-5.2583 5.18057,-5.9454 0.35855,-0.1668 0.81606,-0.2681 1.27744,-0.2961 0.46099,-0.027 0.92578,0.017 1.29708,0.1411 0.64909,0.2154 1.40358,0.936 1.55597,1.4862 0.23343,0.8409 0.0887,1.4149 -0.87746,3.485 -0.68372,1.4634 -0.96376,2.2247 -0.86093,2.3275 0.10666,0.1069 0.22585,-0.039 0.90899,-1.1131 2.03303,-3.1975 4.05982,-5.2708 5.72626,-5.8565 1.4488,-0.5092 3.20099,-0.2585 4.11345,0.5892 0.65254,0.6062 0.87827,1.5851 0.62011,2.6882 -0.0842,0.3594 -0.55941,1.7565 -1.05523,3.1042 -1.61267,4.3839 -2.03096,5.6947 -1.81901,6.4027 0.28555,0.9325 1.23867,0.2522 1.76733,-0.2822 0.98418,-0.9941 1.583,-1.994 1.78749,-2.9864 0.37895,-1.8392 1.16032,-3.7456 2.16628,-5.2823 0.71572,-1.093 2.46639,-2.7786 3.54242,-3.4112 1.09026,-0.6407 2.36014,-1.0575 3.65145,-1.1984 2.08789,-0.228 3.46237,0.229 4.28553,1.4253 1.38178,2.0084 0.95554,5.6627 -0.94051,8.0594 -0.9262,1.1704 -2.50621,1.8641 -4.23437,1.8831 -0.65576,0.01 -1.06406,-0.039 -1.22214,-0.1276 l -0.2372,-0.1333 0.0646,0.4676 c 0.17172,1.253 1.31663,2.0195 3.0179,2.0195 0.95073,0 1.75761,-0.21 2.4691,-0.6423 0.75389,-0.4579 1.98617,-1.5603 2.57142,-2.5197 1.17216,-1.9215 1.74346,-4.1178 2.40244,-6.2818 0.2312,-0.7592 0.51936,-1.5031 0.78444,-2.2454 l -1.12086,0.019 c -0.68569,0.011 -1.15859,-0.03 -1.21749,-0.1029 -0.14758,-0.1778 0.15974,-1.3391 0.42478,-1.6045 0.20076,-0.2008 0.37783,-0.2356 1.39371,-0.2656 l 1.16375,-0.036 0.19534,-0.5581 c 0.33284,-0.9519 1.97001,-5.0573 2.32286,-5.8255 0.18428,-0.4009 0.48031,-1.048 0.65732,-1.4376 l 0.32298,-0.7085 -1.59215,-0.7597 c -3.84832,-1.8357 -5.51415,-2.3319 -7.45485,-2.2215 -1.25893,0.071 -1.67975,0.1867 -2.36368,0.6469 -0.98026,0.6598 -1.37729,1.3948 -1.99057,3.6903 -0.481,1.7993 -0.80199,2.4839 -1.49759,3.1941 -0.68334,0.6976 -1.822,1.301 -2.87114,1.5213 -0.8839,0.1868 -2.72233,0.1601 -3.86901,-0.055 -3.10769,-0.5822 -5.51468,-2.0917 -7.08898,-4.4453 -0.99714,-1.4911 -1.4397,-3.0701 -1.4583,-5.1232 -0.0155,-2.7926 0.74205,-4.7683 2.55126,-6.6523 2.15549,-2.2453 5.05958,-3.4428 8.67751,-3.578 0.38592,-0.019 0.76421,-0.038 1.13688,-0.019 z m 32.28898,8.8626 c -1.85067,0.097 -4.8545,1.6061 -6.15673,3.3222 1.0452,0.3958 3.33443,1.0962 5.872,0.817 v -5e-4 c 1.78355,-0.1961 3.47043,-2.8388 1.34669,-3.9656 -0.26921,-0.1429 -0.63488,-0.1955 -1.06196,-0.1731 z m -0.0506,0.7947 c 0.85811,-0.01 1.44998,0.2819 1.41232,0.924 -0.15466,2.6366 -4.27067,1.8906 -6.23941,1.3756 1.22724,-1.439 3.39691,-2.2851 4.82709,-2.2996 z m -99.21978,0.4258 c 2.13577,-0.031 4.58379,0.4923 7.42487,1.5622 1.224,0.4612 3.23021,1.3243 5.94796,2.5585 l 0.68626,0.3116 0.64854,-0.4098 c 1.69038,-1.069 4.2272,-2.1442 6.27868,-2.6603 4.66865,-1.1752 8.0514,-0.2986 9.3431,2.4206 1.35264,2.8491 -0.45267,5.9812 -3.88917,6.7458 -0.61063,0.1352 -1.07771,0.1612 -2.13578,0.1142 -1.71383,-0.075 -3.05212,-0.4104 -5.9092,-1.4826 l -2.07946,-0.7803 -0.23616,0.2904 c -0.12972,0.1601 -0.50994,0.6875 -0.84336,1.172 -3.37174,4.8994 -5.33869,10.9791 -4.98161,15.3981 0.31164,3.8599 2.22338,6.5086 5.85804,7.6104 5.36714,1.627 15.57917,1.9898 20.39565,4.5108 0.67047,0.3509 1.86349,1.2539 2.22106,1.6604 h 0.001 5.2e-4 c 0.46,0.4211 0.80651,0.8934 1.11001,1.4479 1.1854,1.8307 1.60958,3.756 1.25005,5.6839 -0.33568,1.8016 -1.07751,2.9421 -2.58175,3.9662 -0.79873,0.5438 -1.18739,0.7286 -2.03606,0.9658 -1.66242,0.4737 -3.41436,0.4772 -4.79712,0.02 l 5.2e-4,-6e-4 c -1.44527,-0.4778 -2.56524,-1.4357 -2.87011,-2.4546 -0.24011,-0.8023 -0.18734,-1.4031 0.26717,-3.052 0.38474,-1.398 0.4168,-1.5871 0.3638,-2.2288 -0.0672,-0.8383 -0.46025,-1.5691 -1.2423,-2.3094 h -5.2e-4 -5.2e-4 -5.1e-4 l -5.2e-4,-5e-4 -5.2e-4,-6e-4 c -0.002,0 -0.006,-0.01 -0.0181,-0.017 -2.36077,-1.5183 -4.95009,-2.2766 -7.84397,-2.4226 -4.57564,-0.2308 -5.64583,2.0311 -8.08529,2.2536 -5.57139,0.5082 -9.96492,-2.1037 -11.59516,-6.8931 -0.10469,-0.3081 -0.21923,-0.6133 -0.29973,-0.9287 h 5.2e-4 v -5e-4 h -5.2e-4 c -0.43891,-1.2688 -0.55529,-4.8438 -0.22324,-6.8688 0.45549,-2.7807 1.35827,-5.5469 2.65204,-8.1256 0.59316,-1.1672 0.67924,-1.234 1.16633,-2.1404 0.54763,-1.0194 1.62814,-2.5364 2.36162,-3.5208 1.22066,-1.6387 2.04218,-2.6157 3.59254,-4.27 0.93226,-0.9963 1.14571,-1.2742 1.00097,-1.3162 -0.46805,-0.1385 -1.90923,-0.2697 -2.91196,-0.2697 -2.48676,0 -4.12013,0.7685 -4.87774,2.2841 -0.30321,0.607 -0.3841,0.9202 -0.63304,2.4463 -0.41487,2.5424 -2.57935,4.0042 -5.69371,3.8442 -3.78454,-0.1942 -6.31373,-2.6895 -6.33243,-6.2228 -0.0109,-2.1627 0.91667,-4.2196 2.68614,-5.9914 1.88692,-1.8896 4.11653,-2.8477 6.86263,-2.8877 z m 75.86565,3.2241 c -0.59578,0.034 -0.88166,0.071 -0.96686,0.094 -0.0854,0.023 -0.0871,0.019 -0.36329,0.2051 -0.32811,0.2208 -0.29819,0.1819 -0.47077,0.5018 -0.15064,0.2793 -0.39049,0.9244 -0.68161,2.0139 -0.50976,1.9071 -1.05547,3.1212 -2.0159,4.1015 -0.44086,0.45 -0.97124,0.8034 -1.51722,1.125 0.5572,-0.1485 1.05333,-0.4724 1.62884,-0.5354 2.06842,-0.2258 4.01293,0.2364 5.38055,1.4573 0.10771,-0.2114 0.18456,-0.4171 0.42788,-0.6604 0.41653,-0.4156 0.82727,-0.6404 1.46296,-0.7597 0.36066,-0.069 0.98547,-0.1539 0.98547,-0.1539 0,0 1.78131,-4.2339 2.20968,-5.1667 0.0369,-0.08 0.0885,-0.1918 0.13281,-0.2888 -3.51489,-1.6633 -4.71941,-2.0079 -6.21254,-1.9239 z m -53.15076,0.6863 v 5e-4 0.01 c -0.75958,0.02 -1.71625,0.248 -2.59674,0.9343 -0.55808,0.435 -0.84964,0.6996 -1.50223,1.2868 0.45517,0.1328 0.57317,0.1561 1.17202,0.2511 1.12155,0.176 3.10473,0.3964 4.14135,-0.032 0.43353,-0.1791 1.11968,-0.7873 0.34261,-1.8815 -0.35244,-0.4963 -1.0009,-0.569 -1.55701,-0.569 z m 0.21497,0.6031 c 0.49232,0.01 0.89482,0.214 1.0139,0.7684 0.16689,0.777 -2.32306,0.9699 -3.50883,0.5581 -0.10646,-0.3817 1.41183,-1.3409 2.49493,-1.3265 z m 53.7869,1.8603 c 0.56795,0.046 1.51294,0.3515 2.70165,0.863 -0.3452,0.847 -0.64707,1.5907 -0.98857,2.4826 -0.0208,0 -0.0275,1e-4 -0.0486,0 h -0.016 c -0.69165,0.132 -1.30231,0.5717 -1.88257,0.9885 -0.63672,-0.3189 -1.23519,-0.6783 -1.93373,-0.8284 0.24121,-0.5538 0.4483,-1.1522 0.6351,-1.7849 z m 14.90452,2.9389 v 0 c -0.17047,0.3849 -0.33219,0.7469 -0.51573,1.1741 -0.0592,0.1378 -0.102,0.2441 -0.1602,0.3809 0.29327,0.065 0.52442,0.049 0.84594,0.2811 0.45136,0.325 0.64763,0.7143 0.7736,1.0625 0.56465,-0.6058 1.22486,-1.1536 2.06241,-1.508 0.28565,-0.1206 0.56891,-0.086 0.85524,-0.1793 -1.18415,-0.2806 -2.59985,-0.7392 -3.86126,-1.2133 z m -74.56858,1.9828 c -0.0501,0.071 -0.0666,0.09 -0.11317,0.1581 -3.12877,4.5461 -4.91976,10.4178 -4.62504,14.0663 0.2643,3.2713 1.45241,4.7826 4.4788,5.8302 0.27644,0.096 0.33584,0.093 0.53898,0.1643 -0.41766,-0.7393 -0.83716,-1.4857 -0.99012,-2.3595 -0.292,-1.6731 -0.18815,-3.9515 0.17777,-5.6855 0.86037,-4.0752 2.92817,-8.1166 5.67562,-10.4004 0.0986,-0.082 0.22491,-0.097 0.32608,-0.1736 -1.35464,-0.2224 -2.77363,-0.5856 -4.84156,-1.3617 l -0.62736,-0.2362 z m 44.76781,0.5405 v 5e-4 c 1.25874,0.6691 1.72663,2.0191 1.85725,3.373 0.95979,-1.1529 2.11081,-2.2647 3.29128,-2.9668 -1.335,0.2028 -2.87385,0.2086 -4.19148,-0.039 -0.35216,-0.066 -0.61683,-0.279 -0.95705,-0.368 z m 27.80606,2.9626 v 5e-4 c -0.20439,0.036 -0.52324,0.042 -1.12706,0.042 h -0.83716 v -5e-4 h 0.83767 c 0.54977,0 0.84902,-0.01 1.12655,-0.042 z m -60.21648,1.9844 c -0.84691,-0.063 -1.83126,0.952 -2.70526,2.7885 -0.85946,1.8057 -1.27597,3.3899 -1.27538,4.8488 0,1.1266 0.19466,1.5074 0.76947,1.5074 0.25532,0 0.52296,-0.096 0.82165,-0.2941 0.7324,-0.4847 0.82375,-0.6269 0.6904,-1.0728 -0.38416,-1.2828 0.35822,-2.8073 1.5782,-3.2406 0.44332,-0.1575 0.48521,-0.2019 0.61856,-0.6635 0.239,-0.8236 0.37553,-1.9345 0.32453,-2.6469 -0.0616,-0.8625 -0.27876,-1.1868 -0.82217,-1.2268 z m 42.78705,0.077 c -0.0206,0 -0.042,0 -0.0641,0.01 v -6e-4 c -0.10087,0.019 -0.21691,0.071 -0.3483,0.1561 -0.80255,0.5258 -2.19801,3.3378 -2.45618,4.9496 -0.069,0.433 -0.0687,0.4334 0.19637,0.3664 0.1461,-0.037 0.43214,-0.1709 0.63614,-0.3003 0.58266,-0.3677 1.33974,-1.2893 1.7756,-2.1616 0.83243,-1.6658 0.89889,-3.0519 0.26045,-3.0174 z m -42.87232,1.0656 c 0.0119,-3e-4 0.0238,-3e-4 0.0346,5e-4 l 0.003,0.01 c 0.1618,0.019 0.11614,-3e-4 0.14469,0.044 0.0251,0.039 0.0842,0.2263 0.11731,0.5287 -0.0171,0.6113 -0.10759,1.387 -0.28164,1.9869 -0.0309,0.1072 -0.054,0.1688 -0.0651,0.199 -0.0287,0.013 -0.0858,0.038 -0.185,0.073 -1.34007,0.4759 -2.16236,1.8775 -2.06344,3.2809 -0.028,0.2722 0.0406,0.5448 0.03,0.8227 -0.003,0.073 -0.10633,0.1052 -0.36277,0.2749 -0.6497,0.4096 -0.62214,0.1502 -0.66352,-0.5018 0.0571,-1.2616 0.42927,-2.6511 1.19631,-4.2623 0.41821,-0.8787 0.85846,-1.5436 1.25263,-1.9497 0.36919,-0.3807 0.66469,-0.5031 0.84336,-0.5064 z m 42.57622,0.3881 c -0.10077,0.3829 -0.24726,0.8151 -0.49041,1.3017 -0.21801,0.4362 -0.54006,0.7818 -0.85938,1.1074 0.0865,-0.2624 0.18341,-0.5255 0.31884,-0.7984 0.23098,-0.4655 0.47541,-0.8961 0.70228,-1.2283 0.14201,-0.208 0.23567,-0.2906 0.32867,-0.3824 z m 20.75739,1.574 -0.66508,0.7405 c -1.28248,1.4286 -2.07995,3.6821 -1.61386,4.561 0.38178,0.7204 0.97317,0.7371 1.54823,0.4951 0.72151,-0.3014 0.968,-0.8808 0.9493,-2.3523 -0.006,-0.6819 -0.0552,-1.7363 -0.11214,-2.3425 z m -0.46458,2.1146 h 5.2e-4 c 0.0394,0.5276 0.0676,1.1743 0.0791,1.7012 -0.0165,0.4704 -0.0675,0.8302 -0.1385,1.0196 -0.32364,0.863 -1.29403,0.6075 -1.24747,0.017 0.0201,-0.2551 0.0857,-0.54 0.19637,-0.8516 0.22637,-0.6397 0.66159,-1.2983 1.11001,-1.8862 z m -15.12982,7.8073 c 0.0206,0.065 0.019,0.1448 0.0465,0.2088 0.71189,1.8513 2.20341,3.0362 4.21731,3.3765 0.75654,0.1314 1.14437,0.1295 1.9482,0 1.47265,-0.2378 2.76153,-1.1328 3.92018,-2.4588 0.4918,0.7081 1.00656,1.4156 1.7632,1.8935 2.34791,1.482 5.92642,1.4572 8.79429,0.059 1.32369,-0.6456 2.52476,-1.8473 3.33261,-3.0722 0.0406,0.3364 0.0681,0.6938 0.0837,1.0392 -0.0488,1.871 -0.53514,3.4034 -1.69912,4.4018 -0.60858,0.5218 -1.00484,0.7369 -1.54306,1.0604 -1.86226,0.9586 -6.02565,1.1048 -10.70322,0.1411 l -1.91978,-0.3948 -0.67593,-0.1623 -3.44113,-0.8692 c -1.90703,-0.4809 -4.23842,-1.0026 -5.26376,-1.1756 -1.47356,-0.2488 -2.90938,-0.37 -4.30827,-0.4165 0.59014,-0.1165 1.14491,-0.2846 1.7477,-0.5359 1.38365,-0.578 2.77917,-1.7554 3.70055,-3.0949 z m 10.05727,3.0365 c -0.97973,0.8482 -2.06152,1.514 -3.32228,1.7808 l 1.19321,0.3007 0.64492,0.1566 1.89446,0.3907 c 2.24065,0.4619 4.35546,0.6531 6.08386,0.6191 1.71823,-0.034 3.06372,-0.3376 3.63079,-0.6253 0.5089,-0.3041 0.77947,-0.4476 1.27537,-0.8728 0.30018,-0.2575 0.48757,-0.6443 0.67593,-1.033 -0.27021,0.17 -0.50024,0.399 -0.78703,0.5389 h -0.002 c -3.29676,1.6077 -7.30444,1.7052 -10.22831,-0.1405 -0.51238,-0.3236 -0.71437,-0.7275 -1.05885,-1.1152 z m -55.05866,1.4221 v 6e-4 c 10e-4,10e-5 0.003,4e-4 0.004,5e-4 2.5e-4,0 0.001,-5e-4 0.002,-5e-4 z" /></g></svg>
