<?xml version="1.0" encoding="UTF-8" standalone="no"?>
<svg
   width="1307.0293"
   height="634.66406"
   viewBox="0 0 345.81816 167.92154"
   version="1.1"
   id="svg16"
   xml:space="preserve"
   xmlns="http://www.w3.org/2000/svg"
   xmlns:svg="http://www.w3.org/2000/svg"
   xmlns:rdf="http://www.w3.org/1999/02/22-rdf-syntax-ns#"
   xmlns:cc="http://creativecommons.org/ns#"
   xmlns:dc="http://purl.org/dc/elements/1.1/"><defs
     id="defs10" /><metadata
     id="metadata13"><rdf:RDF><cc:Work
         rdf:about=""><dc:format>image/svg+xml</dc:format><dc:type
           rdf:resource="http://purl.org/dc/dcmitype/StillImage" /></cc:Work></rdf:RDF></metadata><g
     id="layer1"
     transform="translate(-543.88673,-9471.3102)"><path
       id="path1629"
       style="baseline-shift:baseline;display:inline;overflow:visible;opacity:1;vector-effect:none;fill:#ff0000;enable-background:accumulate;stop-color:#000000;stop-opacity:1"
       d="m 585.01546,9471.3103 c -7.46608,0 -11.9586,2.8641 -16.34733,5.625 -4.38873,2.761 -8.3882,6.0121 -11.98066,9.1761 -7.18492,6.328 -12.80077,12.5311 -12.80077,12.5311 l 19.58588,17.7911 c 0,0 4.82933,-5.2955 10.70116,-10.467 2.93591,-2.5858 6.11791,-5.0849 8.58397,-6.6363 0.7704,-0.4847 1.2396,-0.6211 1.80868,-0.8517 1.50195,1.2632 3.76981,3.6428 6.32416,6.4549 2.61136,2.8749 5.48079,6.1358 9.20512,9.2109 3.72434,3.0752 8.78978,6.6233 16.25586,6.6233 7.46608,0 12.53359,-3.5481 16.25792,-6.6233 3.72434,-3.0751 6.59171,-6.336 9.20306,-9.2109 2.37321,-2.6127 4.37594,-4.6729 5.87509,-5.998 1.49918,1.325 3.50305,3.3849 5.87664,5.998 2.61135,2.8749 5.47924,6.1358 9.20358,9.2109 3.72433,3.0752 8.78977,6.6233 16.25585,6.6233 7.46608,0 12.53307,-3.5481 16.25741,-6.6233 3.72434,-3.0751 6.5917,-6.336 9.20305,-9.2109 2.37322,-2.6127 4.37595,-4.6729 5.8751,-5.998 1.49919,1.325 3.50356,3.3849 5.87716,5.998 2.61135,2.8749 5.47872,6.1358 9.20305,9.2109 3.72434,3.0752 8.79185,6.6233 16.25793,6.6233 7.46608,0 12.53152,-3.5481 16.25585,-6.6233 3.72434,-3.0751 6.59171,-6.336 9.20306,-9.2109 2.55475,-2.8126 4.82222,-5.1939 6.32416,-6.4569 0.5694,0.2306 1.03934,0.3684 1.81074,0.8537 2.46606,1.5514 5.64805,4.0505 8.58397,6.6363 5.87183,5.1715 10.70116,10.467 10.70116,10.467 l 19.58588,-17.7911 c 0,0 -5.61585,-6.2031 -12.80077,-12.5311 -3.59246,-3.164 -7.59194,-6.4151 -11.98066,-9.1761 -4.38873,-2.7609 -8.88123,-5.625 -16.34732,-5.625 -7.46607,0 -12.53359,3.5462 -16.25793,6.6213 -3.72434,3.0752 -6.5917,6.3359 -9.20305,9.2108 -2.3736,2.6131 -4.37797,4.6731 -5.87716,5.9981 -1.49915,-1.3251 -3.50189,-3.3854 -5.8751,-5.9981 -2.61135,-2.8749 -5.47872,-6.1356 -9.20305,-9.2108 -3.72434,-3.0751 -8.78978,-6.6213 -16.25586,-6.6213 -7.46608,0 -12.53359,3.5462 -16.25792,6.6213 -3.72434,3.0752 -6.5917,6.3359 -9.20305,9.2108 -2.3736,2.6131 -4.37747,4.6731 -5.87665,5.9981 -1.49916,-1.3251 -3.50188,-3.3854 -5.87509,-5.9981 -2.61135,-2.8749 -5.47872,-6.1356 -9.20306,-9.2108 -3.72433,-3.0751 -8.79184,-6.6213 -16.25792,-6.6213 -7.46608,0 -12.53152,3.5462 -16.25586,6.6213 -3.72434,3.0752 -6.59377,6.3359 -9.20512,9.2108 -2.37356,2.6131 -4.37591,4.6731 -5.87509,5.9981 -1.49915,-1.3251 -3.50189,-3.3854 -5.8751,-5.9981 -2.61135,-2.8749 -5.47872,-6.1356 -9.20305,-9.2108 -3.72434,-3.0751 -8.79183,-6.6213 -16.25792,-6.6213 z m 37.77133,59.2325 c -7.46608,0 -11.95859,2.8641 -16.34732,5.625 -4.38873,2.761 -8.3882,6.0117 -11.98066,9.1757 -7.18492,6.328 -12.80077,12.5315 -12.80077,12.5315 l 19.58588,17.7907 c 0,0 4.82933,-5.2951 10.70116,-10.4666 2.93591,-2.5858 6.11791,-5.0854 8.58397,-6.6368 0.7704,-0.4847 1.2396,-0.621 1.80868,-0.8516 1.50195,1.2632 3.76981,3.6428 6.32416,6.4549 2.61136,2.8749 5.48079,6.1362 9.20512,9.2113 3.72434,3.0752 8.78978,6.6229 16.25586,6.6229 7.46608,0 12.53359,-3.5477 16.25792,-6.6229 3.72434,-3.0751 6.5917,-6.3364 9.20305,-9.2113 2.37321,-2.6127 4.37595,-4.673 5.8751,-5.9981 1.49918,1.325 3.50305,3.385 5.87664,5.9981 2.61135,2.8749 5.47872,6.1362 9.20306,9.2113 3.72433,3.0752 8.78977,6.6229 16.25585,6.6229 7.46608,0 12.53358,-3.5477 16.25792,-6.6229 3.72434,-3.0751 6.59171,-6.3364 9.20306,-9.2113 2.37322,-2.6127 4.37594,-4.673 5.87509,-5.9981 1.49919,1.325 3.50356,3.385 5.87716,5.9981 2.61135,2.8749 5.47873,6.1362 9.20306,9.2113 3.72434,3.0752 8.79184,6.6229 16.25792,6.6229 7.46608,0 12.53153,-3.5477 16.25586,-6.6229 3.72434,-3.0751 6.5917,-6.3364 9.20305,-9.2113 2.55475,-2.8126 4.82223,-5.194 6.32417,-6.457 0.5694,0.2306 1.03934,0.3684 1.81074,0.8537 2.46606,1.5514 5.64805,4.051 8.58397,6.6368 5.87183,5.1715 10.70116,10.4666 10.70116,10.4666 l 19.58588,-17.7907 c 0,0 -5.61585,-6.2035 -12.80077,-12.5315 -3.59246,-3.164 -7.59194,-6.4147 -11.98066,-9.1757 -4.38873,-2.7609 -8.88175,-5.625 -16.34784,-5.625 -7.46607,0 -12.53307,3.5457 -16.25741,6.6208 -3.72434,3.0752 -6.59222,6.3364 -9.20357,9.2113 -2.3736,2.6131 -4.37745,4.6731 -5.87664,5.9981 -1.49915,-1.3251 -3.50189,-3.3854 -5.8751,-5.9981 -2.61135,-2.8749 -5.47872,-6.1361 -9.20305,-9.2113 -3.72434,-3.0751 -8.78978,-6.6208 -16.25586,-6.6208 -7.46608,0 -12.53359,3.5457 -16.25792,6.6208 -3.72434,3.0752 -6.59171,6.3364 -9.20306,9.2113 -2.3736,2.6131 -4.37798,4.6731 -5.87716,5.9981 -1.49916,-1.3251 -3.50136,-3.3854 -5.87457,-5.9981 -2.61135,-2.8749 -5.47924,-6.1361 -9.20358,-9.2113 -3.72433,-3.0751 -8.79132,-6.6208 -16.2574,-6.6208 -7.46608,0 -12.53152,3.5457 -16.25586,6.6208 -3.72434,3.0752 -6.59377,6.3364 -9.20512,9.2113 -2.37356,2.6131 -4.37591,4.6731 -5.87509,5.9981 -1.49915,-1.3251 -3.50189,-3.3854 -5.8751,-5.9981 -2.61135,-2.8749 -5.47872,-6.1361 -9.20305,-9.2113 -3.72434,-3.0751 -8.79184,-6.6208 -16.25793,-6.6208 z m 37.77134,59.2321 c -7.46608,0 -11.95911,2.8641 -16.34784,5.625 -4.38873,2.761 -8.38769,6.0116 -11.98015,9.1756 -7.18492,6.328 -12.80076,12.5316 -12.80076,12.5316 l 19.58588,17.7911 c 0,0 4.82933,-5.2955 10.70116,-10.467 2.93591,-2.5858 6.11791,-5.0854 8.58397,-6.6368 0.7704,-0.4847 1.23959,-0.6211 1.80867,-0.8517 1.50195,1.2632 3.76982,3.6434 6.32417,6.4555 2.61136,2.8749 5.48079,6.1357 9.20512,9.2108 3.72434,3.0752 8.78977,6.6228 16.25585,6.6228 7.46608,0 12.5336,-3.5476 16.25793,-6.6228 3.72434,-3.0751 6.5917,-6.3359 9.20305,-9.2108 2.37321,-2.6127 4.37595,-4.673 5.8751,-5.9981 1.49918,1.325 3.50305,3.385 5.87664,5.9981 2.61135,2.8749 5.47872,6.1357 9.20306,9.2108 3.72433,3.0752 8.78977,6.6228 16.25585,6.6228 7.46608,0 12.53358,-3.5476 16.25792,-6.6228 3.72434,-3.0751 6.59171,-6.3359 9.20306,-9.2108 2.37322,-2.6127 4.37594,-4.673 5.87509,-5.9981 1.49919,1.325 3.50356,3.385 5.87716,5.9981 2.61135,2.8749 5.47873,6.1357 9.20306,9.2108 3.72434,3.0752 8.79184,6.6228 16.25792,6.6228 7.46608,0 12.53153,-3.5476 16.25586,-6.6228 3.72434,-3.0751 6.5917,-6.3359 9.20305,-9.2108 2.55475,-2.8126 4.82222,-5.194 6.32416,-6.457 0.5694,0.2306 1.03883,0.3679 1.81023,0.8532 2.46606,1.5514 5.64805,4.051 8.58397,6.6368 5.87183,5.1715 10.70116,10.467 10.70116,10.467 l 19.5864,-17.7911 c 0,0 -5.61585,-6.2036 -12.80077,-12.5316 -3.59246,-3.164 -7.59194,-6.4146 -11.98066,-9.1756 -4.38873,-2.7609 -8.88175,-5.625 -16.34784,-5.625 -7.46607,0 -12.53359,3.5462 -16.25793,6.6213 -3.72434,3.0752 -6.5917,6.3359 -9.20305,9.2108 -2.3736,2.6131 -4.37746,4.6731 -5.87665,5.9981 -1.49915,-1.3251 -3.50188,-3.3854 -5.87509,-5.9981 -2.61135,-2.8749 -5.47873,-6.1356 -9.20306,-9.2108 -3.72434,-3.0751 -8.78977,-6.6213 -16.25585,-6.6213 -7.46608,0 -12.53359,3.5462 -16.25792,6.6213 -3.72434,3.0752 -6.59171,6.3359 -9.20306,9.2108 -2.3736,2.6131 -4.37798,4.6731 -5.87716,5.9981 -1.49916,-1.3251 -3.50188,-3.3854 -5.87509,-5.9981 -2.61135,-2.8749 -5.47872,-6.1356 -9.20306,-9.2108 -3.72433,-3.0751 -8.79132,-6.6213 -16.2574,-6.6213 -7.46608,0 -12.53204,3.5462 -16.25638,6.6213 -3.72434,3.0752 -6.59325,6.3359 -9.2046,9.2108 -2.37356,2.6131 -4.37592,4.6731 -5.8751,5.9981 -1.49915,-1.3251 -3.50188,-3.3854 -5.87509,-5.9981 -2.61135,-2.8749 -5.47873,-6.1356 -9.20306,-9.2108 -3.72434,-3.0751 -8.79183,-6.6213 -16.25792,-6.6213 z" /></g></svg>
